<svg width="28" height="18" viewBox="0 0 28 18" fill="none" xmlns="http://www.w3.org/2000/svg">
<path fill-rule="evenodd" clip-rule="evenodd" d="M0 1C0 0.447716 0.447693 0 1 0H27C27.5523 0 28 0.447716 28 1C28 1.55228 27.5523 2 27 2H1C0.447693 2 0 1.55228 0 1ZM0 9C0 8.44772 0.447693 8 1 8H27C27.5523 8 28 8.44772 28 9C28 9.55228 27.5523 10 27 10H1C0.447693 10 0 9.55228 0 9ZM1 16C0.447693 16 0 16.4477 0 17C0 17.5523 0.447693 18 1 18H27C27.5523 18 28 17.5523 28 17C28 16.4477 27.5523 16 27 16H1Z" fill="#CC0A0A"/>
</svg>
