<svg width="18" height="21" viewBox="0 0 18 21" fill="none" xmlns="http://www.w3.org/2000/svg">
<path fill-rule="evenodd" clip-rule="evenodd" d="M18 5.27534L8.96777 0L0 5.25845V15.6191L8.89123 21L18 15.4881V5.27534Z" fill="#CC0A0A"/>
<path d="M12.1218 11.214C11.959 10.5288 11.5804 10.0178 11.1355 9.49139C10.6755 8.94971 10.1871 8.42143 9.82363 7.80318C9.44124 7.13326 9.14971 6.41357 8.95851 5.66326C8.94905 5.62689 8.91687 5.6001 8.87901 5.6001H8.87143C8.83357 5.6001 8.80139 5.62498 8.79193 5.66326C8.59884 6.41357 8.30731 7.13326 7.92681 7.80318C7.56335 8.42143 7.07495 8.94971 6.61494 9.49139C6.17008 10.0178 5.79147 10.5288 5.62867 11.214C5.30686 12.5883 5.85962 14.0201 7.01437 14.8144C7.56146 15.1953 8.20698 15.4001 8.87143 15.402H8.87901C9.54157 15.3982 10.189 15.1934 10.7361 14.8144C11.8908 14.0201 12.4436 12.5883 12.1218 11.214Z" fill="#1C1B1D"/>
</svg>
