<svg width="10" height="14" viewBox="0 0 10 14" fill="none" xmlns="http://www.w3.org/2000/svg">
<mask id="mask0" mask-type="alpha" maskUnits="userSpaceOnUse" x="0" y="0" width="10" height="14">
<rect width="10" height="14" fill="#C4C4C4"/>
</mask>
<g mask="url(#mask0)">
<path d="M9.50975 8.03141C9.27459 7.0511 8.72772 6.31998 8.08514 5.56695C7.42069 4.79201 6.71522 4.03624 6.19022 3.15177C5.63787 2.19337 5.21678 1.16377 4.94061 0.0903637C4.92694 0.0383361 4.88045 0 4.82577 0H4.81483C4.76014 0 4.71366 0.0355978 4.69999 0.0903637C4.42108 1.16377 3.99999 2.19337 3.45038 3.15177C2.92538 4.03624 2.21991 4.79201 1.55546 5.56695C0.912879 6.31998 0.366005 7.0511 0.130849 8.03141C-0.333995 9.99751 0.464442 12.0457 2.13241 13.1821C2.92264 13.7271 3.85506 14.0201 4.81483 14.0228H4.82577C5.7828 14.0173 6.71795 13.7243 7.50819 13.1821C9.17615 12.0457 9.97459 9.99751 9.50975 8.03141Z" fill="#1C1B1D"/>
</g>
</svg>
