<svg width="10" height="15" viewBox="0 0 10 15" fill="none" xmlns="http://www.w3.org/2000/svg">
<path d="M9.50976 9.01748C9.2746 8.03857 8.72773 7.3085 8.08515 6.55654C7.4207 5.78271 6.71523 5.02803 6.19023 4.14482C5.63788 3.18779 5.21679 2.15967 4.94062 1.08779C4.92694 1.03584 4.88046 0.997559 4.82577 0.997559H4.81484C4.76015 0.997559 4.71366 1.03311 4.69999 1.08779C4.42108 2.15967 3.99999 3.18779 3.45038 4.14482C2.92538 5.02803 2.21991 5.78271 1.55546 6.55654C0.912881 7.3085 0.366005 8.03857 0.130849 9.01748C-0.333995 10.9808 0.464443 13.0261 2.13241 14.1608C2.92265 14.705 3.85507 14.9976 4.81484 15.0003H4.82577C5.7828 14.9948 6.71796 14.7022 7.50819 14.1608C9.17616 13.0261 9.9746 10.9808 9.50976 9.01748Z" fill="white"/>
</svg>
