<svg width="36" height="35" viewBox="0 0 36 35" fill="none" xmlns="http://www.w3.org/2000/svg">
<path d="M35.775 0.399994C31.125 -0.450004 27.5 0.449997 24.9 3.1C22.35 5.74999 21.075 9.69999 21.075 14.95V34.15H35.775V17.2H28.05C27.8 14.2 28.1 11.65 28.95 9.54999C29.85 7.39999 31.85 6.425 34.95 6.625L35.775 0.399994ZM14.7 0.399994C10.05 -0.450004 6.425 0.449997 3.825 3.1C1.275 5.74999 8.49366e-07 9.69999 8.49366e-07 14.95V34.15H14.7V17.2H6.975C6.725 14.2 7.025 11.65 7.875 9.54999C8.775 7.39999 10.775 6.425 13.875 6.625L14.7 0.399994Z" fill="#CC0A0A"/>
</svg>
