<svg width="40" height="40" viewBox="0 0 40 40" fill="none" xmlns="http://www.w3.org/2000/svg">
<circle cx="20" cy="20" r="20" fill="#CC0A0A"/>
<path fill-rule="evenodd" clip-rule="evenodd" d="M26.795 14.195C27.0683 13.9216 27.0683 13.4784 26.795 13.205C26.5216 12.9317 26.0784 12.9317 25.805 13.205L20 19.01L14.195 13.205C13.9216 12.9317 13.4784 12.9317 13.2051 13.205C12.9317 13.4784 12.9317 13.9216 13.2051 14.195L19.0101 20L13.205 25.805C12.9317 26.0784 12.9317 26.5216 13.205 26.795C13.4784 27.0683 13.9216 27.0683 14.195 26.795L20 20.99L25.805 26.795C26.0784 27.0683 26.5216 27.0683 26.7949 26.795C27.0683 26.5216 27.0683 26.0784 26.7949 25.805L20.9899 20L26.795 14.195Z" fill="white"/>
</svg>
