<svg width="17" height="17" viewBox="0 0 17 17" fill="none" xmlns="http://www.w3.org/2000/svg">
<path fill-rule="evenodd" clip-rule="evenodd" d="M13.6144 17H10.2288V11.3093H12.8941L13.2542 9.00424H10.2288C10.2288 9.00424 10.2288 6.41102 10.2288 6.12288C10.3008 5.76271 10.589 5.54661 10.9492 5.54661H11.0212C11.5254 5.54661 12.5339 5.54661 12.5339 5.54661L12.8941 3.31356C11.9576 3.24153 11.0932 3.24153 10.1568 3.31356C9.50848 3.38559 8.9322 3.74576 8.57203 4.17797C8.21187 4.6822 7.99576 5.33051 7.99576 5.97881V8.9322H5.76271V11.2373H7.99576V16.928H3.38559C1.51271 16.928 0 15.4153 0 13.5424V3.38559C0 1.51271 1.51271 0 3.38559 0H13.6144C15.4873 0 17 1.51271 17 3.38559V13.6144C17 15.4873 15.4873 17 13.6144 17Z" fill="#1C1B1D"/>
</svg>
