<svg width="9" height="16" viewBox="0 0 9 16" fill="none" xmlns="http://www.w3.org/2000/svg">
<path fill-rule="evenodd" clip-rule="evenodd" d="M7.89471 2.74378L8.25518 0.441453C7.32494 0.383314 6.39471 0.383314 5.46448 0.464709C4.81332 0.546105 4.22029 0.871686 3.80169 1.37169C3.40634 1.90657 3.20867 2.56936 3.24355 3.23215V6.24378L0.917969 6.22052V8.55773L3.24355 8.56936V15.5461L5.58076 15.5345V8.55773H8.33657L8.69704 6.22052H5.58076C5.58076 6.22052 5.58076 3.55773 5.58076 3.30192C5.62727 2.94145 5.94122 2.68564 6.30169 2.73215C6.32494 2.73215 6.33657 2.73215 6.35983 2.74378C6.88308 2.74378 7.89471 2.74378 7.89471 2.74378Z" fill="#1C1B1D"/>
</svg>
