<svg width="17" height="17" viewBox="0 0 17 17" fill="none" xmlns="http://www.w3.org/2000/svg">
<path d="M12.4619 0H4.53814C2.01695 0 0 2.01695 0 4.53814V12.4619C0 14.9831 2.01695 17 4.53814 17H12.4619C14.9831 17 17 14.9831 17 12.4619V4.53814C17 2.01695 14.9831 0 12.4619 0ZM6.55509 12.4619H4.61017V6.62712H6.55509V12.4619ZM5.61864 5.97881C5.04237 5.97881 4.61017 5.54661 4.61017 4.97034C4.61017 4.39407 5.04237 4.0339 5.61864 4.0339C6.19492 4.0339 6.62712 4.4661 6.62712 5.04237C6.62712 5.61864 6.12288 5.97881 5.61864 5.97881ZM13.0381 12.4619H11.0932V9.65254C11.0932 9.58051 11.0932 9.58051 11.0932 9.50847C11.0932 9.00424 10.661 8.57203 10.1568 8.57203C9.72458 8.57203 9.36441 8.86017 9.1483 9.22034V12.4619H7.20339V6.62712H9.1483V7.56356C9.58051 6.98729 10.2288 6.62712 10.9492 6.62712C12.678 6.62712 13.0381 7.8517 13.0381 9.22034V12.4619Z" fill="#1C1B1D"/>
</svg>
