<svg width="380" height="218" viewBox="0 0 380 218" fill="none" xmlns="http://www.w3.org/2000/svg">
<mask id="mask0" mask-type="alpha" maskUnits="userSpaceOnUse" x="0" y="0" width="380" height="218">
<path d="M380 218L-3.05176e-05 218L2.22761e-06 -4.07611e-06L380 1.52588e-05L380 218Z" fill="#CC0A0A"/>
</mask>
<g mask="url(#mask0)">
<rect width="380" height="218" fill="#CC0A0A"/>
<path d="M397.835 98.6822C390.14 67.832 364.171 42.7662 346.858 19.6285C343.973 15.7723 341.087 11.916 338.202 7.09565C336.278 3.23937 333.393 -2.54504 330.507 -5.43725L313.194 -44C312.233 -42.0719 308.385 -25.6827 303.576 -14.1139C298.767 -5.43725 290.111 7.09565 287.225 13.8441C284.34 16.7363 274.722 33.1255 269.912 38.9099C249.714 66.8679 227.592 89.0415 231.44 131.461C233.363 157.49 245.867 174.844 263.18 186.412C320.889 227.867 419.957 182.556 397.835 98.6822ZM300.691 152.67C303.576 151.706 307.424 146.886 316.08 141.101C341.087 125.676 343.973 120.856 343.973 93.8618C343.973 88.0774 344.935 89.0415 344.935 88.0774V90.0056C344.935 90.0056 344.935 90.0056 345.896 90.0056L348.782 105.431C351.667 125.676 347.82 144.957 339.164 158.454C332.431 168.095 307.424 181.592 297.805 165.203C295.882 160.383 298.767 156.526 300.691 152.67ZM301.653 175.808C350.706 179.664 370.904 132.425 367.057 95.79L365.133 87.1134C365.133 87.1134 365.133 87.1134 364.171 86.1493C365.133 78.4367 359.362 73.6164 359.362 68.796C359.362 65.9038 359.362 67.832 359.362 66.8679C370.904 89.0415 372.827 102.538 370.904 131.461C380.522 116.035 370.904 70.7242 362.247 59.1554V57.2272C385.331 92.8978 392.064 127.604 362.247 162.311C340.126 188.341 290.111 195.089 266.065 162.311C272.798 167.131 287.225 174.844 301.653 175.808ZM303.576 15.7723C282.416 58.1913 242.981 78.4367 258.371 129.532C261.256 141.101 272.798 160.383 281.454 162.311C285.302 164.239 283.378 163.275 287.225 164.239C283.378 163.275 286.263 164.239 281.454 162.311C284.34 167.131 282.416 163.275 287.225 168.095L288.187 170.023C262.218 163.275 240.096 122.784 254.523 87.1134C257.409 79.4008 261.256 73.6164 265.103 66.8679C267.027 63.9757 268.951 61.0835 271.836 58.1913C282.416 46.6225 297.805 27.3411 303.576 13.8441V15.7723ZM352.629 184.484C322.813 201.838 285.302 202.802 260.294 173.88C255.485 168.095 246.829 155.562 244.905 145.922C250.676 155.562 252.6 163.275 260.294 170.987C286.263 197.017 316.08 200.873 349.744 181.592C388.217 160.383 396.873 105.431 374.751 66.8679C379.56 76.5086 382.446 74.5805 387.255 94.8259C397.835 129.532 382.446 167.131 352.629 184.484Z" fill="black" fill-opacity="0.1"/>
</g>
</svg>
