<svg width="40" height="40" viewBox="0 0 40 40" fill="none" xmlns="http://www.w3.org/2000/svg">
<path d="M20 40C31.0458 40 40 31.0458 40 20C40 8.95417 31.0458 0 20 0C8.95417 0 0 8.95417 0 20C0 31.0458 8.95417 40 20 40Z" fill="#D6001C"/>
<path d="M11.3757 10.9741V17.7775C12.4115 16.5425 13.6532 15.9208 15.0932 15.9208C15.8349 15.9208 16.499 16.0625 17.0949 16.3433C17.6924 16.6225 18.139 16.9808 18.4407 17.4158C18.744 17.855 18.949 18.3358 19.0599 18.8658C19.1699 19.3933 19.2249 20.2141 19.2249 21.3275V28.6016H16.0065V22.05C16.0065 20.75 15.9482 19.9266 15.8257 19.5766C15.7109 19.2338 15.4832 18.94 15.1799 18.7433C14.8699 18.5341 14.484 18.4308 14.0182 18.4308C13.4849 18.4308 13.0065 18.5641 12.5907 18.8291C12.1657 19.0958 11.8607 19.4941 11.6674 20.0266C11.4707 20.56 11.3724 21.3475 11.3757 22.39L11.3724 28.6016H8.1582V10.9741H11.3765H11.3757ZM24.0482 10.9741V17.7775C25.0849 16.5425 26.3257 15.9208 27.7649 15.9208C28.504 15.9208 29.1732 16.0625 29.7699 16.3433C30.3649 16.6225 30.8115 16.9808 31.1115 17.4158C31.4143 17.852 31.625 18.3454 31.7307 18.8658C31.8415 19.3933 31.8965 20.2141 31.8965 21.3275V28.6016H28.6815V22.05C28.6815 20.75 28.6207 19.9266 28.4982 19.5766C28.3834 19.2333 28.155 18.9394 27.8507 18.7433C27.544 18.5341 27.1549 18.4308 26.689 18.4308C26.1565 18.4308 25.6782 18.5641 25.2615 18.8291C24.8424 19.0958 24.5357 19.4941 24.3399 20.0266C24.1465 20.56 24.0482 21.3475 24.0482 22.39V28.6016H20.834V10.9741H24.0482Z" fill="#FEFEFE"/>
</svg>
