<svg width="50" height="57" viewBox="0 0 50 57" fill="none" xmlns="http://www.w3.org/2000/svg">
<path fill-rule="evenodd" clip-rule="evenodd" d="M38.8106 12.4119L19.3358 0.981445L0 12.3753V34.8243L19.1708 46.4835L38.8106 34.5406V12.4119Z" fill="white"/>
<g clip-path="url(#clip0)">
<path d="M48.583 56.1221C40.1357 56.1221 31.6884 56.1221 23.2411 56.1221C22.5845 56.1221 22.5408 56.0783 22.5408 55.4218V54.5464C22.5408 53.6711 22.5408 52.7957 22.5408 51.8766C22.5408 51.6139 22.497 51.4826 22.4095 51.3513C22.2782 51.22 22.0593 51.1763 21.928 51.1763H21.8842C21.6654 51.1763 21.4466 51.1763 21.2277 51.1763H20.1335C19.9147 51.1763 19.6958 51.1763 19.477 51.1763C19.1268 51.1763 18.9518 51.045 18.908 50.7386C18.908 50.6073 18.908 50.5197 18.9518 50.4322C19.0393 50.3009 19.2144 50.2571 19.3019 50.2571C19.6083 50.2134 19.9584 50.1696 20.3961 50.1696C20.7025 50.1696 21.0089 50.1696 21.3153 50.1696H21.7529C22.3657 50.1696 22.497 49.8632 22.497 49.3818C22.497 42.0724 22.497 34.7193 22.497 27.3662C22.497 26.5346 21.928 25.6155 21.2715 25.4404C21.0526 25.3529 20.79 25.3091 20.5712 25.3091C19.8271 25.3091 19.1706 25.6593 18.8205 26.3158C18.5578 26.7972 18.5141 27.2787 18.5141 27.7601V47.631C18.5141 48.5502 18.3828 49.6006 17.5512 50.3009C16.9822 50.7823 16.3257 51.045 15.6254 51.045C14.3998 51.045 13.3494 50.3009 12.8679 49.1191C12.6929 48.6815 12.6929 48.2438 12.6929 47.8061C12.6929 38.746 12.6929 29.5546 12.6929 20.3633C12.6929 19.663 12.7804 19.5754 13.4807 19.5754C21.8842 19.5754 30.244 19.5754 38.6476 19.5754C39.4354 19.5754 39.4354 19.5754 39.4354 20.3633C39.4354 20.5383 39.4354 20.9323 39.4354 20.9323C39.4354 21.3699 39.4354 21.8514 39.4354 22.3329C39.4354 22.7268 39.3041 22.8581 38.9977 22.9018C38.9539 22.9018 38.9102 22.9018 38.9102 22.9018C38.7351 22.9018 38.56 22.8581 38.5163 22.4204C38.4725 21.9827 38.4725 21.5888 38.4725 21.1511C38.4725 20.6259 38.1661 20.5383 37.9473 20.5383C37.9035 20.5383 37.9035 20.5383 37.8597 20.5383C37.816 20.5383 37.7722 20.5383 37.7722 20.5383H37.5534H14.6187C13.7433 20.5383 13.6558 20.6259 13.6558 21.545V47.8061C13.6558 48.3313 13.6558 48.8565 13.9622 49.3818C14.3561 49.9507 14.9251 50.2571 15.6254 50.2571C15.8442 50.2571 16.063 50.2134 16.2819 50.1696C16.8946 49.9945 17.5512 49.0754 17.5512 48.3751V36.2512C17.5512 35.5072 17.5512 33.7564 17.5512 33.7564C17.5512 31.6993 17.5512 29.5984 17.5512 27.4975C17.5512 26.0969 18.5578 24.8277 19.9584 24.5213C20.1335 24.4775 20.3086 24.4775 20.5274 24.4775C21.6654 24.4775 22.6721 25.134 23.1535 26.1845C23.3724 26.7097 23.4599 27.2787 23.4599 28.0228V54.5902C23.4599 54.9841 23.6788 55.203 24.0289 55.203C24.0289 55.203 24.0727 55.203 24.1164 55.203C24.1602 55.203 24.204 55.203 24.204 55.203H24.4228H47.3137C47.7514 55.203 47.9702 55.203 48.1016 55.0717C48.2329 54.9403 48.2329 54.7215 48.2329 54.2838V27.8914C48.2329 27.41 48.2329 26.9285 48.014 26.4909C47.5763 25.5717 46.7447 25.4404 46.0444 25.4404C45.6943 25.4404 45.3441 25.4404 44.994 25.4404H42.9369H25.517C25.2544 25.4404 24.9918 25.4404 24.7292 25.3529C24.5541 25.3091 24.2915 25.1778 24.3353 24.959C24.3353 24.8277 24.4228 24.4775 24.8167 24.4775H46.3508C47.5326 24.4775 48.583 25.2216 49.0645 26.4033C49.2395 26.841 49.2395 27.2349 49.2395 27.5851V44.8298C49.2395 48.3751 49.2395 51.8766 49.2395 55.4218C49.2833 55.9908 49.152 56.1221 48.583 56.1221ZM28.1431 51.22C27.6617 51.22 27.4866 51.1763 27.4428 50.8261C27.4428 50.6948 27.4428 50.6073 27.5304 50.5197C27.6617 50.3884 27.8805 50.3009 28.1431 50.2571C28.1869 50.2571 28.2307 50.2571 28.2307 50.2571H28.4495H43.4621C43.6372 50.2571 43.7685 50.2571 43.9435 50.3009C44.3375 50.4322 44.3812 50.6073 44.3375 50.8261C44.2937 51.0012 44.2062 51.1763 43.856 51.1763H28.1431V51.22ZM38.1661 47.5435C37.991 47.5435 37.8597 47.5435 37.7284 47.4997C37.3783 47.3684 37.247 47.2809 37.2907 46.9745C37.3345 46.6681 37.5096 46.5806 37.8597 46.5806C38.1661 46.5806 38.4725 46.5806 38.7351 46.5806C39.0415 46.5806 39.3041 46.5806 39.6105 46.5806H41.3612C41.6676 46.5806 41.7989 46.7119 41.8427 46.9745C41.8864 47.1496 41.8864 47.3246 41.4925 47.4997C41.3174 47.5872 41.1424 47.5872 40.9673 47.5872H38.1661V47.5435ZM28.362 47.5435C28.1431 47.5435 27.9681 47.5435 27.793 47.4559C27.4428 47.2809 27.3553 47.1058 27.4428 46.9307C27.4866 46.7119 27.6617 46.5806 27.9243 46.5806C29.1936 46.5806 30.3753 46.5806 31.6008 46.5806H33.3516C33.9206 46.5806 34.4896 46.5806 35.1023 46.5806C35.4962 46.5806 35.6713 46.7119 35.7151 47.0183C35.7588 47.2809 35.7151 47.4559 35.2336 47.5435C35.1023 47.5872 34.971 47.5872 34.8397 47.5872H28.362V47.5435ZM37.4658 43.8669C37.3783 43.8669 37.2907 43.8669 37.2032 43.8669C36.9844 43.8669 36.8093 43.8669 36.5904 43.8669C36.4154 43.8669 36.2841 43.8669 36.109 43.8669C35.9777 43.8669 35.8026 43.8669 35.6713 43.8669H35.4525C34.8835 43.8669 34.7959 43.7794 34.7959 43.2104V40.8469C34.7959 39.2275 34.7959 37.6518 34.7959 36.0761C34.7959 35.726 34.7959 35.2445 34.1394 35.2445H34.0519C33.4391 35.2445 33.2203 35.4634 33.2203 36.0761C33.2203 37.7831 33.2203 39.4901 33.2203 41.1533V42.8603C33.2203 43.7794 33.1327 43.8232 32.2574 43.8232H30.3753C30.2003 43.8232 30.0689 43.7794 29.9814 43.6919C29.8939 43.6043 29.8501 43.473 29.8501 43.2979C29.8501 42.9478 29.8501 42.5976 29.8501 42.2475C29.8501 41.7223 29.8501 41.2408 29.8501 40.8031C29.8501 40.5843 29.8063 40.4092 29.7188 40.3217C29.6313 40.2341 29.4562 40.1904 29.2811 40.1904C29.2373 40.1904 29.2373 40.1904 29.1936 40.1904C29.1498 40.1904 29.106 40.1904 29.0623 40.1904C28.8872 40.1904 28.6684 40.1904 28.5371 40.3655C28.4495 40.453 28.4057 40.6281 28.4057 40.8469C28.4057 41.3284 28.4057 41.766 28.4057 42.2475C28.4057 42.5101 28.4057 42.729 28.4057 42.9916C28.4057 43.2542 28.362 43.473 28.2744 43.6481C28.1431 43.9107 27.9681 43.9545 27.8805 43.9545C27.8368 43.9545 27.793 43.9545 27.793 43.9545C27.5304 43.9107 27.4428 43.7356 27.4428 43.473C27.4428 42.6852 27.4428 41.8974 27.4428 41.1095V39.8402C27.4428 39.5339 27.5741 39.3588 27.9243 39.3588H29.5C29.7626 39.3588 30.0252 39.3588 30.2878 39.3588C30.5504 39.3588 30.813 39.4463 30.813 40.0591C30.8568 40.8031 30.8568 41.5472 30.813 42.2913C30.813 42.5539 30.8568 42.729 30.9881 42.8603C31.1632 43.0353 31.382 43.0353 31.6446 43.0791C32.2574 43.0791 32.3449 42.729 32.3449 42.335C32.3449 39.9715 32.3449 37.5643 32.3449 35.2008C32.3449 34.5443 32.3887 34.5005 33.089 34.5005H34.9272C35.6275 34.5005 35.7588 34.6318 35.7588 35.3321C35.7588 35.9448 35.7588 36.5138 35.7588 37.1266V38.002C35.7588 38.3521 35.7588 39.2275 35.7588 39.2275C35.7588 40.2341 35.7588 41.2408 35.7588 42.2913C35.7588 42.904 36.0652 43.0791 36.5467 43.0791H36.5904C36.8531 43.0791 36.9844 43.0353 37.1157 42.904C37.2907 42.729 37.2907 42.5101 37.2907 42.335C37.2907 41.1533 37.2907 40.0153 37.2907 38.8336V37.6518C37.2907 37.0391 37.3783 36.9515 37.991 36.9515H39.8731C40.4858 36.9515 40.7047 37.1266 40.7047 37.7831V38.4396C40.7047 39.6652 40.7484 40.9782 40.7047 42.2475C40.7047 42.5539 40.7485 42.7727 40.8798 42.904C41.0548 43.0791 41.2737 43.0791 41.4925 43.0791C41.5363 43.0791 41.58 43.0791 41.6238 43.0791C42.149 43.0791 42.2366 42.7727 42.2366 42.3788C42.1928 40.3655 42.1928 38.2646 42.1928 36.295V30.1236C42.1928 29.4671 42.2366 29.4233 42.9369 29.3796H43.5059C43.5934 29.3796 43.6809 29.3796 43.8122 29.3796C44.1186 29.3796 44.2937 29.5109 44.3375 29.7297C44.3812 29.861 44.3375 29.9923 44.2499 30.0799C44.1624 30.1674 44.0749 30.2112 43.9435 30.2112C43.1119 30.2987 43.1119 30.8677 43.1119 31.3492V31.3929C43.1119 35.157 43.1119 38.9649 43.1119 42.729C43.1119 43.6481 42.9806 43.7794 42.0615 43.7794C41.8864 43.7794 41.7551 43.7794 41.5801 43.7794C41.405 43.7794 41.2737 43.7794 41.0986 43.7794C40.9235 43.7794 40.7922 43.7794 40.6171 43.7794C40.5296 43.7794 40.4858 43.7794 40.3983 43.7794C40.0919 43.7794 39.9168 43.7356 39.8293 43.6481C39.698 43.5168 39.6542 43.2979 39.698 42.8165C39.698 41.9411 39.698 41.0658 39.698 40.2341V40.1904C39.698 39.6214 39.698 39.0086 39.698 38.4396C39.698 38.0895 39.698 37.6518 39.0415 37.6518C38.4287 37.6518 38.1661 37.9144 38.2099 38.4834C38.2099 39.7527 38.2536 41.1533 38.2099 42.7727C38.2099 43.6043 38.1223 43.8669 37.4658 43.8669Z" fill="#CC0A0A"/>
</g>
<defs>
<clipPath id="clip0">
<rect width="36.5904" height="36.5467" fill="white" transform="translate(12.6929 19.5754)"/>
</clipPath>
</defs>
</svg>
