<svg width="50" height="55" viewBox="0 0 50 55" fill="none" xmlns="http://www.w3.org/2000/svg">
<path fill-rule="evenodd" clip-rule="evenodd" d="M39.4356 11.4612L19.9608 0.0307617L0.625 11.4246V33.8736L19.7958 45.5328L39.4356 33.5899V11.4612Z" fill="white"/>
<g clip-path="url(#clip0)">
<path d="M38.385 54.4022C37.936 54.4022 37.7864 54.2525 37.7365 54.0031C37.6866 53.7038 37.8363 53.5542 38.2353 53.4046C38.2852 53.3547 38.385 53.3547 38.4847 53.3547H48.91C49.1594 53.3547 49.3091 53.4046 49.4587 53.4544C49.8578 53.654 49.8578 53.9034 49.8079 54.053C49.758 54.2027 49.6582 54.3523 49.3091 54.3523C48.91 54.3523 48.4611 54.3523 48.062 54.3523H45.5679H41.0287C40.2306 54.4022 39.2828 54.4022 38.385 54.4022ZM35.392 54.4022C35.3422 54.4022 35.2923 54.4022 35.1925 54.4022H34.8433H34.0951C33.6961 54.4022 33.6462 54.2027 33.6462 54.053C33.5963 53.7038 33.6462 53.5542 33.9455 53.4544C34.1949 53.3547 34.4443 53.3547 34.7436 53.3547C34.993 53.3547 35.2923 53.4046 35.5417 53.4046C35.6913 53.4046 35.841 53.4544 35.8909 53.5542C35.9906 53.654 35.9906 53.8036 35.9906 54.0031C35.9407 54.3024 35.841 54.4022 35.4918 54.4022H35.392ZM29.9549 54.4022C29.5559 54.4022 29.1568 54.4022 28.8076 54.4022H26.4632H24.2185C23.8693 54.4022 23.4703 54.4022 23.1211 54.4022C22.7719 54.4022 22.6223 54.3024 22.5724 54.0031C22.5225 53.654 22.6223 53.4544 22.9715 53.4046C23.0712 53.4046 23.2209 53.3547 23.3705 53.3547H26.4632C27.5107 53.3547 28.5582 53.3547 29.6556 53.3547C30.2043 53.3547 30.4039 53.4046 30.4537 53.8535C30.4537 54.053 30.4537 54.2027 30.354 54.2525C30.2542 54.3523 30.1544 54.4022 29.9549 54.4022ZM9.30383 54.4022C8.85489 54.4022 8.65536 54.3523 8.65536 54.0031C8.60548 53.6041 8.80501 53.5043 9.30383 53.3547C9.35371 53.3547 9.35371 53.3547 9.45347 53.3547C9.50336 53.3547 9.653 53.3547 9.70288 53.3547H18.3823C18.4322 53.3547 18.4821 53.3547 18.532 53.3547C18.5819 53.3547 18.6317 53.3547 18.6816 53.3547C18.7315 53.3547 18.7814 53.3547 18.8313 53.3547C19.2802 53.4544 19.4797 53.6041 19.4298 53.9533C19.38 54.2525 19.2303 54.3523 18.7814 54.3523C18.2327 54.3523 17.7339 54.3523 17.1852 54.3523H14.0426H9.30383V54.4022ZM16.0878 51.7086C15.0402 51.7086 13.9927 51.3095 12.9951 50.5114C12.0473 49.7632 11.4986 48.6159 11.3989 47.2192C11.349 45.9722 11.748 44.8249 12.7457 43.6277L12.9951 43.3284H10.8502C10.3015 43.3284 9.75277 43.3284 9.20407 43.3284C8.95466 43.3284 8.75513 43.2287 8.70525 43.079C8.60548 42.9294 8.60548 42.7298 8.70525 42.6301C8.90477 42.4305 9.1043 42.231 9.35371 42.231H48.8601C49.1594 42.231 49.4587 42.231 49.6583 42.3807C49.9077 42.5303 49.9575 42.7298 49.9077 42.9792C49.8578 43.1788 49.7081 43.2785 49.4088 43.2785C48.91 43.2785 48.4611 43.2785 48.0121 43.2785C47.5632 43.2785 47.1143 43.2785 46.6653 43.2785C46.6155 43.2785 46.4658 43.2785 46.4159 43.2785C46.2663 43.2785 46.1166 43.2785 45.9171 43.4282L45.7176 43.528L45.8672 43.7275C47.0145 45.0743 47.3637 46.5707 46.9646 48.2168C46.7152 49.2145 46.1166 50.0625 45.3185 50.6611C44.4207 51.3095 43.423 51.6587 42.4254 51.6587C41.0287 51.6587 39.7816 51.0102 38.8339 49.8629C37.2875 48.0173 37.3873 45.6729 39.0833 43.6776L39.1831 43.528L39.0334 43.4781C38.8838 43.3783 38.7341 43.3284 38.6344 43.3284C38.5845 43.3284 38.5346 43.3284 38.4847 43.3284C38.4348 43.3284 38.385 43.3284 38.385 43.3284C34.145 43.3284 29.905 43.3284 25.6651 43.3284C25.3658 43.3284 25.1164 43.3783 24.9667 43.528C24.8171 43.6776 24.8171 43.9769 24.8171 44.1265C24.867 44.5755 24.867 45.0743 24.8171 45.5731V45.8225C24.8171 45.9722 24.8171 46.1717 24.9667 46.3213C25.1164 46.471 25.3658 46.5209 25.5154 46.5209C26.7625 46.5209 27.9596 46.5209 29.2067 46.5209C30.4537 46.5209 31.6509 46.5209 32.8979 46.5209C33.0476 46.5209 33.297 46.5209 33.4466 46.3213C33.5963 46.1717 33.5963 45.9223 33.5963 45.7726C33.5963 45.4733 33.5963 45.3237 33.6961 45.2239C33.7459 45.174 33.8956 45.1242 34.0452 45.1242C34.3944 45.1242 34.5939 45.2239 34.5939 45.8225C34.6438 46.6705 34.5939 47.1194 34.4443 47.319C34.2946 47.4686 33.9953 47.4686 33.4965 47.4686H33.0975C32.1996 47.4686 31.3017 47.4686 30.4039 47.4686H25.0166C23.8693 47.4686 23.8194 47.4187 23.8194 46.2715V43.927C23.8194 43.7275 23.8194 43.528 23.6698 43.4282C23.57 43.3284 23.4703 43.2785 23.2707 43.2785H19.0807L19.38 43.5778C20.5272 44.775 20.9762 46.0719 20.7767 47.5185C20.627 48.7655 19.9785 49.8131 18.931 50.6112C18.083 51.3095 17.0854 51.7086 16.0878 51.7086ZM16.0878 43.3284C13.893 43.4282 12.4464 44.8748 12.4464 46.9698C12.4464 49.0648 13.893 50.5613 16.0878 50.6611H16.1875C17.0854 50.6611 18.0332 50.2121 18.7315 49.4639C19.38 48.7655 19.7291 47.8677 19.6793 47.0197C19.7291 46.1218 19.4298 45.2239 18.7315 44.5256C18.0332 43.7774 17.0854 43.3284 16.1875 43.3284C16.1875 43.3284 16.1376 43.3284 16.0878 43.3284ZM42.3256 43.3284C41.3779 43.3284 40.48 43.7275 39.7816 44.4757C39.1332 45.174 38.784 46.0719 38.8339 46.9698C38.7341 47.8178 39.0833 48.7157 39.7318 49.4639C40.4301 50.2121 41.3779 50.6611 42.3256 50.6611C42.3755 50.6611 42.4254 50.6611 42.4254 50.6611C44.6202 50.5613 46.1166 49.1147 46.0668 46.9698C46.0668 44.8748 44.6202 43.4282 42.4254 43.3284H42.3256ZM16.1376 48.8653C16.0878 48.8653 16.0379 48.8653 15.988 48.8653C14.9904 48.7655 14.1923 47.9176 14.1923 46.9199C14.1923 45.9223 15.0901 45.1242 16.1875 45.1242C16.6863 45.1242 17.1353 45.2738 17.4346 45.623C17.7837 45.9722 17.9334 46.471 17.9334 47.0197C17.9833 47.4686 17.8336 47.8677 17.5343 48.2168C17.1852 48.6159 16.6365 48.8653 16.1376 48.8653ZM16.1376 46.1717C15.5391 46.1717 15.2398 46.471 15.2398 46.9698C15.2398 47.319 15.3894 47.718 16.0379 47.7679C16.0878 47.7679 16.1376 47.7679 16.1875 47.7679C16.6365 47.7679 16.9358 47.4686 16.9358 46.9698C16.9358 46.7204 16.8859 46.5209 16.7362 46.3213C16.6365 46.2715 16.4868 46.1717 16.1376 46.1717ZM42.4254 48.8653C41.328 48.8653 40.5798 48.1171 40.5798 47.0197C40.5798 45.8724 41.2781 45.1242 42.4254 45.1242C43.4729 45.1242 44.3708 45.9722 44.3708 47.0197C44.3708 48.0173 43.5228 48.8653 42.4254 48.8653ZM42.3755 46.1717C41.8767 46.1717 41.5774 46.471 41.5774 46.9698C41.5774 47.4686 41.8767 47.8178 42.3755 47.8178C42.4254 47.8178 42.4254 47.8178 42.4753 47.8178C43.1736 47.7679 43.2734 47.319 43.2734 46.9698C43.2734 46.471 42.9741 46.2216 42.4254 46.1717H42.3755ZM44.1214 40.6348C42.1261 40.5849 39.9812 40.5849 37.1878 40.5849C35.841 40.5849 34.544 40.5849 33.1972 40.5849C31.8504 40.5849 30.5535 40.5849 29.2067 40.5849H21.7244C18.7315 40.5849 16.4369 40.5849 14.2421 40.6348H14.1923C13.2445 40.6348 12.4464 40.3355 11.748 39.6372C10.7504 38.6894 10.0521 37.5421 9.55324 36.0457C9.20407 35.048 9.05442 34.0005 8.85489 32.953L8.80501 32.6038C8.50572 30.8081 8.5556 29.0123 8.65536 27.6655C8.80501 25.77 9.15418 23.3258 10.501 21.2308C11.2991 19.9837 12.0972 19.1856 13.1447 18.7865C13.2944 18.7367 13.4939 18.6868 13.6934 18.6868H21.4251C21.5748 18.6868 21.6745 18.6868 21.8242 18.7865C22.1235 18.9861 22.2232 19.1357 22.1733 19.2854C22.0736 19.6345 21.9239 19.7842 21.6246 19.7842C21.1757 19.7842 20.7767 19.7842 20.3776 19.7842H19.0807C18.532 19.7842 18.0332 19.7842 17.4845 19.7842H17.4346C17.235 19.7842 16.9856 19.7842 16.836 19.9837C16.6863 20.1832 16.6863 20.4326 16.6863 20.6322C16.7362 21.131 16.7362 21.5799 16.6863 22.0788C16.6863 22.2783 16.6863 22.5776 16.8859 22.7771C17.0355 22.9267 17.1852 22.9766 17.4845 22.9766H17.5842C18.083 22.9766 18.5819 22.9766 19.1306 22.9766C19.4797 22.9766 20.8265 22.9766 21.1757 22.9766C21.2755 22.9766 21.4251 22.9766 21.5249 22.9766C21.6745 22.9766 21.7743 23.0265 21.9239 23.0265C22.2232 23.0265 22.2731 23.3757 22.2731 23.4754C22.2731 23.7747 22.1235 23.9244 21.8741 23.9244C21.1757 23.9244 20.5272 23.9244 19.8289 23.9244H19.6793C19.0308 23.9244 18.4322 23.9244 17.7837 23.9244C16.836 23.9244 16.7362 24.0241 16.7362 24.922C16.7362 25.0717 16.7362 25.1714 16.7362 25.3211C16.7362 25.6702 16.7362 25.9695 16.7362 26.3187C16.7362 26.5182 16.7362 26.7178 16.8859 26.9173C17.0355 27.0669 17.2849 27.1168 17.4845 27.1168C18.1329 27.1168 18.8313 27.1168 19.4797 27.1168H21.5249C21.9239 27.1168 22.323 27.2665 22.323 27.6156C22.323 27.865 21.9738 28.1643 21.5249 28.1643C20.8764 28.1643 20.228 28.1643 19.5795 28.1643C18.931 28.1643 18.2826 28.1643 17.6341 28.1643H17.5842C17.3847 28.1643 17.0854 28.1643 16.9358 28.3639C16.7362 28.5634 16.7861 28.8627 16.7861 29.0622C16.836 29.5111 16.836 29.9601 16.7861 30.4589C16.7861 30.6085 16.7861 30.858 16.9358 31.0575C17.0355 31.1572 17.235 31.257 17.4845 31.257H17.5343C18.1828 31.257 18.8313 31.257 19.5296 31.257H21.5249C21.9738 31.257 22.3729 31.5563 22.3729 31.8057C22.3729 32.0551 22.0237 32.3544 21.5249 32.3544C21.1757 32.3544 19.6793 32.3544 19.2802 32.3544C18.7315 32.3544 18.1828 32.3544 17.6341 32.3544H17.5842C17.3847 32.3544 17.1353 32.3544 16.9856 32.5539C16.836 32.7535 16.836 33.0029 16.836 33.2024C16.8859 33.5017 16.836 33.801 16.836 34.1003C16.836 34.2 16.836 34.3497 16.836 34.4495C16.836 35.3473 16.9358 35.4471 17.8336 35.4471H21.6246C21.9738 35.4471 22.3729 35.5469 22.3729 35.9958C22.3729 36.1953 22.2731 36.4447 21.7244 36.4447H21.6246C21.1258 36.4447 20.5771 36.4447 20.0783 36.4447H18.7814C18.3823 36.4447 17.9833 36.4447 17.5842 36.4447C17.3847 36.4447 17.1353 36.4447 16.9856 36.6443C16.8859 36.744 16.836 36.9435 16.8859 37.193C16.8859 37.3925 16.7861 37.592 16.6365 37.7915C16.5367 37.8913 16.4369 37.9412 16.3372 37.9412C16.2873 37.9412 16.1875 37.9412 16.1376 37.8913C16.0878 37.8913 15.8384 37.7915 15.8384 37.5421V32.953C15.8384 28.8627 15.8384 24.8223 15.8384 20.7319C15.8384 20.1334 15.6388 19.8839 15.0402 19.8341C14.9405 19.8341 14.8407 19.8341 14.741 19.8341C12.7457 19.8341 11.9974 21.3305 11.2492 22.7272L11.1993 22.7771C10.6506 23.8745 10.4012 25.0717 10.1518 26.4185C9.60312 28.1643 9.70288 30.1097 9.80265 32.0052C9.90241 34.2 10.501 36.0956 11.4986 37.6419C11.8977 38.2904 12.4963 38.8889 13.1946 39.3878C13.444 39.5873 13.6934 39.5873 13.9428 39.5873H44.6701C45.0192 39.5873 45.2686 39.4875 45.5181 39.3379C46.7152 38.44 47.5133 37.2428 48.1119 35.3972C49.0597 32.6537 48.9599 29.8104 48.7604 27.3662C48.6107 24.7724 47.8625 22.6773 46.6155 21.0811C45.9171 20.1832 45.1689 19.7842 44.1712 19.7842H44.0715C42.575 19.8341 41.1285 19.8341 39.8814 19.8341H36.7388C35.9906 19.8341 35.2424 19.8341 34.4443 19.8341C34.0951 19.8341 33.8956 19.7842 33.7958 19.6844C33.6462 19.4849 33.5963 19.2854 33.6462 18.9861C33.6462 18.0882 33.6961 17.5894 33.3968 17.34C33.0975 17.0407 32.6485 17.0407 31.7008 17.0407H26.0142C25.715 17.0407 25.0166 17.0407 24.867 17.8388C24.8171 18.0383 24.8171 18.3376 24.9667 18.4873C25.0665 18.6369 25.266 18.6868 25.5154 18.6868C26.4133 18.6868 27.3112 18.6868 28.2091 18.6868H30.8528C31.1022 18.6868 31.3017 18.6868 31.5013 18.8364C31.7507 18.9861 31.8504 19.1856 31.8005 19.435C31.7507 19.5847 31.6509 19.7842 31.2518 19.7842C30.8029 19.7842 30.4039 19.7842 29.9549 19.7842H27.7102C27.0119 19.7842 26.3634 19.7842 25.6651 19.7842H25.6152C25.0166 19.7842 24.8171 20.0336 24.8171 20.6322C24.8171 24.6726 24.8171 28.7629 24.8171 32.8034V37.0433C24.8171 37.6419 24.7672 37.7915 24.3681 37.7915C23.9691 37.7915 23.8194 37.592 23.7696 37.0433C23.7197 36.7939 23.7696 36.5445 23.7696 36.2951C23.7696 36.1454 23.7696 36.0457 23.7696 35.9958V18.2877C23.7696 17.6891 23.8194 17.0906 24.2684 16.5917C24.7672 16.1927 25.1663 15.9932 25.715 15.9932H26.2637C27.3611 15.9932 28.4585 16.043 29.5559 16.043C30.6533 16.043 31.6509 16.043 32.5488 15.9932H32.6485C33.7459 15.9932 34.5939 16.7913 34.6438 17.8887C34.6937 18.5371 34.993 18.6868 35.4419 18.6868H36.3398C37.0381 18.6868 37.6866 18.6868 38.385 18.6868C39.0833 18.6868 39.7318 18.6868 40.4301 18.6868C41.9266 18.6868 43.0738 18.6868 44.1214 18.6369H44.271C45.8173 18.6369 46.7651 19.5847 47.5133 20.4825C48.5608 21.7795 49.0597 23.3258 49.359 24.523C49.4587 24.8721 49.5086 25.2712 49.5585 25.6702C49.6084 25.9695 49.6583 26.3187 49.7081 26.6679C49.9077 27.6156 49.9077 28.5634 49.8578 29.5111C49.8578 29.8603 49.8578 30.2095 49.8578 30.6085C49.9077 32.2048 49.5585 33.7511 49.2093 35.1977C48.8601 36.6443 48.2616 37.8414 47.4635 38.8889C46.5157 40.0861 45.5181 40.6348 44.1214 40.6348ZM45.8672 25.3211C45.6677 25.3211 45.5181 25.1714 45.4183 24.922L45.3684 24.7724C45.1689 24.2237 45.0192 23.675 44.6701 23.1762C44.4207 22.7771 44.1712 22.6275 43.7722 22.6275C43.7223 22.6275 43.7223 22.6275 43.6724 22.6275C43.4729 22.6275 43.2734 22.6773 43.1237 22.6773C42.9741 22.6773 42.7247 22.6773 42.575 22.6275C42.2259 22.5776 41.8767 22.4279 41.9266 22.0289C41.9266 21.7296 42.1261 21.5301 42.4753 21.5301C42.5251 21.5301 42.5251 21.5301 42.575 21.5301C42.7247 21.5301 42.8743 21.5301 43.024 21.5301C43.1237 21.5301 43.5727 21.5301 43.5727 21.5301H43.6225C43.8221 21.4802 44.0216 21.4303 44.2211 21.4303C45.0691 21.4303 45.4682 22.0788 45.9171 22.9766C46.1665 23.4256 46.3162 23.9244 46.5157 24.5728C46.6155 24.922 46.5157 25.1714 46.1665 25.2712C46.0169 25.2712 45.9171 25.3211 45.8672 25.3211ZM39.0334 22.6275C38.7341 22.6275 38.4348 22.5776 38.1355 22.4778C37.9859 22.4279 37.6866 22.2783 37.7365 21.9291C37.7864 21.6298 37.9859 21.5301 38.2852 21.5301H38.385C38.4348 21.5301 38.5346 21.5301 38.5845 21.5301H38.9835H39.4824C39.5821 21.5301 39.632 21.5301 39.7318 21.5301H39.7816C39.9812 21.5301 40.0809 21.6298 40.1807 21.979C40.2306 22.1785 40.1308 22.378 39.9313 22.4279C39.632 22.5776 39.3327 22.6275 39.0334 22.6275Z" fill="#CC0A0A"/>
</g>
<defs>
<clipPath id="clip0">
<rect width="41.3022" height="38.409" fill="white" transform="translate(8.60547 15.9932)"/>
</clipPath>
</defs>
</svg>
