<svg width="49" height="57" viewBox="0 0 49 57" fill="none" xmlns="http://www.w3.org/2000/svg">
<path fill-rule="evenodd" clip-rule="evenodd" d="M38 11.5555L18.932 0L0 11.5185V34.2132L18.7704 46L38 33.9264V11.5555Z" fill="white"/>
<path d="M38.5024 55.9206H44.8406C45.9795 55.9206 47.1679 55.9206 48.3068 55.9206C48.5543 55.9206 48.7524 56.0187 48.8514 56.1168C48.9505 56.215 49 56.3621 49 56.5093C49 56.8528 48.8514 56.9509 48.4058 56.9509H48.3068C46.5737 56.9509 44.7911 56.9509 43.0085 56.9509H40.285C39.3937 56.9509 38.5024 56.9509 37.6111 56.9509H37.5616C37.1655 56.9509 36.9179 56.8037 36.9179 56.4112C36.9179 56.264 36.9179 56.215 37.0169 56.0678C37.1655 55.8715 37.4626 55.8224 37.6111 55.8224H37.7101V55.2827C37.7101 54.7921 37.7101 54.743 37.5616 54.5467C37.3635 54.3014 37.0169 54.3014 36.7693 54.3014H36.6703C33.9469 54.3014 31.2729 54.3014 28.5495 54.3014C25.8261 54.3014 23.1522 54.3014 20.4287 54.3014C20.1316 54.3014 19.8345 54.3014 19.686 54.4977C19.5374 54.6449 19.5374 54.8411 19.5374 55.1355C19.5374 55.2827 19.5374 55.4299 19.4384 55.479C19.3889 55.528 19.2899 55.5771 19.1908 55.5771C19.0423 55.5771 18.9432 55.528 18.8937 55.479C18.8442 55.4299 18.7947 55.2827 18.7947 55.0374C18.7947 54.7921 18.7947 54.5467 18.7947 54.3505V54.1542H13.1993C13.0012 54.1542 12.8527 54.1542 12.6546 54.1542C12.506 54.1542 12.0604 54.0561 12.1099 53.6145C12.1099 53.3201 12.308 53.1729 12.7041 53.1729C13.744 53.1729 14.7838 53.1729 15.8237 53.1729C16.8635 53.1729 17.9034 53.1729 18.8937 53.1729H19.0918C19.1908 53.1729 19.2899 53.1238 19.3394 53.1238C19.5374 53.1238 19.686 53.1238 19.8841 53.1238C20.1316 53.1238 20.3792 53.1238 20.6268 53.1238C20.8249 53.1238 21.0725 53.1238 21.1715 52.7313C21.4686 51.3575 21.7657 50.0818 22.0628 48.8061C22.1618 48.3645 22.2609 47.972 22.3599 47.5304C22.5085 46.8925 22.657 46.2547 22.8056 45.6168C23.0036 44.9299 23.1522 44.1449 23.3007 43.2617C23.3998 42.771 23.4988 42.3294 23.6473 41.8388C23.7464 41.5444 23.7959 41.25 23.8949 40.9556C23.994 40.465 24.1425 39.9252 24.2415 39.4346L24.3901 38.6986C24.4891 38.3061 24.5882 37.9136 24.6377 37.5701C24.7367 37.1776 24.8357 36.785 24.8853 36.3925C24.8853 36.3435 24.9348 36.2944 24.9348 36.2453C24.9348 36.1963 24.9843 36.1472 24.9843 36.0981C25.0338 35.7056 25.0833 35.4112 24.9348 35.264C24.7862 35.0678 24.5386 35.0678 24.093 35.0678H17.6558C17.1111 35.0678 16.913 35.0678 16.7645 35.215C16.6159 35.3622 16.6159 35.5584 16.6159 35.9019V36C16.6159 36.3435 16.6159 36.4907 16.7645 36.6378C16.8635 36.736 17.0121 36.736 17.1111 36.736C17.1606 36.736 17.2101 36.736 17.3092 36.736C17.4082 36.736 17.5072 36.736 17.6558 36.736C18.0024 36.736 18.2005 36.785 18.2995 37.0304C18.3986 37.1776 18.349 37.3738 18.2995 37.521C18.2005 37.6192 18.1014 37.7173 17.9529 37.7173C17.6558 37.7173 17.3092 37.7173 17.0121 37.7173H15.5266C15.2295 37.7173 14.9324 37.7173 14.6353 37.7173C14.2886 37.7173 14.2391 37.4229 14.2391 37.2757C14.2391 36.9322 14.3877 36.785 14.6353 36.785H15.4275C15.5761 36.785 15.7246 36.785 15.8237 36.6869C15.9722 36.5888 15.9722 36.4416 15.9722 36.0981V35.8528C15.9722 35.5584 15.9227 35.3621 15.8237 35.264C15.7246 35.1659 15.5761 35.1168 15.3285 35.1168C15.279 35.1168 15.2295 35.1168 15.18 35.1168C15.1304 35.1168 15.0809 35.1168 15.0314 35.1168C14.9324 35.1168 14.8333 35.1168 14.7343 35.0678C14.4372 35.0187 14.2886 34.8224 14.2886 34.5771C14.2886 34.3318 14.4372 34.1355 14.6848 34.0374C15.3285 33.7921 15.9722 33.5467 16.6159 33.3014C16.6159 33.3014 18.0024 32.8107 18.4976 32.6636C19.3394 32.3692 20.1316 32.0748 20.9734 31.7804C21.6172 31.535 22.2609 31.2897 22.9046 31.0444C22.9046 31.0444 23.6969 30.75 24.093 30.6028C24.1425 30.6028 24.192 30.5537 24.192 30.5537C24.2415 30.5537 24.3406 30.5537 24.4891 30.7991C24.6377 30.9953 24.5882 31.1916 24.4396 31.3879C24.2911 31.6332 24.0435 31.6822 23.7464 31.7804C23.6969 31.7804 23.5978 31.8294 23.5483 31.8294C22.0628 32.3692 20.5278 32.9089 19.0423 33.4486L18.9432 33.6449V34.0864H22.9541C23.5978 34.0864 24.192 34.0864 24.8357 34.0864C25.3309 34.0864 25.529 33.8902 25.529 33.3995C25.529 31.486 25.529 29.5234 25.529 27.6589C25.529 27.1192 25.2814 26.9229 24.7367 26.9229C23.4988 26.9229 22.3104 26.9229 21.0725 26.9229C19.8345 26.9229 18.6461 26.9229 17.4082 26.9229C17.2101 26.9229 16.9626 26.9229 16.814 27.1192C16.715 27.2173 16.6655 27.4136 16.715 27.6589C16.715 27.8061 16.715 27.9533 16.715 28.1005V28.2477C16.715 28.3949 16.7645 28.5421 16.8635 28.6402C16.9626 28.7383 17.0616 28.7874 17.2101 28.7874C17.3092 28.7874 17.3587 28.7874 17.4082 28.7874H17.8043C17.8539 28.7874 17.9529 28.7874 17.9529 28.7874C18.151 28.7874 18.2995 28.8364 18.349 28.9346C18.3986 29.0327 18.4481 29.1308 18.4481 29.278C18.4481 29.7196 18.0519 29.7196 17.9529 29.7196C17.4082 29.7196 16.913 29.7196 16.3684 29.7196C15.8732 29.7196 15.3285 29.7196 14.8333 29.7196C14.4372 29.7196 14.3382 29.4252 14.3382 29.229C14.3382 29.0818 14.3877 28.9346 14.4372 28.8855C14.4867 28.7874 14.6353 28.7874 14.7343 28.7874C14.7343 28.7874 14.8333 28.7874 14.8828 28.7874C14.9324 28.7874 14.9819 28.7874 15.0314 28.7874C15.0809 28.7874 15.0809 28.7874 15.1304 28.7874H15.18C15.279 28.7874 15.3285 28.7874 15.4275 28.7874C15.6256 28.7874 15.7742 28.7383 15.8732 28.6402C16.0713 28.4439 16.0713 28.1986 16.0713 27.9533V27.8551C16.0713 27.3645 16.0713 27.2173 15.8732 27.0701C15.7742 27.021 15.6751 26.972 15.5761 26.972C15.5266 26.972 15.4275 26.972 15.378 26.972C15.279 26.972 15.2295 26.972 15.0809 26.972H15.0314C14.5857 26.972 14.3877 26.8738 14.3382 26.5304C14.3382 26.3341 14.3382 26.0888 14.8333 25.8925C16.0217 25.4509 17.1606 25.0584 18.349 24.6168L20.0821 23.979C21.2705 23.5374 22.558 23.0467 23.8454 22.5561C23.994 22.507 24.093 22.4579 24.192 22.4579C24.3406 22.4579 24.4396 22.507 24.4891 22.6542C24.5882 22.8505 24.6872 23.1449 24.3406 23.3902C23.994 23.6355 23.6473 23.7336 23.2017 23.8808C23.0531 23.9299 22.9046 23.979 22.756 24.028C22.3599 24.1752 22.0133 24.3224 21.6171 24.4206C20.8249 24.715 20.0326 24.9603 19.2403 25.3037C19.2403 25.3037 19.1908 25.3037 19.1413 25.3037C19.0423 25.3037 18.8442 25.3528 18.6957 25.5L18.4976 25.7453L18.7947 25.7944H18.9432C19.0423 25.7944 19.1413 25.8435 19.2403 25.8435H22.0133C22.9046 25.8435 23.8454 25.8435 24.7367 25.8435C24.9348 25.8435 25.1824 25.8435 25.3309 25.6472C25.4795 25.5 25.4795 25.2547 25.4795 25.1075C25.4795 24.8621 25.4795 24.6168 25.4795 24.3715C25.4795 24.028 25.4795 23.7336 25.4795 23.3902C25.3309 22.2126 25.7766 21.1822 26.2222 20.1028C26.7174 18.9252 27.2126 17.7477 27.7077 16.6192L28.1534 15.4907C28.2029 15.3435 28.2524 15.1963 28.3514 15.0981C28.4505 15.0981 28.5495 15 28.6981 15C28.7971 15 28.8961 15.0491 28.9952 15.1963C29.2923 15.736 29.5399 16.3248 29.7379 16.9136C29.7874 17.1589 29.8865 17.4533 29.9855 17.6986C30.2331 18.3364 30.4807 18.9743 30.7778 19.6612C31.0254 20.2991 31.2729 20.986 31.57 21.6238C31.6691 21.9182 31.9167 22.0164 32.1643 22.0654C32.1643 22.0654 34.8382 23.0467 36.1751 23.5374C37.5121 24.028 38.849 24.5187 40.1365 25.0093C40.4336 25.1075 40.7307 25.2547 41.0773 25.3528C41.622 25.5491 42.1171 25.7453 42.6618 25.9416C42.9094 26.0397 43.058 26.236 43.0085 26.5304C42.9589 26.972 42.6618 26.972 42.6123 26.972C42.5628 26.972 42.5628 26.972 42.5133 26.972C42.4638 26.972 42.4143 26.972 42.3647 26.972C42.3152 26.972 42.2657 26.972 42.2162 26.972C42.1667 26.972 42.1171 26.972 42.0676 26.972H42.0181C41.9686 26.972 41.9191 26.972 41.8696 26.972C41.3249 26.972 41.3249 27.5117 41.3249 27.6589C41.3249 28.6402 41.4239 28.7383 42.3647 28.7383C42.7114 28.7383 42.8599 28.7874 42.9589 29.0327C43.058 29.229 43.0085 29.3271 42.8599 29.5724L42.8104 29.6215C42.7609 29.7196 42.6618 29.7196 42.4638 29.7196H39.3442C39.1957 29.7196 39.0471 29.6706 38.8986 29.5234C38.7995 29.4252 38.75 29.3271 38.7995 29.1799C38.849 28.7383 39.0966 28.6893 39.2452 28.6893C39.2947 28.6893 39.3442 28.6893 39.3937 28.6893C39.4432 28.6893 39.4928 28.6893 39.5423 28.6893C39.5918 28.6893 39.5918 28.6893 39.6413 28.6893C39.7403 28.6893 39.7899 28.6893 39.8889 28.6893C40.087 28.6893 40.2355 28.6402 40.3841 28.493C40.5821 28.2967 40.5821 28.0023 40.5821 27.8061V27.7079C40.5326 26.972 40.4336 26.8738 39.6413 26.8738H33.2536C32.808 26.8738 32.7585 26.6776 32.7089 26.5794C32.6099 26.236 32.6594 26.0888 32.8575 25.9416C32.907 25.8925 33.006 25.8925 33.1051 25.8925H33.3031C34.0459 25.8925 34.7886 25.8925 35.5314 25.8925C36.2742 25.8925 37.0169 25.8925 37.7597 25.8925C37.8092 25.8925 37.8092 25.8925 37.8587 25.8925C37.9082 25.8925 37.9577 25.8925 38.0072 25.8925C38.1063 25.8925 38.3043 25.8925 38.5024 25.7453L38.849 25.5491L34.7886 24.028C34.5411 23.9299 34.244 23.8318 33.9964 23.7336C33.5507 23.5864 33.1546 23.4393 32.7089 23.243C32.5109 23.1449 32.3128 23.0958 32.1643 23.0958C31.7186 23.0958 31.7186 23.5864 31.7186 23.8318C31.7186 24.3224 31.7186 24.8131 31.7186 25.3528C31.7186 26.6285 31.7186 28.0023 31.6691 29.3271C31.6691 29.965 32.0157 30.1612 32.3623 30.3084C33.3031 30.6519 34.1944 30.9953 35.1353 31.2897C36.0761 31.6332 36.9674 31.9276 37.9082 32.271C38.651 32.5654 39.3937 32.8107 40.087 33.1051C40.6812 33.4486 41.1763 33.6449 41.6715 33.8411C41.9191 33.9393 42.2162 34.0374 42.5133 34.1355C42.6618 34.1846 43.0085 34.3318 42.9589 34.7734C42.9094 35.1659 42.5133 35.264 42.3647 35.264C42.3152 35.264 42.2657 35.264 42.2657 35.264H42.1667C42.0676 35.264 42.0181 35.264 41.9686 35.264C41.7705 35.264 41.5725 35.3131 41.4734 35.4603C41.3249 35.6075 41.2754 35.8037 41.3249 36.0981V36.1472C41.3744 36.9322 41.4734 36.9322 42.4142 36.9813C42.7114 36.9813 42.8104 36.9813 42.9094 37.2266C43.0085 37.4229 43.0085 37.5701 42.8599 37.8154C42.8104 37.9136 42.7609 37.9626 42.5628 37.9626C41.4734 37.9626 40.3345 37.9626 39.2452 37.9626C38.9481 37.9626 38.7995 37.8154 38.7995 37.521C38.7995 37.0304 39.0966 37.0304 39.1957 37.0304H39.5918C39.9879 37.0304 40.186 37.0304 40.3345 36.8832C40.4831 36.736 40.4831 36.5888 40.4831 36.2453V36.1472C40.4831 35.9509 40.4831 35.7056 40.3345 35.5093C40.186 35.3131 39.8889 35.3131 39.6413 35.3131C38.6014 35.3131 37.6111 35.3131 36.5713 35.3131H33.5507C33.4022 35.3131 33.2041 35.3131 33.0556 35.264C32.7089 35.1659 32.6099 34.9696 32.6594 34.6262C32.7089 34.3318 32.8575 34.1846 33.2536 34.1846H37.5121C37.7101 34.1846 37.9082 34.1846 38.1558 34.1355L38.5519 34.0374L38.2053 33.7921C37.6606 33.4486 37.0664 33.2523 36.5217 33.0561C36.2742 32.9579 36.0761 32.9089 35.8285 32.8107C35.0362 32.5164 34.1944 32.1729 33.4022 31.9276L32.4614 31.5841C32.3128 31.535 32.2138 31.486 32.0652 31.486C31.9167 31.486 31.8176 31.535 31.7681 31.5841C31.6691 31.6822 31.6196 31.8294 31.6196 32.0748C31.6196 32.3201 31.6196 32.6145 31.6196 32.8598C31.6196 33.3505 31.6196 33.8411 31.6691 34.3318C31.7186 34.9206 31.8671 35.5093 32.0157 36.0491C32.0652 36.2453 32.1147 36.3925 32.1643 36.5397C32.2633 36.8832 32.3623 37.2757 32.4118 37.6192V37.6682C32.5109 38.0607 32.6099 38.4533 32.7089 38.7967C32.907 39.6308 33.1051 40.4159 33.3031 41.25C33.4022 41.6425 33.4517 42.035 33.5507 42.4276V42.5257C33.6498 42.8692 33.6993 43.2617 33.7983 43.6051C33.8973 44.0467 33.9964 44.5374 34.1449 44.979C34.244 45.3224 34.2935 45.6168 34.3925 45.9603C34.4915 46.3528 34.5906 46.6963 34.6401 47.0888V47.1379C34.7391 47.4813 34.7886 47.8248 34.8877 48.1192L35.4324 50.5234L35.5314 51.014C35.68 51.5537 35.8285 52.1425 35.9275 52.7313C35.9771 52.9766 36.0761 53.222 36.4722 53.222C36.7198 53.222 36.9179 53.222 37.1655 53.222C37.413 53.222 37.6111 53.222 37.8092 53.222C38.2053 53.222 38.4034 53.3692 38.4034 53.7617L38.5024 55.9206ZM33.0556 53.222C33.1051 53.222 33.1546 53.222 33.1546 53.222C33.2041 53.222 33.2536 53.222 33.3031 53.222C33.3527 53.222 33.5507 53.222 33.6993 53.0748L33.7488 53.0257V52.9766C33.7488 52.7804 33.6498 52.6822 33.5507 52.6332L31.8176 51.2593C30.8273 50.4743 29.8865 49.7383 28.8961 48.9533C28.8961 48.9042 28.7971 48.8551 28.6486 48.8551C28.5 48.8551 28.401 48.9533 28.3019 49.0023C27.5592 49.5911 26.8659 50.1799 26.1232 50.7196L25.9746 50.8668C25.43 51.3084 24.8357 51.75 24.2911 52.1425C24.192 52.1916 24.093 52.2407 24.0435 52.2407C23.9444 52.2407 23.8454 52.1916 23.7959 52.0444C23.5978 51.75 23.5978 51.5047 24.093 51.1121C25.1824 50.278 26.2717 49.3949 27.4106 48.5117C27.5592 48.4136 27.7077 48.2664 27.7077 48.1192C27.7077 47.972 27.5592 47.8248 27.4601 47.7266C27.2126 47.5794 27.0145 47.3832 26.8164 47.1869C26.4698 46.8925 26.1232 46.5981 25.7766 46.3528C25.5785 46.2056 25.43 46.0584 25.2319 45.9112C24.8853 45.6168 24.5386 45.3224 24.093 45.1262L23.8454 45.028L23.7959 45.2734C23.7959 45.3224 23.7959 45.4206 23.7959 45.4696C23.7959 45.6168 23.7959 45.715 23.7464 45.8131C23.6473 46.2547 23.4988 46.6963 23.3998 47.1379C23.2512 47.7757 23.0531 48.4136 22.9046 49.0514C22.8056 49.4439 22.7065 49.8855 22.657 50.278C22.5085 50.965 22.4094 51.6519 22.1618 52.3388C22.1123 52.535 22.0628 52.7804 22.1618 52.9766C22.2609 53.1238 22.4589 53.1238 22.6075 53.1238H22.8056C26.1727 53.222 29.6389 53.222 33.0556 53.222ZM25.628 38.5023C25.43 38.5023 25.2319 38.6495 25.2319 38.8949C25.1824 39.3364 25.0338 39.778 24.9348 40.2196C24.8853 40.465 24.8357 40.6612 24.7862 40.9065L24.6872 41.3972C24.5386 42.035 24.3901 42.722 24.192 43.3598C24.093 43.6542 24.093 43.9977 24.4891 44.3411C25.1824 44.8808 25.8756 45.4206 26.5688 45.9603C26.5688 45.9603 32.7585 50.7687 33.6498 51.4556C33.8478 51.6028 34.0954 51.7991 34.2935 51.9463C34.4915 52.0935 34.6401 52.1916 34.8382 52.3388L35.2343 52.6332L34.7886 50.7687C34.343 48.9042 33.9469 47.0888 33.5012 45.2734L33.4517 44.979L32.3623 45.8622C31.8176 46.3037 31.2729 46.6963 30.7283 47.1379C30.6292 47.236 30.4312 47.3341 30.2826 47.3341C30.2331 47.3341 30.1341 47.3341 29.9855 47.1379C29.8865 46.9416 29.7379 46.6963 30.1836 46.3528L30.5797 46.0093C31.1244 45.5678 31.6691 45.1262 32.2633 44.7336C32.4614 44.6355 32.6099 44.4393 32.6594 44.243C32.6594 44.0467 32.5109 43.8995 32.3128 43.7033C31.0749 42.771 30.035 41.8878 29.0942 41.1028C28.9457 40.9556 28.7971 40.9065 28.6486 40.9065C28.4505 40.9065 28.3019 41.0047 28.2029 41.1028C28.0048 41.25 27.7572 41.4463 27.5592 41.6425C27.064 42.0841 26.5688 42.4766 26.0242 42.8201C25.9746 42.8692 25.8756 42.8692 25.8261 42.8692C25.7271 42.8692 25.628 42.771 25.5785 42.6238C25.4795 42.1822 25.5785 41.9369 25.8756 41.6916C26.2222 41.4463 26.5688 41.1519 26.9155 40.9065C27.1135 40.7593 27.3116 40.6122 27.5097 40.465C27.6582 40.3668 27.7077 40.2196 27.7077 40.1215C27.7077 40.0234 27.6582 39.8762 27.5097 39.778C27.064 39.3855 26.5193 38.993 25.9746 38.5514C25.8756 38.5514 25.7271 38.5023 25.628 38.5023ZM26.7174 35.1659C26.3708 35.1659 26.1727 35.264 26.0242 35.6075C25.9251 35.8037 25.9251 36.0491 25.8756 36.2453C25.8261 36.4907 25.8261 36.6869 25.7271 36.8341C25.628 37.0304 25.6775 37.1776 25.8756 37.3248L25.9746 37.4229C26.4203 37.8154 26.8659 38.1589 27.3611 38.5514C28.8466 39.729 30.3321 40.9556 31.8176 42.1332C31.8671 42.1822 31.8671 42.1822 31.9167 42.2313C32.0157 42.3294 32.1643 42.4766 32.3623 42.4766C32.4614 42.4766 32.5109 42.4766 32.5604 42.4276C32.808 42.2313 32.7585 41.8879 32.7089 41.6916V41.5935C32.7089 41.5444 32.6594 41.4953 32.6594 41.4953C32.4614 40.7593 32.2633 39.9743 32.1147 39.2383C32.1147 39.1893 32.1147 39.1402 32.1147 39.0911C32.1147 38.9439 32.1147 38.6495 31.8176 38.5023C31.7681 38.5023 31.7186 38.4533 31.6196 38.4533C31.4215 38.4533 31.3225 38.5514 31.2234 38.6495C31.1739 38.6986 31.1244 38.7477 31.0749 38.7477C30.9758 38.7967 30.8768 38.8949 30.7778 38.993L30.7283 39.0421C30.5797 39.1402 30.4807 39.2874 30.3816 39.2874C30.3321 39.2874 30.2331 39.2383 30.1836 39.1402C29.936 38.8458 29.8865 38.6495 30.1836 38.4042C30.5797 38.0117 30.9263 37.7173 31.2729 37.472C31.57 37.2757 31.6196 37.0304 31.57 36.6869C31.5205 36.3925 31.4215 36.1472 31.372 35.8528C31.2234 35.215 31.0254 34.5771 31.0254 33.9393C31.0254 30.2103 31.0254 26.4322 31.0254 22.8014V22.6542C31.0254 22.4579 31.0254 22.2617 30.9758 22.0654C30.2826 20.3972 29.6389 18.778 28.9457 17.1098L28.7971 16.9136L28.599 17.0607C28.2524 17.3551 28.1534 17.6986 28.0543 18.0421C28.0048 18.1402 27.9553 18.2874 27.9553 18.3855C27.6087 19.1706 27.2126 20.0537 26.7669 21.1822C26.7174 21.3294 26.6184 21.5257 26.7669 21.722C26.9155 21.9182 27.163 21.9182 27.2621 21.9182C27.5097 21.9182 27.7077 21.9182 27.9058 21.9182C28.0543 21.9182 28.7476 21.9182 28.7476 21.9182C28.8466 21.9182 29.0447 21.9182 29.0447 21.9182C29.4408 21.9182 29.5399 22.0164 29.5399 22.3598C29.5399 22.5561 29.4903 22.7033 29.4408 22.7523C29.3913 22.8014 29.2428 22.8505 29.0447 22.8505C28.8961 22.8505 28.7971 22.8505 28.6981 22.8505C28.6981 22.8505 27.8563 22.8505 27.6582 22.8505C27.4106 22.8505 27.163 22.8505 26.9155 22.8505H26.8659C26.3213 22.8505 26.2222 23.1939 26.2222 23.4883C26.2222 24.0771 26.2717 24.715 26.2222 25.3528C26.2222 25.5 26.2222 25.6963 26.3708 25.8435C26.5193 25.9907 26.6679 25.9907 26.8659 25.9907H26.965C27.3116 25.9907 27.6087 25.9907 27.9553 25.9907H29.0447C29.2428 25.9907 29.6884 25.9907 29.6884 25.9907C30.035 25.9907 30.1341 26.236 30.1836 26.4813C30.1836 26.5794 30.1836 26.7757 30.0845 26.8738C30.035 26.972 29.8865 26.972 29.7379 26.972C29.5399 26.972 29.3418 26.972 29.1437 26.972C28.8961 26.972 28.6486 26.972 28.3514 26.972C28.1039 26.972 27.8563 26.972 27.6087 26.972C27.4106 26.972 27.2126 26.972 27.064 26.972H27.0145C26.8659 26.972 26.6184 26.972 26.4698 27.1682C26.3213 27.3154 26.3213 27.5607 26.3213 27.7079C26.3708 28.3458 26.3213 28.9836 26.3213 29.5234C26.3213 29.6706 26.3213 29.8668 26.4698 30.014C26.6184 30.1612 26.8164 30.1612 26.965 30.1612C27.4106 30.1612 27.8068 30.1612 28.2524 30.1612H29.5399C29.936 30.1612 30.2331 30.3575 30.2826 30.6519C30.2826 30.75 30.2331 30.8481 30.1836 30.9463C30.0845 31.0444 29.8865 31.1425 29.6389 31.1425C29.1932 31.1425 28.7971 31.1425 28.3514 31.1425C27.9058 31.1425 27.4601 31.1425 27.064 31.1425C26.7669 31.1425 26.4698 31.2407 26.4698 31.7313C26.4698 32.3692 26.4698 33.007 26.4698 33.6449C26.4698 33.7921 26.4698 33.9393 26.6184 34.0864C26.7669 34.2336 26.9155 34.2336 27.064 34.2336H27.1135C27.5097 34.2336 27.9553 34.2336 28.3514 34.2336C28.7476 34.2336 29.1932 34.2336 29.5894 34.2336C29.837 34.2336 30.0845 34.3318 30.2331 34.479C30.2826 34.528 30.3816 34.6262 30.3816 34.7734C30.3816 35.1659 29.936 35.264 29.5894 35.264C29.1437 35.264 28.6981 35.264 28.2524 35.264C27.6087 35.215 27.163 35.215 26.7174 35.1659ZM33.3527 57C33.006 57 32.8575 56.9019 32.8575 56.5584C32.808 56.215 32.9565 55.9696 33.3527 55.9206C33.5507 55.8715 33.7983 55.8715 34.0459 55.8715C34.2935 55.8715 34.4915 55.8715 34.7391 55.9206C35.0857 55.9696 35.2343 56.1659 35.2343 56.5584C35.1848 56.8528 35.0362 57 34.7391 57H34.6896C34.5906 57 34.5411 57 34.442 57H34.0459H33.6993C33.6498 57 33.5507 57 33.5012 57H33.3527ZM18.0024 57C17.5072 57 16.9626 57 16.4674 57H13.3478H8.64372C8.19807 57 8 56.9019 8 56.5584C8 56.4112 8.04952 56.264 8.14855 56.1168C8.24758 55.9696 8.44565 55.9206 8.64372 55.9206C10.1787 55.9206 11.7633 55.9206 13.2983 55.9206C14.8333 55.9206 16.4179 55.9206 17.9529 55.9206C18.2005 55.9206 18.349 55.9696 18.4481 56.0678C18.5471 56.1659 18.5966 56.3131 18.5966 56.5093C18.5966 56.8528 18.4481 57 18.0024 57ZM22.5085 57C22.0133 57 21.8647 56.9019 21.8647 56.5584C21.8647 56.3621 21.9143 56.215 22.0133 56.0678C22.1123 55.9696 22.2609 55.9206 22.5085 55.8715C22.8551 55.8715 23.1522 55.8715 23.4988 55.8715C23.9444 55.8715 24.3901 55.8715 24.8357 55.8715H28.9457C29.5399 55.8715 29.6884 56.0678 29.6884 56.4603C29.6884 56.8037 29.5399 56.9509 29.1932 56.9509H25.8261H23.6473C23.2017 57 22.8551 57 22.5085 57Z" fill="#CC0A0A"/>
</svg>
