<svg width="49" height="56" viewBox="0 0 49 56" fill="none" xmlns="http://www.w3.org/2000/svg">
<path fill-rule="evenodd" clip-rule="evenodd" d="M39 11.3043L19.4302 0L0 11.2681V33.4694L19.2643 45L39 33.1889V11.3043Z" fill="white"/>
<g clip-path="url(#clip0)">
<path d="M38.6878 56C38.2895 56 38.1567 55.8637 38.1125 55.5C38.1125 55.4091 38.1567 55.3182 38.2453 55.2273C38.378 55.0455 38.5993 54.9546 38.7764 54.9546H45.2381C46.3003 54.9546 47.3182 54.9546 48.3804 54.9546C48.6017 54.9546 48.7788 55.0455 48.8673 55.1364C48.9558 55.2273 49 55.3637 49 55.5455C49 55.8637 48.8673 55.9546 48.469 55.9546H48.3804C46.7871 55.9546 45.1938 55.9546 43.6448 55.9546H41.2548C40.3697 56 39.5288 56 38.6878 56ZM34.8816 56C34.5718 56 34.439 55.8637 34.439 55.591C34.3948 55.2273 34.5718 55.0455 34.8816 55C35.0587 54.9546 35.28 54.9546 35.5012 54.9546C35.7225 54.9546 35.8996 54.9546 36.1209 55C36.4307 55.0455 36.6077 55.2273 36.5634 55.591C36.5192 55.8637 36.3864 56 36.1209 56H36.0766C35.9881 56 35.9438 56 35.8553 56H35.5012H35.1472C35.1029 56 35.0144 56 34.9701 56H34.8816ZM21.0288 56C20.5419 56 20.0993 56 19.6125 56H16.7799H12.6197C12.1771 56 12.0443 55.9091 12.0443 55.591C12.0443 55.4546 12.0886 55.3182 12.1771 55.1819C12.2656 55.0455 12.4426 55 12.6197 55C14.0359 55 15.4079 55 16.8242 55C18.2405 55 19.6125 55 21.0288 55C21.25 55 21.3828 55.0455 21.4713 55.1364C21.5599 55.2273 21.6041 55.3637 21.6041 55.5455C21.6041 55.8637 21.4713 56 21.073 56H21.0288ZM25.1005 56C24.6579 56 24.5252 55.9091 24.5252 55.591C24.5252 55.4091 24.5694 55.2273 24.6579 55.1364C24.7465 55.0455 24.8792 55 25.1005 54.9546C25.4103 54.9546 25.6759 54.9546 25.9857 54.9546C26.384 54.9546 26.7823 54.9546 27.2249 54.9546H30.9426C31.4737 54.9546 31.6065 55.1364 31.6065 55.5C31.6065 55.8637 31.4737 55.9546 31.1639 55.9546H28.1101H26.1185C25.7201 55.9546 25.4103 56 25.1005 56ZM16.6914 53.4546C16.5144 53.4546 16.3816 53.4546 16.2046 53.4546C16.0718 53.4546 15.6735 53.3637 15.6735 52.9546C15.6735 52.6819 15.8948 52.5455 16.2046 52.5455C17.134 52.5455 18.0634 52.5455 18.9929 52.5455C19.9223 52.5455 20.8517 52.5455 21.7811 52.5455H27.1364C27.6233 52.5455 27.756 52.6364 27.8003 52.9546C27.8003 53.091 27.756 53.1819 27.7118 53.2728C27.579 53.4091 27.402 53.4546 27.1807 53.4546C25.8529 53.4546 24.4809 53.4546 23.1532 53.4546H16.6914ZM18.6831 50.9546C18.6388 50.9546 18.5945 50.9546 18.506 50.9091C18.329 50.8182 18.2405 50.6364 18.2405 50.3182C18.2405 47.3182 18.2405 44.3182 18.2405 41.4091V39.2273C18.2405 37 18.2405 34.8182 18.2405 32.591C18.2405 32 18.0192 31.7728 17.5323 31.7728H17.4438C17.134 31.7728 16.8685 31.7728 16.5587 31.7728C16.2046 31.7728 15.8505 31.7728 15.4965 31.7728C14.8768 31.7728 14.8326 32.2273 14.8326 32.5455C14.8326 32.7728 14.8326 33 15.0096 33.1364C15.0981 33.2273 15.2309 33.2728 15.4079 33.2728C15.4522 33.2728 15.4965 33.2728 15.5407 33.2728C15.6735 33.2728 15.762 33.2273 15.8948 33.2273C16.0276 33.2273 16.1161 33.2273 16.2046 33.2728C16.6029 33.3637 16.7357 33.5455 16.6914 33.8637C16.6472 34.1819 16.5144 34.3182 16.2046 34.3182C16.2046 34.3182 16.2046 34.3182 16.1603 34.3182C16.0718 34.3182 16.0276 34.3182 15.9833 34.3182C15.939 34.3182 15.8948 34.3182 15.8505 34.3182C15.8063 34.3182 15.762 34.3182 15.7177 34.3182C15.6292 34.3182 15.5407 34.3182 15.4522 34.3182C15.2309 34.3182 15.0981 34.3637 14.9654 34.5C14.8326 34.6364 14.7883 34.8637 14.7883 35.2273C14.7883 35.4546 14.8326 36 15.4079 36C15.4522 36 15.4965 36 15.585 36C15.6292 36 15.6735 36 15.762 36H16.0718C16.1161 36 16.2046 36 16.2488 36C16.4701 36 16.6029 36.091 16.6472 36.2728C16.7357 36.5 16.6472 36.6819 16.4259 36.7728C16.2488 36.8637 16.1161 36.9546 15.939 36.9546C15.4079 36.9546 14.8768 36.9546 14.3457 36.9546C13.8146 36.9546 13.2835 36.9546 12.7082 36.9546C12.4869 36.9546 12.3099 36.8637 12.0886 36.7273C12 36.6364 11.9115 36.5455 12 36.2728C12.0443 36.1819 12.1328 36 12.3541 36C12.4426 36 12.4869 36 12.5754 36C12.6639 36 12.7524 36 12.841 36C12.9295 36 12.9737 36 13.0622 36C13.1508 36 13.195 36 13.2393 36C13.4606 36 13.5933 35.9546 13.7261 35.8182C13.8589 35.6819 13.9032 35.4546 13.9032 35.1364C13.9032 34.9091 13.9032 34.3182 13.2835 34.3182C13.2393 34.3182 13.1508 34.3182 13.1065 34.3182C13.0622 34.3182 13.018 34.3182 12.9295 34.3182C12.8852 34.3182 12.7967 34.3182 12.7524 34.3182C12.7082 34.3182 12.6197 34.3182 12.5754 34.3182C12.1771 34.3182 12.0443 34.1819 12 33.8637C12 33.5455 12.1771 33.3637 12.5754 33.3182C12.6639 33.3182 12.7967 33.3182 12.8852 33.3182C13.018 33.3182 13.1508 33.3182 13.2835 33.3182H13.3278C13.5048 33.3182 13.6376 33.2728 13.7261 33.1364C13.8146 33.0455 13.8589 32.8637 13.8589 32.6364C13.8589 32.591 13.8589 32.5 13.8589 32.4546C13.8589 32.2273 13.8589 31.8182 13.3721 31.7728C13.2835 31.7728 13.195 31.7728 13.1065 31.7728H12.841C12.7524 31.7728 12.6197 31.7728 12.5311 31.7728C12.1771 31.6819 12 31.5 12 31.091C12 29.0455 12 26.9546 12 24.9546C12 24.5 12.1328 24.3637 12.5754 24.3637C12.9295 24.3637 13.3278 24.3637 13.6819 24.3637H15.6735C16.2931 24.3637 16.9127 24.3637 17.4881 24.3637H17.5323C17.7094 24.3637 17.9307 24.3637 18.0634 24.1819C18.1962 24.0455 18.2405 23.8637 18.2405 23.591C18.2405 22.5 18.2405 21.4091 18.2405 20.2728C18.2405 19.7273 18.2405 19.1364 18.2405 18.591C18.2405 17.9546 18.2847 17.9546 18.8601 17.9546H24.6137C25.189 17.9546 25.3661 18.091 25.3661 18.7273V19.4091C25.3661 20.7273 25.3661 22.1364 25.3661 23.5C25.3661 23.8637 25.4103 24.0455 25.5431 24.1819C25.7201 24.3637 25.9857 24.3637 26.207 24.3637C29.5706 24.3637 32.9785 24.3637 36.3422 24.3637C38.5993 24.3637 40.8565 24.3637 43.1137 24.3637C43.5563 24.3637 43.8218 24.4546 44.1759 24.7728C45.2381 25.7273 46.3888 26.6819 47.274 27.3637C47.5838 27.591 47.6723 27.8637 47.6723 28.2728C47.6723 31.1819 47.6723 34.091 47.6723 37C47.6723 37.5455 47.4953 37.9546 47.1412 38.3637L47.0969 38.4546C46.8756 38.6819 46.6101 38.9546 46.5658 39.3637C46.5216 39.8637 46.7429 40.2273 47.1855 40.3182C47.2297 40.3182 47.3182 40.3182 47.3625 40.3182C47.7166 40.3182 47.9379 40.0455 48.0264 39.6364C48.0706 39.2728 48.3362 39 48.5575 39H48.6017C48.7345 39.0455 48.823 39.1364 48.9115 39.2728C49.0443 39.5 49.0443 39.7273 49 39.9546C48.823 40.6364 48.0264 41.2728 47.3625 41.3182H47.3182C46.7429 41.3182 45.902 40.7728 45.7249 40.2273C45.5036 39.2728 45.6364 38.591 46.1675 38.1364C46.7429 37.6364 46.8314 37 46.8314 36.4091C46.8314 34.8637 46.8314 33.3182 46.8314 31.8182V30.1364C46.8314 30.091 46.8314 30.091 46.8314 30.0455C46.8314 29.9091 46.8756 29.6364 46.6544 29.5455C46.6101 29.5455 46.5658 29.5 46.5216 29.5C46.3445 29.5 46.256 29.6364 46.1675 29.7273C46.1233 29.7728 46.1233 29.7728 46.079 29.8182L45.5922 30.2273C45.1053 30.6364 44.6185 31 44.1759 31.4546C43.8661 31.7273 43.5563 31.8182 43.0694 31.8182C41.2106 31.8182 39.3075 31.8182 37.4486 31.8182H26.384C25.4989 31.8182 25.4103 31.9091 25.4103 32.8182V49.8182V50C25.4103 50.1819 25.4103 50.4091 25.3661 50.5455C25.2776 50.8182 25.1448 50.9091 24.9677 50.9091C24.9235 50.9091 24.9235 50.9091 24.8792 50.9091C24.6137 50.8637 24.5252 50.7273 24.5252 50.4546C24.5252 50 24.5252 49.5 24.5252 49.0455C24.5252 48.591 24.5252 48.091 24.5252 47.6364V47.2273C24.5252 46.9546 24.5252 46.6364 24.5252 46.3637C24.5252 46.3182 24.5252 46.2728 24.5252 46.2273C24.5252 46.091 24.5694 45.7728 24.3039 45.6819C24.2596 45.6819 24.2154 45.6364 24.1268 45.6364C23.9055 45.6364 23.817 45.7728 23.7285 45.9091C23.6843 45.9546 23.6843 45.9546 23.64 46C23.2417 46.4091 21.6484 48.091 21.2943 48.4091C20.9402 48.7728 20.5862 49.1364 20.2321 49.4546L20.1878 49.5C19.8338 49.8637 19.4797 50.2273 19.0814 50.591C18.9929 50.8182 18.8601 50.9546 18.6831 50.9546ZM19.6567 44.4546C19.3469 44.4546 19.1699 44.6364 19.1699 44.9546V48.2728C19.1699 48.4091 19.1699 48.6364 19.3912 48.7273H19.4355H19.524C19.6567 48.7273 19.7453 48.6364 19.7895 48.591C19.7895 48.591 19.7895 48.5455 19.8338 48.5455C21.0288 47.3182 22.2237 46.1364 23.4187 44.9091L23.5072 44.8182L23.4187 44.6819C23.4187 44.6819 23.4187 44.6364 23.3744 44.6364C23.3744 44.591 23.3302 44.591 23.3302 44.5455L23.2859 44.5H19.6567V44.4546ZM23.3744 43.5C23.5515 43.5 23.6843 43.5 23.8613 43.5H23.9055C24.0826 43.5 24.2596 43.4546 24.3481 43.3637C24.4366 43.2728 24.4809 43.091 24.4809 42.9091C24.4809 42.3182 24.4809 41.7273 24.4809 41.1364C24.4809 40.6819 24.4809 40.2273 24.4809 39.7728V39.7273C24.4809 39.6364 24.5252 39.3637 24.2596 39.2728C24.2154 39.2728 24.2154 39.2728 24.1711 39.2728C23.9941 39.2728 23.9055 39.4091 23.817 39.4546C23.2417 40.0455 21.0288 42.3182 20.5419 42.8637L20.4977 42.9091C20.4091 43 20.2764 43.1364 20.3649 43.3637C20.4534 43.5455 20.6747 43.5455 20.7632 43.5455H20.8075C21.3386 43.5455 21.8697 43.5455 22.4008 43.5455L23.3744 43.5ZM19.6567 38.0455C19.3912 38.0455 19.2142 38.2273 19.2142 38.5455V41.9091C19.2142 42.0455 19.2142 42.2728 19.4355 42.3637H19.4797H19.524C19.6567 42.3637 19.7453 42.2728 19.7895 42.2273C20.4091 41.5455 23.5072 38.4546 23.5072 38.4546L23.463 38.3637C23.463 38.3182 23.3744 38.1819 23.3744 38.1819L23.3302 38.091H19.6567V38.0455ZM24.2154 32.8637C24.0383 32.8637 23.9498 33 23.8613 33.0455L23.817 33.091C22.7106 34.2273 21.6484 35.3182 20.5419 36.4546C20.5419 36.4546 20.4977 36.4546 20.4977 36.5C20.4091 36.5455 20.2321 36.7273 20.3649 37C20.4534 37.1819 20.6747 37.1819 20.7189 37.1819H23.9055C24.0826 37.1819 24.2596 37.1364 24.3481 37.0455C24.4366 36.9546 24.4809 36.7728 24.4809 36.591C24.4809 36.2273 24.4809 35.9091 24.4809 35.5455V35V33.4091C24.4809 33.4091 24.4809 33.3637 24.4809 33.3182C24.4809 33.2273 24.5252 32.9546 24.3039 32.8637C24.2596 32.8637 24.2154 32.8637 24.2154 32.8637ZM19.7895 31.7273C19.5682 31.7273 19.4355 31.7728 19.3469 31.9091C19.2584 32 19.2142 32.1819 19.2142 32.3637V35.5455C19.2142 35.6819 19.2142 35.9091 19.4797 36H19.524C19.6125 36 19.7453 35.9546 19.8338 35.8637C20.9845 34.7273 22.091 33.5455 23.1974 32.4091C23.2859 32.3182 23.3744 32.1364 23.3302 32C23.2859 31.8637 23.1974 31.7728 22.9761 31.7728L19.7895 31.7273ZM34.7046 30.8182C35.1914 30.8182 35.7225 30.8182 36.2094 30.8182C36.7847 30.8182 36.8733 30.4546 36.8733 30.1364C36.8733 29.6364 36.8733 29.1364 36.8733 28.6364C36.8733 28.1364 36.8733 27.6364 36.8733 27.1364V27.091C36.8733 26.9546 36.8733 26.7728 36.6962 26.591L36.6077 26.5455L36.5192 26.591C36.4749 26.591 36.3864 26.591 36.3422 26.6819C35.8553 27.1819 33.4211 29.6364 32.8457 30.2273C32.7572 30.3182 32.6245 30.4546 32.6687 30.6819C32.713 30.7728 32.7572 30.9091 32.9785 30.9091C33.0228 30.9091 33.0228 30.9091 33.067 30.9091H33.1113L34.7046 30.8182ZM30.2788 26.5455C30.1017 26.5455 30.0132 26.6819 29.9247 26.7728L29.8804 26.8182C29.1723 27.5455 28.4642 28.2728 27.756 29L26.6938 30.091L26.6496 30.1364C26.5611 30.2273 26.4283 30.3637 26.4283 30.591V30.7728H28.9953C29.3936 30.7728 29.7919 30.7728 30.1902 30.7728C30.323 30.7728 30.4558 30.7273 30.5 30.6364C30.6328 30.5 30.6328 30.3182 30.6328 30.1364V27.091V27.0455C30.6328 26.9091 30.6771 26.6364 30.4115 26.5455C30.3673 26.5455 30.323 26.5455 30.2788 26.5455ZM42.7596 26.591C42.14 27.2273 41.5204 27.8182 40.9008 28.4546C40.2369 29.1364 39.5288 29.8182 38.8649 30.5L38.5551 30.7728H42.5826C42.8924 30.7728 43.0252 30.591 43.0252 30.2728C43.0252 29.5 43.0252 28.6819 43.0252 27.9091V26.2728L42.7596 26.591ZM19.9666 30.8182H23.9498C24.3039 30.8182 24.5252 30.6364 24.5252 30.3182V26.1364L19.9666 30.8182ZM17.9749 26.2728C17.5323 26.7273 17.0898 27.1819 16.6914 27.591C15.7177 28.5455 14.8326 29.4546 13.9032 30.5L13.6376 30.7728H17.7536C17.8864 30.7728 18.2405 30.7728 18.2405 30.3637C18.2405 29.4091 18.2405 28.4546 18.2405 27.4546V25.9546L17.9749 26.2728ZM44.0431 30.1819L44.3087 29.9546C44.9283 29.4091 45.4594 28.9546 46.0347 28.4546C46.2118 28.3182 46.256 28.1819 46.256 28.0455C46.256 27.9091 46.1675 27.7728 46.0347 27.6364L45.2823 27L45.2381 26.9546L45.1938 26.9091C44.9283 26.6819 44.6185 26.4091 44.3529 26.1819L44.0874 25.9546V30.1819H44.0431ZM32.0048 25.3637C31.5623 25.3637 31.518 25.6819 31.518 25.8637C31.518 27.091 31.518 28.2728 31.518 29.5V29.591L31.5623 29.6364C31.6065 29.6819 31.6065 29.6819 31.6508 29.7273C31.695 29.7273 31.695 29.7728 31.7393 29.7728L31.8721 29.8637C31.8721 29.8637 33.1556 28.5 33.7752 27.8637C34.3505 27.2273 34.9701 26.6364 35.5455 26C35.5898 25.9546 35.7668 25.7728 35.6783 25.591C35.634 25.4546 35.5012 25.4091 35.28 25.4091H32.0048V25.3637ZM38.2453 25.3637C37.8027 25.3637 37.7584 25.6364 37.7584 25.8182V29.591L37.8469 29.6364C37.8912 29.6364 37.9355 29.6819 37.9797 29.6819L38.1125 29.8182C38.1125 29.8182 41.1663 26.6364 41.6974 26.0455C41.6974 26.0455 41.6974 26.0455 41.7417 26C41.8302 25.9546 41.963 25.8182 41.9187 25.591C41.9187 25.5 41.8302 25.3637 41.6089 25.3637C41.5646 25.3637 41.4761 25.3637 41.4761 25.3637H38.2453ZM13.5491 25.3637C13.3721 25.3637 13.018 25.3637 13.018 25.8182V29.7728L13.2393 29.6819C13.2835 29.6819 13.3278 29.6364 13.3278 29.6364C13.3721 29.6364 13.4163 29.591 13.4606 29.5455C13.9917 29 16.3374 26.591 16.9127 26C17.0012 25.9091 17.1783 25.7728 17.0455 25.5455C17.0012 25.4546 16.8685 25.3637 16.7357 25.3637H16.6029H13.5491ZM25.8972 25.3637C25.6316 25.3637 25.3661 25.4546 25.3661 25.9546C25.3661 26.3182 25.3661 26.7273 25.3661 27.091V29.1364V29.1819C25.3661 29.2728 25.3218 29.5455 25.5874 29.6364C25.6316 29.6364 25.6759 29.6364 25.7201 29.6364C25.8972 29.6364 25.9857 29.5 26.03 29.4546C26.6053 28.8637 28.8182 26.591 29.3493 26.0455C29.3936 26 29.5264 25.8637 29.5264 25.6819C29.4821 25.5 29.3493 25.4091 29.128 25.4091L25.8972 25.3637ZM19.7895 25.3637C19.6567 25.3637 19.4797 25.3637 19.3469 25.5C19.2584 25.591 19.2142 25.7273 19.2142 25.9091C19.2142 26.591 19.2142 27.3182 19.2142 28.0455V29.1819C19.2142 29.3182 19.2142 29.5455 19.4355 29.6364C19.4797 29.6364 19.524 29.6364 19.5682 29.6364C19.7453 29.6364 19.8338 29.5 19.878 29.4546C20.9845 28.3182 22.091 27.1819 23.1974 26.0455L23.2417 26C23.2859 25.9546 23.463 25.7728 23.3744 25.5455C23.2859 25.3637 23.1089 25.3637 23.0204 25.3637H22.9761C22.445 25.3637 21.9139 25.3637 21.4271 25.3637H19.7895ZM24.2154 20C22.8433 21.4091 21.5599 22.7728 20.2764 24.1364L20.0108 24.4091H24.0383C24.2596 24.4091 24.4809 24.3182 24.4809 23.8637V19.7273L24.2154 20ZM19.701 19C19.4797 19 19.2142 19.091 19.2142 19.5V22.8182C19.2142 22.9546 19.2142 23.1364 19.3912 23.2273C19.4355 23.2728 19.4797 23.2728 19.524 23.2728C19.6567 23.2728 19.7453 23.1819 19.7895 23.1364C21.0288 21.9091 22.2237 20.6819 23.3744 19.4546L23.4187 19.3637L23.3744 19.2728C23.3744 19.2273 23.3744 19.2273 23.3302 19.1819V19.1364L23.2859 19H19.701Z" fill="#CC0A0A"/>
</g>
<defs>
<clipPath id="clip0">
<rect width="37" height="38" fill="white" transform="translate(12 18)"/>
</clipPath>
</defs>
</svg>
