<svg width="50" height="56" viewBox="0 0 50 56" fill="none" xmlns="http://www.w3.org/2000/svg">
<path fill-rule="evenodd" clip-rule="evenodd" d="M39.4356 12.4119L19.9608 0.981445L0.625 12.3753V34.8243L19.7958 46.4835L39.4356 34.5406V12.4119Z" fill="white"/>
<g clip-path="url(#clip0)">
<path d="M32.4551 41.2076C31.7339 40.4864 31.1089 39.6209 30.58 38.8035L30.5319 38.7073C29.9068 37.8419 29.2818 36.8803 28.7048 35.8706C28.6567 35.8225 28.6086 35.6782 28.5605 35.6301C28.6086 35.6301 28.7048 35.5821 28.801 35.534C28.9452 35.4859 29.1375 35.3897 29.2818 35.3417C29.3298 35.2936 29.3779 35.2936 29.3779 35.2936C29.426 35.2936 29.4741 35.3897 29.4741 35.3897C30.1472 36.5437 30.9165 37.6976 31.6858 38.8035L31.9262 39.1401C32.0224 39.2843 32.1186 39.3805 32.2628 39.3805C32.407 39.3805 32.5032 39.2362 32.5994 39.092C33.9457 36.8322 35.3881 34.6204 36.6863 32.7453C36.7344 32.6491 36.8305 32.5529 36.8786 32.4568C37.0709 32.601 37.2152 32.6972 37.4075 32.8414L37.6479 32.9857C37.6479 32.9857 37.5998 33.0338 37.5998 33.0818C36.2536 35.0051 35.0034 37.0245 33.8014 38.9478L33.3206 39.7651C33.0321 40.1979 32.7436 40.7268 32.4551 41.2076Z" fill="#CC0A0A"/>
<path d="M28.2239 47.3618C28.0316 47.3618 27.8873 47.3618 27.695 47.3618C27.5027 47.3618 27.3584 47.3618 27.1661 47.3618H23.1273H20.6271C19.8097 47.3618 17.8864 47.3618 17.8864 47.3618C17.8383 47.3618 17.7903 47.3618 17.7422 47.3618C17.7422 47.3137 17.7422 47.2656 17.7422 47.2175C17.7422 47.1214 17.7422 47.0252 17.7422 46.9291C17.7422 46.7367 17.7422 46.5444 17.7422 46.4963C17.7903 46.4482 17.9826 46.4482 18.1749 46.4482H24.0408C27.9835 46.4482 31.8781 46.4482 35.7727 46.4482C35.965 46.4482 35.965 46.4963 35.965 46.5925C36.0131 46.881 36.0131 47.2175 35.965 47.3137C35.9169 47.4099 35.6765 47.4099 35.4361 47.4099L28.2239 47.3618Z" fill="#CC0A0A"/>
<path d="M35.9652 51.5449C35.9652 51.5449 35.9171 51.5449 35.869 51.5449C35.821 51.5449 35.7729 51.5449 35.6767 51.5449C35.5806 51.5449 35.4363 51.5449 35.2921 51.5449C33.8496 51.5449 32.4553 51.5449 31.0128 51.5449H17.9347C17.8386 51.5449 17.6943 51.5449 17.6943 51.5449C17.6943 51.5449 17.6943 51.4487 17.6943 51.3526C17.6943 51.3045 17.6943 51.2083 17.6943 51.1603C17.6943 51.016 17.6943 50.9198 17.6943 50.7756C17.6943 50.7275 17.6943 50.6794 17.6943 50.6794C17.6943 50.6794 17.7424 50.6794 17.8386 50.6794C20.0984 50.6794 22.3101 50.6794 24.57 50.6794C26.8298 50.6794 29.0415 50.6794 31.3013 50.6794H33.1284C33.9939 50.6794 34.8593 50.6794 35.7248 50.6794C35.869 50.6794 35.9171 50.6794 35.9171 50.7275C35.9171 50.7275 35.9652 50.7756 35.9652 50.9198C35.9652 51.0641 35.9652 51.1603 35.9652 51.2564C35.9652 51.3526 35.9652 51.4968 35.9652 51.5449Z" fill="#CC0A0A"/>
<path d="M22.8392 34.8609C22.3103 34.8609 21.7814 34.8609 21.2525 34.8609H19.0888C18.6561 34.8609 18.2234 34.8609 17.7907 34.8609C17.6945 34.8609 17.6945 34.8609 17.6945 34.8609C17.6945 34.8609 17.6945 34.8609 17.6464 34.7647C17.5983 34.4282 17.5983 34.1397 17.6464 34.0435C17.6945 33.9473 18.0311 33.9954 18.3195 33.9954H23.0796C23.1277 33.9954 23.1758 33.9954 23.1758 33.9954C23.1758 33.9954 23.1758 34.0435 23.1758 34.0916V34.1877C23.1277 34.3801 23.0796 34.5724 23.0315 34.7647C23.1277 34.8609 23.0796 34.909 22.8392 34.8609Z" fill="#CC0A0A"/>
<path d="M37.1675 17.215C37.0714 17.215 37.0233 17.215 36.9752 17.1669C36.9271 17.1188 36.9271 17.0227 36.9271 16.8303C36.9271 16.7342 36.9752 16.638 36.9271 16.5418C36.9271 16.1091 36.6386 16.061 36.3982 16.061C33.2729 16.061 30.1477 16.061 27.0224 16.061C23.8971 16.061 20.7718 16.061 17.6465 16.061C17.5023 16.061 17.3581 16.061 17.2138 16.2053C17.1657 16.3014 17.1176 16.4457 17.1657 16.5899C17.1657 16.638 17.1657 16.7342 17.1657 16.7823V16.9265C17.1657 17.0707 17.1657 17.1669 17.1657 17.215H16.6368C16.5407 17.215 16.3483 17.215 16.3003 17.1669C16.2041 17.1188 16.2041 16.8784 16.2041 16.5899C16.2041 16.4457 16.2041 16.3014 16.2041 16.1572C16.2041 15.8687 16.2041 15.5802 16.2041 15.3398C16.2041 15.2917 16.2041 15.2437 16.2041 15.2437C16.2041 15.2437 16.2522 15.2437 16.3003 15.2437C18.0793 15.2437 19.8583 15.2437 21.6373 15.2437H27.1666H32.3594C34.0903 15.2437 35.8213 15.2437 37.6003 15.2437C37.7445 15.2437 37.7926 15.2437 37.7926 15.2917C37.7926 15.2917 37.8407 15.3398 37.7926 15.436C37.7926 16.061 37.7926 16.6861 37.7926 17.1669C37.7926 17.215 37.7926 17.2631 37.7926 17.2631H37.7445H37.6483C37.5522 17.2631 37.456 17.2631 37.3599 17.2631C37.3118 17.215 37.2156 17.215 37.1675 17.215Z" fill="#CC0A0A"/>
<path d="M35.2918 26.5427C29.5702 26.5427 23.8485 26.5427 18.1268 26.5427H17.7903C17.7422 26.5427 17.7422 26.5427 17.7422 26.5427C17.7422 26.4946 17.7422 26.4465 17.7422 26.3503V26.158C17.7422 26.0618 17.7422 25.9176 17.7422 25.8214H17.7903L17.7422 25.4849C17.7422 25.4849 17.7903 25.4849 17.8383 25.581V25.7253H17.7903H17.8383H17.8864C18.0307 25.7253 18.1749 25.6772 18.2711 25.6772C23.9447 25.6772 29.6663 25.6772 35.3399 25.6772C35.4361 25.6772 35.4842 25.6772 35.5803 25.6772H35.6765C35.7727 25.6772 35.8688 25.6772 35.9169 25.6772C35.9169 25.7253 35.9169 25.7734 35.9169 25.8695C35.9169 26.2061 35.9169 26.4465 35.8688 26.5427C35.8688 26.5427 35.6284 26.5427 35.2918 26.5427Z" fill="#CC0A0A"/>
<path d="M21.9255 43.227L19.858 43.1789C19.2329 43.1789 18.6079 43.1789 17.9347 43.1789C17.7905 43.1789 17.7424 43.1789 17.7424 43.1308C17.7424 43.1308 17.6943 43.0828 17.6943 42.9385C17.6943 42.602 17.6943 42.3615 17.7424 42.3135C17.7905 42.2654 18.0309 42.2654 18.1751 42.2654H22.5025C23.1756 42.2654 23.8968 42.2654 24.57 42.2654C24.7142 42.2654 24.8104 42.3135 24.8584 42.4096C25.0027 42.6019 25.1469 42.7462 25.2912 42.9385L25.4835 43.1789H21.9255V43.227Z" fill="#CC0A0A"/>
<path d="M38.3214 20.4364C38.2253 20.4364 38.1291 20.4364 38.081 20.3883C37.9848 20.3402 38.0329 20.196 38.0329 19.9555C38.0329 19.8594 38.0329 19.7151 38.0329 19.619C38.0329 19.2824 37.8887 19.1382 37.5521 19.1382C32.5997 19.1382 27.6474 19.1382 22.695 19.1382C20.6756 19.1382 18.6081 19.1382 16.5887 19.1382C16.4444 19.1382 16.3002 19.1382 16.156 19.2824C16.0598 19.4267 16.0598 19.5709 16.1079 19.7151C16.1079 19.8594 16.1079 19.9555 16.1079 20.0998C16.1079 20.196 16.1079 20.2921 16.1079 20.3883C16.1079 20.4364 16.1079 20.4364 16.1079 20.4364H16.0117C15.8194 20.4364 15.6751 20.4364 15.5309 20.4364C15.3867 20.4364 15.2905 20.4364 15.2424 20.3883C15.1943 20.2921 15.1943 20.0036 15.1943 19.619C15.1943 19.2343 15.1943 18.8016 15.1943 18.3689C15.1943 18.3208 15.1943 18.2727 15.1943 18.2727C15.1943 18.2727 15.2424 18.2727 15.2905 18.2727C17.5022 18.2727 19.6659 18.2727 21.8776 18.2727H27.2627H38.7541C38.8503 18.2727 38.9946 18.2727 38.9946 18.2727C38.9946 18.2727 38.9946 18.4169 38.9946 18.5131C38.9946 18.8016 38.9946 20.2921 38.9946 20.2921C38.9946 20.3402 38.9946 20.3883 38.9946 20.3883C38.9946 20.3883 38.9946 20.3883 38.9465 20.3883H38.8984C38.8022 20.3883 38.7061 20.3883 38.6099 20.3883C38.4657 20.4364 38.3695 20.4364 38.3214 20.4364Z" fill="#CC0A0A"/>
<path d="M22.8393 30.7258C21.6372 30.7258 20.4352 30.7258 19.1851 30.7258H17.8869C17.7426 30.7258 17.6946 30.7258 17.6946 30.6777C17.6946 30.6777 17.6465 30.6296 17.6465 30.4854C17.6465 30.1488 17.6465 29.9084 17.6946 29.8603C17.7426 29.8123 17.9831 29.8123 18.3196 29.8123H25.628L25.2433 30.2931C25.1472 30.4373 25.051 30.5335 24.9548 30.6296C24.9068 30.6777 24.8587 30.7258 24.7144 30.7258H22.8393Z" fill="#CC0A0A"/>
<path d="M23.1754 39.0439C22.6465 39.0439 22.0695 39.0439 21.5406 39.0439H19.1846C18.7519 39.0439 18.3192 39.0439 17.8864 39.0439C17.7903 39.0439 17.7422 39.0439 17.7422 39.0439C17.7422 39.0439 17.7422 39.0439 17.7422 38.9478C17.7422 38.7074 17.7422 38.515 17.7422 38.2746C17.7422 38.2265 17.7422 38.1785 17.7422 38.1785C17.7422 38.1785 17.7903 38.1785 17.8383 38.1785C18.7038 38.1785 19.5212 38.1785 20.3867 38.1785C21.2521 38.1785 22.1176 38.1785 22.935 38.1785C23.0311 38.1785 23.0311 38.1785 23.0792 38.2746C23.1273 38.515 23.1754 38.8035 23.2235 38.9958C23.2235 39.0439 23.2235 39.0439 23.2235 39.0439C23.2715 39.0439 23.2235 39.0439 23.1754 39.0439Z" fill="#CC0A0A"/>
<path d="M39.4754 46.304C39.3792 46.2079 39.283 46.1117 39.1869 46.1598C39.0907 46.2079 39.1388 46.304 39.1388 46.3521C39.1388 46.4002 39.1388 46.4002 39.1388 46.4483C39.1388 47.6022 39.1388 48.7562 39.1388 49.9101C39.1388 51.2564 39.1388 52.5546 39.1388 53.9009C39.1388 54.1413 39.0907 54.2855 38.8022 54.2374C38.658 54.2374 38.5137 54.2374 38.3695 54.2374C38.2733 54.2374 38.1772 54.2374 38.081 54.2374C34.3307 54.2374 30.6284 54.2374 26.8781 54.2374C23.1277 54.2374 19.4255 54.2374 15.6751 54.2374C15.2905 54.2374 15.0982 54.2374 14.9539 54.1413C14.8578 54.0451 14.8578 53.8528 14.8578 53.42C14.8578 50.0544 14.8578 46.6406 14.8578 43.2749C14.8578 39.9092 14.8578 36.4954 14.8578 33.1298V22.8404C14.8578 22.648 14.8578 22.5519 15.0982 22.5519C21.0602 22.5519 27.0704 22.5519 33.0325 22.5519H38.7061C39.0907 22.5519 39.0907 22.6 39.0907 22.9846C39.0907 24.8598 39.0907 26.6869 39.0907 28.562C39.0907 28.6582 39.0907 28.8024 39.1869 28.8986C39.4273 29.139 39.7158 29.3313 39.9562 29.5717C40.1004 29.716 40.2447 29.8122 40.3889 29.9564C40.3889 29.716 40.3889 29.5717 40.3889 29.4275C40.3889 26.8792 40.3889 24.2828 40.3889 21.7345C40.3889 21.3499 40.3889 21.3499 39.9562 21.3499C37.3598 21.3499 34.7153 21.3499 32.1189 21.3499C29.5225 21.3499 26.8781 21.3499 24.2817 21.3499C23.4162 21.3499 22.5508 21.3499 21.6853 21.3499C19.0889 21.3499 16.4444 21.3499 13.8481 21.3499C13.5596 21.3499 13.5596 21.446 13.5596 21.6864C13.5596 21.9749 13.5596 22.2634 13.5596 22.5519C13.5596 22.648 13.5596 22.7923 13.5596 22.8885C13.5596 33.7067 13.5596 44.4769 13.5596 55.2952C13.5596 55.5837 13.6557 55.6318 13.9442 55.6318C14.8097 55.6318 15.7232 55.6318 16.5887 55.6318C16.8772 55.6318 17.1657 55.6318 17.4542 55.6318C25.0029 55.6318 32.5036 55.6318 40.0523 55.6318C40.3408 55.6318 40.437 55.5356 40.437 55.2471C40.437 53.372 40.437 51.4968 40.437 49.6697C40.437 49.0447 40.437 48.4196 40.437 47.7945C40.437 47.6503 40.437 47.458 40.3408 47.3618C40.1004 46.9291 39.7638 46.6406 39.4754 46.304Z" fill="#CC0A0A"/>
<path d="M48.1784 52.7472C47.4572 52.7472 47.0244 52.4587 46.5436 52.1221C45.9186 51.6894 45.3897 51.1124 44.8608 50.5835L44.8127 50.5354C44.6204 50.3431 44.428 50.1508 44.2357 49.9585C42.9856 48.7564 41.8317 47.4101 40.7258 46.16C40.2931 45.6792 39.8603 45.1984 39.4276 44.7176C39.3314 44.6214 39.3314 44.5734 39.4276 44.4772C40.1488 43.756 40.8219 43.1309 41.3989 42.5059C41.3989 42.5059 41.447 42.5059 41.447 42.5539L42.1201 43.1309C42.5048 43.4194 42.8894 43.756 43.226 44.0445C45.1493 45.6311 46.9763 47.2178 48.6592 48.9007C49.0919 49.2853 49.4285 49.7661 49.6689 50.2469C49.9574 50.872 49.9093 51.449 49.4285 51.9298C49.0919 52.3625 48.6592 52.7472 48.1303 52.7472C48.2265 52.7472 48.1784 52.7472 48.1784 52.7472Z" fill="#CC0A0A"/>
<path d="M33.0806 45.3424C31.1093 45.3424 29.186 44.6693 27.5512 43.3711C24.8106 41.2074 23.7047 38.2264 24.426 34.8126C25.2914 30.8219 28.8975 27.8889 33.0806 27.8889C33.5133 27.8889 33.9941 27.937 34.4269 27.9851C37.1675 28.4178 39.235 29.716 40.6774 31.9277C41.639 33.3702 42.1199 35.0049 42.0718 36.832C42.0718 38.3706 41.591 39.9092 40.6774 41.3036C40.4851 41.544 40.4851 41.7363 40.6774 41.8325C40.6774 41.8325 40.7255 41.8325 40.7255 41.8806C40.7255 41.8806 40.6293 41.9767 40.5813 41.9767C40.0043 42.5537 39.4273 43.1307 38.8503 43.6596L38.8023 43.7076C38.7542 43.7557 38.7061 43.8519 38.658 43.8519C38.658 43.8519 38.6099 43.8519 38.5618 43.8038C38.5138 43.7557 38.4657 43.7076 38.3695 43.7076C38.2734 43.7076 38.1772 43.7557 38.1291 43.8038L38.081 43.8519C36.4944 44.8135 34.8115 45.3424 33.0806 45.3424ZM33.1767 28.8505C31.3016 28.8505 29.5226 29.4756 28.0801 30.6295C26.1569 32.2162 25.1472 34.2837 25.1472 36.6878C25.1472 38.7072 25.9165 40.4862 27.3589 41.9767C28.8975 43.5153 30.9169 44.3808 33.1287 44.3808C34.1865 44.3808 35.2442 44.1885 36.2539 43.7557C39.2831 42.5056 41.1582 39.8131 41.1582 36.6397C41.1582 34.7645 40.5332 33.0817 39.235 31.5912C37.7445 29.8122 35.5327 28.8505 33.1767 28.8505Z" fill="#CC0A0A"/>
</g>
<defs>
<clipPath id="clip0">
<rect width="36.3013" height="40.3882" fill="white" transform="translate(13.6074 15.1956)"/>
</clipPath>
</defs>
</svg>
