<svg width="49" height="53" viewBox="0 0 49 53" fill="none" xmlns="http://www.w3.org/2000/svg">
<path fill-rule="evenodd" clip-rule="evenodd" d="M38.5875 11.3524L19.2247 0L0 11.3161V33.6119L19.0606 45.1916L38.5875 33.3301V11.3524Z" fill="white"/>
<g clip-path="url(#clip0)">
<path d="M39.9959 52.9991C38.7025 52.9991 37.5086 52.5021 36.6132 51.6077C35.7178 50.7132 35.27 49.4709 35.27 48.2286C35.27 47.1354 35.27 46.0918 35.27 44.9986C35.27 44.2035 35.27 43.4084 35.27 42.6134C35.27 42.1164 35.0711 41.9177 34.5736 41.9177C32.3848 41.9177 30.1959 41.9177 28.0071 41.9177H21.8386C20.7441 41.9177 20.6944 42.017 20.6944 43.1103V44.4023C20.6944 45.6943 20.6944 47.036 20.6944 48.328C20.6447 50.4151 19.5502 52.0052 17.5604 52.7009C17.0629 52.85 16.5655 52.9494 16.0183 52.9494H11.4914C10.7452 52.9494 9.99897 52.9494 9.25278 52.9494C8.15836 52.9494 7.51166 52.3034 7.46191 51.2101C7.46191 50.3157 7.46191 49.4212 7.46191 48.5267C7.46191 47.2347 8.05887 46.6384 9.35227 46.6384C10.0985 46.6384 10.7452 46.6384 11.4416 46.6384C12.1381 46.6384 12.8345 46.6384 13.5309 46.6384C13.7299 46.6384 13.9787 46.6384 14.1776 46.4397C14.3269 46.2409 14.3766 45.9924 14.3766 45.7937C14.3766 44.452 14.3766 43.0606 14.3766 41.7189V40.3772C14.3766 38.0417 15.5705 36.4515 17.7594 35.7061C18.1573 35.557 18.6051 35.557 19.003 35.557H19.2518C19.8985 35.557 20.5949 35.557 21.2416 35.557C21.7391 35.557 22.1868 35.557 22.6842 35.557C22.8832 35.557 23.0822 35.557 23.2315 35.408C23.3309 35.3086 23.3807 35.1098 23.3807 34.8614C23.3807 34.0663 23.3807 33.3209 23.3807 32.5258C23.3807 32.0786 23.132 31.8798 22.933 31.7804C22.137 31.3332 21.8386 30.6375 22.0873 29.743C22.2863 28.948 22.8335 28.5504 23.7289 28.5007C24.0771 28.5007 24.4254 28.5007 24.7736 28.5007C25.1218 28.5007 25.47 28.5007 25.8183 28.5007C26.465 28.5007 26.465 28.0038 26.465 27.805C26.465 27.6063 26.465 27.1093 25.868 27.1093H25.8183C25.5695 27.1093 25.3705 27.1093 25.1218 27.1093C24.8233 27.1093 24.4751 27.1093 24.1766 27.1093C23.6792 27.1093 23.4802 26.9106 23.4802 26.4137C23.4304 25.4198 23.3807 25.1713 22.4853 25.1713C22.3858 25.1713 22.1868 25.1713 22.1868 25.1713C21.6396 25.1713 21.1421 24.9726 20.8436 24.6247C20.5452 24.2769 20.3959 23.8296 20.3959 23.3327C20.4457 22.488 20.4457 21.6432 20.3959 20.7984C20.3959 20.4009 20.3959 20.053 20.3959 19.6555C20.3959 18.5623 21.0426 17.9163 22.137 17.9163C22.7837 17.9163 23.3807 17.9163 24.0274 17.9163C24.0274 17.9163 30.8924 17.9163 31.4893 17.9163C32.4345 17.9163 33.3797 17.9163 34.2751 17.9163C34.8721 17.9163 35.3695 18.115 35.7178 18.4629C36.0162 18.8107 36.1655 19.258 36.1655 19.7549C36.1157 20.5003 36.1157 21.2953 36.1655 22.0407C36.1655 22.5376 36.1655 23.0346 36.1655 23.5315C36.1655 24.575 35.5685 25.1713 34.5238 25.1713C34.3249 25.1713 34.1259 25.1713 33.9766 25.1713C33.8274 25.1713 33.7279 25.1713 33.5787 25.1713H33.4792C33.2802 25.1713 33.1309 25.221 32.9817 25.3204C32.8822 25.4198 32.8325 25.6186 32.8325 25.867C32.8325 26.0658 32.8325 26.2646 32.8325 26.4633C32.7827 26.9106 32.6335 27.1093 32.136 27.1093C31.8375 27.1093 31.4893 27.1093 31.1908 27.1093C30.9421 27.1093 30.7431 27.1093 30.4944 27.1093H30.4447C30.2457 27.1093 30.0964 27.159 29.9969 27.2584C29.8477 27.4075 29.8477 27.6063 29.8477 27.7553C29.8477 28.0038 29.8477 28.451 30.4447 28.451C30.7431 28.451 31.0416 28.451 31.2903 28.451C31.6883 28.451 32.0365 28.451 32.4345 28.451C33.4294 28.451 33.9766 28.8486 34.1756 29.6437C34.4244 30.6375 34.1756 31.2835 33.2802 31.7804C32.9817 31.9792 32.8822 32.178 32.8822 32.4761C32.8822 33.2215 32.8822 33.9669 32.8822 34.762C32.8822 34.9607 32.8822 35.2092 33.0315 35.3583C33.1807 35.5074 33.4294 35.557 33.5787 35.557C34.0761 35.557 34.5736 35.557 35.0213 35.557C35.7178 35.557 36.3645 35.557 37.0112 35.6067C39.4985 35.7061 41.3888 37.6441 41.3888 40.1784C41.3888 42.3649 41.3888 44.1538 41.3888 45.8931C41.3888 46.2906 41.4883 46.6881 42.135 46.6881H42.1848C42.9807 46.6881 43.7766 46.6881 44.5726 46.6881H47.0101C48.3533 46.6881 48.9005 47.2347 48.9005 48.5764V49.4709C48.9005 50.0672 48.9005 50.6138 48.9005 51.2101C48.9005 52.3531 48.2538 52.9991 47.1096 52.9991C46.3137 52.9991 45.5178 52.9991 44.6721 52.9991H39.9959ZM41.7868 47.6323C41.4386 47.6323 41.1401 47.7317 40.8914 48.0298C40.5431 48.3777 40.1949 48.7255 39.8467 49.0734C39.399 49.5206 39.001 49.9181 38.5533 50.3654C38.5035 50.4151 38.404 50.4648 38.3543 50.5144C38.1553 50.6635 37.8568 50.912 37.9563 51.2598C38.1056 51.6574 38.5035 51.7568 38.8518 51.8064C38.9015 51.8064 39.001 51.8561 39.0507 51.8561C39.1005 51.8561 39.2 51.9058 39.2497 51.9058H39.3492C39.8467 51.9555 40.3939 51.9555 41.0406 51.9555C41.3391 51.9555 41.6375 51.9555 41.8863 51.9555C42.135 51.9555 42.4335 51.9555 42.6822 51.9555C42.8812 51.9555 43.0304 51.9555 43.2294 51.9555H45.9157C46.3137 51.9555 46.7117 51.9555 47.1594 51.9555C47.4579 51.9555 47.7066 51.9058 47.8061 51.7568C47.9553 51.6077 48.0051 51.4089 48.0051 51.1107C48.0051 50.266 48.0051 49.3715 48.0051 48.5267C48.0051 48.2286 47.9553 48.0298 47.8061 47.8807C47.6568 47.7317 47.4579 47.682 47.1594 47.682C46.4132 47.682 45.6172 47.682 44.871 47.682C43.8761 47.6323 42.8315 47.6323 41.7868 47.6323ZM9.25278 47.6323C8.70557 47.6323 8.45684 47.8807 8.45684 48.4274C8.45684 49.0237 8.45684 49.5703 8.45684 50.1666V51.0611C8.45684 51.8064 8.60608 51.9555 9.40202 51.9555C9.94922 51.9555 10.5462 51.9555 11.0934 51.9555H12.735H15.869C16.6152 51.9555 17.1624 51.8561 17.6599 51.6077C17.8091 51.5083 18.0081 51.4089 18.0579 51.2101C18.1076 51.0114 17.9584 50.8126 17.8091 50.7132C17.0132 49.9181 16.1178 49.0734 15.0233 47.9801C14.8244 47.7814 14.5756 47.682 14.2771 47.682C13.4315 47.682 12.6355 47.682 11.7898 47.682C10.9441 47.682 10.0985 47.6323 9.25278 47.6323ZM15.9685 38.7374C15.9188 38.7374 15.869 38.7374 15.8193 38.787C15.3716 38.9858 15.3716 39.4827 15.3716 39.8306C15.3716 39.8803 15.3716 39.9797 15.3716 40.0294C15.3716 42.2158 15.3716 44.3526 15.3716 46.4894C15.3716 46.6881 15.3716 46.9366 15.6203 47.1851C16.5655 48.1292 17.5106 49.0734 18.5056 50.0175L18.5553 50.0672C18.6548 50.2163 18.804 50.266 18.9035 50.266C19.1523 50.266 19.3015 50.0175 19.3015 49.9181C19.5502 49.3715 19.6497 48.9243 19.6497 48.4771C19.6497 47.7814 19.6497 47.0857 19.6497 46.4397V45.3961V44.6011C19.6497 43.806 19.6497 43.0109 19.6497 42.2158C19.6497 41.7686 19.5005 41.5201 19.202 41.222C18.7543 40.8741 18.3066 40.5263 17.8589 40.1784C17.5106 39.8803 17.1624 39.6318 16.8142 39.3337C16.7645 39.284 16.665 39.2343 16.6152 39.1349C16.4162 38.9361 16.2172 38.7374 15.9685 38.7374ZM40.0954 38.7374C39.9462 38.7374 39.7969 38.8367 39.598 38.9858L38.8518 39.5821C38.1553 40.1287 37.4589 40.725 36.7127 41.2717C36.3645 41.5201 36.265 41.8183 36.265 42.2158C36.265 44.2532 36.265 46.2906 36.265 48.328C36.265 48.7752 36.3645 49.2721 36.5634 49.8684C36.6132 50.0175 36.7624 50.3157 37.0112 50.3157C37.1604 50.3157 37.3096 50.2163 37.5086 50.0672C38.3046 49.2224 39.2 48.3777 40.2447 47.3341C40.4934 47.0857 40.5929 46.8372 40.5929 46.4894C40.5929 45.744 40.5929 44.9489 40.5929 44.0544V43.1103C40.5431 42.7127 40.5929 42.2655 40.5929 41.8183C40.5929 41.0729 40.6426 40.2281 40.4436 39.3834C40.4436 39.0355 40.3441 38.7374 40.0954 38.7374ZM20.9431 40.8741C22.137 40.8741 23.2812 40.8741 24.4751 40.8741C25.6193 40.8741 26.8132 40.8741 27.9573 40.8741H35.0711C35.3695 40.8741 35.7178 40.8244 36.066 40.576C37.0609 39.7809 38.1056 38.9361 39.1502 38.141C39.2995 38.0417 39.4487 37.8926 39.4487 37.6441C39.4487 37.4454 39.2497 37.2466 39.1005 37.1472C38.404 36.7 37.7076 36.5012 36.9614 36.5012H31.2406C31.1908 36.5012 31.0914 36.5012 31.0416 36.5012C30.7431 36.4515 30.5939 36.3024 30.5939 36.054C30.5939 35.7558 30.7431 35.6067 30.9919 35.6067C31.0914 35.6067 31.1908 35.6067 31.3401 35.6067C31.3898 35.6067 31.5391 35.6067 31.5888 35.6067C31.7878 35.6067 31.8873 35.557 31.9868 35.4577C32.0863 35.3583 32.136 35.1595 32.136 34.9607C32.136 34.1657 32.136 33.4203 32.136 32.6252C32.136 32.4761 32.136 32.2774 31.9868 32.1283C31.8375 31.9792 31.6386 31.9792 31.4893 31.9792C30.4447 31.9792 29.4 31.9792 28.3056 31.9792C27.2609 31.9792 26.2162 31.9792 25.1218 31.9792C24.9228 31.9792 24.7238 31.9792 24.5746 32.1283C24.4254 32.2774 24.4254 32.4761 24.4254 32.6252C24.4254 33.2712 24.4751 34.0166 24.4254 34.8117C24.4254 35.0104 24.4254 35.2589 24.5746 35.4577C24.6741 35.6067 24.8731 35.6564 25.1716 35.6564H25.2213C25.7188 35.6564 26.2162 35.6564 26.7137 35.6564C27.0619 35.6564 28.3553 35.6564 28.7035 35.6564C29.1513 35.6564 29.201 35.9049 29.201 36.1037C29.201 36.3024 29.1513 36.6006 28.7035 36.6006C28.5046 36.6006 28.3553 36.6006 28.1563 36.6006H19.1523C18.3563 36.6006 17.6101 36.7994 16.9634 37.2466C16.8142 37.346 16.6152 37.495 16.6152 37.7435C16.6152 37.9423 16.7645 38.141 16.9634 38.2404C17.9584 38.9858 18.9533 39.7809 19.8985 40.576C20.2467 40.8244 20.5452 40.9735 20.9431 40.9735V40.8741ZM28.2558 30.9853C29.6985 30.9853 31.0914 30.9853 32.534 30.9853C32.7827 30.9853 33.0812 30.9853 33.2304 30.7866C33.3797 30.6375 33.4294 30.4884 33.4294 30.24C33.4294 29.4946 32.8325 29.4946 32.534 29.4946C32.0365 29.4946 31.5888 29.4946 31.0914 29.4946H28.2061H23.9776C23.6792 29.4946 23.0822 29.4946 23.0822 30.24C23.0822 30.4884 23.132 30.6375 23.2812 30.7866C23.4802 30.9853 23.7289 30.9853 24.0274 30.9853C25.4203 30.9853 26.8132 30.9853 28.2558 30.9853ZM28.2558 28.5504C28.3056 28.5504 28.4051 28.5504 28.4548 28.5504C28.8528 28.5504 29.0518 28.302 29.0518 27.8547C29.0518 27.6063 29.002 27.4075 28.9025 27.3081C28.7533 27.159 28.5046 27.159 28.2558 27.159C28.0071 27.159 27.7584 27.159 27.6091 27.3081C27.5096 27.4075 27.4599 27.6063 27.4599 27.8547C27.4599 28.302 27.6589 28.5504 28.1066 28.5504C28.1563 28.5504 28.2061 28.5504 28.2558 28.5504ZM25.3208 26.1652C26.3157 26.1652 27.2609 26.1652 28.2558 26.1652H31.3898C31.5391 26.1652 31.937 26.1652 31.937 25.6683C31.937 25.5192 31.8873 25.3701 31.8375 25.2707C31.7381 25.1713 31.5888 25.1217 31.4396 25.1217H31.2406H25.271C25.2213 25.1217 25.0721 25.1217 25.0721 25.1217C24.9726 25.1217 24.8233 25.1217 24.7238 25.2707C24.6243 25.3701 24.6243 25.4695 24.6243 25.6186C24.6243 25.9664 24.8233 26.1155 25.1716 26.1155L25.3208 26.1652ZM30.5441 18.9598C30.1462 18.9598 29.9472 19.1586 29.9472 19.6058C29.9472 20.5003 29.9472 21.3947 29.9472 22.2892V23.6309C29.9472 23.78 29.9472 24.2769 30.4944 24.2769C31.0416 24.2769 31.0416 23.78 31.0416 23.6309V19.5561C31.0416 19.407 31.0416 18.9598 30.5441 18.9598ZM26.2162 18.9598C25.669 18.9598 25.669 19.4567 25.669 19.6058C25.669 20.3015 25.669 20.9475 25.669 21.6432V23.6309C25.669 23.78 25.669 23.9787 25.8183 24.1278C25.9178 24.2272 26.0172 24.2769 26.2162 24.2769C26.465 24.2769 26.5645 24.2272 26.6639 24.1278C26.8629 23.929 26.8629 23.7303 26.8629 23.5315V22.2395C26.8629 21.345 26.8629 20.4506 26.8629 19.6058C26.8629 19.1586 26.6639 18.9598 26.2162 18.9598ZM28.3553 18.9598C27.8081 18.9598 27.8081 19.407 27.8081 19.5561V23.5812C27.8081 23.78 27.8081 24.2272 28.3553 24.2272C28.9025 24.2272 28.9025 23.7303 28.9025 23.5812C28.9025 23.2333 28.9025 22.9352 28.9025 22.5873C28.9025 22.2395 28.9025 21.9413 28.9025 21.5935V20.8978C28.9025 20.4506 28.9025 19.9536 28.9025 19.5064C28.9523 19.1586 28.7533 18.9598 28.3553 18.9598ZM24.0771 18.9598C23.5299 18.9598 23.5299 19.4567 23.5299 19.6058C23.5299 20.9475 23.5299 22.2892 23.5299 23.6309C23.5299 23.8296 23.5299 24.2769 24.0771 24.2769C24.7238 24.2769 24.7238 23.78 24.7238 23.6309C24.7238 23.1836 24.7238 22.7364 24.7238 22.2892V21.5935V20.9475C24.7238 20.5003 24.7238 20.1027 24.7238 19.6555C24.7238 19.4567 24.6741 19.3076 24.5746 19.1586C24.5249 19.0095 24.3756 18.9598 24.0771 18.9598ZM32.5837 18.9598C32.0365 18.9598 32.0365 19.4567 32.0365 19.6058C32.0365 20.5003 32.0365 21.3947 32.0365 22.2892V23.6309C32.0365 23.78 32.0365 24.2769 32.6335 24.2769C32.8325 24.2769 32.9817 24.2272 33.0315 24.1278C33.1807 23.9787 33.1807 23.78 33.1807 23.5812V19.5561C33.1807 19.407 33.1807 18.9598 32.5837 18.9598ZM34.6233 18.9598C34.1259 18.9598 34.1259 19.407 34.1259 19.6058V23.5812C34.1259 23.78 34.1259 23.9787 34.2751 24.1278C34.3746 24.2272 34.4741 24.2769 34.6233 24.2769C34.8223 24.2769 34.9716 24.2272 35.1208 24.1278C35.2203 24.0284 35.3198 23.8793 35.3198 23.6309V19.5561C35.3198 19.2083 35.071 18.9598 34.6233 18.9598ZM22.0873 19.0095C21.4406 19.0592 21.4406 19.6058 21.4406 19.8046V23.5315C21.4406 23.929 21.6893 24.2272 22.0873 24.2272C22.5848 24.2272 22.5848 23.8296 22.5848 23.6309V21.5935V20.9972C22.5848 20.5996 22.5848 20.1524 22.5848 19.7549C22.5848 19.7052 22.5848 19.7052 22.5848 19.6555C22.5848 19.5064 22.5848 19.3076 22.4853 19.1586C22.3858 19.0592 22.2863 19.0095 22.0873 19.0095Z" fill="#CC0A0A"/>
</g>
<defs>
<clipPath id="clip0">
<rect width="41.5381" height="35.0331" fill="white" transform="translate(7.46191 17.967)"/>
</clipPath>
</defs>
</svg>
