<svg width="22" height="19" viewBox="0 0 22 19" fill="none" xmlns="http://www.w3.org/2000/svg">
<path fill-rule="evenodd" clip-rule="evenodd" d="M15.1088 0.0118306C15.1088 0.0188462 15.0654 0.0236613 15.0024 0.0236613C14.9394 0.0236613 14.896 0.0284763 14.896 0.0354919C14.896 0.0423892 14.8566 0.0473225 14.8014 0.0473225C14.7462 0.0473225 14.7068 0.0522559 14.7068 0.0591532C14.7068 0.06566 14.6802 0.0709838 14.6477 0.0709838C14.6152 0.0709838 14.5886 0.0763076 14.5886 0.0828144C14.5886 0.0893213 14.562 0.0946451 14.5295 0.0946451C14.497 0.0946451 14.4704 0.0999689 14.4704 0.106476C14.4704 0.112983 14.4438 0.118306 14.4113 0.118306C14.3788 0.118306 14.3522 0.12363 14.3522 0.130137C14.3522 0.136644 14.3256 0.141968 14.2931 0.141968C14.2606 0.141968 14.234 0.147291 14.234 0.153798C14.234 0.160305 14.2127 0.165629 14.1867 0.165629C14.1607 0.165629 14.1394 0.170953 14.1394 0.17746C14.1394 0.183966 14.1181 0.18929 14.0921 0.18929C14.0661 0.18929 14.0448 0.194614 14.0448 0.201121C14.0448 0.207628 14.0288 0.212951 14.0093 0.212951C13.9898 0.212951 13.9739 0.218275 13.9739 0.224782C13.9739 0.231289 13.9579 0.236613 13.9384 0.236613C13.9189 0.236613 13.9029 0.241936 13.9029 0.248443C13.9029 0.25495 13.887 0.260274 13.8675 0.260274C13.848 0.260274 13.832 0.265598 13.832 0.272105C13.832 0.278611 13.816 0.283935 13.7965 0.283935C13.777 0.283935 13.7611 0.289259 13.7611 0.295766C13.7611 0.302273 13.7451 0.307597 13.7256 0.307597C13.7061 0.307597 13.6901 0.31292 13.6901 0.319427C13.6901 0.325934 13.6742 0.331258 13.6547 0.331258C13.6352 0.331258 13.6192 0.336582 13.6192 0.343088C13.6192 0.349595 13.6032 0.354919 13.5837 0.354919C13.5642 0.354919 13.5483 0.360243 13.5483 0.36675C13.5483 0.373257 13.5376 0.37858 13.5246 0.37858C13.5116 0.37858 13.501 0.383904 13.501 0.390411C13.501 0.396918 13.485 0.402242 13.4655 0.402242C13.446 0.402242 13.43 0.407565 13.43 0.414072C13.43 0.420579 13.4194 0.425903 13.4064 0.425903C13.3934 0.425903 13.3828 0.431227 13.3828 0.437734C13.3828 0.44424 13.3668 0.449564 13.3473 0.449564C13.3278 0.449564 13.3118 0.454888 13.3118 0.461395C13.3118 0.467902 13.3012 0.473225 13.2882 0.473225C13.2752 0.473225 13.2645 0.478549 13.2645 0.485056C13.2645 0.491563 13.2539 0.496887 13.2409 0.496887C13.2279 0.496887 13.2172 0.50221 13.2172 0.508717C13.2172 0.515224 13.2066 0.520548 13.1936 0.520548C13.1806 0.520548 13.17 0.525872 13.17 0.532379C13.17 0.538885 13.1593 0.544209 13.1463 0.544209C13.1333 0.544209 13.1227 0.549533 13.1227 0.55604C13.1227 0.562547 13.112 0.56787 13.099 0.56787C13.086 0.56787 13.0754 0.573194 13.0754 0.579701C13.0754 0.586208 13.0647 0.591532 13.0517 0.591532C13.0387 0.591532 13.0281 0.596856 13.0281 0.603362C13.0281 0.609869 13.0174 0.615193 13.0044 0.615193C12.9914 0.615193 12.9808 0.620517 12.9808 0.627024C12.9808 0.63353 12.9702 0.638854 12.9572 0.638854C12.9442 0.638854 12.9335 0.644178 12.9335 0.650685C12.9335 0.657192 12.9229 0.662516 12.9099 0.662516C12.8969 0.662516 12.8862 0.667839 12.8862 0.674346C12.8862 0.680853 12.8756 0.686177 12.8626 0.686177C12.8496 0.686177 12.8389 0.691501 12.8389 0.698007C12.8389 0.704514 12.8283 0.709838 12.8153 0.709838C12.8023 0.709838 12.7916 0.715162 12.7916 0.721669C12.7916 0.728176 12.7822 0.733499 12.7706 0.733499C12.759 0.733499 12.7419 0.744147 12.7325 0.757161C12.7232 0.770174 12.706 0.780822 12.6945 0.780822C12.6829 0.780822 12.6734 0.786146 12.6734 0.792653C12.6734 0.799159 12.664 0.804483 12.6524 0.804483C12.6408 0.804483 12.6237 0.815131 12.6143 0.828144C12.6049 0.841158 12.5878 0.851806 12.5762 0.851806C12.5647 0.851806 12.5552 0.85713 12.5552 0.863636C12.5552 0.870143 12.5457 0.875467 12.5342 0.875467C12.5226 0.875467 12.5055 0.886115 12.4961 0.899128C12.4867 0.912142 12.4708 0.92279 12.4606 0.92279C12.4505 0.92279 12.4345 0.933437 12.4252 0.946451C12.4158 0.959465 12.4008 0.970112 12.3918 0.970112C12.3829 0.970112 12.3606 0.986083 12.3424 1.0056C12.3242 1.02512 12.3019 1.0411 12.293 1.0411C12.284 1.0411 12.269 1.05174 12.2596 1.06476C12.2503 1.07777 12.2353 1.08842 12.2263 1.08842C12.2174 1.08842 12.1951 1.10439 12.1769 1.12391C12.1587 1.14343 12.1375 1.1594 12.1298 1.1594C12.1222 1.1594 12.0955 1.1807 12.0705 1.20672C12.0455 1.23275 12.019 1.25405 12.0115 1.25405C12.0041 1.25405 11.9721 1.28067 11.9404 1.3132C11.9088 1.34573 11.8771 1.37235 11.8701 1.37235C11.8631 1.37235 11.7192 1.51077 11.5503 1.67995C11.3814 1.84913 11.2352 1.98755 11.2254 1.98755C11.2155 1.98755 11.2075 1.99558 11.2075 2.00539C11.2075 2.02869 10.8703 2.36613 10.847 2.36613C10.8372 2.36613 10.8292 2.37421 10.8292 2.3841C10.8292 2.40749 10.6813 2.55542 10.658 2.55542C10.6481 2.55542 10.64 2.56345 10.64 2.57326C10.64 2.59656 10.3028 2.934 10.2795 2.934C10.2697 2.934 10.2617 2.94203 10.2617 2.95184C10.2617 2.97514 9.92449 3.31258 9.90121 3.31258C9.89141 3.31258 9.88338 3.32066 9.88338 3.33055C9.88338 3.35394 9.73555 3.50187 9.71218 3.50187C9.7023 3.50187 9.69422 3.5099 9.69422 3.51971C9.69422 3.54302 9.35703 3.88045 9.33374 3.88045C9.32394 3.88045 9.31591 3.88848 9.31591 3.89829C9.31591 3.9216 8.97872 4.25903 8.95543 4.25903C8.94563 4.25903 8.9376 4.26711 8.9376 4.277C8.9376 4.30039 8.78977 4.44832 8.7664 4.44832C8.75652 4.44832 8.74844 4.45635 8.74844 4.46616C8.74844 4.48947 8.41125 4.8269 8.38796 4.8269C8.37816 4.8269 8.37013 4.83491 8.37013 4.8447C8.37013 4.86798 7.84371 5.39477 7.82046 5.39477C7.81067 5.39477 7.80267 5.4028 7.80267 5.41261C7.80267 5.43592 7.46547 5.77335 7.44218 5.77335C7.43238 5.77335 7.42436 5.78136 7.42436 5.79116C7.42436 5.80096 7.30468 5.92873 7.15841 6.07509C7.01216 6.22146 6.88448 6.34122 6.87468 6.34122C6.86489 6.34122 6.85689 6.34925 6.85689 6.35906C6.85689 6.36888 6.7798 6.45406 6.68556 6.54835C6.59134 6.64265 6.50622 6.7198 6.49641 6.7198C6.4866 6.7198 6.47858 6.72781 6.47858 6.73761C6.47858 6.76088 5.95216 7.28767 5.9289 7.28767C5.91911 7.28767 5.91111 7.2957 5.91111 7.30551C5.91111 7.31533 5.83402 7.40051 5.73978 7.4948C5.64556 7.5891 5.56044 7.66625 5.55063 7.66625C5.54083 7.66625 5.5328 7.67428 5.5328 7.68409C5.5328 7.69391 5.45571 7.77909 5.36147 7.87338C5.26725 7.96768 5.18213 8.04483 5.17232 8.04483C5.16252 8.04483 5.15449 8.05291 5.15449 8.0628C5.15449 8.08619 5.00666 8.23412 4.98329 8.23412C4.97341 8.23412 4.96533 8.24216 4.96533 8.25196C4.96533 8.26178 4.88824 8.34696 4.79401 8.44125C4.69978 8.53555 4.61466 8.6127 4.60485 8.6127C4.59505 8.6127 4.58702 8.62074 4.58702 8.63054C4.58702 8.64036 4.50993 8.72554 4.41569 8.81983C4.32147 8.91413 4.23635 8.99128 4.22654 8.99128C4.21674 8.99128 4.20871 8.99936 4.20871 9.00925C4.20871 9.03264 4.06089 9.18057 4.03751 9.18057C4.02763 9.18057 4.01956 9.18861 4.01956 9.19841C4.01956 9.22172 3.68236 9.55915 3.65907 9.55915C3.64927 9.55915 3.64124 9.56719 3.64124 9.57699C3.64124 9.58681 3.56415 9.67199 3.46992 9.76628C3.37569 9.86059 3.29057 9.93773 3.28076 9.93773C3.27096 9.93773 3.26293 9.94581 3.26293 9.9557C3.26293 9.97909 3.11511 10.127 3.09174 10.127C3.08185 10.127 3.07378 10.1351 3.07378 10.1449C3.07378 10.1547 2.99669 10.2399 2.90245 10.3342C2.80823 10.4285 2.72311 10.5056 2.71329 10.5056C2.70349 10.5056 2.69547 10.5136 2.69547 10.5234C2.69547 10.5468 2.35827 10.8842 2.33498 10.8842C2.32518 10.8842 2.31716 10.8923 2.31716 10.9022C2.31716 10.9255 2.16933 11.0735 2.14596 11.0735C2.13607 11.0735 2.128 11.0815 2.128 11.0913C2.128 11.1146 1.79081 11.4521 1.76752 11.4521C1.75772 11.4521 1.74969 11.4601 1.74969 11.4699C1.74969 11.4932 1.4125 11.8306 1.38921 11.8306C1.37941 11.8306 1.37138 11.8387 1.37138 11.8486C1.37138 11.872 1.22355 12.0199 1.20018 12.0199C1.1903 12.0199 1.18222 12.0281 1.18222 12.0381C1.18222 12.0481 1.12902 12.1091 1.064 12.1737C0.998978 12.2383 0.945778 12.2971 0.945778 12.3044C0.945778 12.3116 0.924498 12.338 0.898489 12.363C0.87248 12.388 0.8512 12.4147 0.8512 12.4224C0.8512 12.4301 0.83524 12.4513 0.815733 12.4695C0.796227 12.4877 0.780267 12.509 0.780267 12.5168C0.780267 12.5246 0.764307 12.5459 0.7448 12.5641C0.725293 12.5824 0.709333 12.6046 0.709333 12.6136C0.709333 12.6226 0.698693 12.6376 0.685689 12.6469C0.672684 12.6563 0.662044 12.6735 0.662044 12.6851C0.662044 12.6966 0.656724 12.7061 0.650222 12.7061C0.64372 12.7061 0.6384 12.7156 0.6384 12.7271C0.6384 12.7387 0.62776 12.7559 0.614756 12.7653C0.601751 12.7746 0.591111 12.7918 0.591111 12.8034C0.591111 12.8149 0.585791 12.8244 0.579289 12.8244C0.572787 12.8244 0.567467 12.8339 0.567467 12.8455C0.567467 12.857 0.556827 12.8742 0.543822 12.8836C0.530818 12.8929 0.520178 12.9101 0.520178 12.9217C0.520178 12.9332 0.514858 12.9427 0.508356 12.9427C0.501853 12.9427 0.496533 12.9534 0.496533 12.9664C0.496533 12.9794 0.491213 12.99 0.484711 12.99C0.478209 12.99 0.472889 13.0007 0.472889 13.0137C0.472889 13.0267 0.467569 13.0374 0.461067 13.0374C0.454564 13.0374 0.449244 13.048 0.449244 13.061C0.449244 13.074 0.443924 13.0847 0.437422 13.0847C0.43092 13.0847 0.4256 13.0953 0.4256 13.1083C0.4256 13.1214 0.42028 13.132 0.413778 13.132C0.407276 13.132 0.401956 13.1427 0.401956 13.1557C0.401956 13.1687 0.396636 13.1793 0.390133 13.1793C0.383631 13.1793 0.378311 13.19 0.378311 13.203C0.378311 13.216 0.372991 13.2267 0.366489 13.2267C0.359987 13.2267 0.354667 13.2373 0.354667 13.2503C0.354667 13.2633 0.349347 13.274 0.342844 13.274C0.336342 13.274 0.331022 13.2846 0.331022 13.2976C0.331022 13.3106 0.325702 13.3213 0.3192 13.3213C0.312698 13.3213 0.307378 13.3373 0.307378 13.3568C0.307378 13.3763 0.302058 13.3923 0.295556 13.3923C0.289053 13.3923 0.283733 13.4029 0.283733 13.4159C0.283733 13.429 0.278413 13.4396 0.271911 13.4396C0.265409 13.4396 0.260089 13.4556 0.260089 13.4751C0.260089 13.4946 0.254769 13.5106 0.248267 13.5106C0.241764 13.5106 0.236444 13.5266 0.236444 13.5461C0.236444 13.5656 0.231124 13.5816 0.224622 13.5816C0.21812 13.5816 0.2128 13.5975 0.2128 13.6171C0.2128 13.6366 0.20748 13.6526 0.200978 13.6526C0.194476 13.6526 0.189156 13.6685 0.189156 13.688C0.189156 13.7076 0.183836 13.7235 0.177333 13.7235C0.170831 13.7235 0.165511 13.7395 0.165511 13.759C0.165511 13.7785 0.160191 13.7945 0.153689 13.7945C0.147187 13.7945 0.141867 13.8158 0.141867 13.8418C0.141867 13.8679 0.136547 13.8892 0.130044 13.8892C0.123542 13.8892 0.118222 13.9105 0.118222 13.9365C0.118222 13.9625 0.112902 13.9838 0.1064 13.9838C0.0998978 13.9838 0.0945778 14.0104 0.0945778 14.043C0.0945778 14.0755 0.0892578 14.1021 0.0827556 14.1021C0.0762533 14.1021 0.0709333 14.1287 0.0709333 14.1613C0.0709333 14.1938 0.0656133 14.2204 0.0591111 14.2204C0.0523606 14.2204 0.0472889 14.2559 0.0472889 14.3032C0.0472889 14.3506 0.0422172 14.3861 0.0354667 14.3861C0.0285743 14.3861 0.0236444 14.4255 0.0236444 14.4807C0.0236444 14.5359 0.0187146 14.5753 0.0118222 14.5753C0.00422053 14.5753 0 14.6936 0 14.9066C0 15.1196 0.00422053 15.2379 0.0118222 15.2379C0.0188328 15.2379 0.0236444 15.2812 0.0236444 15.3443C0.0236444 15.4074 0.0284561 15.4508 0.0354667 15.4508C0.0422172 15.4508 0.0472889 15.4863 0.0472889 15.5336C0.0472889 15.5809 0.0523606 15.6164 0.0591111 15.6164C0.0656133 15.6164 0.0709333 15.6431 0.0709333 15.6756C0.0709333 15.7081 0.0762533 15.7347 0.0827556 15.7347C0.0892578 15.7347 0.0945778 15.7614 0.0945778 15.7939C0.0945778 15.8264 0.0998978 15.8531 0.1064 15.8531C0.112902 15.8531 0.118222 15.8743 0.118222 15.9004C0.118222 15.9264 0.123542 15.9477 0.130044 15.9477C0.136547 15.9477 0.141867 15.9637 0.141867 15.9832C0.141867 16.0027 0.147187 16.0187 0.153689 16.0187C0.160191 16.0187 0.165511 16.04 0.165511 16.066C0.165511 16.092 0.170831 16.1133 0.177333 16.1133C0.183836 16.1133 0.189156 16.1293 0.189156 16.1488C0.189156 16.1683 0.194476 16.1843 0.200978 16.1843C0.20748 16.1843 0.2128 16.2003 0.2128 16.2198C0.2128 16.2393 0.21812 16.2553 0.224622 16.2553C0.231124 16.2553 0.236444 16.2713 0.236444 16.2908C0.236444 16.3103 0.241764 16.3263 0.248267 16.3263C0.254769 16.3263 0.260089 16.3422 0.260089 16.3618C0.260089 16.3813 0.265409 16.3973 0.271911 16.3973C0.278413 16.3973 0.283733 16.4079 0.283733 16.4209C0.283733 16.4339 0.289053 16.4446 0.295556 16.4446C0.302058 16.4446 0.307378 16.4606 0.307378 16.4801C0.307378 16.4996 0.312698 16.5156 0.3192 16.5156C0.325702 16.5156 0.331022 16.5262 0.331022 16.5392C0.331022 16.5522 0.336342 16.5629 0.342844 16.5629C0.349347 16.5629 0.354667 16.5735 0.354667 16.5866C0.354667 16.5996 0.359987 16.6102 0.366489 16.6102C0.372991 16.6102 0.378311 16.6209 0.378311 16.6339C0.378311 16.6469 0.383631 16.6575 0.390133 16.6575C0.396636 16.6575 0.401956 16.6682 0.401956 16.6812C0.401956 16.6942 0.407276 16.7049 0.413778 16.7049C0.42028 16.7049 0.4256 16.7155 0.4256 16.7285C0.4256 16.7415 0.43092 16.7522 0.437422 16.7522C0.443924 16.7522 0.449244 16.7628 0.449244 16.7758C0.449244 16.7889 0.454564 16.7995 0.461067 16.7995C0.467569 16.7995 0.472889 16.8102 0.472889 16.8232C0.472889 16.8362 0.478209 16.8468 0.484711 16.8468C0.491213 16.8468 0.496533 16.8575 0.496533 16.8705C0.496533 16.8835 0.501853 16.8941 0.508356 16.8941C0.514858 16.8941 0.520178 16.9048 0.520178 16.9178C0.520178 16.9308 0.525498 16.9415 0.532 16.9415C0.538502 16.9415 0.543822 16.9509 0.543822 16.9625C0.543822 16.9741 0.554462 16.9912 0.567467 17.0006C0.580471 17.01 0.591111 17.026 0.591111 17.0361C0.591111 17.0463 0.601751 17.0622 0.614756 17.0716C0.62776 17.081 0.6384 17.0981 0.6384 17.1097C0.6384 17.1213 0.64372 17.1308 0.650222 17.1308C0.656724 17.1308 0.662044 17.1402 0.662044 17.1518C0.662044 17.1634 0.672684 17.1805 0.685689 17.1899C0.698693 17.1993 0.709333 17.2143 0.709333 17.2233C0.709333 17.2322 0.725293 17.2545 0.7448 17.2727C0.764307 17.291 0.780267 17.3123 0.780267 17.32C0.780267 17.3278 0.796227 17.3491 0.815733 17.3674C0.83524 17.3856 0.8512 17.4068 0.8512 17.4145C0.8512 17.4221 0.87248 17.4488 0.898489 17.4738C0.924498 17.4989 0.945778 17.5251 0.945778 17.5321C0.945778 17.5489 1.45007 18.0535 1.46682 18.0535C1.47386 18.0535 1.50007 18.0748 1.52507 18.1009C1.55006 18.1269 1.57677 18.1482 1.58441 18.1482C1.59207 18.1482 1.61325 18.1642 1.63147 18.1837C1.64968 18.2032 1.67193 18.2192 1.68088 18.2192C1.68984 18.2192 1.70485 18.2298 1.71422 18.2428C1.7236 18.2559 1.73956 18.2665 1.74969 18.2665C1.75982 18.2665 1.77578 18.2771 1.78516 18.2902C1.79453 18.3032 1.81049 18.3138 1.82062 18.3138C1.83075 18.3138 1.84671 18.3245 1.85609 18.3375C1.86546 18.3505 1.88142 18.3611 1.89156 18.3611C1.90169 18.3611 1.91765 18.3718 1.92702 18.3848C1.9364 18.3978 1.95353 18.4085 1.9651 18.4085C1.97666 18.4085 1.98613 18.4138 1.98613 18.4203C1.98613 18.4268 1.9956 18.4321 2.00717 18.4321C2.01874 18.4321 2.03587 18.4428 2.04524 18.4558C2.05462 18.4688 2.07175 18.4795 2.08332 18.4795C2.09489 18.4795 2.10436 18.4848 2.10436 18.4913C2.10436 18.4978 2.115 18.5031 2.128 18.5031C2.141 18.5031 2.15164 18.5084 2.15164 18.5149C2.15164 18.5215 2.16228 18.5268 2.17529 18.5268C2.18829 18.5268 2.19893 18.5321 2.19893 18.5386C2.19893 18.5451 2.20957 18.5504 2.22258 18.5504C2.23558 18.5504 2.24622 18.5558 2.24622 18.5623C2.24622 18.5688 2.25686 18.5741 2.26987 18.5741C2.28287 18.5741 2.29351 18.5794 2.29351 18.5859C2.29351 18.5924 2.30415 18.5978 2.31716 18.5978C2.33016 18.5978 2.3408 18.6031 2.3408 18.6096C2.3408 18.6161 2.35144 18.6214 2.36444 18.6214C2.37745 18.6214 2.38809 18.6267 2.38809 18.6333C2.38809 18.6398 2.40405 18.6451 2.42356 18.6451C2.44306 18.6451 2.45902 18.6504 2.45902 18.6569C2.45902 18.6634 2.46966 18.6687 2.48267 18.6687C2.49567 18.6687 2.50631 18.6741 2.50631 18.6806C2.50631 18.6871 2.52227 18.6924 2.54178 18.6924C2.56128 18.6924 2.57724 18.6977 2.57724 18.7042C2.57724 18.7107 2.58788 18.7161 2.60089 18.7161C2.61389 18.7161 2.62453 18.7214 2.62453 18.7279C2.62453 18.7344 2.64049 18.7397 2.66 18.7397C2.67951 18.7397 2.69547 18.7451 2.69547 18.7516C2.69547 18.7581 2.70611 18.7634 2.71911 18.7634C2.73212 18.7634 2.74276 18.7687 2.74276 18.7752C2.74276 18.7817 2.76404 18.787 2.79004 18.787C2.81605 18.787 2.83733 18.7924 2.83733 18.7989C2.83733 18.8054 2.85329 18.8107 2.8728 18.8107C2.89231 18.8107 2.90827 18.816 2.90827 18.8225C2.90827 18.829 2.92423 18.8344 2.94373 18.8344C2.96324 18.8344 2.9792 18.8397 2.9792 18.8462C2.9792 18.8527 3.00048 18.858 3.02649 18.858C3.0525 18.858 3.07378 18.8634 3.07378 18.8699C3.07378 18.8764 3.09506 18.8817 3.12107 18.8817C3.14708 18.8817 3.16836 18.887 3.16836 18.8935C3.16836 18.9 3.19496 18.9054 3.22747 18.9054C3.25998 18.9054 3.28658 18.9107 3.28658 18.9172C3.28658 18.9237 3.31318 18.929 3.34569 18.929C3.3782 18.929 3.4048 18.9343 3.4048 18.9408C3.4048 18.9477 3.4442 18.9527 3.49938 18.9527C3.55455 18.9527 3.59396 18.9576 3.59396 18.9645C3.59396 18.9718 3.65307 18.9763 3.74764 18.9763C3.84222 18.9763 3.90133 18.9809 3.90133 18.9882C3.90133 18.9956 3.97227 19 4.09049 19C4.20871 19 4.27964 18.9956 4.27964 18.9882C4.27964 18.9809 4.33482 18.9763 4.42151 18.9763C4.5082 18.9763 4.56338 18.9717 4.56338 18.9645C4.56338 18.9578 4.59884 18.9527 4.64613 18.9527C4.69342 18.9527 4.72889 18.9476 4.72889 18.9408C4.72889 18.9343 4.75549 18.929 4.788 18.929C4.82051 18.929 4.84711 18.9237 4.84711 18.9172C4.84711 18.9107 4.87371 18.9054 4.90622 18.9054C4.93873 18.9054 4.96533 18.9 4.96533 18.8935C4.96533 18.887 4.98661 18.8817 5.01262 18.8817C5.03863 18.8817 5.05991 18.8764 5.05991 18.8699C5.05991 18.8634 5.08119 18.858 5.1072 18.858C5.13321 18.858 5.15449 18.8527 5.15449 18.8462C5.15449 18.8397 5.17577 18.8344 5.20178 18.8344C5.22779 18.8344 5.24907 18.829 5.24907 18.8225C5.24907 18.816 5.26503 18.8107 5.28453 18.8107C5.30404 18.8107 5.32 18.8054 5.32 18.7989C5.32 18.7924 5.33596 18.787 5.35547 18.787C5.37497 18.787 5.39093 18.7817 5.39093 18.7752C5.39093 18.7687 5.40689 18.7634 5.4264 18.7634C5.44591 18.7634 5.46187 18.7581 5.46187 18.7516C5.46187 18.7451 5.47783 18.7397 5.49733 18.7397C5.51684 18.7397 5.5328 18.7344 5.5328 18.7279C5.5328 18.7214 5.54344 18.7161 5.55644 18.7161C5.56945 18.7161 5.58009 18.7107 5.58009 18.7042C5.58009 18.6977 5.59073 18.6924 5.60373 18.6924C5.61674 18.6924 5.62738 18.6871 5.62738 18.6806C5.62738 18.6741 5.64334 18.6687 5.66284 18.6687C5.68235 18.6687 5.69831 18.6634 5.69831 18.6569C5.69831 18.6504 5.70895 18.6451 5.72196 18.6451C5.73496 18.6451 5.7456 18.6398 5.7456 18.6333C5.7456 18.6267 5.75624 18.6214 5.76924 18.6214C5.78225 18.6214 5.79289 18.6161 5.79289 18.6096C5.79289 18.6031 5.80353 18.5978 5.81653 18.5978C5.82954 18.5978 5.84018 18.5924 5.84018 18.5859C5.84018 18.5794 5.85082 18.5741 5.86382 18.5741C5.87683 18.5741 5.88747 18.5688 5.88747 18.5623C5.88747 18.5558 5.89811 18.5504 5.91111 18.5504C5.92412 18.5504 5.93476 18.5451 5.93476 18.5386C5.93476 18.5321 5.9454 18.5268 5.9584 18.5268C5.9714 18.5268 5.98204 18.5215 5.98204 18.5149C5.98204 18.5084 5.99268 18.5031 6.00569 18.5031C6.01869 18.5031 6.02933 18.4978 6.02933 18.4913C6.02933 18.4848 6.03997 18.4795 6.05298 18.4795C6.06598 18.4795 6.07662 18.4741 6.07662 18.4676C6.07662 18.4611 6.08609 18.4558 6.09765 18.4558C6.10923 18.4558 6.12636 18.4451 6.13573 18.4321C6.14511 18.4191 6.16224 18.4085 6.17381 18.4085C6.18537 18.4085 6.19484 18.4031 6.19484 18.3966C6.19484 18.3901 6.20431 18.3848 6.21588 18.3848C6.22745 18.3848 6.24458 18.3742 6.25396 18.3611C6.26333 18.3481 6.27929 18.3375 6.28942 18.3375C6.29955 18.3375 6.31551 18.3268 6.32489 18.3138C6.33426 18.3008 6.35022 18.2902 6.36036 18.2902C6.37049 18.2902 6.38645 18.2795 6.39582 18.2665C6.4052 18.2535 6.4202 18.2428 6.42916 18.2428C6.43811 18.2428 6.46036 18.2269 6.47858 18.2073C6.4968 18.1878 6.51797 18.1719 6.52563 18.1719C6.53328 18.1719 6.55999 18.1506 6.58498 18.1245C6.60997 18.0985 6.63644 18.0772 6.64382 18.0772C6.65119 18.0772 6.68855 18.0453 6.72684 18.0062C6.76514 17.9672 6.80208 17.9352 6.80895 17.9352C6.82535 17.9352 16.2674 8.48637 16.2674 8.46997C16.2674 8.46305 16.294 8.43145 16.3265 8.39975C16.359 8.36806 16.3856 8.33594 16.3856 8.32837C16.3856 8.32079 16.4016 8.29968 16.4211 8.28144C16.4406 8.26321 16.4565 8.24095 16.4565 8.23199C16.4565 8.22303 16.4672 8.20801 16.4802 8.19863C16.4932 8.18925 16.5038 8.17328 16.5038 8.16314C16.5038 8.153 16.5145 8.13703 16.5275 8.12765C16.5405 8.11827 16.5511 8.10112 16.5511 8.08954C16.5511 8.07797 16.5564 8.06849 16.5629 8.06849C16.5694 8.06849 16.5748 8.05785 16.5748 8.04483C16.5748 8.03182 16.5801 8.02117 16.5866 8.02117C16.5931 8.02117 16.5984 8.01052 16.5984 7.99751C16.5984 7.9845 16.6037 7.97385 16.6102 7.97385C16.6167 7.97385 16.622 7.9632 16.622 7.95019C16.622 7.93717 16.6274 7.92653 16.6339 7.92653C16.6404 7.92653 16.6457 7.91588 16.6457 7.90286C16.6457 7.88985 16.651 7.8792 16.6575 7.8792C16.664 7.8792 16.6693 7.86856 16.6693 7.85554C16.6693 7.84253 16.6747 7.83188 16.6812 7.83188C16.6877 7.83188 16.693 7.82123 16.693 7.80822C16.693 7.79521 16.6983 7.78456 16.7048 7.78456C16.7113 7.78456 16.7166 7.76859 16.7166 7.74907C16.7166 7.72955 16.7219 7.71357 16.7284 7.71357C16.7349 7.71357 16.7403 7.6976 16.7403 7.67808C16.7403 7.65856 16.7456 7.64259 16.7521 7.64259C16.7586 7.64259 16.7639 7.62662 16.7639 7.6071C16.7639 7.58758 16.7692 7.57161 16.7757 7.57161C16.7822 7.57161 16.7876 7.55564 16.7876 7.53611C16.7876 7.51659 16.7929 7.50062 16.7994 7.50062C16.8059 7.50062 16.8112 7.47933 16.8112 7.4533C16.8112 7.42727 16.8165 7.40598 16.823 7.40598C16.8295 7.40598 16.8348 7.37936 16.8348 7.34682C16.8348 7.31429 16.8402 7.28767 16.8467 7.28767C16.8534 7.28767 16.8585 7.25218 16.8585 7.20486C16.8585 7.15753 16.8636 7.12204 16.8703 7.12204C16.8779 7.12204 16.8821 7.01951 16.8821 6.83811C16.8821 6.65671 16.8779 6.55417 16.8703 6.55417C16.8637 6.55417 16.8585 6.52262 16.8585 6.48319C16.8585 6.44376 16.8532 6.4122 16.8467 6.4122C16.8402 6.4122 16.8348 6.39091 16.8348 6.36488C16.8348 6.33885 16.8295 6.31756 16.823 6.31756C16.8165 6.31756 16.8112 6.29626 16.8112 6.27024C16.8112 6.24421 16.8059 6.22291 16.7994 6.22291C16.7929 6.22291 16.7876 6.20162 16.7876 6.17559C16.7876 6.14956 16.7822 6.12827 16.7757 6.12827C16.7692 6.12827 16.7639 6.11762 16.7639 6.10461C16.7639 6.09159 16.7586 6.08095 16.7521 6.08095C16.7456 6.08095 16.7403 6.06498 16.7403 6.04545C16.7403 6.02593 16.7349 6.00996 16.7284 6.00996C16.7219 6.00996 16.7166 5.99399 16.7166 5.97447C16.7166 5.95495 16.7113 5.93898 16.7048 5.93898C16.6983 5.93898 16.693 5.92833 16.693 5.91532C16.693 5.9023 16.6877 5.89166 16.6812 5.89166C16.6747 5.89166 16.6693 5.88101 16.6693 5.868C16.6693 5.85498 16.664 5.84433 16.6575 5.84433C16.651 5.84433 16.6457 5.83369 16.6457 5.82067C16.6457 5.80766 16.6404 5.79701 16.6339 5.79701C16.6274 5.79701 16.622 5.78636 16.622 5.77335C16.622 5.76034 16.6167 5.74969 16.6102 5.74969C16.6037 5.74969 16.5984 5.73904 16.5984 5.72603C16.5984 5.71301 16.5931 5.70237 16.5866 5.70237C16.5801 5.70237 16.5748 5.69289 16.5748 5.68132C16.5748 5.66974 16.5641 5.65259 16.5511 5.64321C16.5381 5.63383 16.5275 5.61669 16.5275 5.60511C16.5275 5.59354 16.5221 5.58406 16.5156 5.58406C16.5091 5.58406 16.5038 5.57458 16.5038 5.56301C16.5038 5.55143 16.4932 5.53429 16.4802 5.52491C16.4672 5.51552 16.4565 5.50051 16.4565 5.49154C16.4565 5.48259 16.4406 5.46032 16.4211 5.44209C16.4016 5.42386 16.3856 5.40274 16.3856 5.39517C16.3856 5.3876 16.359 5.35548 16.3265 5.32379C16.294 5.29209 16.2674 5.26043 16.2674 5.25342C16.2674 5.23678 16.0469 5.01619 16.0303 5.01619C16.0233 5.01619 15.9917 4.98957 15.96 4.95704C15.9283 4.9245 15.8962 4.89788 15.8887 4.89788C15.8811 4.89788 15.86 4.88191 15.8418 4.86239C15.8236 4.84287 15.8013 4.8269 15.7924 4.8269C15.7834 4.8269 15.7684 4.81625 15.759 4.80324C15.7496 4.79022 15.7325 4.77958 15.7209 4.77958C15.7094 4.77958 15.6999 4.77425 15.6999 4.76775C15.6999 4.76124 15.6904 4.75592 15.6789 4.75592C15.6673 4.75592 15.6502 4.74527 15.6408 4.73225C15.6314 4.71924 15.6143 4.70859 15.6027 4.70859C15.5912 4.70859 15.5817 4.70327 15.5817 4.69676C15.5817 4.69026 15.571 4.68493 15.558 4.68493C15.545 4.68493 15.5344 4.67961 15.5344 4.6731C15.5344 4.66659 15.5238 4.66127 15.5108 4.66127C15.4978 4.66127 15.4871 4.65595 15.4871 4.64944C15.4871 4.64293 15.4765 4.63761 15.4635 4.63761C15.4505 4.63761 15.4398 4.63229 15.4398 4.62578C15.4398 4.61927 15.4292 4.61395 15.4162 4.61395C15.4032 4.61395 15.3925 4.60862 15.3925 4.60212C15.3925 4.59561 15.3766 4.59029 15.3571 4.59029C15.3376 4.59029 15.3216 4.58496 15.3216 4.57846C15.3216 4.57195 15.311 4.56663 15.298 4.56663C15.285 4.56663 15.2743 4.5613 15.2743 4.55479C15.2743 4.54829 15.2584 4.54296 15.2388 4.54296C15.2193 4.54296 15.2034 4.53764 15.2034 4.53113C15.2034 4.52463 15.1874 4.5193 15.1679 4.5193C15.1484 4.5193 15.1324 4.51398 15.1324 4.50747C15.1324 4.50097 15.1165 4.49564 15.097 4.49564C15.0775 4.49564 15.0615 4.49032 15.0615 4.48381C15.0615 4.4773 15.0402 4.47198 15.0142 4.47198C14.9882 4.47198 14.9669 4.46666 14.9669 4.46015C14.9669 4.45364 14.9403 4.44832 14.9078 4.44832C14.8753 4.44832 14.8487 4.443 14.8487 4.43649C14.8487 4.42973 14.8132 4.42466 14.766 4.42466C14.7187 4.42466 14.6832 4.41958 14.6832 4.41283C14.6832 4.40531 14.5926 4.401 14.4349 4.401C14.2773 4.401 14.1867 4.40531 14.1867 4.41283C14.1867 4.41958 14.1512 4.42466 14.1039 4.42466C14.0566 4.42466 14.0212 4.42973 14.0212 4.43649C14.0212 4.443 13.9946 4.44832 13.962 4.44832C13.9295 4.44832 13.9029 4.45364 13.9029 4.46015C13.9029 4.46666 13.8817 4.47198 13.8556 4.47198C13.8296 4.47198 13.8084 4.4773 13.8084 4.48381C13.8084 4.49032 13.7871 4.49564 13.7611 4.49564C13.7351 4.49564 13.7138 4.50097 13.7138 4.50747C13.7138 4.51398 13.6978 4.5193 13.6783 4.5193C13.6588 4.5193 13.6428 4.52463 13.6428 4.53113C13.6428 4.53764 13.6269 4.54296 13.6074 4.54296C13.5879 4.54296 13.5719 4.54829 13.5719 4.55479C13.5719 4.5613 13.5613 4.56663 13.5483 4.56663C13.5353 4.56663 13.5246 4.57195 13.5246 4.57846C13.5246 4.58496 13.514 4.59029 13.501 4.59029C13.488 4.59029 13.4773 4.59561 13.4773 4.60212C13.4773 4.60862 13.4614 4.61395 13.4419 4.61395C13.4224 4.61395 13.4064 4.61927 13.4064 4.62578C13.4064 4.63229 13.3958 4.63761 13.3828 4.63761C13.3698 4.63761 13.3591 4.64293 13.3591 4.64944C13.3591 4.65595 13.3485 4.66127 13.3355 4.66127C13.3225 4.66127 13.3118 4.66659 13.3118 4.6731C13.3118 4.67961 13.3012 4.68493 13.2882 4.68493C13.2752 4.68493 13.2645 4.69026 13.2645 4.69676C13.2645 4.70327 13.2551 4.70859 13.2435 4.70859C13.2319 4.70859 13.2148 4.71924 13.2054 4.73225C13.196 4.74527 13.1801 4.75592 13.17 4.75592C13.1598 4.75592 13.1439 4.76656 13.1345 4.77958C13.1251 4.79259 13.1092 4.80324 13.099 4.80324C13.0889 4.80324 13.0729 4.81389 13.0636 4.8269C13.0542 4.83991 13.0392 4.85056 13.0302 4.85056C13.0213 4.85056 12.999 4.86653 12.9808 4.88605C12.9626 4.90557 12.9415 4.92154 12.934 4.92154C12.9265 4.92154 12.889 4.95349 12.8508 4.99253C12.8125 5.03157 12.7755 5.06351 12.7687 5.06351C12.752 5.06351 4.61067 13.2111 4.61067 13.2278C4.61067 13.235 4.59471 13.2557 4.5752 13.274C4.55569 13.2922 4.53973 13.3145 4.53973 13.3234C4.53973 13.3324 4.52909 13.3474 4.51609 13.3568C4.50308 13.3662 4.49244 13.3833 4.49244 13.3949C4.49244 13.4065 4.48712 13.4159 4.48062 13.4159C4.47412 13.4159 4.4688 13.4319 4.4688 13.4514C4.4688 13.471 4.46348 13.4869 4.45698 13.4869C4.45048 13.4869 4.44516 13.5029 4.44516 13.5224C4.44516 13.5419 4.43984 13.5579 4.43333 13.5579C4.42658 13.5579 4.42151 13.5934 4.42151 13.6407C4.42151 13.688 4.41644 13.7235 4.40969 13.7235C4.40319 13.7235 4.39787 13.7448 4.39787 13.7709C4.39787 13.7969 4.40319 13.8182 4.40969 13.8182C4.41626 13.8182 4.42151 13.8497 4.42151 13.8892C4.42151 13.9286 4.42676 13.9601 4.43333 13.9601C4.43984 13.9601 4.44516 13.9814 4.44516 14.0075C4.44516 14.0335 4.45048 14.0548 4.45698 14.0548C4.46348 14.0548 4.4688 14.0654 4.4688 14.0785C4.4688 14.0915 4.47412 14.1021 4.48062 14.1021C4.48712 14.1021 4.49244 14.1128 4.49244 14.1258C4.49244 14.1388 4.49776 14.1494 4.50427 14.1494C4.51077 14.1494 4.51609 14.1589 4.51609 14.1705C4.51609 14.1821 4.52673 14.1992 4.53973 14.2086C4.55274 14.218 4.56338 14.2325 4.56338 14.241C4.56338 14.261 4.73567 14.4334 4.75564 14.4334C4.76407 14.4334 4.77863 14.444 4.788 14.457C4.79737 14.47 4.81451 14.4807 4.82608 14.4807C4.83764 14.4807 4.84711 14.486 4.84711 14.4925C4.84711 14.499 4.85775 14.5044 4.87076 14.5044C4.88376 14.5044 4.8944 14.5097 4.8944 14.5162C4.8944 14.5227 4.91036 14.528 4.92987 14.528C4.94937 14.528 4.96533 14.5333 4.96533 14.5399C4.96533 14.5464 4.98661 14.5517 5.01262 14.5517C5.03863 14.5517 5.05991 14.557 5.05991 14.5635C5.05991 14.5708 5.12296 14.5753 5.22542 14.5753C5.32789 14.5753 5.39093 14.5708 5.39093 14.5635C5.39093 14.557 5.41221 14.5517 5.43822 14.5517C5.46423 14.5517 5.48551 14.5464 5.48551 14.5399C5.48551 14.5333 5.49615 14.528 5.50916 14.528C5.52216 14.528 5.5328 14.5227 5.5328 14.5162C5.5328 14.5097 5.54344 14.5044 5.55644 14.5044C5.56945 14.5044 5.58009 14.499 5.58009 14.4925C5.58009 14.486 5.59073 14.4807 5.60373 14.4807C5.61674 14.4807 5.62738 14.4754 5.62738 14.4689C5.62738 14.4624 5.63685 14.457 5.64841 14.457C5.65998 14.457 5.67711 14.4464 5.68649 14.4334C5.69586 14.4204 5.71035 14.4097 5.71867 14.4097C5.72699 14.4097 7.57983 12.5624 9.83609 10.3045C12.0923 8.04661 13.9452 6.19925 13.9535 6.19925C13.9618 6.19925 13.9763 6.18861 13.9857 6.17559C13.9951 6.16258 14.011 6.15193 14.0212 6.15193C14.0313 6.15193 14.0472 6.14128 14.0566 6.12827C14.0666 6.11438 14.0872 6.10461 14.1065 6.10461C14.1246 6.10461 14.1394 6.09928 14.1394 6.09278C14.1394 6.08627 14.15 6.08095 14.163 6.08095C14.176 6.08095 14.1867 6.07562 14.1867 6.06912C14.1867 6.06261 14.2079 6.05729 14.234 6.05729C14.26 6.05729 14.2812 6.05196 14.2812 6.04545C14.2812 6.03818 14.3404 6.03362 14.4349 6.03362C14.5295 6.03362 14.5886 6.03818 14.5886 6.04545C14.5886 6.05196 14.6099 6.05729 14.6359 6.05729C14.6619 6.05729 14.6832 6.06261 14.6832 6.06912C14.6832 6.07562 14.6992 6.08095 14.7187 6.08095C14.7382 6.08095 14.7541 6.08627 14.7541 6.09278C14.7541 6.09928 14.7648 6.10461 14.7778 6.10461C14.7908 6.10461 14.8014 6.10993 14.8014 6.11644C14.8014 6.12295 14.8109 6.12827 14.8225 6.12827C14.834 6.12827 14.8512 6.13892 14.8605 6.15193C14.8699 6.16494 14.8845 6.17559 14.8929 6.17559C14.9128 6.17559 15.1088 6.37172 15.1088 6.39168C15.1088 6.40009 15.1194 6.41465 15.1324 6.42404C15.1454 6.43342 15.1561 6.45056 15.1561 6.46214C15.1561 6.47371 15.1614 6.48319 15.1679 6.48319C15.1744 6.48319 15.1797 6.49384 15.1797 6.50685C15.1797 6.51986 15.1851 6.53051 15.1916 6.53051C15.1981 6.53051 15.2034 6.54648 15.2034 6.566C15.2034 6.58552 15.2087 6.60149 15.2152 6.60149C15.2217 6.60149 15.227 6.61747 15.227 6.63699C15.227 6.65651 15.2323 6.67248 15.2388 6.67248C15.2462 6.67248 15.2507 6.73557 15.2507 6.83811C15.2507 6.94064 15.2462 7.00374 15.2388 7.00374C15.2323 7.00374 15.227 7.02503 15.227 7.05106C15.227 7.07709 15.2217 7.09838 15.2152 7.09838C15.2087 7.09838 15.2034 7.11435 15.2034 7.13387C15.2034 7.15339 15.1981 7.16936 15.1916 7.16936C15.1851 7.16936 15.1797 7.18001 15.1797 7.19303C15.1797 7.20604 15.1744 7.21669 15.1679 7.21669C15.1614 7.21669 15.1561 7.22616 15.1561 7.23773C15.1561 7.24932 15.1454 7.26646 15.1324 7.27584C15.1194 7.28522 15.1088 7.2997 15.1088 7.30803C15.1088 7.32643 5.62096 16.8232 5.60257 16.8232C5.59542 16.8232 5.57466 16.8391 5.55644 16.8587C5.53823 16.8782 5.51598 16.8941 5.50703 16.8941C5.49807 16.8941 5.48306 16.9048 5.47369 16.9178C5.46431 16.9308 5.44835 16.9415 5.43822 16.9415C5.42809 16.9415 5.41213 16.9521 5.40276 16.9651C5.39338 16.9781 5.37742 16.9888 5.36729 16.9888C5.35716 16.9888 5.3412 16.9994 5.33182 17.0125C5.32245 17.0255 5.30532 17.0361 5.29374 17.0361C5.28218 17.0361 5.27271 17.0414 5.27271 17.0479C5.27271 17.0545 5.26207 17.0598 5.24907 17.0598C5.23606 17.0598 5.22542 17.0651 5.22542 17.0716C5.22542 17.0781 5.21478 17.0834 5.20178 17.0834C5.18877 17.0834 5.17813 17.0888 5.17813 17.0953C5.17813 17.1018 5.16749 17.1071 5.15449 17.1071C5.14148 17.1071 5.13084 17.1124 5.13084 17.1189C5.13084 17.1254 5.1202 17.1308 5.1072 17.1308C5.0942 17.1308 5.08356 17.1361 5.08356 17.1426C5.08356 17.1491 5.07292 17.1544 5.05991 17.1544C5.04691 17.1544 5.03627 17.1597 5.03627 17.1663C5.03627 17.1728 5.02031 17.1781 5.0008 17.1781C4.98129 17.1781 4.96533 17.1834 4.96533 17.1899C4.96533 17.1964 4.95469 17.2017 4.94169 17.2017C4.92868 17.2017 4.91804 17.2071 4.91804 17.2136C4.91804 17.2201 4.90208 17.2254 4.88258 17.2254C4.86307 17.2254 4.84711 17.2307 4.84711 17.2372C4.84711 17.2437 4.83115 17.2491 4.81164 17.2491C4.79214 17.2491 4.77618 17.2544 4.77618 17.2609C4.77618 17.2674 4.7549 17.2727 4.72889 17.2727C4.70288 17.2727 4.6816 17.2781 4.6816 17.2846C4.6816 17.2911 4.66032 17.2964 4.63431 17.2964C4.6083 17.2964 4.58702 17.3017 4.58702 17.3082C4.58702 17.3147 4.56042 17.32 4.52791 17.32C4.4954 17.32 4.4688 17.3254 4.4688 17.3319C4.4688 17.3389 4.42545 17.3437 4.3624 17.3437C4.29935 17.3437 4.256 17.3485 4.256 17.3555C4.256 17.3629 4.189 17.3674 4.07867 17.3674C3.96833 17.3674 3.90133 17.3629 3.90133 17.3555C3.90133 17.3485 3.85798 17.3437 3.79493 17.3437C3.73189 17.3437 3.68853 17.3389 3.68853 17.3319C3.68853 17.3253 3.657 17.32 3.6176 17.32C3.5782 17.32 3.54667 17.3148 3.54667 17.3082C3.54667 17.3017 3.52539 17.2964 3.49938 17.2964C3.47337 17.2964 3.45209 17.2911 3.45209 17.2846C3.45209 17.2781 3.43613 17.2727 3.41662 17.2727C3.39712 17.2727 3.38116 17.2674 3.38116 17.2609C3.38116 17.2544 3.35988 17.2491 3.33387 17.2491C3.30786 17.2491 3.28658 17.2437 3.28658 17.2372C3.28658 17.2307 3.27594 17.2254 3.26293 17.2254C3.24993 17.2254 3.23929 17.2201 3.23929 17.2136C3.23929 17.2071 3.22333 17.2017 3.20382 17.2017C3.18432 17.2017 3.16836 17.1964 3.16836 17.1899C3.16836 17.1834 3.15772 17.1781 3.14471 17.1781C3.13171 17.1781 3.12107 17.1728 3.12107 17.1663C3.12107 17.1597 3.10511 17.1544 3.0856 17.1544C3.06609 17.1544 3.05013 17.1491 3.05013 17.1426C3.05013 17.1361 3.03949 17.1308 3.02649 17.1308C3.01348 17.1308 3.00284 17.1254 3.00284 17.1189C3.00284 17.1124 2.9922 17.1071 2.9792 17.1071C2.9662 17.1071 2.95556 17.1018 2.95556 17.0953C2.95556 17.0888 2.94492 17.0834 2.93191 17.0834C2.91891 17.0834 2.90827 17.0781 2.90827 17.0716C2.90827 17.0651 2.8988 17.0598 2.88723 17.0598C2.87566 17.0598 2.85853 17.0491 2.84916 17.0361C2.83978 17.0231 2.82382 17.0125 2.81369 17.0125C2.80356 17.0125 2.7876 17.0018 2.77822 16.9888C2.76885 16.9758 2.75289 16.9651 2.74276 16.9651C2.73262 16.9651 2.71666 16.9545 2.70729 16.9415C2.69791 16.9285 2.68195 16.9178 2.67182 16.9178C2.66169 16.9178 2.64573 16.9072 2.63636 16.8941C2.62698 16.8811 2.6121 16.8705 2.60327 16.8705C2.59443 16.8705 2.56677 16.8492 2.54178 16.8232C2.51679 16.7971 2.49054 16.7758 2.48346 16.7758C2.46664 16.7758 2.22258 16.5316 2.22258 16.5148C2.22258 16.5077 2.2013 16.4814 2.17529 16.4564C2.14928 16.4314 2.128 16.4047 2.128 16.397C2.128 16.3894 2.11204 16.3682 2.09253 16.3499C2.07303 16.3317 2.05707 16.3094 2.05707 16.3005C2.05707 16.2915 2.04643 16.2765 2.03342 16.2671C2.02042 16.2577 2.00978 16.2418 2.00978 16.2316C2.00978 16.2215 1.99914 16.2055 1.98613 16.1961C1.97313 16.1868 1.96249 16.1696 1.96249 16.158C1.96249 16.1465 1.95717 16.137 1.95067 16.137C1.94416 16.137 1.93884 16.1263 1.93884 16.1133C1.93884 16.1003 1.93352 16.0897 1.92702 16.0897C1.92052 16.0897 1.9152 16.079 1.9152 16.066C1.9152 16.053 1.90988 16.0423 1.90338 16.0423C1.89688 16.0423 1.89156 16.0317 1.89156 16.0187C1.89156 16.0057 1.88624 15.995 1.87973 15.995C1.87323 15.995 1.86791 15.9844 1.86791 15.9714C1.86791 15.9583 1.86259 15.9477 1.85609 15.9477C1.84959 15.9477 1.84427 15.937 1.84427 15.924C1.84427 15.911 1.83895 15.9004 1.83244 15.9004C1.82594 15.9004 1.82062 15.8897 1.82062 15.8767C1.82062 15.8637 1.8153 15.8531 1.8088 15.8531C1.8023 15.8531 1.79698 15.8371 1.79698 15.8176C1.79698 15.798 1.79166 15.7821 1.78516 15.7821C1.77865 15.7821 1.77333 15.7661 1.77333 15.7466C1.77333 15.7271 1.76801 15.7111 1.76151 15.7111C1.75501 15.7111 1.74969 15.6951 1.74969 15.6756C1.74969 15.6561 1.74437 15.6401 1.73787 15.6401C1.73136 15.6401 1.72604 15.6241 1.72604 15.6046C1.72604 15.5851 1.72072 15.5691 1.71422 15.5691C1.70772 15.5691 1.7024 15.5478 1.7024 15.5218C1.7024 15.4958 1.69708 15.4745 1.69058 15.4745C1.68408 15.4745 1.67876 15.4479 1.67876 15.4153C1.67876 15.3828 1.67344 15.3562 1.66693 15.3562C1.66004 15.3562 1.65511 15.3167 1.65511 15.2615C1.65511 15.2063 1.65018 15.1669 1.64329 15.1669C1.63577 15.1669 1.63147 15.0722 1.63147 14.9066C1.63147 14.741 1.63577 14.6463 1.64329 14.6463C1.65004 14.6463 1.65511 14.6108 1.65511 14.5635C1.65511 14.5162 1.66018 14.4807 1.66693 14.4807C1.67344 14.4807 1.67876 14.4594 1.67876 14.4334C1.67876 14.4073 1.68408 14.3861 1.69058 14.3861C1.69708 14.3861 1.7024 14.3648 1.7024 14.3387C1.7024 14.3127 1.70772 14.2914 1.71422 14.2914C1.72072 14.2914 1.72604 14.2701 1.72604 14.2441C1.72604 14.2181 1.73136 14.1968 1.73787 14.1968C1.74437 14.1968 1.74969 14.1808 1.74969 14.1613C1.74969 14.1418 1.75501 14.1258 1.76151 14.1258C1.76801 14.1258 1.77333 14.1098 1.77333 14.0903C1.77333 14.0708 1.77865 14.0548 1.78516 14.0548C1.79166 14.0548 1.79698 14.0441 1.79698 14.0311C1.79698 14.0181 1.8023 14.0075 1.8088 14.0075C1.8153 14.0075 1.82062 13.9915 1.82062 13.972C1.82062 13.9525 1.82594 13.9365 1.83244 13.9365C1.83895 13.9365 1.84427 13.9258 1.84427 13.9128C1.84427 13.8998 1.84959 13.8892 1.85609 13.8892C1.86259 13.8892 1.86791 13.8785 1.86791 13.8655C1.86791 13.8525 1.87323 13.8418 1.87973 13.8418C1.88624 13.8418 1.89156 13.8312 1.89156 13.8182C1.89156 13.8052 1.89688 13.7945 1.90338 13.7945C1.90988 13.7945 1.9152 13.7839 1.9152 13.7709C1.9152 13.7578 1.92052 13.7472 1.92702 13.7472C1.93352 13.7472 1.93884 13.7377 1.93884 13.7262C1.93884 13.7146 1.94948 13.6974 1.96249 13.688C1.97549 13.6787 1.98613 13.6615 1.98613 13.6499C1.98613 13.6384 1.99145 13.6289 1.99796 13.6289C2.00446 13.6289 2.00978 13.6194 2.00978 13.6078C2.00978 13.5963 2.02042 13.5791 2.03342 13.5697C2.04643 13.5604 2.05707 13.5453 2.05707 13.5364C2.05707 13.5274 2.07303 13.5052 2.09253 13.4869C2.11204 13.4687 2.128 13.4475 2.128 13.4398C2.128 13.4322 2.14928 13.4055 2.17529 13.3804C2.2013 13.3554 2.22258 13.3292 2.22258 13.3222C2.22258 13.3057 12.8704 2.65006 12.8869 2.65006C12.8937 2.65006 12.9307 2.61812 12.969 2.57908C13.0073 2.54004 13.0447 2.50809 13.0522 2.50809C13.0597 2.50809 13.0808 2.49212 13.099 2.4726C13.1172 2.45308 13.1385 2.43711 13.1463 2.43711C13.1541 2.43711 13.1754 2.42114 13.1936 2.40162C13.2118 2.3821 13.2341 2.36613 13.243 2.36613C13.252 2.36613 13.267 2.35548 13.2764 2.34247C13.2857 2.32945 13.3017 2.3188 13.3118 2.3188C13.322 2.3188 13.3379 2.30816 13.3473 2.29514C13.3567 2.28213 13.3726 2.27148 13.3828 2.27148C13.3929 2.27148 13.4088 2.26083 13.4182 2.24782C13.4276 2.23481 13.4447 2.22416 13.4563 2.22416C13.4679 2.22416 13.4773 2.21884 13.4773 2.21233C13.4773 2.20582 13.4868 2.2005 13.4984 2.2005C13.5099 2.2005 13.5271 2.18985 13.5364 2.17684C13.5458 2.16382 13.5629 2.15318 13.5745 2.15318C13.5861 2.15318 13.5956 2.14785 13.5956 2.14135C13.5956 2.13484 13.6062 2.12951 13.6192 2.12951C13.6322 2.12951 13.6428 2.12419 13.6428 2.11768C13.6428 2.11118 13.6535 2.10585 13.6665 2.10585C13.6795 2.10585 13.6901 2.10053 13.6901 2.09402C13.6901 2.08752 13.7008 2.08219 13.7138 2.08219C13.7268 2.08219 13.7374 2.07687 13.7374 2.07036C13.7374 2.06385 13.7481 2.05853 13.7611 2.05853C13.7741 2.05853 13.7847 2.05321 13.7847 2.0467C13.7847 2.04019 13.7954 2.03487 13.8084 2.03487C13.8214 2.03487 13.832 2.02955 13.832 2.02304C13.832 2.01653 13.8426 2.01121 13.8556 2.01121C13.8686 2.01121 13.8793 2.00588 13.8793 1.99938C13.8793 1.99287 13.8899 1.98755 13.9029 1.98755C13.9159 1.98755 13.9266 1.98222 13.9266 1.97572C13.9266 1.96921 13.9372 1.96389 13.9502 1.96389C13.9632 1.96389 13.9739 1.95856 13.9739 1.95205C13.9739 1.94555 13.9898 1.94022 14.0093 1.94022C14.0288 1.94022 14.0448 1.9349 14.0448 1.92839C14.0448 1.92189 14.0554 1.91656 14.0684 1.91656C14.0814 1.91656 14.0921 1.91124 14.0921 1.90473C14.0921 1.89823 14.108 1.8929 14.1276 1.8929C14.1471 1.8929 14.163 1.88758 14.163 1.88107C14.163 1.87456 14.179 1.86924 14.1985 1.86924C14.218 1.86924 14.234 1.86392 14.234 1.85741C14.234 1.8509 14.2446 1.84558 14.2576 1.84558C14.2706 1.84558 14.2812 1.84026 14.2812 1.83375C14.2812 1.82724 14.3025 1.82192 14.3285 1.82192C14.3545 1.82192 14.3758 1.81659 14.3758 1.81009C14.3758 1.80358 14.3918 1.79826 14.4113 1.79826C14.4308 1.79826 14.4468 1.79293 14.4468 1.78643C14.4468 1.77992 14.468 1.7746 14.494 1.7746C14.5201 1.7746 14.5413 1.76927 14.5413 1.76276C14.5413 1.75626 14.5573 1.75093 14.5768 1.75093C14.5963 1.75093 14.6123 1.74561 14.6123 1.7391C14.6123 1.7326 14.6389 1.72727 14.6714 1.72727C14.7039 1.72727 14.7305 1.72195 14.7305 1.71544C14.7305 1.70894 14.7571 1.70361 14.7896 1.70361C14.8221 1.70361 14.8487 1.69829 14.8487 1.69178C14.8487 1.6852 14.8802 1.67995 14.9196 1.67995C14.959 1.67995 14.9906 1.6747 14.9906 1.66812C14.9906 1.66122 15.03 1.65629 15.0852 1.65629C15.1403 1.65629 15.1797 1.65136 15.1797 1.64446C15.1797 1.63679 15.3255 1.63263 15.5935 1.63263C15.8615 1.63263 16.0073 1.63679 16.0073 1.64446C16.0073 1.65136 16.0467 1.65629 16.1019 1.65629C16.157 1.65629 16.1964 1.66122 16.1964 1.66812C16.1964 1.6747 16.228 1.67995 16.2674 1.67995C16.3068 1.67995 16.3383 1.6852 16.3383 1.69178C16.3383 1.69829 16.3649 1.70361 16.3974 1.70361C16.4299 1.70361 16.4565 1.70894 16.4565 1.71544C16.4565 1.72195 16.4778 1.72727 16.5038 1.72727C16.5298 1.72727 16.5511 1.7326 16.5511 1.7391C16.5511 1.74561 16.5724 1.75093 16.5984 1.75093C16.6244 1.75093 16.6457 1.75626 16.6457 1.76276C16.6457 1.76927 16.667 1.7746 16.693 1.7746C16.719 1.7746 16.7403 1.77992 16.7403 1.78643C16.7403 1.79293 16.7562 1.79826 16.7757 1.79826C16.7952 1.79826 16.8112 1.80358 16.8112 1.81009C16.8112 1.81659 16.8272 1.82192 16.8467 1.82192C16.8662 1.82192 16.8821 1.82724 16.8821 1.83375C16.8821 1.84026 16.8981 1.84558 16.9176 1.84558C16.9371 1.84558 16.9531 1.8509 16.9531 1.85741C16.9531 1.86392 16.969 1.86924 16.9885 1.86924C17.008 1.86924 17.024 1.87456 17.024 1.88107C17.024 1.88758 17.04 1.8929 17.0595 1.8929C17.079 1.8929 17.0949 1.89823 17.0949 1.90473C17.0949 1.91124 17.1056 1.91656 17.1186 1.91656C17.1316 1.91656 17.1422 1.92189 17.1422 1.92839C17.1422 1.9349 17.1529 1.94022 17.1659 1.94022C17.1789 1.94022 17.1895 1.94555 17.1895 1.95205C17.1895 1.95856 17.2055 1.96389 17.225 1.96389C17.2445 1.96389 17.2604 1.96921 17.2604 1.97572C17.2604 1.98222 17.2711 1.98755 17.2841 1.98755C17.2971 1.98755 17.3077 1.99287 17.3077 1.99938C17.3077 2.00588 17.3184 2.01121 17.3314 2.01121C17.3444 2.01121 17.355 2.01653 17.355 2.02304C17.355 2.02955 17.3657 2.03487 17.3787 2.03487C17.3917 2.03487 17.4023 2.04019 17.4023 2.0467C17.4023 2.05321 17.413 2.05853 17.426 2.05853C17.439 2.05853 17.4496 2.06385 17.4496 2.07036C17.4496 2.07687 17.4602 2.08219 17.4732 2.08219C17.4862 2.08219 17.4969 2.08752 17.4969 2.09402C17.4969 2.10053 17.5075 2.10585 17.5205 2.10585C17.5335 2.10585 17.5442 2.11118 17.5442 2.11768C17.5442 2.12419 17.5536 2.12951 17.5652 2.12951C17.5768 2.12951 17.5939 2.14016 17.6033 2.15318C17.6127 2.16619 17.6298 2.17684 17.6414 2.17684C17.6529 2.17684 17.6624 2.18216 17.6624 2.18867C17.6624 2.19517 17.6719 2.2005 17.6834 2.2005C17.695 2.2005 17.7121 2.21115 17.7215 2.22416C17.7309 2.23717 17.748 2.24782 17.7596 2.24782C17.7712 2.24782 17.7806 2.25314 17.7806 2.25965C17.7806 2.26616 17.7891 2.27148 17.7995 2.27148C17.8099 2.27148 17.8333 2.28745 17.8516 2.30697C17.8698 2.32649 17.892 2.34247 17.901 2.34247C17.9099 2.34247 17.9249 2.35311 17.9343 2.36613C17.9437 2.37914 17.9587 2.38979 17.9676 2.38979C17.9766 2.38979 17.9988 2.40576 18.0171 2.42528C18.0353 2.4448 18.0565 2.46077 18.0641 2.46077C18.0718 2.46077 18.0985 2.48207 18.1235 2.50809C18.1485 2.53412 18.1749 2.55542 18.1823 2.55542C18.1897 2.55542 18.227 2.58736 18.2653 2.6264C18.3036 2.66544 18.3406 2.69738 18.3476 2.69738C18.364 2.69738 18.5845 2.91798 18.5845 2.93441C18.5845 2.94132 18.6218 2.98372 18.6673 3.02864C18.7128 3.07356 18.75 3.11643 18.75 3.12389C18.75 3.13134 18.766 3.15238 18.7855 3.17061C18.805 3.18884 18.821 3.21014 18.821 3.21793C18.821 3.22573 18.8369 3.24702 18.8564 3.26526C18.8759 3.28349 18.8919 3.30575 18.8919 3.31471C18.8919 3.32367 18.9025 3.33869 18.9156 3.34807C18.9286 3.35745 18.9392 3.37246 18.9392 3.38143C18.9392 3.39039 18.9552 3.41265 18.9747 3.43088C18.9942 3.44912 19.0101 3.47255 19.0101 3.48295C19.0101 3.49336 19.0155 3.50187 19.022 3.50187C19.0285 3.50187 19.0338 3.51134 19.0338 3.52291C19.0338 3.5345 19.0444 3.55164 19.0574 3.56102C19.0704 3.5704 19.0811 3.58755 19.0811 3.59913C19.0811 3.6107 19.0864 3.62017 19.0929 3.62017C19.0994 3.62017 19.1047 3.62965 19.1047 3.64122C19.1047 3.6528 19.1154 3.66995 19.1284 3.67933C19.1414 3.68871 19.152 3.70585 19.152 3.71743C19.152 3.729 19.1573 3.73848 19.1638 3.73848C19.1703 3.73848 19.1756 3.74913 19.1756 3.76214C19.1756 3.77516 19.181 3.7858 19.1875 3.7858C19.194 3.7858 19.1993 3.79645 19.1993 3.80946C19.1993 3.82248 19.2046 3.83313 19.2111 3.83313C19.2176 3.83313 19.2229 3.84377 19.2229 3.85679C19.2229 3.8698 19.2283 3.88045 19.2348 3.88045C19.2413 3.88045 19.2466 3.8911 19.2466 3.90411C19.2466 3.91712 19.2519 3.92777 19.2584 3.92777C19.2649 3.92777 19.2702 3.93842 19.2702 3.95143C19.2702 3.96445 19.2755 3.97509 19.282 3.97509C19.2885 3.97509 19.2939 3.98574 19.2939 3.99875C19.2939 4.01177 19.2992 4.02242 19.3057 4.02242C19.3122 4.02242 19.3175 4.03839 19.3175 4.05791C19.3175 4.07743 19.3228 4.0934 19.3293 4.0934C19.3358 4.0934 19.3412 4.10405 19.3412 4.11706C19.3412 4.13007 19.3465 4.14072 19.353 4.14072C19.3595 4.14072 19.3648 4.15137 19.3648 4.16438C19.3648 4.1774 19.3701 4.18805 19.3766 4.18805C19.3831 4.18805 19.3884 4.20402 19.3884 4.22354C19.3884 4.24306 19.3938 4.25903 19.4003 4.25903C19.4068 4.25903 19.4121 4.275 19.4121 4.29452C19.4121 4.31404 19.4174 4.33001 19.4239 4.33001C19.4304 4.33001 19.4357 4.34598 19.4357 4.3655C19.4357 4.38503 19.4411 4.401 19.4476 4.401C19.4541 4.401 19.4594 4.41697 19.4594 4.43649C19.4594 4.45601 19.4647 4.47198 19.4712 4.47198C19.4777 4.47198 19.483 4.48795 19.483 4.50747C19.483 4.52699 19.4883 4.54296 19.4948 4.54296C19.5013 4.54296 19.5067 4.56426 19.5067 4.59029C19.5067 4.61631 19.512 4.63761 19.5185 4.63761C19.525 4.63761 19.5303 4.65358 19.5303 4.6731C19.5303 4.69262 19.5356 4.70859 19.5421 4.70859C19.5486 4.70859 19.554 4.73521 19.554 4.76775C19.554 4.80028 19.5593 4.8269 19.5658 4.8269C19.5723 4.8269 19.5776 4.85352 19.5776 4.88605C19.5776 4.91859 19.5829 4.94521 19.5894 4.94521C19.596 4.94521 19.6012 4.97676 19.6012 5.01619C19.6012 5.05562 19.6065 5.08717 19.6131 5.08717C19.6198 5.08717 19.6249 5.12266 19.6249 5.16999C19.6249 5.21731 19.63 5.2528 19.6367 5.2528C19.6444 5.2528 19.6485 5.4066 19.6485 5.69054C19.6485 5.97447 19.6444 6.12827 19.6367 6.12827C19.6298 6.12827 19.6249 6.1677 19.6249 6.22291C19.6249 6.27813 19.62 6.31756 19.6131 6.31756C19.6065 6.31756 19.6012 6.34911 19.6012 6.38854C19.6012 6.42797 19.596 6.45953 19.5894 6.45953C19.5829 6.45953 19.5776 6.48615 19.5776 6.51868C19.5776 6.55121 19.5723 6.57783 19.5658 6.57783C19.5593 6.57783 19.554 6.59913 19.554 6.62516C19.554 6.65118 19.5486 6.67248 19.5421 6.67248C19.5356 6.67248 19.5303 6.69377 19.5303 6.7198C19.5303 6.74583 19.525 6.76712 19.5185 6.76712C19.512 6.76712 19.5067 6.78309 19.5067 6.80262C19.5067 6.82214 19.5013 6.83811 19.4948 6.83811C19.4883 6.83811 19.483 6.8594 19.483 6.88543C19.483 6.91146 19.4777 6.93275 19.4712 6.93275C19.4647 6.93275 19.4594 6.94872 19.4594 6.96824C19.4594 6.98776 19.4541 7.00374 19.4476 7.00374C19.4411 7.00374 19.4357 7.01971 19.4357 7.03923C19.4357 7.05875 19.4304 7.07472 19.4239 7.07472C19.4174 7.07472 19.4121 7.09069 19.4121 7.11021C19.4121 7.12973 19.4068 7.1457 19.4003 7.1457C19.3938 7.1457 19.3884 7.15635 19.3884 7.16936C19.3884 7.18238 19.3831 7.19303 19.3766 7.19303C19.3701 7.19303 19.3648 7.209 19.3648 7.22852C19.3648 7.24804 19.3595 7.26401 19.353 7.26401C19.3465 7.26401 19.3412 7.27466 19.3412 7.28767C19.3412 7.30068 19.3358 7.31133 19.3293 7.31133C19.3228 7.31133 19.3175 7.32198 19.3175 7.33499C19.3175 7.34801 19.3122 7.35865 19.3057 7.35865C19.2992 7.35865 19.2939 7.3693 19.2939 7.38232C19.2939 7.39533 19.2885 7.40598 19.282 7.40598C19.2755 7.40598 19.2702 7.42195 19.2702 7.44147C19.2702 7.46099 19.2649 7.47696 19.2584 7.47696C19.2519 7.47696 19.2466 7.48761 19.2466 7.50062C19.2466 7.51364 19.2413 7.52428 19.2348 7.52428C19.2283 7.52428 19.2229 7.53493 19.2229 7.54795C19.2229 7.56096 19.2176 7.57161 19.2111 7.57161C19.2046 7.57161 19.1993 7.58108 19.1993 7.59265C19.1993 7.60424 19.1886 7.62138 19.1756 7.63076C19.1626 7.64014 19.152 7.65728 19.152 7.66887C19.152 7.68044 19.1467 7.68991 19.1402 7.68991C19.1337 7.68991 19.1284 7.70056 19.1284 7.71357C19.1284 7.72659 19.123 7.73724 19.1165 7.73724C19.11 7.73724 19.1047 7.74671 19.1047 7.75828C19.1047 7.76986 19.0941 7.78701 19.0811 7.79639C19.0681 7.80577 19.0574 7.82174 19.0574 7.83188C19.0574 7.84202 19.0468 7.85799 19.0338 7.86737C19.0208 7.87675 19.0101 7.8939 19.0101 7.90548C19.0101 7.91705 19.0048 7.92653 18.9983 7.92653C18.9918 7.92653 18.9865 7.93503 18.9865 7.94544C18.9865 7.95584 18.9705 7.97928 18.951 7.99751C18.9315 8.01574 18.9156 8.03801 18.9156 8.04696C18.9156 8.05593 18.9049 8.07094 18.8919 8.08032C18.8789 8.08971 18.8683 8.10472 18.8683 8.11369C18.8683 8.12264 18.8523 8.14491 18.8328 8.16314C18.8133 8.18137 18.7973 8.20249 18.7973 8.21006C18.7973 8.21763 18.7707 8.24975 18.7382 8.28144C18.7057 8.31314 18.6791 8.34474 18.6791 8.35167C18.6791 8.3586 16.8065 10.2382 14.5177 12.5286C12.2289 14.819 10.3563 16.6989 10.3563 16.706C10.3563 16.7132 10.3403 16.7339 10.3208 16.7522C10.3013 16.7704 10.2853 16.7938 10.2853 16.8042C10.2853 16.8147 10.28 16.8232 10.2735 16.8232C10.267 16.8232 10.2617 16.8338 10.2617 16.8468C10.2617 16.8598 10.2564 16.8705 10.2499 16.8705C10.2434 16.8705 10.238 16.8811 10.238 16.8941C10.238 16.9072 10.2327 16.9178 10.2262 16.9178C10.2197 16.9178 10.2144 16.9338 10.2144 16.9533C10.2144 16.9728 10.2091 16.9888 10.2026 16.9888C10.1961 16.9888 10.1908 17.0101 10.1908 17.0361C10.1908 17.0621 10.1854 17.0834 10.1789 17.0834C10.1718 17.0834 10.1671 17.1347 10.1671 17.2136C10.1671 17.2924 10.1718 17.3437 10.1789 17.3437C10.1854 17.3437 10.1908 17.3703 10.1908 17.4029C10.1908 17.4354 10.1961 17.462 10.2026 17.462C10.2091 17.462 10.2144 17.478 10.2144 17.4975C10.2144 17.517 10.2197 17.533 10.2262 17.533C10.2327 17.533 10.238 17.5436 10.238 17.5567C10.238 17.5697 10.2434 17.5803 10.2499 17.5803C10.2564 17.5803 10.2617 17.5898 10.2617 17.6014C10.2617 17.613 10.2723 17.6301 10.2853 17.6395C10.2983 17.6489 10.309 17.6648 10.309 17.675C10.309 17.6851 10.3196 17.7011 10.3326 17.7105C10.3456 17.7198 10.3563 17.7345 10.3563 17.743C10.3563 17.762 10.4331 17.8406 10.4516 17.8406C10.459 17.8406 10.4799 17.8566 10.4981 17.8761C10.5164 17.8956 10.5398 17.9116 10.5502 17.9116C10.5606 17.9116 10.5691 17.9169 10.5691 17.9234C10.5691 17.9299 10.5797 17.9352 10.5927 17.9352C10.6057 17.9352 10.6164 17.9406 10.6164 17.9471C10.6164 17.9536 10.627 17.9589 10.64 17.9589C10.653 17.9589 10.6636 17.9642 10.6636 17.9707C10.6636 17.9772 10.6743 17.9826 10.6873 17.9826C10.7003 17.9826 10.7109 17.9879 10.7109 17.9944C10.7109 18.0009 10.7322 18.0062 10.7582 18.0062C10.7842 18.0062 10.8055 18.0116 10.8055 18.0181C10.8055 18.0254 10.8725 18.0299 10.9828 18.0299C11.0932 18.0299 11.1602 18.0254 11.1602 18.0181C11.1602 18.0116 11.1815 18.0062 11.2075 18.0062C11.2335 18.0062 11.2548 18.0009 11.2548 17.9944C11.2548 17.9879 11.2654 17.9826 11.2784 17.9826C11.2914 17.9826 11.302 17.9772 11.302 17.9707C11.302 17.9642 11.3127 17.9589 11.3257 17.9589C11.3387 17.9589 11.3493 17.9536 11.3493 17.9471C11.3493 17.9406 11.36 17.9352 11.373 17.9352C11.386 17.9352 11.3966 17.9299 11.3966 17.9234C11.3966 17.9169 11.4051 17.9116 11.4155 17.9116C11.4259 17.9116 11.4493 17.8956 11.4676 17.8761C11.4858 17.8566 11.5065 17.8406 11.5137 17.8406C11.5303 17.8406 19.7668 9.59886 19.7668 9.58225C19.7668 9.57542 19.804 9.53309 19.8495 9.48817C19.895 9.44325 19.9323 9.40058 19.9323 9.39332C19.9323 9.38608 19.9589 9.35423 19.9914 9.32254C20.0239 9.29085 20.0505 9.25883 20.0505 9.2514C20.0505 9.24396 20.0718 9.21741 20.0978 9.1924C20.1238 9.16739 20.1451 9.14067 20.1451 9.13301C20.1451 9.12535 20.161 9.10416 20.1805 9.08593C20.2 9.0677 20.216 9.04543 20.216 9.03648C20.216 9.02751 20.2266 9.0125 20.2396 9.00311C20.2526 8.99373 20.2633 8.97776 20.2633 8.96762C20.2633 8.95748 20.2739 8.94151 20.2869 8.93213C20.2999 8.92275 20.3106 8.90678 20.3106 8.89664C20.3106 8.8865 20.3212 8.87053 20.3342 8.86115C20.3472 8.85176 20.3579 8.83579 20.3579 8.82565C20.3579 8.81552 20.3685 8.79954 20.3815 8.79016C20.3945 8.78078 20.4052 8.76481 20.4052 8.75467C20.4052 8.74453 20.4158 8.72856 20.4288 8.71918C20.4418 8.7098 20.4524 8.69265 20.4524 8.68107C20.4524 8.6695 20.4578 8.66002 20.4643 8.66002C20.4708 8.66002 20.4761 8.65055 20.4761 8.63898C20.4761 8.6274 20.4867 8.61025 20.4997 8.60087C20.5127 8.59149 20.5234 8.57435 20.5234 8.56277C20.5234 8.5512 20.5287 8.54172 20.5352 8.54172C20.5417 8.54172 20.547 8.53107 20.547 8.51806C20.547 8.50504 20.5523 8.4944 20.5588 8.4944C20.5653 8.4944 20.5707 8.48492 20.5707 8.47335C20.5707 8.46177 20.5813 8.44462 20.5943 8.43524C20.6073 8.42586 20.618 8.40872 20.618 8.39714C20.618 8.38557 20.6233 8.37609 20.6298 8.37609C20.6363 8.37609 20.6416 8.36544 20.6416 8.35243C20.6416 8.33941 20.6469 8.32877 20.6534 8.32877C20.6599 8.32877 20.6652 8.31812 20.6652 8.30511C20.6652 8.29209 20.6706 8.28144 20.6771 8.28144C20.6836 8.28144 20.6889 8.2708 20.6889 8.25778C20.6889 8.24477 20.6942 8.23412 20.7007 8.23412C20.7072 8.23412 20.7125 8.22347 20.7125 8.21046C20.7125 8.19745 20.7179 8.1868 20.7244 8.1868C20.7309 8.1868 20.7362 8.17615 20.7362 8.16314C20.7362 8.15012 20.7415 8.13948 20.748 8.13948C20.7545 8.13948 20.7598 8.12351 20.7598 8.10398C20.7598 8.08447 20.7651 8.06849 20.7716 8.06849C20.7781 8.06849 20.7835 8.05785 20.7835 8.04483C20.7835 8.03182 20.7888 8.02117 20.7953 8.02117C20.8018 8.02117 20.8071 8.01052 20.8071 7.99751C20.8071 7.9845 20.8124 7.97385 20.8189 7.97385C20.8254 7.97385 20.8308 7.9632 20.8308 7.95019C20.8308 7.93717 20.8361 7.92653 20.8426 7.92653C20.8491 7.92653 20.8544 7.91055 20.8544 7.89103C20.8544 7.87151 20.8597 7.85554 20.8662 7.85554C20.8727 7.85554 20.878 7.84489 20.878 7.83188C20.878 7.81887 20.8834 7.80822 20.8899 7.80822C20.8964 7.80822 20.9017 7.79225 20.9017 7.77273C20.9017 7.75321 20.907 7.73724 20.9135 7.73724C20.92 7.73724 20.9253 7.72126 20.9253 7.70174C20.9253 7.68222 20.9307 7.66625 20.9372 7.66625C20.9437 7.66625 20.949 7.6556 20.949 7.64259C20.949 7.62958 20.9543 7.61893 20.9608 7.61893C20.9673 7.61893 20.9726 7.60296 20.9726 7.58344C20.9726 7.56392 20.9779 7.54795 20.9844 7.54795C20.9909 7.54795 20.9963 7.53197 20.9963 7.51245C20.9963 7.49293 21.0016 7.47696 21.0081 7.47696C21.0146 7.47696 21.0199 7.46099 21.0199 7.44147C21.0199 7.42195 21.0252 7.40598 21.0317 7.40598C21.0382 7.40598 21.0436 7.39001 21.0436 7.37049C21.0436 7.35097 21.0489 7.33499 21.0554 7.33499C21.0619 7.33499 21.0672 7.3137 21.0672 7.28767C21.0672 7.26164 21.0725 7.24035 21.079 7.24035C21.0855 7.24035 21.0908 7.21905 21.0908 7.19303C21.0908 7.167 21.0962 7.1457 21.1027 7.1457C21.1092 7.1457 21.1145 7.12441 21.1145 7.09838C21.1145 7.07235 21.1198 7.05106 21.1263 7.05106C21.1328 7.05106 21.1381 7.02976 21.1381 7.00374C21.1381 6.97771 21.1435 6.95641 21.15 6.95641C21.1565 6.95641 21.1618 6.92979 21.1618 6.89726C21.1618 6.86473 21.1671 6.83811 21.1736 6.83811C21.1801 6.83811 21.1854 6.81149 21.1854 6.77895C21.1854 6.74642 21.1907 6.7198 21.1972 6.7198C21.2038 6.7198 21.2091 6.68825 21.2091 6.64882C21.2091 6.60939 21.2143 6.57783 21.2209 6.57783C21.2276 6.57783 21.2327 6.54234 21.2327 6.49502C21.2327 6.4477 21.2378 6.4122 21.2445 6.4122C21.2514 6.4122 21.2564 6.37277 21.2564 6.31756C21.2564 6.26235 21.2613 6.22291 21.2682 6.22291C21.2759 6.22291 21.28 6.04151 21.28 5.70237C21.28 5.36322 21.2759 5.18182 21.2682 5.18182C21.2613 5.18182 21.2564 5.14239 21.2564 5.08717C21.2564 5.03196 21.2514 4.99253 21.2445 4.99253C21.2376 4.99253 21.2327 4.9531 21.2327 4.89788C21.2327 4.84267 21.2278 4.80324 21.2209 4.80324C21.2143 4.80324 21.2091 4.77169 21.2091 4.73225C21.2091 4.69282 21.2038 4.66127 21.1972 4.66127C21.1907 4.66127 21.1854 4.63465 21.1854 4.60212C21.1854 4.56958 21.1801 4.54296 21.1736 4.54296C21.1671 4.54296 21.1618 4.51635 21.1618 4.48381C21.1618 4.45128 21.1565 4.42466 21.15 4.42466C21.1435 4.42466 21.1381 4.40336 21.1381 4.37734C21.1381 4.35131 21.1328 4.33001 21.1263 4.33001C21.1198 4.33001 21.1145 4.30872 21.1145 4.28269C21.1145 4.25666 21.1092 4.23537 21.1027 4.23537C21.0962 4.23537 21.0908 4.21407 21.0908 4.18805C21.0908 4.16202 21.0855 4.14072 21.079 4.14072C21.0725 4.14072 21.0672 4.12475 21.0672 4.10523C21.0672 4.08571 21.0619 4.06974 21.0554 4.06974C21.0489 4.06974 21.0436 4.05377 21.0436 4.03425C21.0436 4.01473 21.0382 3.99875 21.0317 3.99875C21.0252 3.99875 21.0199 3.98278 21.0199 3.96326C21.0199 3.94374 21.0146 3.92777 21.0081 3.92777C21.0016 3.92777 20.9963 3.9118 20.9963 3.89228C20.9963 3.87276 20.9909 3.85679 20.9844 3.85679C20.9779 3.85679 20.9726 3.84082 20.9726 3.8213C20.9726 3.80177 20.9673 3.7858 20.9608 3.7858C20.9543 3.7858 20.949 3.76983 20.949 3.75031C20.949 3.73079 20.9437 3.71482 20.9372 3.71482C20.9307 3.71482 20.9253 3.69885 20.9253 3.67933C20.9253 3.65981 20.92 3.64384 20.9135 3.64384C20.907 3.64384 20.9017 3.63319 20.9017 3.62017C20.9017 3.60716 20.8964 3.59651 20.8899 3.59651C20.8834 3.59651 20.878 3.58054 20.878 3.56102C20.878 3.5415 20.8727 3.52553 20.8662 3.52553C20.8597 3.52553 20.8544 3.51488 20.8544 3.50187C20.8544 3.48885 20.8491 3.47821 20.8426 3.47821C20.8361 3.47821 20.8308 3.46224 20.8308 3.44271C20.8308 3.42319 20.8254 3.40722 20.8189 3.40722C20.8124 3.40722 20.8071 3.39658 20.8071 3.38356C20.8071 3.37055 20.8018 3.3599 20.7953 3.3599C20.7888 3.3599 20.7835 3.34925 20.7835 3.33624C20.7835 3.32323 20.7781 3.31258 20.7716 3.31258C20.7651 3.31258 20.7598 3.30193 20.7598 3.28892C20.7598 3.2759 20.7545 3.26526 20.748 3.26526C20.7415 3.26526 20.7362 3.25461 20.7362 3.24159C20.7362 3.22858 20.7309 3.21793 20.7244 3.21793C20.7179 3.21793 20.7125 3.20729 20.7125 3.19427C20.7125 3.18126 20.7072 3.17061 20.7007 3.17061C20.6942 3.17061 20.6889 3.15996 20.6889 3.14695C20.6889 3.13394 20.6836 3.12329 20.6771 3.12329C20.6706 3.12329 20.6652 3.11264 20.6652 3.09963C20.6652 3.08661 20.6599 3.07597 20.6534 3.07597C20.6469 3.07597 20.6416 3.06532 20.6416 3.0523C20.6416 3.03929 20.6363 3.02864 20.6298 3.02864C20.6233 3.02864 20.618 3.018 20.618 3.00498C20.618 2.99197 20.6126 2.98132 20.6061 2.98132C20.5996 2.98132 20.5943 2.97067 20.5943 2.95766C20.5943 2.94465 20.589 2.934 20.5825 2.934C20.576 2.934 20.5707 2.92452 20.5707 2.91295C20.5707 2.90137 20.56 2.88423 20.547 2.87484C20.534 2.86546 20.5234 2.84832 20.5234 2.83674C20.5234 2.82517 20.5181 2.81569 20.5116 2.81569C20.5051 2.81569 20.4997 2.80504 20.4997 2.79203C20.4997 2.77902 20.4944 2.76837 20.4879 2.76837C20.4814 2.76837 20.4761 2.75889 20.4761 2.74732C20.4761 2.73574 20.4654 2.7186 20.4524 2.70922C20.4394 2.69983 20.4288 2.68386 20.4288 2.67372C20.4288 2.66358 20.4182 2.64761 20.4052 2.63823C20.3922 2.62885 20.3815 2.61288 20.3815 2.60274C20.3815 2.5926 20.3709 2.57663 20.3579 2.56725C20.3449 2.55787 20.3342 2.54189 20.3342 2.53176C20.3342 2.52162 20.3236 2.50565 20.3106 2.49626C20.2976 2.48688 20.2869 2.47091 20.2869 2.46077C20.2869 2.45063 20.2763 2.43466 20.2633 2.42528C20.2503 2.4159 20.2396 2.40089 20.2396 2.39192C20.2396 2.38296 20.2237 2.3607 20.2042 2.34247C20.1847 2.32423 20.1687 2.30294 20.1687 2.29514C20.1687 2.28735 20.1528 2.26605 20.1332 2.24782C20.1137 2.22959 20.0978 2.2084 20.0978 2.20073C20.0978 2.19308 20.0765 2.16635 20.0505 2.14135C20.0245 2.11634 20.0032 2.08985 20.0032 2.08246C20.0032 2.07508 19.9713 2.0377 19.9323 1.99938C19.8933 1.96106 19.8613 1.92405 19.8613 1.91714C19.8613 1.90075 19.3806 1.41968 19.3642 1.41968C19.3573 1.41968 19.3203 1.38773 19.282 1.34869C19.2438 1.30965 19.2064 1.27771 19.199 1.27771C19.1916 1.27771 19.1652 1.25641 19.1402 1.23039C19.1152 1.20436 19.0885 1.18306 19.0808 1.18306C19.0732 1.18306 19.052 1.16709 19.0338 1.14757C19.0156 1.12805 18.9943 1.11208 18.9865 1.11208C18.9787 1.11208 18.9574 1.09611 18.9392 1.07659C18.921 1.05707 18.8987 1.0411 18.8898 1.0411C18.8808 1.0411 18.8658 1.03045 18.8564 1.01743C18.8471 1.00442 18.8311 0.993773 18.821 0.993773C18.8108 0.993773 18.7949 0.983126 18.7855 0.970112C18.7761 0.957098 18.7602 0.946451 18.75 0.946451C18.7399 0.946451 18.724 0.935803 18.7146 0.92279C18.7052 0.909776 18.6892 0.899128 18.6791 0.899128C18.669 0.899128 18.653 0.888481 18.6436 0.875467C18.6343 0.862453 18.6171 0.851806 18.6056 0.851806C18.594 0.851806 18.5845 0.846482 18.5845 0.839975C18.5845 0.833468 18.5751 0.828144 18.5635 0.828144C18.5519 0.828144 18.5348 0.817497 18.5254 0.804483C18.516 0.79147 18.4989 0.780822 18.4873 0.780822C18.4758 0.780822 18.4663 0.775498 18.4663 0.768991C18.4663 0.762484 18.4568 0.757161 18.4453 0.757161C18.4337 0.757161 18.4166 0.746513 18.4072 0.733499C18.3978 0.720486 18.3807 0.709838 18.3691 0.709838C18.3576 0.709838 18.3481 0.704514 18.3481 0.698007C18.3481 0.691501 18.3374 0.686177 18.3244 0.686177C18.3114 0.686177 18.3008 0.680853 18.3008 0.674346C18.3008 0.667839 18.2902 0.662516 18.2772 0.662516C18.2642 0.662516 18.2535 0.657192 18.2535 0.650685C18.2535 0.644178 18.2429 0.638854 18.2299 0.638854C18.2169 0.638854 18.2062 0.63353 18.2062 0.627024C18.2062 0.620517 18.1956 0.615193 18.1826 0.615193C18.1696 0.615193 18.1589 0.609869 18.1589 0.603362C18.1589 0.596856 18.1483 0.591532 18.1353 0.591532C18.1223 0.591532 18.1116 0.586208 18.1116 0.579701C18.1116 0.573194 18.101 0.56787 18.088 0.56787C18.075 0.56787 18.0644 0.562547 18.0644 0.55604C18.0644 0.549533 18.0537 0.544209 18.0407 0.544209C18.0277 0.544209 18.0171 0.538885 18.0171 0.532379C18.0171 0.525872 18.0064 0.520548 17.9934 0.520548C17.9804 0.520548 17.9698 0.515224 17.9698 0.508717C17.9698 0.50221 17.9591 0.496887 17.9461 0.496887C17.9331 0.496887 17.9225 0.491563 17.9225 0.485056C17.9225 0.478549 17.9065 0.473225 17.887 0.473225C17.8675 0.473225 17.8516 0.467902 17.8516 0.461395C17.8516 0.454888 17.8409 0.449564 17.8279 0.449564C17.8149 0.449564 17.8043 0.44424 17.8043 0.437734C17.8043 0.431227 17.7936 0.425903 17.7806 0.425903C17.7676 0.425903 17.757 0.420579 17.757 0.414072C17.757 0.407565 17.741 0.402242 17.7215 0.402242C17.702 0.402242 17.686 0.396918 17.686 0.390411C17.686 0.383904 17.6754 0.37858 17.6624 0.37858C17.6494 0.37858 17.6388 0.373257 17.6388 0.36675C17.6388 0.360243 17.6228 0.354919 17.6033 0.354919C17.5838 0.354919 17.5678 0.349595 17.5678 0.343088C17.5678 0.336582 17.5519 0.331258 17.5324 0.331258C17.5128 0.331258 17.4969 0.325934 17.4969 0.319427C17.4969 0.31292 17.4809 0.307597 17.4614 0.307597C17.4419 0.307597 17.426 0.302273 17.426 0.295766C17.426 0.289259 17.41 0.283935 17.3905 0.283935C17.371 0.283935 17.355 0.278611 17.355 0.272105C17.355 0.265598 17.3391 0.260274 17.3196 0.260274C17.3 0.260274 17.2841 0.25495 17.2841 0.248443C17.2841 0.241936 17.2681 0.236613 17.2486 0.236613C17.2291 0.236613 17.2132 0.231289 17.2132 0.224782C17.2132 0.218275 17.1919 0.212951 17.1659 0.212951C17.1399 0.212951 17.1186 0.207628 17.1186 0.201121C17.1186 0.194614 17.0973 0.18929 17.0713 0.18929C17.0453 0.18929 17.024 0.183966 17.024 0.17746C17.024 0.170953 17.008 0.165629 16.9885 0.165629C16.969 0.165629 16.9531 0.160305 16.9531 0.153798C16.9531 0.147291 16.9265 0.141968 16.894 0.141968C16.8614 0.141968 16.8348 0.136644 16.8348 0.130137C16.8348 0.12363 16.8082 0.118306 16.7757 0.118306C16.7432 0.118306 16.7166 0.112983 16.7166 0.106476C16.7166 0.0999689 16.69 0.0946451 16.6575 0.0946451C16.625 0.0946451 16.5984 0.0893213 16.5984 0.0828144C16.5984 0.0762366 16.5669 0.0709838 16.5275 0.0709838C16.4881 0.0709838 16.4565 0.065731 16.4565 0.0591532C16.4565 0.0523979 16.4211 0.0473225 16.3738 0.0473225C16.3265 0.0473225 16.291 0.0422472 16.291 0.0354919C16.291 0.0284763 16.2477 0.0236613 16.1846 0.0236613C16.1216 0.0236613 16.0782 0.0188462 16.0782 0.0118306C16.0782 0.00414072 15.9088 0 15.5935 0C15.2782 0 15.1088 0.00414072 15.1088 0.0118306Z" fill="#CC0A0A"/>
</svg>
