<svg width="18" height="18" viewBox="0 0 18 18" fill="none" xmlns="http://www.w3.org/2000/svg">
<path fill-rule="evenodd" clip-rule="evenodd" d="M4.93046 0.279297H13.07C15.6398 0.279297 17.7212 2.36069 17.7212 4.93046V13.07C17.7212 15.6398 15.6398 17.7212 13.07 17.7212H4.93046C2.36069 17.7212 0.279297 15.6398 0.279297 13.07V4.93046C0.279297 2.36069 2.36069 0.279297 4.93046 0.279297ZM4.93046 2.60488H13.07C14.3491 2.60488 15.3956 3.65139 15.3956 4.93046V13.07C15.3956 14.3491 14.3491 15.3956 13.07 15.3956H4.93046C3.65139 15.3956 2.60488 14.3491 2.60488 13.07V4.93046C2.60488 3.65139 3.65139 2.60488 4.93046 2.60488ZM9.00023 4.93046C11.2444 4.93046 13.07 6.75604 13.07 9.00023C13.07 11.2444 11.2444 13.07 9.00023 13.07C6.75604 13.07 4.93046 11.2444 4.93046 9.00023C4.93046 6.75604 6.75604 4.93046 9.00023 4.93046ZM9.00023 7.25604C9.96534 7.25604 10.7444 8.03511 10.7444 9.00023C10.7444 9.96534 9.96534 10.7444 9.00023 10.7444C8.03511 10.7444 7.25604 9.96534 7.25604 9.00023C7.25604 8.03511 8.03511 7.25604 9.00023 7.25604Z" fill="#1C1B1D"/>
</svg>
