<svg width="388" height="189" viewBox="0 0 388 189" fill="none" xmlns="http://www.w3.org/2000/svg">
<path d="M0.666988 176.773L3.82534 172.764L5.01252 173.525L3.28775 176.773L5.01252 179.977L3.82534 180.761L0.666988 176.773ZM7.65568 180.761L4.49733 176.773L7.65568 172.764L8.84286 173.525L7.11809 176.773L8.84286 179.977L7.65568 180.761ZM25.1731 182.127H21.7907V175.228H15.4516V182.127H12.0693V166.134H15.4516V172.406H21.7907V166.134H25.1731V182.127ZM29.6451 166.134H32.6915V173.861C32.6915 174.235 32.684 174.653 32.6691 175.116C32.6542 175.579 32.6392 176.034 32.6243 176.482C32.6094 176.915 32.5944 177.296 32.5795 177.625C32.5646 177.938 32.5496 178.155 32.5347 178.274H32.6019L39.9938 166.134H44.0481V182.127H41.0242V174.444C41.0242 174.041 41.0316 173.6 41.0466 173.122C41.0615 172.63 41.0764 172.159 41.0914 171.711C41.1212 171.263 41.1436 170.875 41.1586 170.546C41.1884 170.203 41.2108 169.979 41.2258 169.874H41.1362L33.7219 182.127H29.6451V166.134ZM52.207 173.817L46.8311 166.134H50.3254L55.4998 173.884V166.134H58.6581V173.884L63.8324 166.134H67.3268L61.9509 173.817L67.6404 182.127H64.0116L58.6581 174.018V182.127H55.4998V174.018L50.1462 182.127H46.5175L52.207 173.817ZM79.3186 182.127H70.1124V166.134H79.3186V168.911H73.4947V172.428H78.9154V175.205H73.4947V179.327H79.3186V182.127ZM93.1968 166.134V168.934H86.4769V182.127H83.0946V166.134H93.1968ZM110.176 174.108C110.176 175.765 109.9 177.214 109.347 178.453C108.81 179.678 107.981 180.634 106.861 181.321C105.741 182.007 104.307 182.351 102.56 182.351C100.828 182.351 99.3944 182.007 98.2595 181.321C97.1395 180.634 96.3032 179.67 95.7507 178.431C95.2131 177.192 94.9443 175.743 94.9443 174.085C94.9443 172.428 95.2131 170.987 95.7507 169.762C96.3032 168.538 97.1395 167.59 98.2595 166.918C99.3944 166.231 100.835 165.887 102.583 165.887C104.315 165.887 105.741 166.231 106.861 166.918C107.981 167.59 108.81 168.545 109.347 169.785C109.9 171.009 110.176 172.45 110.176 174.108ZM98.5059 174.108C98.5059 175.78 98.8269 177.102 99.4691 178.073C100.111 179.028 101.142 179.506 102.56 179.506C104.009 179.506 105.047 179.028 105.674 178.073C106.301 177.102 106.615 175.78 106.615 174.108C106.615 172.42 106.301 171.099 105.674 170.143C105.047 169.187 104.016 168.71 102.583 168.71C101.149 168.71 100.111 169.187 99.4691 170.143C98.8269 171.099 98.5059 172.42 98.5059 174.108ZM119.044 166.134C121.105 166.134 122.606 166.582 123.546 167.478C124.502 168.359 124.98 169.576 124.98 171.129C124.98 172.055 124.786 172.928 124.398 173.749C124.009 174.556 123.36 175.205 122.449 175.698C121.553 176.191 120.328 176.437 118.775 176.437H117.319V182.127H113.937V166.134H119.044ZM118.865 168.911H117.319V173.66H118.439C119.395 173.66 120.149 173.473 120.702 173.1C121.269 172.712 121.553 172.092 121.553 171.241C121.553 169.688 120.657 168.911 118.865 168.911ZM142.965 174.108C142.965 175.765 142.689 177.214 142.137 178.453C141.599 179.678 140.77 180.634 139.65 181.321C138.53 182.007 137.097 182.351 135.349 182.351C133.617 182.351 132.184 182.007 131.049 181.321C129.929 180.634 129.092 179.67 128.54 178.431C128.002 177.192 127.734 175.743 127.734 174.085C127.734 172.428 128.002 170.987 128.54 169.762C129.092 168.538 129.929 167.59 131.049 166.918C132.184 166.231 133.625 165.887 135.372 165.887C137.104 165.887 138.53 166.231 139.65 166.918C140.77 167.59 141.599 168.545 142.137 169.785C142.689 171.009 142.965 172.45 142.965 174.108ZM131.295 174.108C131.295 175.78 131.616 177.102 132.258 178.073C132.9 179.028 133.931 179.506 135.349 179.506C136.798 179.506 137.836 179.028 138.463 178.073C139.09 177.102 139.404 175.78 139.404 174.108C139.404 172.42 139.09 171.099 138.463 170.143C137.836 169.187 136.805 168.71 135.372 168.71C133.938 168.71 132.9 169.187 132.258 170.143C131.616 171.099 131.295 172.42 131.295 174.108ZM158.81 166.134V179.305H160.938V186.786H157.668V182.127H147.655V186.786H144.385V179.305H145.617C146.184 178.185 146.714 176.99 147.207 175.721C147.7 174.436 148.14 173.01 148.529 171.442C148.932 169.874 149.253 168.105 149.492 166.134H158.81ZM152.18 168.956C152.045 169.986 151.829 171.106 151.53 172.316C151.246 173.511 150.903 174.713 150.5 175.922C150.097 177.117 149.656 178.244 149.178 179.305H155.428V168.956H152.18ZM176.946 182.127H173.564V175.228H167.225V182.127H163.843V166.134H167.225V172.406H173.564V166.134H176.946V182.127ZM190.625 182.127H181.419V166.134H190.625V168.911H184.801V172.428H190.222V175.205H184.801V179.327H190.625V182.127ZM203.54 167.881C205.287 167.926 206.676 168.232 207.706 168.799C208.751 169.352 209.498 170.068 209.946 170.95C210.409 171.831 210.64 172.794 210.64 173.839C210.64 174.511 210.521 175.198 210.282 175.9C210.058 176.602 209.67 177.251 209.117 177.849C208.58 178.431 207.855 178.909 206.944 179.282C206.034 179.656 204.899 179.857 203.54 179.887V182.351H200.493V179.887C199.12 179.857 197.97 179.656 197.044 179.282C196.133 178.909 195.409 178.424 194.871 177.826C194.333 177.229 193.953 176.587 193.729 175.9C193.505 175.198 193.393 174.511 193.393 173.839C193.393 172.794 193.617 171.831 194.065 170.95C194.528 170.068 195.274 169.352 196.305 168.799C197.35 168.232 198.746 167.926 200.493 167.881V165.91H203.54V167.881ZM200.493 170.524C199.045 170.584 198.029 170.92 197.447 171.532C196.865 172.129 196.573 172.891 196.573 173.817C196.573 174.817 196.887 175.631 197.514 176.258C198.141 176.871 199.134 177.206 200.493 177.266V170.524ZM203.54 177.266C204.914 177.206 205.907 176.871 206.519 176.258C207.146 175.631 207.46 174.817 207.46 173.817C207.46 172.891 207.168 172.129 206.586 171.532C206.019 170.92 205.003 170.584 203.54 170.524V177.266ZM219.602 182.127H216.22V168.956H211.874V166.134H223.948V168.956H219.602V182.127ZM236.068 182.127H226.862V166.134H236.068V168.911H230.244V172.428H235.665V175.205H230.244V179.327H236.068V182.127ZM249.946 166.134V168.934H243.226V182.127H239.844V166.134H249.946ZM261.062 182.127L259.897 178.319H254.073L252.908 182.127H249.257L254.902 166.066H259.046L264.713 182.127H261.062ZM257.926 171.756C257.851 171.502 257.754 171.181 257.635 170.793C257.515 170.404 257.396 170.009 257.276 169.606C257.157 169.202 257.06 168.851 256.985 168.553C256.91 168.851 256.806 169.225 256.671 169.673C256.552 170.106 256.432 170.524 256.313 170.927C256.208 171.315 256.126 171.592 256.067 171.756L254.924 175.474H259.091L257.926 171.756ZM278.229 169.874C278.229 170.95 277.849 171.816 277.087 172.473C276.325 173.13 275.355 173.54 274.175 173.705V173.772C275.639 173.921 276.759 174.332 277.535 175.004C278.327 175.661 278.722 176.52 278.722 177.58C278.722 178.984 278.147 180.133 276.997 181.029C275.863 181.91 274.19 182.351 271.98 182.351C270.77 182.351 269.695 182.276 268.754 182.127C267.829 181.978 267.022 181.761 266.335 181.477V178.633C266.798 178.857 267.321 179.051 267.903 179.215C268.486 179.364 269.075 179.484 269.673 179.573C270.27 179.648 270.823 179.685 271.33 179.685C272.749 179.685 273.772 179.484 274.399 179.081C275.041 178.662 275.362 178.08 275.362 177.333C275.362 176.572 274.899 176.019 273.974 175.676C273.048 175.317 271.801 175.138 270.233 175.138H268.732V172.495H270.076C271.345 172.495 272.331 172.413 273.033 172.249C273.735 172.084 274.227 171.846 274.511 171.532C274.795 171.218 274.937 170.845 274.937 170.412C274.937 169.859 274.69 169.426 274.198 169.113C273.72 168.784 272.995 168.62 272.025 168.62C271.203 168.62 270.427 168.739 269.695 168.978C268.978 169.217 268.306 169.531 267.679 169.919L266.201 167.657C267.022 167.119 267.933 166.694 268.934 166.38C269.934 166.066 271.121 165.91 272.495 165.91C274.302 165.91 275.706 166.283 276.706 167.03C277.722 167.776 278.229 168.724 278.229 169.874ZM282.159 182.127V166.134H294.815V182.127H291.433V168.956H285.542V182.127H282.159ZM304.405 166.134C306.465 166.134 307.966 166.582 308.907 167.478C309.863 168.359 310.341 169.576 310.341 171.129C310.341 172.055 310.146 172.928 309.758 173.749C309.37 174.556 308.72 175.205 307.809 175.698C306.913 176.191 305.689 176.437 304.136 176.437H302.68V182.127H299.298V166.134H304.405ZM304.225 168.911H302.68V173.66H303.8C304.756 173.66 305.51 173.473 306.062 173.1C306.63 172.712 306.913 172.092 306.913 171.241C306.913 169.688 306.017 168.911 304.225 168.911ZM328.326 174.108C328.326 175.765 328.05 177.214 327.497 178.453C326.96 179.678 326.131 180.634 325.011 181.321C323.891 182.007 322.457 182.351 320.71 182.351C318.978 182.351 317.544 182.007 316.409 181.321C315.289 180.634 314.453 179.67 313.901 178.431C313.363 177.192 313.094 175.743 313.094 174.085C313.094 172.428 313.363 170.987 313.901 169.762C314.453 168.538 315.289 167.59 316.409 166.918C317.544 166.231 318.985 165.887 320.732 165.887C322.465 165.887 323.891 166.231 325.011 166.918C326.131 167.59 326.96 168.545 327.497 169.785C328.05 171.009 328.326 172.45 328.326 174.108ZM316.656 174.108C316.656 175.78 316.977 177.102 317.619 178.073C318.261 179.028 319.291 179.506 320.71 179.506C322.159 179.506 323.196 179.028 323.824 178.073C324.451 177.102 324.764 175.78 324.764 174.108C324.764 172.42 324.451 171.099 323.824 170.143C323.196 169.187 322.166 168.71 320.732 168.71C319.299 168.71 318.261 169.187 317.619 170.143C316.977 171.099 316.656 172.42 316.656 174.108ZM341.293 182.127H332.087V166.134H341.293V168.911H335.469V172.428H340.89V175.205H335.469V179.327H341.293V182.127ZM358.106 182.127H354.253L348.451 174.018V182.127H345.069V166.134H348.451V173.884L354.186 166.134H357.792L351.968 173.817L358.106 182.127ZM366.727 182.127H363.344V168.956H358.999V166.134H371.072V168.956H366.727V182.127ZM377.1 176.773L373.919 180.761L372.754 179.977L374.502 176.773L372.754 173.525L373.919 172.764L377.1 176.773ZM377.772 172.764L380.908 176.773L377.772 180.761L376.607 179.977L378.31 176.773L376.607 173.525L377.772 172.764Z" fill="white"/>
<path d="M193.76 0L134.707 33.3972V99.2185L193.278 133.41L253.293 98.3733V33.4997L193.76 0Z" fill="black"/>
<path fill-rule="evenodd" clip-rule="evenodd" d="M251.948 34.2426L193.757 1.51123L136.047 34.1401V98.476L193.301 131.899L251.948 97.6564V34.2426Z" fill="white"/>
<path fill-rule="evenodd" clip-rule="evenodd" d="M250.581 35.0101L193.783 3.02148L137.391 34.9077V97.7324L193.302 130.361L250.581 96.9385V35.0101Z" fill="#CC0A0A"/>
<path fill-rule="evenodd" clip-rule="evenodd" d="M191.047 25.791C190.388 28.2753 188.894 27.7631 187.652 32.1939C187.222 33.7562 177.088 40.2102 177.088 49.6608C177.088 51.5561 176.379 54.7831 176.379 57.9077C176.379 63.1068 177.544 60.4433 178.862 64.3106C178.862 64.3362 181.268 66.8973 181.572 66.9229C182.206 66.9998 184.916 70.739 188.26 67.4864C188.944 66.8205 192.592 49.1486 192.618 48.662C192.77 46.9973 193.074 29.4278 191.376 27.6606C190.996 27.2765 190.895 26.3289 191.047 25.791Z" fill="#11D6D6"/>
<path d="M191.047 25.791C190.388 28.2753 188.894 27.7631 187.652 32.1939C187.222 33.7562 177.088 40.2102 177.088 49.6608C177.088 51.5561 176.379 54.7831 176.379 57.9077C176.379 63.1068 177.544 60.4433 178.862 64.3106C178.862 64.3362 181.268 66.8973 181.572 66.9229C182.206 66.9998 184.916 70.739 188.26 67.4864C188.944 66.8205 192.592 49.1486 192.618 48.662C192.77 46.9973 193.074 29.4278 191.376 27.6606C190.996 27.2765 190.895 26.3289 191.047 25.791Z" stroke="black" stroke-width="1.12971" stroke-miterlimit="22.926"/>
<path fill-rule="evenodd" clip-rule="evenodd" d="M188.438 42.2328C187.248 43.4878 187.02 49.5064 186.766 51.1456C186.31 54.0909 185.804 56.6264 184.79 59.418C184.233 60.9547 184.436 61.6462 184.208 63.1829C184.106 63.8744 183.929 66.9222 184.36 67.4344C184.664 67.7929 184.056 68.1259 185.525 68.6637C186.006 68.843 185.246 69.0735 186.538 69.637C188.97 70.687 192.036 70.687 194.721 70.7126C194.974 70.7126 197.28 69.9187 198.622 69.9443C201.308 69.9699 199.686 69.5345 202.042 68.7149C202.372 68.6125 204.576 66.8197 206.07 66.2563C207.489 65.7184 207.413 63.5927 208.553 62.5938C209.794 61.4926 211.948 57.1898 211.948 55.6019C211.948 54.2189 212.632 47.9442 211.695 47.1246C210.453 46.0489 211.289 43.2317 209.541 42.0023C208.908 41.5669 209.896 41.4389 208.274 40.4144C206.957 39.5949 206.349 36.8032 205.285 36.291C202.98 35.1897 203.284 35.2665 200.117 36.3166C198.977 36.7008 195.05 37.6484 194.341 38.3655C191.529 41.2852 190.896 39.6205 188.438 42.2328Z" fill="#11D6D6"/>
<path fill-rule="evenodd" clip-rule="evenodd" d="M187.398 28.0967L188.462 27.5332C189.475 26.8417 188.918 26.1246 190.21 24.4855C190.641 23.9476 191.679 21.7707 193.883 21.8219C195.935 22.078 194.086 21.8987 195.099 22.6415C196.011 23.3074 195.581 22.8207 196.062 22.4366C196.163 23.7427 195.935 23.2817 197.202 23.8452L193.351 14.7275C193.123 15.0861 192.287 19.0559 190.97 21.6938C189.982 23.6403 187.955 26.4063 187.398 28.0967ZM200.445 45.4356L200.495 45.8966C201.154 46.4856 200.774 45.3331 201.23 46.5625C201.331 44.7441 201.585 44.2831 201.433 42.7208C201.179 40.3389 201.61 40.3133 199.811 38.0083L198.95 36.9838C197.683 35.3191 196.999 36.3179 196.467 33.7568C195.15 34.141 196.011 33.68 195.226 34.5764C194.821 33.6287 195.53 34.2178 194.593 33.7056C193.529 33.1165 191.73 33.6543 190.767 34.0641C190.413 35.191 190.717 34.4483 190.717 35.652C189.881 35.8825 190.286 35.8057 189.653 36.1643L187.677 37.4961C186.942 38.1876 187.119 38.29 186.131 38.9303C184.206 40.2109 185.777 40.3645 185.599 41.5427C185.194 42.5927 185.599 41.2353 185.067 42.2342C184.662 43.0025 184.966 42.6439 184.687 43.2586C184.434 43.8733 183.927 44.0013 183.649 44.616C183.395 45.1539 182.939 48.3297 182.939 49.1748L183.927 49.7127C183.927 51.8128 184.13 50.4298 183.826 52.2482C183.319 55.2191 185.067 57.7547 187.905 57.729C188.31 57.2168 188.335 56.6021 188.411 55.9619C189.171 55.9362 189.906 55.7826 190.615 55.5777C192.237 55.1167 192.059 54.8093 192.667 54.2715L193.275 53.8361C193.326 53.8105 193.402 53.7593 193.453 53.7337L194.415 53.0678C196.467 51.736 195.403 53.4519 196.645 51.7104C196.67 51.6848 196.923 51.2238 196.949 51.1725C198.19 48.7138 197.455 50.4042 198.266 49.2517C198.317 49.2005 198.342 49.1236 198.367 49.0724C199.507 47.254 198.215 48.5602 199.735 47.6382L199.457 44.5136C199.609 43.5916 199.279 44.2062 199.862 43.5916C200.115 44.2831 200.369 44.5904 200.445 45.4356ZM191.046 28.4296C186.207 38.3925 176.986 43.0537 180.533 54.8093C181.293 57.3705 183.877 62.0061 185.878 62.3391C186.815 62.8001 186.233 62.6464 187.17 62.8257L187.449 62.544C188.437 61.4939 188.918 60.8024 190.362 60.0597C191.071 59.906 191.907 58.6767 193.833 57.5242C199.609 54.041 200.217 52.8117 200.191 46.6905C200.191 45.3331 200.318 45.6149 200.47 45.4356C200.394 44.5648 200.141 44.2831 199.963 43.5916C199.381 44.2062 199.71 43.5916 199.558 44.5136L199.837 47.6382C198.317 48.5602 199.583 47.2284 198.469 49.0724C198.443 49.1236 198.393 49.2005 198.367 49.2517C197.557 50.4042 198.266 48.7138 197.05 51.1725C197.025 51.2238 196.771 51.6591 196.746 51.7104C195.505 53.4519 196.569 51.7104 194.517 53.0678L193.554 53.7337C193.503 53.7593 193.427 53.8105 193.377 53.8361L192.769 54.2715C192.161 54.8093 192.338 55.1167 190.717 55.5777C190.007 55.7826 189.273 55.9362 188.513 55.9619C188.462 56.6021 188.411 57.2168 188.006 57.729C185.169 57.7547 183.421 55.2191 183.927 52.2482C184.231 50.4298 184.029 51.8128 184.029 49.7127L183.041 49.1748C183.041 48.3297 183.497 45.1795 183.75 44.616C184.029 44.0013 184.535 43.8733 184.789 43.2586C185.042 42.6439 184.738 43.0025 185.169 42.2342C185.726 41.2353 185.321 42.5927 185.701 41.5427C185.878 40.3645 184.307 40.2109 186.233 38.9303C187.195 38.29 187.018 38.1876 187.778 37.4961L189.754 36.1643C190.387 35.7801 189.957 35.8825 190.818 35.652C190.818 34.4483 190.514 35.191 190.869 34.0641C191.831 33.6543 193.63 33.1165 194.694 33.7056C195.631 34.2178 194.897 33.6287 195.327 34.5764C196.113 33.7056 195.251 34.141 196.569 33.7568C197.101 36.3179 197.81 35.3191 199.051 36.9838L199.913 38.0083C201.711 40.3133 201.281 40.3389 201.534 42.7208C201.686 44.3087 201.433 44.7441 201.331 46.5625C200.875 45.3331 201.255 46.4856 200.597 45.8966L201.382 49.5846L203.763 48.637C204.295 47.7918 204.194 47.0491 204.346 46.921L204.397 46.8954H204.473C205.714 46.4088 205.359 45.9222 205.182 44.5136C205.359 42.6952 204.143 41.5939 204.093 40.467C204.067 39.7499 204.017 40.2877 204.194 39.9804C206.93 45.1795 207.285 48.2784 206.879 54.9118C209.058 51.2494 206.803 40.8511 204.878 38.2644C203.586 37.0094 204.245 37.1119 203.738 36.0106C203.282 35.0118 202.978 35.4471 202.319 34.1922C201.382 32.3738 201.838 33.0653 200.191 31.6823C199.989 31.503 199.533 31.0932 199.381 30.8883C198.545 29.7614 199.279 30.0175 198.165 29.0955L196.062 27.1491C195.074 26.0478 194.01 25.2282 192.515 25.177C192.135 26.3295 192.161 27.6613 191.046 28.4296ZM187.398 28.0967C186.714 28.6345 184.333 32.5274 183.37 33.8848C178.658 40.4414 173.667 45.3844 174.478 55.1423C174.984 61.0585 177.923 65.1563 181.799 67.9224C195.125 77.4498 217.976 66.8979 212.909 47.5869C211.085 40.6206 205.182 34.7812 200.977 29.4797C200.293 28.6345 199.583 27.6357 198.95 26.6112C198.443 25.7917 197.759 24.4086 197.202 23.8196C195.935 23.2561 196.189 23.7427 196.062 22.411C195.606 22.7951 196.037 23.2817 195.099 22.6158C194.086 21.8731 195.935 22.0524 193.883 21.7963C191.679 21.7451 190.641 23.922 190.21 24.4599C188.918 26.099 189.475 26.8161 188.462 27.5076L187.398 28.0967ZM207.766 40.3133C208.855 42.4647 209.565 42.1061 210.73 46.7674C212.757 54.8606 209.235 63.5172 202.497 67.4357C195.505 71.508 187.043 71.7385 181.191 64.9515C180 63.5684 177.999 60.6231 177.72 58.3949C178.962 60.5975 179.57 62.4928 181.343 64.2599C187.398 70.3554 194.187 71.047 201.939 66.7955C210.882 61.9293 212.858 49.2005 207.766 40.3133ZM201.281 49.5846C201.863 54.1947 201.129 58.7279 199.026 61.7244C197.455 63.9782 191.679 67.0004 189.526 63.3379C189.273 61.8269 189.881 61.0585 190.337 60.0597C188.918 60.8024 188.411 61.4939 187.423 62.544L187.145 62.8257C186.233 62.6464 186.815 62.8001 185.853 62.3391C186.41 63.3635 186.03 62.5952 187.221 63.6453L187.55 64.0038C181.597 62.3391 176.403 53.119 179.671 44.949C180.381 43.1818 181.242 41.85 182.179 40.3645C182.661 39.5962 183.091 39.1096 183.725 38.3925C186.106 35.6776 189.805 31.2469 191.071 28.0711L191.021 28.4552C192.135 27.6869 192.11 26.3551 192.465 25.177C193.959 25.2026 195.023 26.0478 196.011 27.1491L198.114 29.0955C199.229 30.0175 198.494 29.7614 199.33 30.8883C199.482 31.0932 199.913 31.503 200.141 31.6823C201.762 33.0909 201.331 32.3738 202.269 34.1922C202.902 35.4471 203.231 35.0118 203.687 36.0106C204.194 37.1119 203.535 37.0094 204.827 38.2644L204.751 37.6497C210.021 45.9478 211.566 53.7849 204.751 61.7756C199.71 67.6919 187.981 69.2798 182.458 61.8013C183.953 63.4148 187.398 65.2588 190.691 65.5149C201.99 66.4369 206.601 55.5777 205.841 46.9979L205.385 44.9234C205.359 44.8721 205.283 44.8465 205.258 44.7185C205.233 44.616 205.182 44.5904 205.131 44.5136C205.309 45.8966 205.663 46.4088 204.422 46.8954H204.346L204.295 46.921C204.143 47.0747 204.245 47.8174 203.713 48.637L201.281 49.5846Z" fill="black"/>
<path fill-rule="evenodd" clip-rule="evenodd" d="M191.047 25.791C190.388 28.2753 188.894 27.7631 187.652 32.1939C187.222 33.7562 177.088 40.2102 177.088 49.6608C177.088 51.5561 176.379 54.7831 176.379 57.9077C176.379 63.1068 177.544 60.4433 178.862 64.3106C178.862 64.3362 181.268 66.8973 181.572 66.9229C182.206 66.9998 184.916 70.739 188.26 67.4864C188.944 66.8205 192.592 49.1486 192.618 48.662C192.77 46.9973 193.074 29.4278 191.376 27.6606C190.996 27.2765 190.895 26.3289 191.047 25.791Z" fill="white"/>
<path d="M191.047 25.791C190.388 28.2753 188.894 27.7631 187.652 32.1939C187.222 33.7562 177.088 40.2102 177.088 49.6608C177.088 51.5561 176.379 54.7831 176.379 57.9077C176.379 63.1068 177.544 60.4433 178.862 64.3106C178.862 64.3362 181.268 66.8973 181.572 66.9229C182.206 66.9998 184.916 70.739 188.26 67.4864C188.944 66.8205 192.592 49.1486 192.618 48.662C192.77 46.9973 193.074 29.4278 191.376 27.6606C190.996 27.2765 190.895 26.3289 191.047 25.791Z" stroke="black" stroke-width="1.12971" stroke-miterlimit="22.926"/>
<path fill-rule="evenodd" clip-rule="evenodd" d="M188.438 42.2328C187.248 43.4878 187.02 49.5064 186.766 51.1456C186.31 54.0909 185.804 56.6264 184.79 59.418C184.233 60.9547 184.436 61.6462 184.208 63.1829C184.106 63.8744 183.929 66.9222 184.36 67.4344C184.664 67.7929 184.056 68.1259 185.525 68.6637C186.006 68.843 185.246 69.0735 186.538 69.637C188.97 70.687 192.036 70.687 194.721 70.7126C194.974 70.7126 197.28 69.9187 198.622 69.9443C201.308 69.9699 199.686 69.5345 202.042 68.7149C202.372 68.6125 204.576 66.8197 206.07 66.2563C207.489 65.7184 207.413 63.5927 208.553 62.5938C209.794 61.4926 211.948 57.1898 211.948 55.6019C211.948 54.2189 212.632 47.9442 211.695 47.1246C210.453 46.0489 211.289 43.2317 209.541 42.0023C208.908 41.5669 209.896 41.4389 208.274 40.4144C206.957 39.5949 206.349 36.8032 205.285 36.291C202.98 35.1897 203.284 35.2665 200.117 36.3166C198.977 36.7008 195.05 37.6484 194.341 38.3655C191.529 41.2852 190.896 39.6205 188.438 42.2328Z" fill="white"/>
<path fill-rule="evenodd" clip-rule="evenodd" d="M187.398 28.0967L188.462 27.5332C189.475 26.8417 188.918 26.1246 190.21 24.4855C190.641 23.9476 191.679 21.7707 193.883 21.8219C195.935 22.078 194.086 21.8987 195.099 22.6415C196.011 23.3074 195.581 22.8207 196.062 22.4366C196.163 23.7427 195.935 23.2817 197.202 23.8452L193.351 14.7275C193.123 15.0861 192.287 19.0559 190.97 21.6938C189.982 23.6403 187.955 26.4063 187.398 28.0967ZM200.445 45.4356L200.495 45.8966C201.154 46.4856 200.774 45.3331 201.23 46.5625C201.331 44.7441 201.585 44.2831 201.433 42.7208C201.179 40.3389 201.61 40.3133 199.811 38.0083L198.95 36.9838C197.683 35.3191 196.999 36.3179 196.467 33.7568C195.15 34.141 196.011 33.68 195.226 34.5764C194.821 33.6287 195.53 34.2178 194.593 33.7056C193.529 33.1165 191.73 33.6543 190.767 34.0641C190.413 35.191 190.717 34.4483 190.717 35.652C189.881 35.8825 190.286 35.8057 189.653 36.1643L187.677 37.4961C186.942 38.1876 187.119 38.29 186.131 38.9303C184.206 40.2109 185.777 40.3645 185.599 41.5426C185.194 42.5927 185.599 41.2353 185.067 42.2342C184.662 43.0025 184.966 42.6439 184.687 43.2586C184.434 43.8733 183.927 44.0013 183.649 44.616C183.395 45.1539 182.939 48.3297 182.939 49.1748L183.927 49.7127C183.927 51.8128 184.13 50.4298 183.826 52.2482C183.319 55.2191 185.067 57.7546 187.905 57.729C188.31 57.2168 188.335 56.6021 188.411 55.9619C189.171 55.9362 189.906 55.7826 190.615 55.5777C192.237 55.1167 192.059 54.8093 192.667 54.2715L193.275 53.8361C193.326 53.8105 193.402 53.7593 193.453 53.7337L194.415 53.0678C196.467 51.736 195.403 53.4519 196.645 51.7104C196.67 51.6848 196.923 51.2238 196.949 51.1725C198.19 48.7138 197.455 50.4042 198.266 49.2517C198.317 49.2005 198.342 49.1236 198.367 49.0724C199.507 47.254 198.215 48.5602 199.735 47.6382L199.457 44.5136C199.609 43.5916 199.279 44.2062 199.862 43.5916C200.115 44.2831 200.369 44.5904 200.445 45.4356ZM191.046 28.4296C186.207 38.3925 176.986 43.0537 180.533 54.8093C181.293 57.3705 183.877 62.0061 185.878 62.3391C186.815 62.8001 186.233 62.6464 187.17 62.8257L187.449 62.544C188.437 61.4939 188.918 60.8024 190.362 60.0597C191.071 59.906 191.907 58.6767 193.833 57.5241C199.609 54.041 200.217 52.8117 200.191 46.6905C200.191 45.3331 200.318 45.6149 200.47 45.4356C200.394 44.5648 200.141 44.2831 199.963 43.5916C199.381 44.2062 199.71 43.5916 199.558 44.5136L199.837 47.6382C198.317 48.5602 199.583 47.2284 198.469 49.0724C198.443 49.1236 198.393 49.2005 198.367 49.2517C197.557 50.4042 198.266 48.7138 197.05 51.1725C197.025 51.2238 196.771 51.6591 196.746 51.7104C195.505 53.4519 196.569 51.7104 194.517 53.0678L193.554 53.7337C193.503 53.7593 193.427 53.8105 193.377 53.8361L192.769 54.2715C192.161 54.8093 192.338 55.1167 190.717 55.5777C190.007 55.7826 189.273 55.9362 188.513 55.9619C188.462 56.6021 188.411 57.2168 188.006 57.729C185.169 57.7546 183.421 55.2191 183.927 52.2482C184.231 50.4298 184.029 51.8128 184.029 49.7127L183.041 49.1748C183.041 48.3297 183.497 45.1795 183.75 44.616C184.029 44.0013 184.535 43.8733 184.789 43.2586C185.042 42.6439 184.738 43.0025 185.169 42.2342C185.726 41.2353 185.321 42.5927 185.701 41.5426C185.878 40.3645 184.307 40.2109 186.233 38.9303C187.195 38.29 187.018 38.1876 187.778 37.4961L189.754 36.1643C190.387 35.7801 189.957 35.8825 190.818 35.652C190.818 34.4483 190.514 35.191 190.869 34.0641C191.831 33.6543 193.63 33.1165 194.694 33.7056C195.631 34.2178 194.897 33.6287 195.327 34.5764C196.113 33.7056 195.251 34.141 196.569 33.7568C197.101 36.3179 197.81 35.3191 199.051 36.9838L199.913 38.0083C201.711 40.3133 201.281 40.3389 201.534 42.7208C201.686 44.3087 201.433 44.7441 201.331 46.5625C200.875 45.3331 201.255 46.4856 200.597 45.8966L201.382 49.5846L203.763 48.637C204.295 47.7918 204.194 47.0491 204.346 46.921L204.397 46.8954H204.473C205.714 46.4088 205.359 45.9222 205.182 44.5136C205.359 42.6952 204.143 41.5939 204.093 40.467C204.067 39.7499 204.017 40.2877 204.194 39.9804C206.93 45.1795 207.285 48.2784 206.879 54.9118C209.058 51.2494 206.803 40.8511 204.878 38.2644C203.586 37.0094 204.245 37.1119 203.738 36.0106C203.282 35.0117 202.978 35.4471 202.319 34.1922C201.382 32.3738 201.838 33.0653 200.191 31.6823C199.989 31.503 199.533 31.0932 199.381 30.8883C198.545 29.7614 199.279 30.0175 198.165 29.0955L196.062 27.1491C195.074 26.0478 194.01 25.2282 192.515 25.177C192.135 26.3295 192.161 27.6613 191.046 28.4296ZM187.398 28.0967C186.714 28.6345 184.333 32.5274 183.37 33.8848C178.658 40.4414 173.667 45.3844 174.478 55.1423C174.984 61.0585 177.923 65.1563 181.799 67.9224C195.125 77.4498 217.976 66.8979 212.909 47.5869C211.085 40.6206 205.182 34.7812 200.977 29.4797C200.293 28.6345 199.583 27.6357 198.95 26.6112C198.443 25.7917 197.759 24.4086 197.202 23.8196C195.935 23.2561 196.189 23.7427 196.062 22.411C195.606 22.7951 196.037 23.2817 195.099 22.6158C194.086 21.8731 195.935 22.0524 193.883 21.7963C191.679 21.7451 190.641 23.922 190.21 24.4599C188.918 26.099 189.475 26.8161 188.462 27.5076L187.398 28.0967ZM207.766 40.3133C208.855 42.4647 209.565 42.1061 210.73 46.7674C212.757 54.8606 209.235 63.5172 202.497 67.4357C195.505 71.508 187.043 71.7385 181.191 64.9514C180 63.5684 177.999 60.6231 177.72 58.3949C178.962 60.5975 179.57 62.4928 181.343 64.2599C187.398 70.3554 194.187 71.047 201.939 66.7955C210.882 61.9293 212.858 49.2005 207.766 40.3133ZM201.281 49.5846C201.863 54.1947 201.129 58.7279 199.026 61.7244C197.455 63.9782 191.679 67.0004 189.526 63.3379C189.273 61.8269 189.881 61.0585 190.337 60.0597C188.918 60.8024 188.411 61.4939 187.423 62.544L187.145 62.8257C186.233 62.6464 186.815 62.8001 185.853 62.3391C186.41 63.3635 186.03 62.5952 187.221 63.6453L187.55 64.0038C181.597 62.3391 176.403 53.119 179.671 44.949C180.381 43.1818 181.242 41.85 182.179 40.3645C182.661 39.5962 183.091 39.1096 183.725 38.3924C186.106 35.6776 189.805 31.2469 191.071 28.0711L191.021 28.4552C192.135 27.6869 192.11 26.3551 192.465 25.177C193.959 25.2026 195.023 26.0478 196.011 27.1491L198.114 29.0955C199.229 30.0175 198.494 29.7614 199.33 30.8883C199.482 31.0932 199.913 31.503 200.141 31.6823C201.762 33.0909 201.331 32.3738 202.269 34.1922C202.902 35.4471 203.231 35.0117 203.687 36.0106C204.194 37.1119 203.535 37.0094 204.827 38.2644L204.751 37.6497C210.021 45.9478 211.566 53.7849 204.751 61.7756C199.71 67.6919 187.981 69.2798 182.458 61.8012C183.953 63.4148 187.398 65.2588 190.691 65.5149C201.99 66.4369 206.601 55.5777 205.841 46.9979L205.385 44.9234C205.359 44.8721 205.283 44.8465 205.258 44.7185C205.233 44.616 205.182 44.5904 205.131 44.5136C205.309 45.8966 205.663 46.4088 204.422 46.8954H204.346L204.295 46.921C204.143 47.0747 204.245 47.8174 203.713 48.637L201.281 49.5846Z" fill="black"/>
<path d="M172.177 100.215H168.148V91.9968H160.597V100.215H156.568V81.1639H160.597V88.6349H168.148V81.1639H172.177V100.215ZM194.181 100.215H190.152V91.9968H182.601V100.215H178.572V81.1639H182.601V88.6349H190.152V81.1639H194.181V100.215ZM212.608 81.1639V84.4992H204.604V100.215H200.575V81.1639H212.608ZM217.132 100.215V81.1639H232.208V100.215H228.179V84.5259H221.161V100.215H217.132Z" fill="white"/>
</svg>
