<svg width="63" height="70" viewBox="0 0 63 70" fill="none" xmlns="http://www.w3.org/2000/svg">
<path d="M31.4327 0.734595L61.6651 17.8809V51.0596L31.1889 69.0015L1.45459 51.4996V17.8248L31.4327 0.734595Z" fill="#2A292E" stroke="white" stroke-width="1.5"/>
<path fill-rule="evenodd" clip-rule="evenodd" d="M29.5626 13.5325C29.217 14.836 28.4327 14.5672 27.7814 16.892C27.5554 17.7118 22.2384 21.0982 22.2384 26.057C22.2384 27.0514 21.8662 28.7446 21.8662 30.3841C21.8662 33.1121 22.4777 31.7145 23.1689 33.7437C23.1689 33.7571 24.4317 35.1009 24.5912 35.1144C24.9235 35.1547 26.3458 37.1167 28.1004 35.41C28.4593 35.0606 30.3734 25.7882 30.3867 25.5329C30.4664 24.6594 30.626 15.4407 29.7354 14.5135C29.536 14.3119 29.4828 13.8147 29.5626 13.5325Z" fill="white"/>
<path d="M29.5626 13.5325C29.217 14.836 28.4327 14.5672 27.7814 16.892C27.5554 17.7118 22.2384 21.0982 22.2384 26.057C22.2384 27.0514 21.8662 28.7446 21.8662 30.3841C21.8662 33.1121 22.4777 31.7145 23.1689 33.7437C23.1689 33.7571 24.4317 35.1009 24.5912 35.1144C24.9235 35.1547 26.3458 37.1167 28.1004 35.41C28.4593 35.0606 30.3734 25.7882 30.3867 25.5329C30.4664 24.6594 30.626 15.4407 29.7354 14.5135C29.536 14.3119 29.4828 13.8147 29.5626 13.5325Z" stroke="white" stroke-width="0.573" stroke-miterlimit="22.926"/>
<mask id="path-4-outside-1" maskUnits="userSpaceOnUse" x="19.8237" y="4.72705" width="23" height="34" fill="black">
<rect fill="white" x="19.8237" y="4.72705" width="23" height="34"/>
<path fill-rule="evenodd" clip-rule="evenodd" d="M27.6486 14.7418L28.2069 14.4462C28.7386 14.0834 28.4462 13.7071 29.1241 12.847C29.3501 12.5648 29.8951 11.4226 31.0515 11.4495C32.1282 11.5838 31.1579 11.4898 31.6896 11.8795C32.1681 12.2289 31.9421 11.9735 32.1947 11.772C32.2478 12.4573 32.1282 12.2154 32.7928 12.5111L30.7724 7.72705C30.6527 7.91519 30.2141 9.99812 29.5229 11.3823C29.0045 12.4036 27.9411 13.8549 27.6486 14.7418ZM34.4943 23.8395L34.5209 24.0814C34.8665 24.3905 34.6671 23.7858 34.9064 24.4308C34.9595 23.4767 35.0924 23.2348 35.0127 22.4151C34.8798 21.1653 35.1057 21.1519 34.162 19.9424L33.71 19.4049C33.0454 18.5314 32.6865 19.0555 32.4074 17.7117C31.7162 17.9133 32.1681 17.6714 31.756 18.1417C31.5433 17.6445 31.9155 17.9536 31.4237 17.6848C30.8654 17.3757 29.9217 17.6579 29.4165 17.8729C29.2305 18.4642 29.39 18.0745 29.39 18.7061C28.9513 18.8271 29.164 18.7867 28.8317 18.9749L27.7949 19.6737C27.4094 20.0365 27.5024 20.0903 26.984 20.4262C25.9738 21.0981 26.7979 21.1788 26.7049 21.7969C26.4922 22.3479 26.7049 21.6357 26.4257 22.1598C26.2131 22.5629 26.3726 22.3748 26.2263 22.6973C26.0934 23.0198 25.8276 23.087 25.6814 23.4095C25.5484 23.6917 25.3092 25.3581 25.3092 25.8015L25.8276 26.0837C25.8276 27.1857 25.9339 26.46 25.7744 27.4141C25.5085 28.973 26.4257 30.3033 27.9145 30.2899C28.1272 30.0211 28.1405 29.6986 28.1803 29.3627C28.5791 29.3492 28.9646 29.2686 29.3368 29.1611C30.1875 28.9192 30.0945 28.7579 30.4135 28.4757L30.7325 28.2473C30.7591 28.2339 30.799 28.207 30.8256 28.1935L31.3307 27.8441C32.4074 27.1454 31.8491 28.0457 32.5004 27.1319C32.5137 27.1185 32.6466 26.8766 32.6599 26.8497C33.3113 25.5596 32.9258 26.4466 33.3511 25.8418C33.3777 25.815 33.391 25.7747 33.4043 25.7478C34.0025 24.7937 33.3245 25.479 34.1221 24.9952L33.9759 23.3558C34.0556 22.872 33.8828 23.1945 34.1886 22.872C34.3215 23.2348 34.4544 23.3961 34.4943 23.8395ZM29.5628 14.9165C27.0239 20.144 22.1854 22.5898 24.0464 28.7579C24.4451 30.1018 25.801 32.5341 26.8511 32.7088C27.3429 32.9507 27.0372 32.8701 27.529 32.9641L27.6752 32.8163C28.1936 32.2653 28.4462 31.9025 29.2039 31.5128C29.5761 31.4322 30.0147 30.7871 31.0249 30.1824C34.0556 28.3548 34.3747 27.7098 34.3614 24.498C34.3614 23.7858 34.4278 23.9336 34.5076 23.8395C34.4677 23.3826 34.3348 23.2348 34.2417 22.872C33.936 23.1945 34.1088 22.872 34.029 23.3558L34.1753 24.9952C33.3777 25.479 34.0423 24.7802 33.4575 25.7478C33.4442 25.7747 33.4176 25.815 33.4043 25.8418C32.9789 26.4466 33.3511 25.5596 32.7131 26.8497C32.6998 26.8766 32.5669 27.105 32.5536 27.1319C31.9022 28.0457 32.4605 27.1319 31.3838 27.8441L30.8787 28.1935C30.8521 28.207 30.8123 28.2339 30.7857 28.2473L30.4667 28.4757C30.1476 28.7579 30.2407 28.9192 29.39 29.1611C29.0178 29.2686 28.6323 29.3492 28.2335 29.3627C28.2069 29.6986 28.1803 30.0211 27.9677 30.2899C26.4789 30.3033 25.5617 28.973 25.8276 27.4141C25.9871 26.46 25.8807 27.1857 25.8807 26.0837L25.3623 25.8015C25.3623 25.3581 25.6016 23.7052 25.7345 23.4095C25.8807 23.087 26.1466 23.0198 26.2795 22.6973C26.4124 22.3748 26.2529 22.5629 26.4789 22.1598C26.7713 21.6357 26.5587 22.3479 26.758 21.7969C26.8511 21.1788 26.027 21.0981 27.0372 20.4262C27.5423 20.0903 27.4493 20.0365 27.848 19.6737L28.8848 18.9749C29.2172 18.7733 28.9912 18.8271 29.4431 18.7061C29.4431 18.0745 29.2836 18.4642 29.4697 17.8729C29.9748 17.6579 30.9186 17.3757 31.4769 17.6848C31.9687 17.9536 31.5832 17.6445 31.8092 18.1417C32.2213 17.6848 31.7693 17.9133 32.4605 17.7117C32.7397 19.0555 33.1119 18.5314 33.7632 19.4049L34.2151 19.9424C35.1589 21.1519 34.9329 21.1653 35.0659 22.4151C35.1456 23.2483 35.0127 23.4767 34.9595 24.4308C34.7203 23.7858 34.9196 24.3905 34.574 24.0814L34.9861 26.0165L36.2356 25.5193C36.5147 25.0759 36.4616 24.6861 36.5413 24.619L36.5679 24.6055H36.6078C37.2591 24.3502 37.073 24.0949 36.98 23.3558C37.073 22.4016 36.435 21.8238 36.4084 21.2325C36.3951 20.8562 36.3685 21.1384 36.4616 20.9772C37.8972 23.7052 38.0833 25.3312 37.8706 28.8117C39.0137 26.89 37.8307 21.4341 36.8205 20.0768C36.1426 19.4183 36.4882 19.4721 36.2223 18.8943C35.983 18.3702 35.8235 18.5986 35.4779 17.9401C34.9861 16.986 35.2254 17.3489 34.3614 16.6232C34.255 16.5291 34.0158 16.3141 33.936 16.2066C33.4973 15.6153 33.8828 15.7497 33.298 15.2659L32.1947 14.2446C31.6763 13.6668 31.118 13.2367 30.3337 13.2099C30.1343 13.8146 30.1476 14.5134 29.5628 14.9165ZM27.6486 14.7418C27.2897 15.024 26.0402 17.0667 25.5351 17.7789C23.0627 21.2191 20.4441 23.8127 20.8695 28.9326C21.1353 32.0369 22.6772 34.187 24.711 35.6383C31.7029 40.6374 43.6927 35.1008 41.0342 24.9684C40.0771 21.3131 36.98 18.2492 34.7734 15.4675C34.4145 15.024 34.0423 14.4999 33.71 13.9624C33.4442 13.5324 33.0853 12.8067 32.7928 12.4976C32.1282 12.202 32.2611 12.4573 32.1947 11.7585C31.9554 11.9601 32.1814 12.2154 31.6896 11.866C31.1579 11.4763 32.1282 11.5704 31.0515 11.436C29.8951 11.4091 29.3501 12.5514 29.1241 12.8336C28.4462 13.6936 28.7386 14.0699 28.2069 14.4327L27.6486 14.7418ZM38.3358 21.1519C38.9074 22.2807 39.2796 22.0926 39.891 24.5383C40.9544 28.7848 39.1068 33.327 35.571 35.383C31.9022 37.5197 27.4625 37.6406 24.392 34.0795C23.7672 33.3538 22.7171 31.8084 22.5709 30.6393C23.2222 31.795 23.5413 32.7894 24.4717 33.7167C27.6486 36.915 31.211 37.2778 35.2785 35.0471C39.9708 32.4938 41.0076 25.815 38.3358 21.1519ZM34.9329 26.0165C35.2387 28.4354 34.8532 30.814 33.7499 32.3863C32.9258 33.5688 29.8951 35.1546 28.7652 33.2329C28.6323 32.44 28.9513 32.0369 29.1906 31.5128C28.4462 31.9025 28.1803 32.2653 27.6619 32.8163L27.5157 32.9641C27.0372 32.8701 27.3429 32.9507 26.8378 32.7088C27.1302 33.2463 26.9308 32.8432 27.5556 33.3942L27.7284 33.5823C24.6047 32.7088 21.8797 27.871 23.5944 23.5842C23.9666 22.657 24.4186 21.9582 24.9104 21.1788C25.1629 20.7756 25.3889 20.5203 25.7212 20.144C26.9707 18.7196 28.9114 16.3947 29.5761 14.7284L29.5495 14.93C30.1343 14.5268 30.121 13.828 30.3071 13.2099C31.0914 13.2233 31.6497 13.6668 32.1681 14.2446L33.2714 15.2659C33.8562 15.7497 33.4708 15.6153 33.9094 16.2066C33.9892 16.3141 34.2151 16.5291 34.3348 16.6232C35.1855 17.3623 34.9595 16.986 35.4513 17.9401C35.7837 18.5986 35.9565 18.3702 36.1957 18.8943C36.4616 19.4721 36.116 19.4183 36.7939 20.0768L36.754 19.7543C39.5189 24.1083 40.3297 28.2204 36.754 32.4132C34.1088 35.5174 27.9544 36.3506 25.0566 32.4266C25.8409 33.2732 27.6486 34.2408 29.3767 34.3751C35.3051 34.8589 37.7244 29.1611 37.3256 24.6593L37.0863 23.5708C37.073 23.5439 37.0332 23.5305 37.0199 23.4633C37.0066 23.4095 36.98 23.3961 36.9534 23.3558C37.0464 24.0814 37.2325 24.3502 36.5812 24.6055H36.5413L36.5147 24.619C36.435 24.6996 36.4882 25.0893 36.209 25.5193L34.9329 26.0165Z"/>
</mask>
<path fill-rule="evenodd" clip-rule="evenodd" d="M27.6486 14.7418L28.2069 14.4462C28.7386 14.0834 28.4462 13.7071 29.1241 12.847C29.3501 12.5648 29.8951 11.4226 31.0515 11.4495C32.1282 11.5838 31.1579 11.4898 31.6896 11.8795C32.1681 12.2289 31.9421 11.9735 32.1947 11.772C32.2478 12.4573 32.1282 12.2154 32.7928 12.5111L30.7724 7.72705C30.6527 7.91519 30.2141 9.99812 29.5229 11.3823C29.0045 12.4036 27.9411 13.8549 27.6486 14.7418ZM34.4943 23.8395L34.5209 24.0814C34.8665 24.3905 34.6671 23.7858 34.9064 24.4308C34.9595 23.4767 35.0924 23.2348 35.0127 22.4151C34.8798 21.1653 35.1057 21.1519 34.162 19.9424L33.71 19.4049C33.0454 18.5314 32.6865 19.0555 32.4074 17.7117C31.7162 17.9133 32.1681 17.6714 31.756 18.1417C31.5433 17.6445 31.9155 17.9536 31.4237 17.6848C30.8654 17.3757 29.9217 17.6579 29.4165 17.8729C29.2305 18.4642 29.39 18.0745 29.39 18.7061C28.9513 18.8271 29.164 18.7867 28.8317 18.9749L27.7949 19.6737C27.4094 20.0365 27.5024 20.0903 26.984 20.4262C25.9738 21.0981 26.7979 21.1788 26.7049 21.7969C26.4922 22.3479 26.7049 21.6357 26.4257 22.1598C26.2131 22.5629 26.3726 22.3748 26.2263 22.6973C26.0934 23.0198 25.8276 23.087 25.6814 23.4095C25.5484 23.6917 25.3092 25.3581 25.3092 25.8015L25.8276 26.0837C25.8276 27.1857 25.9339 26.46 25.7744 27.4141C25.5085 28.973 26.4257 30.3033 27.9145 30.2899C28.1272 30.0211 28.1405 29.6986 28.1803 29.3627C28.5791 29.3492 28.9646 29.2686 29.3368 29.1611C30.1875 28.9192 30.0945 28.7579 30.4135 28.4757L30.7325 28.2473C30.7591 28.2339 30.799 28.207 30.8256 28.1935L31.3307 27.8441C32.4074 27.1454 31.8491 28.0457 32.5004 27.1319C32.5137 27.1185 32.6466 26.8766 32.6599 26.8497C33.3113 25.5596 32.9258 26.4466 33.3511 25.8418C33.3777 25.815 33.391 25.7747 33.4043 25.7478C34.0025 24.7937 33.3245 25.479 34.1221 24.9952L33.9759 23.3558C34.0556 22.872 33.8828 23.1945 34.1886 22.872C34.3215 23.2348 34.4544 23.3961 34.4943 23.8395ZM29.5628 14.9165C27.0239 20.144 22.1854 22.5898 24.0464 28.7579C24.4451 30.1018 25.801 32.5341 26.8511 32.7088C27.3429 32.9507 27.0372 32.8701 27.529 32.9641L27.6752 32.8163C28.1936 32.2653 28.4462 31.9025 29.2039 31.5128C29.5761 31.4322 30.0147 30.7871 31.0249 30.1824C34.0556 28.3548 34.3747 27.7098 34.3614 24.498C34.3614 23.7858 34.4278 23.9336 34.5076 23.8395C34.4677 23.3826 34.3348 23.2348 34.2417 22.872C33.936 23.1945 34.1088 22.872 34.029 23.3558L34.1753 24.9952C33.3777 25.479 34.0423 24.7802 33.4575 25.7478C33.4442 25.7747 33.4176 25.815 33.4043 25.8418C32.9789 26.4466 33.3511 25.5596 32.7131 26.8497C32.6998 26.8766 32.5669 27.105 32.5536 27.1319C31.9022 28.0457 32.4605 27.1319 31.3838 27.8441L30.8787 28.1935C30.8521 28.207 30.8123 28.2339 30.7857 28.2473L30.4667 28.4757C30.1476 28.7579 30.2407 28.9192 29.39 29.1611C29.0178 29.2686 28.6323 29.3492 28.2335 29.3627C28.2069 29.6986 28.1803 30.0211 27.9677 30.2899C26.4789 30.3033 25.5617 28.973 25.8276 27.4141C25.9871 26.46 25.8807 27.1857 25.8807 26.0837L25.3623 25.8015C25.3623 25.3581 25.6016 23.7052 25.7345 23.4095C25.8807 23.087 26.1466 23.0198 26.2795 22.6973C26.4124 22.3748 26.2529 22.5629 26.4789 22.1598C26.7713 21.6357 26.5587 22.3479 26.758 21.7969C26.8511 21.1788 26.027 21.0981 27.0372 20.4262C27.5423 20.0903 27.4493 20.0365 27.848 19.6737L28.8848 18.9749C29.2172 18.7733 28.9912 18.8271 29.4431 18.7061C29.4431 18.0745 29.2836 18.4642 29.4697 17.8729C29.9748 17.6579 30.9186 17.3757 31.4769 17.6848C31.9687 17.9536 31.5832 17.6445 31.8092 18.1417C32.2213 17.6848 31.7693 17.9133 32.4605 17.7117C32.7397 19.0555 33.1119 18.5314 33.7632 19.4049L34.2151 19.9424C35.1589 21.1519 34.9329 21.1653 35.0659 22.4151C35.1456 23.2483 35.0127 23.4767 34.9595 24.4308C34.7203 23.7858 34.9196 24.3905 34.574 24.0814L34.9861 26.0165L36.2356 25.5193C36.5147 25.0759 36.4616 24.6861 36.5413 24.619L36.5679 24.6055H36.6078C37.2591 24.3502 37.073 24.0949 36.98 23.3558C37.073 22.4016 36.435 21.8238 36.4084 21.2325C36.3951 20.8562 36.3685 21.1384 36.4616 20.9772C37.8972 23.7052 38.0833 25.3312 37.8706 28.8117C39.0137 26.89 37.8307 21.4341 36.8205 20.0768C36.1426 19.4183 36.4882 19.4721 36.2223 18.8943C35.983 18.3702 35.8235 18.5986 35.4779 17.9401C34.9861 16.986 35.2254 17.3489 34.3614 16.6232C34.255 16.5291 34.0158 16.3141 33.936 16.2066C33.4973 15.6153 33.8828 15.7497 33.298 15.2659L32.1947 14.2446C31.6763 13.6668 31.118 13.2367 30.3337 13.2099C30.1343 13.8146 30.1476 14.5134 29.5628 14.9165ZM27.6486 14.7418C27.2897 15.024 26.0402 17.0667 25.5351 17.7789C23.0627 21.2191 20.4441 23.8127 20.8695 28.9326C21.1353 32.0369 22.6772 34.187 24.711 35.6383C31.7029 40.6374 43.6927 35.1008 41.0342 24.9684C40.0771 21.3131 36.98 18.2492 34.7734 15.4675C34.4145 15.024 34.0423 14.4999 33.71 13.9624C33.4442 13.5324 33.0853 12.8067 32.7928 12.4976C32.1282 12.202 32.2611 12.4573 32.1947 11.7585C31.9554 11.9601 32.1814 12.2154 31.6896 11.866C31.1579 11.4763 32.1282 11.5704 31.0515 11.436C29.8951 11.4091 29.3501 12.5514 29.1241 12.8336C28.4462 13.6936 28.7386 14.0699 28.2069 14.4327L27.6486 14.7418ZM38.3358 21.1519C38.9074 22.2807 39.2796 22.0926 39.891 24.5383C40.9544 28.7848 39.1068 33.327 35.571 35.383C31.9022 37.5197 27.4625 37.6406 24.392 34.0795C23.7672 33.3538 22.7171 31.8084 22.5709 30.6393C23.2222 31.795 23.5413 32.7894 24.4717 33.7167C27.6486 36.915 31.211 37.2778 35.2785 35.0471C39.9708 32.4938 41.0076 25.815 38.3358 21.1519ZM34.9329 26.0165C35.2387 28.4354 34.8532 30.814 33.7499 32.3863C32.9258 33.5688 29.8951 35.1546 28.7652 33.2329C28.6323 32.44 28.9513 32.0369 29.1906 31.5128C28.4462 31.9025 28.1803 32.2653 27.6619 32.8163L27.5157 32.9641C27.0372 32.8701 27.3429 32.9507 26.8378 32.7088C27.1302 33.2463 26.9308 32.8432 27.5556 33.3942L27.7284 33.5823C24.6047 32.7088 21.8797 27.871 23.5944 23.5842C23.9666 22.657 24.4186 21.9582 24.9104 21.1788C25.1629 20.7756 25.3889 20.5203 25.7212 20.144C26.9707 18.7196 28.9114 16.3947 29.5761 14.7284L29.5495 14.93C30.1343 14.5268 30.121 13.828 30.3071 13.2099C31.0914 13.2233 31.6497 13.6668 32.1681 14.2446L33.2714 15.2659C33.8562 15.7497 33.4708 15.6153 33.9094 16.2066C33.9892 16.3141 34.2151 16.5291 34.3348 16.6232C35.1855 17.3623 34.9595 16.986 35.4513 17.9401C35.7837 18.5986 35.9565 18.3702 36.1957 18.8943C36.4616 19.4721 36.116 19.4183 36.7939 20.0768L36.754 19.7543C39.5189 24.1083 40.3297 28.2204 36.754 32.4132C34.1088 35.5174 27.9544 36.3506 25.0566 32.4266C25.8409 33.2732 27.6486 34.2408 29.3767 34.3751C35.3051 34.8589 37.7244 29.1611 37.3256 24.6593L37.0863 23.5708C37.073 23.5439 37.0332 23.5305 37.0199 23.4633C37.0066 23.4095 36.98 23.3961 36.9534 23.3558C37.0464 24.0814 37.2325 24.3502 36.5812 24.6055H36.5413L36.5147 24.619C36.435 24.6996 36.4882 25.0893 36.209 25.5193L34.9329 26.0165Z" fill="#2A292E"/>
<path fill-rule="evenodd" clip-rule="evenodd" d="M27.6486 14.7418L28.2069 14.4462C28.7386 14.0834 28.4462 13.7071 29.1241 12.847C29.3501 12.5648 29.8951 11.4226 31.0515 11.4495C32.1282 11.5838 31.1579 11.4898 31.6896 11.8795C32.1681 12.2289 31.9421 11.9735 32.1947 11.772C32.2478 12.4573 32.1282 12.2154 32.7928 12.5111L30.7724 7.72705C30.6527 7.91519 30.2141 9.99812 29.5229 11.3823C29.0045 12.4036 27.9411 13.8549 27.6486 14.7418ZM34.4943 23.8395L34.5209 24.0814C34.8665 24.3905 34.6671 23.7858 34.9064 24.4308C34.9595 23.4767 35.0924 23.2348 35.0127 22.4151C34.8798 21.1653 35.1057 21.1519 34.162 19.9424L33.71 19.4049C33.0454 18.5314 32.6865 19.0555 32.4074 17.7117C31.7162 17.9133 32.1681 17.6714 31.756 18.1417C31.5433 17.6445 31.9155 17.9536 31.4237 17.6848C30.8654 17.3757 29.9217 17.6579 29.4165 17.8729C29.2305 18.4642 29.39 18.0745 29.39 18.7061C28.9513 18.8271 29.164 18.7867 28.8317 18.9749L27.7949 19.6737C27.4094 20.0365 27.5024 20.0903 26.984 20.4262C25.9738 21.0981 26.7979 21.1788 26.7049 21.7969C26.4922 22.3479 26.7049 21.6357 26.4257 22.1598C26.2131 22.5629 26.3726 22.3748 26.2263 22.6973C26.0934 23.0198 25.8276 23.087 25.6814 23.4095C25.5484 23.6917 25.3092 25.3581 25.3092 25.8015L25.8276 26.0837C25.8276 27.1857 25.9339 26.46 25.7744 27.4141C25.5085 28.973 26.4257 30.3033 27.9145 30.2899C28.1272 30.0211 28.1405 29.6986 28.1803 29.3627C28.5791 29.3492 28.9646 29.2686 29.3368 29.1611C30.1875 28.9192 30.0945 28.7579 30.4135 28.4757L30.7325 28.2473C30.7591 28.2339 30.799 28.207 30.8256 28.1935L31.3307 27.8441C32.4074 27.1454 31.8491 28.0457 32.5004 27.1319C32.5137 27.1185 32.6466 26.8766 32.6599 26.8497C33.3113 25.5596 32.9258 26.4466 33.3511 25.8418C33.3777 25.815 33.391 25.7747 33.4043 25.7478C34.0025 24.7937 33.3245 25.479 34.1221 24.9952L33.9759 23.3558C34.0556 22.872 33.8828 23.1945 34.1886 22.872C34.3215 23.2348 34.4544 23.3961 34.4943 23.8395ZM29.5628 14.9165C27.0239 20.144 22.1854 22.5898 24.0464 28.7579C24.4451 30.1018 25.801 32.5341 26.8511 32.7088C27.3429 32.9507 27.0372 32.8701 27.529 32.9641L27.6752 32.8163C28.1936 32.2653 28.4462 31.9025 29.2039 31.5128C29.5761 31.4322 30.0147 30.7871 31.0249 30.1824C34.0556 28.3548 34.3747 27.7098 34.3614 24.498C34.3614 23.7858 34.4278 23.9336 34.5076 23.8395C34.4677 23.3826 34.3348 23.2348 34.2417 22.872C33.936 23.1945 34.1088 22.872 34.029 23.3558L34.1753 24.9952C33.3777 25.479 34.0423 24.7802 33.4575 25.7478C33.4442 25.7747 33.4176 25.815 33.4043 25.8418C32.9789 26.4466 33.3511 25.5596 32.7131 26.8497C32.6998 26.8766 32.5669 27.105 32.5536 27.1319C31.9022 28.0457 32.4605 27.1319 31.3838 27.8441L30.8787 28.1935C30.8521 28.207 30.8123 28.2339 30.7857 28.2473L30.4667 28.4757C30.1476 28.7579 30.2407 28.9192 29.39 29.1611C29.0178 29.2686 28.6323 29.3492 28.2335 29.3627C28.2069 29.6986 28.1803 30.0211 27.9677 30.2899C26.4789 30.3033 25.5617 28.973 25.8276 27.4141C25.9871 26.46 25.8807 27.1857 25.8807 26.0837L25.3623 25.8015C25.3623 25.3581 25.6016 23.7052 25.7345 23.4095C25.8807 23.087 26.1466 23.0198 26.2795 22.6973C26.4124 22.3748 26.2529 22.5629 26.4789 22.1598C26.7713 21.6357 26.5587 22.3479 26.758 21.7969C26.8511 21.1788 26.027 21.0981 27.0372 20.4262C27.5423 20.0903 27.4493 20.0365 27.848 19.6737L28.8848 18.9749C29.2172 18.7733 28.9912 18.8271 29.4431 18.7061C29.4431 18.0745 29.2836 18.4642 29.4697 17.8729C29.9748 17.6579 30.9186 17.3757 31.4769 17.6848C31.9687 17.9536 31.5832 17.6445 31.8092 18.1417C32.2213 17.6848 31.7693 17.9133 32.4605 17.7117C32.7397 19.0555 33.1119 18.5314 33.7632 19.4049L34.2151 19.9424C35.1589 21.1519 34.9329 21.1653 35.0659 22.4151C35.1456 23.2483 35.0127 23.4767 34.9595 24.4308C34.7203 23.7858 34.9196 24.3905 34.574 24.0814L34.9861 26.0165L36.2356 25.5193C36.5147 25.0759 36.4616 24.6861 36.5413 24.619L36.5679 24.6055H36.6078C37.2591 24.3502 37.073 24.0949 36.98 23.3558C37.073 22.4016 36.435 21.8238 36.4084 21.2325C36.3951 20.8562 36.3685 21.1384 36.4616 20.9772C37.8972 23.7052 38.0833 25.3312 37.8706 28.8117C39.0137 26.89 37.8307 21.4341 36.8205 20.0768C36.1426 19.4183 36.4882 19.4721 36.2223 18.8943C35.983 18.3702 35.8235 18.5986 35.4779 17.9401C34.9861 16.986 35.2254 17.3489 34.3614 16.6232C34.255 16.5291 34.0158 16.3141 33.936 16.2066C33.4973 15.6153 33.8828 15.7497 33.298 15.2659L32.1947 14.2446C31.6763 13.6668 31.118 13.2367 30.3337 13.2099C30.1343 13.8146 30.1476 14.5134 29.5628 14.9165ZM27.6486 14.7418C27.2897 15.024 26.0402 17.0667 25.5351 17.7789C23.0627 21.2191 20.4441 23.8127 20.8695 28.9326C21.1353 32.0369 22.6772 34.187 24.711 35.6383C31.7029 40.6374 43.6927 35.1008 41.0342 24.9684C40.0771 21.3131 36.98 18.2492 34.7734 15.4675C34.4145 15.024 34.0423 14.4999 33.71 13.9624C33.4442 13.5324 33.0853 12.8067 32.7928 12.4976C32.1282 12.202 32.2611 12.4573 32.1947 11.7585C31.9554 11.9601 32.1814 12.2154 31.6896 11.866C31.1579 11.4763 32.1282 11.5704 31.0515 11.436C29.8951 11.4091 29.3501 12.5514 29.1241 12.8336C28.4462 13.6936 28.7386 14.0699 28.2069 14.4327L27.6486 14.7418ZM38.3358 21.1519C38.9074 22.2807 39.2796 22.0926 39.891 24.5383C40.9544 28.7848 39.1068 33.327 35.571 35.383C31.9022 37.5197 27.4625 37.6406 24.392 34.0795C23.7672 33.3538 22.7171 31.8084 22.5709 30.6393C23.2222 31.795 23.5413 32.7894 24.4717 33.7167C27.6486 36.915 31.211 37.2778 35.2785 35.0471C39.9708 32.4938 41.0076 25.815 38.3358 21.1519ZM34.9329 26.0165C35.2387 28.4354 34.8532 30.814 33.7499 32.3863C32.9258 33.5688 29.8951 35.1546 28.7652 33.2329C28.6323 32.44 28.9513 32.0369 29.1906 31.5128C28.4462 31.9025 28.1803 32.2653 27.6619 32.8163L27.5157 32.9641C27.0372 32.8701 27.3429 32.9507 26.8378 32.7088C27.1302 33.2463 26.9308 32.8432 27.5556 33.3942L27.7284 33.5823C24.6047 32.7088 21.8797 27.871 23.5944 23.5842C23.9666 22.657 24.4186 21.9582 24.9104 21.1788C25.1629 20.7756 25.3889 20.5203 25.7212 20.144C26.9707 18.7196 28.9114 16.3947 29.5761 14.7284L29.5495 14.93C30.1343 14.5268 30.121 13.828 30.3071 13.2099C31.0914 13.2233 31.6497 13.6668 32.1681 14.2446L33.2714 15.2659C33.8562 15.7497 33.4708 15.6153 33.9094 16.2066C33.9892 16.3141 34.2151 16.5291 34.3348 16.6232C35.1855 17.3623 34.9595 16.986 35.4513 17.9401C35.7837 18.5986 35.9565 18.3702 36.1957 18.8943C36.4616 19.4721 36.116 19.4183 36.7939 20.0768L36.754 19.7543C39.5189 24.1083 40.3297 28.2204 36.754 32.4132C34.1088 35.5174 27.9544 36.3506 25.0566 32.4266C25.8409 33.2732 27.6486 34.2408 29.3767 34.3751C35.3051 34.8589 37.7244 29.1611 37.3256 24.6593L37.0863 23.5708C37.073 23.5439 37.0332 23.5305 37.0199 23.4633C37.0066 23.4095 36.98 23.3961 36.9534 23.3558C37.0464 24.0814 37.2325 24.3502 36.5812 24.6055H36.5413L36.5147 24.619C36.435 24.6996 36.4882 25.0893 36.209 25.5193L34.9329 26.0165Z" stroke="white" stroke-width="2" mask="url(#path-4-outside-1)"/>
<path fill-rule="evenodd" clip-rule="evenodd" d="M29.5626 13.5325C29.217 14.836 28.4327 14.5672 27.7814 16.892C27.5554 17.7118 22.2384 21.0982 22.2384 26.057C22.2384 27.0514 21.8662 28.7446 21.8662 30.3841C21.8662 33.1121 22.4777 31.7145 23.1689 33.7437C23.1689 33.7571 24.4317 35.1009 24.5912 35.1144C24.9235 35.1547 26.3458 37.1167 28.1004 35.41C28.4593 35.0606 30.3734 25.7882 30.3867 25.5329C30.4664 24.6594 30.626 15.4407 29.7354 14.5135C29.536 14.3119 29.4828 13.8147 29.5626 13.5325Z" fill="white"/>
<path d="M29.5626 13.5325C29.217 14.836 28.4327 14.5672 27.7814 16.892C27.5554 17.7118 22.2384 21.0982 22.2384 26.057C22.2384 27.0514 21.8662 28.7446 21.8662 30.3841C21.8662 33.1121 22.4777 31.7145 23.1689 33.7437C23.1689 33.7571 24.4317 35.1009 24.5912 35.1144C24.9235 35.1547 26.3458 37.1167 28.1004 35.41C28.4593 35.0606 30.3734 25.7882 30.3867 25.5329C30.4664 24.6594 30.626 15.4407 29.7354 14.5135C29.536 14.3119 29.4828 13.8147 29.5626 13.5325Z" fill="white" stroke="#2A292E" stroke-width="0.573" stroke-miterlimit="22.926"/>
<path fill-rule="evenodd" clip-rule="evenodd" d="M28.1934 22.16C27.5687 22.8185 27.449 25.9765 27.3161 26.8365C27.0768 28.3819 26.811 29.7123 26.2793 31.1771C25.9868 31.9834 26.0932 32.3462 25.9736 33.1525C25.9204 33.5153 25.8273 35.1145 26.0533 35.3832C26.2128 35.5714 25.8938 35.7461 26.6648 36.0283C26.9173 36.1223 26.5185 36.2433 27.1965 36.5389C28.4725 37.0899 30.0809 37.0899 31.4899 37.1033C31.6229 37.1033 32.8325 36.6867 33.537 36.7002C34.946 36.7136 34.0953 36.4852 35.3315 36.0551C35.5043 36.0014 36.6607 35.0607 37.445 34.7651C38.1894 34.4829 38.1495 33.3675 38.7476 32.8434C39.399 32.2656 40.5288 30.0079 40.5288 29.1748C40.5288 28.4491 40.8877 25.1567 40.3959 24.7267C39.7446 24.1623 40.1832 22.6841 39.2661 22.039C38.9337 21.8106 39.4522 21.7434 38.6014 21.2059C37.9102 20.7758 37.5912 19.3111 37.0329 19.0423C35.8233 18.4645 35.9828 18.5048 34.3212 19.0558C33.7231 19.2573 31.6627 19.7545 31.2906 20.1308C29.8151 21.6628 29.4828 20.7893 28.1934 22.16Z" fill="white"/>
<path fill-rule="evenodd" clip-rule="evenodd" d="M27.6486 14.7418L28.2069 14.4462C28.7386 14.0834 28.4462 13.7071 29.1241 12.847C29.3501 12.5648 29.8951 11.4226 31.0515 11.4495C32.1282 11.5838 31.1579 11.4898 31.6896 11.8795C32.1681 12.2289 31.9421 11.9735 32.1947 11.772C32.2478 12.4573 32.1282 12.2154 32.7928 12.5111L30.7724 7.72705C30.6527 7.91519 30.2141 9.99812 29.5229 11.3823C29.0045 12.4036 27.9411 13.8549 27.6486 14.7418ZM34.4943 23.8395L34.5209 24.0814C34.8665 24.3905 34.6671 23.7858 34.9064 24.4308C34.9595 23.4767 35.0924 23.2348 35.0127 22.4151C34.8798 21.1653 35.1057 21.1519 34.162 19.9424L33.71 19.4049C33.0454 18.5314 32.6865 19.0555 32.4074 17.7117C31.7161 17.9133 32.1681 17.6714 31.756 18.1417C31.5433 17.6445 31.9155 17.9536 31.4237 17.6848C30.8654 17.3757 29.9217 17.6579 29.4165 17.8729C29.2304 18.4642 29.39 18.0745 29.39 18.7061C28.9513 18.8271 29.164 18.7867 28.8317 18.9749L27.7949 19.6737C27.4094 20.0365 27.5024 20.0903 26.984 20.4262C25.9738 21.0981 26.7979 21.1788 26.7049 21.7969C26.4922 22.3479 26.7049 21.6357 26.4257 22.1598C26.2131 22.5629 26.3726 22.3748 26.2263 22.6973C26.0934 23.0198 25.8276 23.087 25.6813 23.4095C25.5484 23.6917 25.3092 25.3581 25.3092 25.8015L25.8276 26.0837C25.8276 27.1857 25.9339 26.46 25.7744 27.4141C25.5085 28.973 26.4257 30.3033 27.9145 30.2899C28.1272 30.0211 28.1405 29.6986 28.1803 29.3627C28.5791 29.3492 28.9646 29.2686 29.3368 29.1611C30.1875 28.9192 30.0945 28.7579 30.4135 28.4757L30.7325 28.2473C30.7591 28.2339 30.799 28.207 30.8255 28.1935L31.3307 27.8441C32.4074 27.1454 31.8491 28.0457 32.5004 27.1319C32.5137 27.1185 32.6466 26.8766 32.6599 26.8497C33.3112 25.5596 32.9258 26.4466 33.3511 25.8418C33.3777 25.815 33.391 25.7747 33.4043 25.7478C34.0025 24.7937 33.3245 25.479 34.1221 24.9952L33.9759 23.3558C34.0556 22.872 33.8828 23.1945 34.1886 22.872C34.3215 23.2348 34.4544 23.3961 34.4943 23.8395ZM29.5628 14.9165C27.0239 20.144 22.1854 22.5898 24.0464 28.7579C24.4451 30.1018 25.801 32.5341 26.8511 32.7088C27.3429 32.9507 27.0372 32.8701 27.529 32.9641L27.6752 32.8163C28.1936 32.2653 28.4462 31.9025 29.2039 31.5128C29.5761 31.4322 30.0147 30.7871 31.0249 30.1824C34.0556 28.3548 34.3746 27.7098 34.3614 24.498C34.3614 23.7858 34.4278 23.9336 34.5076 23.8395C34.4677 23.3826 34.3348 23.2348 34.2417 22.872C33.936 23.1945 34.1088 22.872 34.029 23.3558L34.1753 24.9952C33.3777 25.479 34.0423 24.7802 33.4575 25.7478C33.4442 25.7747 33.4176 25.815 33.4043 25.8418C32.9789 26.4466 33.3511 25.5596 32.7131 26.8497C32.6998 26.8766 32.5669 27.105 32.5536 27.1319C31.9022 28.0457 32.4605 27.1319 31.3838 27.8441L30.8787 28.1935C30.8521 28.207 30.8123 28.2339 30.7857 28.2473L30.4667 28.4757C30.1476 28.7579 30.2407 28.9192 29.39 29.1611C29.0178 29.2686 28.6323 29.3492 28.2335 29.3627C28.2069 29.6986 28.1803 30.0211 27.9677 30.2899C26.4789 30.3033 25.5617 28.973 25.8276 27.4141C25.9871 26.46 25.8807 27.1857 25.8807 26.0837L25.3623 25.8015C25.3623 25.3581 25.6016 23.7052 25.7345 23.4095C25.8807 23.087 26.1466 23.0198 26.2795 22.6973C26.4124 22.3748 26.2529 22.5629 26.4789 22.1598C26.7713 21.6357 26.5587 22.3479 26.758 21.7969C26.8511 21.1788 26.027 21.0981 27.0372 20.4262C27.5423 20.0903 27.4493 20.0365 27.848 19.6737L28.8848 18.9749C29.2172 18.7733 28.9912 18.8271 29.4431 18.7061C29.4431 18.0745 29.2836 18.4642 29.4697 17.8729C29.9748 17.6579 30.9186 17.3757 31.4769 17.6848C31.9687 17.9536 31.5832 17.6445 31.8092 18.1417C32.2213 17.6848 31.7693 17.9133 32.4605 17.7117C32.7397 19.0555 33.1119 18.5314 33.7632 19.4049L34.2151 19.9424C35.1589 21.1519 34.9329 21.1653 35.0659 22.4151C35.1456 23.2483 35.0127 23.4767 34.9595 24.4308C34.7203 23.7858 34.9196 24.3905 34.574 24.0814L34.9861 26.0165L36.2356 25.5193C36.5147 25.0759 36.4616 24.6861 36.5413 24.619L36.5679 24.6055H36.6078C37.2591 24.3502 37.073 24.0949 36.98 23.3558C37.073 22.4016 36.435 21.8238 36.4084 21.2325C36.3951 20.8562 36.3685 21.1384 36.4616 20.9772C37.8972 23.7052 38.0833 25.3312 37.8706 28.8117C39.0137 26.89 37.8307 21.4341 36.8205 20.0768C36.1426 19.4183 36.4882 19.4721 36.2223 18.8943C35.983 18.3702 35.8235 18.5986 35.4779 17.9401C34.9861 16.986 35.2254 17.3489 34.3614 16.6232C34.255 16.5291 34.0158 16.3141 33.936 16.2066C33.4973 15.6153 33.8828 15.7497 33.298 15.2659L32.1947 14.2446C31.6763 13.6668 31.118 13.2367 30.3337 13.2099C30.1343 13.8146 30.1476 14.5134 29.5628 14.9165ZM27.6486 14.7418C27.2897 15.024 26.0402 17.0667 25.5351 17.7789C23.0627 21.2191 20.4441 23.8127 20.8695 28.9326C21.1353 32.0369 22.6772 34.187 24.711 35.6383C31.7029 40.6374 43.6927 35.1008 41.0342 24.9684C40.0771 21.3131 36.98 18.2492 34.7734 15.4675C34.4145 15.024 34.0423 14.4999 33.71 13.9624C33.4442 13.5324 33.0853 12.8067 32.7928 12.4976C32.1282 12.202 32.2611 12.4573 32.1947 11.7585C31.9554 11.9601 32.1814 12.2154 31.6896 11.866C31.1579 11.4763 32.1282 11.5704 31.0515 11.436C29.8951 11.4091 29.3501 12.5514 29.1241 12.8336C28.4462 13.6936 28.7386 14.0699 28.2069 14.4327L27.6486 14.7418ZM38.3358 21.1519C38.9074 22.2807 39.2796 22.0926 39.891 24.5383C40.9544 28.7848 39.1068 33.327 35.571 35.383C31.9022 37.5197 27.4625 37.6406 24.392 34.0795C23.7672 33.3538 22.7171 31.8084 22.5709 30.6393C23.2222 31.795 23.5413 32.7894 24.4717 33.7167C27.6486 36.915 31.211 37.2778 35.2785 35.0471C39.9708 32.4938 41.0076 25.815 38.3358 21.1519ZM34.9329 26.0165C35.2387 28.4354 34.8532 30.814 33.7499 32.3863C32.9258 33.5688 29.8951 35.1546 28.7652 33.2329C28.6323 32.44 28.9513 32.0369 29.1906 31.5128C28.4462 31.9025 28.1803 32.2653 27.6619 32.8163L27.5157 32.9641C27.0372 32.8701 27.3429 32.9507 26.8378 32.7088C27.1302 33.2463 26.9308 32.8432 27.5556 33.3942L27.7284 33.5823C24.6047 32.7088 21.8797 27.871 23.5944 23.5842C23.9666 22.657 24.4186 21.9582 24.9104 21.1788C25.1629 20.7756 25.3889 20.5203 25.7212 20.144C26.9707 18.7196 28.9114 16.3947 29.5761 14.7284L29.5495 14.93C30.1343 14.5268 30.121 13.828 30.3071 13.2099C31.0914 13.2233 31.6497 13.6668 32.1681 14.2446L33.2714 15.2659C33.8562 15.7497 33.4708 15.6153 33.9094 16.2066C33.9892 16.3141 34.2151 16.5291 34.3348 16.6232C35.1855 17.3623 34.9595 16.986 35.4513 17.9401C35.7837 18.5986 35.9565 18.3702 36.1957 18.8943C36.4616 19.4721 36.116 19.4183 36.7939 20.0768L36.754 19.7543C39.5188 24.1083 40.3297 28.2204 36.754 32.4132C34.1088 35.5174 27.9544 36.3506 25.0566 32.4266C25.8409 33.2732 27.6486 34.2408 29.3767 34.3751C35.3051 34.8589 37.7244 29.1611 37.3256 24.6593L37.0863 23.5708C37.073 23.5439 37.0331 23.5305 37.0199 23.4633C37.0066 23.4095 36.98 23.3961 36.9534 23.3558C37.0464 24.0814 37.2325 24.3502 36.5812 24.6055H36.5413L36.5147 24.619C36.435 24.6996 36.4882 25.0893 36.209 25.5193L34.9329 26.0165Z" fill="#2A292E"/>
<path d="M21.775 53H19.812V48.996H16.133V53H14.17V43.718H16.133V47.358H19.812V43.718H21.775V53ZM31.9754 53H30.0124V48.996H26.3334V53H24.3704V43.718H26.3334V47.358H30.0124V43.718H31.9754V53ZM40.4339 43.718V45.343H36.5339V53H34.5709V43.718H40.4339ZM42.118 53V43.718H49.463V53H47.5V45.356H44.081V53H42.118Z" fill="white"/>
</svg>
