<svg width="369" height="67" viewBox="0 0 369 67" fill="none" xmlns="http://www.w3.org/2000/svg">
<path d="M75.272 36.937L77.669 33.894L78.57 34.472L77.261 36.937L78.57 39.368L77.669 39.963L75.272 36.937ZM80.576 39.963L78.179 36.937L80.576 33.894L81.477 34.472L80.168 36.937L81.477 39.368L80.576 39.963ZM93.8707 41H91.3037V35.764H86.4927V41H83.9257V28.862H86.4927V33.622H91.3037V28.862H93.8707V41ZM97.2647 28.862H99.5767V34.727C99.5767 35.0103 99.571 35.3277 99.5597 35.679C99.5484 36.0303 99.537 36.376 99.5257 36.716C99.5144 37.0447 99.503 37.3337 99.4917 37.583C99.4804 37.821 99.469 37.9853 99.4577 38.076H99.5087L105.119 28.862H108.196V41H105.901V35.169C105.901 34.863 105.906 34.5287 105.918 34.166C105.929 33.792 105.94 33.435 105.952 33.095C105.974 32.755 105.991 32.4603 106.003 32.211C106.025 31.9503 106.042 31.7803 106.054 31.701H105.986L100.359 41H97.2647V28.862ZM114.388 34.693L110.308 28.862H112.96L116.887 34.744V28.862H119.284V34.744L123.211 28.862H125.863L121.783 34.693L126.101 41H123.347L119.284 34.846V41H116.887V34.846L112.824 41H110.07L114.388 34.693ZM134.964 41H127.977V28.862H134.964V30.97H130.544V33.639H134.658V35.747H130.544V38.875H134.964V41ZM145.497 28.862V30.987H140.397V41H137.83V28.862H145.497ZM158.383 34.914C158.383 36.172 158.173 37.2713 157.754 38.212C157.346 39.1413 156.717 39.8667 155.867 40.388C155.017 40.9093 153.929 41.17 152.603 41.17C151.288 41.17 150.2 40.9093 149.339 40.388C148.489 39.8667 147.854 39.1357 147.435 38.195C147.027 37.2543 146.823 36.155 146.823 34.897C146.823 33.639 147.027 32.5453 147.435 31.616C147.854 30.6867 148.489 29.967 149.339 29.457C150.2 28.9357 151.294 28.675 152.62 28.675C153.935 28.675 155.017 28.9357 155.867 29.457C156.717 29.967 157.346 30.6923 157.754 31.633C158.173 32.5623 158.383 33.656 158.383 34.914ZM149.526 34.914C149.526 36.1833 149.77 37.1863 150.257 37.923C150.744 38.6483 151.526 39.011 152.603 39.011C153.702 39.011 154.49 38.6483 154.966 37.923C155.442 37.1863 155.68 36.1833 155.68 34.914C155.68 33.6333 155.442 32.6303 154.966 31.905C154.49 31.1797 153.708 30.817 152.62 30.817C151.532 30.817 150.744 31.1797 150.257 31.905C149.77 32.6303 149.526 33.6333 149.526 34.914ZM165.113 28.862C166.677 28.862 167.816 29.202 168.53 29.882C169.255 30.5507 169.618 31.4743 169.618 32.653C169.618 33.3557 169.471 34.0187 169.176 34.642C168.881 35.254 168.388 35.747 167.697 36.121C167.017 36.495 166.088 36.682 164.909 36.682H163.804V41H161.237V28.862H165.113ZM164.977 30.97H163.804V34.574H164.654C165.379 34.574 165.952 34.4323 166.371 34.149C166.802 33.8543 167.017 33.384 167.017 32.738C167.017 31.5593 166.337 30.97 164.977 30.97ZM183.268 34.914C183.268 36.172 183.058 37.2713 182.639 38.212C182.231 39.1413 181.602 39.8667 180.752 40.388C179.902 40.9093 178.814 41.17 177.488 41.17C176.173 41.17 175.085 40.9093 174.224 40.388C173.374 39.8667 172.739 39.1357 172.32 38.195C171.912 37.2543 171.708 36.155 171.708 34.897C171.708 33.639 171.912 32.5453 172.32 31.616C172.739 30.6867 173.374 29.967 174.224 29.457C175.085 28.9357 176.179 28.675 177.505 28.675C178.82 28.675 179.902 28.9357 180.752 29.457C181.602 29.967 182.231 30.6923 182.639 31.633C183.058 32.5623 183.268 33.656 183.268 34.914ZM174.411 34.914C174.411 36.1833 174.655 37.1863 175.142 37.923C175.629 38.6483 176.411 39.011 177.488 39.011C178.587 39.011 179.375 38.6483 179.851 37.923C180.327 37.1863 180.565 36.1833 180.565 34.914C180.565 33.6333 180.327 32.6303 179.851 31.905C179.375 31.1797 178.593 30.817 177.505 30.817C176.417 30.817 175.629 31.1797 175.142 31.905C174.655 32.6303 174.411 33.6333 174.411 34.914ZM195.293 28.862V38.858H196.908V44.536H194.426V41H186.827V44.536H184.345V38.858H185.28C185.711 38.008 186.113 37.1013 186.487 36.138C186.861 35.1633 187.196 34.081 187.49 32.891C187.796 31.701 188.04 30.358 188.221 28.862H195.293ZM190.261 31.004C190.159 31.786 189.995 32.636 189.768 33.554C189.553 34.4607 189.292 35.373 188.986 36.291C188.68 37.1977 188.346 38.0533 187.983 38.858H192.726V31.004H190.261ZM209.058 41H206.491V35.764H201.68V41H199.113V28.862H201.68V33.622H206.491V28.862H209.058V41ZM219.439 41H212.452V28.862H219.439V30.97H215.019V33.639H219.133V35.747H215.019V38.875H219.439V41ZM229.24 30.188C230.566 30.222 231.62 30.4543 232.402 30.885C233.196 31.3043 233.762 31.8483 234.102 32.517C234.454 33.1857 234.629 33.9167 234.629 34.71C234.629 35.22 234.539 35.7413 234.357 36.274C234.187 36.8067 233.893 37.2997 233.473 37.753C233.065 38.195 232.516 38.5577 231.824 38.841C231.133 39.1243 230.272 39.2773 229.24 39.3V41.17H226.928V39.3C225.886 39.2773 225.013 39.1243 224.31 38.841C223.619 38.5577 223.069 38.1893 222.661 37.736C222.253 37.2827 221.964 36.7953 221.794 36.274C221.624 35.7413 221.539 35.22 221.539 34.71C221.539 33.9167 221.709 33.1857 222.049 32.517C222.401 31.8483 222.967 31.3043 223.749 30.885C224.543 30.4543 225.602 30.222 226.928 30.188V28.692H229.24V30.188ZM226.928 32.194C225.829 32.2393 225.058 32.4943 224.616 32.959C224.174 33.4123 223.953 33.9903 223.953 34.693C223.953 35.4523 224.191 36.07 224.667 36.546C225.143 37.0107 225.897 37.2657 226.928 37.311V32.194ZM229.24 37.311C230.283 37.2657 231.037 37.0107 231.501 36.546C231.977 36.07 232.215 35.4523 232.215 34.693C232.215 33.9903 231.994 33.4123 231.552 32.959C231.122 32.4943 230.351 32.2393 229.24 32.194V37.311ZM241.431 41H238.864V31.004H235.566V28.862H244.729V31.004H241.431V41ZM253.927 41H246.94V28.862H253.927V30.97H249.507V33.639H253.621V35.747H249.507V38.875H253.927V41ZM264.46 28.862V30.987H259.36V41H256.793V28.862H264.46ZM272.896 41L272.012 38.11H267.592L266.708 41H263.937L268.221 28.811H271.366L275.667 41H272.896ZM270.516 33.129C270.459 32.9363 270.386 32.6927 270.295 32.398C270.204 32.1033 270.114 31.803 270.023 31.497C269.932 31.191 269.859 30.9247 269.802 30.698C269.745 30.9247 269.666 31.208 269.564 31.548C269.473 31.8767 269.383 32.194 269.292 32.5C269.213 32.7947 269.15 33.0043 269.105 33.129L268.238 35.951H271.4L270.516 33.129ZM285.925 31.701C285.925 32.517 285.636 33.1743 285.058 33.673C284.48 34.1717 283.744 34.4833 282.848 34.608V34.659C283.959 34.7723 284.809 35.084 285.398 35.594C285.999 36.0927 286.299 36.7443 286.299 37.549C286.299 38.6143 285.863 39.487 284.99 40.167C284.129 40.8357 282.86 41.17 281.182 41.17C280.264 41.17 279.448 41.1133 278.734 41C278.032 40.8867 277.42 40.7223 276.898 40.507V38.348C277.25 38.518 277.646 38.6653 278.088 38.79C278.53 38.9033 278.978 38.994 279.431 39.062C279.885 39.1187 280.304 39.147 280.689 39.147C281.766 39.147 282.542 38.994 283.018 38.688C283.506 38.3707 283.749 37.9287 283.749 37.362C283.749 36.784 283.398 36.3647 282.695 36.104C281.993 35.832 281.046 35.696 279.856 35.696H278.717V33.69H279.737C280.701 33.69 281.449 33.6277 281.981 33.503C282.514 33.3783 282.888 33.197 283.103 32.959C283.319 32.721 283.426 32.4377 283.426 32.109C283.426 31.6897 283.239 31.361 282.865 31.123C282.503 30.8737 281.953 30.749 281.216 30.749C280.593 30.749 280.004 30.8397 279.448 31.021C278.904 31.2023 278.394 31.4403 277.918 31.735L276.796 30.018C277.42 29.61 278.111 29.287 278.87 29.049C279.63 28.811 280.531 28.692 281.573 28.692C282.945 28.692 284.01 28.9753 284.769 29.542C285.54 30.1087 285.925 30.8283 285.925 31.701ZM288.908 41V28.862H298.513V41H295.946V31.004H291.475V41H288.908ZM305.791 28.862C307.355 28.862 308.494 29.202 309.208 29.882C309.933 30.5507 310.296 31.4743 310.296 32.653C310.296 33.3557 310.148 34.0187 309.854 34.642C309.559 35.254 309.066 35.747 308.375 36.121C307.695 36.495 306.765 36.682 305.587 36.682H304.482V41H301.915V28.862H305.791ZM305.655 30.97H304.482V34.574H305.332C306.057 34.574 306.629 34.4323 307.049 34.149C307.479 33.8543 307.695 33.384 307.695 32.738C307.695 31.5593 307.015 30.97 305.655 30.97ZM323.946 34.914C323.946 36.172 323.736 37.2713 323.317 38.212C322.909 39.1413 322.28 39.8667 321.43 40.388C320.58 40.9093 319.492 41.17 318.166 41.17C316.851 41.17 315.763 40.9093 314.902 40.388C314.052 39.8667 313.417 39.1357 312.998 38.195C312.59 37.2543 312.386 36.155 312.386 34.897C312.386 33.639 312.59 32.5453 312.998 31.616C313.417 30.6867 314.052 29.967 314.902 29.457C315.763 28.9357 316.857 28.675 318.183 28.675C319.497 28.675 320.58 28.9357 321.43 29.457C322.28 29.967 322.909 30.6923 323.317 31.633C323.736 32.5623 323.946 33.656 323.946 34.914ZM315.089 34.914C315.089 36.1833 315.332 37.1863 315.82 37.923C316.307 38.6483 317.089 39.011 318.166 39.011C319.265 39.011 320.053 38.6483 320.529 37.923C321.005 37.1863 321.243 36.1833 321.243 34.914C321.243 33.6333 321.005 32.6303 320.529 31.905C320.053 31.1797 319.271 30.817 318.183 30.817C317.095 30.817 316.307 31.1797 315.82 31.905C315.332 32.6303 315.089 33.6333 315.089 34.914ZM333.787 41H326.8V28.862H333.787V30.97H329.367V33.639H333.481V35.747H329.367V38.875H333.787V41ZM346.547 41H343.623L339.22 34.846V41H336.653V28.862H339.22V34.744L343.572 28.862H346.309L341.889 34.693L346.547 41ZM353.089 41H350.522V31.004H347.224V28.862H356.387V31.004H353.089V41ZM360.962 36.937L358.548 39.963L357.664 39.368L358.99 36.937L357.664 34.472L358.548 33.894L360.962 36.937ZM361.472 33.894L363.852 36.937L361.472 39.963L360.588 39.368L361.88 36.937L360.588 34.472L361.472 33.894Z" fill="#1C1B1D"/>
<path d="M26.5584 4L0 19.0202V48.6228L26.3419 64L53.3333 48.2427V19.0662L26.5584 4Z" fill="black"/>
<path fill-rule="evenodd" clip-rule="evenodd" d="M52.7296 19.4004L26.5586 4.67969L0.604004 19.3543V48.2888L26.3535 63.3205L52.7296 47.9202V19.4004Z" fill="white"/>
<path fill-rule="evenodd" clip-rule="evenodd" d="M52.114 19.7455L26.5696 5.35889L1.20752 19.6995V47.9544L26.3531 62.629L52.114 47.5973V19.7455Z" fill="#CC0A0A"/>
<path fill-rule="evenodd" clip-rule="evenodd" d="M25.3396 15.5991C25.0433 16.7164 24.3711 16.486 23.8128 18.4788C23.6191 19.1814 19.0617 22.0841 19.0617 26.3344C19.0617 27.1868 18.7427 28.6381 18.7427 30.0434C18.7427 32.3816 19.2668 31.1837 19.8592 32.923C19.8592 32.9345 20.9416 34.0864 21.0784 34.0979C21.3632 34.1324 22.5823 35.8142 24.0863 34.3513C24.3939 34.0518 26.0346 26.104 26.046 25.8852C26.1143 25.1365 26.251 17.2348 25.4877 16.44C25.3168 16.2672 25.2712 15.841 25.3396 15.5991Z" fill="#11D6D6"/>
<path d="M25.3396 15.5991C25.0433 16.7164 24.3711 16.486 23.8128 18.4788C23.6191 19.1814 19.0617 22.0841 19.0617 26.3344C19.0617 27.1868 18.7427 28.6381 18.7427 30.0434C18.7427 32.3816 19.2668 31.1837 19.8592 32.923C19.8592 32.9345 20.9416 34.0864 21.0784 34.0979C21.3632 34.1324 22.5823 35.8142 24.0863 34.3513C24.3939 34.0518 26.0346 26.104 26.046 25.8852C26.1143 25.1365 26.251 17.2348 25.4877 16.44C25.3168 16.2672 25.2712 15.841 25.3396 15.5991Z" stroke="black" stroke-width="0.508079" stroke-miterlimit="22.926"/>
<path fill-rule="evenodd" clip-rule="evenodd" d="M24.1658 22.9939C23.6303 23.5583 23.5278 26.2652 23.4139 27.0024C23.2088 28.327 22.9809 29.4673 22.5252 30.7228C22.2745 31.414 22.3657 31.725 22.2631 32.4161C22.2175 32.7271 22.1378 34.0978 22.3315 34.3281C22.4682 34.4894 22.1948 34.6391 22.8556 34.881C23.0721 34.9617 22.7303 35.0653 23.3113 35.3187C24.4051 35.791 25.7837 35.791 26.9914 35.8025C27.1054 35.8025 28.1422 35.4454 28.7461 35.457C29.9538 35.4685 29.2246 35.2727 30.2842 34.9041C30.4323 34.858 31.4235 34.0517 32.0958 33.7983C32.7338 33.5564 32.6996 32.6004 33.2123 32.1511C33.7706 31.6558 34.7391 29.7207 34.7391 29.0066C34.7391 28.3846 35.0467 25.5626 34.6251 25.194C34.0669 24.7102 34.4428 23.4432 33.6567 22.8903C33.3718 22.6944 33.8162 22.6369 33.087 22.1761C32.4945 21.8075 32.2211 20.552 31.7426 20.3216C30.7058 19.8263 30.8425 19.8609 29.4183 20.3332C28.9056 20.5059 27.1396 20.9321 26.8205 21.2546C25.5559 22.5677 25.271 21.819 24.1658 22.9939Z" fill="#11D6D6"/>
<path fill-rule="evenodd" clip-rule="evenodd" d="M23.6986 16.6362L24.1771 16.3828C24.6328 16.0718 24.3822 15.7493 24.9632 15.0121C25.1569 14.7702 25.6241 13.7911 26.6153 13.8142C27.5382 13.9294 26.7065 13.8487 27.1622 14.1828C27.5724 14.4822 27.3787 14.2634 27.5952 14.0906C27.6407 14.6781 27.5382 14.4707 28.1079 14.7241L26.376 10.6235C26.2735 10.7848 25.8975 12.5702 25.305 13.7566C24.8607 14.632 23.9492 15.876 23.6986 16.6362ZM29.5662 24.4342L29.589 24.6416C29.8853 24.9065 29.7144 24.3882 29.9194 24.9411C29.965 24.1232 30.079 23.9159 30.0106 23.2133C29.8967 22.1421 30.0904 22.1305 29.2814 21.0939L28.894 20.6331C28.3243 19.8844 28.0167 20.3336 27.7775 19.1818C27.185 19.3546 27.5724 19.1472 27.2192 19.5504C27.0369 19.1242 27.3559 19.3891 26.9343 19.1588C26.4558 18.8938 25.6469 19.1357 25.2139 19.32C25.0544 19.8268 25.1911 19.4928 25.1911 20.0342C24.8151 20.1378 24.9974 20.1033 24.7126 20.2645L23.8239 20.8635C23.4935 21.1745 23.5732 21.2206 23.1289 21.5085C22.263 22.0845 22.9694 22.1536 22.8896 22.6834C22.7073 23.1557 22.8896 22.5452 22.6503 22.9944C22.468 23.34 22.6048 23.1787 22.4794 23.4552C22.3655 23.7316 22.1376 23.7892 22.0123 24.0656C21.8984 24.3075 21.6933 25.7358 21.6933 26.1159L22.1376 26.3578C22.1376 27.3024 22.2288 26.6804 22.0921 27.4982C21.8642 28.8343 22.6503 29.9747 23.9264 29.9631C24.1087 29.7328 24.1201 29.4563 24.1543 29.1684C24.4961 29.1568 24.8265 29.0877 25.1455 28.9956C25.8747 28.7882 25.795 28.65 26.0684 28.4081L26.3419 28.2123C26.3647 28.2008 26.3988 28.1778 26.4216 28.1662L26.8546 27.8668C27.7775 27.2678 27.2989 28.0395 27.8572 27.2563C27.8686 27.2448 27.9825 27.0374 27.9939 27.0144C28.5522 25.9086 28.2218 26.6688 28.5864 26.1505C28.6092 26.1275 28.6206 26.0929 28.632 26.0699C29.1447 25.2521 28.5636 25.8395 29.2472 25.4248L29.1219 24.0196C29.1903 23.6049 29.0421 23.8814 29.3042 23.6049C29.4181 23.9159 29.5321 24.0541 29.5662 24.4342ZM25.3392 16.7859C23.1631 21.2667 19.0158 23.363 20.6109 28.65C20.9527 29.8019 22.1148 31.8867 23.0149 32.0365C23.4365 32.2438 23.1745 32.1747 23.596 32.2553L23.7213 32.1286C24.1657 31.6564 24.3822 31.3454 25.0316 31.0113C25.3506 30.9422 25.7266 30.3893 26.5925 29.871C29.1903 28.3045 29.4637 27.7516 29.4523 24.9987C29.4523 24.3882 29.5093 24.5149 29.5776 24.4342C29.5435 24.0426 29.4295 23.9159 29.3498 23.6049C29.0877 23.8814 29.2358 23.6049 29.1675 24.0196L29.2928 25.4248C28.6092 25.8395 29.1789 25.2405 28.6775 26.0699C28.6662 26.0929 28.6434 26.1275 28.632 26.1505C28.2674 26.6688 28.5864 25.9086 28.0395 27.0144C28.0281 27.0374 27.9142 27.2332 27.9028 27.2563C27.3445 28.0395 27.823 27.2563 26.9002 27.8668L26.4672 28.1662C26.4444 28.1778 26.4102 28.2008 26.3874 28.2123L26.114 28.4081C25.8405 28.65 25.9203 28.7882 25.1911 28.9956C24.8721 29.0877 24.5417 29.1568 24.1999 29.1684C24.1771 29.4563 24.1543 29.7328 23.972 29.9631C22.6959 29.9747 21.9098 28.8343 22.1376 27.4982C22.2744 26.6804 22.1832 27.3024 22.1832 26.3578L21.7389 26.1159C21.7389 25.7358 21.9439 24.3191 22.0579 24.0656C22.1832 23.7892 22.4111 23.7316 22.525 23.4552C22.639 23.1787 22.5022 23.34 22.6959 22.9944C22.9466 22.5452 22.7643 23.1557 22.9352 22.6834C23.0149 22.1536 22.3085 22.0845 23.1744 21.5085C23.6074 21.2206 23.5277 21.1745 23.8695 20.8635L24.7582 20.2645C25.043 20.0918 24.8493 20.1378 25.2367 20.0342C25.2367 19.4928 25.1 19.8268 25.2595 19.32C25.6924 19.1357 26.5014 18.8938 26.9799 19.1588C27.4015 19.3891 27.0711 19.1242 27.2647 19.5504C27.6179 19.1588 27.2306 19.3546 27.823 19.1818C28.0623 20.3336 28.3813 19.8844 28.9396 20.6331L29.327 21.0939C30.1359 22.1305 29.9422 22.1421 30.0562 23.2133C30.1245 23.9274 30.0106 24.1232 29.965 24.9411C29.7599 24.3882 29.9308 24.9065 29.6346 24.6416L29.9878 26.3002L31.0588 25.8741C31.2981 25.4939 31.2525 25.1599 31.3209 25.1023L31.3436 25.0908H31.3778C31.9361 24.8719 31.7766 24.6531 31.6968 24.0196C31.7766 23.2018 31.2297 22.7065 31.2069 22.1996C31.1955 21.8771 31.1727 22.119 31.2525 21.9808C32.483 24.3191 32.6425 25.7128 32.4602 28.6961C33.4401 27.0489 32.426 22.3724 31.5601 21.2091C30.979 20.6446 31.2753 20.6907 31.0474 20.1954C30.8423 19.7462 30.7056 19.942 30.4094 19.3776C29.9878 18.5598 30.1929 18.8708 29.4523 18.2488C29.3612 18.1682 29.1561 17.9839 29.0877 17.8917C28.7117 17.3849 29.0421 17.5001 28.5408 17.0854L27.5952 16.21C27.1508 15.7147 26.6723 15.3461 26.0001 15.3231C25.8292 15.8414 25.8405 16.4404 25.3392 16.7859ZM23.6986 16.6362C23.3909 16.8781 22.3199 18.6289 21.887 19.2394C19.7678 22.1881 17.5232 24.4112 17.8878 28.7998C18.1157 31.4605 19.4374 33.3035 21.1806 34.5475C27.1736 38.8324 37.4506 34.0868 35.1719 25.4018C34.3515 22.2688 31.6968 19.6425 29.8055 17.2582C29.4979 16.8781 29.1789 16.4289 28.894 15.9681C28.6662 15.5995 28.3585 14.9775 28.1079 14.7126C27.5382 14.4592 27.6521 14.6781 27.5952 14.0791C27.3901 14.2519 27.5838 14.4707 27.1622 14.1712C26.7065 13.8372 27.5382 13.9178 26.6153 13.8026C25.6241 13.7796 25.1569 14.7587 24.9632 15.0006C24.3822 15.7378 24.6328 16.0603 24.1771 16.3713L23.6986 16.6362ZM32.859 22.1305C33.3489 23.0981 33.6679 22.9368 34.192 25.0332C35.1035 28.6731 33.5198 32.5663 30.4891 34.3287C27.3445 36.1601 23.539 36.2638 20.9071 33.2114C20.3716 32.5894 19.4715 31.2647 19.3462 30.2626C19.9045 31.2532 20.1779 32.1056 20.9755 32.9004C23.6986 35.6418 26.752 35.9528 30.2385 34.0407C34.2604 31.8522 35.1491 26.1275 32.859 22.1305ZM29.9422 26.3002C30.2043 28.3736 29.8739 30.4124 28.9282 31.76C28.2218 32.7737 25.6241 34.1328 24.6556 32.4857C24.5417 31.8061 24.8151 31.4605 25.0202 31.0113C24.3822 31.3454 24.1543 31.6564 23.7099 32.1286L23.5846 32.2553C23.1745 32.1747 23.4365 32.2438 23.0035 32.0365C23.2542 32.4972 23.0833 32.1517 23.6188 32.6239L23.7669 32.7852C21.0894 32.0365 18.7537 27.8898 20.2235 24.2154C20.5425 23.4206 20.9299 22.8217 21.3515 22.1536C21.568 21.808 21.7616 21.5892 22.0465 21.2666C23.1175 20.0457 24.7809 18.053 25.3506 16.6247L25.3278 16.7975C25.8292 16.4519 25.8178 15.8529 25.9773 15.3231C26.6495 15.3346 27.128 15.7147 27.5724 16.21L28.518 17.0854C29.0194 17.5001 28.6889 17.3849 29.0649 17.8917C29.1333 17.9839 29.327 18.1682 29.4295 18.2488C30.1587 18.8823 29.965 18.5598 30.3866 19.3776C30.6714 19.942 30.8195 19.7462 31.0246 20.1954C31.2525 20.6907 30.9563 20.6446 31.5373 21.2091L31.5032 20.9326C33.873 24.6646 34.568 28.1893 31.5032 31.7831C29.2358 34.4438 23.9606 35.158 21.4768 31.7946C22.149 32.5202 23.6986 33.3496 25.1797 33.4648C30.2613 33.8794 32.3349 28.9956 31.9931 25.1369L31.788 24.2039C31.7766 24.1808 31.7424 24.1693 31.731 24.1117C31.7196 24.0657 31.6968 24.0541 31.6741 24.0196C31.7538 24.6416 31.9133 24.8719 31.355 25.0908H31.3209L31.2981 25.1023C31.2297 25.1714 31.2753 25.5055 31.036 25.8741L29.9422 26.3002Z" fill="black"/>
<path fill-rule="evenodd" clip-rule="evenodd" d="M25.3396 15.5991C25.0433 16.7164 24.3711 16.486 23.8128 18.4788C23.6191 19.1814 19.0617 22.0841 19.0617 26.3344C19.0617 27.1868 18.7427 28.6381 18.7427 30.0434C18.7427 32.3816 19.2668 31.1837 19.8592 32.923C19.8592 32.9345 20.9416 34.0864 21.0784 34.0979C21.3632 34.1324 22.5823 35.8142 24.0863 34.3513C24.3939 34.0518 26.0346 26.104 26.046 25.8852C26.1143 25.1365 26.251 17.2348 25.4877 16.44C25.3168 16.2672 25.2712 15.841 25.3396 15.5991Z" fill="white"/>
<path d="M25.3396 15.5991C25.0433 16.7164 24.3711 16.486 23.8128 18.4788C23.6191 19.1814 19.0617 22.0841 19.0617 26.3344C19.0617 27.1868 18.7427 28.6381 18.7427 30.0434C18.7427 32.3816 19.2668 31.1837 19.8592 32.923C19.8592 32.9345 20.9416 34.0864 21.0784 34.0979C21.3632 34.1324 22.5823 35.8142 24.0863 34.3513C24.3939 34.0518 26.0346 26.104 26.046 25.8852C26.1143 25.1365 26.251 17.2348 25.4877 16.44C25.3168 16.2672 25.2712 15.841 25.3396 15.5991Z" stroke="black" stroke-width="0.508079" stroke-miterlimit="22.926"/>
<path fill-rule="evenodd" clip-rule="evenodd" d="M24.1658 22.9939C23.6303 23.5583 23.5278 26.2652 23.4139 27.0024C23.2088 28.327 22.9809 29.4673 22.5252 30.7228C22.2745 31.414 22.3657 31.725 22.2631 32.4161C22.2175 32.7271 22.1378 34.0978 22.3315 34.3281C22.4682 34.4894 22.1948 34.6391 22.8556 34.881C23.0721 34.9617 22.7303 35.0653 23.3113 35.3187C24.4051 35.791 25.7837 35.791 26.9914 35.8025C27.1054 35.8025 28.1422 35.4454 28.7461 35.457C29.9538 35.4685 29.2246 35.2727 30.2842 34.9041C30.4323 34.858 31.4235 34.0517 32.0958 33.7983C32.7338 33.5564 32.6996 32.6004 33.2123 32.1511C33.7706 31.6558 34.7391 29.7207 34.7391 29.0066C34.7391 28.3846 35.0467 25.5626 34.6251 25.194C34.0669 24.7102 34.4428 23.4432 33.6567 22.8903C33.3718 22.6944 33.8162 22.6369 33.087 22.1761C32.4945 21.8075 32.2211 20.552 31.7426 20.3216C30.7058 19.8263 30.8425 19.8609 29.4183 20.3332C28.9056 20.5059 27.1396 20.9321 26.8205 21.2546C25.5559 22.5677 25.271 21.819 24.1658 22.9939Z" fill="white"/>
<path fill-rule="evenodd" clip-rule="evenodd" d="M23.6986 16.6362L24.1771 16.3828C24.6328 16.0718 24.3822 15.7493 24.9632 15.0121C25.1569 14.7702 25.6241 13.7911 26.6153 13.8142C27.5382 13.9294 26.7065 13.8487 27.1622 14.1828C27.5724 14.4822 27.3787 14.2634 27.5952 14.0906C27.6407 14.6781 27.5382 14.4707 28.1079 14.7241L26.376 10.6235C26.2735 10.7848 25.8975 12.5702 25.305 13.7566C24.8607 14.632 23.9492 15.876 23.6986 16.6362ZM29.5662 24.4342L29.589 24.6416C29.8853 24.9065 29.7144 24.3882 29.9194 24.9411C29.965 24.1232 30.079 23.9159 30.0106 23.2133C29.8967 22.1421 30.0904 22.1305 29.2814 21.0939L28.894 20.6331C28.3243 19.8844 28.0167 20.3336 27.7775 19.1818C27.185 19.3546 27.5724 19.1472 27.2192 19.5504C27.0369 19.1242 27.3559 19.3891 26.9343 19.1588C26.4558 18.8938 25.6469 19.1357 25.2139 19.32C25.0544 19.8268 25.1911 19.4928 25.1911 20.0342C24.8151 20.1378 24.9974 20.1033 24.7126 20.2645L23.8239 20.8635C23.4935 21.1745 23.5732 21.2206 23.1289 21.5085C22.263 22.0845 22.9694 22.1536 22.8896 22.6834C22.7073 23.1557 22.8896 22.5452 22.6503 22.9944C22.468 23.34 22.6048 23.1787 22.4794 23.4552C22.3655 23.7316 22.1376 23.7892 22.0123 24.0656C21.8984 24.3075 21.6933 25.7358 21.6933 26.1159L22.1376 26.3578C22.1376 27.3024 22.2288 26.6804 22.0921 27.4982C21.8642 28.8343 22.6503 29.9747 23.9264 29.9631C24.1087 29.7328 24.1201 29.4563 24.1543 29.1684C24.4961 29.1568 24.8265 29.0877 25.1455 28.9956C25.8747 28.7882 25.795 28.65 26.0684 28.4081L26.3419 28.2123C26.3647 28.2008 26.3988 28.1778 26.4216 28.1662L26.8546 27.8668C27.7775 27.2678 27.2989 28.0395 27.8572 27.2563C27.8686 27.2448 27.9825 27.0374 27.9939 27.0144C28.5522 25.9086 28.2218 26.6688 28.5864 26.1505C28.6092 26.1275 28.6206 26.0929 28.632 26.0699C29.1447 25.2521 28.5636 25.8395 29.2472 25.4248L29.1219 24.0196C29.1903 23.6049 29.0421 23.8814 29.3042 23.6049C29.4181 23.9159 29.5321 24.0541 29.5662 24.4342ZM25.3392 16.7859C23.1631 21.2667 19.0158 23.363 20.6109 28.65C20.9527 29.8019 22.1148 31.8867 23.0149 32.0365C23.4365 32.2438 23.1745 32.1747 23.596 32.2553L23.7213 32.1286C24.1657 31.6564 24.3822 31.3454 25.0316 31.0113C25.3506 30.9422 25.7266 30.3893 26.5925 29.871C29.1903 28.3045 29.4637 27.7516 29.4523 24.9987C29.4523 24.3882 29.5093 24.5149 29.5776 24.4342C29.5435 24.0426 29.4295 23.9159 29.3498 23.6049C29.0877 23.8814 29.2358 23.6049 29.1675 24.0196L29.2928 25.4248C28.6092 25.8395 29.1789 25.2405 28.6775 26.0699C28.6662 26.0929 28.6434 26.1275 28.632 26.1505C28.2674 26.6688 28.5864 25.9086 28.0395 27.0144C28.0281 27.0374 27.9142 27.2332 27.9028 27.2563C27.3445 28.0395 27.823 27.2563 26.9002 27.8668L26.4672 28.1662C26.4444 28.1778 26.4102 28.2008 26.3874 28.2123L26.114 28.4081C25.8405 28.65 25.9203 28.7882 25.1911 28.9956C24.8721 29.0877 24.5417 29.1568 24.1999 29.1684C24.1771 29.4563 24.1543 29.7328 23.972 29.9631C22.6959 29.9747 21.9098 28.8343 22.1376 27.4982C22.2744 26.6804 22.1832 27.3024 22.1832 26.3578L21.7389 26.1159C21.7389 25.7358 21.9439 24.3191 22.0579 24.0656C22.1832 23.7892 22.4111 23.7316 22.525 23.4552C22.639 23.1787 22.5022 23.34 22.6959 22.9944C22.9466 22.5452 22.7643 23.1557 22.9352 22.6834C23.0149 22.1536 22.3085 22.0845 23.1745 21.5085C23.6074 21.2206 23.5277 21.1745 23.8695 20.8635L24.7582 20.2645C25.043 20.0918 24.8493 20.1378 25.2367 20.0342C25.2367 19.4928 25.1 19.8268 25.2595 19.32C25.6924 19.1357 26.5014 18.8938 26.9799 19.1588C27.4015 19.3891 27.0711 19.1242 27.2647 19.5504C27.6179 19.1588 27.2306 19.3546 27.823 19.1818C28.0623 20.3336 28.3813 19.8844 28.9396 20.6331L29.327 21.0939C30.1359 22.1305 29.9422 22.1421 30.0562 23.2133C30.1245 23.9274 30.0106 24.1232 29.965 24.9411C29.7599 24.3882 29.9308 24.9065 29.6346 24.6416L29.9878 26.3002L31.0588 25.8741C31.2981 25.4939 31.2525 25.1599 31.3209 25.1023L31.3436 25.0908H31.3778C31.9361 24.8719 31.7766 24.6531 31.6968 24.0196C31.7766 23.2018 31.2297 22.7065 31.2069 22.1996C31.1955 21.8771 31.1727 22.119 31.2525 21.9808C32.483 24.3191 32.6425 25.7128 32.4602 28.6961C33.4401 27.0489 32.426 22.3724 31.5601 21.2091C30.9791 20.6446 31.2753 20.6907 31.0474 20.1954C30.8423 19.7462 30.7056 19.942 30.4094 19.3776C29.9878 18.5598 30.1929 18.8708 29.4523 18.2488C29.3612 18.1682 29.1561 17.9839 29.0877 17.8917C28.7117 17.3849 29.0421 17.5001 28.5408 17.0854L27.5952 16.21C27.1508 15.7147 26.6723 15.3461 26.0001 15.3231C25.8292 15.8414 25.8405 16.4404 25.3392 16.7859ZM23.6986 16.6362C23.3909 16.8781 22.3199 18.6289 21.887 19.2394C19.7678 22.1881 17.5232 24.4112 17.8878 28.7998C18.1157 31.4605 19.4374 33.3035 21.1806 34.5475C27.1736 38.8324 37.4506 34.0868 35.1719 25.4018C34.3516 22.2688 31.6968 19.6425 29.8055 17.2582C29.4979 16.8781 29.1789 16.4289 28.894 15.9681C28.6662 15.5995 28.3585 14.9775 28.1079 14.7126C27.5382 14.4592 27.6521 14.6781 27.5952 14.0791C27.3901 14.2519 27.5838 14.4707 27.1622 14.1712C26.7065 13.8372 27.5382 13.9178 26.6153 13.8026C25.6241 13.7796 25.1569 14.7587 24.9632 15.0006C24.3822 15.7378 24.6328 16.0603 24.1771 16.3713L23.6986 16.6362ZM32.859 22.1305C33.3489 23.0981 33.6679 22.9368 34.192 25.0332C35.1035 28.6731 33.5198 32.5663 30.4891 34.3287C27.3445 36.1601 23.539 36.2638 20.9071 33.2114C20.3716 32.5894 19.4715 31.2647 19.3462 30.2626C19.9045 31.2532 20.1779 32.1056 20.9755 32.9004C23.6986 35.6418 26.752 35.9528 30.2385 34.0407C34.2604 31.8522 35.1491 26.1275 32.859 22.1305ZM29.9422 26.3002C30.2043 28.3736 29.8739 30.4124 28.9282 31.76C28.2218 32.7737 25.6241 34.1328 24.6556 32.4857C24.5417 31.8061 24.8151 31.4605 25.0202 31.0113C24.3822 31.3454 24.1543 31.6564 23.7099 32.1286L23.5846 32.2553C23.1745 32.1747 23.4365 32.2438 23.0035 32.0365C23.2542 32.4972 23.0833 32.1517 23.6188 32.6239L23.7669 32.7852C21.0894 32.0365 18.7537 27.8898 20.2235 24.2154C20.5425 23.4206 20.9299 22.8217 21.3515 22.1536C21.568 21.808 21.7616 21.5892 22.0465 21.2666C23.1175 20.0457 24.7809 18.053 25.3506 16.6247L25.3278 16.7975C25.8292 16.4519 25.8178 15.8529 25.9773 15.3231C26.6495 15.3346 27.128 15.7147 27.5724 16.21L28.518 17.0854C29.0194 17.5001 28.6889 17.3849 29.0649 17.8917C29.1333 17.9839 29.327 18.1682 29.4295 18.2488C30.1587 18.8823 29.965 18.5598 30.3866 19.3776C30.6714 19.942 30.8195 19.7462 31.0246 20.1954C31.2525 20.6907 30.9563 20.6446 31.5373 21.2091L31.5032 20.9326C33.873 24.6646 34.568 28.1893 31.5032 31.7831C29.2358 34.4438 23.9606 35.158 21.4768 31.7946C22.149 32.5202 23.6986 33.3496 25.1797 33.4648C30.2613 33.8794 32.3349 28.9956 31.9931 25.1369L31.788 24.2039C31.7766 24.1808 31.7424 24.1693 31.731 24.1117C31.7196 24.0657 31.6968 24.0541 31.6741 24.0196C31.7538 24.6416 31.9133 24.8719 31.355 25.0908H31.3209L31.2981 25.1023C31.2297 25.1714 31.2753 25.5055 31.036 25.8741L29.9422 26.3002Z" fill="black"/>
<path d="M16.8522 48.5786H15.0402V44.8826H11.6442V48.5786H9.83221V40.0106H11.6442V43.3706H15.0402V40.0106H16.8522V48.5786ZM26.748 48.5786H24.936V44.8826H21.54V48.5786H19.728V40.0106H21.54V43.3706H24.936V40.0106H26.748V48.5786ZM35.0358 40.0106V41.5106H31.4358V48.5786H29.6238V40.0106H35.0358ZM37.0703 48.5786V40.0106H43.8503V48.5786H42.0383V41.5226H38.8823V48.5786H37.0703Z" fill="white"/>
</svg>
