<svg width="219" height="59" viewBox="0 0 219 59" fill="none" xmlns="http://www.w3.org/2000/svg">
<g clip-path="url(#clip0)">
<path d="M57.6929 0.63208H0.00976562V58.2906H57.6929V0.63208Z" fill="#ED1A3A"/>
<path d="M48.3668 6.38067C47.0345 6.38067 46.0476 7.26887 45.5295 8.30509L38.2759 20.2464C37.7825 21.3566 37.4124 22.5902 37.4124 23.4044C37.4124 24.1445 37.5111 24.786 37.7825 25.3781L45.6282 44.1289H15.1089C13.9987 44.1289 13.1105 43.0186 13.1105 42.0071V9.68673C12.8884 5.27043 6.52303 5.27043 6.375 9.83476L6.52303 44.1289C6.52303 47.8544 9.40966 50.8397 13.1105 50.8397H54.7075L44.5673 24.9094C44.2959 23.9472 44.1725 23.059 44.8387 21.9241L51.5495 11.019C51.6482 10.797 51.7715 9.83476 51.7715 9.56337C51.6482 7.61428 50.0938 6.30666 48.3668 6.38067ZM31.8859 6.40535C30.2575 6.40535 28.6292 7.54026 28.6292 9.76074V32.8784C28.6292 36.2338 24.1142 35.9624 24.1142 32.8784V9.73607C24.1142 5.31978 17.5761 5.31978 17.5761 9.73607V33.0511C17.5761 38.3803 21.5483 41.9331 26.31 41.9331C31.1951 41.9331 35.1672 38.3803 35.1672 33.0511V9.73607C35.1672 7.49091 33.5389 6.38067 31.8859 6.40535Z" fill="white"/>
<path d="M68.9928 7.41687V22.6642C68.9928 26.4883 68.5981 28.5855 65.4894 28.5855C64.8973 28.5855 64.5272 28.5855 63.9351 28.3634V34.9262C65.0946 35.3456 65.8841 35.3456 66.8464 35.3456C75.5802 35.3456 75.975 28.7828 75.975 24.9587V13.9796H81.0081V34.9508H87.9903V7.41687H68.9928Z" fill="black"/>
<path d="M90.3096 7.41687L99.8083 27.3272L96.3295 34.9509H103.904L115.154 7.41687H107.58L103.509 19.0621L98.6487 7.41687H90.3096Z" fill="black"/>
<path d="M117.276 34.9509H124.258V23.0836L131.438 34.9509H140.369L130.475 20.7644L140.172 7.41687H131.832L124.283 19.0621V7.41687H117.276V34.9509Z" fill="black"/>
<path d="M151.817 35.8144C161.118 35.8144 165.386 28.6101 165.386 21.1839C165.386 13.9796 161.118 6.77539 151.817 6.77539C142.688 6.77539 138.42 13.9796 138.42 21.1839C138.445 28.6101 142.688 35.8144 151.817 35.8144ZM151.817 29.2269C148.708 29.2269 145.599 26.4637 145.599 21.1839C145.599 15.904 148.708 13.3382 151.817 13.3382C155.123 13.3382 158.207 15.8794 158.207 21.1839C158.207 26.4883 155.123 29.2269 151.817 29.2269Z" fill="black"/>
<path d="M168.89 7.41688V34.9509H175.674L185.371 18.4206V34.9509H192.155V7.41688H185.371L175.674 23.9471V7.41688H168.89ZM180.732 5.93656C183.644 5.93656 186.555 4.87566 187.912 1.69297L183.841 -0.00939941C183.249 2.11239 181.522 2.30977 180.732 2.30977C180.14 2.30977 178.216 2.08772 177.821 -0.00939941L173.75 1.69297C174.91 4.87566 178.018 5.93656 180.732 5.93656Z" fill="black"/>
<path d="M199.532 7.41687V22.6642C199.532 26.4883 199.138 28.5855 196.029 28.5855C195.437 28.5855 195.067 28.5855 194.475 28.3634V34.9262C195.634 35.3456 196.424 35.3456 197.386 35.3456C206.12 35.3456 206.515 28.7828 206.515 24.9587V13.9796H211.548V34.9508H218.53V7.41687H199.532Z" fill="black"/>
<path d="M63.9844 50.4202H64.9713V45.3131H70.7198V50.4202H71.7067V40.4033H70.7198V44.4989H64.9713V40.4033H63.9844V50.4202Z" fill="black"/>
<path d="M74.1987 50.4203H79.5772V49.6061H75.1856V45.2145H79.4045V44.4003H75.1856V41.193H79.5772V40.3788H74.1987V50.4203Z" fill="black"/>
<path d="M86.0658 50.4203H87.028V49.0386H87.4474C90.6794 49.0386 92.0364 47.1142 92.0364 45.1158C92.0364 42.7719 90.3094 41.2176 87.4474 41.2176H87.028V40.0087H86.0658V41.2176H85.671C82.8091 41.2176 81.082 42.7719 81.082 45.1158C81.082 47.1142 82.4143 49.0386 85.671 49.0386H86.0658V50.4203ZM87.028 42.0071C90.2847 42.0564 91.0002 43.5614 91.0002 45.1158C91.0002 47.5336 89.3965 48.1504 87.028 48.2245V42.0071ZM86.0658 48.2245C83.6973 48.1504 82.0936 47.509 82.0936 45.1158C82.0936 43.5614 82.8091 42.0564 86.0658 42.0071V48.2245Z" fill="black"/>
<path d="M95.5645 50.4202H96.502V41.2175H99.1666V40.4033H92.8999V41.2175H95.5645V50.4202Z" fill="black"/>
<path d="M100.351 50.4202H101.461L104.126 46.0285H104.964V50.4202H105.951V40.4033H103.632C100.597 40.4033 100.153 42.4264 100.153 43.3146C100.153 45.017 101.486 46.0285 103.04 45.9792L100.351 50.4202ZM104.964 45.2144H103.533C102.719 45.2144 101.14 45.1157 101.14 43.2159C101.14 41.3655 102.843 41.2175 103.632 41.2175H104.964V45.2144Z" fill="black"/>
<path d="M108.468 50.4202H109.455V45.3131H115.203V50.4202H116.19V40.4033H115.203V44.4989H109.455V40.4033H108.468V50.4202Z" fill="black"/>
<path d="M117.597 50.4202H118.584L119.965 47.1635H124.184L125.566 50.4202H126.553L122.062 40.1566L117.597 50.4202ZM120.311 46.374L122.038 42.2784L123.814 46.374H120.311Z" fill="black"/>
<path d="M127.688 50.4202H128.798L131.462 46.0285H132.301V50.4202H133.288V40.4033H130.969C127.934 40.4033 127.49 42.4264 127.49 43.3146C127.49 45.017 128.823 46.0285 130.377 45.9792L127.688 50.4202ZM132.301 45.2144H130.87C130.056 45.2144 128.452 45.1157 128.452 43.2159C128.452 41.3655 130.155 41.2175 130.944 41.2175H132.277V45.2144" fill="black"/>
<path d="M139.111 50.4202H140.097V45.5598L144.588 50.4202H145.871L141.01 45.2637L145.772 40.4033H144.563L140.073 45.0663V40.4033H139.086V50.4202" fill="black"/>
<path d="M152.211 50.7162C155.197 50.7162 157.639 48.5698 157.639 45.4118C157.639 42.2538 155.197 40.132 152.211 40.132C149.276 40.132 146.833 42.2538 146.833 45.4118C146.833 48.5698 149.276 50.7162 152.211 50.7162ZM152.211 49.8774C149.769 49.8774 147.845 48.0517 147.845 45.4118C147.845 42.7965 149.769 40.9215 152.211 40.9215C154.654 40.9215 156.603 42.7965 156.603 45.4118C156.628 48.0517 154.679 49.8774 152.211 49.8774Z" fill="black"/>
<path d="M158.996 50.4203H159.934L160.871 43.0187L164.572 50.8644L168.223 43.0187L169.21 50.4203H170.099L168.717 40.0087L164.572 48.9646L160.378 40.0087L158.996 50.4203Z" fill="black"/>
<path d="M171.924 40.4033V50.4202H172.911V41.2175H178.66V50.4202H179.647V40.4033H171.924Z" fill="black"/>
<path d="M181.078 50.4202H182.065L183.446 47.1635H187.665L189.047 50.4202H190.034L185.543 40.1566L181.078 50.4202ZM183.792 46.374L185.519 42.2784L187.295 46.374H183.792Z" fill="black"/>
<path d="M191.416 50.4202H192.402V45.3131H198.151V50.4202H199.138V40.4033H198.151V44.4989H192.402V40.4033H191.416V50.4202Z" fill="black"/>
<path d="M201.629 40.4034V50.8644L208.488 42.4759V50.3956H209.45V39.984L202.616 48.2985V40.3788H201.629" fill="black"/>
<path d="M211.671 50.4202H212.781L215.446 46.0285H216.285V50.4202H217.271V40.4033H214.952C211.918 40.4033 211.474 42.4264 211.474 43.3146C211.474 45.017 212.806 46.0285 214.36 45.9792L211.671 50.4202ZM216.285 45.2144H214.854C214.04 45.2144 212.461 45.1157 212.461 43.2159C212.461 41.3655 214.163 41.2175 214.952 41.2175H216.285V45.2144Z" fill="black"/>
</g>
<defs>
<clipPath id="clip0">
<rect width="218.545" height="58.3" fill="white"/>
</clipPath>
</defs>
</svg>
