<svg width="54" height="60" viewBox="0 0 54 60" fill="none" xmlns="http://www.w3.org/2000/svg">
<path d="M26.5584 0L0 15.0202V44.6228L26.3419 60L53.3333 44.2427V15.0662L26.5584 0Z" fill="black"/>
<path fill-rule="evenodd" clip-rule="evenodd" d="M52.7296 15.4004L26.5586 0.679688L0.604004 15.3543V44.2888L26.3535 59.3205L52.7296 43.9202V15.4004Z" fill="white"/>
<path fill-rule="evenodd" clip-rule="evenodd" d="M52.114 15.7455L26.5696 1.35889L1.20752 15.6995V43.9544L26.3531 58.629L52.114 43.5973V15.7455Z" fill="#CC0A0A"/>
<path fill-rule="evenodd" clip-rule="evenodd" d="M25.3396 11.5991C25.0433 12.7164 24.3711 12.486 23.8128 14.4788C23.6191 15.1814 19.0617 18.0841 19.0617 22.3344C19.0617 23.1868 18.7427 24.6381 18.7427 26.0434C18.7427 28.3816 19.2668 27.1837 19.8592 28.923C19.8592 28.9345 20.9416 30.0864 21.0784 30.0979C21.3632 30.1324 22.5823 31.8142 24.0863 30.3513C24.3939 30.0518 26.0346 22.104 26.046 21.8852C26.1143 21.1365 26.251 13.2348 25.4877 12.44C25.3168 12.2672 25.2712 11.841 25.3396 11.5991Z" fill="#11D6D6"/>
<path d="M25.3396 11.5991C25.0433 12.7164 24.3711 12.486 23.8128 14.4788C23.6191 15.1814 19.0617 18.0841 19.0617 22.3344C19.0617 23.1868 18.7427 24.6381 18.7427 26.0434C18.7427 28.3816 19.2668 27.1837 19.8592 28.923C19.8592 28.9345 20.9416 30.0864 21.0784 30.0979C21.3632 30.1324 22.5823 31.8142 24.0863 30.3513C24.3939 30.0518 26.0346 22.104 26.046 21.8852C26.1143 21.1365 26.251 13.2348 25.4877 12.44C25.3168 12.2672 25.2712 11.841 25.3396 11.5991Z" stroke="black" stroke-width="0.508079" stroke-miterlimit="22.926"/>
<path fill-rule="evenodd" clip-rule="evenodd" d="M24.1658 18.9939C23.6303 19.5583 23.5278 22.2652 23.4139 23.0024C23.2088 24.327 22.9809 25.4673 22.5252 26.7228C22.2745 27.414 22.3657 27.725 22.2631 28.4161C22.2175 28.7271 22.1378 30.0978 22.3315 30.3281C22.4682 30.4894 22.1948 30.6391 22.8556 30.881C23.0721 30.9617 22.7303 31.0653 23.3113 31.3187C24.4051 31.791 25.7837 31.791 26.9914 31.8025C27.1054 31.8025 28.1422 31.4454 28.7461 31.457C29.9538 31.4685 29.2246 31.2727 30.2842 30.9041C30.4323 30.858 31.4235 30.0517 32.0958 29.7983C32.7338 29.5564 32.6996 28.6004 33.2123 28.1511C33.7706 27.6558 34.7391 25.7207 34.7391 25.0066C34.7391 24.3846 35.0467 21.5626 34.6251 21.194C34.0669 20.7102 34.4428 19.4432 33.6567 18.8903C33.3718 18.6944 33.8162 18.6369 33.087 18.1761C32.4945 17.8075 32.2211 16.552 31.7426 16.3216C30.7058 15.8263 30.8425 15.8609 29.4183 16.3332C28.9056 16.5059 27.1396 16.9321 26.8205 17.2546C25.5559 18.5677 25.271 17.819 24.1658 18.9939Z" fill="#11D6D6"/>
<path fill-rule="evenodd" clip-rule="evenodd" d="M23.6986 12.6362L24.1771 12.3828C24.6328 12.0718 24.3822 11.7493 24.9632 11.0121C25.1569 10.7702 25.6241 9.79113 26.6153 9.81417C27.5382 9.92935 26.7065 9.84872 27.1622 10.1828C27.5724 10.4822 27.3787 10.2634 27.5952 10.0906C27.6407 10.6781 27.5382 10.4707 28.1079 10.7241L26.376 6.62354C26.2735 6.78479 25.8975 8.57017 25.305 9.75657C24.8607 10.632 23.9492 11.876 23.6986 12.6362ZM29.5662 20.4342L29.589 20.6416C29.8853 20.9065 29.7144 20.3882 29.9194 20.9411C29.965 20.1232 30.079 19.9159 30.0106 19.2133C29.8967 18.1421 30.0904 18.1305 29.2814 17.0939L28.894 16.6331C28.3243 15.8844 28.0167 16.3336 27.7775 15.1818C27.185 15.3546 27.5724 15.1472 27.2192 15.5504C27.0369 15.1242 27.3559 15.3891 26.9343 15.1588C26.4558 14.8938 25.6469 15.1357 25.2139 15.32C25.0544 15.8268 25.1911 15.4928 25.1911 16.0342C24.8151 16.1378 24.9974 16.1033 24.7126 16.2645L23.8239 16.8635C23.4935 17.1745 23.5732 17.2206 23.1289 17.5085C22.263 18.0845 22.9694 18.1536 22.8896 18.6834C22.7073 19.1557 22.8896 18.5452 22.6503 18.9944C22.468 19.34 22.6048 19.1787 22.4794 19.4552C22.3655 19.7316 22.1376 19.7892 22.0123 20.0656C21.8984 20.3075 21.6933 21.7358 21.6933 22.1159L22.1376 22.3578C22.1376 23.3024 22.2288 22.6804 22.0921 23.4982C21.8642 24.8343 22.6503 25.9747 23.9264 25.9631C24.1087 25.7328 24.1201 25.4563 24.1543 25.1684C24.4961 25.1568 24.8265 25.0877 25.1455 24.9956C25.8747 24.7882 25.795 24.65 26.0684 24.4081L26.3419 24.2123C26.3647 24.2008 26.3988 24.1778 26.4216 24.1662L26.8546 23.8668C27.7775 23.2678 27.2989 24.0395 27.8572 23.2563C27.8686 23.2448 27.9825 23.0374 27.9939 23.0144C28.5522 21.9086 28.2218 22.6688 28.5864 22.1505C28.6092 22.1275 28.6206 22.0929 28.632 22.0699C29.1447 21.2521 28.5636 21.8395 29.2472 21.4248L29.1219 20.0196C29.1903 19.6049 29.0421 19.8814 29.3042 19.6049C29.4181 19.9159 29.5321 20.0541 29.5662 20.4342ZM25.3392 12.7859C23.1631 17.2667 19.0158 19.363 20.6109 24.65C20.9527 25.8019 22.1148 27.8867 23.0149 28.0365C23.4365 28.2438 23.1745 28.1747 23.596 28.2553L23.7213 28.1286C24.1657 27.6564 24.3822 27.3454 25.0316 27.0113C25.3506 26.9422 25.7266 26.3893 26.5925 25.871C29.1903 24.3045 29.4637 23.7516 29.4523 20.9987C29.4523 20.3882 29.5093 20.5149 29.5776 20.4342C29.5435 20.0426 29.4295 19.9159 29.3498 19.6049C29.0877 19.8814 29.2358 19.6049 29.1675 20.0196L29.2928 21.4248C28.6092 21.8395 29.1789 21.2405 28.6775 22.0699C28.6662 22.0929 28.6434 22.1275 28.632 22.1505C28.2674 22.6688 28.5864 21.9086 28.0395 23.0144C28.0281 23.0374 27.9142 23.2332 27.9028 23.2563C27.3445 24.0395 27.823 23.2563 26.9002 23.8668L26.4672 24.1662C26.4444 24.1778 26.4102 24.2008 26.3874 24.2123L26.114 24.4081C25.8405 24.65 25.9203 24.7882 25.1911 24.9956C24.8721 25.0877 24.5417 25.1568 24.1999 25.1684C24.1771 25.4563 24.1543 25.7328 23.972 25.9631C22.6959 25.9747 21.9098 24.8343 22.1376 23.4982C22.2744 22.6804 22.1832 23.3024 22.1832 22.3578L21.7389 22.1159C21.7389 21.7358 21.9439 20.3191 22.0579 20.0656C22.1832 19.7892 22.4111 19.7316 22.525 19.4552C22.639 19.1787 22.5022 19.34 22.6959 18.9944C22.9466 18.5452 22.7643 19.1557 22.9352 18.6834C23.0149 18.1536 22.3085 18.0845 23.1744 17.5085C23.6074 17.2206 23.5277 17.1745 23.8695 16.8635L24.7582 16.2645C25.043 16.0918 24.8493 16.1378 25.2367 16.0342C25.2367 15.4928 25.1 15.8268 25.2595 15.32C25.6924 15.1357 26.5014 14.8938 26.9799 15.1588C27.4015 15.3891 27.0711 15.1242 27.2647 15.5504C27.6179 15.1588 27.2306 15.3546 27.823 15.1818C28.0623 16.3336 28.3813 15.8844 28.9396 16.6331L29.327 17.0939C30.1359 18.1305 29.9422 18.1421 30.0562 19.2133C30.1245 19.9274 30.0106 20.1232 29.965 20.9411C29.7599 20.3882 29.9308 20.9065 29.6346 20.6416L29.9878 22.3002L31.0588 21.8741C31.2981 21.4939 31.2525 21.1599 31.3209 21.1023L31.3436 21.0908H31.3778C31.9361 20.8719 31.7766 20.6531 31.6968 20.0196C31.7766 19.2018 31.2297 18.7065 31.2069 18.1996C31.1955 17.8771 31.1727 18.119 31.2525 17.9808C32.483 20.3191 32.6425 21.7128 32.4602 24.6961C33.4401 23.0489 32.426 18.3724 31.5601 17.2091C30.979 16.6446 31.2753 16.6907 31.0474 16.1954C30.8423 15.7462 30.7056 15.942 30.4094 15.3776C29.9878 14.5598 30.1929 14.8708 29.4523 14.2488C29.3612 14.1682 29.1561 13.9839 29.0877 13.8917C28.7117 13.3849 29.0421 13.5001 28.5408 13.0854L27.5952 12.21C27.1508 11.7147 26.6723 11.3461 26.0001 11.3231C25.8292 11.8414 25.8405 12.4404 25.3392 12.7859ZM23.6986 12.6362C23.3909 12.8781 22.3199 14.6289 21.887 15.2394C19.7678 18.1881 17.5232 20.4112 17.8878 24.7998C18.1157 27.4605 19.4374 29.3035 21.1806 30.5475C27.1736 34.8324 37.4506 30.0868 35.1719 21.4018C34.3515 18.2688 31.6968 15.6425 29.8055 13.2582C29.4979 12.8781 29.1789 12.4289 28.894 11.9681C28.6662 11.5995 28.3585 10.9775 28.1079 10.7126C27.5382 10.4592 27.6521 10.6781 27.5952 10.0791C27.3901 10.2519 27.5838 10.4707 27.1622 10.1712C26.7065 9.8372 27.5382 9.91783 26.6153 9.80265C25.6241 9.77961 25.1569 10.7587 24.9632 11.0006C24.3822 11.7378 24.6328 12.0603 24.1771 12.3713L23.6986 12.6362ZM32.859 18.1305C33.3489 19.0981 33.6679 18.9368 34.192 21.0332C35.1035 24.6731 33.5198 28.5663 30.4891 30.3287C27.3445 32.1601 23.539 32.2638 20.9071 29.2114C20.3716 28.5894 19.4715 27.2647 19.3462 26.2626C19.9045 27.2532 20.1779 28.1056 20.9755 28.9004C23.6986 31.6418 26.752 31.9528 30.2385 30.0407C34.2604 27.8522 35.1491 22.1275 32.859 18.1305ZM29.9422 22.3002C30.2043 24.3736 29.8739 26.4124 28.9282 27.76C28.2218 28.7737 25.6241 30.1328 24.6556 28.4857C24.5417 27.8061 24.8151 27.4605 25.0202 27.0113C24.3822 27.3454 24.1543 27.6564 23.7099 28.1286L23.5846 28.2553C23.1745 28.1747 23.4365 28.2438 23.0035 28.0365C23.2542 28.4972 23.0833 28.1517 23.6188 28.6239L23.7669 28.7852C21.0894 28.0365 18.7537 23.8898 20.2235 20.2154C20.5425 19.4206 20.9299 18.8217 21.3515 18.1536C21.568 17.808 21.7616 17.5892 22.0465 17.2666C23.1175 16.0457 24.7809 14.053 25.3506 12.6247L25.3278 12.7975C25.8292 12.4519 25.8178 11.8529 25.9773 11.3231C26.6495 11.3346 27.128 11.7147 27.5724 12.21L28.518 13.0854C29.0194 13.5001 28.6889 13.3849 29.0649 13.8917C29.1333 13.9839 29.327 14.1682 29.4295 14.2488C30.1587 14.8823 29.965 14.5598 30.3866 15.3776C30.6714 15.942 30.8195 15.7462 31.0246 16.1954C31.2525 16.6907 30.9563 16.6446 31.5373 17.2091L31.5032 16.9326C33.873 20.6646 34.568 24.1893 31.5032 27.7831C29.2358 30.4438 23.9606 31.158 21.4768 27.7946C22.149 28.5202 23.6986 29.3496 25.1797 29.4648C30.2613 29.8794 32.3349 24.9956 31.9931 21.1369L31.788 20.2039C31.7766 20.1808 31.7424 20.1693 31.731 20.1117C31.7196 20.0657 31.6968 20.0541 31.6741 20.0196C31.7538 20.6416 31.9133 20.8719 31.355 21.0908H31.3209L31.2981 21.1023C31.2297 21.1714 31.2753 21.5055 31.036 21.8741L29.9422 22.3002Z" fill="black"/>
<path fill-rule="evenodd" clip-rule="evenodd" d="M25.3396 11.5991C25.0433 12.7164 24.3711 12.486 23.8128 14.4788C23.6191 15.1814 19.0617 18.0841 19.0617 22.3344C19.0617 23.1868 18.7427 24.6381 18.7427 26.0434C18.7427 28.3816 19.2668 27.1837 19.8592 28.923C19.8592 28.9345 20.9416 30.0864 21.0784 30.0979C21.3632 30.1324 22.5823 31.8142 24.0863 30.3513C24.3939 30.0518 26.0346 22.104 26.046 21.8852C26.1143 21.1365 26.251 13.2348 25.4877 12.44C25.3168 12.2672 25.2712 11.841 25.3396 11.5991Z" fill="white"/>
<path d="M25.3396 11.5991C25.0433 12.7164 24.3711 12.486 23.8128 14.4788C23.6191 15.1814 19.0617 18.0841 19.0617 22.3344C19.0617 23.1868 18.7427 24.6381 18.7427 26.0434C18.7427 28.3816 19.2668 27.1837 19.8592 28.923C19.8592 28.9345 20.9416 30.0864 21.0784 30.0979C21.3632 30.1324 22.5823 31.8142 24.0863 30.3513C24.3939 30.0518 26.0346 22.104 26.046 21.8852C26.1143 21.1365 26.251 13.2348 25.4877 12.44C25.3168 12.2672 25.2712 11.841 25.3396 11.5991Z" stroke="black" stroke-width="0.508079" stroke-miterlimit="22.926"/>
<path fill-rule="evenodd" clip-rule="evenodd" d="M24.1658 18.9939C23.6303 19.5583 23.5278 22.2652 23.4139 23.0024C23.2088 24.327 22.9809 25.4673 22.5252 26.7228C22.2745 27.414 22.3657 27.725 22.2631 28.4161C22.2175 28.7271 22.1378 30.0978 22.3315 30.3281C22.4682 30.4894 22.1948 30.6391 22.8556 30.881C23.0721 30.9617 22.7303 31.0653 23.3113 31.3187C24.4051 31.791 25.7837 31.791 26.9914 31.8025C27.1054 31.8025 28.1422 31.4454 28.7461 31.457C29.9538 31.4685 29.2246 31.2727 30.2842 30.9041C30.4323 30.858 31.4235 30.0517 32.0958 29.7983C32.7338 29.5564 32.6996 28.6004 33.2123 28.1511C33.7706 27.6558 34.7391 25.7207 34.7391 25.0066C34.7391 24.3846 35.0467 21.5626 34.6251 21.194C34.0669 20.7102 34.4428 19.4432 33.6567 18.8903C33.3718 18.6944 33.8162 18.6369 33.087 18.1761C32.4945 17.8075 32.2211 16.552 31.7426 16.3216C30.7058 15.8263 30.8425 15.8609 29.4183 16.3332C28.9056 16.5059 27.1396 16.9321 26.8205 17.2546C25.5559 18.5677 25.271 17.819 24.1658 18.9939Z" fill="white"/>
<path fill-rule="evenodd" clip-rule="evenodd" d="M23.6986 12.6362L24.1771 12.3828C24.6328 12.0718 24.3822 11.7493 24.9632 11.0121C25.1569 10.7702 25.6241 9.79113 26.6153 9.81417C27.5382 9.92935 26.7065 9.84872 27.1622 10.1828C27.5724 10.4822 27.3787 10.2634 27.5952 10.0906C27.6407 10.6781 27.5382 10.4707 28.1079 10.7241L26.376 6.62354C26.2735 6.78479 25.8975 8.57016 25.305 9.75657C24.8607 10.632 23.9492 11.876 23.6986 12.6362ZM29.5662 20.4342L29.589 20.6416C29.8853 20.9065 29.7144 20.3882 29.9194 20.9411C29.965 20.1232 30.079 19.9159 30.0106 19.2133C29.8967 18.1421 30.0904 18.1305 29.2814 17.0939L28.894 16.6331C28.3243 15.8844 28.0167 16.3336 27.7775 15.1818C27.185 15.3546 27.5724 15.1472 27.2192 15.5504C27.0369 15.1242 27.3559 15.3891 26.9343 15.1588C26.4558 14.8938 25.6469 15.1357 25.2139 15.32C25.0544 15.8268 25.1911 15.4928 25.1911 16.0342C24.8151 16.1378 24.9974 16.1033 24.7126 16.2645L23.8239 16.8635C23.4935 17.1745 23.5732 17.2206 23.1289 17.5085C22.263 18.0845 22.9694 18.1536 22.8896 18.6834C22.7073 19.1557 22.8896 18.5452 22.6503 18.9944C22.468 19.34 22.6048 19.1787 22.4794 19.4552C22.3655 19.7316 22.1376 19.7892 22.0123 20.0656C21.8984 20.3075 21.6933 21.7358 21.6933 22.1159L22.1376 22.3578C22.1376 23.3024 22.2288 22.6804 22.0921 23.4982C21.8642 24.8343 22.6503 25.9747 23.9264 25.9631C24.1087 25.7328 24.1201 25.4563 24.1543 25.1684C24.4961 25.1568 24.8265 25.0877 25.1455 24.9956C25.8747 24.7882 25.795 24.65 26.0684 24.4081L26.3419 24.2123C26.3647 24.2008 26.3988 24.1778 26.4216 24.1662L26.8546 23.8668C27.7775 23.2678 27.2989 24.0395 27.8572 23.2563C27.8686 23.2448 27.9825 23.0374 27.9939 23.0144C28.5522 21.9086 28.2218 22.6688 28.5864 22.1505C28.6092 22.1275 28.6206 22.0929 28.632 22.0699C29.1447 21.2521 28.5636 21.8395 29.2472 21.4248L29.1219 20.0196C29.1903 19.6049 29.0421 19.8814 29.3042 19.6049C29.4181 19.9159 29.5321 20.0541 29.5662 20.4342ZM25.3392 12.7859C23.1631 17.2667 19.0158 19.363 20.6109 24.65C20.9527 25.8019 22.1148 27.8867 23.0149 28.0365C23.4365 28.2438 23.1745 28.1747 23.596 28.2553L23.7213 28.1286C24.1657 27.6564 24.3822 27.3454 25.0316 27.0113C25.3506 26.9422 25.7266 26.3893 26.5925 25.871C29.1903 24.3045 29.4637 23.7516 29.4523 20.9987C29.4523 20.3882 29.5093 20.5149 29.5776 20.4342C29.5435 20.0426 29.4295 19.9159 29.3498 19.6049C29.0877 19.8814 29.2358 19.6049 29.1675 20.0196L29.2928 21.4248C28.6092 21.8395 29.1789 21.2405 28.6775 22.0699C28.6662 22.0929 28.6434 22.1275 28.632 22.1505C28.2674 22.6688 28.5864 21.9086 28.0395 23.0144C28.0281 23.0374 27.9142 23.2332 27.9028 23.2563C27.3445 24.0395 27.823 23.2563 26.9002 23.8668L26.4672 24.1662C26.4444 24.1778 26.4102 24.2008 26.3874 24.2123L26.114 24.4081C25.8405 24.65 25.9203 24.7882 25.1911 24.9956C24.8721 25.0877 24.5417 25.1568 24.1999 25.1684C24.1771 25.4563 24.1543 25.7328 23.972 25.9631C22.6959 25.9747 21.9098 24.8343 22.1376 23.4982C22.2744 22.6804 22.1832 23.3024 22.1832 22.3578L21.7389 22.1159C21.7389 21.7358 21.9439 20.3191 22.0579 20.0656C22.1832 19.7892 22.4111 19.7316 22.525 19.4552C22.639 19.1787 22.5022 19.34 22.6959 18.9944C22.9466 18.5452 22.7643 19.1557 22.9352 18.6834C23.0149 18.1536 22.3085 18.0845 23.1745 17.5085C23.6074 17.2206 23.5277 17.1745 23.8695 16.8635L24.7582 16.2645C25.043 16.0918 24.8493 16.1378 25.2367 16.0342C25.2367 15.4928 25.1 15.8268 25.2595 15.32C25.6924 15.1357 26.5014 14.8938 26.9799 15.1588C27.4015 15.3891 27.0711 15.1242 27.2647 15.5504C27.6179 15.1588 27.2306 15.3546 27.823 15.1818C28.0623 16.3336 28.3813 15.8844 28.9396 16.6331L29.327 17.0939C30.1359 18.1305 29.9422 18.1421 30.0562 19.2133C30.1245 19.9274 30.0106 20.1232 29.965 20.9411C29.7599 20.3882 29.9308 20.9065 29.6346 20.6416L29.9878 22.3002L31.0588 21.8741C31.2981 21.4939 31.2525 21.1599 31.3209 21.1023L31.3436 21.0908H31.3778C31.9361 20.8719 31.7766 20.6531 31.6968 20.0196C31.7766 19.2018 31.2297 18.7065 31.2069 18.1996C31.1955 17.8771 31.1727 18.119 31.2525 17.9808C32.483 20.3191 32.6425 21.7128 32.4602 24.6961C33.4401 23.0489 32.426 18.3724 31.5601 17.2091C30.9791 16.6446 31.2753 16.6907 31.0474 16.1954C30.8423 15.7462 30.7056 15.942 30.4094 15.3776C29.9878 14.5598 30.1929 14.8708 29.4523 14.2488C29.3612 14.1682 29.1561 13.9839 29.0877 13.8917C28.7117 13.3849 29.0421 13.5001 28.5408 13.0854L27.5952 12.21C27.1508 11.7147 26.6723 11.3461 26.0001 11.3231C25.8292 11.8414 25.8405 12.4404 25.3392 12.7859ZM23.6986 12.6362C23.3909 12.8781 22.3199 14.6289 21.887 15.2394C19.7678 18.1881 17.5232 20.4112 17.8878 24.7998C18.1157 27.4605 19.4374 29.3035 21.1806 30.5475C27.1736 34.8324 37.4506 30.0868 35.1719 21.4018C34.3516 18.2688 31.6968 15.6425 29.8055 13.2582C29.4979 12.8781 29.1789 12.4289 28.894 11.9681C28.6662 11.5995 28.3585 10.9775 28.1079 10.7126C27.5382 10.4592 27.6521 10.6781 27.5952 10.0791C27.3901 10.2519 27.5838 10.4707 27.1622 10.1712C26.7065 9.8372 27.5382 9.91783 26.6153 9.80265C25.6241 9.77961 25.1569 10.7587 24.9632 11.0006C24.3822 11.7378 24.6328 12.0603 24.1771 12.3713L23.6986 12.6362ZM32.859 18.1305C33.3489 19.0981 33.6679 18.9368 34.192 21.0332C35.1035 24.6731 33.5198 28.5663 30.4891 30.3287C27.3445 32.1601 23.539 32.2638 20.9071 29.2114C20.3716 28.5894 19.4715 27.2647 19.3462 26.2626C19.9045 27.2532 20.1779 28.1056 20.9755 28.9004C23.6986 31.6418 26.752 31.9528 30.2385 30.0407C34.2604 27.8522 35.1491 22.1275 32.859 18.1305ZM29.9422 22.3002C30.2043 24.3736 29.8739 26.4124 28.9282 27.76C28.2218 28.7737 25.6241 30.1328 24.6556 28.4857C24.5417 27.8061 24.8151 27.4605 25.0202 27.0113C24.3822 27.3454 24.1543 27.6564 23.7099 28.1286L23.5846 28.2553C23.1745 28.1747 23.4365 28.2438 23.0035 28.0365C23.2542 28.4972 23.0833 28.1517 23.6188 28.6239L23.7669 28.7852C21.0894 28.0365 18.7537 23.8898 20.2235 20.2154C20.5425 19.4206 20.9299 18.8217 21.3515 18.1536C21.568 17.808 21.7616 17.5892 22.0465 17.2666C23.1175 16.0457 24.7809 14.053 25.3506 12.6247L25.3278 12.7975C25.8292 12.4519 25.8178 11.8529 25.9773 11.3231C26.6495 11.3346 27.128 11.7147 27.5724 12.21L28.518 13.0854C29.0194 13.5001 28.6889 13.3849 29.0649 13.8917C29.1333 13.9839 29.327 14.1682 29.4295 14.2488C30.1587 14.8823 29.965 14.5598 30.3866 15.3776C30.6714 15.942 30.8195 15.7462 31.0246 16.1954C31.2525 16.6907 30.9563 16.6446 31.5373 17.2091L31.5032 16.9326C33.873 20.6646 34.568 24.1893 31.5032 27.7831C29.2358 30.4438 23.9606 31.158 21.4768 27.7946C22.149 28.5202 23.6986 29.3496 25.1797 29.4648C30.2613 29.8794 32.3349 24.9956 31.9931 21.1369L31.788 20.2039C31.7766 20.1808 31.7424 20.1693 31.731 20.1117C31.7196 20.0657 31.6968 20.0541 31.6741 20.0196C31.7538 20.6416 31.9133 20.8719 31.355 21.0908H31.3209L31.2981 21.1023C31.2297 21.1714 31.2753 21.5055 31.036 21.8741L29.9422 22.3002Z" fill="black"/>
<path d="M16.8522 44.5786H15.0402V40.8826H11.6442V44.5786H9.83221V36.0106H11.6442V39.3706H15.0402V36.0106H16.8522V44.5786ZM26.748 44.5786H24.936V40.8826H21.54V44.5786H19.728V36.0106H21.54V39.3706H24.936V36.0106H26.748V44.5786ZM35.0358 36.0106V37.5106H31.4358V44.5786H29.6238V36.0106H35.0358ZM37.0703 44.5786V36.0106H43.8503V44.5786H42.0383V37.5226H38.8823V44.5786H37.0703Z" fill="white"/>
</svg>
