<svg width="17" height="21" viewBox="0 0 17 21" fill="none" xmlns="http://www.w3.org/2000/svg">
<path fill-rule="evenodd" clip-rule="evenodd" d="M17 5.27534L8.46956 0L0 5.25845V15.6191L8.39727 21L17 15.4881V5.27534Z" fill="#CC0A0A"/>
<path d="M11.4484 11.214C11.2946 10.5288 10.9371 10.0178 10.5169 9.49139C10.0825 8.94971 9.62119 8.42143 9.27792 7.80318C8.91678 7.13326 8.64145 6.41357 8.46087 5.66326C8.45193 5.62689 8.42154 5.6001 8.38578 5.6001H8.37863C8.34287 5.6001 8.31248 5.62498 8.30354 5.66326C8.12118 6.41357 7.84585 7.13326 7.48649 7.80318C7.14322 8.42143 6.68195 8.94971 6.2475 9.49139C5.82735 10.0178 5.46978 10.5288 5.31602 11.214C5.01209 12.5883 5.53414 14.0201 6.62474 14.8144C7.14143 15.1953 7.75109 15.4001 8.37863 15.402H8.38578C9.01153 15.3982 9.62298 15.1934 10.1397 14.8144C11.2303 14.0201 11.7523 12.5883 11.4484 11.214Z" fill="#1C1B1D"/>
</svg>
