<svg width="183" height="42" viewBox="0 0 183 42" fill="none" xmlns="http://www.w3.org/2000/svg">
<g clip-path="url(#clip0)">
<path d="M17.201 8.7674C19.9148 15.6143 15.4893 19.998 11.1056 24.4235C7.01415 28.9324 3.42369 33.6083 10.6464 42C7.93264 35.1531 12.3581 30.7694 16.7418 26.3439C20.8333 21.835 24.4237 17.159 17.201 8.7674Z" fill="#E84342"/>
<path d="M10.6883 0C13.3603 6.84692 8.97661 11.2306 4.59291 15.6561C0.501459 20.165 -3.089 24.841 4.13367 33.2326C1.4617 26.3857 5.8454 22.002 10.2291 17.5765C14.3205 13.0676 17.911 8.4334 10.6883 0Z" fill="#0BA374"/>
<path d="M176.308 31.5209H170.463V26.9702H164.326V40.9563H176.267C179.356 40.9563 182.028 39.4533 182.028 36.2386C182.07 33.1491 179.398 31.5209 176.308 31.5209ZM173.595 37.9086H170.463V34.5686H173.595C175.139 34.5686 175.849 34.9444 175.849 36.3221C175.891 37.4911 175.139 37.9086 173.595 37.9086Z" fill="#0BA374"/>
<path d="M92.893 26.9702V32.2306H86.3383V26.9702H80.2012V40.9145H86.3383V35.2784H92.893V40.9145H98.9884V26.9702H92.893Z" fill="#0BA374"/>
<path d="M108.465 37.9086V35.4871H116.439V32.3976H108.465V30.0179H118.694V26.9702H102.328V40.9145H118.819V37.9086H108.465Z" fill="#0BA374"/>
<path d="M43.67 26.9702H26.7197V30.0179H32.1472V40.9145H38.2426V30.0179H43.67V26.9702Z" fill="#E84342"/>
<path d="M55.7359 26.9702H49.1812L41.541 40.9145H45.5072L46.7597 38.5348H55.3184L56.5708 40.9145H63.3343L55.7359 26.9702ZM48.3044 35.6124L51.1434 30.1849L53.8571 35.6124H48.3044Z" fill="#E84342"/>
<path d="M77.9466 26.9702H61.3721V30.0179H66.7995V40.9145H72.8949V30.0179H77.9466V26.9702Z" fill="#E84342"/>
<path d="M162.28 26.9702H145.664V30.0179H151.091V40.9145H157.229V30.0179H162.28V26.9702Z" fill="#0BA374"/>
<path d="M135.978 26.8032C134.35 26.7614 130.467 26.7614 128.881 26.8032C123.788 26.8867 119.571 28.0974 119.571 33.1491C119.571 38.2425 123.871 39.2445 127.962 39.328H129.382V40.9145H135.519V39.3698H136.939C140.78 39.3698 145.33 37.992 145.33 33.1908C145.289 28.0974 140.947 26.8867 135.978 26.8032ZM129.424 36.4891C126.668 36.5726 125.708 36.0298 125.708 33.1073C125.708 30.2266 126.793 29.7674 129.424 29.8091V36.4891ZM135.436 36.4891V29.7674C138.066 29.7256 139.151 30.1431 139.151 33.0238C139.151 35.9881 138.191 36.5726 135.436 36.4891Z" fill="#0BA374"/>
</g>
<defs>
<clipPath id="clip0">
<rect width="182.07" height="42" fill="white"/>
</clipPath>
</defs>
</svg>
