<svg width="9" height="17" viewBox="0 0 9 17" fill="none" xmlns="http://www.w3.org/2000/svg">
<path d="M7.76248 13.7135C7.51901 13.3483 6.42338 12.2526 6.42338 12.2526C6.78859 12.2526 7.03206 12.1309 7.27554 12.0092C7.64074 11.7657 8.8581 11.5222 8.97984 10.7918C9.10158 9.69617 8.61463 9.20923 8.37116 9.20923C7.88422 9.33096 7.39727 9.57444 7.03206 9.93964C6.30165 10.1831 5.44949 10.3049 4.59734 10.3049C3.86693 10.3049 3.01477 10.1831 2.28436 9.81791C1.91915 9.57444 1.4322 9.33096 0.94526 9.20923C0.458316 9.20923 0.214844 10.1831 0.214844 10.7918C0.214844 11.4005 1.4322 11.7657 2.04088 12.0092C2.28436 12.1309 2.52783 12.2526 2.7713 12.2526C2.40609 12.4961 2.04088 12.8613 1.79741 13.2265C1.18873 13.7135 0.701788 14.3221 0.33658 15.0526C0.458316 15.783 0.94526 16.2699 1.67568 16.5134C2.28436 16.1482 2.89304 15.6612 3.37998 15.1743C4.1104 14.4439 4.71908 13.9569 4.71908 13.9569C4.71908 13.9569 5.32776 14.5656 6.05818 15.296C6.54512 15.9047 7.1538 16.2699 7.76248 16.6351C8.37116 16.5134 8.8581 16.0264 8.97984 15.4178C8.73637 14.5656 8.24942 14.0787 7.76248 13.7135Z" fill="#1C1B1D"/>
<path d="M4.5967 9.08793C6.90969 9.08793 8.85746 7.26189 8.85746 4.82717C8.85746 2.39245 7.03142 0.566406 4.5967 0.566406C2.28371 0.566406 0.335938 2.51418 0.335938 4.82717C0.335938 7.14015 2.28371 9.08793 4.5967 9.08793ZM4.5967 3.00113C5.57059 3.00113 6.42274 3.85328 6.42274 4.82717C6.42274 5.80106 5.57059 6.65321 4.5967 6.65321C3.62281 6.65321 2.77066 5.80106 2.77066 4.82717C2.77066 3.73154 3.62281 3.00113 4.5967 3.00113Z" fill="#1C1B1D"/>
</svg>
