<svg width="25" height="20" viewBox="0 0 25 20" fill="none" xmlns="http://www.w3.org/2000/svg">
<path d="M24.0225 15.9431L20.1718 15.9431L20.1718 19.0424C20.1718 19.5705 19.7334 20 19.1943 20L0.977488 20C0.438389 20 -3.75466e-08 19.5705 -8.37188e-08 19.0424L-1.31261e-06 4.98549C-1.35878e-06 4.45734 0.438387 4.02786 0.977487 4.02786L4.46682 4.02786L4.46682 0.96344C4.46682 0.435291 4.90521 0.00580745 5.44431 0.0058074L24.0166 0.00580578C24.5557 0.00580573 24.9941 0.435289 24.9941 0.963438L24.9941 14.9855C25 15.5136 24.5616 15.9431 24.0225 15.9431ZM1.95498 18.0847L18.2168 18.0847L18.2168 5.94893L1.95498 5.94893L1.95498 18.0847ZM23.045 1.92107L6.42772 1.92107L6.42772 4.02786L19.2299 4.02786C19.769 4.02786 20.2073 4.45734 20.2073 4.98549C20.2073 5.07255 20.1955 5.1538 20.1718 5.22925L20.1718 14.0221L23.045 14.0221L23.045 1.92107Z" fill="white"/>
</svg>
