<svg width="40" height="40" viewBox="0 0 40 40" fill="none" xmlns="http://www.w3.org/2000/svg">
<circle cx="20" cy="20" r="20" fill="#1C1B1D"/>
<path fill-rule="evenodd" clip-rule="evenodd" d="M20.7 10.9899C20.7 10.6033 20.3866 10.2899 20 10.2899C19.6134 10.2899 19.3 10.6033 19.3 10.9899L19.3 19.1995L11.0905 19.1995C10.7039 19.1995 10.3905 19.5129 10.3905 19.8995C10.3905 20.2861 10.7039 20.5995 11.0905 20.5995L19.3 20.5995L19.3 28.809C19.3 29.1956 19.6134 29.509 20 29.509C20.3866 29.509 20.7 29.1956 20.7 28.809L20.7 20.5995L28.9095 20.5995C29.2961 20.5995 29.6095 20.2861 29.6095 19.8995C29.6095 19.5129 29.2961 19.1995 28.9095 19.1995L20.7 19.1995L20.7 10.9899Z" fill="white"/>
</svg>
