<svg width="142" height="140" viewBox="0 0 142 140" fill="none" xmlns="http://www.w3.org/2000/svg">
<g clip-path="url(#clip0)">
<path d="M141.367 40.4178C141.231 40.4178 141.083 40.3967 140.946 40.4072C140.073 40.4809 140.073 40.4914 139.663 39.7234C139.137 38.7451 139.148 38.7661 138.169 39.3552C136.844 40.1548 135.487 40.9122 134.161 41.7117C133.877 41.88 133.73 41.88 133.625 41.5539C133.604 41.4698 133.54 41.3961 133.498 41.333C133.025 40.6387 133.057 40.5756 133.751 40.1337C135.129 39.25 136.549 38.44 137.98 37.6405C138.243 37.4932 138.359 37.3564 138.075 37.0408C137.769 36.6937 137.57 36.2518 137.391 35.8205C137.18 35.3155 137.643 35.2209 137.938 35.021C138.253 34.8106 138.411 34.9999 138.569 35.2419C139.295 36.4096 139.958 37.6194 140.705 38.7872C140.883 39.0607 141.052 39.2395 141.367 39.2711C141.367 39.6393 141.367 40.0285 141.367 40.4178Z" fill="#0A408F"/>
<path d="M0 71.2308C0.368199 71.3886 0.715359 71.2624 0.946798 71.0204C1.22032 70.7259 1.1572 70.3366 0.999398 69.9895C0.831078 69.6213 0.610159 69.2846 0.610159 68.8638C0.610159 68.6429 0.683799 68.5377 0.883678 68.6745C1.25188 68.927 1.66216 69.1268 1.87256 69.5687C2.43011 70.7364 1.66216 71.9356 0.368199 71.8831C0.241959 71.8831 0.12624 71.8725 0 71.862C0 71.6516 0 71.4412 0 71.2308Z" fill="#0A408F"/>
<path d="M69.4528 69.979C69.4528 68.0433 69.4528 66.1182 69.4528 64.1825C69.5896 64.0142 69.5265 63.8143 69.5265 63.6249C69.5265 57.2393 69.5265 50.8431 69.5265 44.4575C69.5265 44.2682 69.579 44.0683 69.4528 43.9C69.4528 43.6475 69.4528 43.4055 69.4528 43.153C69.4633 43.1425 69.4844 43.132 69.4844 43.1215C69.4738 43.1004 69.4633 43.0794 69.4528 43.0584C69.4528 42.9532 69.4528 42.8374 69.4528 42.7322C69.4633 42.7217 69.4844 42.7112 69.4844 42.7007C69.4844 42.6796 69.4633 42.6586 69.4528 42.627C69.4423 42.5744 69.4318 42.5324 69.4318 42.4798C69.4002 42.3956 69.3476 42.3114 69.2529 42.3114C68.3692 42.3325 67.4751 42.2273 66.5914 42.364C66.4441 42.364 66.3073 42.364 66.1601 42.3535C66.0759 42.1116 65.876 42.1957 65.7182 42.1957C65.2764 42.1852 64.8451 42.1747 64.4032 42.1957C63.8667 42.2273 63.3197 42.08 62.7937 42.2799C62.5727 42.5744 62.6885 42.9111 62.6674 43.2267C62.6148 43.9526 62.6253 44.689 62.5833 45.4148C62.5727 45.5726 62.6779 45.7936 62.457 45.8672C62.2571 45.9303 62.0888 45.8356 61.9521 45.6778C61.889 45.6042 61.8048 45.5306 61.7311 45.4569C61.6891 45.4254 61.6365 45.4043 61.5944 45.3728V45.3833C61.5944 45.2676 61.5102 45.2465 61.4155 45.236C61.405 45.0887 61.3314 45.0256 61.1841 45.0466L61.1946 45.0572C61.0684 44.8468 60.879 44.8152 60.6581 44.8468H60.6686C60.6581 44.7731 60.616 44.7416 60.5424 44.7521C60.5424 44.7521 60.5424 44.7626 60.5529 44.7626C60.5529 44.6258 60.4688 44.6153 60.3636 44.6153H60.3741C60.1742 44.3418 59.8902 44.3944 59.6166 44.4049H59.5746L59.5325 44.3734C59.2064 43.9 58.7014 44.0157 58.2385 43.9946V44.0052C58.228 43.8894 58.1438 43.8684 58.0492 43.8684C58.0386 43.7211 57.944 43.658 57.8072 43.658C57.2496 43.658 56.7131 43.4792 56.145 43.5633C56.1135 43.4686 56.0398 43.4476 55.9557 43.4371L55.9452 43.4266C55.7768 43.2477 55.5349 43.2688 55.3245 43.2162C54.6723 43.0689 54.0095 43.1425 53.3467 43.0584C52.158 42.9006 50.9797 42.6691 49.7699 42.6902C47.3503 42.7322 44.9413 42.6902 42.5217 42.7112C41.9746 42.7217 41.8379 42.5324 41.8484 42.0169C41.8694 39.6394 41.8589 37.2513 41.8589 34.8738C41.8589 34.695 41.8589 34.5266 41.8905 34.3478C42.0378 33.5483 41.9326 32.7382 41.9536 31.9387C41.9536 31.8441 41.8905 31.7809 41.7958 31.7599C41.7958 31.3391 41.7958 30.9183 41.7958 30.4975C42.0798 30.2976 42.406 30.2766 42.7426 30.2871C44.9308 30.3502 47.1189 30.2661 49.3071 30.3713C52.3158 30.5185 55.3245 30.4449 58.3332 30.4659C68.5691 30.5396 78.8051 30.4975 89.041 30.4975C89.7248 30.4975 89.7774 30.5501 89.8195 31.2234C89.83 31.3496 89.8195 31.4653 89.8195 31.5916C89.8195 33.0959 89.7563 34.6003 89.7353 36.1046C89.6932 38.5348 89.7353 40.9649 89.7879 43.4055C89.8826 47.5609 89.8089 51.7163 89.8195 55.8717C89.8195 56.0716 89.6932 56.3346 89.9773 56.4713L90.0088 56.4608L90.0193 56.4819C90.114 56.6081 90.1772 56.5765 90.2297 56.4503C90.2613 56.4187 90.2823 56.3872 90.3139 56.3661C90.5769 56.1452 90.6085 55.8401 90.6505 55.5245C91.0503 54.9459 91.3659 54.3358 91.4921 53.6415V53.6309C91.7236 53.6099 91.692 53.4416 91.6815 53.2733C91.671 53.2417 91.671 53.2207 91.7025 53.2101C92.0707 52.8525 92.2285 52.3896 92.3127 51.8951C92.3337 51.8005 92.3443 51.6953 92.4389 51.6321C92.46 51.5901 92.4915 51.5375 92.5126 51.4954L92.5021 51.5059C92.7756 51.4007 92.7335 51.1587 92.7651 50.9378L92.7756 50.9063C93.1333 50.7379 93.1122 50.3803 93.1753 50.0647V50.0541C93.1964 50.0121 93.2174 49.9595 93.249 49.9174L93.2385 49.9279C93.3752 49.9069 93.3752 49.8122 93.3752 49.707C93.3752 49.1599 93.7539 48.7497 93.9433 48.2657C94.3851 47.1506 94.9532 46.0776 95.4687 44.9835C95.8474 44.184 96.2261 43.3845 96.5943 42.585C97.0572 41.5856 97.5096 40.5862 97.9724 39.5868C98.3512 38.7662 98.7404 37.9562 99.1191 37.1356C99.582 36.1362 100.034 35.1368 100.487 34.1479C100.844 33.38 101.192 32.6015 101.581 31.8546C101.802 31.4443 101.844 30.9393 102.212 30.6132C102.454 30.5711 102.685 30.5185 102.938 30.508C103.779 30.4659 104.611 30.6132 105.452 30.6132C109.65 30.6237 113.847 30.6237 118.045 30.6027C118.55 30.6027 118.644 30.771 118.644 31.2339C118.634 35.5155 118.655 39.7866 118.634 44.0683C118.581 54.1359 118.686 64.2035 118.56 74.2712C118.444 83.392 118.539 92.5233 118.539 101.644C118.539 103.043 118.528 104.453 118.55 105.852C118.56 106.231 118.455 106.368 118.055 106.368C112.742 106.357 107.43 106.357 102.117 106.368C101.675 106.368 101.591 106.21 101.602 105.821C101.623 104.485 101.612 103.159 101.602 101.823C101.602 101.644 101.707 101.423 101.465 101.308C101.423 100.918 101.37 100.529 101.497 100.15C101.591 100.098 101.602 100.014 101.57 99.9189L101.591 99.9399L101.57 99.9189C101.644 99.9189 101.686 99.8768 101.686 99.8032V99.8137C101.844 99.8347 102.012 99.8978 102.138 99.7295C102.244 99.7085 102.359 99.6874 102.464 99.6769C103.054 99.8452 103.474 99.4665 103.916 99.193C105.494 98.3935 106.978 97.4572 108.219 96.1738C109.397 94.964 110.344 93.6069 111.07 92.0815C111.659 90.8296 112.048 89.5357 112.374 88.1891C112.742 86.6953 112.742 85.2225 112.595 83.7602C112.458 82.4347 112.09 81.1302 111.554 79.8678C110.775 78.0373 109.671 76.4698 108.25 75.1128C107.251 74.1554 106.125 73.377 104.916 72.6932C103.758 72.0409 102.486 71.6938 101.297 71.1362C101.255 71.1152 101.192 71.1257 101.139 71.1152C100.108 70.8942 100.087 70.8942 100.119 69.8002C100.15 68.6745 100.476 67.6225 100.844 66.5705C101.76 63.9616 103.622 62.2047 105.926 60.8477C106.031 60.7845 106.146 60.753 106.252 60.6899C106.409 60.5952 106.693 60.6688 106.736 60.4374C106.778 60.1849 106.494 60.1323 106.336 60.0061C106.052 59.7851 105.705 59.6694 105.431 59.4064C105.147 59.1434 104.737 59.2065 104.379 59.3643C101.265 60.7109 98.3196 62.3625 95.616 64.4139C92.723 66.6231 90.1245 69.1584 87.8943 72.0514C86.3058 74.1239 85.0013 76.3436 84.0124 78.7737C83.5706 79.8678 83.1182 80.9934 82.9289 82.1191C82.5817 84.1494 82.1399 86.1903 82.6448 88.3048C82.992 89.7566 83.3286 91.1768 84.0545 92.4813C85.1486 94.4485 86.695 95.9739 88.5045 97.2889C89.7984 98.2252 91.2502 98.8564 92.6914 99.5191C92.9334 99.6348 93.2279 99.6454 93.5015 99.7085C93.6067 99.9189 93.6067 100.15 93.6067 100.371C93.6067 105.852 93.6067 111.344 93.6067 116.825C93.6067 117.582 93.4909 117.708 92.723 117.708C88.515 117.708 84.307 117.708 80.099 117.708C79.8991 117.708 79.6677 117.614 79.5099 117.824C79.2785 117.94 79.1417 117.877 79.1312 117.603C79.1207 117.319 79.0996 117.045 79.0996 116.761C79.0996 113.974 79.0996 111.186 79.0996 108.398C79.0996 108.124 79.1312 107.925 78.7104 107.925C71.683 107.946 64.6557 107.946 57.6178 107.946C53.8096 107.946 50.0119 107.935 46.2037 107.935C46.0774 107.935 45.9196 107.872 45.825 108.03C45.6566 109.04 45.6987 110.06 45.8039 111.07C45.825 112.091 45.846 113.111 45.7724 114.131C45.5409 114.226 45.6251 114.426 45.6251 114.594C45.6146 115.488 45.604 116.383 45.6251 117.266C45.6356 117.677 45.4988 117.824 45.078 117.824C44.4574 117.824 43.8262 117.729 43.2055 117.887C42.7426 117.887 42.2797 117.887 41.8168 117.887C41.638 117.761 41.4381 117.813 41.2593 117.813C38.1349 117.813 35.0209 117.803 31.8965 117.824C31.4442 117.824 31.2969 117.729 31.2969 117.245C31.3074 109.755 31.3074 102.275 31.3074 94.7851C31.3074 93.9541 31.3284 93.933 32.1595 93.933C44.289 93.933 56.4186 93.933 68.5481 93.9225C68.7585 93.9225 69.011 94.0277 69.1793 93.7962C69.1793 93.7542 69.1898 93.7331 69.2319 93.7331C69.4738 93.5964 69.3686 93.3544 69.3686 93.1651C69.3792 90.0511 69.3792 86.9477 69.3686 83.8338C69.3686 83.6655 69.4107 83.4867 69.3161 83.3183C69.274 82.3715 69.316 81.4142 69.3581 80.4674C69.4738 80.3938 69.4738 80.3201 69.3581 80.2465C69.3581 80.1413 69.3581 80.0361 69.3581 79.9414C69.5264 79.8047 69.4633 79.6153 69.4633 79.447C69.4633 76.4278 69.4633 73.419 69.4633 70.3998C69.5264 70.2736 69.5685 70.1158 69.4528 69.979Z" fill="#04438D"/>
<path d="M62.4991 60.4059C62.4991 60.5111 62.4991 60.6057 62.4886 60.7109C62.2992 60.8582 62.3729 61.0686 62.3729 61.2475C62.3623 62.4047 62.3729 63.5619 62.3729 64.719C62.3729 65.4449 62.3729 65.4449 61.647 65.4449C56.6184 65.4449 51.5899 65.4449 46.5508 65.4449C46.3509 65.4449 46.1195 65.3502 45.9617 65.5606C45.8565 65.6974 45.8775 65.8552 45.8775 66.013C45.8775 68.0118 45.8775 70.0106 45.8565 72.0094C45.846 72.4512 46.0985 72.3776 46.3615 72.3776C51.3374 72.3776 56.3133 72.3671 61.2893 72.3671C62.5622 72.3671 62.5622 72.3671 62.5412 73.619C62.5307 74.5658 62.4991 75.5125 62.5201 76.4593C62.5307 76.8381 62.4044 76.9117 62.0467 76.9117C55.598 76.9012 49.1492 76.9117 42.7005 76.9117C41.7747 76.9117 41.7747 76.9117 41.7747 75.9965C41.7747 68.2012 41.7747 60.3953 41.7537 52.6C41.7537 52.2003 41.8799 52.1056 42.2481 52.0635C43.8893 51.8742 45.5304 51.811 47.182 51.79C49.023 51.769 50.8324 51.3587 52.6734 51.3902C52.9049 51.3902 53.1468 51.4008 53.1258 51.0431C53.1153 50.717 53.1153 50.3803 52.684 50.3277C51.937 50.233 51.1901 50.1068 50.4432 50.0858C48.6443 50.0226 46.8349 50.0332 45.0465 49.7702C44.0997 49.6334 43.1634 49.6439 42.2166 49.665C41.8484 49.6755 41.7747 49.5492 41.7747 49.2231C41.7853 48.1711 41.7747 47.1191 41.7537 46.0671C41.7432 45.7305 41.8379 45.6148 42.2061 45.6253C45.846 45.7831 49.4964 45.8672 53.1363 46.0145C55.5244 46.1092 57.9019 46.5616 59.9848 47.8766C61.2788 48.6971 62.0573 49.8648 62.2782 51.3902C62.6779 52.6947 62.4044 54.0202 62.4675 55.3352C62.4781 55.5667 62.2992 55.6929 62.0783 55.756C61.5523 55.9138 61.0053 55.8297 60.4793 55.9559C60.2268 56.019 60.1742 55.8297 60.1637 55.6087C60.1426 55.1669 60.0479 54.7461 59.7639 54.3884C59.7323 54.3779 59.7218 54.3569 59.7323 54.3253C59.4904 53.9992 59.0801 54.0202 58.7435 53.8835L58.7119 53.894L58.6909 53.8624C58.5857 53.6415 58.3963 53.652 58.1964 53.652C57.1444 53.6731 56.0714 53.5363 55.051 53.9571C54.4934 54.1885 53.8517 53.9466 53.2941 54.1465C52.3473 54.4936 51.3374 54.5567 50.3696 54.7566C49.1598 54.9986 47.9605 55.3668 46.7191 55.4825C46.3825 55.5141 45.867 55.493 45.6461 55.9559C45.6356 55.998 45.6251 56.0401 45.6145 56.0821C45.604 56.0927 45.583 56.1032 45.583 56.1137C45.583 56.1347 45.604 56.1558 45.604 56.1768C45.604 56.2505 45.604 56.3241 45.604 56.3977C45.4357 57.5339 45.5619 58.6806 45.5514 59.8167C45.5514 59.9114 45.6566 59.943 45.7408 59.964C45.7618 60.1639 45.8775 60.1955 46.0353 60.1323C46.2037 60.0587 46.3825 60.0692 46.5508 60.0692C51.653 60.0692 56.7552 60.0692 61.8469 60.0587C62.1625 60.0797 62.3729 60.1429 62.4991 60.4059Z" fill="#04438D"/>
<path d="M53.7464 83.8232C53.6622 84.4544 53.7359 85.0856 53.7359 85.7168C53.7359 86.0114 53.8726 86.0429 54.1356 86.0429C56.5762 86.0114 59.0064 85.9903 61.447 85.9798C62.4885 85.9798 62.4885 85.9903 62.4885 87.0213C62.4885 88.1048 62.4885 89.1989 62.478 90.2825C62.4674 90.9768 62.4569 90.9873 61.7731 90.9873C59.059 90.9873 56.3448 90.9768 53.6201 90.9558C49.7803 90.9347 45.9405 90.8926 42.1113 90.8716C41.8272 90.8716 41.7957 90.7769 41.7957 90.5455C41.7957 89.1779 41.8062 87.8103 41.7957 86.4427C41.7957 86.1166 41.9324 86.0745 42.206 86.0745C44.6045 86.0745 47.0031 86.0534 49.4121 86.0745C49.8645 86.0745 50.0013 85.9377 49.9697 85.5169C49.9381 84.9909 50.1801 84.3282 49.875 83.9915C49.5594 83.6444 48.8861 83.8758 48.3707 83.8758C46.3193 83.8548 44.2679 83.8548 42.2165 83.8758C41.9219 83.8758 41.8167 83.8022 41.8167 83.5076C41.8167 82.2136 41.8062 80.9092 41.7852 79.6152C41.7852 79.3312 41.8378 79.2155 42.1639 79.2155C48.5285 79.226 54.8931 79.2155 61.2471 79.2155C62.478 79.2155 62.478 79.2155 62.478 80.4568C62.478 81.4878 62.4569 82.5187 62.4569 83.5602C61.4786 83.5392 60.5107 83.697 59.5324 83.6759C57.7861 83.6444 56.0397 83.6654 54.2934 83.6759C54.0935 83.6549 53.8516 83.5392 53.7464 83.8232ZM62.3307 83.1815C62.3307 83.2025 62.3307 83.2341 62.3202 83.2551C62.3307 83.2446 62.3517 83.2341 62.3517 83.2236C62.3517 83.213 62.3307 83.2025 62.3307 83.1815Z" fill="#04438D"/>
<path d="M21.0612 117.635C19.8409 117.035 19.7146 118.118 19.2623 118.666C19.1255 118.834 19.0834 119.086 18.9467 119.255C18.6837 119.602 18.589 119.865 18.9782 120.233C19.1886 120.433 19.1676 120.812 18.7783 121.011C18.2629 121.285 18.1051 121.222 17.8526 120.854C16.9794 119.549 17.7474 118.508 18.3575 117.435C18.3996 117.361 18.4943 117.308 18.5259 117.235C18.5995 117.014 18.7889 116.719 18.6311 116.562C18.3891 116.32 18.1892 116.646 18.0314 116.793C17.5159 117.308 16.8427 117.582 16.2851 118.034C16.1063 118.182 15.9274 118.182 15.8117 117.94C15.7275 117.761 15.5803 117.635 15.4645 117.487C15.2647 117.235 15.191 116.961 15.5066 116.719C16.0221 116.33 16.4534 115.836 17.0531 115.573C17.3055 115.457 17.4002 115.247 17.3161 115.015C17.2319 114.773 17.0215 114.962 16.8742 114.984C15.9485 115.099 15.0438 115.467 14.097 115.099C13.6341 114.931 13.3606 114.584 13.1291 114.184C13.0134 113.984 13.0029 113.711 13.308 113.574C13.613 113.437 13.8971 113.227 14.2022 113.563C14.644 114.058 15.0332 114.163 15.6329 113.837C16.0326 113.616 16.4324 113.511 16.8742 113.532C17.0741 113.542 17.274 113.511 17.2845 113.248C17.3161 112.354 17.821 111.649 18.1892 110.891C18.3575 110.544 18.5364 110.207 18.6731 109.85C18.7994 109.513 19.0203 109.503 19.2202 109.755C19.4727 110.071 19.7041 110.397 19.8935 110.744C20.0197 110.965 19.9776 111.228 19.8198 111.438C19.3149 112.133 19.0413 112.953 18.61 113.69C18.4943 113.889 18.4312 114.089 18.6205 114.247C18.8309 114.426 18.9887 114.226 19.1045 114.079C19.5989 113.469 20.4194 113.3 20.9349 112.711C21.0191 112.617 21.2084 112.574 21.2716 112.669C21.503 113.027 21.9028 113.3 21.9659 113.742C22.008 114.11 21.6713 114.195 21.4188 114.352C20.7876 114.731 20.2932 115.289 19.6515 115.646C19.5673 115.688 19.5147 115.773 19.5463 115.857C19.5884 115.972 19.7041 115.983 19.8093 115.983C20.2827 115.962 20.7666 115.983 21.2084 115.794C21.8607 115.51 22.555 115.636 23.2283 115.531C23.3545 115.51 23.4702 115.583 23.5334 115.699C23.7438 116.078 23.9542 116.456 24.1646 116.846C24.2382 116.982 24.2908 117.151 24.0594 117.14C23.0179 117.13 21.9974 117.351 21.0612 117.635Z" fill="#0A408F"/>
<path d="M38.7766 131.858C39.229 131.205 39.6708 130.585 39.9864 129.901C40.1758 129.512 40.4598 129.354 40.8491 129.575C41.0279 129.68 41.1752 129.838 41.354 129.943C41.5539 130.059 41.5329 130.164 41.4066 130.311C41.3435 130.385 41.2804 130.479 41.2278 130.564C40.6176 131.437 40.6176 131.426 41.5539 131.973C42.3639 132.457 43.1529 132.962 43.942 133.467C44.4995 133.825 44.7204 133.783 44.9624 133.173C45.0676 132.91 45.1307 132.657 45.4674 132.678C45.783 132.699 46.088 132.773 46.2879 133.067C46.4773 133.362 46.3616 133.614 46.1722 133.835C45.7935 134.277 45.5305 134.793 45.2149 135.266C45.0571 135.508 44.8677 135.739 44.5416 135.476C44.3838 135.35 44.2891 135.476 44.1839 135.55C43.3423 136.139 42.6795 136.907 42.0904 137.728C41.6275 138.369 41.1331 138.98 40.7754 139.695C40.5861 140.074 40.3125 140.053 40.0075 139.853C39.2395 139.358 38.4926 138.832 37.7141 138.359C37.3459 138.138 37.0303 137.843 36.6095 137.707C36.2623 137.591 36.1887 137.286 36.3675 136.981C36.7778 136.265 37.2197 135.571 37.651 134.866C38.0087 134.288 38.3769 133.709 38.724 133.12C38.7977 133.004 38.8608 132.878 38.966 132.783C39.4183 132.394 39.3657 132.11 38.7766 131.858ZM42.7427 134.53C42.7111 134.477 42.6901 134.361 42.6059 134.309C42.1009 133.94 41.6065 133.562 41.07 133.225C40.8491 133.088 40.6281 133.151 40.4598 133.425C39.7655 134.54 39.0501 135.634 38.3453 136.749C38.198 136.981 38.0718 137.275 38.461 137.349C38.9239 137.433 39.2395 137.738 39.5551 138.012C39.8812 138.285 39.9969 138.201 40.1653 137.875C40.7859 136.707 41.5855 135.687 42.6164 134.856C42.7111 134.772 42.7637 134.698 42.7427 134.53Z" fill="#0A408F"/>
<path d="M88.9673 9.80454C88.2203 9.81506 88.2729 9.81506 88.2835 9.08919C88.294 8.02667 88.5991 7.01675 88.7358 5.98579C88.7569 5.83851 88.841 5.63863 88.6622 5.56499C88.4939 5.49135 88.3992 5.67019 88.294 5.78591C87.4629 6.75375 86.6213 7.71107 85.7902 8.67891C85.401 9.13127 84.2754 9.29958 83.802 8.97347C83.6862 8.89983 83.7178 8.79463 83.7178 8.69995C83.7178 8.33175 83.7704 7.96355 83.8966 7.61639C84.0544 7.16403 84.0755 6.70115 84.1491 6.22775C84.3595 4.73391 84.5699 3.24007 84.9486 1.7778C84.9802 1.66208 85.0012 1.5148 85.1695 1.53584C85.5798 1.58844 86.0112 1.63052 86.3583 1.89352C86.5266 2.01976 86.5161 2.13548 86.3899 2.28276C86.19 2.50368 86.1689 2.7772 86.1795 3.07176C86.19 3.82919 86.1058 4.57611 85.8323 5.28095C85.7902 5.39667 85.7587 5.51239 85.7481 5.63863C85.7376 5.76487 85.6745 5.94371 85.8428 6.00683C86.0111 6.08047 86.1374 5.97527 86.2321 5.83851C86.9895 4.70235 87.9994 3.77659 88.8936 2.75616C89.2618 2.34588 90.0824 2.1986 90.5873 2.43004C90.7662 2.5142 90.7662 2.672 90.7767 2.8298C90.8188 3.25059 90.7556 3.67139 90.661 4.08167C90.2717 5.69123 90.0613 7.33235 89.872 8.97347C89.7562 9.79402 89.7668 9.79402 88.9673 9.80454Z" fill="#0A408F"/>
<path d="M42.585 13.3182C42.606 11.9506 42.9216 10.6146 43.0689 9.25752C43.111 8.8788 44.0998 8.38436 44.4365 8.53164C44.5311 8.57372 44.5522 8.64736 44.5943 8.73152C45.3833 10.32 46.1723 11.898 46.9613 13.476C47.0665 13.6759 47.1401 13.8863 47.2453 14.0862C47.7608 15.0435 47.7608 15.0435 46.8035 15.5905C46.5615 15.7273 46.4142 15.7378 46.2564 15.4643C45.6778 14.3807 45.0887 13.2972 44.6048 12.161C44.5522 12.0243 44.5943 11.8034 44.3628 11.8349C44.1735 11.8665 44.2155 12.0558 44.2155 12.1821C44.3207 13.6969 43.921 15.1697 43.8053 16.6741C43.7737 17.0318 43.6685 17.2422 43.3003 17.3474C42.9847 17.4315 42.6796 17.7261 42.3956 17.7051C42.0695 17.6735 42.1221 17.2001 41.9853 16.9371C41.1753 15.4012 40.4178 13.8442 39.6394 12.2873C39.4816 11.9717 39.2606 11.6982 39.1765 11.351C39.0923 11.0249 39.1449 10.7934 39.5342 10.7619C39.6394 10.7514 39.7656 10.7408 39.8287 10.6777C40.3652 10.1307 40.5546 10.6777 40.7019 10.9933C41.1858 12.0348 41.9012 12.9605 42.1747 14.1072C42.2062 14.2335 42.2694 14.3492 42.4166 14.3281C42.585 14.3071 42.585 14.1703 42.585 14.0546C42.5955 13.8021 42.585 13.5602 42.585 13.3182Z" fill="#0A408F"/>
<path d="M125.167 23.691C124.567 23.9856 123.925 24.1223 123.294 24.2906C122.337 24.5431 121.39 24.8166 120.433 25.0586C120.107 25.1428 119.076 24.4064 119.034 24.0802C119.013 23.9014 119.17 23.8488 119.255 23.7541C120.633 22.2287 122.011 20.7033 123.399 19.1779C124.02 18.4941 124.062 18.5047 124.662 19.2095C124.946 19.5356 125.03 19.7355 124.63 20.1352C123.915 20.8401 123.273 21.608 122.547 22.3129C122.453 22.4076 122.4 22.5443 122.326 22.6706C122.179 22.902 122.305 22.9441 122.505 22.9336C122.558 22.9336 122.621 22.9336 122.653 22.902C123.305 22.4181 124.136 22.4812 124.862 22.1972C125.43 21.9657 126.05 21.871 126.65 21.6712C127.26 21.4713 128.07 21.9762 128.302 22.5759C128.365 22.7442 128.291 22.8284 128.186 22.9441C127.008 24.1854 125.83 25.4268 124.662 26.6787C124.336 27.0364 124.031 27.4151 123.726 27.7833C123.463 28.0989 123.2 28.1725 122.916 27.8148C122.831 27.7096 122.726 27.6044 122.61 27.5203C122.242 27.2573 122.274 27.0258 122.568 26.7102C123.42 25.8055 124.188 24.8272 125.125 24.0171C125.188 23.9645 125.198 23.8698 125.24 23.7962C125.219 23.7646 125.188 23.7331 125.167 23.691Z" fill="#0A408F"/>
<path d="M101.623 6.22791C101.297 6.71183 101.37 7.46927 100.981 8.07943C100.939 8.15307 100.907 8.23723 100.886 8.32139C100.613 9.68899 100.087 10.9935 99.7186 12.34C99.5924 12.8134 99.3189 12.8134 98.9717 12.7187C98.7613 12.6556 98.5614 12.5189 98.3616 12.4347C98.0775 12.3085 98.046 12.1401 98.2564 11.9192C98.2984 11.8666 98.3721 11.8035 98.3616 11.7404C98.309 11.0355 98.8876 10.499 98.8665 9.80471C98.856 9.39443 99.2242 9.12091 99.2558 8.73167C99.2663 8.56335 99.382 8.35295 99.2032 8.25827C99.0454 8.17411 98.9296 8.36347 98.8139 8.46867C97.7724 9.39443 96.7205 10.3307 95.679 11.2565C95.3318 11.5721 94.9741 11.6457 94.6165 11.288C94.385 11.0671 93.9327 11.1828 93.838 10.8462C93.7433 10.5201 94.2062 10.2991 94.1851 10.0046C94.122 9.26819 94.5639 8.67907 94.7427 8.03735C94.911 7.44823 94.9215 6.74339 95.3423 6.21739C95.3739 6.17531 95.416 6.12271 95.416 6.08063C95.3529 5.39683 95.942 4.89187 95.9104 4.2186C95.9104 4.15548 95.9315 4.03976 95.963 4.03976C96.4049 3.97664 96.8362 4.0608 97.2359 4.22912C97.5515 4.35536 97.4568 4.74459 97.3411 4.92343C97.015 5.41787 97.0466 6.00699 96.8257 6.54351C96.6153 7.03795 96.489 7.59551 96.3207 8.12151C96.2786 8.25827 96.1629 8.44763 96.3838 8.53179C96.5416 8.59491 96.6258 8.44763 96.7205 8.34243C97.7199 7.22731 98.9507 6.38571 100.087 5.43891C100.508 5.09175 100.949 5.42839 101.37 5.57567C101.623 5.67035 101.654 5.87023 101.623 6.22791Z" fill="#0A408F"/>
<path d="M13.6445 106.799C14.1179 106.746 14.5387 106.82 14.9384 106.914C15.8642 107.146 16.8005 107.241 17.7473 107.23C17.884 107.23 18.0524 107.209 18.0839 107.398C18.1576 107.767 18.3574 108.072 18.5784 108.366C18.7362 108.587 18.6204 108.745 18.3995 108.861C17.358 109.397 16.3376 109.944 15.2961 110.47C14.3809 110.933 13.4551 111.364 12.5399 111.827C12.1401 112.038 11.8456 111.922 11.7193 111.533C11.6141 111.207 11.1618 110.817 11.814 110.502C12.8345 110.007 13.7812 109.397 14.8332 108.966C14.9279 108.924 15.0331 108.903 15.1278 108.85C15.254 108.776 15.3592 108.671 15.3172 108.513C15.2646 108.366 15.1173 108.387 15.0016 108.408C14.1915 108.513 13.392 108.44 12.5925 108.366C11.8456 108.303 11.0987 108.187 10.3517 108.072C9.93094 108.009 9.3839 107.083 9.47858 106.651C9.4891 106.578 9.49962 106.504 9.58378 106.494C10.2886 106.346 10.8672 105.926 11.4984 105.61C12.2348 105.252 12.9502 104.863 13.676 104.495C14.3388 104.148 15.0016 103.8 15.6643 103.474C16.1693 103.222 16.2745 103.8 16.4428 104.106C16.6427 104.453 16.6111 104.821 16.2008 104.989C15.1909 105.41 14.2757 106.031 13.2447 106.399C13.108 106.452 12.9502 106.515 12.9817 106.683C13.0133 106.862 13.2027 106.82 13.3289 106.83C13.4446 106.809 13.5708 106.799 13.6445 106.799Z" fill="#0A408F"/>
<path d="M5.69134 69.2742C5.75446 69.5792 5.92278 69.7476 6.15422 69.9054C7.22726 70.6523 8.28978 71.4202 9.3523 72.1882C9.65738 72.4091 9.85725 73.5874 9.64685 73.8819C9.54166 74.0397 9.36282 73.9766 9.20502 73.9766C7.83742 74.0187 6.48034 73.8609 5.13378 73.6294C4.30271 73.4822 3.45059 73.5348 2.61951 73.5453C2.26183 73.5558 2.13559 73.4611 2.14611 73.0824C2.16715 71.9568 2.15663 71.9673 3.27175 71.9462C4.20803 71.9357 5.12326 71.9883 6.01746 72.3039C6.08058 72.325 6.15422 72.3565 6.21734 72.346C6.38566 72.346 6.62762 72.4512 6.69074 72.2724C6.76438 72.0725 6.50138 72.0304 6.37514 71.9252C5.5651 71.315 4.7761 70.6838 3.96607 70.0737C3.61891 69.8107 3.26123 69.5792 2.90355 69.3268C2.44067 69.0112 2.23027 67.9697 2.54587 67.5173C2.66159 67.349 2.85095 67.3175 3.01927 67.3701C5.1443 67.9276 7.34298 67.6015 9.48906 67.9066C9.92037 67.9697 10.0361 68.1275 9.97297 68.5062C9.96245 68.5588 9.96245 68.6114 9.96245 68.664C9.85725 69.453 9.84673 69.4951 9.05774 69.3899C7.94262 69.2742 6.81698 69.5056 5.69134 69.2742Z" fill="#0A408F"/>
<path d="M82.2767 4.97593C82.2767 6.08053 82.2662 7.18513 82.2872 8.28973C82.2977 8.59481 82.1925 8.66845 81.9085 8.67897C80.7933 8.72105 80.7828 8.73157 80.7934 7.62697C80.8039 6.62757 80.6671 5.62817 80.7618 4.62877C80.7723 4.51305 80.8039 4.35525 80.6566 4.31317C80.4988 4.27109 80.4251 4.38681 80.3515 4.53409C79.7203 5.87013 78.7209 6.97473 78.0476 8.27921C77.9004 8.57377 77.6163 8.53169 77.3638 8.55273C76.154 8.64741 76.1646 8.64741 76.1646 7.45865C76.1751 5.54401 76.1856 3.6399 76.1646 1.72526C76.1646 1.28342 76.2698 1.1151 76.7432 1.13614C77.7531 1.17822 77.7531 1.15718 77.7531 2.1671C77.7531 3.13494 77.7636 4.09225 77.7741 5.06009C77.7741 5.19685 77.7426 5.38621 77.9004 5.41777C78.1002 5.47037 78.1423 5.27049 78.216 5.13373C78.6999 4.23953 79.2259 3.36638 79.8571 2.55634C80.0464 2.31438 80.2148 2.01982 80.32 1.7463C80.5304 1.20978 80.8986 1.1151 81.393 1.14666C82.4555 1.19926 82.2872 1.12562 82.2977 2.07242C82.3082 3.04026 82.2977 3.99758 82.2977 4.96541C82.2872 4.97593 82.2767 4.97593 82.2767 4.97593Z" fill="#0A408F"/>
<path d="M16.8214 36.6516C17.1896 37.4827 17.6314 38.2506 17.968 39.0712C18.2521 39.7655 18.6203 40.4177 18.9464 41.091C19.0306 41.2593 19.0937 41.4382 18.9464 41.5749C18.715 41.7853 18.5992 42.0483 18.452 42.3008C18.3047 42.5638 18.0206 42.648 17.8313 42.4797C16.7267 41.5539 15.4117 40.9437 14.2229 40.1232C13.5707 39.6708 12.9079 39.229 12.2347 38.8082C11.9506 38.6293 11.9717 38.461 12.1084 38.2085C12.5818 37.3459 12.5818 37.3249 13.4129 37.8088C14.3071 38.3453 15.2223 38.8608 16.0639 39.492C16.1902 39.5867 16.3374 39.7445 16.4742 39.6182C16.6004 39.492 16.4216 39.3447 16.3585 39.2079C15.8851 38.2191 15.4327 37.2197 14.9699 36.2308C14.9067 36.0835 14.8436 35.9467 14.7595 35.81C14.2124 34.8632 14.2335 34.5476 14.8962 33.7586C15.054 33.5692 15.2329 33.6218 15.4117 33.727C17.0423 34.7685 18.6834 35.81 20.3245 36.8515C20.5349 36.9777 20.7558 37.0829 20.9557 37.2091C21.3134 37.4301 21.4396 37.7036 21.124 38.0718C20.9978 38.2191 20.8926 38.3769 20.7769 38.5347C20.6086 38.7661 20.4192 38.7977 20.1983 38.6293C19.2936 37.914 18.2731 37.388 17.3263 36.7357C17.179 36.6621 17.0528 36.5885 16.8214 36.6516Z" fill="#0A408F"/>
<path d="M6.72214 79.994C6.53278 79.8468 6.35394 79.689 6.15407 79.5627C5.23883 78.9946 4.36567 78.2793 3.36627 77.9321C2.26168 77.5429 2.3774 76.7223 2.26168 75.9333C2.2196 75.6177 2.49312 75.7545 2.62988 75.7545C3.87123 75.7545 5.12311 75.7545 6.36446 75.6598C7.34282 75.5862 8.32118 75.5441 9.29954 75.4599C9.63618 75.4284 9.75189 75.502 9.76241 75.8702C9.79397 76.9748 9.80449 76.9748 8.72094 77.0485C7.65842 77.1116 6.5959 77.3325 5.48079 77.1326C5.65963 77.6691 6.14355 77.8164 6.51174 78.0373C7.40594 78.5844 8.31066 79.0893 9.2259 79.5943C9.64669 79.8257 9.80449 80.1308 9.80449 80.6147C9.80449 81.5826 9.83605 81.5931 8.88926 81.5615C6.89046 81.5089 4.89167 81.6667 2.90339 81.7719C2.50364 81.793 2.39844 81.7088 2.40896 81.309C2.41948 80.236 2.39844 80.215 3.48199 80.2044C4.52347 80.1939 5.56495 80.0677 6.60642 80.1729C6.6485 80.0992 6.68006 80.0466 6.72214 79.994Z" fill="#0A408F"/>
<path d="M9.29963 48.4551C10.6777 48.3288 11.7403 48.918 12.7397 49.6544C13.0973 49.9174 13.3498 50.3171 13.455 50.7274C13.9389 52.4842 13.6654 54.1359 12.1085 55.272C11.1511 55.9664 10.0991 56.1768 8.91039 55.6508C8.27919 55.3667 7.61643 55.1774 7.07992 54.7145C6.32248 54.0833 5.807 53.2206 5.84908 52.3264C5.90168 50.9799 6.35404 49.7175 7.60591 48.8969C8.15295 48.5392 8.71051 48.3288 9.29963 48.4551ZM10.2254 54.3042C10.5936 54.3463 10.8881 54.1674 11.1722 54.0096C12.4346 53.3048 12.6976 51.853 11.5193 50.8326C10.7093 50.1383 9.76251 49.9174 8.69999 50.0646C7.87943 50.1804 6.9116 51.7899 7.44811 52.6946C8.10035 53.7992 9.16287 54.0096 10.2254 54.3042Z" fill="#0A408F"/>
<path d="M25.3321 23.144C25.3427 23.2597 25.269 23.3334 25.1954 23.407C24.4169 24.1644 23.7647 25.0271 22.9336 25.7319C22.7232 25.9108 22.7548 26.037 22.9336 26.1948C22.9652 26.2158 22.9862 26.2474 23.0178 26.2579C23.3228 26.4578 23.5122 26.8996 23.8594 26.9207C24.2381 26.9417 24.2696 26.4262 24.5221 26.1948C24.985 25.753 25.4058 25.248 25.8371 24.7746C26.1106 24.48 26.3526 24.3222 26.7418 24.6904C27.373 25.2796 27.3941 25.248 26.7734 25.9108C26.1843 26.5314 25.6793 27.2258 24.9955 27.7518C24.8061 27.899 24.7956 28.0358 25.0271 28.2041C25.3111 28.404 25.5531 28.6565 25.774 28.93C26.0159 29.214 26.3105 29.2666 26.5525 28.909C27.1626 27.9937 28.0358 27.2994 28.7511 26.4683C29.0772 26.1001 29.3823 26.6787 29.6453 26.8996C29.8031 27.0364 30.2134 27.2047 29.8768 27.5098C28.7616 28.5197 27.8254 29.698 26.7313 30.7289C26.6577 30.8026 26.5945 30.8867 26.5314 30.9709C26.1948 31.3811 26.0475 31.3706 25.6477 31.0129C24.0487 29.5612 22.4812 28.0568 20.9453 26.542C20.6928 26.2895 20.6718 26.1106 20.9243 25.8476C21.8606 24.8798 22.7758 23.9014 23.691 22.9126C23.8068 22.7863 23.9225 22.6496 24.0171 22.5023C24.1013 22.3761 24.1749 22.2814 24.3433 22.2814C24.5957 22.2814 25.3216 22.9126 25.3321 23.144Z" fill="#0A408F"/>
<path d="M57.5024 9.98343C58.3755 9.72043 59.2697 9.48899 60.1324 9.18391C60.7846 8.95247 61.4474 9.38379 61.4158 10.0781C61.4053 10.2043 61.3422 10.2675 61.237 10.3095C61.0476 10.3937 60.8582 10.4989 60.6584 10.5515C59.154 10.9618 57.6391 11.3721 56.1348 11.7718C55.9559 11.8244 55.714 11.8875 55.6929 11.593C55.5877 10.3937 55.1038 9.27859 54.7987 8.13191C54.5673 7.27979 54.399 6.41715 54.0624 5.59659C53.9992 5.43879 53.9992 5.24943 53.9466 5.09163C53.8099 4.62875 53.9887 4.44991 54.4516 4.46043C55.0407 4.47095 55.5457 4.14483 56.0927 3.99755C56.7975 3.79767 57.555 3.68195 58.2283 3.35583C58.4281 3.26115 58.6596 3.24011 58.891 3.19803C59.1856 3.14543 59.3749 3.22959 59.3328 3.58727C59.3223 3.66091 59.3328 3.72403 59.3434 3.79767C59.4801 4.48147 59.4486 4.59719 58.7332 4.76551C57.9127 4.95487 57.1237 5.25995 56.2715 5.38619C55.6088 5.48087 56.1137 6.18571 56.0191 6.60651C55.9349 6.96419 56.261 6.98523 56.4609 6.89055C57.0921 6.56443 57.8285 6.62755 58.4597 6.33299C58.5649 6.28039 58.6806 6.23831 58.7963 6.20675C59.6064 6.00687 59.9535 6.22779 60.1324 7.03783C60.1744 7.23771 60.0692 7.29031 59.922 7.33239C59.3539 7.50071 58.8279 7.77423 58.2388 7.86891C57.7023 7.95307 57.2183 8.28971 56.6397 8.27919C56.5345 8.27919 56.4293 8.42647 56.5451 8.50011C56.8922 8.73155 56.8396 9.07871 56.8291 9.39431C56.8081 9.86771 56.9974 10.0676 57.5024 9.98343Z" fill="#0A408F"/>
<path d="M36.1888 21.8078C36.01 21.8394 35.9784 21.7342 35.9153 21.6395C34.7055 19.7459 33.4957 17.8523 32.2964 15.9587C32.0966 15.6431 32.0755 15.4222 32.4963 15.2223C33.5273 14.7489 33.5168 14.7279 34.0953 15.7273C34.2952 16.0745 34.5793 16.3585 34.7265 16.7477C34.8423 17.0318 35.1053 17.0844 35.3262 16.895C35.8101 16.4847 36.3782 16.2112 36.9042 15.8746C37.2724 15.6326 37.2724 15.4327 37.0515 15.1066C36.6833 14.5806 36.3361 14.0336 35.9889 13.4971C35.7996 13.213 35.7785 12.9711 36.1678 12.8553C36.1888 12.8553 36.1993 12.8343 36.2204 12.8343C36.5991 12.7817 36.7885 12.1505 37.1987 12.424C37.4933 12.6134 37.6511 13.0131 37.851 13.3393C38.9135 15.0119 39.9444 16.7162 41.0806 18.3468C41.1858 18.494 41.1858 18.5887 41.049 18.6939C40.9649 18.757 40.8912 18.8307 40.8071 18.8833C40.4809 19.0832 40.1443 19.4619 39.8392 19.4303C39.5026 19.3988 39.4605 18.8412 39.2396 18.5361C38.903 18.0943 38.5979 17.6209 38.3664 17.1159C38.2297 16.8319 38.0088 16.8424 37.8089 16.9897C37.2198 17.421 36.6096 17.8313 35.9574 18.1679C35.7575 18.2731 35.7785 18.3888 35.8837 18.5466C36.3677 19.262 36.8516 19.9879 37.346 20.7138C37.3986 20.7979 37.5354 20.8926 37.4302 20.9768C37.0409 21.345 36.6412 21.6606 36.1888 21.8078Z" fill="#0A408F"/>
<path d="M27.4047 125.156C27.573 125.156 27.7203 125.241 27.836 125.388C28.4041 126.093 29.2141 126.566 29.7716 127.292C29.94 127.513 30.1924 127.492 30.3608 127.281C30.6132 126.966 30.8342 126.64 31.1498 126.387C31.3391 126.229 31.276 126.008 31.0972 125.84C30.2661 125.072 29.435 124.294 28.5934 123.536C28.4041 123.368 28.4567 123.294 28.5724 123.126C29.1615 122.19 29.151 122.179 29.9189 122.916C30.9709 123.915 32.0124 124.925 33.0854 125.903C33.4221 126.208 33.38 126.398 33.117 126.713C31.9177 128.123 30.5817 129.396 29.2983 130.721C29.0773 130.942 28.8354 131.153 28.6671 131.416C28.4461 131.752 28.2357 131.679 28.0359 131.458C26.9628 130.311 25.7425 129.301 24.5958 128.218C24.3749 128.007 24.3854 127.839 24.5222 127.629C24.659 127.429 24.8483 127.292 24.964 127.06C25.0797 126.819 25.3007 126.913 25.4374 127.071C26.1317 127.913 27.0575 128.502 27.7834 129.322C28.0043 129.564 28.1726 129.533 28.3935 129.322C29.1615 128.575 29.1615 128.575 28.4041 127.839C27.8886 127.344 27.3626 126.85 26.8576 126.345C26.7103 126.208 26.4894 125.987 26.6893 125.819C26.9207 125.598 26.8892 125.072 27.4047 125.156Z" fill="#0A408F"/>
<path d="M109.24 8.87877C109.208 9.59413 108.903 10.0044 108.703 10.4252C108.472 10.9091 108.261 11.4036 108.072 11.898C107.619 13.0762 106.988 14.1703 106.641 15.4012C106.525 15.822 106.157 15.601 105.894 15.5379C105.789 15.5064 105.705 15.4012 105.6 15.3275C105.442 15.2328 105.137 15.296 105.147 15.054C105.158 14.77 105.126 14.4544 105.284 14.1914C105.621 13.6443 105.81 13.0447 106.031 12.445C106.126 12.1926 106.031 12.0453 105.757 11.9401C105.2 11.7192 104.611 11.5403 104.095 11.1932C103.769 10.9828 103.59 11.0248 103.443 11.4772C103.191 12.2662 102.812 13.0131 102.486 13.7811C102.391 14.002 102.223 13.9389 102.096 13.8547C101.876 13.6969 101.623 13.6338 101.371 13.5602C100.95 13.4339 100.855 13.1709 101.066 12.7606C101.371 12.182 101.613 11.5824 101.823 10.9617C101.939 10.6146 102.16 10.299 102.296 9.94129C102.549 9.27853 102.822 8.61577 103.127 7.97405C103.275 7.65845 103.443 7.35337 103.559 7.01673C103.717 6.54333 104.074 6.46969 104.527 6.73269C105.273 7.16401 105.326 7.33233 104.884 8.12133C104.632 8.57369 104.579 9.12073 104.211 9.53101C104.074 9.68881 104.179 9.82556 104.39 9.90972C105.01 10.1412 105.621 10.4042 106.22 10.6672C106.546 10.8144 106.778 10.8355 106.915 10.4252C107.136 9.78348 107.588 9.23644 107.714 8.54212C107.725 8.46848 107.777 8.36329 107.84 8.33173C108.093 8.17393 108.324 8.31069 108.514 8.44745C108.766 8.63681 109.24 8.60525 109.24 8.87877Z" fill="#0A408F"/>
<path d="M6.64855 100.697C6.61699 100.371 6.55387 100.098 6.41711 99.8558C6.14359 99.3614 6.30139 99.0142 6.84842 98.8985C7.54274 98.7617 8.1529 98.3936 8.80513 98.1411C9.20489 97.9833 9.60465 97.8149 10.0044 97.6887C10.9407 97.3731 11.7928 96.8787 12.7501 96.6367C13.0447 96.5631 13.1709 96.5841 13.2656 96.8576C13.3077 96.9839 13.3918 97.1101 13.455 97.2363C13.7074 97.7518 13.6022 98.099 13.0657 98.2673C12.445 98.4461 11.9296 98.8564 11.2773 98.9511C10.9933 98.9932 10.7618 99.2036 10.9407 99.656C11.1932 100.277 11.614 100.845 11.635 101.55C11.6455 101.855 11.898 101.823 12.0558 101.728C12.8238 101.244 13.7285 101.087 14.528 100.666C14.7173 100.561 14.791 100.645 14.8331 100.792C14.9383 101.108 15.0855 101.402 15.2328 101.697C15.338 101.907 15.2854 102.097 15.0329 102.202C14.4754 102.433 13.9284 102.717 13.3603 102.917C12.0768 103.37 10.8565 104.011 9.53101 104.358C9.49945 104.369 9.46789 104.379 9.43633 104.4C8.42642 104.916 8.24758 104.853 7.93198 103.78C7.8373 103.454 7.84782 103.159 8.33174 103.117C8.99449 103.054 9.52049 102.559 10.1832 102.475C10.4357 102.444 10.3726 102.16 10.341 101.981C10.1832 101.202 9.77297 100.529 9.47841 99.8032C9.41529 99.6454 9.23645 99.6454 9.12073 99.7401C8.38434 100.256 7.50066 100.35 6.64855 100.697Z" fill="#0A408F"/>
<path d="M11.8141 58.5542C11.7194 58.7646 11.9509 59.1749 11.6353 59.2591C11.1513 59.3958 10.6043 59.4064 10.1625 59.1328C9.90998 58.975 9.66803 58.9119 9.38399 58.9014C8.47927 58.8488 7.65871 58.3859 6.74347 58.3754C6.49099 58.3754 6.31215 58.0177 5.99655 58.0703C5.87032 58.0914 5.702 58.0177 5.65992 58.2176C5.53368 58.9645 5.15496 59.6483 5.176 60.4373C5.18652 60.7634 5.27068 60.9738 5.5968 60.9633C6.55411 60.9212 7.40623 61.3841 8.34251 61.5209C9.08943 61.6261 9.83634 61.9101 10.6043 62.0153C10.8463 62.0469 10.9935 62.1836 10.9199 62.4466C10.8147 62.8148 10.6885 63.183 10.5727 63.5407C10.5307 63.6775 10.4465 63.6249 10.3308 63.6144C9.26827 63.5302 8.27939 63.1304 7.24843 62.9306C6.04915 62.7096 4.89196 62.2573 3.66112 62.1626C3.40864 62.1416 3.39812 61.9838 3.42968 61.7944C3.58748 60.6688 3.89256 59.5852 4.1766 58.4911C4.34492 57.8494 4.47116 57.2077 4.58688 56.5555C4.65 56.1873 4.78676 56.1662 5.15496 56.2293C5.98603 56.3871 6.80659 56.6186 7.62715 56.8185C8.56343 57.0499 9.54179 57.1446 10.4465 57.5338C10.6253 57.6075 10.8147 57.6285 11.0041 57.639C11.8562 57.7127 11.8562 57.7127 11.8141 58.5542Z" fill="#0A408F"/>
<path d="M13.6234 48.9179C13.6971 47.9711 13.634 48.0026 12.7713 47.5187C12.0665 47.119 11.3196 46.8244 10.6252 46.3931C10.0467 46.0354 9.38389 45.8355 8.78426 45.4989C8.55282 45.3726 8.5423 45.278 8.60542 45.057C8.79478 44.2996 9.26817 43.6789 9.57325 42.9846C9.88885 42.2482 10.2886 41.5434 10.6147 40.8175C10.7304 40.565 10.8146 40.5755 11.0355 40.6912C12.624 41.5118 14.2231 42.3218 15.8326 43.0898C16.2219 43.2792 16.6321 43.437 17.0003 43.6579C17.3791 43.8788 17.3896 44.1628 17.2213 44.4995C17.2107 44.531 17.1897 44.5626 17.1581 44.5836C16.8741 44.752 17.0845 45.4463 16.569 45.2569C16.2745 45.1517 15.8852 45.1202 15.6538 44.8151C15.4329 44.5205 15.0016 44.4364 14.707 44.3417C14.2652 44.1944 13.918 43.8998 13.4972 43.7315C13.0869 43.5632 12.603 43.437 12.2453 43.0898C12.0139 42.8584 11.6352 42.8689 11.3722 42.6374C11.267 42.5428 11.1618 42.69 11.1302 42.8268C10.9829 43.3844 10.6884 43.8788 10.3938 44.3732C10.2676 44.5836 10.3517 44.6468 10.5306 44.6994C11.3301 44.9413 12.0139 45.4252 12.7713 45.7724C13.3815 46.0564 13.9811 46.3615 14.5492 46.7297C15.3066 47.2242 15.517 48.0868 15.0752 48.8968C15.0121 49.0231 14.9174 49.1283 14.8438 49.2545C14.6334 49.6543 14.4019 49.8752 14.0548 49.3807C13.9285 49.1914 13.4972 49.3176 13.6234 48.9179Z" fill="#0A408F"/>
<path d="M29.5611 20.293C29.4665 19.6934 29.235 19.1148 29.2035 18.5046C29.1719 17.9892 29.8873 17.0739 30.3922 17.0108C30.5921 16.9898 30.6868 17.0529 30.7078 17.2528C30.7394 17.5789 30.813 17.9155 30.8025 18.2416C30.8025 19.1569 31.2128 20.009 31.1917 20.9348C31.1812 21.1872 31.4021 21.1662 31.5704 21.1978C32.7908 21.4608 33.9795 21.8921 35.2314 22.0709C35.6101 22.1235 35.568 22.3339 35.3681 22.5338C35.0526 22.8599 34.7159 23.165 34.3582 23.449C34.1794 23.5858 33.9585 23.6699 33.7586 23.428C33.706 23.3649 33.6113 23.3438 33.5272 23.3228C32.9801 23.1755 32.412 23.144 31.886 22.881C31.6651 22.7652 31.3601 22.7442 31.5284 23.2386C31.7808 23.9855 31.5915 24.8061 31.7493 25.5846C31.7914 25.7739 31.6125 25.9317 31.4547 26.058C31.3495 26.1421 31.2338 26.2263 31.1391 26.3315C30.5079 27.0258 30.4869 27.0258 30.2134 26.1316C30.003 25.4583 30.0661 24.743 30.003 24.0487C29.9504 23.5542 29.8557 23.0703 29.6558 22.6285C29.4244 22.1025 28.8142 22.0288 28.3303 21.9552C27.6255 21.8605 27.0153 21.3976 26.2684 21.4502C26.0896 21.4608 25.8476 21.3135 25.795 21.0926C25.7319 20.8611 26.0054 20.8506 26.1001 20.7244C26.605 20.009 27.2152 19.8196 28.0147 20.2615C28.3724 20.4614 28.8247 20.4298 29.2035 20.6402C29.5085 20.7664 29.6137 20.5981 29.5611 20.293Z" fill="#0A408F"/>
<path d="M69.4528 2.93513C69.4528 2.86149 69.4528 2.79837 69.4528 2.72473C69.4002 1.50441 69.4002 1.51493 70.5784 1.42025C70.9256 1.38869 71.0834 1.46233 71.0729 1.86209C71.0518 2.52485 71.0729 3.19813 71.1044 3.86089C71.1149 4.02921 70.9677 4.28169 71.2517 4.34481C71.4937 4.39741 71.7672 4.27117 71.8093 4.05025C71.925 3.56633 72.209 3.16657 72.3352 2.71421C72.6719 1.52545 73.2926 1.02049 74.5129 1.08361C74.6812 1.09413 74.8074 1.10465 74.8495 1.31505C74.9863 1.92521 74.8285 2.23029 74.2394 2.37757C73.8501 2.47225 73.6713 2.77733 73.6502 3.09293C73.6082 3.63997 73.3346 4.05025 73.0296 4.45001C72.8613 4.67093 72.9033 4.79717 73.0927 4.96549C74.0816 5.87021 74.6496 7.06949 75.344 8.17409C75.5228 8.45813 75.4176 8.55281 75.1336 8.55281C75.0073 8.55281 74.8811 8.54229 74.7654 8.56333C73.9448 8.70009 73.3978 8.45813 73.0611 7.62705C72.8087 7.00637 72.3458 6.48037 71.9671 5.92281C71.8619 5.77553 71.7251 5.62825 71.5357 5.69137C71.2727 5.77553 71.4411 5.99645 71.4516 6.14373C71.5357 6.98533 71.4831 7.82693 71.5042 8.66853C71.5147 8.86841 71.4411 8.96309 71.2412 8.96309C71.1886 8.96309 71.136 8.96309 71.0834 8.97361C69.8631 9.04725 69.8315 9.04725 69.8631 7.82693C69.9157 6.16477 69.4633 4.56573 69.4528 2.93513Z" fill="#0A408F"/>
<path d="M10.2042 83.4024C10.3199 83.981 10.1831 84.3492 9.54142 84.6438C8.91023 84.9278 8.40527 85.4854 7.84771 85.9483C7.67939 86.085 7.47951 86.2849 7.59523 86.5269C7.70043 86.7373 7.93187 86.6215 8.12123 86.6215C8.82607 86.611 9.45726 86.2218 10.1621 86.2007C10.4882 86.1902 10.6776 86.2323 10.7091 86.5689C10.7617 86.9477 11.1089 87.3474 10.909 87.6735C10.6986 88.0102 10.1831 87.7787 9.83598 87.905C8.61567 88.3363 7.30067 88.2942 6.05932 88.6203C5.43864 88.7887 4.7338 88.6098 4.13417 89.0096C3.92377 89.1463 3.63973 89.1148 3.60817 88.7466C3.60817 88.694 3.58713 88.6414 3.57661 88.5888C3.52401 88.2521 3.14529 87.8313 3.34517 87.6209C3.66077 87.2843 4.19729 87.1791 4.6812 87.116C5.0494 87.0634 5.4176 87.0739 5.7858 87.0529C5.98568 87.0423 6.29076 87.0634 6.26972 86.8004C6.2592 86.6005 6.154 86.327 5.85944 86.2744C5.72268 86.2428 5.58592 86.2007 5.44916 86.1902C4.74432 86.1902 4.17625 85.7589 3.52401 85.5801C3.04009 85.4538 2.59825 84.0862 2.85073 83.6759C3.00853 83.4129 3.34517 83.455 3.60817 83.4129C3.91325 83.3603 3.91325 83.6233 3.92377 83.7917C3.96585 84.4018 4.23937 84.6227 4.88108 84.6438C5.40708 84.6543 5.91204 84.9278 6.42752 85.0961C6.59584 85.1487 6.74312 85.1698 6.82728 84.9909C7.18495 84.2861 7.82667 83.8863 8.42631 83.4445C8.78399 83.192 9.15218 82.9606 9.45726 82.645C9.60454 82.4872 9.81494 82.3504 10.0148 82.4241C10.2357 82.4977 10.1516 82.7607 10.1726 82.9395C10.2147 83.0658 10.2042 83.2236 10.2042 83.4024Z" fill="#0A408F"/>
<path d="M19.9773 122.463C19.9668 121.296 20.6191 120.507 21.6395 120.128C22.439 119.833 23.0597 120.149 23.6593 120.549C24.1643 120.885 24.5956 121.327 24.9533 121.843C25.2058 122.211 25.4583 122.053 25.6897 121.843C26.1 121.475 26.5208 121.096 26.9205 120.707C27.194 120.433 27.4465 120.496 27.699 120.728C27.72 120.749 27.7411 120.78 27.7621 120.812C28.4564 121.559 28.4354 121.538 27.699 122.253C26.2367 123.673 24.5851 124.872 23.1544 126.314C22.944 126.524 22.7651 126.535 22.5758 126.324C21.8604 125.493 21.1556 124.641 20.4402 123.81C20.0825 123.389 19.8932 122.926 19.9773 122.463ZM22.5337 121.716C22.1971 121.759 21.8183 121.78 21.6605 122.158C21.4922 122.569 21.5343 122.968 21.8815 123.305C22.1129 123.526 22.2812 123.778 22.3969 124.073C22.5442 124.441 22.7862 124.431 23.0387 124.199C23.3122 123.936 23.5857 123.684 23.9118 123.473C24.1643 123.316 24.2064 123.063 23.9644 122.811C23.7435 122.59 23.5436 122.348 23.3332 122.116C23.1333 121.864 22.8914 121.685 22.5337 121.716Z" fill="#0A408F"/>
<path d="M112.606 11.1512C114.047 11.1512 115.172 11.8771 115.825 13.2868C116.056 13.7918 116.004 14.3493 115.983 14.8858C115.972 15.0436 115.856 15.0752 115.72 15.0542C115.614 15.0331 115.52 15.0016 115.414 14.9805C115.088 14.9069 114.668 15.0226 114.468 14.7912C114.257 14.5597 114.373 14.16 114.362 13.8233C114.331 13.1395 113.016 12.2664 112.311 12.624C111.406 13.0869 110.849 13.7812 110.417 14.686C110.102 15.3487 110.112 15.8642 110.523 16.4743C111.091 17.3159 112.206 17.337 112.774 16.811C113.132 16.4849 113.321 16.548 113.563 16.8636C113.689 17.0319 113.794 17.2318 113.963 17.3475C114.352 17.6105 114.184 17.8104 113.942 18.0208C113.068 18.7887 111.522 18.8624 110.502 18.2733C109.281 17.5895 108.629 16.5585 108.576 15.212C108.524 13.7392 110.144 11.6457 111.543 11.2038C111.838 11.1302 112.153 11.1933 112.606 11.1512Z" fill="#0A408F"/>
<path d="M65.0976 1.98827C66.1917 1.72527 66.8965 2.55635 67.6224 3.31379C67.7697 3.46107 67.7276 3.57679 67.5698 3.70302C67.1911 4.0081 66.7282 4.12382 66.2864 4.28162C66.076 4.35526 66.0234 4.14486 65.9498 4.01862C65.3817 3.06131 64.2981 3.29275 63.5828 3.97654C62.7833 4.73398 63.0042 5.65974 63.3198 6.54342C63.4881 7.01682 63.6354 7.49022 64.0036 7.87946C64.519 8.40546 65.1397 8.30026 65.7288 8.1635C66.2338 8.04778 66.5494 7.65854 66.5178 7.07994C66.4863 6.5855 66.7177 6.4277 67.1806 6.52238C67.2121 6.5329 67.2542 6.52238 67.2858 6.52238C67.5803 6.56446 68.0117 6.40666 68.1274 6.6381C68.2852 6.98526 68.2431 7.44814 68.0853 7.81634C67.4646 9.1629 66.076 9.92034 64.6768 9.6889C63.2882 9.45746 62.2573 8.6895 61.8049 7.2167C61.5945 6.5329 61.4157 5.87014 61.4683 5.17582C61.5629 3.87134 62.1205 2.87195 63.3724 2.32491C64.0772 2.01983 64.0667 2.00931 65.0976 1.98827Z" fill="#0A408F"/>
<path d="M4.53418 91.9552C4.7551 91.3871 5.1759 90.9768 5.58618 90.5455C5.78606 90.3351 5.90178 90.3877 6.02802 90.5981C6.16478 90.8401 6.31205 91.082 6.43829 91.324C6.60661 91.6396 6.66973 91.8816 6.28049 92.1551C5.58618 92.6285 5.89126 94.2801 6.70129 94.6168C7.25885 94.8482 7.76381 94.9639 8.39501 94.722C8.83685 94.5536 9.33129 94.48 9.80468 94.2696C10.5726 93.9224 10.8672 93.0703 10.741 92.4181C10.6147 91.7764 9.87832 91.1136 9.21557 91.1346C8.76321 91.1557 8.61593 91.0084 8.70009 90.5771C8.71061 90.5245 8.68957 90.4719 8.70009 90.4193C8.74217 90.1563 8.55281 89.746 8.80529 89.6513C9.20505 89.504 9.6574 89.5461 10.1098 89.7144C11.3301 90.1668 11.7824 91.1452 12.1191 92.2708C12.3821 93.1334 12.1296 93.9119 11.6667 94.5957C11.0145 95.553 10.0992 96.1211 8.92101 96.3105C8.41605 96.3946 7.93213 96.6471 7.39561 96.4998C5.99646 96.1422 4.94446 95.3847 4.53418 93.9224C4.68146 93.2807 4.69198 92.618 4.53418 91.9552Z" fill="#0A408F"/>
<path d="M54.325 12.1296C54.3461 12.2137 54.2829 12.3189 54.1251 12.382C53.9463 12.4557 53.778 12.5504 53.5991 12.624C52.9364 12.9186 52.8207 12.8449 52.6208 12.1506C52.484 11.6562 52.2841 11.1722 52.0737 10.6988C51.8633 10.257 51.695 10.2254 51.3373 10.6042C50.7903 11.1722 50.075 11.3406 49.3701 11.4773C48.5285 11.6456 47.5607 10.9618 47.182 10.1623C46.8138 9.38384 46.5087 8.5738 46.1931 7.77428C46.1615 7.70064 46.0984 7.60596 46.1194 7.54284C46.2352 7.22724 47.466 6.95372 47.7185 7.18516C47.7921 7.2588 47.8868 7.34296 47.8973 7.43764C47.9499 7.90052 48.2445 8.26872 48.3497 8.68952C48.4549 9.0998 48.6653 9.43644 48.8862 9.75204C49.1492 10.1413 49.6331 9.98348 49.9803 9.81516C50.4011 9.61528 50.8219 9.4154 51.2006 9.12084C51.411 8.95252 51.432 8.80524 51.3268 8.63692C50.9586 8.1004 50.8324 7.45868 50.6115 6.86956C50.4852 6.54344 50.1065 6.29096 50.2117 5.93328C50.3169 5.56508 50.7903 5.74392 51.0638 5.53352C51.5583 5.16532 51.6109 5.21792 51.8844 5.79652C52.4525 6.98528 52.8417 8.23716 53.3782 9.42592C53.7043 10.1413 53.9042 10.9198 54.2514 11.6351C54.304 11.7614 54.2935 11.9192 54.325 12.1296Z" fill="#0A408F"/>
<path d="M33.3904 135.413C32.0544 135.024 30.9814 133.878 30.8656 132.72C30.7815 131.921 31.4968 131.1 32.2964 131.079C33.0117 131.058 33.0117 131.058 32.896 130.343C32.7066 129.112 33.0327 128.418 34.1479 127.881C34.5476 127.692 35.0105 127.692 35.4313 127.892C36.2729 128.281 37.104 128.712 37.672 129.48C38.0402 129.985 38.3664 130.522 38.2612 131.206C38.198 131.605 38.0823 131.91 37.5774 131.868C37.0408 131.816 36.6832 131.5 36.6937 131.058C36.7042 130.501 36.052 129.543 35.526 129.438C35.1788 129.365 34.7791 129.312 34.5266 129.691C34.2741 130.059 34.3267 130.68 34.6318 131.058C34.6739 131.111 34.758 131.142 34.7791 131.206C34.8948 131.458 35.4944 131.479 35.1367 131.952C34.758 132.447 34.4214 132.51 33.9269 132.173C33.4851 131.879 33.1485 132.068 32.8118 132.363C32.4647 132.668 32.4121 133.025 32.6014 133.404C32.8749 133.962 33.3589 134.172 33.9795 134.046C34.5581 133.93 35.2104 134.34 35.3471 134.898C35.3892 135.087 35.3682 135.245 35.1473 135.308C34.9369 135.382 34.7265 135.466 34.5055 135.54C34.1584 135.266 33.7691 135.445 33.3904 135.413Z" fill="#0A408F"/>
<path d="M101.465 101.318C101.707 101.434 101.602 101.655 101.602 101.833C101.612 103.169 101.623 104.495 101.602 105.831C101.591 106.22 101.675 106.378 102.117 106.378C107.43 106.368 112.742 106.368 118.055 106.378C118.455 106.378 118.56 106.241 118.549 105.863C118.528 104.463 118.539 103.054 118.539 101.655C118.539 92.5338 118.444 83.4024 118.56 74.2816C118.686 64.214 118.592 54.1463 118.634 44.0787C118.655 39.7971 118.634 35.526 118.644 31.2443C118.644 30.7815 118.549 30.6131 118.045 30.6131C113.847 30.6342 109.65 30.6342 105.452 30.6237C104.61 30.6237 103.779 30.4764 102.938 30.5185C102.685 30.529 102.454 30.5816 102.212 30.6237C102.222 30.3922 102.38 30.3396 102.57 30.3501C106.388 30.5185 110.207 30.4133 114.026 30.4448C115.425 30.4553 116.835 30.4659 118.234 30.4659C118.623 30.4659 118.76 30.6026 118.77 31.0234C118.876 37.9771 118.781 44.9413 118.77 51.8951C118.739 68.5587 118.707 85.2329 118.686 101.897C118.686 103.285 118.665 104.663 118.686 106.052C118.686 106.473 118.592 106.662 118.108 106.662C112.69 106.662 107.272 106.694 101.865 106.725C101.654 106.725 101.444 106.778 101.454 106.431C101.476 104.716 101.465 103.012 101.465 101.318Z" fill="#0A408F"/>
<path d="M130.742 35.7048C130.006 35.7154 128.954 34.9474 128.764 34.3162C128.701 34.1163 128.701 33.948 128.943 33.8428C129.101 33.7797 129.248 33.6745 129.375 33.5482C129.606 33.3273 129.764 33.3904 129.911 33.6324C130.058 33.8744 130.216 34.0953 130.49 34.211C131.016 34.4424 131.342 34.3057 131.584 33.8007C132.31 32.2858 133.046 30.771 133.783 29.2561C133.93 28.9405 134.109 28.8563 134.33 29.2035C134.424 29.3508 134.508 29.5086 134.635 29.6138C135.171 30.0661 135.055 30.5395 134.708 31.0234C134.193 31.7493 133.982 32.6435 133.404 33.3273C133.341 33.401 133.278 33.5482 133.372 33.664C133.456 33.7586 133.583 33.7376 133.667 33.6955C134.298 33.3378 135.034 33.3273 135.697 33.0959C135.865 33.0433 136.023 32.9591 136.192 32.917C136.917 32.7172 137.706 33.1695 137.885 33.8954C137.917 34.0322 137.875 34.0848 137.749 34.1268C137.612 34.1689 137.496 34.2531 137.359 34.2846C136.307 34.5056 135.245 34.6949 134.203 34.9579C133.362 35.1683 132.499 35.3051 131.657 35.5155C131.321 35.5891 130.995 35.7048 130.742 35.7048Z" fill="#0A408F"/>
<path d="M129.911 26.1738C129.911 26.0581 129.838 25.9739 129.754 25.9213C129.354 25.6583 129.122 25.227 128.765 24.9219C128.523 24.7115 128.565 24.5011 128.723 24.2802C129.164 23.67 129.501 23.6385 130.006 24.1855C131.121 25.4164 132.215 26.6577 133.341 27.878C133.53 28.0779 133.499 28.1831 133.33 28.3409C133.267 28.404 133.204 28.4566 133.141 28.5198C132.531 29.0563 132.52 29.0563 131.984 28.4356C131.858 28.2883 131.71 28.1621 131.595 28.0148C131.048 27.3626 131.058 27.3626 130.427 27.9517C129.249 29.0668 128.06 30.1714 126.892 31.297C126.65 31.5285 126.482 31.5074 126.293 31.2655C126.061 30.9604 125.651 30.7605 125.588 30.3713C125.514 29.9084 126.03 29.8453 126.261 29.5928C127.313 28.4672 128.491 27.4888 129.648 26.4789C129.754 26.3842 129.911 26.3421 129.911 26.1738Z" fill="#0A408F"/>
<path d="M24.059 33.7691C24.0379 34.1057 23.3331 34.9473 23.1332 34.9999C23.007 35.0315 22.9228 34.9894 22.8492 34.9158C21.5657 33.727 20.0614 32.8328 18.7674 31.6546C18.4729 31.3916 18.0205 31.5178 17.7891 31.9807C17.6523 32.2752 17.3893 32.4646 17.2631 32.7486C17.2315 32.8118 17.1789 32.8644 17.1263 32.8959C16.6214 33.1379 16.432 32.6329 16.1059 32.4541C15.8218 32.2963 16.0217 32.0543 16.1269 31.9176C17.1894 30.55 18.1888 29.1403 19.304 27.8042C19.567 27.4886 19.7248 27.5202 19.9667 27.7727C20.0719 27.8884 20.1876 27.9936 20.3033 28.0988C20.5979 28.3513 20.5453 28.5722 20.2928 28.8352C20.0193 29.1192 19.7773 29.4559 19.5354 29.7715C19.3881 29.9714 19.3145 30.1186 19.588 30.329C21.0187 31.3916 22.4284 32.4751 23.8486 33.5482C23.9643 33.6534 24.059 33.7375 24.059 33.7691Z" fill="#0A408F"/>
<path d="M115.268 21.1452C115.278 21.0189 115.268 20.9137 115.352 20.8296C116.404 19.6198 117.245 18.2627 118.224 17.0108C118.739 16.3586 118.718 16.3481 118.013 15.8115C117.866 15.6958 117.729 15.5485 117.582 15.4328C117.109 15.0436 117.161 14.4439 117.687 14.1283C117.855 14.0231 118.024 13.9916 118.171 14.1283C119.497 15.2855 121.054 16.1482 122.379 17.3159C122.61 17.5158 122.705 17.6315 122.432 17.8419C122.337 17.9155 122.305 18.0523 122.232 18.147C121.916 18.5467 121.643 18.5678 121.264 18.2417C120.99 17.9997 120.727 17.7367 120.433 17.5158C120.286 17.4001 120.096 17.2212 119.896 17.4947C119.023 18.6625 118.14 19.8302 117.277 21.0084C117.098 21.2609 116.93 21.5239 116.782 21.7974C116.625 22.1025 116.425 22.1551 116.141 21.9973C115.867 21.8395 115.688 21.566 115.373 21.4713C115.236 21.4082 115.289 21.2398 115.268 21.1452Z" fill="#0A408F"/>
<path d="M89.9985 56.4922C89.704 56.3555 89.8407 56.0925 89.8407 55.8926C89.8302 51.7372 89.9039 47.5818 89.8092 43.4264C89.7566 40.9963 89.7145 38.5557 89.7566 36.1255C89.7776 34.6212 89.8302 33.1168 89.8407 31.6125C89.8407 31.4862 89.8513 31.3705 89.8407 31.2443C89.7987 30.571 89.7461 30.5184 89.0623 30.5184C78.8263 30.5184 68.5904 30.571 58.3545 30.4868C55.3457 30.4658 52.3265 30.5289 49.3283 30.3921C47.1402 30.2869 44.952 30.3711 42.7639 30.308C42.4272 30.2975 42.1011 30.3185 41.8171 30.5184C41.7645 30.3395 41.775 30.2028 42.0064 30.1923C42.1432 30.1923 42.2905 30.1923 42.4272 30.1923C54.1149 30.2133 65.8026 30.4553 77.4903 30.4342C81.4879 30.4237 85.4855 30.4237 89.4725 30.4027C89.8618 30.4027 89.967 30.4973 89.967 30.8971C89.8933 38.8713 89.9775 46.8454 89.988 54.8196C89.9775 55.3771 89.988 55.9347 89.9985 56.4922Z" fill="#0A408F"/>
<path d="M69.2216 93.8278C69.0533 94.0592 68.8008 93.954 68.5904 93.954C56.4608 93.9645 44.3313 93.954 32.2017 93.9645C31.3707 93.9645 31.3496 93.9856 31.3496 94.8167C31.3496 102.307 31.3496 109.787 31.3391 117.277C31.3391 117.761 31.4864 117.855 31.9387 117.855C35.0632 117.834 38.1771 117.845 41.3015 117.845C41.4909 117.845 41.6908 117.792 41.8591 117.919C41.6487 117.929 41.4383 117.94 41.2279 117.94C38.0193 117.95 34.8107 117.961 31.6126 117.992C31.276 117.992 31.2444 117.876 31.2444 117.603C31.2444 116.425 31.2234 115.257 31.2339 114.079C31.2444 107.504 31.2549 100.939 31.2549 94.3643C31.2549 93.9856 31.3075 93.8278 31.7494 93.8278C43.5633 93.8383 55.3667 93.8278 67.1807 93.8173C67.8645 93.8173 68.5378 93.8278 69.2216 93.8278Z" fill="#0A408F"/>
<path d="M41.8065 31.7915C41.9012 31.8231 41.9643 31.8757 41.9643 31.9703C41.9327 32.7699 42.0485 33.5799 41.9012 34.3794C41.8696 34.5477 41.8696 34.7266 41.8696 34.9054C41.8696 37.2829 41.8801 39.671 41.8591 42.0485C41.8591 42.564 41.9853 42.7533 42.5324 42.7428C44.952 42.7113 47.3716 42.7639 49.7807 42.7218C51.001 42.7007 52.1687 42.9427 53.3574 43.09C54.0202 43.1741 54.683 43.1005 55.3352 43.2478C55.5561 43.3004 55.7876 43.2688 55.9559 43.4582C54.8618 43.3109 53.7572 43.3109 52.6631 43.1636C49.181 42.7007 45.6779 42.9427 42.1852 42.9006C41.8696 42.9006 41.7539 42.8585 41.7539 42.5219C41.7644 38.9872 41.7749 35.4419 41.7749 31.9072C41.7855 31.8546 41.796 31.8231 41.8065 31.7915Z" fill="#0A408F"/>
<path d="M86.6424 0.420869C86.6529 0.231509 86.5267 -0.0314903 86.9054 0.0105896C87.1369 0.0316295 87.4314 -0.10513 87.4314 0.347229C87.4314 0.820628 87.8417 0.946867 88.2099 0.957387C88.6307 0.967907 88.9778 0.715428 89.1041 0.305149C89.1567 0.136829 89.1672 0.0211095 89.3776 0.0211095C89.5775 0.0211095 89.5775 0.178909 89.609 0.305149C89.7248 0.799588 89.6827 1.23091 89.2198 1.55703C88.7148 1.91471 88.1678 2.13562 87.6208 1.79899C87.1053 1.49391 86.5898 1.13623 86.6424 0.420869Z" fill="#0A408F"/>
<path d="M79.5308 117.845C79.6886 117.635 79.92 117.729 80.1199 117.729C84.3279 117.719 88.5359 117.729 92.7439 117.729C93.5118 117.729 93.6275 117.614 93.6275 116.846C93.6275 111.365 93.6275 105.873 93.6275 100.392C93.6275 100.161 93.6381 99.94 93.5223 99.7296C93.8905 99.7401 93.7538 100.035 93.7538 100.203C93.7643 101.118 93.7433 102.023 93.7433 102.938C93.7433 107.735 93.7327 112.532 93.7538 117.34C93.7538 117.792 93.6065 117.877 93.1962 117.877C88.7147 117.866 84.2227 117.887 79.7412 117.887C79.6675 117.866 79.5939 117.856 79.5308 117.845Z" fill="#0A408F"/>
<path d="M62.499 60.4057C62.3727 60.1427 62.1623 60.0796 61.8678 60.0796C56.7656 60.0901 51.6634 60.0901 46.5718 60.0901C46.3929 60.0901 46.2246 60.0796 46.0563 60.1532C45.8985 60.2163 45.7828 60.1848 45.7617 59.9849C50.6851 59.9639 55.6084 59.9323 60.5317 59.9113C61.0893 59.9113 61.6469 59.9639 62.2149 59.9744C62.5411 59.9744 62.6042 60.1322 62.499 60.4057Z" fill="#0A408F"/>
<path d="M45.9722 65.571C46.13 65.3606 46.3614 65.4553 46.5613 65.4553C51.5898 65.4448 56.6184 65.4553 61.6574 65.4553C62.3833 65.4553 62.3833 65.4553 62.3833 64.7294C62.3833 63.5722 62.3833 62.415 62.3833 61.2578C62.3833 61.079 62.3097 60.8686 62.499 60.7213C62.5621 62.2467 62.5095 63.7616 62.5095 65.287C62.5095 65.7288 62.2045 65.5815 62.0046 65.5815C58.554 65.592 55.1035 65.592 51.6529 65.5815C49.7594 65.571 47.8658 65.571 45.9722 65.571Z" fill="#0A408F"/>
<path d="M45.646 55.9662C45.8669 55.5139 46.3929 55.5244 46.719 55.4928C47.9709 55.3771 49.1597 55.0089 50.3695 54.767C51.3373 54.5776 52.3472 54.5145 53.294 54.1568C53.8516 53.9464 54.4828 54.1989 55.0509 53.9674C56.0713 53.5466 57.1443 53.6834 58.1963 53.6624C58.3962 53.6624 58.5856 53.6518 58.6908 53.8728C58.0385 53.8622 57.3863 53.7886 56.7551 53.8622C55.377 54.0306 53.9883 54.1673 52.6418 54.5145C51.9159 54.7038 51.169 54.767 50.4431 54.9142C49.3385 55.1246 48.255 55.4718 47.1188 55.577C46.6138 55.6296 46.1299 55.8295 45.646 55.9662Z" fill="#0A408F"/>
<path d="M69.4527 43.8894C69.5789 44.0577 69.5263 44.2576 69.5263 44.447C69.5263 50.8326 69.5263 57.2287 69.5263 63.6143C69.5263 63.8037 69.5894 64.0036 69.4527 64.1719C69.4422 64.0877 69.4316 63.993 69.4316 63.9089C69.4316 57.3339 69.4316 50.7695 69.4316 44.1945C69.4316 44.0998 69.4422 43.9946 69.4527 43.8894Z" fill="#0A408F"/>
<path d="M69.3688 83.3394C69.4635 83.4972 69.4214 83.676 69.4214 83.8548C69.4214 86.9687 69.4214 90.0721 69.4214 93.1861C69.4214 93.3754 69.5266 93.6174 69.2847 93.7542C69.3057 90.2826 69.3373 86.811 69.3688 83.3394Z" fill="#0A408F"/>
<path d="M59.7637 54.4093C60.0477 54.767 60.1424 55.1878 60.1634 55.6297C60.174 55.8506 60.2266 56.0399 60.479 55.9768C61.005 55.8506 61.5521 55.9347 62.0781 55.7769C62.299 55.7138 62.4778 55.5876 62.4673 55.3561C62.4042 54.0411 62.6777 52.7051 62.278 51.4111C62.5304 51.6005 62.562 51.8845 62.5725 52.1581C62.6356 53.3047 62.6041 54.4619 62.583 55.6086C62.5725 55.8821 62.4778 55.9663 62.2148 55.9768C61.6257 55.9979 61.0261 56.0399 60.437 56.082C60.1634 56.1031 60.0056 56.0505 60.0372 55.7243C60.1003 55.2615 59.8163 54.8512 59.7637 54.4093Z" fill="#0A408F"/>
<path d="M53.7466 83.8233C53.8518 83.5393 54.1043 83.655 54.2936 83.655C56.0399 83.6445 57.7863 83.6235 59.5326 83.655C60.5109 83.6761 61.4788 83.5182 62.4571 83.5393C62.4571 83.7813 62.2572 83.7497 62.1205 83.7497C59.6798 83.7707 57.2392 83.7918 54.7986 83.8128C54.5671 83.7181 54.3252 83.7287 54.0937 83.8128C53.9675 83.8128 53.8518 83.8128 53.7466 83.8233Z" fill="#0A408F"/>
<path d="M69.4529 69.9789C69.5687 70.1156 69.5266 70.284 69.5266 70.4312C69.5266 73.4505 69.5266 76.4592 69.5266 79.4785C69.5266 79.6468 69.5792 79.8361 69.4214 79.9729C69.4214 77.0273 69.4214 74.0817 69.4319 71.1361C69.4319 70.7468 69.4424 70.3576 69.4529 69.9789Z" fill="#0A408F"/>
<path d="M43.2368 117.898C43.8575 117.74 44.4887 117.834 45.1094 117.834C45.5196 117.834 45.6669 117.687 45.6564 117.277C45.6354 116.383 45.6459 115.489 45.6564 114.605C45.6564 114.447 45.5722 114.247 45.8037 114.142C45.8773 115.31 45.7826 116.477 45.7932 117.645C45.7932 117.877 45.709 117.94 45.4881 117.94C44.7412 117.919 43.9837 117.908 43.2368 117.898Z" fill="#0A408F"/>
<path d="M62.7935 42.2903C63.3195 42.0905 63.8665 42.2377 64.403 42.2062C64.8449 42.1851 65.2762 42.1957 65.718 42.2062C65.8758 42.2062 66.0862 42.122 66.1599 42.364C65.0448 42.3955 63.9191 42.364 62.7935 42.2903Z" fill="#0A408F"/>
<path d="M45.7513 59.9745C45.6566 59.964 45.5619 59.9219 45.5619 59.8272C45.5724 58.6805 45.4567 57.5444 45.6145 56.4082C45.6461 57.4392 45.6671 58.4807 45.6987 59.5116C45.7092 59.6694 45.7408 59.8272 45.7513 59.9745Z" fill="#0A408F"/>
<path d="M91.5135 53.673C91.3872 54.3673 91.0611 54.9774 90.6719 55.556C90.8612 54.8933 91.1663 54.2726 91.5135 53.673Z" fill="#0A408F"/>
<path d="M66.5913 42.3744C67.475 42.2271 68.3692 42.3429 69.2529 42.3218C69.3476 42.3218 69.4002 42.3955 69.4317 42.4901C68.4849 42.3323 67.5381 42.4586 66.5913 42.3744Z" fill="#0A408F"/>
<path d="M45.825 111.091C45.7093 110.081 45.6778 109.061 45.8461 108.051C45.8461 109.061 45.8356 110.081 45.825 111.091Z" fill="#0A408F"/>
<path d="M56.1558 43.5739C56.7133 43.4898 57.2604 43.6686 57.8179 43.6686C57.9652 43.6686 58.0494 43.7317 58.0599 43.879C57.6496 43.7212 57.2078 43.7948 56.787 43.7527C56.566 43.7317 56.3346 43.7422 56.1558 43.5739Z" fill="#0A408F"/>
<path d="M92.3338 51.9268C92.2496 52.4212 92.0918 52.8841 91.7236 53.2418C91.8394 52.7684 92.0813 52.3476 92.3338 51.9268Z" fill="#0A408F"/>
<path d="M103.916 99.1931C103.464 99.4561 103.053 99.8347 102.464 99.6769C102.99 99.6349 103.38 99.1931 103.916 99.1931Z" fill="#0A408F"/>
<path d="M58.249 44.0157C58.7119 44.0368 59.2064 43.9211 59.543 44.3945C59.1643 44.0789 58.6277 44.3208 58.249 44.0157Z" fill="#0A408F"/>
<path d="M4.53401 91.9552C4.69181 92.618 4.68129 93.2807 4.54453 93.9435C4.48141 93.2807 4.43933 92.618 4.53401 91.9552Z" fill="#04438D"/>
<path d="M33.3906 135.413C33.7588 135.445 34.1481 135.266 34.5058 135.519C34.1165 135.687 33.7378 135.739 33.3906 135.413Z" fill="#04438D"/>
<path d="M93.1966 50.0962C93.1335 50.4118 93.1545 50.7695 92.7969 50.9378C92.9336 50.6538 92.9547 50.3276 93.1966 50.0962Z" fill="#0A408F"/>
<path d="M58.7539 53.8939C59.08 54.0412 59.4903 54.0096 59.7428 54.3358C59.4061 54.1885 58.9853 54.2411 58.7539 53.8939Z" fill="#0A408F"/>
<path d="M90.6716 55.556C90.6295 55.8611 90.6085 56.1767 90.335 56.3976C90.4191 56.1031 90.4191 55.7875 90.6716 55.556Z" fill="#0A408F"/>
<path d="M59.6167 44.4154C59.8902 44.4049 60.1742 44.3628 60.3741 44.6258C60.1111 44.6048 59.8271 44.6469 59.6167 44.4154Z" fill="#0A408F"/>
<path d="M92.7859 50.9694C92.7544 51.1903 92.7965 51.4322 92.5229 51.5374C92.5545 51.327 92.6071 51.1166 92.7859 50.9694Z" fill="#0A408F"/>
<path d="M60.6689 44.8573C60.8899 44.8152 61.0792 44.8573 61.2055 45.0678C61.0161 45.0362 60.8057 45.0362 60.6689 44.8573Z" fill="#0A408F"/>
<path d="M54.083 83.8022C54.3144 83.7181 54.5564 83.7076 54.7878 83.8022C54.5459 83.8443 54.3144 83.8548 54.083 83.8022Z" fill="#04438D"/>
<path d="M91.7133 53.3153C91.7238 53.4731 91.7554 53.6414 91.5239 53.673C91.587 53.5467 91.6502 53.431 91.7133 53.3153Z" fill="#0A408F"/>
<path d="M102.138 99.7295C102.012 99.8978 101.854 99.8347 101.686 99.8137C101.823 99.698 101.981 99.719 102.138 99.7295Z" fill="#0A408F"/>
<path d="M69.4212 80.2781C69.5369 80.3517 69.5369 80.4254 69.4212 80.499C69.4107 80.4254 69.4212 80.3517 69.4212 80.2781Z" fill="#0A408F"/>
<path d="M90.2509 56.4819C90.1983 56.6082 90.1352 56.6397 90.0405 56.5135C90.1142 56.503 90.1773 56.4925 90.2509 56.4819Z" fill="#0A408F"/>
<path d="M61.1948 45.057C61.3421 45.036 61.4157 45.0991 61.4262 45.2464C61.3526 45.1833 61.279 45.1202 61.1948 45.057Z" fill="#0A408F"/>
<path d="M93.3965 49.7385C93.407 49.8437 93.3965 49.9384 93.2598 49.9595C93.2703 49.8648 93.3018 49.7806 93.3965 49.7385Z" fill="#0A408F"/>
<path d="M61.4365 45.2465C61.5312 45.257 61.6153 45.278 61.6153 45.3937C61.5207 45.3832 61.4576 45.3411 61.4365 45.2465Z" fill="#0A408F"/>
<path d="M55.9766 43.458C56.0607 43.4685 56.1344 43.4896 56.1659 43.5842C56.0712 43.5842 55.9976 43.5527 55.9766 43.458Z" fill="#0A408F"/>
<path d="M101.581 99.9189C101.612 100.014 101.602 100.098 101.507 100.15C101.476 100.066 101.486 99.9821 101.581 99.9189Z" fill="#0A408F"/>
<path d="M58.0596 43.8894C58.1542 43.8894 58.2384 43.9104 58.2489 44.0262C58.1648 44.0156 58.0911 43.9841 58.0596 43.8894Z" fill="#0A408F"/>
<path d="M60.3638 44.6257C60.469 44.6257 60.5532 44.6363 60.5532 44.773C60.49 44.7204 60.4269 44.6783 60.3638 44.6257Z" fill="#0A408F"/>
<path d="M45.6143 56.1872C45.6038 56.1662 45.5933 56.1451 45.5933 56.1241C45.5933 56.1136 45.6143 56.103 45.6248 56.0925C45.6353 56.1241 45.6353 56.1556 45.6143 56.1872Z" fill="#0A408F"/>
<path d="M61.605 45.3937C61.6471 45.4252 61.6997 45.4463 61.7417 45.4778C61.6997 45.4463 61.6471 45.4147 61.605 45.3937Z" fill="#0A408F"/>
<path d="M69.4528 43.0479C69.4633 43.0689 69.4738 43.0899 69.4843 43.111C69.4843 43.1215 69.4633 43.132 69.4528 43.1425C69.4318 43.111 69.4318 43.0794 69.4528 43.0479Z" fill="#0A408F"/>
<path d="M69.4528 42.627C69.4633 42.648 69.4738 42.669 69.4843 42.7006C69.4843 42.7111 69.4633 42.7216 69.4528 42.7321C69.4318 42.6901 69.4318 42.6585 69.4528 42.627Z" fill="#0A408F"/>
<path d="M101.686 99.8032C101.686 99.8769 101.644 99.919 101.57 99.919C101.612 99.8874 101.654 99.8453 101.686 99.8032Z" fill="#0A408F"/>
<path d="M92.5336 51.527C92.5126 51.5691 92.481 51.6217 92.46 51.6637C92.481 51.6217 92.5126 51.5796 92.5336 51.527Z" fill="#0A408F"/>
<path d="M93.2597 49.9489C93.2386 49.9909 93.2176 50.0436 93.186 50.0856C93.2176 50.0436 93.2386 50.0015 93.2597 49.9489Z" fill="#0A408F"/>
<path d="M60.5425 44.7626C60.6161 44.7521 60.6582 44.7836 60.6687 44.8573C60.6372 44.8257 60.5846 44.7941 60.5425 44.7626Z" fill="#0A408F"/>
<path d="M62.3308 83.1818C62.3414 83.1923 62.3519 83.2133 62.3519 83.2238C62.3519 83.2343 62.3308 83.2449 62.3203 83.2554C62.3203 83.2344 62.3203 83.2133 62.3308 83.1818Z" fill="#0A408F"/>
</g>
<defs>
<clipPath id="clip0">
<rect width="141.367" height="140" fill="white"/>
</clipPath>
</defs>
</svg>
