<svg width="19" height="22" viewBox="0 0 19 22" fill="none" xmlns="http://www.w3.org/2000/svg">
<path fill-rule="evenodd" clip-rule="evenodd" d="M18.2 6.27534L9.06741 1L0 6.25845V16.6191L8.99002 22L18.2 16.4881V6.27534Z" fill="#CC0A0A"/>
<path d="M8.47015 14.323H12.2791V15.987H5.72715V14.453L9.65315 10.969C10.1905 10.4923 10.4591 10.033 10.4591 9.591C10.4591 9.305 10.4006 9.0515 10.2836 8.8305C10.1666 8.60517 9.99982 8.42967 9.78315 8.304C9.57082 8.174 9.32382 8.109 9.04215 8.109C8.75182 8.109 8.48965 8.17617 8.25565 8.3105C8.02598 8.44483 7.84832 8.62467 7.72265 8.85C7.59698 9.07533 7.53848 9.318 7.54715 9.578H5.72715C5.72715 8.94533 5.86582 8.39283 6.14315 7.9205C6.42482 7.44817 6.81915 7.08417 7.32615 6.8285C7.83315 6.57283 8.41815 6.445 9.08115 6.445C9.68782 6.445 10.2338 6.57933 10.7191 6.848C11.2045 7.11233 11.5858 7.485 11.8631 7.966C12.1405 8.447 12.2791 8.99733 12.2791 9.617C12.2791 10.0633 12.2163 10.4382 12.0906 10.7415C11.9693 11.0405 11.8003 11.307 11.5836 11.541C11.367 11.7707 11.0268 12.087 10.5631 12.49L8.47015 14.323Z" fill="white"/>
</svg>
