<svg width="19" height="22" viewBox="0 0 19 22" fill="none" xmlns="http://www.w3.org/2000/svg">
<path fill-rule="evenodd" clip-rule="evenodd" d="M18.2 6.27534L9.06741 1L0 6.25845V16.6191L8.99002 22L18.2 16.4881V6.27534Z" fill="#CC0A0A"/>
<path d="M9.99567 10.1435C10.429 10.2692 10.8017 10.4772 11.1137 10.7675C11.4257 11.0578 11.6618 11.4002 11.8222 11.7945C11.9825 12.1888 12.0627 12.607 12.0627 13.049C12.0627 13.6253 11.9132 14.1518 11.6142 14.6285C11.3195 15.1052 10.923 15.4822 10.4247 15.7595C9.92633 16.0325 9.38467 16.169 8.79967 16.169C8.33167 16.169 7.88317 16.0758 7.45417 15.8895C7.0295 15.6988 6.659 15.4302 6.34267 15.0835C6.03067 14.7368 5.80967 14.336 5.67967 13.881L7.39567 13.426C7.48233 13.7597 7.65567 14.024 7.91567 14.219C8.18 14.4097 8.47467 14.505 8.79967 14.505C9.064 14.505 9.30883 14.44 9.53417 14.31C9.7595 14.18 9.93717 14.0045 10.0672 13.7835C10.2015 13.5582 10.2687 13.3133 10.2687 13.049C10.2687 12.7803 10.2058 12.5355 10.0802 12.3145C9.9545 12.0892 9.779 11.9115 9.55367 11.7815C9.33267 11.6472 9.08133 11.58 8.79967 11.58C8.54833 11.58 8.30567 11.6493 8.07167 11.788L7.27867 10.397L9.80067 8.304H6.04367V6.64H11.8937V8.304L9.99567 10.1435Z" fill="white"/>
</svg>
