<?xml version="1.0" encoding="UTF-8" standalone="no"?>
<svg
   xmlns:dc="http://purl.org/dc/elements/1.1/"
   xmlns:cc="http://creativecommons.org/ns#"
   xmlns:rdf="http://www.w3.org/1999/02/22-rdf-syntax-ns#"
   xmlns:svg="http://www.w3.org/2000/svg"
   xmlns="http://www.w3.org/2000/svg"
   xmlns:sodipodi="http://sodipodi.sourceforge.net/DTD/sodipodi-0.dtd"
   xmlns:inkscape="http://www.inkscape.org/namespaces/inkscape"
   width="21"
   height="22"
   viewBox="0 0 21 22"
   fill="none"
   version="1.1"
   id="svg13"
   sodipodi:docname="searchHover.svg"
   inkscape:version="0.92.4 (5da689c313, 2019-01-14)">
  <metadata
     id="metadata17">
    <rdf:RDF>
      <cc:Work
         rdf:about="">
        <dc:format>image/svg+xml</dc:format>
        <dc:type
           rdf:resource="http://purl.org/dc/dcmitype/StillImage" />
        <dc:title />
      </cc:Work>
    </rdf:RDF>
  </metadata>
  <sodipodi:namedview
     pagecolor="#ffffff"
     bordercolor="#666666"
     borderopacity="1"
     objecttolerance="10"
     gridtolerance="10"
     guidetolerance="10"
     inkscape:pageopacity="0"
     inkscape:pageshadow="2"
     inkscape:window-width="1613"
     inkscape:window-height="755"
     id="namedview15"
     showgrid="false"
     inkscape:zoom="10.727273"
     inkscape:cx="-17.09322"
     inkscape:cy="9.0423734"
     inkscape:window-x="2107"
     inkscape:window-y="126"
     inkscape:window-maximized="0"
     inkscape:current-layer="g6" />
  <g
     clip-path="url(#clip0)"
     id="g6">
    <path
       d="M16.7171 8.71312C16.7171 4.46559 13.2622 1.08936 8.91568 1.08936C4.56917 1.08936 1.11426 4.46559 1.11426 8.71312C1.11426 12.9606 4.56917 16.3369 8.91568 16.3369C13.2622 16.3369 16.7171 12.9606 16.7171 8.71312Z"
       stroke-miterlimit="10"
       id="path2"
       stroke-linejoin="round"
       stroke-linecap="round"
       stroke-width="2"
       stroke="#1C1B1D"
       style="stroke:#cc0a0a;stroke-opacity:1" />
    <path
       d="M14.3765 14.812L19.8375 20.911"
       stroke-miterlimit="10"
       id="path4"
       stroke-linejoin="round"
       stroke-linecap="round"
       stroke-width="2"
       stroke="#1C1B1D"
       style="stroke:#cc0a0a;stroke-opacity:1" />
    <path
       style="opacity:0;fill:#280b0b;fill-opacity:1;stroke:#ffffff;stroke-width:0.09322034;stroke-opacity:1"
       d="m 19.243987,21.608311 c -0.146344,-0.12314 -1.39019,-1.480558 -2.764102,-3.016483 l -2.498021,-2.792591 -0.995169,0.499897 C 11.650178,16.970499 10.812831,17.18017 9.2415254,17.236923 8.222125,17.273743 7.8146358,17.247535 7.0965225,17.098962 3.669139,16.389862 1.023997,13.768035 0.32476131,10.386889 0.11948568,9.3942812 0.19437037,7.318973 0.46834904,6.4075873 1.5007912,2.9731852 4.3457814,0.61073113 7.9498153,0.19504547 11.29713,-0.19103047 14.708085,1.4500866 16.416221,4.2684974 c 0.838074,1.3828152 1.215135,2.7655986 1.215135,4.4562237 0,2.0750249 -0.618959,3.8283859 -1.914755,5.4240449 l -0.308688,0.380122 2.649148,2.956756 c 1.457031,1.626215 2.674989,3.059715 2.706573,3.185556 0.221935,0.88426 -0.819343,1.526378 -1.519647,0.937111 z M 10.63983,15.163764 c 1.855462,-0.442112 3.594218,-1.830514 4.432281,-3.539188 0.480012,-0.978668 0.641951,-1.7054587 0.643893,-2.8898305 C 15.718036,7.4949829 15.594017,6.9434421 15.066188,5.844915 14.238457,4.1222272 12.838826,2.9383342 10.916206,2.3346112 10.32496,2.1489535 10.024125,2.1161014 8.9152542,2.1161014 c -1.1088705,0 -1.4097055,0.032852 -2.0009519,0.2185098 C 5.0384227,2.9236575 3.6171141,4.1041956 2.8003055,5.7516946 2.3426518,6.67478 2.1728195,7.2951974 2.0985603,8.315254 c -0.1643077,2.256999 0.894912,4.453545 2.7903969,5.786558 1.6383273,1.152166 3.7419803,1.540624 5.7508728,1.061952 z"
       id="path825"
       inkscape:connector-curvature="0" />
    <path
       style="opacity:0;fill:#280b0b;fill-opacity:1;stroke:#ffffff;stroke-width:0.09322034;stroke-opacity:1"
       d="m 19.243987,21.608311 c -0.146344,-0.12314 -1.39019,-1.480558 -2.764102,-3.016483 l -2.498021,-2.792591 -0.995169,0.499897 C 11.650178,16.970499 10.812831,17.18017 9.2415254,17.236923 8.222125,17.273743 7.8146358,17.247535 7.0965225,17.098962 3.669139,16.389862 1.023997,13.768035 0.32476131,10.386889 0.11948568,9.3942812 0.19437037,7.318973 0.46834904,6.4075873 1.5007912,2.9731852 4.3457814,0.61073113 7.9498153,0.19504547 11.29713,-0.19103047 14.708085,1.4500866 16.416221,4.2684974 c 0.838074,1.3828152 1.215135,2.7655986 1.215135,4.4562237 0,2.0750249 -0.618959,3.8283859 -1.914755,5.4240449 l -0.308688,0.380122 2.649148,2.956756 c 1.457031,1.626215 2.674989,3.059715 2.706573,3.185556 0.221935,0.88426 -0.819343,1.526378 -1.519647,0.937111 z M 10.63983,15.163764 c 1.855462,-0.442112 3.594218,-1.830514 4.432281,-3.539188 0.480012,-0.978668 0.641951,-1.7054587 0.643893,-2.8898305 C 15.718036,7.4949829 15.594017,6.9434421 15.066188,5.844915 14.238457,4.1222272 12.838826,2.9383342 10.916206,2.3346112 10.32496,2.1489535 10.024125,2.1161014 8.9152542,2.1161014 c -1.1088705,0 -1.4097055,0.032852 -2.0009519,0.2185098 C 5.0384227,2.9236575 3.6171141,4.1041956 2.8003055,5.7516946 2.3426518,6.67478 2.1728195,7.2951974 2.0985603,8.315254 c -0.1643077,2.256999 0.894912,4.453545 2.7903969,5.786558 1.6383273,1.152166 3.7419803,1.540624 5.7508728,1.061952 z"
       id="path827"
       inkscape:connector-curvature="0" />
    <path
       style="opacity:0;fill:#280b0b;fill-opacity:1;stroke:#ffffff;stroke-width:0.09322034;stroke-opacity:1"
       d="m 19.243987,21.608311 c -0.146344,-0.12314 -1.39019,-1.480558 -2.764102,-3.016483 l -2.498021,-2.792591 -0.995169,0.499897 C 11.650178,16.970499 10.812831,17.18017 9.2415254,17.236923 8.222125,17.273743 7.8146358,17.247535 7.0965225,17.098962 3.669139,16.389862 1.023997,13.768035 0.32476131,10.386889 0.11948568,9.3942812 0.19437037,7.318973 0.46834904,6.4075873 1.5007912,2.9731852 4.3457814,0.61073113 7.9498153,0.19504547 11.29713,-0.19103047 14.708085,1.4500866 16.416221,4.2684974 c 0.838074,1.3828152 1.215135,2.7655986 1.215135,4.4562237 0,2.0750249 -0.618959,3.8283859 -1.914755,5.4240449 l -0.308688,0.380122 2.649148,2.956756 c 1.457031,1.626215 2.674989,3.059715 2.706573,3.185556 0.221935,0.88426 -0.819343,1.526378 -1.519647,0.937111 z M 10.63983,15.163764 c 1.855462,-0.442112 3.594218,-1.830514 4.432281,-3.539188 0.480012,-0.978668 0.641951,-1.7054587 0.643893,-2.8898305 C 15.718036,7.4949829 15.594017,6.9434421 15.066188,5.844915 14.238457,4.1222272 12.838826,2.9383342 10.916206,2.3346112 10.32496,2.1489535 10.024125,2.1161014 8.9152542,2.1161014 c -1.1088705,0 -1.4097055,0.032852 -2.0009519,0.2185098 C 5.0384227,2.9236575 3.6171141,4.1041956 2.8003055,5.7516946 2.3426518,6.67478 2.1728195,7.2951974 2.0985603,8.315254 c -0.1643077,2.256999 0.894912,4.453545 2.7903969,5.786558 1.6383273,1.152166 3.7419803,1.540624 5.7508728,1.061952 z"
       id="path829"
       inkscape:connector-curvature="0" />
  </g>
  <defs
     id="defs11">
    <clipPath
       id="clip0">
      <rect
         width="20.9524"
         height="22"
         fill="white"
         id="rect8" />
    </clipPath>
  </defs>
</svg>
