<svg width="191" height="36" viewBox="0 0 191 36" fill="none" xmlns="http://www.w3.org/2000/svg">
<g clip-path="url(#clip0)">
<path d="M35.999 15.5798C35.999 15.5798 36.9065 5.44538 36.9822 4.46218C37.0578 2.87395 35.7721 0 32.7469 0C31.7637 0 23.5956 0 23.5956 0H18.0746H17.167C17.167 0 8.77207 0 7.10821 0C4.08299 0 2.57039 2.11765 2.3435 4.08403C2.26787 5.29412 0.150221 29.7227 -0.00103985 31.1597C-0.227931 33.4286 1.36031 36 4.15863 36C5.44434 36 14.8981 36 14.8981 36H19.3603C19.3603 36 27.7553 36 29.5704 36C32.9738 36 34.2595 34.1849 34.562 31.4622C34.7133 29.7983 35.5452 19.8908 35.5452 19.8908H20.1922L19.5116 27.605H15.6544L17.3183 8.47059H21.1754L20.5704 15.6555H35.999V15.5798Z" fill="#008C95"/>
<path d="M59.6723 3.10084C59.1428 4.68908 54.6807 18.6807 54.6807 18.6807L56.647 0H41.2941L38.042 36C38.042 36 46.1344 36 49.6134 36C52.4874 36 53.5462 34.3361 54 33.0504C54.605 31.4622 58.8403 19.7395 58.8403 19.7395L57.2521 36.0756H72.605L75.7815 0C75.7815 0 64.8151 0 63.7563 0C61.1092 0 60.0504 1.96639 59.6723 3.10084Z" fill="#008C95"/>
<path d="M137.42 0L135.983 16.4118H132.126L133.563 0H118.21C118.21 0 116.773 17.395 116.546 19.0588C116.395 21.1008 117.53 23.8992 120.933 23.8992C122.521 23.8992 135.378 23.8992 135.378 23.8992L135.076 27.5294H115.866L115.109 36H134.924H135.832C135.832 36 143.849 36 145.664 36C147.706 36 149.748 34.6387 149.975 31.7647C150.126 29.874 152.773 0 152.773 0H137.42V0Z" fill="#008C95"/>
<path d="M177.504 0H171.983H156.63L153.454 36H168.807L169.79 24.8824H175.311H174.252C183.933 24.8824 183.252 24.8824 184.689 24.8824C187.336 24.8824 189.075 23.521 189.378 20.4202C189.454 19.2101 190.739 5.59664 190.815 4.38655C190.966 1.7395 188.849 0 186.277 0C185.218 0 177.504 0 177.504 0ZM170.47 17.395L171.227 8.47059H175.084L174.328 17.395H170.47Z" fill="#008C95"/>
<path d="M94.0082 12.1008L94.3107 8.47059H113.521L114.277 0H95.067H94.1595H79.7141L76.5376 36H82.2855C82.2855 36 105.277 36 107.168 36C109.134 36 111.252 34.8655 111.479 31.8403C111.706 29.5714 112.613 18.9076 112.84 16.9412C113.067 14.3697 111.403 12.1008 108.227 12.1008C106.638 12.1008 94.0082 12.1008 94.0082 12.1008ZM96.504 28.5126H92.5712L93.3275 19.5882H97.2603L96.504 28.5126Z" fill="#008C95"/>
</g>
<defs>
<clipPath id="clip0">
<rect width="190.815" height="36" fill="white"/>
</clipPath>
</defs>
</svg>
