<svg width="135" height="90" viewBox="0 0 135 90" fill="none" xmlns="http://www.w3.org/2000/svg">
<path d="M24.1694 67.3232L63.0551 49.8574C65.4642 48.7837 66.7734 48.2339 69.7062 49.8312L86.8054 60.1221L104.952 51.7951C106.445 51.1666 107.387 51.3238 109.744 52.8425L133.285 67.1661V64.1547L109.744 49.7264C106.576 47.8149 106 48.26 104.952 48.679L86.8054 57.1108L69.7062 46.8198C67.2972 45.5629 65.2809 45.851 62.9503 46.8984L24.1694 64.338V67.3232Z" fill="#0062AF"/>
<path d="M24.1694 64.3119L63.0551 46.8461C65.2023 45.8773 67.2448 45.5107 69.7324 46.7938L86.8316 57.0847L104.978 48.6529C106.392 48.103 106.968 47.9983 109.77 49.7004L133.311 64.1286V61.1173L109.77 46.5843C106.811 44.7513 106.078 45.0393 104.978 45.5369L86.8316 54.0472L69.7586 43.7562C66.9306 42.2637 65.6213 42.6041 63.0813 43.8086L24.1694 61.3268V64.3119Z" fill="#0091D4"/>
<path d="M24.1694 61.3267L63.0813 43.8609C65.4903 42.7873 66.7996 42.2374 69.7586 43.8085L86.8316 54.0995L104.978 45.5892C105.895 45.3011 106.576 44.6465 109.77 46.6366L133.311 61.1696V58.1583L109.77 43.5205C106.68 41.7137 106.078 41.9755 104.978 42.4731L86.8316 51.0881L69.7586 40.7972C67.0615 39.3046 65.6213 39.5927 63.0551 40.8496L24.1694 58.3154V61.3267Z" fill="#00A6E3"/>
<path d="M24.1694 58.3154L63.0551 40.8496C65.438 39.7498 66.7996 39.2261 69.7586 40.7972L86.8316 51.0882L104.978 42.4731C105.973 42.0542 106.864 41.6876 109.77 43.5205L133.311 58.1583V55.147L109.77 40.4306C107.99 39.5141 106.811 38.5715 104.978 39.3832L86.8316 48.103L69.7848 37.7859C67.0877 36.2933 65.6475 36.5814 63.0813 37.8383L24.1694 55.3041V58.3154Z" fill="#98D2F0"/>
<path d="M24.1694 55.304L63.1336 37.7858C65.5427 36.7384 66.8258 36.2147 69.7848 37.7858L86.8316 48.1029L104.978 39.3831C106.628 38.807 107.44 39.1213 109.77 40.4305L133.311 55.1469V52.1355L109.77 37.3145C107.047 35.6124 106.078 35.7695 104.978 36.267L86.8316 45.0654L69.7848 34.7483C67.0877 33.2557 65.4903 33.5961 62.9503 34.853L24.1694 52.2926V55.304Z" fill="#B0DCF2"/>
<path d="M24.1694 70.3346L63.0551 52.8688C65.4642 51.7952 66.7473 51.2715 69.7062 52.8426L86.8316 63.1336L104.978 54.9113C106.523 54.2566 107.126 54.3352 109.77 55.9587L133.337 70.2037V67.1923L109.796 52.8688C107.466 51.3762 106.654 51.1667 105.004 51.8214L86.8578 60.1484L69.7586 49.8575C67.0615 48.3649 65.6736 48.6267 63.1075 49.8836L24.1694 67.3233V70.3346Z" fill="#2E3191"/>
<path d="M73.3461 72.4032C73.2676 72.089 73.1366 71.8533 72.9272 71.7486C72.7177 71.6177 72.4558 71.5653 72.2201 71.5653C71.9583 71.5653 71.7488 71.6177 71.5393 71.7486C71.3298 71.8795 71.1727 72.0628 71.068 72.2985C70.9632 72.5342 70.8847 72.8484 70.8847 73.1888C70.8847 73.7125 70.9894 74.1315 71.1989 74.4195C71.4084 74.7338 71.7488 74.8909 72.2463 74.8909C72.4034 74.8909 72.5344 74.8647 72.6915 74.7861C72.8486 74.7338 72.9795 74.6028 73.1105 74.4457C73.2414 74.2886 73.3461 74.0529 73.3985 73.7649H73.9222C73.8436 74.2362 73.7127 74.5766 73.4771 74.8123C73.2414 75.048 73.0057 75.2051 72.77 75.2836C72.5344 75.3622 72.3249 75.3884 72.1416 75.3884C71.9059 75.3884 71.6702 75.336 71.4608 75.2575C71.2513 75.1789 71.0418 75.048 70.8847 74.8647C70.7014 74.6814 70.5705 74.4719 70.4657 74.1838C70.361 73.8958 70.3086 73.5816 70.3086 73.1888C70.3086 72.8746 70.361 72.5865 70.4395 72.3247C70.5181 72.0628 70.649 71.8271 70.8061 71.6438C70.9632 71.4605 71.1727 71.3034 71.4084 71.1987C71.6441 71.0939 71.9059 71.0416 72.194 71.0416C72.5344 71.0416 72.8224 71.0939 73.0581 71.2249C73.2938 71.3558 73.5032 71.5129 73.6342 71.7224C73.7651 71.9319 73.8437 72.1414 73.8698 72.377L73.3461 72.4032ZM77.5882 75.2575H74.5768V71.1725H77.562V71.67H75.1267V72.9269H77.3525V73.4245H75.1267V74.7861H77.5882V75.2575ZM78.9237 74.7861H80.102C80.3901 74.7861 80.5995 74.7076 80.7567 74.5766C80.9138 74.4457 80.9661 74.2624 80.9661 74.0267C80.9661 73.5816 80.6519 73.3459 80.0235 73.3459H78.9498V74.7861H78.9237ZM78.9237 72.9008H79.9187C80.2068 72.9008 80.4162 72.8484 80.5472 72.7436C80.7043 72.6389 80.7567 72.4818 80.7567 72.2461C80.7567 72.0366 80.6781 71.9057 80.5472 71.801C80.4162 71.6962 80.2068 71.6438 79.8925 71.6438H78.8975L78.9237 72.9008ZM78.3738 71.1725H80.1806C80.4162 71.1725 80.6257 71.2249 80.809 71.3034C80.9923 71.4082 81.1233 71.5129 81.2018 71.67C81.2804 71.8271 81.3327 72.0104 81.3327 72.1937C81.3327 72.5865 81.1494 72.8746 80.7828 73.0579C80.9923 73.1364 81.1756 73.2673 81.3066 73.3983C81.4375 73.5292 81.516 73.7649 81.516 74.0529C81.516 74.2624 81.4637 74.4719 81.3589 74.6552C81.2542 74.8385 81.0971 74.9956 80.8876 75.1003C80.6781 75.2051 80.4162 75.2575 80.1282 75.2575H78.3738V71.1725ZM85.182 75.2575H82.1707V71.1725H85.1558V71.67H82.7206V72.9269H84.9464V73.4245H82.7206V74.7861H85.182V75.2575ZM86.5175 73.0579H87.6697C88.2196 73.0579 88.5076 72.8222 88.5076 72.3247C88.5076 71.8795 88.2457 71.6438 87.6958 71.6438H86.5175V73.0579ZM86.5175 75.2575H85.9676V71.1725H87.853C88.0886 71.1725 88.3243 71.2249 88.5076 71.3296C88.6909 71.4344 88.8218 71.5653 88.9266 71.7486C89.0313 71.9319 89.0837 72.1152 89.0837 72.3508C89.0837 72.6651 88.9789 72.9531 88.7956 73.1888C88.5862 73.4245 88.2981 73.5554 87.8791 73.5554H86.5437V75.2575H86.5175ZM91.5189 71.5653C91.2309 71.5653 90.9691 71.6438 90.7596 71.7748C90.5501 71.9057 90.3668 72.1152 90.262 72.377C90.1573 72.6389 90.0787 72.9269 90.0787 73.2412C90.0787 73.5554 90.1311 73.8434 90.262 74.1053C90.3668 74.3671 90.5501 74.5504 90.7596 74.7076C90.9691 74.8385 91.2309 74.9171 91.5189 74.9171C91.807 74.9171 92.0688 74.8385 92.2783 74.7076C92.4878 74.5766 92.6711 74.3671 92.7759 74.1053C92.8806 73.8434 92.9592 73.5554 92.9592 73.2412C92.9592 72.9269 92.9068 72.6389 92.7759 72.377C92.6711 72.1152 92.4878 71.9319 92.2783 71.7748C92.0688 71.6177 91.807 71.5653 91.5189 71.5653ZM91.5189 75.3622C91.1523 75.3622 90.8381 75.2836 90.6025 75.1527C90.3406 75.0218 90.1311 74.8385 89.974 74.629C89.8169 74.4195 89.7121 74.1838 89.6336 73.9482C89.5812 73.7125 89.5288 73.4507 89.5288 73.215C89.5288 72.9793 89.555 72.7174 89.6336 72.4818C89.7121 72.2461 89.8169 72.0104 89.974 71.801C90.1311 71.5915 90.3406 71.4082 90.6025 71.2772C90.8643 71.1463 91.1785 71.0678 91.5189 71.0678C91.8855 71.0678 92.1998 71.1463 92.4354 71.2772C92.6711 71.4082 92.9068 71.5915 93.0639 71.801C93.221 72.0104 93.3258 72.2461 93.4043 72.508C93.4829 72.7436 93.5091 73.0055 93.5091 73.2412C93.5091 73.4768 93.4829 73.7387 93.4043 73.9744C93.3258 74.2362 93.221 74.4457 93.0639 74.6552C92.9068 74.8647 92.6973 75.048 92.4354 75.1789C92.1998 75.2837 91.8855 75.3622 91.5189 75.3622ZM93.9804 73.4245H95.3682V73.9482H93.9804V73.4245ZM96.6251 75.2575H96.0752V71.1725H96.6251V73.1626L98.6153 71.1725H99.3746L97.6726 72.8222L99.427 75.2575H98.72L97.2798 73.215L96.6251 73.8172V75.2575Z" fill="#58595B"/>
<path d="M101.626 73.5816L101.024 71.7748L100.369 73.5816H101.626ZM100.186 74.053L99.767 75.2313H99.1909L100.736 71.1464H101.364L102.831 75.2313H102.228L101.836 74.053H100.186ZM103.878 74.7862H105.057C105.345 74.7862 105.554 74.7076 105.711 74.5767C105.868 74.4457 105.921 74.2625 105.921 74.0268C105.921 73.5816 105.606 73.346 104.978 73.346H103.904L103.878 74.7862ZM103.878 72.9008H104.873C105.161 72.9008 105.371 72.8484 105.502 72.7437C105.659 72.6389 105.711 72.4818 105.711 72.2462C105.711 72.0367 105.633 71.9057 105.502 71.801C105.371 71.6963 105.161 71.6439 104.847 71.6439H103.852L103.878 72.9008ZM103.328 71.1725H105.135C105.371 71.1725 105.58 71.2249 105.764 71.3035C105.947 71.4082 106.078 71.513 106.156 71.6701C106.235 71.8272 106.287 72.0105 106.287 72.1938C106.287 72.5866 106.104 72.8746 105.737 73.0579C105.947 73.1365 106.13 73.2674 106.261 73.3983C106.392 73.5292 106.471 73.7649 106.471 74.053C106.471 74.2624 106.418 74.4719 106.313 74.6552C106.209 74.8385 106.052 74.9956 105.842 75.1004C105.633 75.2051 105.371 75.2575 105.083 75.2575H103.328V71.1725ZM107.675 75.2575H107.125V71.1725H107.675V73.1627L109.665 71.1725H110.425L108.722 72.8222L110.477 75.2575H109.77L108.33 73.215L107.675 73.8173V75.2575Z" fill="#58595B"/>
<path d="M112.677 73.5816L112.075 71.7748L111.42 73.5816H112.677ZM111.237 74.0529L110.818 75.2313H110.242L111.787 71.1463H112.415L113.881 75.2313H113.279L112.886 74.0529H111.237ZM115.688 72.9008C115.95 72.9008 116.186 72.8484 116.395 72.7437C116.605 72.6389 116.709 72.4818 116.709 72.2723C116.709 71.9843 116.605 71.801 116.421 71.6962C116.238 71.5915 116.002 71.5391 115.741 71.5391C115.453 71.5391 115.217 71.5915 115.007 71.7486C114.798 71.8795 114.693 72.089 114.693 72.3771H114.169C114.169 72.1938 114.222 72.0105 114.3 71.801C114.405 71.5915 114.562 71.4344 114.798 71.2773C115.034 71.1463 115.374 71.0678 115.767 71.0678C116.055 71.0678 116.291 71.1202 116.5 71.2249C116.709 71.3296 116.893 71.4606 117.024 71.6439C117.155 71.8272 117.207 72.0105 117.207 72.2461C117.207 72.508 117.128 72.6913 116.971 72.8484C116.814 73.0055 116.631 73.0841 116.448 73.1103C116.579 73.1365 116.709 73.1888 116.867 73.2674C116.998 73.3459 117.128 73.4507 117.207 73.6078C117.312 73.7387 117.338 73.922 117.338 74.1053C117.338 74.3934 117.259 74.629 117.102 74.8385C116.945 75.048 116.736 75.1789 116.5 75.2837C116.264 75.3884 115.976 75.4146 115.714 75.4146C115.374 75.4146 115.086 75.3622 114.85 75.2575C114.615 75.1527 114.458 75.0218 114.327 74.8647C114.222 74.7076 114.117 74.5505 114.091 74.3934C114.039 74.2362 114.039 74.1053 114.039 73.9744H114.562C114.562 74.3148 114.667 74.5505 114.903 74.7076C115.138 74.8647 115.4 74.9433 115.741 74.9433C115.898 74.9433 116.055 74.9171 116.212 74.8647C116.369 74.8123 116.5 74.7076 116.631 74.6028C116.736 74.4719 116.788 74.341 116.788 74.1577C116.788 73.8958 116.683 73.6863 116.448 73.5816C116.212 73.4507 115.95 73.3983 115.61 73.3983C115.453 73.3983 115.322 73.3983 115.217 73.3983V72.9532C115.348 72.9008 115.505 72.9008 115.688 72.9008ZM120.925 72.4033C120.847 72.089 120.716 71.8534 120.506 71.7486C120.297 71.6177 120.035 71.5653 119.799 71.5653C119.538 71.5653 119.328 71.6177 119.119 71.7486C118.909 71.8795 118.752 72.0628 118.647 72.2985C118.542 72.5342 118.464 72.8484 118.464 73.1888C118.464 73.7125 118.569 74.1315 118.778 74.4195C118.988 74.7338 119.328 74.8909 119.826 74.8909C119.983 74.8909 120.114 74.8647 120.271 74.7861C120.428 74.7338 120.559 74.6028 120.69 74.4457C120.821 74.2886 120.925 74.0529 120.978 73.7649H121.501C121.423 74.2362 121.292 74.5767 121.056 74.8123C120.821 75.048 120.585 75.2051 120.349 75.2837C120.114 75.3622 119.904 75.3884 119.721 75.3884C119.485 75.3884 119.249 75.336 119.04 75.2575C118.831 75.1789 118.621 75.048 118.464 74.8647C118.281 74.6814 118.15 74.4719 118.045 74.1839C117.94 73.8958 117.888 73.5816 117.888 73.1888C117.888 72.8746 117.94 72.5866 118.019 72.3247C118.097 72.0628 118.228 71.8272 118.385 71.6439C118.542 71.4606 118.752 71.3035 118.988 71.1987C119.223 71.094 119.485 71.0416 119.773 71.0416C120.114 71.0416 120.402 71.094 120.637 71.2249C120.873 71.3558 121.082 71.5129 121.213 71.7224C121.344 71.9319 121.423 72.1414 121.449 72.3771L120.925 72.4033ZM122.732 75.2575H122.182V71.1725H122.732V73.1626L124.722 71.1725H125.482L123.78 72.8222L125.534 75.2575H124.827L123.387 73.215L122.732 73.8173V75.2575ZM126.503 74.4719L128.545 71.1725H129.2V75.2575H128.676V71.9581L126.608 75.2575H125.979V71.1725H126.503V74.4719ZM132.578 70.4393C132.526 70.963 132.211 71.1987 131.661 71.1987C131.164 71.1987 130.876 70.9369 130.824 70.4393H131.112C131.164 70.5703 131.19 70.6488 131.243 70.7012C131.347 70.8059 131.504 70.8845 131.714 70.8845C131.923 70.8845 132.054 70.8321 132.133 70.7536C132.211 70.675 132.264 70.5703 132.316 70.4393H132.578ZM130.614 74.4719L132.657 71.1725H133.311V75.2575H132.787V71.9581L130.719 75.2575H130.09V71.1725H130.614V74.4719ZM72.1415 81.2802V78.8973C71.8797 78.8973 71.644 78.9497 71.4607 79.0282C71.2774 79.1068 71.0941 79.2377 70.9894 79.421C70.8846 79.6043 70.8322 79.8138 70.8322 80.1018C70.8322 80.3637 70.8846 80.5993 70.9894 80.7826C71.0941 80.9659 71.2512 81.0969 71.4607 81.1754C71.644 81.2278 71.8797 81.2802 72.1415 81.2802ZM72.6914 78.8973V81.2802C72.9533 81.2802 73.189 81.2278 73.3723 81.1492C73.5556 81.0707 73.7389 80.9398 73.8436 80.7565C73.9483 80.5732 74.0007 80.3637 74.0007 80.0756C74.0007 79.8138 73.9483 79.5781 73.8436 79.3948C73.7389 79.2115 73.5817 79.0806 73.3723 79.002C73.189 78.9235 72.9533 78.8973 72.6914 78.8973ZM72.6914 78.4783C73.0057 78.4783 73.2675 78.5307 73.5032 78.6092C73.7389 78.6878 73.9483 78.8187 74.1055 78.9758C74.2626 79.133 74.3935 79.2901 74.472 79.4996C74.5506 79.6829 74.603 79.8923 74.603 80.1018C74.603 80.3113 74.5506 80.5208 74.472 80.7041C74.3935 80.9136 74.2626 81.0707 74.1055 81.2278C73.9483 81.3849 73.7389 81.4897 73.5032 81.5944C73.2675 81.673 72.9795 81.7253 72.6914 81.7253V82.1443H72.1415V81.6991C71.8273 81.6991 71.5654 81.6468 71.3298 81.5682C71.0941 81.4897 70.8846 81.3587 70.7275 81.2016C70.5704 81.0445 70.4395 80.8874 70.3609 80.6779C70.2824 80.4946 70.23 80.2851 70.23 80.0756C70.23 79.8661 70.2824 79.6567 70.3609 79.4734C70.4395 79.2901 70.5704 79.1068 70.7275 78.9497C70.8846 78.7925 71.0941 78.6878 71.3298 78.5831C71.5654 78.5045 71.8535 78.4521 72.1415 78.4521V78.0332H72.6914V78.4783ZM78.2166 82.1181H75.2053V78.0332H78.1904V78.5307H75.7813V79.7876H78.0071V80.2851H75.7813V81.6468H78.2428V82.1181H78.2166ZM79.4735 81.6206H81.3851V78.5045H79.7354V80.4946C79.7354 80.9398 79.6568 81.3064 79.4735 81.6206ZM79.1593 82.1181V82.8775H78.6617V81.6206H78.9236C79.0283 81.4635 79.0807 81.3064 79.1331 81.1231C79.1855 80.9398 79.1855 80.7565 79.1855 80.5208V78.0332H81.9088V81.6206H82.223V82.8775H81.7255V82.1181H79.1593ZM85.8104 82.1181H82.7991V78.0332H85.7842V78.5307H83.3752V79.7876H85.6009V80.2851H83.3752V81.6468H85.8366V82.1181H85.8104ZM87.1459 79.9447H88.2981C88.848 79.9447 89.136 79.709 89.136 79.2115C89.136 78.7664 88.8741 78.5307 88.3242 78.5307H87.1459V79.9447ZM87.1459 82.1181H86.596V78.0332H88.4814C88.717 78.0332 88.9527 78.0855 89.136 78.1903C89.3193 78.295 89.4502 78.4259 89.555 78.6092C89.6597 78.7925 89.7121 78.9758 89.7121 79.2115C89.7121 79.5257 89.6073 79.8138 89.424 80.0495C89.2146 80.2851 88.9265 80.416 88.5075 80.416H87.1721V82.1181H87.1459ZM91.8331 80.4422L91.2309 78.6354L90.5762 80.4422H91.8331ZM90.3929 80.9398L89.9739 82.1181H89.3979L90.9428 78.0332H91.5713L93.0377 82.1181H92.4354L92.0426 80.9398H90.3929ZM94.2684 78.5307V81.0183C94.2684 81.3325 94.216 81.5944 94.1113 81.7515C94.0065 81.9348 93.8756 82.0396 93.7185 82.1181C93.5614 82.1705 93.3781 82.1967 93.1686 82.1967V81.6991C93.3781 81.6991 93.5352 81.6468 93.6137 81.5158C93.6923 81.3849 93.7185 81.2278 93.7185 80.9921V78.0332H96.4418V82.1181H95.8919V78.5307H94.2684ZM97.882 81.6468H99.0604C99.5841 81.6468 99.8721 81.4111 99.8721 80.9659C99.8721 80.4684 99.5841 80.2327 99.0342 80.2327H97.882V81.6468ZM97.882 79.7614H99.2175C99.5055 79.7614 99.715 79.8138 99.8983 79.9447C100.082 80.0494 100.213 80.2066 100.291 80.3899C100.37 80.5732 100.422 80.7565 100.422 80.9659C100.422 81.1754 100.37 81.3849 100.265 81.5682C100.16 81.7515 100.029 81.8824 99.8459 81.9872C99.6626 82.0919 99.4531 82.1443 99.1913 82.1443H97.3059V78.0332H97.8558V79.7614H97.882ZM103.8 78.0332H104.35V82.1181H103.8V80.2066H101.679V82.1181H101.129V78.0332H101.679V79.709H103.8V78.0332ZM105.79 81.6468H106.916C107.466 81.6468 107.728 81.4111 107.728 80.9659C107.728 80.4684 107.44 80.2327 106.89 80.2327H105.79V81.6468ZM109.325 82.1181H108.775V78.0332H109.325V82.1181ZM105.79 79.7614H107.073C107.361 79.7614 107.571 79.8138 107.754 79.9447C107.937 80.0494 108.068 80.2066 108.147 80.3899C108.225 80.5732 108.278 80.7565 108.278 80.9659C108.278 81.1754 108.225 81.3849 108.121 81.5682C108.016 81.7515 107.885 81.8824 107.702 81.9872C107.518 82.0919 107.309 82.1443 107.047 82.1443H105.214V78.0332H105.764L105.79 79.7614ZM112.677 77.3C112.625 77.8237 112.31 78.0593 111.76 78.0593C111.263 78.0593 110.975 77.7975 110.922 77.3H111.21C111.263 77.4309 111.289 77.5094 111.341 77.5618C111.446 77.6666 111.603 77.7451 111.813 77.7451C112.022 77.7451 112.153 77.6927 112.232 77.6142C112.31 77.5356 112.363 77.4309 112.415 77.3H112.677ZM110.713 81.3325L112.755 78.0332H113.41V82.1181H112.886V78.8187L110.818 82.1181H110.189V78.0332H110.713V81.3325Z" fill="#58595B"/>
<path d="M112.677 77.3C112.625 77.8237 112.31 78.0593 111.76 78.0593C111.263 78.0593 110.975 77.7975 110.922 77.3H111.21C111.263 77.4309 111.289 77.5094 111.341 77.5618C111.446 77.6666 111.603 77.7451 111.813 77.7451C112.022 77.7451 112.153 77.6927 112.232 77.6142C112.31 77.5356 112.363 77.4309 112.415 77.3H112.677ZM110.713 81.3325L112.755 78.0332H113.41V82.1181H112.886V78.8187L110.818 82.1181H110.189V78.0332H110.713V81.3325ZM105.79 81.6468H106.916C107.466 81.6468 107.728 81.4111 107.728 80.9659C107.728 80.4684 107.44 80.2327 106.89 80.2327H105.79V81.6468ZM109.299 82.1181H108.749V78.0332H109.299V82.1181ZM105.79 79.7614H107.073C107.361 79.7614 107.571 79.8138 107.754 79.9447C107.937 80.0494 108.068 80.2066 108.147 80.3899C108.225 80.5732 108.278 80.7826 108.278 80.9659C108.278 81.1754 108.225 81.3849 108.121 81.5682C108.016 81.7515 107.885 81.8824 107.702 81.9872C107.518 82.0919 107.309 82.1443 107.047 82.1443H105.214V78.0332H105.764L105.79 79.7614ZM103.8 78.0332H104.35V82.1181H103.8V80.2066H101.679V82.1181H101.129V78.0332H101.679V79.709H103.8V78.0332ZM97.882 81.6468H99.0604C99.6103 81.6468 99.8721 81.4111 99.8721 80.9659C99.8721 80.4684 99.5841 80.2327 99.0342 80.2327H97.882V81.6468ZM97.882 79.7614H99.2175C99.5055 79.7614 99.715 79.8138 99.8983 79.9447C100.082 80.0494 100.213 80.2066 100.291 80.3899C100.37 80.5732 100.422 80.7826 100.422 80.9659C100.422 81.1754 100.37 81.3849 100.265 81.5682C100.16 81.7515 100.029 81.8824 99.8459 81.9872C99.6626 82.0919 99.4531 82.1443 99.1913 82.1443H97.3059V78.0332H97.8558L97.882 79.7614ZM94.2684 78.5307V81.0183C94.2684 81.3325 94.216 81.5944 94.1113 81.7515C94.0065 81.9348 93.8756 82.0396 93.7185 82.1181C93.5614 82.1705 93.3781 82.1967 93.1686 82.1967V81.6991C93.3781 81.6991 93.5352 81.6468 93.6137 81.5158C93.6923 81.3849 93.7185 81.2278 93.7185 80.9921V78.0332H96.4418V82.1181H95.8919V78.5307H94.2684ZM91.8331 80.4422L91.2309 78.6354L90.5762 80.4422H91.8331ZM90.3929 80.9398L89.9739 82.1181H89.3979L90.9428 78.0332H91.5713L93.0377 82.1181H92.4354L92.0426 80.9398H90.3929ZM87.1459 79.9447H88.2981C88.848 79.9447 89.136 79.709 89.136 79.2115C89.136 78.7664 88.8741 78.5307 88.3242 78.5307H87.1459V79.9447ZM87.1459 82.1181H86.596V78.0332H88.4814C88.717 78.0332 88.9527 78.0855 89.136 78.1903C89.3193 78.295 89.4502 78.4259 89.555 78.6092C89.6597 78.7925 89.7121 78.9758 89.7121 79.2115C89.7121 79.5257 89.6073 79.8138 89.424 80.0495C89.2146 80.2851 88.9265 80.416 88.5075 80.416H87.1721L87.1459 82.1181ZM85.8104 82.1181H82.7991V78.0332H85.7842V78.5307H83.3752V79.7876H85.6009V80.2851H83.3752V81.6468H85.8366L85.8104 82.1181ZM79.4735 81.6206H81.3851V78.5045H79.7354V80.4946C79.7354 80.9398 79.6568 81.3064 79.4735 81.6206ZM79.1593 82.1181V82.8775H78.6617V81.6206H78.9236C79.0283 81.4635 79.0807 81.3064 79.1331 81.1231C79.1855 80.9398 79.1855 80.7565 79.1855 80.5208V78.0332H81.9088V81.6206H82.223V82.8775H81.7255V82.1181H79.1593ZM78.2166 82.1181H75.2053V78.0332H78.1904V78.5307H75.7813V79.7876H78.0071V80.2851H75.7813V81.6468H78.2428L78.2166 82.1181ZM72.1415 81.2802V78.8973C71.8797 78.8973 71.644 78.9497 71.4607 79.0282C71.2774 79.1068 71.0941 79.2377 70.9894 79.421C70.8846 79.6043 70.8322 79.8138 70.8322 80.1018C70.8322 80.3637 70.8846 80.5993 70.9894 80.7826C71.0941 80.9659 71.2512 81.0969 71.4607 81.1754C71.644 81.2278 71.8797 81.2802 72.1415 81.2802ZM72.6914 78.8973V81.2802C72.9533 81.2802 73.189 81.2278 73.3723 81.1492C73.5556 81.0707 73.7389 80.9398 73.8436 80.7565C73.9483 80.5732 74.0007 80.3637 74.0007 80.0756C74.0007 79.8138 73.9483 79.5781 73.8436 79.3948C73.7389 79.2115 73.5817 79.0806 73.3723 79.002C73.189 78.9235 72.9533 78.8973 72.6914 78.8973ZM72.6914 78.4783C73.0057 78.4783 73.2675 78.5307 73.5032 78.6092C73.7389 78.6878 73.9483 78.8187 74.1055 78.9758C74.2626 79.133 74.3935 79.2901 74.472 79.4996C74.5506 79.6829 74.603 79.8923 74.603 80.1018C74.603 80.3113 74.5506 80.5208 74.472 80.7041C74.3935 80.9136 74.2626 81.0707 74.1055 81.2278C73.9483 81.3849 73.7389 81.4897 73.5032 81.5944C73.2675 81.673 72.9795 81.7253 72.6914 81.7253V82.1443H72.1415V81.6991C71.8273 81.6991 71.5654 81.6468 71.3298 81.5682C71.0941 81.4897 70.8846 81.3587 70.7275 81.2016C70.5704 81.0445 70.4395 80.8874 70.3609 80.6779C70.2824 80.4946 70.23 80.2851 70.23 80.0756C70.23 79.8661 70.2824 79.6567 70.3609 79.4734C70.4395 79.2901 70.5704 79.1068 70.7275 78.9497C70.8846 78.7925 71.0941 78.6878 71.3298 78.5831C71.5654 78.5045 71.8535 78.4521 72.1415 78.4521V78.0332H72.6914V78.4783ZM132.578 70.4393C132.526 70.963 132.211 71.1987 131.661 71.1987C131.164 71.1987 130.876 70.9369 130.824 70.4393H131.112C131.164 70.5703 131.19 70.6488 131.243 70.7012C131.347 70.8059 131.504 70.8845 131.714 70.8845C131.923 70.8845 132.054 70.8321 132.133 70.7536C132.211 70.675 132.264 70.5703 132.316 70.4393H132.578ZM130.614 74.4719L132.657 71.1725H133.311V75.2575H132.787V71.9581L130.719 75.2575H130.09V71.1725H130.614V74.4719ZM126.503 74.4719L128.545 71.1725H129.2V75.2575H128.676V71.9581L126.608 75.2575H125.979V71.1725H126.503V74.4719ZM122.732 75.2575H122.182V71.1725H122.732V73.1626L124.722 71.1725H125.482L123.78 72.8222L125.534 75.2575H124.827L123.387 73.215L122.732 73.8173V75.2575ZM120.925 72.4033C120.847 72.089 120.716 71.8534 120.506 71.7486C120.297 71.6177 120.035 71.5653 119.799 71.5653C119.538 71.5653 119.328 71.6177 119.119 71.7486C118.909 71.8795 118.752 72.0628 118.647 72.2985C118.542 72.5342 118.464 72.8484 118.464 73.1888C118.464 73.7125 118.569 74.1315 118.778 74.4195C118.988 74.7338 119.328 74.8909 119.826 74.8909C119.983 74.8909 120.114 74.8647 120.271 74.7861C120.428 74.7338 120.559 74.6028 120.69 74.4457C120.821 74.2886 120.925 74.0529 120.978 73.7649H121.501C121.423 74.2362 121.292 74.5767 121.056 74.8123C120.821 75.048 120.585 75.2051 120.349 75.2837C120.114 75.3622 119.904 75.3884 119.721 75.3884C119.485 75.3884 119.249 75.336 119.04 75.2575C118.831 75.1789 118.621 75.048 118.464 74.8647C118.281 74.6814 118.15 74.4719 118.045 74.1839C117.94 73.8958 117.888 73.5816 117.888 73.1888C117.888 72.8746 117.94 72.5866 118.019 72.3247C118.097 72.0628 118.228 71.8272 118.385 71.6439C118.542 71.4606 118.752 71.3035 118.988 71.1987C119.223 71.094 119.485 71.0416 119.773 71.0416C120.114 71.0416 120.402 71.094 120.637 71.2249C120.873 71.3558 121.082 71.5129 121.213 71.7224C121.344 71.9319 121.423 72.1414 121.449 72.3771L120.925 72.4033ZM115.688 72.9008C115.95 72.9008 116.186 72.8484 116.395 72.7437C116.605 72.6389 116.709 72.4818 116.709 72.2723C116.709 71.9843 116.605 71.801 116.421 71.6962C116.238 71.5915 116.002 71.5391 115.741 71.5391C115.453 71.5391 115.217 71.5915 115.007 71.7486C114.798 71.8795 114.693 72.089 114.693 72.3771H114.169C114.169 72.1938 114.222 72.0105 114.3 71.801C114.405 71.5915 114.562 71.4344 114.798 71.2773C115.034 71.1463 115.374 71.0678 115.767 71.0678C116.055 71.0678 116.291 71.1202 116.5 71.1987C116.709 71.3035 116.893 71.4344 117.024 71.6177C117.155 71.801 117.207 71.9843 117.207 72.2199C117.207 72.4818 117.128 72.6651 116.971 72.8222C116.814 72.9793 116.631 73.0579 116.474 73.0841C116.605 73.1103 116.736 73.1626 116.893 73.2412C117.024 73.3198 117.155 73.4507 117.233 73.5816C117.338 73.7125 117.364 73.8958 117.364 74.0791C117.364 74.3672 117.286 74.6028 117.128 74.8123C116.971 75.0218 116.762 75.1527 116.526 75.2575C116.291 75.3622 116.002 75.3884 115.741 75.3884C115.4 75.3884 115.112 75.336 114.876 75.2313C114.641 75.1266 114.484 74.9956 114.353 74.8385C114.248 74.6814 114.143 74.5243 114.117 74.3672C114.065 74.2101 114.065 74.0791 114.065 73.9482H114.588C114.588 74.2886 114.693 74.5243 114.929 74.6814C115.138 74.8385 115.426 74.9171 115.767 74.9171C115.924 74.9171 116.081 74.8909 116.238 74.8385C116.395 74.7861 116.526 74.6814 116.657 74.5767C116.762 74.4457 116.814 74.3148 116.814 74.1315C116.814 73.8696 116.709 73.6602 116.474 73.5554C116.238 73.4245 115.976 73.3721 115.636 73.3721C115.479 73.3721 115.348 73.3721 115.243 73.3721V72.927C115.348 72.9008 115.505 72.9008 115.688 72.9008ZM112.677 73.5816L112.075 71.7748L111.42 73.5816H112.677ZM111.237 74.0529L110.818 75.2313H110.242L111.787 71.1463H112.415L113.881 75.2313H113.279L112.886 74.0529H111.237ZM107.675 75.2575H107.126V71.1725H107.675V73.1626L109.666 71.1725H110.425L108.723 72.8222L110.477 75.2575H109.77L108.33 73.215L107.675 73.8173V75.2575ZM103.879 74.7861H105.057C105.345 74.7861 105.554 74.7076 105.712 74.5767C105.869 74.4457 105.921 74.2624 105.921 74.0268C105.921 73.5816 105.607 73.3459 104.978 73.3459H103.905V74.7861H103.879ZM103.879 72.9008H104.874C105.162 72.9008 105.371 72.8484 105.502 72.7437C105.659 72.6389 105.712 72.4818 105.712 72.2461C105.712 72.0367 105.633 71.9057 105.502 71.801C105.371 71.6962 105.162 71.6439 104.847 71.6439H103.852L103.879 72.9008ZM103.329 71.1725H105.135C105.371 71.1725 105.581 71.2249 105.764 71.3035C105.947 71.4082 106.078 71.5129 106.157 71.6701C106.235 71.8272 106.288 72.0105 106.288 72.1938C106.288 72.5866 106.104 72.8746 105.738 73.0579C105.947 73.1364 106.13 73.2674 106.261 73.3983C106.392 73.5292 106.471 73.7649 106.471 74.0529C106.471 74.2624 106.419 74.4719 106.314 74.6552C106.209 74.8385 106.052 74.9956 105.842 75.1004C105.633 75.2051 105.371 75.2575 105.083 75.2575H103.329V71.1725ZM101.627 73.5816L101.024 71.7748L100.37 73.5816H101.627ZM100.186 74.0529L99.7674 75.2313H99.1913L100.736 71.1463H101.365L102.831 75.2313H102.229L101.836 74.0529H100.186ZM96.6251 75.2575H96.0752V71.1725H96.6251V73.1626L98.6152 71.1725H99.3746L97.6725 72.8222L99.427 75.2575H98.7199L97.2797 73.215L96.6251 73.8173V75.2575ZM95.3944 73.9482H94.0065V73.4245H95.3944V73.9482ZM91.5189 71.5653C91.2309 71.5653 90.969 71.6439 90.7595 71.7748C90.55 71.9057 90.3667 72.1152 90.262 72.3771C90.1572 72.6389 90.0787 72.927 90.0787 73.2412C90.0787 73.5554 90.1311 73.8435 90.262 74.1053C90.3667 74.3672 90.55 74.5505 90.7595 74.7076C90.969 74.8385 91.2309 74.9171 91.5189 74.9171C91.8069 74.9171 92.0688 74.8385 92.2783 74.7076C92.4878 74.5767 92.6711 74.3672 92.7758 74.1053C92.8805 73.8435 92.9591 73.5554 92.9591 73.2412C92.9591 72.927 92.9067 72.6389 92.7758 72.3771C92.6711 72.1152 92.4878 71.9319 92.2783 71.7748C92.0688 71.6177 91.8069 71.5653 91.5189 71.5653ZM91.5189 75.3622C91.1523 75.3622 90.8381 75.2837 90.6024 75.1527C90.3405 75.0218 90.1311 74.8385 89.9739 74.629C89.8168 74.4195 89.7121 74.1839 89.6335 73.9482C89.5812 73.7125 89.5288 73.4769 89.5288 73.215C89.5288 72.9793 89.555 72.7175 89.6335 72.4818C89.7121 72.2461 89.8168 72.0105 89.9739 71.801C90.1311 71.5915 90.3405 71.4082 90.6024 71.2773C90.8643 71.1463 91.1785 71.0678 91.5189 71.0678C91.8855 71.0678 92.1997 71.1463 92.4354 71.2773C92.6711 71.4082 92.9067 71.5915 93.0638 71.801C93.221 72.0105 93.3257 72.2461 93.4043 72.508C93.4828 72.7437 93.509 73.0055 93.509 73.2412C93.509 73.4769 93.4828 73.7387 93.4043 73.9744C93.3257 74.2362 93.221 74.4457 93.0638 74.6552C92.9067 74.8647 92.6972 75.048 92.4354 75.1789C92.1997 75.2837 91.8855 75.3622 91.5189 75.3622ZM86.5174 73.0579H87.6696C88.2195 73.0579 88.5075 72.8222 88.5075 72.3247C88.5075 71.8795 88.2457 71.6439 87.6958 71.6439H86.5174V73.0579ZM86.5174 75.2575H85.9675V71.1725H87.8529C88.0886 71.1725 88.3242 71.2249 88.5075 71.3296C88.6908 71.4344 88.8218 71.5653 88.9265 71.7486C89.0313 71.9319 89.0836 72.1152 89.0836 72.3509C89.0836 72.6651 88.9789 72.9531 88.7956 73.1888C88.5861 73.4245 88.2981 73.5554 87.8791 73.5554H86.5436L86.5174 75.2575ZM85.182 75.2575H82.1706V71.1725H85.1558V71.6701H82.7467V72.927H84.9725V73.4245H82.7467V74.7861H85.2082L85.182 75.2575ZM78.9236 74.7861H80.102C80.39 74.7861 80.5995 74.7076 80.7566 74.5767C80.9137 74.4457 80.9661 74.2624 80.9661 74.0268C80.9661 73.5816 80.6519 73.3459 80.0234 73.3459H78.9498L78.9236 74.7861ZM78.9236 72.9008H79.9187C80.2067 72.9008 80.4162 72.8484 80.5471 72.7437C80.7042 72.6389 80.7566 72.4818 80.7566 72.2461C80.7566 72.0367 80.678 71.9057 80.5471 71.801C80.4162 71.6962 80.2067 71.6439 79.8925 71.6439H78.8974L78.9236 72.9008ZM78.3737 71.1725H80.1805C80.4162 71.1725 80.6257 71.2249 80.809 71.3035C80.9923 71.4082 81.1232 71.5129 81.2018 71.6701C81.2803 71.8272 81.3327 72.0105 81.3327 72.1938C81.3327 72.5866 81.1494 72.8746 80.7828 73.0579C80.9923 73.1364 81.1756 73.2674 81.3065 73.3983C81.4374 73.5292 81.516 73.7649 81.516 74.0529C81.516 74.2624 81.4636 74.4719 81.3589 74.6552C81.2541 74.8385 81.097 74.9956 80.8875 75.1004C80.678 75.2051 80.4162 75.2575 80.1281 75.2575H78.3737V71.1725ZM77.5881 75.2575H74.5768V71.1725H77.562V71.6701H75.1529V72.927H77.3787V73.4245H75.1529V74.7861H77.6143L77.5881 75.2575ZM73.3461 72.4033C73.2675 72.089 73.1366 71.8534 72.9271 71.7486C72.7176 71.6177 72.4558 71.5653 72.2201 71.5653C71.9582 71.5653 71.7487 71.6177 71.5393 71.7486C71.3298 71.8795 71.1727 72.0628 71.0679 72.2985C70.9632 72.5342 70.8846 72.8484 70.8846 73.1888C70.8846 73.7125 70.9894 74.1315 71.1988 74.4195C71.4083 74.7338 71.7487 74.8909 72.2463 74.8909C72.4034 74.8909 72.5343 74.8647 72.6914 74.7861C72.8485 74.7338 72.9795 74.6028 73.1104 74.4457C73.2413 74.2886 73.3461 74.0529 73.3984 73.7649H73.9221C73.8436 74.2362 73.7127 74.5767 73.477 74.8123C73.2413 75.048 73.0057 75.2051 72.77 75.2837C72.5343 75.3622 72.3248 75.3884 72.1415 75.3884C71.9059 75.3884 71.6702 75.336 71.4607 75.2575C71.2512 75.1789 71.0417 75.048 70.8846 74.8647C70.7013 74.6814 70.5704 74.4719 70.4656 74.1839C70.3609 73.8958 70.3085 73.5816 70.3085 73.1888C70.3085 72.8746 70.3609 72.5866 70.4395 72.3247C70.518 72.0628 70.6489 71.8272 70.8061 71.6439C70.9632 71.4606 71.1727 71.3035 71.4083 71.1987C71.644 71.094 71.9059 71.0416 72.1939 71.0416C72.5343 71.0416 72.8224 71.094 73.058 71.2249C73.2937 71.3558 73.5032 71.5129 73.6341 71.7224C73.765 71.9319 73.8436 72.1414 73.8698 72.3771L73.3461 72.4033Z" stroke="#58595B" stroke-width="0.526" stroke-miterlimit="22.926"/>
<path d="M24.1694 52.2927L63.0551 34.8268C65.6213 33.6223 66.8258 33.1771 69.7848 34.7745L86.8316 45.0916L104.978 36.2932C106.052 35.7957 107.099 35.5862 109.77 37.3407L133.311 52.1617V49.1504L109.77 34.2246C107.073 32.5487 106.078 32.6796 104.978 33.1771L86.8316 42.0803L69.811 31.7631C67.1139 30.2705 65.6213 30.5848 63.0813 31.8417L24.1694 49.3075V52.2927Z" fill="#DEF2F9"/>
<path d="M71.6178 89.0574C71.5654 89.0574 71.5131 89.0836 71.4345 89.0836C71.3036 89.0836 71.1988 89.0574 71.0679 89.0312V88.5075C71.1727 88.5599 71.2512 88.586 71.356 88.586C71.5131 88.586 71.6178 88.5075 71.6702 88.3766L71.9059 87.879L70.23 84.8939H70.9108L72.1939 87.2768L73.2413 84.8939H73.8698L72.1939 88.4813C72.0368 88.8217 71.8535 89.005 71.6178 89.0574ZM77.1692 84.8939H77.7191V88.9788H77.1692V87.0673H75.0481V88.9788H74.4982V84.8939H75.0481V86.5697H77.1692V84.8939ZM79.2378 88.1933L81.2803 84.8939H81.935V88.9788H81.4112V85.6794L79.3426 88.9788H78.7141V84.8939H79.2378V88.1933ZM83.4537 88.5075H84.6321C84.9201 88.5075 85.1296 88.4289 85.2867 88.298C85.4438 88.1671 85.4962 87.9838 85.4962 87.7481C85.4962 87.3029 85.182 87.0673 84.5535 87.0673H83.4799V88.5075H83.4537ZM83.4537 86.6221H84.4488C84.7368 86.6221 84.9463 86.5697 85.0772 86.465C85.2343 86.3603 85.2867 86.2031 85.2867 85.9675C85.2867 85.758 85.2082 85.6271 85.0772 85.5223C84.9463 85.4176 84.7368 85.3652 84.4226 85.3652H83.4275L83.4537 86.6221ZM82.9038 84.8939H84.7106C84.9463 84.8939 85.1558 84.9462 85.3391 85.0248C85.5224 85.1295 85.6533 85.2343 85.7319 85.3914C85.8104 85.5485 85.8628 85.7318 85.8628 85.9151C85.8628 86.3079 85.6795 86.5959 85.3129 86.7792C85.5224 86.8578 85.7057 86.9887 85.8366 87.1196C85.9675 87.2506 86.0461 87.4862 86.0461 87.7743C86.0461 87.9838 85.9937 88.1933 85.889 88.3766C85.7842 88.5599 85.6271 88.717 85.4176 88.8217C85.2082 88.9265 84.9463 88.9788 84.6583 88.9788H82.9038V84.8939ZM89.8168 88.9788H86.8055V84.8939H89.7906V85.3914H87.3554V86.6483H89.5812V87.1458H87.3554V88.5075H89.8168V88.9788ZM91.257 86.8054H92.4092C92.9591 86.8054 93.2471 86.5697 93.2471 86.0722C93.2471 85.6271 92.9853 85.3914 92.4354 85.3914H91.257V86.8054ZM91.257 89.005H90.7071V84.92H92.5925C92.8282 84.92 93.0639 84.9724 93.2471 85.0772C93.4304 85.1819 93.5614 85.3128 93.6661 85.4961C93.7709 85.6794 93.8232 85.8627 93.8232 86.0984C93.8232 86.4126 93.7185 86.7007 93.5352 86.9363C93.3257 87.172 93.0377 87.3029 92.6187 87.3029H91.2832V89.005H91.257ZM97.463 86.1246C97.3845 85.8104 97.2536 85.5747 97.0441 85.4699C96.8346 85.339 96.5727 85.2867 96.3371 85.2867C96.0752 85.2867 95.8657 85.339 95.6562 85.4699C95.4467 85.6009 95.2896 85.7842 95.1849 86.0198C95.0801 86.2555 95.0016 86.5697 95.0016 86.9102C95.0016 87.4339 95.1063 87.8528 95.3158 88.1409C95.5253 88.4551 95.8657 88.6122 96.3632 88.6122C96.5204 88.6122 96.6513 88.586 96.8084 88.5075C96.9655 88.4551 97.0964 88.3242 97.2274 88.1671C97.3583 88.01 97.463 87.7743 97.5154 87.4862H98.0391C97.9606 87.9576 97.8296 88.298 97.594 88.5337C97.3583 88.7693 97.1226 88.9265 96.8869 89.005C96.6513 89.0836 96.4418 89.1097 96.2585 89.1097C96.0228 89.1097 95.7872 89.0574 95.5777 88.9788C95.3682 88.9003 95.1587 88.7693 95.0016 88.586C94.8183 88.4027 94.6874 88.1933 94.5826 87.9052C94.4779 87.6172 94.4255 87.3029 94.4255 86.9102C94.4255 86.5959 94.4779 86.3079 94.5564 86.046C94.635 85.7842 94.7659 85.5485 94.923 85.3652C95.0801 85.1819 95.2896 85.0248 95.5253 84.92C95.761 84.8153 96.0228 84.7629 96.3109 84.7629C96.6513 84.7629 96.9393 84.8153 97.175 84.9462C97.4107 85.0772 97.6201 85.2343 97.7511 85.4438C97.882 85.6532 97.9606 85.8627 97.9867 86.0984L97.463 86.1246ZM99.3484 88.1933L101.391 84.8939H102.046V88.9788H101.522V85.6794L99.4531 88.9788H98.8247V84.8939H99.3484V88.1933ZM102.674 84.8939H106V85.3914H104.612V88.9788H104.062V85.3914H102.674V84.8939ZM109.639 88.9788H106.628V84.8939H109.613V85.3914H107.178V86.6483H109.404V87.1458H107.178V88.5075H109.639V88.9788ZM110.163 84.8939H113.489V85.3914H112.101V88.9788H111.551V85.3914H110.163V84.8939Z" fill="#58595B"/>
<path d="M110.163 84.8939H113.489V85.3914H112.101V88.9788H111.551V85.3914H110.163V84.8939ZM109.639 88.9788H106.628V84.8939H109.613V85.3914H107.204V86.6483H109.43V87.1458H107.204V88.5075H109.666L109.639 88.9788ZM102.674 84.8939H106V85.3914H104.612V88.9788H104.062V85.3914H102.674V84.8939V84.8939ZM99.3484 88.1933L101.391 84.8939H102.046V88.9788H101.522V85.6794L99.4531 88.9788H98.8247V84.8939H99.3484V88.1933ZM97.463 86.1246C97.3845 85.8104 97.2536 85.5747 97.0441 85.4699C96.8346 85.339 96.5727 85.2867 96.3371 85.2867C96.0752 85.2867 95.8657 85.339 95.6562 85.4699C95.4467 85.6009 95.2896 85.7842 95.1849 86.0198C95.0801 86.2555 95.0016 86.5697 95.0016 86.9102C95.0016 87.4339 95.1063 87.8528 95.3158 88.1409C95.5253 88.4551 95.8657 88.6122 96.3632 88.6122C96.5204 88.6122 96.6775 88.586 96.8084 88.5075C96.9655 88.4551 97.0964 88.3242 97.2274 88.1671C97.3583 88.01 97.463 87.7743 97.5154 87.4862H98.0391C97.9606 87.9576 97.8296 88.298 97.594 88.5337C97.3583 88.7693 97.1226 88.9265 96.887 89.005C96.6513 89.0836 96.4418 89.1097 96.2585 89.1097C96.0228 89.1097 95.7872 89.0574 95.5777 88.9788C95.3682 88.9003 95.1587 88.7693 95.0016 88.586C94.8183 88.4027 94.6874 88.1933 94.5826 87.9052C94.4779 87.6172 94.4255 87.3029 94.4255 86.9102C94.4255 86.5959 94.4779 86.3079 94.5564 86.046C94.635 85.7842 94.7659 85.5485 94.923 85.3652C95.0801 85.1819 95.2896 85.0248 95.5253 84.92C95.761 84.8153 96.0228 84.7629 96.3109 84.7629C96.6513 84.7629 96.9393 84.8153 97.175 84.9462C97.4107 85.0772 97.6201 85.2343 97.7511 85.4438C97.882 85.6532 97.9606 85.8627 97.9868 86.0984L97.463 86.1246ZM91.257 86.8054H92.4092C92.9591 86.8054 93.2471 86.5697 93.2471 86.0722C93.2471 85.6271 92.9853 85.3914 92.4354 85.3914H91.257V86.8054ZM91.257 89.005H90.7071V84.92H92.5925C92.8282 84.92 93.0638 84.9724 93.2471 85.0772C93.4304 85.1819 93.5614 85.3128 93.6661 85.4961C93.7709 85.6794 93.8232 85.8627 93.8232 86.0984C93.8232 86.4126 93.7185 86.7007 93.5352 86.9363C93.3257 87.172 93.0377 87.3029 92.6187 87.3029H91.2832L91.257 89.005ZM89.8168 88.9788H86.8055V84.8939H89.7906V85.3914H87.3816V86.6483H89.6073V87.1458H87.3816V88.5075H89.843L89.8168 88.9788ZM83.4537 88.5075H84.6321C84.9201 88.5075 85.1296 88.4289 85.2867 88.298C85.4438 88.1671 85.4962 87.9838 85.4962 87.7481C85.4962 87.3029 85.182 87.0673 84.5535 87.0673H83.4799L83.4537 88.5075ZM83.4537 86.6221H84.4488C84.7368 86.6221 84.9463 86.5697 85.0772 86.465C85.2343 86.3603 85.2867 86.2031 85.2867 85.9675C85.2867 85.758 85.2082 85.6271 85.0772 85.5223C84.9463 85.4176 84.7368 85.3652 84.4226 85.3652H83.4275L83.4537 86.6221ZM82.9038 84.8939H84.7106C84.9463 84.8939 85.1558 84.9462 85.3391 85.0248C85.5224 85.1034 85.6533 85.2343 85.7319 85.3914C85.8104 85.5485 85.8628 85.7318 85.8628 85.9151C85.8628 86.3079 85.6795 86.5959 85.3129 86.7792C85.5224 86.8578 85.7057 86.9887 85.8366 87.1196C85.9675 87.2506 86.0461 87.4862 86.0461 87.7743C86.0461 87.9838 85.9937 88.1933 85.889 88.3766C85.7842 88.5599 85.6271 88.717 85.4176 88.8217C85.2082 88.9265 84.9463 88.9788 84.6583 88.9788H82.9038V84.8939ZM79.2378 88.1933L81.2803 84.8939H81.935V88.9788H81.4112V85.6794L79.3426 88.9788H78.7141V84.8939H79.2378V88.1933ZM77.1692 84.8939H77.7191V88.9788H77.1692V87.0673H75.0481V88.9788H74.4982V84.8939H75.0481V86.5697H77.1692V84.8939ZM71.6178 89.0574C71.5654 89.0574 71.5131 89.0836 71.4345 89.0836C71.3036 89.0836 71.1988 89.0574 71.0679 89.0312V88.5075C71.1727 88.5599 71.2512 88.586 71.356 88.586C71.5131 88.586 71.6178 88.5075 71.6702 88.3766L71.9059 87.879L70.23 84.8939H70.9108L72.1939 87.2768L73.2413 84.8939H73.8698L72.1939 88.4813C72.0368 88.8217 71.8535 89.005 71.6178 89.0574Z" stroke="#58595B" stroke-width="0.526" stroke-miterlimit="22.926"/>
<path d="M59.1012 88.874C58.0799 88.874 55.6447 88.7955 55.0948 88.6122V85.5746C55.5137 85.7579 57.5824 85.8627 57.9752 85.8627C58.7084 85.8627 59.2583 85.5485 59.5987 84.8938L59.6772 84.7367L52.8166 71.5653H56.7968L61.3793 81.0969L64.8358 71.5653H68.6065L62.741 85.7579C62.4529 86.4388 62.0863 86.9887 61.615 87.46C61.1436 87.9314 60.6985 88.2718 60.2271 88.5074C59.7558 88.7431 59.3892 88.874 59.1012 88.874ZM41.0069 84.0297V76.1478C39.8809 76.1478 38.8597 76.4359 38.0217 77.0381C37.1576 77.6404 36.7386 78.6355 36.7386 80.0757C36.7386 81.5159 37.1576 82.5109 38.0217 83.1132C38.8859 83.7417 39.8809 84.0297 41.0069 84.0297ZM44.5681 76.1478V84.0297C45.249 84.0297 45.9298 83.925 46.5844 83.6893C47.2129 83.4536 47.7628 83.0608 48.2079 82.4586C48.6269 81.8825 48.8626 81.0969 48.8626 80.1019C48.8626 79.1068 48.6531 78.3212 48.2079 77.7451C47.7628 77.1429 47.2391 76.7501 46.5844 76.5144C45.9298 76.2788 45.249 76.1478 44.5681 76.1478ZM44.5681 73.3983C45.7203 73.3983 46.8987 73.6078 48.077 74.0268C49.2554 74.4458 50.2504 75.179 51.0622 76.174C51.8739 77.1952 52.2667 78.4783 52.2667 80.0757C52.2667 81.3064 52.031 82.3538 51.5335 83.2179C51.0622 84.0821 50.4075 84.7891 49.6481 85.2866C48.8888 85.7841 48.0508 86.1769 47.1605 86.4126C46.2702 86.6483 45.4061 86.753 44.5681 86.753V88.586H41.0069V86.753C40.169 86.753 39.3048 86.6483 38.4145 86.4126C37.5242 86.1769 36.6601 85.8103 35.9007 85.2866C35.1151 84.7629 34.4605 84.0821 33.963 83.2179C33.4654 82.3538 33.2298 81.3064 33.2298 80.0757C33.2298 78.8449 33.4654 77.7975 33.963 76.9334C34.4605 76.0693 35.0889 75.3623 35.9007 74.8385C36.6863 74.341 37.5242 73.9482 38.4145 73.7387C39.3048 73.5031 40.169 73.3983 41.0069 73.3983V71.5653H44.5681V73.3983ZM22.4675 88.6122H18.9324L18.8539 28.5947H22.4151L22.4937 78.4783L29.1972 71.5392H33.2036L26.6572 78.5045L34.0153 88.5598H29.2495L24.1695 81.0969L22.5198 82.799V88.6122H22.4675ZM12.386 77.1429C12.1503 76.3311 11.7837 75.6241 11.2862 75.048C10.7887 74.4719 9.89837 74.1839 8.61527 74.1839C7.51548 74.1839 6.54661 74.6291 5.68248 75.5456C4.81836 76.4621 4.39939 77.9808 4.39939 80.1542C4.39939 81.2278 4.5565 82.1967 4.84454 83.087C5.13258 83.9773 5.60392 84.6581 6.23238 85.1819C6.86084 85.7056 7.67259 85.9674 8.61527 85.9674C9.26991 85.9674 9.87218 85.8365 10.3697 85.6008C10.8934 85.3652 11.3124 84.9986 11.6528 84.501C11.9932 84.0297 12.2289 83.4274 12.386 82.7466H15.9472C15.7116 84.0035 15.2664 85.1033 14.638 86.046C14.0095 86.9887 13.1716 87.7219 12.1503 88.2456C11.1291 88.7693 9.92455 89.0312 8.53671 89.0312C7.01795 89.0312 5.6563 88.6907 4.47794 88.0099C3.29959 87.3291 2.38309 86.3078 1.72845 84.9724C1.07381 83.6107 0.733398 81.9872 0.733398 80.1019C0.733398 78.1641 1.07381 76.5406 1.75464 75.179C2.43546 73.8173 3.37815 72.7961 4.5565 72.1152C5.73485 71.4344 7.07032 71.094 8.5629 71.094C9.76744 71.094 10.8411 71.2773 11.7575 71.6439C12.674 72.0105 13.4334 72.508 14.0357 73.1103C14.638 73.7126 15.0831 74.3672 15.3712 75.048C15.6854 75.755 15.8687 76.4359 15.9211 77.1167L12.386 77.1429Z" fill="#2E3191"/>
<path d="M59.1012 88.874C58.0799 88.874 55.6447 88.7955 55.0948 88.6122V85.5746C55.5137 85.7579 57.5824 85.8627 57.9752 85.8627C58.7084 85.8627 59.2583 85.5485 59.5987 84.8938L59.6772 84.7367L52.8166 71.5653H56.7968L61.3793 81.0969L64.8358 71.5653H68.6065L62.741 85.7579C62.4529 86.4388 62.0863 86.9887 61.615 87.46C61.1436 87.9314 60.6985 88.2718 60.2271 88.5074C59.7558 88.7431 59.3892 88.874 59.1012 88.874ZM41.0069 84.0297V76.1478C39.8809 76.1478 38.8597 76.4359 38.0217 77.0381C37.1576 77.6404 36.7386 78.6355 36.7386 80.0757C36.7386 81.5159 37.1576 82.5109 38.0217 83.1132C38.8859 83.7417 39.8809 84.0297 41.0069 84.0297ZM44.5681 76.1478V84.0297C45.249 84.0297 45.9298 83.925 46.5844 83.6893C47.2129 83.4536 47.7628 83.0608 48.2079 82.4586C48.6269 81.8825 48.8626 81.0969 48.8626 80.1019C48.8626 79.1068 48.6531 78.3212 48.2079 77.7451C47.7628 77.1429 47.2391 76.7501 46.5844 76.5144C45.9298 76.2788 45.249 76.1478 44.5681 76.1478ZM44.5681 73.3983C45.7203 73.3983 46.8987 73.6078 48.077 74.0268C49.2554 74.4458 50.2504 75.179 51.0622 76.174C51.8739 77.1952 52.2667 78.4783 52.2667 80.0757C52.2667 81.3064 52.031 82.3538 51.5335 83.2179C51.0622 84.0821 50.4075 84.7891 49.6481 85.2866C48.8888 85.7841 48.0508 86.1769 47.1605 86.4126C46.2702 86.6483 45.4061 86.753 44.5681 86.753V88.586H41.0069V86.753C40.169 86.753 39.3048 86.6483 38.4145 86.4126C37.5242 86.1769 36.6601 85.8103 35.9007 85.2866C35.1151 84.7629 34.4605 84.0821 33.963 83.2179C33.4654 82.3538 33.2298 81.3064 33.2298 80.0757C33.2298 78.8449 33.4654 77.7975 33.963 76.9334C34.4605 76.0693 35.0889 75.3623 35.9007 74.8385C36.6863 74.341 37.5242 73.9482 38.4145 73.7387C39.3048 73.5031 40.169 73.3983 41.0069 73.3983V71.5653H44.5681V73.3983ZM22.4675 88.6122H18.9324L18.8539 28.5947H22.4151L22.4937 78.4783L29.1972 71.5392H33.2036L26.6572 78.5045L34.0153 88.5598H29.2495L24.1695 81.0969L22.5198 82.799V88.6122H22.4675ZM12.386 77.1429C12.1503 76.3311 11.7837 75.6241 11.2862 75.048C10.7887 74.4719 9.89837 74.1839 8.61527 74.1839C7.51548 74.1839 6.54661 74.6291 5.68248 75.5456C4.81836 76.4621 4.39939 77.9808 4.39939 80.1542C4.39939 81.2278 4.5565 82.1967 4.84454 83.087C5.13258 83.9773 5.60392 84.6581 6.23238 85.1819C6.86083 85.7056 7.67259 85.9674 8.61527 85.9674C9.26991 85.9674 9.87218 85.8365 10.3697 85.6008C10.8934 85.3652 11.3124 84.9986 11.6528 84.501C11.9932 84.0297 12.2289 83.4274 12.386 82.7466H15.9472C15.7116 84.0035 15.2664 85.1033 14.638 86.046C14.0095 86.9887 13.1716 87.7219 12.1503 88.2456C11.1291 88.7693 9.92455 89.0312 8.53671 89.0312C7.01795 89.0312 5.6563 88.6907 4.47794 88.0099C3.29959 87.3291 2.38309 86.3078 1.72845 84.9724C1.07381 83.6107 0.733398 81.9872 0.733398 80.1019C0.733398 78.1641 1.07381 76.5406 1.75464 75.179C2.43546 73.8173 3.37815 72.7961 4.5565 72.1152C5.73485 71.4344 7.07032 71.094 8.5629 71.094C9.76744 71.094 10.8411 71.2773 11.7575 71.6439C12.674 72.0105 13.4334 72.508 14.0357 73.1103C14.638 73.7126 15.0831 74.3672 15.3712 75.048C15.6854 75.755 15.8687 76.4359 15.9211 77.1167L12.386 77.1429Z" stroke="#2E3191" stroke-width="0.526" stroke-miterlimit="22.926"/>
<path d="M14.8996 34.6175C15.0043 28.7519 8.98165 24.0123 4.50391 23.8813C4.89669 29.7469 5.26329 28.1496 9.19113 29.7469C11.0765 30.5587 13.4856 32.8892 14.8996 34.6175Z" fill="#FFCA05"/>
<path d="M3.40392 34.146C4.50372 34.3555 5.55114 34.4079 6.70331 34.7483C10.2122 35.6648 12.9355 37.7073 14.7685 39.0689C14.4019 32.6534 7.54125 29.4588 1.23051 28.6732L1.20433 30.5586C1.0734 32.9938 2.25175 33.7532 3.40392 34.146Z" fill="#C4D83D"/>
<path d="M15.083 30.6634C15.6853 26.1857 11.9407 21.1842 8.5628 20.0059C7.96053 24.5883 8.9294 23.41 11.4694 25.6096C12.8311 26.7618 14.1665 28.4376 15.083 30.6634Z" fill="#7670B2"/>
<path d="M3.43012 48.2863C3.95384 48.3649 13.0664 48.7576 15.1089 52.3451C16.4182 42.2374 3.03734 42.0803 0.183105 41.2162C0.444962 42.5517 1.07342 47.2127 3.43012 48.2863Z" fill="#A44685"/>
<path d="M6.3371 54.6231C6.72988 54.6493 13.4334 54.178 15.214 56.6133C15.3711 49.1242 5.34205 50.093 3.19482 49.7003C3.48287 50.6429 4.55648 54.0209 6.3371 54.6231Z" fill="#00ADEE"/>
<path d="M2.56605 40.4306C3.45637 40.9543 11.9929 41.0853 15.1875 46.0344C16.4444 37.0003 4.97513 35.403 0.261719 34.6174C0.497389 35.7958 0.235533 39.4356 2.56605 40.4306Z" fill="#EB2D62"/>
<path d="M26.7616 34.6175C26.6569 28.7519 32.6796 24.0123 37.1573 23.8813C36.7645 29.7469 36.3979 28.1496 32.4701 29.7469C30.5585 30.5587 28.1756 32.8892 26.7616 34.6175Z" fill="#7BC2E3"/>
<path d="M38.2313 34.146C37.1315 34.3555 36.084 34.4079 34.9319 34.7483C31.423 35.6648 28.6997 37.7073 26.8667 39.0689C27.2333 32.6534 34.0939 29.4588 40.4047 28.6732L40.4308 30.5586C40.588 32.9938 39.4096 33.7532 38.2313 34.146Z" fill="#9A94C8"/>
<path d="M26.552 30.6634C25.9498 26.1857 29.6943 21.1842 33.0723 20.0059C33.6745 24.5883 32.7057 23.41 30.1657 25.6096C28.804 26.7618 27.4947 28.4376 26.552 30.6634Z" fill="#EB008B"/>
<path d="M38.2311 48.2863C37.7074 48.3649 28.5948 48.7576 26.5523 52.3451C25.243 42.2374 38.6239 42.0803 41.4781 41.2162C41.2162 42.5517 40.5616 47.2127 38.2311 48.2863Z" fill="#B2D34C"/>
<path d="M35.2982 54.6233C34.9054 54.6495 28.2019 54.1781 26.4213 56.6134C26.2642 49.1243 36.0838 50.0932 38.231 49.7266C37.943 50.6692 37.105 54.021 35.2982 54.6233Z" fill="#C5579F"/>
<path d="M39.0691 40.4306C38.1788 40.9543 29.6423 41.0853 26.4476 46.0344C25.1907 37.0003 36.66 35.403 41.3734 34.6174C41.1378 35.7958 41.3996 39.4356 39.0691 40.4306Z" fill="#F48245"/>
<path d="M16.497 27.652C18.5395 20.3462 16.3661 19.4821 14.2189 17.4919C12.8048 20.5033 13.6166 20.5557 15.0568 22.8338C15.9995 24.3526 15.9995 26.0285 16.497 27.652Z" fill="#54C0BE"/>
<path d="M18.3823 25.5309C21.9959 20.4509 20.6604 19.5083 19.1155 17.1777C16.7326 18.9584 17.6753 18.9845 18.4085 21.2889C18.906 22.7815 18.4085 24.0907 18.3823 25.5309Z" fill="#EF8B69"/>
<path d="M25.5311 27.652C23.4887 20.3462 25.6621 19.4821 27.8093 17.4919C29.2233 20.5033 28.4116 20.5557 26.9714 22.8338C26.0287 24.3526 26.0025 26.0285 25.5311 27.652Z" fill="#FFD85C"/>
<path d="M23.6454 25.5309C20.1365 20.4509 21.4458 19.5083 22.9384 17.1777C25.2427 18.9584 24.3262 18.9845 23.6192 21.2889C23.1479 22.7815 23.6454 24.0907 23.6454 25.5309Z" fill="#C5579F"/>
<path d="M127.786 43.8085L131.949 46.6104C118.176 -4.37303 59.1008 -11.4955 30.8203 16.8373C63.9713 -9.06025 112.519 2.90658 127.786 43.8085Z" fill="#FFD85C"/>
</svg>
