<svg width="150" height="100" viewBox="0 0 150 100" fill="none" xmlns="http://www.w3.org/2000/svg">
<g clip-path="url(#clip0)">
<path d="M58.5411 10.4495C58.609 10.3138 58.6768 10.1781 58.7447 10.0424C58.9991 10.1612 58.7616 10.5513 59.1009 10.6701C60.1866 8.87193 61.6115 7.37914 63.2909 6.1408C65.5131 4.5123 67.905 3.32485 70.7209 3.22307C71.6539 3.29093 72.57 3.24004 73.4521 2.93469C73.5708 2.93469 73.6896 2.93469 73.8083 2.93469C73.8592 3.05344 74.2494 3.257 73.7404 3.24004C73.1807 3.22307 72.6209 3.29093 72.1119 3.54538C70.6531 3.68109 69.2451 4.03732 67.8711 4.5123C66.6158 4.95335 65.3774 5.46226 64.3087 6.29347C64.0712 6.27651 63.8677 6.36132 63.6811 6.49703C61.9678 7.80322 60.475 9.32994 59.2706 11.1281C59.05 11.4673 59.0161 11.7897 59.1348 12.1628C59.508 13.2994 59.9661 14.3681 60.7125 15.3181C61.0517 15.793 61.374 16.302 61.7303 16.76C64.173 19.8643 67.1586 22.3919 70.3138 24.7328C71.4164 25.5471 71.2298 25.5471 71.8745 24.4444C72.078 24.1052 72.2816 23.7659 72.4851 23.4266C72.6887 22.9856 73.1128 22.6463 73.1128 22.1035C74.0967 20.95 75.0127 19.7795 75.8609 18.5242C76.0305 18.3376 76.2002 18.151 76.3698 17.9644C78.117 15.9118 79.8812 13.8762 82.0526 12.2646C83.3757 11.2807 84.665 10.1781 86.497 10.3647C86.5649 10.4665 86.6327 10.5683 86.7006 10.6701C86.039 10.6022 85.5131 10.8736 84.9873 11.2299C84.1391 11.7897 83.3588 12.4173 82.6293 13.1298C80.6107 15.0806 78.7277 17.1671 77.1671 19.5081C75.8779 21.0517 74.86 22.7651 73.8083 24.4444C73.5539 24.8855 73.3333 25.3435 73.011 25.7337C72.57 26.2765 72.8075 26.5818 73.2824 26.8702C74.4699 27.5827 75.6234 28.3121 76.8108 28.9907C80.017 30.7888 83.2909 32.4512 86.7176 33.7913C89.3469 34.8092 91.9932 35.7252 94.7583 36.3359C95.1145 36.4207 95.4029 36.5394 95.5725 36.0645C95.8779 35.2502 96.2002 34.436 96.5225 33.6217C96.5564 33.5539 96.5903 33.469 96.6242 33.4012C96.6412 33.2994 96.6582 33.1807 96.6751 33.0789C96.8787 32.3325 97.1162 31.6031 97.2689 30.8397C97.6251 29.1094 98.1849 27.4131 98.0153 25.598C98.0662 24.4444 98.0153 23.2909 97.8626 22.1374C97.5403 19.6268 96.8957 17.2519 95.4198 15.1484C95.2502 14.9109 94.894 14.7752 94.9618 14.402C95.352 14.402 95.5216 14.7243 95.7591 14.9618C96.6582 15.827 97.218 16.9126 97.8117 17.9813C98.5072 19.7286 99.1009 21.5098 99.2536 23.4097C99.2536 23.6302 99.2197 23.8677 99.2536 24.0882C99.6268 27.0399 99.1179 29.9067 98.3715 32.7396C98.0492 33.6387 97.7439 34.5377 97.4046 35.4029C96.8617 36.76 96.8617 36.6921 98.2867 36.8448C101.154 37.1501 103.986 37.2689 106.48 35.4368C106.31 35.9457 105.971 36.3528 105.666 36.7769C103.715 37.9135 101.595 38.1001 99.4063 37.9983C98.5411 37.9474 97.659 37.8626 96.7939 37.7778C96.4885 37.7438 96.268 37.8117 96.0984 38.1001C95.1484 39.7964 93.944 41.3232 92.6209 42.7481C91.0433 44.4614 89.2451 45.9542 87.3452 47.3113C87.1586 47.4131 87.0059 47.5488 87.0568 47.7693C87.1416 48.0746 87.3791 47.8202 87.5318 47.8541C88.5157 48.0746 89.5165 47.9729 90.5174 47.9898C90.9924 48.0068 90.6701 48.1595 90.5852 48.2952C89.296 48.363 87.9898 48.4478 86.7176 48.1764C86.2935 48.0916 85.9372 48.2443 85.6149 48.4648C83.1043 50.1781 80.4241 51.5861 77.693 52.8923C76.5564 53.4351 75.3689 53.944 74.0458 53.7574C74.3511 53.4521 74.877 53.6387 75.1484 53.2655C75.6913 53.2655 76.1832 53.0958 76.6751 52.8923C78.3715 52.1628 79.9491 51.2468 81.5267 50.3138C82.7481 49.5844 83.9864 48.855 85.1908 47.888C84.9194 47.7863 84.7498 47.7014 84.5632 47.6675C82.765 47.2773 81.0178 46.7006 79.3045 46.0729C75.1654 44.5293 71.2638 42.5106 67.5657 40.1187C67.2943 39.9491 67.0568 39.6607 66.9041 40.2205C66.2595 42.3749 65.6658 44.5462 65.2756 46.7684C64.8516 47.8541 64.8176 48.9737 64.9533 50.1103C64.6819 50.0254 64.4784 49.8558 64.3087 49.6522C64.2409 48.4648 64.2069 47.2943 64.4105 46.1069C64.7667 43.9016 65.1569 41.7133 65.7167 39.5589C65.7846 39.2875 65.9372 39.05 65.598 38.8125C64.8176 38.2697 64.0712 37.693 63.3079 37.1501C63.2231 36.7769 62.8838 36.6751 62.6293 36.4716C60.7125 35.0297 59.0331 33.3503 57.6929 31.3656C57.6421 31.3147 57.6081 31.2638 57.5572 31.2129C57.5403 31.162 57.5233 31.0941 57.5063 31.0433C57.676 31.0433 57.8456 31.0433 58.0153 31.0433L58.0322 31.0602C58.0492 31.2468 58.134 31.3486 58.3206 31.3995L58.3715 31.4504C58.4393 31.5352 58.5072 31.62 58.575 31.7048C58.7108 31.8405 58.8634 31.9762 58.9991 32.112C60.8821 34.3003 63.1043 36.1153 65.4114 37.8626C65.9203 38.2528 66.1747 38.3206 66.3613 37.5742C67.3282 33.9101 68.7023 30.3817 70.5004 27.0568C70.8058 26.497 70.704 26.2595 70.212 25.9203C67.413 23.9355 64.7498 21.7642 62.4597 19.1857C60.7464 17.2519 59.1518 15.2502 58.5581 12.6548C58.5581 12.4003 58.0492 12.3155 58.3036 11.9593C58.6259 11.5352 58.4733 10.9754 58.5411 10.4495ZM71.9254 41.8151C72.1119 42.0356 72.3325 42.1713 72.5869 42.307C76.2511 44.2409 80.0339 45.8524 84.0203 46.9381C84.9025 47.1756 85.7676 47.7523 86.7854 46.8872C89.6014 44.5123 92.2477 41.9847 94.2324 38.8634C94.9449 37.7438 95.4877 37.3198 93.5539 37.1501C93.469 37.1501 93.3842 37.0992 93.3164 37.0823C89.0585 35.9457 84.9703 34.3681 81.0178 32.4173C79.8473 31.8405 78.5411 31.4673 77.5403 30.5852C77.4724 30.4326 77.3537 30.4156 77.218 30.4156C77.1671 30.3986 77.1162 30.3986 77.0653 30.3986C76.8448 30.0254 76.4207 29.9576 76.0984 29.754C75.0806 29.1433 74.0458 28.5835 73.0619 27.9559C72.1628 27.3791 72.1798 27.3452 71.6879 28.2612C70.1272 31.2299 68.8041 34.3003 67.7523 37.5064C67.2604 39.0331 67.2095 39.084 68.5666 39.9661C69.6183 40.6616 70.67 41.4249 71.9254 41.8151Z" fill="#1B1C17"/>
<path d="M86.7346 10.704C86.6667 10.6022 86.5988 10.5004 86.531 10.3987C85.8694 9.36388 85.14 8.39696 84.2579 7.53182C84.2409 7.10774 83.6302 7.15863 83.6133 6.73454C82.6972 5.78458 81.6455 5.08908 80.4411 4.49535C78.3376 3.47754 76.1324 3.05345 73.8253 2.96863C73.7066 2.96863 73.5878 2.96863 73.4691 2.96863C72.5531 3.00256 71.6031 2.71418 70.738 3.25701C67.922 3.3588 65.5132 4.54624 63.3079 6.17474C61.6286 7.41308 60.2036 8.90587 59.118 10.704C58.7787 10.5853 59.0162 10.1951 58.7617 10.0764C61.6286 4.35964 66.3105 1.18746 72.57 0.254471C75.5895 -0.203545 78.5921 0.0678718 81.5776 0.644632C81.8151 0.695522 82.0526 0.797303 82.2901 0.882121C82.2223 0.933012 82.1035 1.01783 82.1035 1.03479C82.1883 1.18746 82.324 1.15354 82.4598 1.11961C82.5955 1.28925 82.7142 1.49281 82.9008 1.61155C84.5632 2.66329 85.4962 4.2409 86.2765 5.98814C86.7346 7.00595 86.8703 8.14251 87.3792 9.1264C87.2604 9.70316 87.7524 10.263 87.4131 10.8397C87.1756 10.7719 86.9551 10.7379 86.7346 10.704Z" fill="#8F246C"/>
<path d="M87.3623 47.3792C89.2622 46.0221 91.0603 44.5463 92.638 42.816C93.9441 41.3911 95.1655 39.8644 96.1155 38.168C96.2851 37.8627 96.5056 37.8118 96.811 37.8457C97.6761 37.9305 98.5582 38.0153 99.4234 38.0662C101.612 38.168 103.749 37.9814 105.683 36.8448C104.597 38.8465 103.104 40.5259 101.442 42.0527C99.4234 43.9526 97.1842 45.5641 94.7584 46.9042C94.3852 47.1078 94.029 47.3283 93.6049 47.4131C93.4692 47.4131 93.3165 47.3962 93.1808 47.4301C91.4675 48.0747 89.7202 48.0238 87.956 47.7524C87.7185 47.7185 87.3623 47.8203 87.3623 47.3792Z" fill="#8F246C"/>
<path d="M106.514 35.4878C104.02 37.3368 101.187 37.2011 98.3204 36.8957C96.8955 36.7431 96.8955 36.8109 97.4383 35.4538C97.7945 34.5717 98.0829 33.6727 98.4052 32.7906C99.9489 32.5531 101.459 32.2477 102.918 31.654C106.768 30.0764 108.448 26.5989 107.752 22.6464C107.667 22.1884 107.091 21.7643 107.566 21.2384C107.684 21.3402 107.803 21.4589 107.922 21.5607C108.855 23.4776 108.94 25.5132 108.872 27.5828C108.77 30.4326 107.956 33.062 106.514 35.4878Z" fill="#E01F28"/>
<path d="M57.6929 31.4164C59.05 33.4011 60.7124 35.0805 62.6293 36.5224C62.8838 36.709 63.223 36.8277 63.3078 37.2009C62.5106 37.2009 61.9508 37.8964 62.2052 38.592C62.29 38.8294 62.4766 39.033 62.4257 39.3044C62.1034 40.8311 62.3579 42.3748 62.2731 43.9185C62.2561 44.156 62.3918 44.4783 62.1034 44.614C61.6963 44.8006 61.8999 44.9872 61.9847 45.2756C62.1543 45.8863 62.5784 46.4121 62.6123 47.0567C62.1883 46.6496 61.7981 47.0907 61.391 47.0907C61.2383 46.955 61.1026 46.8362 60.9499 46.7005C60.4071 45.8523 59.8643 45.0211 59.3214 44.1729C58.9482 43.223 58.575 42.2561 58.2018 41.3061C57.8795 39.983 57.5572 38.6768 57.2349 37.3536C56.9296 35.2841 56.6242 33.1976 56.3359 31.128C56.3868 30.5512 56.0984 30.0084 56.2002 29.4317C56.6751 29.3977 56.6073 29.8727 56.7769 30.1102C57.0314 30.4325 57.0653 30.9414 57.5233 31.128C57.5403 31.1789 57.5572 31.2468 57.5742 31.2976C57.6081 31.3146 57.6421 31.3655 57.6929 31.4164Z" fill="#B52227"/>
<path d="M48.3628 50.246C49.1431 50.2629 49.8386 50.5683 50.568 50.7718C53.4349 51.62 56.3696 52.112 59.3212 52.4003C62.3238 52.6887 65.3772 52.9262 68.3628 52.1798C70.11 52.9601 71.8742 53.6556 73.7911 53.9101C73.825 53.927 73.825 53.961 73.825 53.9949C70.3984 54.9109 66.9039 55.1654 63.3755 55.0127C60.0337 54.86 56.7428 54.436 53.4858 53.6217C51.8233 53.1976 50.1609 52.7905 48.5324 52.3155C48.5833 51.603 48.261 50.9415 48.3628 50.246Z" fill="#E0E1E2"/>
<path d="M96.5905 7.32827C99.4234 9.05855 101.832 11.2977 103.919 13.8762C105.378 15.6913 106.65 17.6421 107.532 19.8134C107.651 20.0848 107.702 20.3393 107.719 20.6277C107.498 20.2375 107.294 19.8474 107.074 19.4572C104.869 15.4877 101.561 13.0959 97.0485 12.4343C94.962 11.9254 92.8755 12.0272 90.8059 12.553C90.2291 12.553 89.7372 12.2986 89.2453 12.0781C89.2113 11.7557 89.4658 11.6031 89.6354 11.3995C90.6702 10.5344 91.671 9.61834 92.7567 8.82106C93.8593 7.98985 95.0468 7.1756 96.5905 7.32827Z" fill="#EAAE1D"/>
<path d="M82.4764 0.916016C84.3424 1.23832 86.1066 1.8999 87.8539 2.61237C90.5172 3.69804 93.0786 4.9703 95.4535 6.61576C94.2322 7.12467 93.0786 7.73536 92.1287 8.66835C91.8573 7.6675 90.6529 7.58268 90.2288 6.63273C90.127 7.51483 89.7029 7.37912 89.2788 7.05681C88.5494 6.51398 87.6333 6.66665 86.853 6.32738C86.5646 5.92026 86.3611 5.44528 86.1745 4.98726C85.462 3.18913 84.3424 1.74723 82.4595 1.06869C82.4595 1.03476 82.4764 0.98387 82.4764 0.916016Z" fill="#116634"/>
<path d="M61.3911 47.0569C61.7982 47.0569 62.2054 46.6328 62.6125 47.0229C62.6295 47.2095 62.6973 47.3622 62.9178 47.3283C63.1384 47.2774 63.2062 47.0738 63.2571 46.8872C63.4607 46.1408 63.0196 45.5641 62.7482 44.6989C62.5955 45.3435 62.5616 45.6998 62.833 46.0899C63.0366 46.3953 63.1892 46.8363 62.6125 47.0399C62.5786 46.3783 62.1545 45.8694 61.9848 45.2587C61.9 44.9873 61.6965 44.8007 62.1036 44.5972C62.392 44.4614 62.2563 44.1391 62.2732 43.9016C62.358 42.3749 62.1036 40.8143 62.4259 39.2876C62.4768 39.0161 62.2902 38.8126 62.2054 38.5751C61.9509 37.8796 62.5107 37.1841 63.308 37.1841C64.0713 37.7439 64.8177 38.3206 65.5981 38.8465C65.9373 39.084 65.7847 39.3215 65.7168 39.5929C65.157 41.7473 64.7669 43.9356 64.4106 46.1408C64.224 47.3283 64.2579 48.4988 64.3088 49.6862C63.1892 49.0077 62.2054 48.1086 61.3911 47.0569Z" fill="#E01F28"/>
<path d="M73.842 53.9779C73.842 53.944 73.842 53.9101 73.8081 53.8931C73.8929 53.8762 73.9777 53.8422 74.0626 53.8253C75.3857 53.9949 76.5732 53.503 77.7097 52.9601C80.4408 51.6539 83.1211 50.229 85.6317 48.5327C85.9709 48.3121 86.3272 48.1425 86.7343 48.2443C88.0235 48.5157 89.3128 48.4309 90.602 48.363C91.0939 48.4987 91.5519 48.1425 92.0439 48.2103C88.0066 50.212 84.0371 52.4003 79.6266 53.5538C77.7267 54.0458 75.7928 54.1306 73.842 53.9779Z" fill="#1662AD"/>
<path d="M59.3215 44.139C59.8643 44.9872 60.4071 45.8184 60.95 46.6666C56.4886 46.9041 52.112 46.4461 47.8541 45.0042C47.7015 44.3596 47.9559 43.7489 48.0238 43.1382C48.6514 43.223 49.2621 43.4266 49.8898 43.5453C53.028 44.156 56.1323 44.614 59.3215 44.139Z" fill="#E0E1E2"/>
<path d="M74.0627 53.8253C73.9779 53.8422 73.8931 53.8762 73.8082 53.8931C71.8914 53.6387 70.1271 52.9432 68.3799 52.1628C67.2433 51.4843 66.005 51.0093 64.9702 50.1442C64.8345 49.0076 64.8854 47.888 65.2925 46.8024C65.4282 47.2943 65.072 47.8371 66.1746 48.0068C67.3791 48.1934 68.6513 48.855 69.6691 49.7371C69.9406 49.9746 70.2289 50.246 70.5682 50.3477C72.1797 50.9075 73.6386 51.7727 75.0805 52.6548C75.4028 52.8414 75.2671 53.0619 75.1823 53.2994C74.8939 53.7065 74.368 53.5199 74.0627 53.8253Z" fill="#C95027"/>
<path d="M56.1833 29.3978C56.0646 29.9746 56.3529 30.5174 56.319 31.0942C56.0306 30.8058 55.7253 30.5005 55.42 30.2121C52.5701 27.5488 49.2283 25.7337 45.4793 24.6311C45.5981 23.9525 45.1231 23.2401 45.649 22.5955C47.1926 22.8499 48.5667 23.5454 49.9916 24.1561C51.9424 24.9873 53.7745 26.073 55.6066 27.3283C55.6574 26.5989 55.7083 25.9882 55.7423 25.3775C55.7762 25.8525 55.8271 26.3444 55.878 26.8194C55.9797 27.0908 56.0476 27.3622 56.0137 27.6506C55.7423 28.2952 56.1494 28.8211 56.1833 29.3978Z" fill="#E0E1E2"/>
<path d="M48.0409 43.1382C47.9731 43.7658 47.7017 44.3596 47.8713 45.0042C46.5821 44.8006 45.4116 44.2408 44.2072 43.8167C41.9171 42.9855 39.8136 41.7811 37.6932 40.5937C37.5066 39.9999 37.2012 39.4401 37.4896 38.7616C37.6083 38.4732 37.744 38.3714 38.0155 38.3884C40.4243 39.8303 42.901 41.1534 45.5303 42.1543C46.3785 42.4766 47.2945 42.5784 48.0409 43.1382Z" fill="#EAEBEC"/>
<path d="M38.0152 48.0577C37.9813 47.3791 38.5241 46.9381 38.6937 46.3613C41.6793 47.6675 44.6649 48.9737 47.7862 49.9237C48.0067 49.9915 48.2103 50.0594 48.363 50.246C48.2612 50.9415 48.5665 51.603 48.5326 52.2985C47.396 51.9423 46.2086 51.6879 45.106 51.2129C42.7311 50.1951 40.2544 49.4148 38.0152 48.0577Z" fill="#EAEBEC"/>
<path d="M55.6914 23.6303C54.945 23.5963 54.4531 23.0026 53.8424 22.6973C51.2979 21.3911 48.7024 20.1867 45.9883 19.2197C46.1579 18.6091 46.4463 17.9984 46.1579 17.3538C47.3114 17.3538 48.3292 17.8796 49.3471 18.3207C51.1452 19.084 52.9603 19.8304 54.6736 20.7634C55.0468 20.967 55.403 21.1706 55.7253 21.442C55.7084 22.1714 55.7084 22.9008 55.6914 23.6303Z" fill="#E0E1E2"/>
<path d="M45.649 22.6124C45.1401 23.257 45.5981 23.9695 45.4794 24.648C42.7652 23.7829 40.0171 23.3249 37.1672 23.6302C37.0146 22.782 37.2521 21.9339 37.1672 21.0857C39.61 21.0857 41.9849 21.5098 44.3258 22.1544C44.7839 22.2731 45.3267 22.1544 45.649 22.6124Z" fill="#EAEBEC"/>
<path d="M46.1575 17.3537C46.4629 18.0153 46.1575 18.609 45.9879 19.2197C44.2067 18.7447 42.4256 18.2867 40.6444 17.8117C39.898 17.6082 39.0838 17.7269 38.3543 17.3537C38.3543 17.3198 38.3543 17.2859 38.3374 17.2689C37.5401 16.7261 37.6758 16.0306 38.0151 15.3181C38.507 15.2672 38.965 15.3859 39.423 15.4877C41.4926 15.9797 43.613 16.2171 45.5977 16.9975C45.8352 17.0823 45.9879 17.218 46.1575 17.3537Z" fill="#EAEBEC"/>
<path d="M97.0312 12.4343C101.544 13.0959 104.851 15.4878 107.057 19.4572C107.277 19.8474 107.481 20.2375 107.701 20.6277C107.769 20.95 108.058 21.2045 107.922 21.5777C107.803 21.4759 107.684 21.3571 107.566 21.2554C107.311 20.2545 106.616 19.4912 106.073 18.6599C104.495 16.2511 102.46 14.4191 99.7115 13.4182C98.8294 13.0959 97.9812 12.6549 96.9973 12.7057C96.9295 12.7057 96.675 12.7397 96.8107 12.5022C96.8277 12.4513 96.9464 12.4513 97.0312 12.4343Z" fill="#262624"/>
<path d="M58.5412 10.4496C58.4734 10.9755 58.6261 11.5353 58.2698 12.0102C58.0154 12.3665 58.5243 12.4513 58.5243 12.7057C58.1511 12.7736 58.1002 13.1129 57.9645 13.3843C57.1333 15.0806 56.6583 16.8788 56.336 18.7278C56.0476 18.5073 56.2172 18.2019 56.1664 17.9305C56.5226 15.3012 57.3538 12.8075 58.5412 10.4496Z" fill="#B52227"/>
<path d="M92.1288 8.70224C93.0787 7.76925 94.2322 7.15856 95.4536 6.64966C95.8268 6.88715 96.217 7.10767 96.5902 7.34516C95.0635 7.17553 93.876 8.00674 92.7395 8.82099C91.6538 9.61827 90.6529 10.5343 89.6182 11.3994C90.2289 10.2799 91.2636 9.56738 92.1288 8.70224Z" fill="#262624"/>
<path d="M56.1834 17.9304C56.2343 18.2018 56.0646 18.5072 56.353 18.7277C56.1494 21.1535 55.9289 23.5962 56.0137 26.039C56.0307 26.3104 56.0985 26.5988 55.878 26.8532C55.8271 26.3782 55.7932 25.8863 55.7423 25.4113C55.7253 24.8176 55.7084 24.2239 55.6914 23.6471C55.7084 22.9177 55.7084 22.1883 55.7253 21.4588C55.7423 21.4249 55.7423 21.391 55.7084 21.374C55.878 21.1365 55.8271 20.8651 55.7932 20.5937C55.9289 19.6946 55.9289 18.7956 56.1834 17.9304Z" fill="#C95027"/>
<path d="M92.0442 48.2104C91.5522 48.1256 91.1112 48.4988 90.6023 48.363C90.6871 48.2443 91.0094 48.0747 90.5344 48.0577C89.5336 48.0407 88.5327 48.1425 87.5488 47.922C87.3962 47.8881 87.1587 48.1425 87.0739 47.8372C87.006 47.6166 87.1756 47.4809 87.3622 47.3792C87.3622 47.8202 87.7185 47.7184 87.9729 47.7524C89.7371 48.0238 91.4844 48.0747 93.1977 47.43C93.3164 47.3792 93.4691 47.4131 93.6218 47.4131C93.1468 47.7693 92.604 48.0238 92.0442 48.2104Z" fill="#262624"/>
<path d="M55.8102 20.5768C55.8441 20.8482 55.895 21.1027 55.7254 21.3571C55.6745 21.0857 55.5897 20.8143 55.8102 20.5768Z" fill="#E0E1E2"/>
<path d="M82.4766 0.915999C82.4766 0.966889 82.4596 1.01778 82.4427 1.08563C82.307 1.1026 82.1712 1.13652 82.0864 1.00082C82.0864 0.983853 82.2052 0.899035 82.273 0.848145C82.3409 0.865108 82.4087 0.899035 82.4766 0.915999Z" fill="#262624"/>
<path d="M77.0481 30.3987C77.099 30.3987 77.1499 30.4156 77.2008 30.4156C77.2686 30.5344 77.3874 30.5683 77.5231 30.5853C78.5409 31.4674 79.8301 31.8406 81.0006 32.4173C84.9531 34.3681 89.0413 35.9458 93.2992 37.0823C93.384 37.0993 93.4518 37.1502 93.5367 37.1502C95.4705 37.3198 94.9277 37.7439 94.2152 38.8635C92.2305 42.0017 89.5842 44.5123 86.7682 46.8872C85.7504 47.7354 84.8853 47.1756 84.0031 46.9381C80.0167 45.8525 76.2169 44.2409 72.5697 42.3071C72.3153 42.1714 72.0778 42.0357 71.9081 41.8151C72.1117 41.1705 71.1957 41.2553 71.2126 40.5938C71.501 40.5938 71.7894 40.5768 72.0947 40.5938C72.417 40.6107 72.7733 40.8652 72.9938 40.4411C73.1974 40.0509 73.2483 39.6268 72.9768 39.2536C72.7054 38.8974 72.8072 38.643 73.0617 38.3715C74.1304 37.2689 74.0964 35.6065 75.0803 34.436C75.1821 34.3173 75.1143 34.0458 75.1651 33.8592C75.3517 33.1637 75.5044 32.3495 76.1321 31.9593C76.7597 31.5692 76.7936 31.3147 76.0303 30.7888C76.607 30.8228 76.8276 30.6192 77.0481 30.3987Z" fill="#0D8041"/>
<path d="M89.2283 12.0611C89.7372 12.2817 90.2292 12.5361 90.789 12.5361C90.789 12.7397 90.9416 12.7227 91.0773 12.7736C92.0103 13.1638 93.113 13.062 93.9272 13.7914C94.2834 14.0459 94.5379 14.453 95.0298 14.4869C94.962 14.8771 95.3182 14.9958 95.4879 15.2333C96.9637 17.3368 97.6253 19.7117 97.9306 22.2223C98.0663 23.3758 98.1342 24.5124 98.0833 25.6829C97.7101 26.0391 98.1002 26.565 97.8118 26.9382C97.5065 27.0399 97.6422 26.5989 97.3029 26.6159C96.794 26.6498 96.2512 26.6837 95.7423 26.6498C94.0968 26.5141 92.4683 26.3444 90.8568 25.8864C88.6515 25.2418 86.4124 24.665 84.3089 23.766C82.4429 22.9857 80.6448 22.0527 79.0163 20.8313C78.5074 20.4581 78.3377 19.8474 78.0154 19.3385C77.4895 19.7965 77.4896 19.7965 77.2012 19.559C78.7618 17.2181 80.6448 15.1315 82.6634 13.1807C83.3929 12.4683 84.1732 11.8576 85.0214 11.2808C85.5472 10.9246 86.0901 10.6532 86.7347 10.721C86.9552 10.7549 87.1927 10.7889 87.4132 10.8228C87.8712 11.4335 88.7024 11.5183 89.2283 12.0611Z" fill="#1662AD"/>
<path d="M55.8608 26.8363C56.0814 26.5988 55.9966 26.2935 55.9966 26.0221C55.9117 23.5793 56.1492 21.1366 56.3358 18.7108C56.6581 16.8617 57.1331 15.0636 57.9643 13.3673C58.1 13.0958 58.1509 12.7566 58.5241 12.6887C59.1178 15.2841 60.7124 17.3028 62.4257 19.2197C64.7158 21.7981 67.3791 23.9695 70.1781 25.9542C70.67 26.2935 70.7718 26.531 70.4664 27.0908C68.6683 30.4326 67.2943 33.944 66.3273 37.6081C66.1238 38.3376 65.8863 38.2867 65.3774 37.8965C63.0873 36.1662 60.8651 34.3511 58.9652 32.1459C58.8464 31.9932 58.6938 31.8745 58.5411 31.7388C58.4732 31.6539 58.4054 31.5691 58.3375 31.4843L58.2866 31.4334C58.2357 31.2808 58.1679 31.162 57.9982 31.0942L57.9813 31.0772C57.3027 29.9406 56.6412 28.7871 55.9626 27.6506C56.0305 27.3791 55.9796 27.1077 55.8608 26.8363Z" fill="#EAAE1D"/>
<path d="M77.1842 19.5421C77.4726 19.7795 77.4726 19.7795 77.9985 19.3215C78.3208 19.8304 78.4904 20.4242 78.9993 20.8143C80.6278 22.0357 82.426 22.9687 84.2919 23.749C86.4124 24.6481 88.6346 25.2248 90.8399 25.8695C92.4514 26.3275 94.0799 26.5141 95.7254 26.6328C96.2173 26.6667 96.7601 26.6328 97.286 26.5989C97.6253 26.5819 97.4896 27.023 97.7949 26.9212C98.0663 26.548 97.6931 26.0221 98.0663 25.6659C98.2529 27.464 97.6762 29.1773 97.3199 30.9076C97.1673 31.671 96.9298 32.4004 96.7262 33.1468C96.6414 32.6888 96.2682 32.8075 95.9798 32.8075C93.0451 32.8415 90.2122 32.2138 87.4641 31.3487C82.884 29.9237 78.6261 27.7354 74.7245 24.9195C74.4531 24.7329 74.2495 24.4106 73.8594 24.4784C74.8941 22.7991 75.912 21.0857 77.1842 19.5421Z" fill="#0E4882"/>
<path d="M93.9102 13.7913C93.096 13.0789 91.9934 13.1637 91.0604 12.7735C90.9416 12.7226 90.772 12.7396 90.772 12.536C92.8415 12.0102 94.9281 11.9084 97.0146 12.4173C96.9297 12.4342 96.811 12.4342 96.7771 12.4851C96.6414 12.7226 96.8958 12.6887 96.9637 12.6887C97.9476 12.6378 98.7957 13.0958 99.6778 13.4012C102.426 14.385 104.479 16.2341 106.039 18.6429C106.582 19.4741 107.278 20.2375 107.532 21.2383C107.057 21.7642 107.634 22.1883 107.719 22.6463C108.414 26.5988 106.735 30.0763 102.884 31.6539C101.425 32.2476 99.9153 32.553 98.3717 32.7905C99.118 29.9576 99.6269 27.0907 99.2537 24.1391C99.2198 23.9185 99.2537 23.698 99.2537 23.4605C99.7627 24.5632 99.4573 25.7676 99.7627 26.9041C99.8984 26.0899 99.8984 25.2756 99.8984 24.4783C99.8984 24.2917 99.8135 24.0542 100.221 24.1221C101.205 24.2917 102.104 23.6641 102.511 22.5954C102.799 21.849 102.426 20.7124 101.917 20.1526C101.493 19.6946 100.933 19.542 100.441 19.2875C100.034 19.0839 99.7457 18.3715 99.0841 18.8125C99.0671 18.8295 98.8975 18.6938 98.8636 18.609C98.66 18.1509 98.2529 18.0831 97.8118 18.0322C97.2181 16.9635 96.6583 15.8778 95.7593 15.0127C95.5218 14.7922 95.3521 14.4699 94.962 14.4529C94.7923 14.0118 94.4191 13.7913 93.9102 13.7913Z" fill="#B52227"/>
<path d="M75.1822 53.3333C75.267 53.0958 75.4027 52.8753 75.0804 52.6887C73.6385 51.8066 72.1797 50.9415 70.5681 50.3817C70.2458 50.2629 69.9405 50.0085 69.6691 49.771C68.6513 48.8889 67.379 48.2273 66.1746 48.0407C65.072 47.8711 65.4282 47.3282 65.2925 46.8363C65.6657 44.6141 66.2764 42.4427 66.921 40.2884C67.0906 39.7455 67.3111 40.0169 67.5826 40.1866C71.2976 42.5784 75.1992 44.5971 79.3213 46.1408C81.0346 46.7854 82.7819 47.3452 84.58 47.7353C84.7666 47.7693 84.9362 47.8541 85.2076 47.9559C84.0032 48.9058 82.7819 49.6522 81.5435 50.3817C79.9659 51.3147 78.3883 52.2307 76.692 52.9601C76.217 53.1637 75.725 53.3333 75.1822 53.3333Z" fill="#E76924"/>
<path d="M84.258 7.53184C85.1401 8.39698 85.8695 9.3639 86.5311 10.3987C84.6991 10.229 83.4098 11.3317 82.0867 12.2986C79.9153 13.9101 78.1511 15.9457 76.4039 17.9983C76.2343 18.1849 76.0646 18.3715 75.895 18.5581C75.7254 18.5412 75.4539 18.7956 75.3861 18.5072C75.2673 17.9814 74.8093 17.693 74.6397 17.2011C74.0629 15.6743 73.4692 14.1815 72.9603 12.6209C72.4175 10.9585 71.9934 9.27908 72.197 7.59969C72.4514 5.37747 73.3674 4.78375 75.3861 5.76763C76.37 6.24261 77.3708 6.73455 78.2868 7.34524C79.7796 8.31216 81.4421 7.71844 83.0027 7.98985C83.0875 8.00682 83.2741 7.922 83.2741 7.85415C83.3759 7.10775 83.8339 7.37917 84.258 7.53184Z" fill="#E76924"/>
<path d="M84.2578 7.53189C83.8337 7.37921 83.3927 7.1078 83.24 7.85419C83.223 7.92205 83.0534 8.00686 82.9686 7.9899C81.4079 7.71848 79.7455 8.31221 78.2527 7.34529C77.3367 6.75156 76.3359 6.25962 75.352 5.76768C73.3333 4.78379 72.4173 5.37752 72.1628 7.59974C71.9593 9.27913 72.3834 10.9755 72.9262 12.6209C73.4351 14.1646 74.0288 15.6744 74.6056 17.2011C74.7922 17.693 75.2332 17.9814 75.352 18.5073C75.4198 18.7957 75.6912 18.5412 75.8609 18.5582C75.0127 19.8135 74.0967 20.984 73.1128 22.1375C73.1976 21.2893 72.4343 20.8313 72.1289 20.1528C71.637 19.0501 70.7379 18.1511 70.1611 17.0993C69.4996 15.9288 69.1433 14.6057 68.9228 13.2825C68.7532 12.3156 68.5835 11.3148 68.7023 10.3309C68.8041 9.49966 68.9567 8.70237 68.9058 7.83723C68.8719 7.12476 69.2112 6.27658 69.5674 5.83553C69.9067 5.41144 70.3308 4.85165 70.9075 4.47845C71.3486 4.19007 71.9932 4.15614 72.2816 3.63027C73.5878 3.51153 74.894 3.4776 76.1662 3.64724C77.8626 3.86776 79.508 4.24096 81.0347 5.14003C81.8999 5.64893 82.6463 6.34444 83.5962 6.71763C83.6132 7.15869 84.2239 7.1078 84.2578 7.53189Z" fill="#C95027"/>
<path d="M72.2815 3.6472C71.9931 4.15611 71.3485 4.207 70.9075 4.49538C70.3477 4.86857 69.9236 5.42837 69.5673 5.85246C69.2111 6.27655 68.8718 7.12472 68.9227 7.85416C68.9906 8.70233 68.8379 9.51658 68.7192 10.3478C68.5834 11.3317 68.77 12.3325 68.9397 13.2994C69.1602 14.6226 69.5334 15.9627 70.178 17.1162C70.7717 18.168 71.6538 19.067 72.1458 20.1697C72.4511 20.8482 73.2145 21.2893 73.1297 22.1544C73.1297 22.6972 72.6886 23.0196 72.502 23.4776C72.4002 22.7481 71.7387 22.4258 71.2976 22.0357C68.3968 19.4402 66.022 16.4716 64.614 12.8075C63.8337 10.6701 63.681 8.51573 64.3086 6.32744C65.3773 5.51319 66.6157 4.98732 67.871 4.54627C69.245 4.07129 70.653 3.71505 72.1119 3.57935C72.1797 3.59631 72.2306 3.63024 72.2815 3.6472Z" fill="#B52227"/>
<path d="M77.0484 30.3986C76.8448 30.6191 76.6073 30.8057 76.0475 30.7888C76.7939 31.3146 76.777 31.5691 76.1493 31.9593C75.5217 32.3494 75.386 33.1637 75.1824 33.8592C75.1315 34.0458 75.1994 34.3002 75.0976 34.4359C74.1137 35.5894 74.1476 37.2688 73.0789 38.3715C72.8075 38.6429 72.7227 38.8973 72.9941 39.2536C73.2655 39.6268 73.2316 40.0509 73.0111 40.441C72.7906 40.8651 72.4174 40.6107 72.112 40.5937C71.8236 40.5767 71.5183 40.5937 71.2299 40.5937C71.2129 41.2553 72.129 41.1705 71.9254 41.8151C70.6701 41.4249 69.6184 40.6615 68.5497 39.966C67.1926 39.0839 67.2435 39.033 67.7354 37.5063C68.7702 34.3172 70.1103 31.2298 71.671 28.2612C72.1459 27.3452 72.129 27.3791 73.045 27.9559C74.0459 28.5835 75.0806 29.1603 76.0815 29.754C76.4038 29.9576 76.8279 30.0254 77.0484 30.3986Z" fill="#116634"/>
<path d="M73.842 24.4954C74.2322 24.4275 74.4527 24.7329 74.7072 24.9364C78.6258 27.7354 82.8666 29.9237 87.4468 31.3656C90.1949 32.2307 93.0447 32.8584 95.9625 32.8244C96.2508 32.8244 96.624 32.7057 96.7089 33.1637C96.6919 33.2655 96.6749 33.3842 96.658 33.486C96.624 33.5539 96.5901 33.6387 96.5562 33.7065C96.2339 34.5208 95.9116 35.335 95.6062 36.1493C95.4366 36.6073 95.1313 36.4886 94.792 36.4207C92.0439 35.81 89.3806 34.894 86.7513 33.8762C83.3246 32.5361 80.0337 30.8906 76.8446 29.0755C75.6402 28.397 74.4867 27.6506 73.3162 26.9551C72.8412 26.6667 72.6037 26.3613 73.0448 25.8185C73.3671 25.3944 73.5706 24.9195 73.842 24.4954Z" fill="#1662AD"/>
<path d="M64.6141 12.8074C66.0391 16.4716 68.397 19.4232 71.2977 22.0356C71.7388 22.4257 72.4004 22.7481 72.5021 23.4775C72.2986 23.8168 72.095 24.156 71.8915 24.4953C71.2468 25.581 71.4334 25.581 70.3308 24.7837C67.1586 22.4597 64.19 19.9321 61.7473 16.8108C61.3911 16.3528 61.0688 15.8439 60.7295 15.3689C60.8991 15.1993 61.0857 15.0297 61.2554 14.877C61.5437 15.0297 61.1705 15.2841 61.4589 15.4537C61.7982 15.1993 62.0696 14.7073 62.6294 14.8261C62.6464 14.9448 62.6464 15.0975 62.833 15.0805C62.8499 15.0805 62.8839 15.0466 62.8839 15.0297C62.9008 14.8431 62.7481 14.8431 62.6294 14.8261C63.0705 14.3511 63.3758 13.7744 63.6981 13.2146C63.8847 12.8414 64.207 12.7226 64.6141 12.8074Z" fill="#E76924"/>
<path d="M64.6142 12.8074C64.2071 12.7226 63.8848 12.8414 63.6812 13.2146C63.3589 13.7744 63.0535 14.3511 62.6125 14.8261C62.0527 14.7074 61.7813 15.1993 61.442 15.4538C61.1536 15.2841 61.5099 15.0466 61.2384 14.877C61.0688 15.0297 60.8992 15.1993 60.7126 15.3689C59.9662 14.419 59.5082 13.3333 59.135 12.2137C59.0162 11.8405 59.0332 11.5182 59.2707 11.1789C60.4751 9.38081 61.9679 7.8541 63.6812 6.54791C63.8678 6.4122 64.0714 6.31042 64.3089 6.34434C63.6812 8.51568 63.8339 10.67 64.6142 12.8074Z" fill="#C95027"/>
<path d="M97.8457 18.0492C98.2698 18.1001 98.6769 18.1679 98.8974 18.626C98.9314 18.7108 99.101 18.8465 99.118 18.8295C99.7795 18.3885 100.051 19.1009 100.475 19.3045C100.984 19.542 101.527 19.7116 101.951 20.1696C102.477 20.7294 102.833 21.866 102.545 22.6124C102.137 23.6811 101.238 24.3087 100.255 24.1391C99.8304 24.0712 99.9322 24.3087 99.9322 24.4953C99.9153 25.2926 99.9322 26.1069 99.7965 26.9211C99.4742 25.7846 99.7795 24.5632 99.2876 23.4775C99.1349 21.5776 98.5412 19.7964 97.8457 18.0492Z" fill="#E01F28"/>
<path d="M72.2816 3.64717C72.2307 3.63021 72.1798 3.59628 72.1289 3.57931C72.6378 3.32486 73.1976 3.25701 73.7574 3.27397C74.2663 3.29093 73.8761 3.08737 73.8253 2.96863C76.1323 3.05345 78.3376 3.47753 80.441 4.49534C81.6454 5.0721 82.6972 5.78457 83.6132 6.73453C82.6632 6.36133 81.9338 5.66583 81.0517 5.15692C79.525 4.25786 77.8795 3.88466 76.1832 3.66413C74.894 3.4945 73.5878 3.52842 72.2816 3.64717Z" fill="#262624"/>
<path d="M55.9968 27.6846C56.6753 28.8211 57.3369 29.9746 58.0154 31.1112C57.8458 31.1112 57.6762 31.1112 57.5065 31.1112C57.0485 30.9246 57.0146 30.4157 56.7601 30.0934C56.5735 29.8559 56.6584 29.3979 56.1834 29.4148C56.1495 28.8211 55.7423 28.2953 55.9968 27.6846Z" fill="#262624"/>
<path d="M70.7207 3.25703C71.5859 2.71419 72.5358 3.00257 73.4519 2.96865C72.5698 3.27399 71.6537 3.32488 70.7207 3.25703Z" fill="#262624"/>
<path d="M58.0322 31.1111C58.1849 31.162 58.2697 31.2977 58.3206 31.4504C58.134 31.4164 58.0322 31.2977 58.0322 31.1111Z" fill="#262624"/>
<path d="M58.3545 31.5012C58.4223 31.586 58.4902 31.6709 58.5581 31.7557C58.4902 31.6709 58.4223 31.586 58.3545 31.5012Z" fill="#262624"/>
<path d="M77.5235 30.5853C77.3878 30.5853 77.269 30.5514 77.2012 30.4156C77.3369 30.4156 77.4726 30.4496 77.5235 30.5853Z" fill="#116634"/>
<path d="M96.5732 33.6726C96.6072 33.6047 96.6411 33.5199 96.675 33.452C96.6411 33.5368 96.6072 33.6047 96.5732 33.6726Z" fill="#0E4882"/>
<path d="M57.6928 31.4165C57.642 31.3656 57.608 31.3147 57.5571 31.2638C57.608 31.3147 57.642 31.3656 57.6928 31.4165Z" fill="#262624"/>
<path d="M89.2279 12.0611C88.7021 11.5182 87.8708 11.4334 87.4128 10.8058C87.7521 10.229 87.2601 9.66921 87.3789 9.09245C87.4637 8.37998 87.0227 7.73537 87.0396 7.0229C87.0566 6.87023 87.0227 6.75148 86.887 6.66667C86.87 6.56489 86.87 6.46311 86.853 6.34436C87.6334 6.68363 88.5494 6.53096 89.2788 7.07379C89.7029 7.3961 90.127 7.53181 90.2288 6.6497C90.6529 7.59966 91.8573 7.68448 92.1287 8.68533C91.2635 9.55047 90.2288 10.2799 89.6181 11.3825C89.4484 11.5861 89.194 11.7557 89.2279 12.0611Z" fill="#0D8041"/>
<path d="M87.023 7.02293C87.006 7.73539 87.4471 8.36305 87.3623 9.09248C86.8534 8.09163 86.7177 6.97204 86.2597 5.95423C85.4793 4.22395 84.5463 2.62937 82.8839 1.57764C82.7143 1.45889 82.5955 1.25533 82.4429 1.08569C84.3258 1.7812 85.4454 3.20613 86.1579 5.00427C86.3445 5.47925 86.5311 5.93726 86.8364 6.34439C86.8534 6.44617 86.8534 6.54795 86.8703 6.66669C86.8703 6.81936 86.9043 6.93811 87.023 7.02293Z" fill="#262624"/>
<path d="M48.7021 38.8974C50.1779 39.1858 51.6537 39.3046 53.1465 39.2367C54.3509 39.1858 55.4535 38.8126 56.4883 38.2189C56.8445 38.0153 57.1329 37.7439 57.2008 37.3198C57.5231 38.643 57.8454 39.9492 58.1677 41.2723C57.1499 41.1875 56.183 41.5777 55.1821 41.6625C53.0956 41.8152 51.06 41.4929 49.0413 41.1027C49.0244 40.8822 49.0922 40.6277 48.9056 40.475C48.3119 40.0001 48.5155 39.4572 48.7021 38.8974Z" fill="#E0E1E2"/>
<path d="M62.6123 47.0398C63.1721 46.8363 63.0194 46.3952 62.8328 46.0899C62.5614 45.6827 62.5953 45.3265 62.748 44.6989C63.0194 45.564 63.4605 46.1407 63.2569 46.8871C63.206 47.0737 63.1551 47.2773 62.9177 47.3282C62.6971 47.3791 62.6462 47.2094 62.6123 47.0398Z" fill="#B52227"/>
<path d="M93.9102 13.7914C94.4191 13.7914 94.7922 14.0119 95.0128 14.4869C94.5208 14.453 94.2664 14.0458 93.9102 13.7914Z" fill="#1B1C17"/>
<path d="M62.6123 14.8092C62.7311 14.8262 62.8837 14.8262 62.8668 15.0128C62.8668 15.0297 62.8328 15.0637 62.8159 15.0637C62.6293 15.0806 62.6462 14.928 62.6123 14.8092Z" fill="#C95027"/>
<path d="M87.0228 7.02286C86.8871 6.93804 86.8701 6.8193 86.8701 6.66663C87.0058 6.75144 87.0398 6.87019 87.0228 7.02286Z" fill="#116634"/>
<path d="M47.7017 26.8533C50.2292 27.8372 52.4854 29.2112 54.2496 31.2977C55.471 32.7396 55.7254 34.9449 54.8263 36.0305C54.1817 36.8109 53.3166 37.235 52.4345 37.3028C50.7381 37.4385 48.9909 37.6082 47.3624 36.8618C47.7186 36.1832 47.3793 35.5047 47.3624 34.8261C47.9731 34.8261 48.5668 35.0127 49.1944 35.0127C50.1614 35.0127 51.0265 34.8431 51.4506 33.8931C51.9086 32.8923 51.4336 32.0102 50.806 31.2638C49.8391 30.0933 48.5329 29.3639 47.1758 28.7193C47.6168 28.1595 47.3963 27.43 47.7017 26.8533Z" fill="#E0E1E2"/>
<path d="M47.3619 34.8261C47.3619 35.5046 47.7182 36.1832 47.3619 36.8617C46.0218 36.6751 44.8344 36.0814 43.6978 35.4198C42.5952 34.7752 41.5435 34.0458 40.7971 32.9432C40.2712 32.1628 40.1016 31.3147 40.2882 30.4495C40.5256 29.279 42.205 28.7701 43.1719 29.5165C43.7148 29.9406 44.2407 30.4156 44.7835 30.8736C43.5621 31.9084 43.7487 33.1976 45.1736 33.8253C45.8691 34.1476 46.6155 34.5038 47.3619 34.8261Z" fill="#EAEBEC"/>
<path d="M40.5596 37.5403C40.9497 36.9805 40.7801 36.2002 41.2381 35.6573C42.0863 36.1154 42.9514 36.5903 43.7996 37.0484C45.3433 37.8965 47.0227 38.3885 48.7021 38.8804C48.5155 39.4402 48.2949 39.983 48.9056 40.458C49.1092 40.6107 49.0244 40.8651 49.0413 41.0857C46.0727 40.4411 43.3585 39.1688 40.6953 37.7269C40.6444 37.7099 40.6105 37.6082 40.5596 37.5403Z" fill="#EAEBEC"/>
<path d="M47.7014 26.8533C47.396 27.447 47.6166 28.1765 47.1925 28.7193C45.0381 27.6676 42.765 27.3961 40.4071 27.5318C39.8812 26.8194 40.1017 25.9034 39.7285 25.157C42.0864 24.9534 44.3087 25.581 46.5479 26.2257C46.938 26.3444 47.3112 26.6328 47.7014 26.8533Z" fill="#EAEBEC"/>
<g clip-path="url(#clip1)">
<path d="M113.859 77.0737C113.859 74.2392 113.859 71.3914 113.859 68.557C113.859 67.6388 113.873 67.6388 114.764 67.6388C117.426 67.6521 120.087 67.5989 122.749 67.6654C124.692 67.7053 126.328 68.4106 127.207 70.3135C128.165 72.4161 127.699 74.4388 125.916 75.9026C125.716 76.0623 125.397 76.2087 125.45 76.4881C125.503 76.7543 125.863 76.6744 126.076 76.7676C127.366 77.393 128.258 78.2979 128.458 79.8017C128.764 82.1171 128.218 84.06 126.222 85.444C125.171 86.1759 123.973 86.4819 122.722 86.4953C119.928 86.5352 117.133 86.5086 114.338 86.5352C113.846 86.5352 113.873 86.2823 113.873 85.9496C113.873 83.022 113.873 80.0545 113.859 77.0737ZM116.574 80.9461C116.561 81.6115 116.561 82.2768 116.561 82.9422C116.574 84.2064 116.574 84.2064 117.798 84.1931C119.435 84.1798 121.072 84.1931 122.722 84.1665C124.039 84.1532 125.117 83.541 125.623 82.3966C126.608 80.1477 125.344 78.2846 123.214 77.912C121.125 77.5394 119.009 77.8056 116.907 77.7257C116.521 77.7124 116.561 77.9653 116.561 78.2181C116.574 79.123 116.574 80.0412 116.574 80.9461ZM119.648 69.8611C118.717 69.8611 117.878 69.8877 117.04 69.8478C116.614 69.8345 116.521 69.9809 116.534 70.3801C116.561 71.7241 116.561 73.0815 116.574 74.4255C116.587 75.5966 116.601 75.5966 117.758 75.5832C119.409 75.5433 121.072 75.6498 122.722 75.3836C124.119 75.1574 124.838 74.3856 124.931 73.0016C125.038 71.5378 124.425 70.6196 123.095 70.1672C121.95 69.7546 120.753 69.9542 119.648 69.8611Z" fill="#040404"/>
<path d="M92.3414 77.4862C92.368 74.8114 92.7805 72.5625 94.1778 70.6196C96.2404 67.7586 99.1681 66.8137 102.535 67.0666C105.25 67.2662 107.512 68.4106 109.042 70.7527C111.012 73.7868 111.291 77.1003 110.346 80.507C109.694 82.889 108.363 84.8452 106.128 86.0295C104.864 86.7082 103.466 86.961 102.029 86.9743C100.286 86.9876 98.5692 86.8146 97.0123 85.9896C94.8831 84.8718 93.5391 83.0886 92.8737 80.7997C92.5277 79.642 92.2616 78.4177 92.3414 77.4862ZM101.603 84.6056C104.118 84.6056 105.875 83.6209 107.033 81.5849C108.23 79.4823 108.457 77.2201 107.911 74.9046C107.432 72.8686 106.474 71.1519 104.504 70.1006C101.484 68.4905 97.4115 69.7413 95.961 72.8419C94.923 75.0377 94.8698 77.3265 95.4021 79.6553C96.0941 82.716 98.4761 84.6189 101.603 84.6056Z" fill="#040404"/>
<path d="M55.4137 77.0869C55.4003 80.0944 54.5354 82.7691 52.3264 84.885C51.1686 86.0028 49.7447 86.6682 48.1478 86.8678C45.9255 87.1605 43.7165 87.0807 41.6672 86.056C39.2053 84.8185 37.8347 82.7159 37.2358 80.0944C36.6503 77.526 36.7967 74.971 37.7415 72.5225C38.8993 69.5416 41.1216 67.7984 44.2488 67.2129C47.3095 66.6273 50.104 67.2661 52.4062 69.3287C54.2293 70.9655 55.0943 73.1879 55.3205 75.6231C55.3737 76.1022 55.387 76.5945 55.4137 77.0869ZM39.6844 76.9538C39.6844 77.3264 39.6578 77.7123 39.6844 78.0849C39.8707 80.4403 40.7224 82.4897 42.7983 83.7272C45.7259 85.4838 50.5432 85.1245 52.2199 80.2274C53.0449 77.8188 52.872 75.3969 51.7941 72.9882C50.1306 69.3154 45.1537 68.0778 41.8269 71.0986C40.0969 72.6689 39.6445 74.7448 39.6844 76.9538Z" fill="#040404"/>
<path d="M140.248 86.9877C138.145 86.9743 136.176 86.6017 134.499 85.3509C132.556 83.887 131.465 81.8909 131.052 79.5089C130.68 77.3531 130.746 75.224 131.452 73.148C132.49 70.0873 134.579 68.0247 137.719 67.346C141.006 66.6407 144.16 67.1597 146.635 69.6748C148.578 71.6576 149.283 74.1993 149.283 76.9007C149.283 79.9348 148.578 82.7293 146.209 84.8851C144.812 86.1493 143.162 86.788 141.312 86.9344C140.953 86.9743 140.567 86.9743 140.248 86.9877ZM140.101 84.5923C142.377 84.6589 144.16 83.7673 145.424 81.851C146.981 79.4823 147.221 74.2658 144.825 71.6177C143.481 70.1273 141.751 69.3155 139.822 69.4752C136.562 69.7547 134.872 71.3116 133.887 74.3856C133.421 75.8361 133.421 77.3531 133.701 78.8569C134.286 81.9841 136.362 84.7254 140.101 84.5923Z" fill="#040404"/>
<path d="M76.1066 76.9672C76.1066 73.9997 76.1066 71.0321 76.0933 68.0513C76.0933 67.692 76.1731 67.5323 76.559 67.5456C77.3042 67.5855 78.2624 67.3061 78.7547 67.6654C79.2205 68.0247 78.8745 69.036 78.8878 69.7546C78.9144 71.7773 78.9011 73.7867 78.9144 75.8095C78.9144 75.9958 78.8346 76.2752 79.0342 76.3551C79.3003 76.4615 79.3802 76.1554 79.5266 75.9958C81.323 74.1727 83.1328 72.3496 84.9426 70.5265C85.7677 69.7014 86.6327 68.903 87.4444 68.0513C87.8303 67.6521 88.2163 67.4658 88.7885 67.519C89.5204 67.5855 90.2523 67.5456 90.9842 67.5589C91.1306 67.5589 91.3302 67.4791 91.41 67.6388C91.5165 67.8384 91.3169 67.9581 91.1971 68.0646C90.2523 68.9562 89.2941 69.8478 88.3493 70.7527C86.9787 72.0701 85.6213 73.4008 84.2507 74.705C83.8647 75.0642 83.7849 75.3304 84.1309 75.8095C86.4198 78.9234 88.6953 82.0639 90.9576 85.2044C91.237 85.5903 91.8092 86.0561 91.6096 86.4287C91.41 86.8146 90.7313 86.5219 90.2656 86.5219C88.3759 86.5219 88.3759 86.5085 87.2847 84.9516C85.6746 82.6627 84.0644 80.3872 82.4808 78.0983C81.8021 77.1136 81.8154 77.1003 80.9504 77.9253C80.3649 78.4709 79.8592 79.0831 79.2072 79.5488C78.9144 79.7617 78.941 80.0944 78.941 80.4005C78.941 82.2901 78.9277 84.1665 78.941 86.0561C78.941 86.4686 78.8745 86.6549 78.3954 86.5751C77.8898 86.4952 77.3708 86.4819 76.8651 86.5219C76.3195 86.5751 76.1864 86.3755 76.1864 85.8698C76.1997 82.9023 76.1997 79.9214 76.1997 76.9539C76.1332 76.9672 76.1199 76.9672 76.1066 76.9672Z" fill="#040404"/>
<path d="M36.038 67.6121C35.9715 67.9714 35.7719 68.1178 35.5989 68.2908C33.3233 70.3934 31.101 72.5358 28.892 74.7182C28.4396 75.1707 28.4129 75.4901 28.7855 75.9958C30.6885 78.5508 32.5515 81.1324 34.4278 83.7007C34.9734 84.4459 35.5057 85.2177 36.038 85.9762C36.1312 86.1226 36.2776 86.269 36.1977 86.4553C36.1046 86.6815 35.8917 86.5618 35.732 86.5618C35.0267 86.5618 34.3081 86.5352 33.6028 86.5485C33.1637 86.5485 32.8576 86.4021 32.6047 86.0295C30.7683 83.4212 28.9319 80.813 27.0689 78.2314C26.8427 77.912 26.8693 77.2866 26.3769 77.3132C25.9777 77.3265 25.7515 77.8322 25.4188 78.085C25.2857 78.1915 25.1526 78.3112 25.0063 78.4177C23.955 79.2294 23.3429 80.1743 23.5025 81.6248C23.6622 83.0886 23.5158 84.5923 23.5558 86.0827C23.5691 86.5352 23.4094 86.6017 23.0235 86.5751C22.4646 86.5352 21.919 86.5085 21.3601 86.5485C20.9076 86.5751 20.8012 86.4154 20.8012 85.9896C20.8145 82.7958 20.8012 79.602 20.8012 76.4083C20.8012 73.6404 20.7878 70.8591 20.7612 68.0912C20.7612 67.7452 20.8278 67.6121 21.1871 67.6254C21.7593 67.6521 22.3448 67.6787 22.917 67.6521C23.4094 67.6254 23.5425 67.7452 23.5292 68.2775C23.5025 70.7394 23.5292 73.2012 23.5425 75.6631C23.5425 75.8893 23.4227 76.222 23.6888 76.3284C23.9949 76.4482 24.1147 76.0756 24.2877 75.9026C26.0309 74.146 27.7742 72.3895 29.5174 70.6329C30.4223 69.728 31.3405 68.8364 32.2588 67.9315C32.4318 67.7585 32.5914 67.5456 32.8576 67.5722C33.8956 67.6521 34.9335 67.6121 36.038 67.6121Z" fill="#040404"/>
<path d="M72.4871 77.0737C72.4871 80.0412 72.4737 83.0221 72.5004 85.9896C72.5004 86.442 72.3939 86.6284 71.9148 86.5751C71.4092 86.5219 70.8902 86.5086 70.3845 86.5618C69.8256 86.615 69.7324 86.4021 69.7324 85.8964C69.7457 80.8397 69.7324 75.7829 69.7457 70.7261C69.7457 70.1406 69.626 69.941 68.9739 69.9543C67.0444 69.9942 65.1148 69.9809 63.1852 69.9277C62.6662 69.9143 62.5066 70.0341 62.5066 70.5797C62.5332 73.5339 62.5598 76.4749 62.5199 79.4291C62.4932 81.2921 62.3203 83.1418 61.4819 84.8718C60.7899 86.2957 59.6322 86.961 58.0752 86.9211C56.3186 86.8812 56.292 86.828 56.3053 85.0581C56.3053 84.6589 56.3852 84.5258 56.8243 84.5524C58.6341 84.6456 59.366 83.9802 59.6056 82.1704C60.0181 79.2162 59.8185 76.2353 59.8717 73.2678C59.8983 71.5778 59.885 69.901 59.8584 68.211C59.8451 67.7319 60.0048 67.6255 60.4572 67.6255C64.2764 67.6388 68.0823 67.6521 71.9015 67.6255C72.4205 67.6255 72.5137 67.7586 72.5137 68.2509C72.4871 71.1785 72.5004 74.1328 72.4871 77.0737Z" fill="#040404"/>
<path d="M1.01353 77.1269C1.08007 74.665 1.49259 72.2697 3.02294 70.2603C4.55328 68.2642 6.70907 67.3194 9.19754 67.1331C11.0073 67 12.7107 67.346 14.3209 68.2243C16.1173 69.209 17.1154 70.7393 17.6477 72.6556C17.7941 73.1879 17.661 73.4673 17.0622 73.4141C16.9025 73.4008 16.7428 73.3875 16.5964 73.4141C15.5984 73.6004 15.106 73.2145 14.7334 72.2165C14.2543 70.9256 13.1498 70.1272 11.8058 69.7413C9.30399 68.9961 7.14821 69.7014 5.39164 71.5112C4.39359 72.5358 4.11414 73.9464 3.90122 75.3437C3.56854 77.5394 3.80807 79.6686 4.72627 81.7046C5.55133 83.5277 7.04175 84.406 9.01123 84.5656C10.4085 84.6721 11.7658 84.579 12.9369 83.7007C14.2011 82.7559 14.8798 81.4384 15.2524 79.948C15.3588 79.5355 15.5185 79.4689 15.8645 79.4956C16.3569 79.5355 16.8359 79.5621 17.3283 79.5488C17.7675 79.5488 17.8207 79.7351 17.7808 80.121C17.3948 83.7273 14.3608 86.6549 10.7412 86.921C9.22415 87.0275 7.74704 86.9477 6.29654 86.4021C3.78145 85.4572 2.35757 83.5676 1.59905 81.1057C1.19983 79.8282 0.946994 78.4975 1.01353 77.1269Z" fill="#040404"/>
<path d="M62.0407 94.107C62.0407 94.6659 62.0407 95.2115 62.0407 95.7704C62.0407 96.0099 61.9476 96.143 61.6947 96.1563C61.4286 96.1696 61.3354 96.0365 61.3354 95.797C61.3354 95.5575 61.3354 95.3046 61.3088 95.0651C61.2955 94.8256 61.3221 94.5062 61.016 94.4796C60.71 94.453 60.3906 94.5062 60.2309 94.8389C60.1378 95.0385 60.0313 95.2248 59.9248 95.4244C59.6454 95.9966 59.2063 96.0099 58.6074 96.1031C57.809 96.2361 57.0505 95.5841 56.2387 96.143C55.7996 96.4491 55.1875 96.2095 54.7749 95.8103C54.4156 95.4643 54.4023 94.9853 54.5886 94.5727C54.7882 94.107 55.081 93.6944 55.7064 93.7344C56.0524 93.7477 56.4117 93.6545 56.7577 93.6013C56.9573 93.5747 57.1835 93.5614 57.1569 93.2819C57.1303 93.069 57.0904 92.8428 56.8109 92.7762C56.252 92.6299 55.773 92.7629 55.3338 93.1355C55.1875 93.2553 55.0145 93.4815 54.8282 93.3485C54.6552 93.2154 54.8282 92.9892 54.8814 92.8029C55.0677 92.071 55.6399 92.031 56.2387 92.0177C57.5828 92.0044 57.8489 92.2439 57.8622 93.588C57.8755 94.2134 57.8888 94.8256 58.0884 95.4244C58.2481 95.9168 58.674 96.0099 58.9667 95.5708C59.2595 95.1316 59.5522 94.7058 59.0998 94.107C58.3679 93.1488 58.8337 92.2173 60.0047 92.1375C62.0939 91.9645 62.0939 91.9645 62.0407 94.107ZM55.906 95.4111C56.292 95.3579 56.6779 95.3312 56.9706 95.0518C57.1436 94.8921 57.3432 94.6792 57.2235 94.4263C57.117 94.2134 56.8642 94.3199 56.6779 94.3465C56.3984 94.3864 56.1057 94.4397 55.8262 94.4796C55.4935 94.5328 55.2673 94.6925 55.3072 95.0385C55.3471 95.3978 55.6532 95.3845 55.906 95.4111ZM60.6035 92.7363C60.364 92.7629 60.1245 92.7895 59.8849 92.8029C59.6986 92.8162 59.6055 92.9093 59.6055 93.0956C59.6055 93.3618 59.6321 93.6811 59.9515 93.7078C60.4039 93.7477 60.8963 93.9207 61.3221 93.588C61.3487 93.5747 61.3354 93.5081 61.3487 93.4682C61.4685 92.7762 61.3487 92.6565 60.6035 92.7363Z" fill="#131213"/>
<path d="M25.4058 92.59C24.7271 93.4417 24.7005 94.5062 24.3013 95.4377C24.1549 95.7704 24.0618 96.1031 23.6093 96.1031C23.1302 96.1031 23.0504 95.7438 22.9439 95.4111C22.7177 94.6925 22.4915 93.9739 22.2653 93.2687C22.1987 93.069 22.2253 92.7231 21.9459 92.7763C21.6797 92.8162 21.7995 93.1489 21.7995 93.3485C21.7862 94.1203 21.7995 94.9055 21.8261 95.6773C21.8394 96.0233 21.733 96.1563 21.387 96.1697C20.9745 96.183 21.0676 95.9035 21.0676 95.6773C21.0809 94.1736 21.0942 92.6698 21.1208 91.1661C21.1208 90.9399 20.9878 90.5939 21.387 90.514C21.7862 90.4342 22.1056 90.5939 22.2387 90.9798C22.558 91.8448 22.8375 92.7364 23.1435 93.6146C23.2766 94.0006 23.2101 94.6526 23.6492 94.6659C24.0884 94.6792 24.0218 94.0139 24.1416 93.6546C24.4211 92.8162 24.6739 91.9645 24.9134 91.1129C25.0598 90.5806 25.4457 90.514 25.8982 90.554C26.3772 90.6072 26.2442 91.0197 26.2708 91.2859C26.3905 92.7896 26.1111 94.2933 26.2708 95.797C26.2974 96.0898 26.1377 96.1697 25.8582 96.1563C25.5256 96.143 25.3259 96.0499 25.3393 95.6507C25.3659 94.7458 25.3659 93.8276 25.3792 92.9227C25.4058 92.8029 25.4058 92.6964 25.4058 92.59Z" fill="#131213"/>
<path d="M111.278 92.6964C111.012 92.9094 111.091 93.2154 111.065 93.4949C111.025 94.1336 111.052 94.7857 110.958 95.4111C110.852 96.1697 110.067 96.4225 109.508 95.8902C109.295 95.6906 109.109 95.7571 108.909 95.8104C108.111 96.01 107.299 96.0765 106.474 96.0898C106.061 96.0898 105.902 95.9301 105.902 95.5575C105.888 94.5196 105.888 93.4816 105.875 92.4436C105.875 92.1775 105.995 92.0976 106.234 92.0843C106.926 92.0444 107.605 92.0311 108.284 92.1508C108.922 92.2573 109.069 92.7763 108.949 93.2554C108.776 94.0139 109.255 94.6127 109.268 95.3047C109.268 95.5575 109.468 95.6108 109.694 95.5575C110.107 95.4644 110.266 95.1583 110.28 94.7724C110.293 94.0671 110.333 93.3485 110.28 92.6565C110.24 92.0843 110.439 91.9379 110.958 92.0976C110.972 92.3505 110.892 92.6432 111.278 92.6964ZM107.578 94.453C107.299 94.453 107.099 94.4663 106.9 94.453C106.66 94.4264 106.5 94.5062 106.5 94.7591C106.5 94.9986 106.487 95.2781 106.82 95.318C107.033 95.3579 107.259 95.3712 107.472 95.3313C107.858 95.2648 108.47 95.491 108.457 94.8123C108.43 94.0804 107.805 94.5728 107.578 94.453ZM107.206 93.6679C107.419 93.6413 107.645 93.628 107.858 93.588C108.057 93.5481 108.337 93.5747 108.324 93.2554C108.31 92.9759 108.124 92.8162 107.844 92.8029C107.498 92.7896 107.139 92.8029 106.793 92.8029C106.594 92.8029 106.527 92.9094 106.487 93.0691C106.381 93.5481 106.58 93.7211 107.206 93.6679Z" fill="#131213"/>
<path d="M65.8598 92.2707C65.8598 93.109 65.8997 93.9607 65.8598 94.799C65.8332 95.2781 66.0461 95.3846 66.4453 95.3446C66.7913 95.318 67.2437 95.491 67.2304 94.8523C67.2038 94.0805 67.257 93.2953 67.2304 92.5235C67.2171 92.1509 67.3635 92.071 67.6962 92.0844C68.0422 92.0977 68.1353 92.2041 68.1087 92.5634C68.0555 93.2953 68.0954 94.0272 68.0555 94.7591C68.0422 95.2249 68.2551 95.318 68.6676 95.3047C69.7056 95.2515 69.7056 95.2515 69.6923 94.1869C69.6923 93.6147 69.679 93.0292 69.6524 92.457C69.6391 92.1243 69.7854 92.0444 70.0782 92.0311C70.3976 92.0311 70.4242 92.1908 70.4242 92.4437C70.4109 93.4683 70.3976 94.4797 70.4109 95.5043C70.4109 95.8769 70.3044 96.01 69.9318 96.01C68.3083 95.9967 66.6981 95.9967 65.0746 95.9967C65.0214 95.9568 64.9815 95.9036 64.9283 95.8636C64.9016 94.7325 64.8351 93.6147 64.8484 92.4836C64.8617 91.7517 65.4206 92.2174 65.74 92.1509C65.7666 92.1908 65.8065 92.2307 65.8598 92.2707Z" fill="#040404"/>
<path d="M98.8089 96.2362C98.1835 96.0233 98.0637 96.3826 98.1568 96.9947C98.1968 97.2343 98.3565 97.6335 97.8907 97.6601C97.3983 97.6867 97.5048 97.2609 97.4915 96.9814C97.4649 95.4777 97.4516 93.974 97.4383 92.4702C97.4383 92.3105 97.3983 92.1509 97.6246 92.1242C98.4762 92.0045 99.3146 92.0045 100.166 92.1242C100.219 92.1376 100.286 92.1908 100.339 92.2307C101.43 93.0824 101.191 95.4644 99.9533 96.1031C99.6073 96.2761 99.248 96.2495 98.8089 96.2362ZM100.193 94.3333C100.206 93.2554 99.8069 92.7364 98.9819 92.7497C98.4895 92.7497 98.077 93.3485 98.0637 94.0671C98.0504 94.8389 98.5162 95.3712 99.1948 95.3712C99.8602 95.3712 100.18 95.0385 100.193 94.3333Z" fill="#131213"/>
<path d="M42.998 93.9739C42.998 93.4816 42.998 93.0025 42.998 92.5101C42.998 92.2839 43.038 92.1375 43.3174 92.1242C44.0094 92.0976 44.6881 92.0178 45.3668 92.1641C46.1785 92.3238 46.5245 92.9759 46.1253 93.7078C45.9656 94.0006 45.9922 94.1469 46.1918 94.3732C46.6842 94.9321 46.4979 95.664 45.7926 95.8902C44.9942 96.143 44.1824 96.1297 43.3573 96.0366C43.038 96.01 43.0247 95.797 43.0114 95.5708C42.998 95.0385 43.0114 94.5062 43.0114 93.9739C43.0114 93.9739 43.0114 93.9739 42.998 93.9739ZM44.555 94.4264C44.5683 94.4264 44.3953 94.4397 44.209 94.4397C43.9029 94.4397 43.7033 94.5328 43.73 94.9055C43.7433 95.2648 43.9562 95.3446 44.2622 95.3446C44.6082 95.3446 44.9675 95.3579 45.3135 95.2381C45.5131 95.1716 45.6994 95.1184 45.6595 94.8389C45.6196 94.626 45.4865 94.4663 45.2736 94.4264C45.1006 94.3998 44.9143 94.4264 44.555 94.4264ZM44.4619 93.7078C44.7147 93.4683 45.3934 93.9074 45.42 93.282C45.4333 92.5501 44.7679 92.8428 44.3554 92.7896C43.9828 92.7497 43.7033 92.8295 43.7166 93.2953C43.73 93.8143 44.1292 93.6413 44.4619 93.7078Z" fill="#131213"/>
<path d="M86.3533 93.8675C86.3799 94.4663 86.2868 95.145 86.7925 95.7039C86.8989 95.8236 86.9389 96.0099 86.8191 96.1297C86.686 96.2628 86.4598 96.2761 86.3134 96.1829C85.7545 95.8369 85.2621 95.8636 84.6633 96.1696C84.0778 96.4757 83.2394 96.0232 83.093 95.491C82.8535 94.5861 83.1862 93.9473 84.0112 93.7477C84.4238 93.6545 84.8496 93.6279 85.2621 93.5614C85.4484 93.5348 85.7013 93.5614 85.7146 93.2819C85.7146 93.0158 85.5815 92.8295 85.2887 92.7763C84.7698 92.6964 84.2774 92.7097 83.8649 93.1089C83.7052 93.2686 83.479 93.4549 83.2927 93.3086C83.0797 93.1356 83.2527 92.8561 83.3193 92.6299C83.3592 92.5101 83.4656 92.4037 83.5721 92.3238C83.6919 92.2307 83.8382 92.1641 83.9846 92.1109C85.4883 91.5653 86.3666 92.1907 86.3533 93.8675ZM84.3306 95.4643C84.8363 95.4377 85.2222 95.3313 85.515 95.0252C85.648 94.8788 85.7412 94.6659 85.6747 94.4796C85.5815 94.2268 85.342 94.3332 85.1557 94.3598C84.8762 94.3864 84.5835 94.4131 84.304 94.4663C83.9846 94.5195 83.8649 94.7324 83.9048 95.0518C83.9181 95.3712 84.1044 95.5043 84.3306 95.4643Z" fill="#131213"/>
<path d="M103.267 91.9912C104.438 91.9912 104.81 92.3638 104.85 93.5348C104.877 94.2801 104.85 95.0386 105.183 95.7439C105.383 96.1697 105.103 96.2895 104.77 96.1431C104.225 95.9169 103.719 95.9701 103.174 96.1298C102.681 96.2761 102.042 96.3294 101.723 95.7838C101.39 95.2249 101.47 94.5861 101.843 94.0272C102.002 93.7744 102.282 93.7478 102.548 93.7211C102.947 93.6679 103.347 93.6413 103.732 93.5615C103.905 93.5348 104.172 93.5348 104.145 93.2421C104.118 93.0159 104.012 92.8429 103.746 92.7763C103.24 92.6699 102.788 92.7497 102.362 93.0292C102.189 93.1489 101.923 93.455 101.763 93.1889C101.603 92.9227 101.696 92.5235 102.016 92.3239C102.388 92.0843 102.814 91.9646 103.267 91.9912ZM102.881 95.4511C103.2 95.4644 103.48 95.3446 103.746 95.1983C104.025 95.0386 104.172 94.7591 104.105 94.493C104.012 94.1603 103.693 94.3732 103.48 94.3998C103.24 94.4264 103.001 94.4797 102.774 94.5196C102.482 94.5728 102.189 94.626 102.255 95.0386C102.309 95.3846 102.561 95.4644 102.881 95.4511Z" fill="#131213"/>
<path d="M115.922 91.9911C116.84 92.0044 117.279 92.3504 117.465 93.1355C117.625 93.8142 117.519 94.5062 117.412 95.1716C117.306 95.7438 116.84 96.0499 116.294 96.1696C115.602 96.316 114.964 96.1563 114.471 95.6373C113.633 94.759 113.779 93.0424 114.737 92.3105C115.11 92.031 115.549 91.9645 115.922 91.9911ZM116.028 94.4264C115.882 94.4264 115.656 94.3997 115.443 94.4397C115.243 94.4663 114.924 94.2534 114.857 94.6127C114.804 94.932 115.004 95.1849 115.283 95.2913C115.855 95.5176 116.401 95.4111 116.893 95.0252C117.066 94.8921 117.319 94.7324 117.266 94.5195C117.199 94.2267 116.893 94.3997 116.694 94.3864C116.494 94.3731 116.294 94.3997 116.028 94.4264ZM115.815 93.7211C115.922 93.7211 116.042 93.7344 116.148 93.7078C116.427 93.6412 116.893 93.8009 116.92 93.4549C116.946 93.0424 116.547 92.7896 116.108 92.7762C115.842 92.7629 115.576 92.7762 115.323 92.8428C115.03 92.9226 114.831 93.1888 114.844 93.4815C114.857 93.8675 115.203 93.6811 115.416 93.7211C115.549 93.7477 115.682 93.7211 115.815 93.7211Z" fill="#131213"/>
<path d="M90.891 94.7325C91.3035 94.0538 91.5829 93.4151 91.7027 92.7231C91.7426 92.4835 91.7559 92.1642 92.1152 92.1376C92.3149 92.1242 92.5411 92.0311 92.6875 92.1642C92.8738 92.3239 92.7008 92.5235 92.6475 92.7098C92.1685 94.2268 91.5297 95.664 90.9176 97.1145C90.718 97.5936 90.3054 97.6335 89.9062 97.7C89.7066 97.7399 89.4937 97.7 89.4272 97.4605C89.3606 97.1943 89.507 97.0613 89.7332 96.9548C90.6248 96.5024 90.6514 96.3427 90.2655 95.3978C89.8663 94.4397 89.6268 93.4284 89.1211 92.5102C89.0412 92.3638 89.0013 92.1775 89.2009 92.1242C89.5469 92.0444 89.9461 91.9646 90.1324 92.3904C90.3321 92.8561 90.4651 93.3485 90.6248 93.8276C90.6914 94.1203 90.7978 94.4264 90.891 94.7325Z" fill="#131213"/>
<path d="M123.241 94.8655C123.866 94.0671 124.319 93.3618 124.652 92.6033C124.891 92.0577 125.33 92.1242 125.769 92.1375C125.969 92.1375 125.996 92.3238 125.956 92.4835C125.663 93.5614 125.942 94.6393 125.916 95.7172C125.916 95.9567 125.969 96.143 125.623 96.1696C125.33 96.1962 125.171 96.1164 125.131 95.8103C125.037 95.278 125.117 94.7457 125.077 94.2268C125.064 94.0538 125.184 93.7876 124.904 93.7344C124.665 93.6945 124.585 93.934 124.505 94.1203C124.252 94.6526 123.96 95.1716 123.614 95.6506C123.347 96.0232 122.988 96.0765 122.629 96.0232C122.256 95.97 122.429 95.5841 122.416 95.3579C122.403 94.4131 122.416 93.4549 122.416 92.5101C122.416 92.2972 122.376 92.0843 122.695 92.1375C122.935 92.1774 123.254 92.0843 123.241 92.5234C123.228 93.2287 123.241 93.9473 123.241 94.8655Z" fill="#131213"/>
<path d="M78.369 94.2001C78.5154 95.451 77.3311 96.2494 76.5193 96.2228C75.4547 96.1962 74.643 95.2248 74.6696 93.9606C74.6962 92.8028 75.468 91.9512 76.506 91.9512C77.8101 91.9645 78.369 92.6298 78.369 94.2001ZM75.508 94.2001C75.5213 94.9852 75.9205 95.4111 76.5991 95.3978C77.2113 95.3712 77.6504 94.8788 77.6504 94.2001C77.6504 93.242 77.2379 92.6831 76.5592 92.6964C75.9205 92.7097 75.4946 93.3085 75.508 94.2001Z" fill="#131213"/>
<path d="M126.648 95.9701C126.701 95.8104 126.727 95.6374 126.807 95.491C127.073 94.9853 127.233 94.5994 126.794 93.9873C126.168 93.109 126.754 92.2041 127.832 92.1509C128.444 92.1243 129.216 91.7916 129.642 92.1509C130.068 92.5235 129.735 93.3219 129.761 93.9341C129.788 94.5595 129.748 95.1716 129.748 95.7971C129.748 96.0366 129.682 96.1697 129.415 96.183C129.149 96.1963 129.056 96.0632 129.056 95.8237C129.056 95.6241 129.056 95.4245 129.03 95.2249C129.003 94.9587 129.109 94.5994 128.67 94.5728C128.271 94.5462 127.965 94.7192 127.885 95.1317C127.765 95.7305 127.446 96.0765 126.794 96.0499C126.754 96.0366 126.727 96.01 126.648 95.9701ZM128.098 93.7877C128.684 93.7877 129.109 93.8276 129.083 93.1755C129.056 92.4703 128.577 92.8295 128.271 92.8029C128.098 92.7763 127.925 92.8162 127.739 92.8162C127.539 92.8295 127.34 92.8295 127.3 93.109C127.26 93.3885 127.353 93.6014 127.592 93.7078C127.819 93.7744 128.045 93.7744 128.098 93.7877Z" fill="#131213"/>
<path d="M27.0023 94.2134C26.9624 92.8029 27.5878 92.0044 28.7455 91.9778C30.023 91.9512 30.7283 92.6299 30.7683 93.8941C30.8082 95.2381 30.0364 96.1563 28.852 96.1829C27.7342 96.2095 27.0289 95.4643 27.0023 94.2134ZM27.8007 94.1203C27.7874 94.8655 28.1334 95.3179 28.7189 95.3313C29.3976 95.3446 29.9698 94.8256 29.9831 94.1735C29.9964 93.3751 29.4774 92.6831 28.8653 92.6964C28.2532 92.6964 27.814 93.2819 27.8007 94.1203Z" fill="#131213"/>
<path d="M82.3346 94.0272C82.3346 94.5861 82.3346 95.1317 82.3346 95.6906C82.3346 96.0099 82.1749 96.1297 81.8954 96.1297C81.576 96.1297 81.576 95.8902 81.5627 95.664C81.5494 94.8389 81.5228 94.0272 81.5361 93.2021C81.5361 92.7763 81.3498 92.6432 80.9639 92.6964C80.6046 92.7363 80.0989 92.5234 80.0856 93.1888C80.0723 93.761 80.0723 94.3332 80.0457 94.9187C80.0058 95.6906 79.4069 96.1031 78.9811 96.1563C78.7282 96.1829 78.5419 96.143 78.4488 95.8902C78.3689 95.6373 78.5686 95.5043 78.7416 95.4643C79.2339 95.3313 79.3138 94.972 79.3138 94.5461C79.3138 93.9074 79.3404 93.2686 79.3138 92.6166C79.3005 92.2573 79.3537 92.1109 79.7529 92.0843C80.4848 92.0444 81.2167 92.0577 81.9353 92.0976C82.268 92.1242 82.4011 92.2174 82.3745 92.5767C82.3346 93.0557 82.3612 93.5481 82.3612 94.0405C82.3745 94.0272 82.3479 94.0272 82.3346 94.0272Z" fill="#131213"/>
<path d="M42.346 94.0272C42.3594 95.3313 41.6008 96.2362 40.483 96.2362C39.4184 96.2362 38.5934 95.2781 38.5801 94.0272C38.5801 92.9094 39.3386 91.9645 40.2834 91.9911C41.7738 92.0311 42.2928 92.59 42.346 94.0272ZM39.485 94.0139C39.4317 94.8788 39.7112 95.3047 40.3766 95.3579C41.0552 95.4111 41.6008 94.9986 41.6408 94.3998C41.7073 93.4816 41.2948 92.7896 40.6427 92.7231C39.9108 92.6565 39.5382 93.0557 39.485 94.0139Z" fill="#131213"/>
<path d="M71.1829 94.067C71.1829 93.5614 71.2095 93.0424 71.1696 92.5367C71.1563 92.2306 71.1962 92.0842 71.5422 92.0842C71.835 92.0842 72.0745 92.0709 72.0745 92.4702C72.0745 92.7363 71.9814 93.1755 72.2342 93.242C72.5669 93.3218 72.8197 92.9492 72.9794 92.6831C73.2855 92.1641 73.7113 92.0177 74.2702 92.0842C74.3767 92.0976 74.5098 92.1375 74.5497 92.2173C74.6162 92.3504 74.5364 92.4702 74.4166 92.55C74.2569 92.6698 74.1106 92.8028 73.9376 92.9093C73.1258 93.4416 73.1258 93.4416 73.6182 94.2933C73.8976 94.7723 74.1904 95.2381 74.4565 95.7172C74.5098 95.8236 74.563 96.0099 74.5098 96.0898C74.4166 96.2361 74.217 96.1696 74.0839 96.1297C73.5916 95.9833 73.3653 95.5708 73.1391 95.1582C73.0327 94.9586 72.9395 94.759 72.8464 94.5594C72.7399 94.3598 72.5536 94.3864 72.3806 94.3997C72.1677 94.413 72.1544 94.586 72.1411 94.7324C72.1011 95.0651 72.0745 95.3978 72.0612 95.7305C72.0479 95.9966 71.9814 96.143 71.6753 96.1164C71.4092 96.0898 71.1962 96.0498 71.2095 95.7038C71.1962 95.1716 71.1829 94.6126 71.1829 94.067Z" fill="#131213"/>
<path d="M121.618 94.1336C121.618 94.6659 121.604 95.1982 121.618 95.7305C121.618 95.9967 121.551 96.1431 121.245 96.1564C120.952 96.1697 120.846 96.0233 120.833 95.7571C120.819 95.6241 120.819 95.491 120.819 95.3579C120.793 94.28 120.447 94.0405 119.395 94.3066C119.129 94.3732 119.116 94.5329 119.129 94.7458C119.156 95.0519 119.143 95.3712 119.169 95.6773C119.196 96.01 119.023 96.1164 118.743 96.1297C118.437 96.1431 118.304 95.9701 118.304 95.6773C118.304 94.5861 118.304 93.5082 118.304 92.417C118.304 92.0577 118.53 92.0311 118.797 92.071C119.023 92.0976 119.262 92.1242 119.169 92.4702C119.143 92.5767 119.143 92.6831 119.116 92.8029C119.009 93.4017 119.182 93.7477 119.874 93.6147C120.008 93.588 120.141 93.588 120.274 93.6147C120.793 93.7078 120.952 93.4949 120.859 93.0025C120.833 92.8561 120.859 92.6965 120.833 92.5368C120.793 92.2307 120.886 92.0843 121.232 92.0976C121.565 92.1109 121.631 92.244 121.618 92.5501C121.591 93.0691 121.604 93.6014 121.618 94.1336C121.604 94.1336 121.604 94.1336 121.618 94.1336Z" fill="#131213"/>
<path d="M50.5034 94.7058C50.1974 95.9035 49.0263 96.3559 48.2678 96.143C47.2298 95.8502 46.6842 94.932 46.8972 93.761C47.1633 92.3105 47.6823 91.898 49.1062 91.9911C49.9179 92.0443 50.2639 92.4036 50.2639 93.2154C50.2639 93.3485 50.2772 93.4948 50.1308 93.5614C49.9845 93.6279 49.8248 93.6279 49.7183 93.4815C49.6252 93.3618 49.5453 93.2287 49.4389 93.1089C48.9066 92.4968 48.2013 92.6166 47.8952 93.3751C47.7355 93.761 47.7222 94.1602 47.7887 94.5461C47.8952 95.2913 48.534 95.5442 49.1461 95.0917C49.5453 94.8123 49.9312 94.5195 50.5034 94.7058Z" fill="#131213"/>
<path d="M31.2077 94.1736C31.1944 92.59 32.0061 91.8182 33.4832 92.0045C34.0821 92.0843 34.641 92.7364 34.641 93.3485C34.641 93.628 34.4946 93.628 34.3083 93.6014C34.0954 93.5747 33.9756 93.4018 33.8425 93.2554C33.7095 93.109 33.6163 92.8961 33.4566 92.8162C33.0707 92.6166 32.6848 92.6698 32.3787 93.0291C31.9795 93.4949 31.9263 94.6659 32.2723 95.0918C32.565 95.4511 32.911 95.4112 33.2836 95.2249C33.6163 95.0652 33.8292 94.6926 34.2417 94.6793C34.4281 94.6793 34.6543 94.4796 34.7873 94.7059C34.8672 94.8522 34.7341 95.0386 34.641 95.1849C34.1353 95.9701 33.257 96.3693 32.5118 96.1564C31.5936 95.8902 31.2077 95.3047 31.2077 94.1736Z" fill="#131213"/>
<path d="M51.3018 92.0976C51.8208 92.0444 51.7143 92.417 51.7409 92.7231C51.7676 92.9493 51.6212 93.2687 51.9139 93.3618C52.1801 93.4417 52.3265 93.1489 52.4862 92.9759C52.8189 92.6166 52.9519 92.0178 53.604 92.0843C53.777 92.0976 53.9899 92.0444 54.0697 92.2573C54.1363 92.4436 53.9633 92.5235 53.8568 92.6299C53.5375 92.9626 52.9253 93.0957 52.8721 93.5481C52.8189 94.0006 53.3245 94.32 53.5508 94.7192C53.7238 95.0253 53.8701 95.3446 54.0165 95.664C54.0698 95.7971 54.2028 95.9568 54.0564 96.0765C53.9234 96.183 53.7637 96.1165 53.6173 96.0632C53.3511 95.9701 53.1382 95.8503 53.0318 95.5709C52.9652 95.4112 52.8987 95.2382 52.7922 95.1051C52.5793 94.799 52.5394 94.2135 52.0204 94.32C51.5147 94.4264 51.8341 94.9587 51.7409 95.2781C51.701 95.4511 51.7143 95.6241 51.7143 95.8104C51.7143 96.0366 51.6079 96.1298 51.395 96.1298C51.182 96.1165 50.9824 96.1165 50.9691 95.837C50.9558 94.666 50.9425 93.4949 50.9292 92.3106C50.9292 92.0311 51.1421 92.1109 51.3018 92.0976Z" fill="#131213"/>
<path d="M36.065 93.4682C36.4775 93.2952 36.7304 93.0025 36.9566 92.6698C37.236 92.2573 37.6486 92.071 38.1542 92.0976C38.2607 92.1109 38.3805 92.1109 38.4337 92.2307C38.4736 92.3504 38.4071 92.4436 38.3272 92.5101C38.1143 92.6698 37.928 92.8827 37.7018 93.0025C37.1429 93.2952 37.1429 93.6545 37.4623 94.1336C37.7683 94.6127 38.0478 95.1183 38.3139 95.624C38.3805 95.7571 38.5402 95.9567 38.3672 96.1031C38.2208 96.2095 38.0345 96.0898 37.8748 96.0232C37.3558 95.797 37.1961 95.2913 36.9699 94.8389C36.8368 94.5727 36.757 94.2933 36.3711 94.3465C35.9319 94.3997 36.0517 94.759 35.9985 95.0119C35.9452 95.2647 35.9452 95.5442 35.9053 95.797C35.8787 96.0099 35.7989 96.1829 35.5327 96.1563C35.2799 96.1297 35.2932 95.9434 35.2799 95.7704C35.2666 94.8921 35.2666 94.0005 35.2533 93.1222C35.2533 92.9226 35.2399 92.723 35.2133 92.5234C35.1867 92.3371 35.0536 92.0843 35.3996 92.0976C35.6392 92.0976 35.9718 92.0444 35.9718 92.4702C35.9452 92.7896 35.9319 93.1222 36.065 93.4682Z" fill="#131213"/>
<path d="M93.2862 93.9873C93.2862 93.5615 93.3394 93.1356 93.2729 92.7231C93.193 92.2307 93.3394 92.0577 93.8318 92.071C94.5637 92.0977 95.2956 92.071 96.0275 92.0444C96.3469 92.0311 96.5065 92.1243 96.4932 92.4836C96.4799 93.5215 96.4799 94.5595 96.5066 95.5975C96.5066 95.9302 96.3735 96.0765 96.0408 96.0898C95.6682 96.1032 95.6682 95.8769 95.6682 95.6108C95.6682 94.8123 95.6549 94.0139 95.6815 93.2155C95.6948 92.8162 95.575 92.6433 95.1625 92.6832C94.9895 92.6965 94.8032 92.6965 94.6302 92.6832C94.2177 92.6566 94.0314 92.8029 94.0447 93.2554C94.058 94.0272 94.0181 94.799 94.0048 95.5842C94.0048 95.8769 94.0048 96.1165 93.6056 96.1165C93.233 96.1165 93.233 95.8636 93.233 95.6241C93.2197 95.0652 93.233 94.5196 93.233 93.9607C93.2596 93.9873 93.2729 93.9873 93.2862 93.9873Z" fill="#131213"/>
<path d="M111.278 92.6965C110.892 92.6433 110.972 92.3505 110.958 92.0977C111.65 91.9646 112.356 92.0844 113.048 92.111C113.354 92.1243 113.434 92.2574 113.341 92.5368C113.168 92.7098 113.168 92.8828 113.327 93.0558C113.327 93.9075 113.314 94.7724 113.314 95.6241C113.074 95.9036 112.888 95.4378 112.662 95.5842C112.529 94.9321 112.595 94.2801 112.609 93.628C112.622 92.7098 112.635 92.7098 111.677 92.6965C111.544 92.6965 111.411 92.6965 111.278 92.6965Z" fill="#040404"/>
<path d="M112.662 95.5975C112.888 95.4511 113.087 95.9168 113.314 95.6374C113.393 95.8902 113.46 96.1164 113.074 96.1431C112.648 96.1697 112.608 95.9168 112.662 95.5975Z" fill="#131213"/>
<path d="M113.327 93.069C113.167 92.896 113.167 92.723 113.34 92.55C113.394 92.723 113.407 92.896 113.327 93.069Z" fill="#131213"/>
<path d="M65.8601 92.2706C65.8202 92.2307 65.7803 92.1908 65.7271 92.1509C65.8202 92.1376 65.8734 92.1642 65.8601 92.2706Z" fill="#131213"/>
<path d="M64.9149 95.8636C64.9681 95.9036 65.0081 95.9568 65.0613 95.9967C64.9415 96.0233 64.8883 95.9834 64.9149 95.8636Z" fill="#131213"/>
</g>
</g>
<defs>
<clipPath id="clip0">
<rect width="149.296" height="100" fill="white"/>
</clipPath>
<clipPath id="clip1">
<rect width="148.297" height="30.7" fill="white" transform="translate(1 67)"/>
</clipPath>
</defs>
</svg>
