<svg width="203" height="50" viewBox="0 0 203 50" fill="none" xmlns="http://www.w3.org/2000/svg">
<g clip-path="url(#clip0)">
<path d="M34.8942 13.4895C36.3713 12.932 37.9042 13.0435 39.4092 13.0435C41.3602 13.0435 43.3111 13.0435 45.2621 13.0435C45.5408 13.0435 45.6244 13.1271 45.6244 13.4058C45.4293 16.2486 44.2587 18.4783 41.6389 19.7882C40.7749 20.2063 39.8551 20.3735 38.8239 20.485C39.66 20.6522 40.3847 20.9031 41.0814 21.2375C41.611 21.5162 42.1405 21.8507 42.6701 22.1572C44.3144 23.1606 45.9867 24.1361 47.6589 25.1115C47.9098 25.2509 48.1327 25.4181 48.3836 25.5296C48.5787 25.6132 48.5787 25.7526 48.4951 25.8919C47.9098 26.7559 47.2966 27.592 46.4048 28.2052C45.0391 29.1528 43.5619 29.6266 41.8897 29.4315C41.4438 29.3757 40.97 29.3479 40.5519 29.1806C40.1338 29.0134 39.6879 28.8462 39.242 28.679C39.5207 28.9577 39.7994 29.2085 40.0502 29.5151C40.5519 30.1004 40.9421 30.7971 41.3323 31.4939C42.0848 32.8596 42.8652 34.1974 43.6177 35.563C44.0636 36.3434 44.4817 37.1517 44.9276 37.932C45.0112 38.0714 45.0391 38.155 44.8719 38.2386C44.2308 38.5452 43.5898 38.8796 42.893 39.019C41.1651 39.3813 39.5207 39.2141 37.9599 38.3222C37.0681 37.8206 36.3992 37.0959 35.786 36.3155C35.6745 36.1762 35.5909 36.0368 35.4516 35.8417C35.5631 36.4549 35.7582 36.9566 35.8139 37.514C35.8696 38.0435 35.8975 38.5452 35.8975 39.0747C35.8975 41.611 35.8975 44.1472 35.8975 46.6556C35.8975 46.9621 35.786 47.0458 35.5073 47.0179C34.8663 46.99 34.1974 46.9064 33.6121 46.7113C33.0547 46.5162 32.4973 46.2654 31.9677 45.9309C31.1037 45.4014 30.4349 44.6768 29.8496 43.8406C29.1528 42.8373 28.8741 41.7225 28.7347 40.524C28.7347 40.4404 28.7069 40.3568 28.679 40.2732C28.679 40.2453 28.6511 40.2174 28.6233 40.1338C28.4003 41.8061 27.4806 43.116 26.7281 44.4817C25.7804 46.2096 24.805 47.9098 23.8574 49.6377C23.8016 49.7213 23.7459 49.805 23.718 49.8886C23.6623 50.0279 23.5787 50.0001 23.4672 49.9164C22.1573 49.0246 21.0982 47.8819 20.485 46.3769C19.9555 45.0948 19.844 43.757 20.067 42.3914C20.1784 41.6667 20.4293 40.9978 20.6801 40.3011C20.4014 40.5798 20.1506 40.8585 19.8719 41.1372C19.0636 41.9176 18.0324 42.3914 17.0848 42.9766C15.4683 43.9521 13.8239 44.9276 12.2074 45.9031C11.5664 46.2932 11.5943 46.2933 11.2598 45.5965C10.6188 44.2587 10.4516 42.8373 10.6188 41.388C10.786 39.7994 11.5107 38.4895 12.5976 37.3746C12.9599 36.9844 13.378 36.6779 13.7961 36.3434C12.5697 36.7893 11.2598 36.8451 9.97777 36.8451C7.77599 36.8451 5.5742 36.8451 3.34455 36.8451C3.03797 36.8451 2.92649 36.7615 2.95436 36.427C3.0101 34.9499 3.45603 33.6121 4.26428 32.3579C5.18402 30.9644 6.4382 30.1004 8.02682 29.6266C8.5285 29.4872 9.03017 29.4315 9.61545 29.3757C9.16952 29.1528 8.75146 29.097 8.36127 28.9577C7.63664 28.679 6.96774 28.2888 6.29884 27.8986C4.8217 27.0346 3.34455 26.1427 1.8674 25.2788C1.28212 24.9443 0.724707 24.582 0.139423 24.2475C-0.0278016 24.1639 0.0836812 24.1082 0.111552 24.0246C0.641095 22.9934 1.42147 22.213 2.34121 21.572C3.62326 20.6522 5.04466 20.262 6.60542 20.3735C7.55302 20.4571 8.41701 20.7358 9.281 21.126C9.30888 21.1539 9.36462 21.1539 9.42036 21.1539C8.38914 20.2899 7.74812 19.1472 7.10709 17.9766C6.52181 16.8897 5.93652 15.8306 5.32337 14.7715C4.93318 14.1026 4.6266 13.4058 4.20854 12.7648C4.06919 12.5418 3.92983 12.3189 3.81835 12.068C3.65113 11.7057 3.679 11.5664 4.04132 11.3992C5.46272 10.786 6.912 10.4515 8.44489 10.7024C9.30888 10.8417 10.0893 11.1483 10.8418 11.5942C11.8172 12.2074 12.5419 13.0435 13.2108 13.9633C12.6534 12.4861 12.737 10.9532 12.737 9.4482C12.737 7.38577 12.737 5.29547 12.737 3.23304C12.737 2.78711 12.737 2.75924 13.1829 2.78711C14.3535 2.87072 15.4404 3.1773 16.4716 3.76258C17.3914 4.26426 18.116 4.96102 18.6734 5.76927C19.2587 6.60539 19.6489 7.58087 19.7883 8.61208C19.844 8.9744 19.9555 9.33672 19.9555 9.69904C20.067 9.1695 20.1784 8.66782 20.3735 8.16615C20.708 7.27429 21.2375 6.43817 21.6835 5.60205C22.6868 3.76258 23.718 1.95099 24.7492 0.111524C24.8886 -0.139312 25.0001 -0.222924 25.3066 -0.0278293C26.6723 0.864033 27.592 2.09034 28.2052 3.56749C28.679 4.71019 28.7347 5.88076 28.5954 7.0792C28.5118 7.72022 28.3445 8.36125 28.0658 8.94653C27.9822 9.14163 27.8707 9.33672 27.8429 9.53182C28.1495 9.19737 28.4282 8.80718 28.8184 8.47273C29.2085 8.13828 29.6266 7.88745 30.0725 7.60874C30.4627 7.3579 30.8808 7.13494 31.271 6.85623C31.5497 6.66114 31.8841 6.54965 32.1628 6.35456C33.4449 5.60205 34.7269 4.84954 35.9811 4.06916C36.232 3.90194 36.5107 3.81833 36.7336 3.62323C37.0123 3.40026 37.0959 3.53962 37.2074 3.76258C37.9321 5.12825 38.155 6.60539 38.0157 8.11041C37.8206 10.1728 36.8172 11.7893 35.2007 13.0157C35.0614 13.2944 34.922 13.3222 34.8942 13.4895C34.8942 13.4895 34.8663 13.4895 34.8663 13.5173C34.8663 13.5173 34.8663 13.4895 34.8942 13.4895ZM32.8875 14.6879C32.8039 14.7436 32.7202 14.7436 32.6088 14.7994C30.9644 15.8027 29.2922 16.7782 27.6199 17.7815C27.4248 17.893 27.3691 17.8373 27.2855 17.6979C26.533 16.2486 26.2542 14.6879 26.4215 13.0435C26.4772 12.5976 26.6166 12.1795 26.6723 11.7336C26.1985 12.5418 25.7247 13.378 25.2509 14.1862C24.7492 15.106 24.2476 15.9978 23.7459 16.9175C23.6623 17.0848 23.5508 17.2241 23.3 17.0569C22.1851 16.3044 21.2933 15.3847 20.6801 14.2141C20.3178 13.5452 20.0948 12.8484 19.8997 12.0959C19.8997 13.9354 19.8997 15.7748 19.8997 17.6422C19.8997 18.7291 19.8997 18.7013 18.8128 18.534C17.2241 18.2832 15.8585 17.6143 14.6879 16.4995C14.6322 16.4437 14.5764 16.388 14.4928 16.4437C14.3813 16.5274 14.4928 16.5831 14.5207 16.6388C15.4404 18.2553 16.3323 19.844 17.252 21.4605C17.3356 21.6277 17.3635 21.7392 17.1684 21.8228C16.9454 21.9343 16.7503 22.0736 16.5274 22.1572C14.8273 22.854 13.0993 22.9934 11.3156 22.4081C11.427 22.5196 11.5385 22.6032 11.6779 22.6868C12.1517 22.9655 12.6255 23.2442 13.0993 23.5229C14.2141 24.1918 15.3011 24.8607 16.4159 25.5017C16.6389 25.6411 16.6667 25.6968 16.5553 25.9198C15.747 27.2297 14.6879 28.233 13.2944 28.8741C12.8485 29.097 12.3747 29.2364 11.9008 29.3757C12.5976 29.4036 13.3223 29.4036 14.019 29.4036C15.2453 29.4036 16.4716 29.4036 17.698 29.4036C18.0045 29.4036 18.116 29.4872 18.0603 29.7938C18.0324 30.0168 18.0324 30.2397 18.0045 30.4627C17.893 31.7448 17.4192 32.9153 16.6946 33.9744C16.4716 34.3089 16.1651 34.5876 15.9142 34.9499C16.3044 34.922 16.5553 34.6712 16.8061 34.5318C18.1439 33.7514 19.4817 32.9432 20.8195 32.1628C21.0146 32.0513 21.0982 32.0792 21.2097 32.2743C21.6556 33.1104 21.9064 34.0023 22.0458 34.9499C22.1851 35.8139 22.1294 36.6779 21.9343 37.5419C21.9064 37.6255 21.8228 37.7648 21.9622 37.8206C22.0736 37.8763 22.1015 37.7091 22.1573 37.6255C22.9934 36.0926 23.8574 34.5876 24.6935 33.0547C24.9165 32.6645 24.9443 32.6366 25.3066 32.9153C26.6444 33.8629 27.6478 35.0614 28.2052 36.6221C28.3167 36.9566 28.4003 37.291 28.5675 37.5976C28.5675 37.3746 28.5675 37.1795 28.5675 36.9566C28.5675 35.1728 28.5675 33.3613 28.5675 31.5775C28.5675 31.4103 28.5396 31.2431 28.8184 31.271C29.8496 31.3267 30.8529 31.5497 31.8005 31.9956C32.7481 32.4415 33.5564 33.1104 34.2531 33.9187C34.1417 33.6678 34.0023 33.417 33.8629 33.1662C32.9711 31.5775 32.0792 29.9889 31.1874 28.4003C31.1037 28.233 31.1316 28.1494 31.271 28.0937C32.2464 27.5641 33.3055 27.2297 34.4204 27.1461C35.3122 27.0903 36.1762 27.2018 37.0123 27.4805C36.9845 27.3691 36.9287 27.3412 36.873 27.3133C35.2286 26.3378 33.6121 25.3624 31.9677 24.4148C31.8005 24.3312 31.7169 24.2475 31.8563 24.0246C32.4973 22.9097 33.3891 22.0458 34.4761 21.3769C35.1171 20.9867 35.8139 20.7358 36.5385 20.5129C36.3434 20.485 36.1205 20.485 35.9254 20.485C34.1695 20.485 32.4137 20.485 30.6857 20.485C30.4906 20.485 30.3791 20.4571 30.3791 20.2342C30.407 19.6489 30.4627 19.0636 30.6021 18.4783C31.0201 17.0012 31.7448 15.7191 32.8875 14.6879Z" fill="#F09C1A"/>
<path d="M100.803 30.1067C100.709 29.345 100.796 28.5972 100.769 27.8425C100.736 26.9631 100.743 26.0837 100.763 25.2043C100.789 23.8956 100.569 22.6146 100.403 21.3267C100.369 21.0705 100.403 20.745 100.149 20.565C99.889 20.378 99.8356 20.1288 99.8156 19.8241C99.8023 19.5817 99.8556 19.2978 99.6489 19.1178C99.4688 18.9655 99.3954 18.7785 99.3887 18.55C99.3821 18.3977 99.3754 18.2384 99.202 18.183C99.0219 18.1276 98.9618 17.9684 98.8618 17.823C98.655 17.5252 98.695 17.0544 98.2748 16.902C98.2548 16.8951 98.2348 16.8466 98.2348 16.812C98.2215 16.6389 98.0881 16.6043 97.968 16.5489C97.8013 16.4658 97.5211 16.445 97.6879 16.1126C97.7212 16.0434 97.6011 16.0157 97.5811 15.9603C97.4077 15.5587 96.7807 15.6002 96.7474 15.0532C96.7407 14.984 96.6273 14.9701 96.5473 14.9494C96.1737 14.8732 96.0003 14.4647 95.6468 14.3608C95.6068 14.3469 95.5668 14.2431 95.5668 14.1808C95.5668 13.9176 95.4067 13.8899 95.2133 13.8969C95.0398 13.8969 94.8531 13.9246 94.7263 13.7514C94.5396 13.4883 94.2327 13.4468 93.9726 13.3845C93.7658 13.3291 93.6524 13.3014 93.7058 13.0798C93.7592 12.8859 93.6725 12.8582 93.5257 12.8651C93.2256 12.8721 92.9388 12.8028 92.6453 12.7336C92.1383 12.4151 91.5514 12.4151 90.9911 12.325C90.4908 12.2419 89.9772 12.3181 89.4836 12.145C89.4103 12.1173 89.3302 12.1104 89.2569 12.1173C88.5231 12.1865 87.7828 12.2558 87.0491 12.332C86.4888 12.3874 85.9552 12.5535 85.4282 12.7405C85.0347 12.7682 84.6545 12.9205 84.2476 12.8928C84.1142 12.8859 84.0075 12.9967 83.9608 13.1421C83.9008 13.3429 83.7607 13.4191 83.5606 13.4468C83.3071 13.4814 83.0603 13.5576 82.8669 13.7514C82.8002 13.8207 82.7268 13.8622 82.6335 13.8622C82.3266 13.8622 82.1665 14.07 82.0198 14.3123C81.8864 14.5339 81.773 14.7832 81.4729 14.8178C81.1594 14.8593 80.9526 15.0601 80.8259 15.344C80.7592 15.4964 80.6724 15.6487 80.499 15.6418C80.2722 15.6349 80.2055 15.7734 80.1055 15.9395C79.892 16.2927 79.7253 16.7012 79.3651 16.9297C79.1717 17.0474 79.0716 17.1928 79.0316 17.4075C79.0116 17.5044 78.9916 17.6221 78.9249 17.6914C78.7181 17.9199 78.6314 18.1969 78.5914 18.5015C78.5647 18.6816 78.5047 18.8408 78.2912 18.8478C78.1245 18.8547 78.0644 19.0001 78.0378 19.1247C77.8843 19.8241 77.5442 20.4681 77.5242 21.209C77.5175 21.5136 77.4174 21.7975 77.224 22.033C77.0573 22.2407 77.0372 22.4969 77.0172 22.7462C76.9038 23.8817 77.0239 25.0243 76.9772 26.1668C76.9705 26.2776 77.0306 26.3884 77.0306 26.5061C77.0439 26.9492 77.4308 27.2331 77.4775 27.6694C77.5575 28.438 77.8443 29.1581 78.0311 29.899C78.0644 30.0236 78.1445 30.1067 78.2379 30.1552C78.3979 30.2314 78.458 30.356 78.5247 30.5083C78.8048 31.1592 78.9982 31.8655 79.6386 32.2879C79.8253 32.4056 79.9387 32.6618 79.9788 32.8972C80.0388 33.2296 80.2656 33.3681 80.519 33.4858C80.5991 33.5204 80.6991 33.5135 80.7525 33.6035C80.9593 33.9428 81.2661 34.1782 81.5729 34.4137C81.853 34.6283 82.0998 34.9261 82.4067 35.0715C83.2338 35.4454 83.9608 36.0616 84.8813 36.2278C85.0213 36.2555 85.1748 36.2555 85.3015 36.3109C85.7551 36.5256 86.2553 36.6017 86.7289 36.6641C87.4293 36.7541 88.143 36.7125 88.85 36.8026C89.7438 36.9203 90.6376 36.6364 91.538 36.6918C91.558 36.6918 91.5847 36.6918 91.6047 36.6848C92.1583 36.5048 92.6986 36.2832 93.2923 36.2555C93.4857 36.2417 93.6725 36.124 93.7258 35.8885C93.7458 35.7985 93.7725 35.7293 93.8659 35.7362C94.2528 35.7778 94.5529 35.5146 94.8998 35.4108C95.0398 35.3692 95.2533 35.3277 95.3066 35.1476C95.3667 34.933 95.5334 34.843 95.6735 34.7322C96.027 34.4552 96.6006 34.5729 96.7074 34.9815C96.8074 35.3831 97.0742 35.5077 97.3944 35.6046C97.5211 35.6393 97.6945 35.7016 97.6812 35.847C97.6478 36.2209 97.8479 36.2278 98.1147 36.2278C98.2682 36.2278 98.4216 36.2763 98.575 36.3109C98.7351 36.3871 98.8284 36.5879 99.0152 36.6087C99.5021 36.6571 99.989 36.6918 100.476 36.7195C100.669 36.7333 100.756 36.6433 100.783 36.4148C100.849 35.7916 100.743 35.1753 100.763 34.5521C100.776 34.1644 100.823 33.7697 100.776 33.3819C100.709 32.828 100.836 32.2879 100.789 31.7339C100.729 31.1869 100.869 30.633 100.803 30.1067ZM93.2656 29.7813C93.3323 30.1413 93.1122 30.1344 92.8654 30.2037C92.3718 30.3421 91.8982 30.5568 91.498 30.903C91.3246 31.0554 91.1445 31.1731 90.911 31.1938C89.8372 31.2977 88.7566 31.4085 87.676 31.27C87.3425 31.2285 87.029 31.1454 86.7489 30.8753C86.4221 30.5499 85.9218 30.5014 85.5149 30.2937C85.2815 30.169 85.0213 30.1136 84.948 29.7813C84.9146 29.6359 84.7612 29.5389 84.6078 29.5528C84.1409 29.5805 83.9541 29.2481 83.7874 28.895C83.6673 28.6457 83.5673 28.3895 83.2805 28.2925C83.1604 28.251 83.1337 28.1264 83.087 28.0225C82.9136 27.6001 82.7135 27.1847 82.7335 26.7069C82.7402 26.6099 82.7135 26.4991 82.6268 26.4714C82.2466 26.3468 82.2199 25.9937 82.1999 25.689C82.1532 24.865 82.1732 24.0341 82.2266 23.2032C82.2533 22.85 82.4867 22.5523 82.5868 22.213C82.6468 22.0053 82.7602 21.8114 82.8002 21.5967C82.8802 21.209 83.007 20.8904 83.3738 20.6896C83.6473 20.5373 83.6606 20.1634 83.794 19.8864C83.9408 19.5887 84.1075 19.3671 84.4744 19.4294C84.5478 19.4432 84.6011 19.4294 84.6545 19.374C85.1281 18.7924 85.7551 18.4254 86.3887 18.0861C86.6955 17.9199 87.0157 17.7122 87.3959 17.726C87.4226 17.6914 87.4559 17.6706 87.4893 17.6568C87.4559 17.6706 87.4226 17.6845 87.3959 17.726C88.303 17.726 89.2168 17.7052 90.124 17.7329C90.5242 17.7468 90.9444 17.7676 91.3046 17.9753C91.4446 18.0584 91.5714 18.1692 91.7381 18.1969C91.8849 18.2246 91.9649 18.3007 92.0583 18.4392C92.2517 18.7162 92.5519 18.8962 92.872 18.9585C93.1589 19.007 93.339 19.1524 93.4457 19.4086C93.5257 19.6094 93.6258 19.7479 93.8259 19.8449C94.006 19.9349 94.1527 20.0872 94.2461 20.3019C94.4195 20.7173 94.5262 21.1605 94.8731 21.4998C95.3066 21.9222 95.1932 22.573 95.4 23.1062C95.5534 23.5009 95.5401 23.951 95.5334 24.3526C95.5267 24.8442 95.5001 25.3359 95.4867 25.8275C95.4867 25.959 95.4867 26.0906 95.38 26.1806C95.1999 26.333 95.1666 26.5199 95.2066 26.7346C95.2333 26.8523 95.1999 26.9492 95.1332 27.0531C94.8464 27.5378 94.5663 28.0363 94.2861 28.528C94.166 28.7357 94.146 28.9988 93.9526 29.165C93.9059 29.1581 93.8792 29.1719 93.8726 29.2204C93.6058 29.2343 93.5391 29.4905 93.3723 29.6359C93.339 29.6705 93.2522 29.7051 93.2656 29.7813ZM87.5693 17.6429C87.5627 17.6429 87.5627 17.6429 87.5693 17.6429C87.5627 17.6429 87.5627 17.6429 87.5693 17.6429ZM93.9459 29.2135C93.9393 29.2135 93.9393 29.2204 93.9326 29.2204C93.9393 29.2204 93.9393 29.2135 93.9459 29.2135ZM93.9459 29.2135C93.9593 29.2066 93.9659 29.1858 93.9659 29.1581C93.9726 29.1858 93.9593 29.2066 93.9459 29.2135ZM94.2994 28.528C94.2994 28.6457 94.2928 28.7565 94.2661 28.8534C94.2928 28.7565 94.2994 28.6388 94.2994 28.528Z" fill="#043525"/>
<path d="M197.166 22.303C197.153 22.0953 197.119 21.8598 196.879 21.756C196.786 21.7144 196.753 21.5759 196.813 21.5206C196.979 21.3544 196.846 21.2297 196.773 21.112C196.619 20.8627 196.566 20.5927 196.512 20.3019C196.439 19.9349 196.306 19.5817 196.246 19.2078C196.232 19.104 196.146 18.9724 196.059 18.9378C195.792 18.8339 195.712 18.64 195.712 18.3769C195.712 18.3215 195.685 18.2592 195.659 18.2246C195.418 17.9337 195.325 17.5737 195.165 17.2413C195.092 17.089 195.038 16.9643 194.865 16.9159C194.551 16.8259 194.378 16.625 194.371 16.2719C194.365 16.0226 194.258 15.898 193.991 15.9395C193.778 15.9742 193.237 15.6556 193.217 15.4895C193.177 15.1917 193.004 15.0948 192.75 14.9909C192.45 14.8663 192.09 14.7486 191.983 14.3746C191.917 14.1392 191.803 14.063 191.59 14.0492C191.403 14.0423 191.196 14.0561 191.103 13.8345C191.01 13.613 190.849 13.5853 190.636 13.606C190.369 13.6337 190.149 13.5576 190.069 13.246C190.029 13.0867 189.902 12.9828 189.756 12.9759C189.389 12.9482 189.049 12.8444 188.695 12.7543C188.135 12.6089 187.574 12.4428 186.967 12.4428C186.354 12.4428 185.733 12.3181 185.113 12.2835C184.833 12.2696 184.6 12.4012 184.333 12.4151C183.732 12.4428 183.125 12.512 182.532 12.5951C181.998 12.6713 181.505 12.9759 180.944 12.969C180.811 12.969 180.671 13.0521 180.631 13.1975C180.524 13.5506 180.264 13.5853 179.971 13.5783C179.83 13.5714 179.697 13.5991 179.657 13.7653C179.597 14.0353 179.377 14.0838 179.19 14.0284C178.83 13.9246 178.697 14.1461 178.603 14.4162C178.516 14.6655 178.35 14.7901 178.116 14.8247C177.776 14.8732 177.569 15.1017 177.456 15.3925C177.363 15.6279 177.216 15.718 177.002 15.7249C176.729 15.7318 176.635 15.8495 176.649 16.1334C176.662 16.3758 176.242 16.8882 176.022 16.9643C175.875 17.0128 175.682 17.0405 175.662 17.2275C175.602 17.8299 175.235 18.28 174.928 18.7231C174.668 19.1109 174.488 19.4917 174.401 19.9418C174.388 20.0041 174.354 20.0664 174.334 20.1288C174.067 20.2673 174.214 20.5788 174.094 20.7727C173.814 21.2228 173.661 21.7144 173.594 22.2407C173.414 22.4553 173.574 22.7046 173.527 22.9331C173.461 22.9608 173.461 23.0231 173.461 23.0785C173.461 23.771 173.447 24.4634 173.467 25.1489C173.474 25.3289 173.347 25.5367 173.521 25.7029C173.521 25.8483 173.507 26.0006 173.514 26.146C173.534 26.4922 173.501 26.8731 173.621 27.1777C173.801 27.6278 173.874 28.1125 174.121 28.5626C174.334 28.9434 174.434 29.4697 174.561 29.9336C174.628 30.1691 174.621 30.4183 174.921 30.4737C174.988 30.4876 174.988 30.5499 175.001 30.6053C175.088 30.993 175.315 31.3046 175.482 31.6509C175.655 32.0248 175.822 32.2602 176.202 32.4056C176.409 32.4887 176.429 32.8349 176.535 33.0565C176.655 33.2989 176.789 33.4927 177.082 33.5481C177.162 33.562 177.276 33.5689 177.363 33.6104C177.389 33.6312 177.416 33.6451 177.443 33.6658C177.463 33.6866 177.469 33.7143 177.476 33.7489C177.529 34.2752 177.936 34.4206 178.27 34.6699C178.897 35.1407 179.517 35.6116 180.304 35.7639C180.424 35.7847 180.571 35.8747 180.611 36.0478C180.651 36.2348 180.798 36.2694 180.964 36.2971C181.311 36.3525 181.678 36.3802 181.985 36.5256C182.272 36.6572 182.545 36.6987 182.845 36.7056C183.099 36.7125 183.359 36.6849 183.612 36.7264C185.02 36.9618 186.421 36.7402 187.828 36.6918C187.881 36.6918 187.941 36.6849 187.988 36.6641C188.342 36.5117 188.708 36.401 189.102 36.4148C189.389 36.4217 189.682 36.3525 189.849 36.124C190.049 35.8609 190.229 35.6531 190.576 35.7085C190.623 35.7154 190.676 35.6739 190.723 35.6462C191.243 35.3623 191.717 35.0092 192.163 34.6145C192.284 34.5106 192.404 34.4137 192.537 34.3375C192.824 34.1782 193.044 33.9567 193.177 33.6451C193.544 33.562 193.924 33.375 194.145 33.1257C194.365 32.8695 194.631 32.641 194.825 32.3571C194.938 32.1979 195.112 32.0663 195.112 31.8378C195.225 31.8447 195.252 31.7755 195.258 31.6716C195.318 31.5262 195.398 31.3808 195.438 31.2285C195.532 30.8823 195.659 30.5914 195.905 30.3145C196.079 30.1137 196.239 29.8436 196.306 29.5112C196.379 29.1927 196.426 28.8396 196.559 28.5349C196.779 28.0433 196.933 27.524 197.086 27.0185C197.273 26.3953 197.273 25.7167 197.326 25.0589C197.4 24.131 197.226 23.2239 197.166 22.303ZM190.202 29.0819C190.169 29.1719 190.136 29.255 190.096 29.3381C190.136 29.255 190.169 29.1719 190.202 29.0819ZM178.677 23.2309C178.697 22.9954 178.79 22.7531 178.87 22.5177C178.917 22.3792 178.977 22.2476 178.977 22.0953C178.977 21.9706 178.997 21.8391 179.103 21.7906C179.297 21.7075 179.344 21.5829 179.297 21.389C179.29 21.3544 179.31 21.2851 179.344 21.2644C179.75 21.0289 179.784 20.5373 180.031 20.198C180.071 20.1426 180.097 20.0595 180.151 20.0387C180.511 19.8726 180.731 19.6164 180.804 19.2078C180.831 19.0624 181.024 19.0693 181.144 19.0416C181.438 18.9724 181.638 18.7647 181.872 18.6054C182.252 18.3492 182.599 17.9961 183.052 17.913C183.879 17.7606 184.72 17.6152 185.553 17.7052C186.067 17.7606 186.594 17.6429 187.088 17.8507C187.261 18.0376 187.521 17.9476 187.728 18.0861C188.268 18.4461 188.762 18.8755 189.342 19.1663C189.555 19.2701 189.722 19.4433 189.862 19.6718C190.029 19.9557 190.283 20.1842 190.336 20.5442C190.349 20.6342 190.456 20.7173 190.556 20.7312C190.669 20.752 190.716 20.8281 190.776 20.9112C191.176 21.4305 191.29 22.0468 191.383 22.6769C191.396 22.7739 191.363 22.8985 191.463 22.9677C191.79 23.1893 191.817 23.5217 191.803 23.8748C191.797 24.0202 191.837 24.1657 191.923 24.2972C191.917 24.3388 191.903 24.3872 191.897 24.4288C191.823 25.052 191.837 25.689 191.423 26.2222C191.336 26.333 191.29 26.5338 191.316 26.6792C191.416 27.2816 190.923 27.6901 190.863 28.2372C190.849 28.3479 190.723 28.3618 190.636 28.4172C190.396 28.5695 190.182 28.7426 190.189 29.0819C190.156 29.1027 190.109 29.1235 190.089 29.1512C189.796 29.6359 189.222 29.7813 188.902 30.2383C188.815 30.356 188.662 30.3491 188.535 30.3837C188.201 30.4876 187.888 30.6191 187.648 30.8961C187.568 30.9861 187.448 31.0692 187.341 31.0831C186.781 31.1662 186.227 31.2977 185.66 31.2769C185.147 31.2562 184.633 31.1177 184.106 31.2077C183.893 31.2423 183.632 31.1869 183.426 31.09C182.979 30.8892 182.585 30.543 182.065 30.5291C182.005 30.5291 181.938 30.4737 181.898 30.4253C181.638 30.0998 181.231 29.9682 180.958 29.6428C180.811 29.4697 180.684 29.2758 180.484 29.1304C180.037 28.805 179.784 28.2718 179.53 27.8009C179.324 27.4201 179.25 26.8938 179.063 26.4992C178.81 25.9798 178.79 25.4605 178.69 24.9343C178.683 24.8996 178.663 24.8719 178.643 24.8442C178.657 24.3111 178.63 23.764 178.677 23.2309ZM190.022 29.4489C190.009 29.4697 189.989 29.4974 189.969 29.5182C189.989 29.4974 190.009 29.4697 190.022 29.4489Z" fill="#043525"/>
<path d="M125.836 22.5939C125.836 20.4889 125.843 18.3839 125.843 16.2789C125.843 15.1156 125.836 13.9592 125.829 12.7959C125.836 12.3251 125.623 12.1243 125.156 12.0412C124.655 11.9581 124.162 12.055 123.668 12.055C122.808 12.0689 121.954 12.055 121.1 12.0758C120.633 12.0827 120.373 12.332 120.373 12.7752C120.373 14.1877 120.306 15.6072 120.353 17.0198C120.4 18.2869 120.367 19.5541 120.353 20.8282C120.353 20.9667 120.367 21.1813 120.18 21.1882C119.8 21.209 119.446 21.3337 119.059 21.3267C117.979 21.306 116.891 21.3267 115.811 21.3267C114.237 21.3267 112.656 21.3267 111.082 21.3198C110.648 21.3198 110.328 20.9459 110.275 20.4958C110.148 19.3948 110.228 18.2869 110.221 17.1791C110.208 15.7111 110.221 14.2501 110.228 12.7821C110.228 12.6228 110.248 12.4359 110.095 12.3389C109.874 12.2005 109.668 12.0481 109.374 12.0204C108.901 11.9789 108.427 12.0481 107.967 12.0066C107.206 11.9443 106.459 12.1035 105.706 12.0412C105.566 12.0273 105.459 12.0827 105.339 12.1658C104.999 12.3943 104.925 12.6713 104.912 13.1075C104.892 13.9246 104.865 14.7348 104.905 15.5518C104.939 16.2166 104.899 16.8744 104.925 17.5391C104.952 18.19 104.959 18.8617 104.905 19.5264C104.845 20.2673 104.925 21.0151 104.899 21.7699C104.859 22.9747 104.979 24.1796 104.925 25.3844C104.892 26.1461 104.932 26.9008 104.905 27.6556C104.879 28.3896 104.959 29.1235 104.932 29.8506C104.912 30.4253 104.899 31.007 104.899 31.5817C104.892 32.5095 104.872 33.4374 104.919 34.3653C104.952 34.9954 104.852 35.6393 104.945 36.2764C105.005 36.7195 105.079 36.7888 105.512 36.8095C106.913 36.8857 108.307 36.8095 109.708 36.8165C109.821 36.8165 109.961 36.8303 110.015 36.678C110.195 36.7126 110.208 36.5741 110.215 36.4426C110.248 35.9163 110.295 35.3901 110.321 34.8569C110.375 33.6174 110.301 32.378 110.315 31.1385C110.321 30.5153 110.381 29.8783 110.228 29.262C110.195 29.1374 110.215 29.0058 110.261 28.8881C110.361 28.6319 110.348 28.3619 110.328 28.1057C110.275 27.4894 110.481 27.2609 111.082 27.2609C112.556 27.2678 114.037 27.254 115.511 27.254C116.898 27.254 118.285 27.2609 119.673 27.2747C120.166 27.2817 120.28 27.4063 120.28 27.9118C120.286 29.0889 120.286 30.2591 120.293 31.4363C120.3 32.3987 120.347 33.3612 120.327 34.3306C120.313 34.9954 120.353 35.6601 120.353 36.3318C120.353 36.6157 120.467 36.768 120.773 36.8442C121.16 36.9411 121.52 36.8165 121.887 36.8165C122.634 36.8234 123.375 36.8511 124.122 36.8234C124.629 36.8026 125.142 36.8857 125.643 36.7472C125.829 36.6988 125.943 36.588 125.929 36.3802C125.869 35.6324 125.949 34.8846 125.916 34.1437C125.856 32.5234 125.929 30.9031 125.889 29.2759C125.863 28.1541 125.836 27.0324 125.936 25.9176C125.963 25.6406 125.943 25.3636 125.823 25.1074C125.836 24.2696 125.836 23.4317 125.836 22.5939Z" fill="#043525"/>
<path d="M77.411 15.0879C77.5511 14.7486 77.5777 14.3677 77.7245 14.0423C77.8846 13.6891 77.9313 13.3429 77.8846 12.9759C77.8312 12.5743 77.7378 12.4982 77.3443 12.5051C76.9174 12.512 76.4838 12.5051 76.057 12.5328C75.7301 12.5535 75.41 12.4774 75.0965 12.5051C74.0626 12.5743 73.0354 12.5189 72.0015 12.5397C70.6608 12.5674 69.3135 12.5397 67.9728 12.5397C66.9789 12.5397 65.9851 12.5397 64.9913 12.5328C64.6911 12.5328 64.3843 12.4289 64.1041 12.4912C63.784 12.5674 63.4371 12.5743 63.1636 12.5397C62.3899 12.4358 61.6229 12.5397 60.8825 12.602C60.0954 12.6713 59.1883 12.5882 58.5813 13.3498C58.5546 13.3845 58.5079 13.4122 58.4679 13.4191C58.101 13.4745 57.9943 13.973 57.5874 13.9661C57.5608 13.9661 57.5207 14.0561 57.5074 14.1115C57.394 14.4508 57.0738 14.6655 56.9938 15.0186C56.9738 15.0879 56.8871 15.1571 56.807 15.1432C56.5269 15.0879 56.5336 15.3025 56.4935 15.4756C56.4669 15.6003 56.4935 15.7318 56.4135 15.8426C56.2334 16.3135 56.1334 16.8051 56.0266 17.2967C55.9399 17.6776 56.0867 17.8299 56.4602 17.8437C57.1272 17.8576 57.7942 17.8437 58.4546 17.8714C59.275 17.9061 60.0887 17.8784 60.9092 17.9476C61.7096 18.0168 62.53 17.9891 63.3437 17.9961C63.5772 17.9961 63.8773 17.9891 63.9974 18.183C64.1442 18.4323 64.2375 18.7647 64.2242 19.0486C64.2042 19.5679 64.1842 20.0872 64.2175 20.6135C64.2242 20.7381 64.2709 20.8489 64.2642 20.9874C64.2242 21.6798 64.1975 22.3792 64.1642 23.0716C64.1508 23.2586 64.2842 23.4178 64.2509 23.6117C64.1175 24.4911 64.1975 25.3774 64.2776 26.2568C64.0841 26.5546 64.1575 26.8869 64.2175 27.1847C64.2776 27.4824 64.0374 27.7732 64.2509 28.0433C64.2575 28.0502 64.2309 28.0779 64.2175 28.0987C64.0708 28.2579 64.1175 28.4103 64.2175 28.5695C64.2575 28.6319 64.3109 28.7288 64.2509 28.7911C64.0708 28.9781 64.1108 29.1443 64.2575 29.3243C64.2842 29.3589 64.2909 29.442 64.2709 29.4835C64.0174 29.9821 64.1708 30.5222 64.1975 31.0207C64.2242 31.5124 64.2175 32.0109 64.2375 32.5026C64.2575 32.9319 64.2042 33.4027 64.1775 33.8528C64.1375 34.6837 64.1842 35.5077 64.1642 36.3386C64.1575 36.484 64.1775 36.6502 64.3643 36.6918C64.5577 36.7402 64.7511 36.8095 64.9512 36.8095C66.2052 36.8233 67.4592 36.8372 68.7198 36.8233C69.3001 36.8164 69.5203 36.5879 69.4602 35.9855C69.3402 34.8014 69.5002 33.6174 69.4335 32.4333C69.3602 31.09 69.4469 29.7328 69.4269 28.3757C69.4069 27.2054 69.4269 26.0352 69.4269 24.8581C69.4269 23.1893 69.4269 21.5136 69.4269 19.8449C69.4269 19.7549 69.4536 19.6579 69.3535 19.6025C69.3668 19.4017 69.3802 19.2009 69.4069 19.0001C69.4469 18.6885 69.3602 18.3631 69.5203 18.0653C69.9738 17.7191 70.5208 17.823 71.001 17.8368C71.6213 17.8507 72.235 17.7606 72.8553 17.8091C73.4289 17.8507 74.0026 17.7606 74.5762 17.6568C74.6762 17.636 74.8096 17.6429 74.843 17.546C74.943 17.2759 75.1432 17.2552 75.3699 17.2205C75.57 17.1859 75.7168 17.0267 75.8702 16.8951C75.9369 16.8397 75.9836 16.7497 76.077 16.7358C76.4705 16.6804 76.6106 16.355 76.744 16.0365C76.8173 15.8634 76.884 15.6764 77.0508 15.6003C77.2776 15.4895 77.3309 15.2887 77.411 15.0879Z" fill="#043525"/>
<path d="M149.248 21.8461C149.215 21.7283 149.195 21.5622 149.055 21.5552C148.728 21.5414 148.414 21.4444 148.074 21.4791C147.534 21.5345 146.994 21.5275 146.453 21.5622C146.287 21.5691 146.16 21.3267 146.033 21.4237C145.766 21.6245 145.5 21.5275 145.239 21.4929C144.939 21.4514 144.659 21.5622 144.352 21.5552C143.652 21.5275 142.945 21.5345 142.265 21.8045C142.144 21.853 142.004 21.8599 141.871 21.8807C141.504 21.943 141.091 21.8045 140.81 22.1992C140.764 22.2615 140.624 22.2892 140.53 22.2823C140.29 22.2684 140.17 22.4069 140.057 22.6008C139.99 22.7185 139.917 22.8916 139.817 22.9193C139.41 23.0163 139.236 23.3763 138.969 23.6325C138.829 23.778 138.856 23.9718 138.836 24.1519C138.783 24.1449 138.769 24.1796 138.769 24.2211C138.476 24.325 138.616 24.6781 138.436 24.8443C138.369 24.8097 138.322 24.8374 138.296 24.9066C138.189 24.8997 138.142 24.9343 138.176 25.052C138.009 25.6545 137.942 26.2707 137.929 26.8939C137.922 27.1155 138.049 27.254 138.309 27.2747C138.543 27.2955 138.769 27.254 139.003 27.254C140.63 27.2609 142.265 27.254 143.892 27.254C144.612 27.254 145.306 27.1086 145.993 26.8801C146.173 26.8247 146.367 26.797 146.48 26.6239C146.607 26.43 146.787 26.3538 147.007 26.3123C147.34 26.2499 148.094 25.5229 148.214 25.1628C148.608 24.872 148.808 24.4288 149.008 23.9995C149.168 23.6741 149.348 23.3209 149.281 22.9193C149.288 22.58 149.355 22.2061 149.248 21.8461Z" fill="#043525"/>
<path d="M173.007 33.5551C172.787 33.1742 172.44 32.8557 172.253 32.4333C172.153 32.2187 172.12 31.9763 171.88 31.8586C171.846 31.8447 171.846 31.7547 171.82 31.7063C171.6 31.3947 171.439 31.0138 171.233 30.723C170.999 30.3976 170.692 30.1206 170.499 29.7259C170.239 29.1927 169.792 28.7773 169.512 28.2441C169.472 28.1679 169.405 28.0987 169.298 28.0987C169.272 28.0294 169.232 27.9533 169.225 27.884C169.185 27.517 169.058 27.2193 168.705 27.0531C168.578 26.9908 168.551 26.8454 168.551 26.7C168.551 26.5269 168.485 26.3953 168.291 26.3814C168.004 26.0906 168.051 25.6059 167.624 25.3566C167.191 25.1004 167.004 24.5396 166.524 24.2626C166.03 23.9718 165.523 23.6948 165.029 23.3971C164.796 23.2586 164.709 23.0578 164.856 22.8985C165.096 22.6354 165.23 22.303 165.43 22.0122C165.837 21.9291 166.063 21.6867 166.05 21.2367C166.163 21.1466 166.377 21.1951 166.363 20.9528C166.35 20.7381 166.47 20.6758 166.657 20.6896C166.87 20.7035 166.997 20.6135 166.97 20.3642C166.964 20.2811 167.611 19.2909 167.684 19.2563C167.724 19.2355 167.778 19.2355 167.804 19.2078C167.944 19.0832 168.171 19.0555 168.218 18.8339C168.278 18.5569 168.645 18.4669 168.605 18.1207C168.598 18.0515 168.738 18.0722 168.805 18.0445C168.918 18.003 169.092 18.0376 169.132 17.9061C169.225 17.6152 169.445 17.4006 169.532 17.1236C169.592 16.9297 169.692 16.8466 169.845 16.8259C170.085 16.7912 170.232 16.6804 170.306 16.4312C170.386 16.168 170.619 16.0019 170.766 15.7803C170.866 15.621 170.879 15.4756 171.099 15.6141C171.206 15.6764 171.299 15.5725 171.273 15.4895C171.146 15.0325 171.526 14.9424 171.76 14.7693C171.96 14.6239 172.427 14.7001 172.093 14.2154C172.413 14.1738 172.407 13.8345 172.58 13.6545C172.593 13.6407 172.62 13.6407 172.647 13.6337C173.08 13.5299 173.327 13.2737 173.347 12.789C173.354 12.6366 173.34 12.5743 173.194 12.5674C173.06 12.5605 172.927 12.5397 172.793 12.5328C171.726 12.5258 170.659 12.5051 169.598 12.5328C168.691 12.5605 167.751 12.3735 166.89 12.8651C166.884 12.8721 166.87 12.8721 166.857 12.8721C166.657 12.8513 166.59 12.969 166.564 13.156C166.524 13.4122 166.403 13.613 166.19 13.7722C165.97 13.9384 165.743 14.1115 165.576 14.3331C165.203 14.8386 164.883 15.3925 164.382 15.7872C164.236 15.9049 164.076 16.0503 164.036 16.2719C163.996 16.5143 163.856 16.6597 163.642 16.7358C163.435 16.6666 163.275 16.6943 163.242 16.9574C163.222 16.9782 163.195 17.0059 163.175 17.0267C163.128 17.0267 163.102 17.0405 163.102 17.089C163.042 17.0959 162.988 17.1375 162.988 17.1928C162.962 17.5737 162.815 17.8437 162.401 17.8784C162.341 17.8853 162.288 17.9822 162.241 18.0445C162.075 18.2592 161.961 18.5085 161.861 18.7647C161.794 18.9309 161.688 19.0555 161.514 19.0347C161.167 18.9932 161.061 19.194 160.961 19.4917C160.867 19.7756 160.734 20.0941 160.434 20.1634C160.26 20.2049 160.18 20.2603 160.134 20.4127C160.054 20.6619 159.913 20.8904 159.713 21.0151C159.433 21.1813 159.226 21.3821 159.106 21.7006C159.006 21.9637 158.82 21.9499 158.619 21.7421C158.473 21.5898 158.539 21.4236 158.519 21.2574C158.413 20.4334 158.479 19.5956 158.373 18.7647C158.333 18.4185 158.439 18.0584 158.426 17.6983C158.406 16.9643 158.413 16.2373 158.386 15.5033C158.373 15.1986 158.519 14.894 158.353 14.5962C158.399 14.16 158.373 13.7307 158.366 13.2944C158.359 12.6228 158.279 12.5189 157.626 12.4774C157.506 12.4704 157.379 12.4635 157.259 12.4635C156.045 12.4566 154.838 12.4497 153.624 12.4427C153.177 12.4427 152.783 12.8028 152.843 13.2667C152.917 13.8276 152.816 14.3677 152.816 14.9147C152.816 17.2759 152.803 19.6371 152.81 21.9983C152.81 22.8708 152.796 23.7502 152.85 24.6157C152.883 25.2251 152.87 25.8344 152.85 26.4368C152.816 27.2539 152.816 28.071 152.803 28.8881C152.783 30.1898 152.85 31.4985 152.816 32.8072C152.79 33.922 152.843 35.0369 152.816 36.1517C152.81 36.4771 152.943 36.6295 153.17 36.7818C153.383 36.9272 153.617 36.9341 153.857 36.9618C154.457 37.0449 155.051 36.9272 155.651 36.9411C156.352 36.9549 157.052 36.948 157.752 36.9411C158.179 36.9411 158.379 36.7333 158.393 36.2832C158.399 36.0201 158.393 35.7639 158.499 35.5077C158.553 35.3762 158.539 35.1684 158.486 35.0369C158.306 34.6076 158.453 34.1782 158.459 33.7559C158.466 33.2158 158.553 32.6549 158.473 32.1286C158.406 31.6647 158.439 31.2146 158.439 30.7645C158.446 30.2175 158.433 29.6705 158.433 29.1304C158.433 28.3757 158.479 27.6278 158.466 26.8731C158.453 26.0214 158.659 25.869 159.493 25.876C159.867 25.876 160.18 26.1391 160.56 26.1391C160.661 26.1391 160.767 26.1529 160.874 26.2083C161.494 26.5199 161.908 27.1431 162.548 27.4062C162.575 27.4201 162.602 27.4478 162.615 27.4824C162.715 27.7732 162.875 28.0225 163.022 28.2787C163.215 28.6111 163.229 29.075 163.702 29.1858C163.829 29.2135 163.856 29.352 163.876 29.4628C163.922 29.7951 164.256 30.0098 164.236 30.3768C164.236 30.4114 164.309 30.4668 164.356 30.4806C164.669 30.5637 164.836 30.7576 164.849 31.1108C164.849 31.1869 164.936 31.2631 164.983 31.3462C165.123 31.5816 165.283 31.7963 165.276 32.094C165.27 32.2464 165.37 32.371 165.516 32.3779C165.783 32.3848 165.81 32.5856 165.883 32.7865C165.983 33.0634 166.09 33.3612 166.277 33.5758C166.397 33.7212 166.504 33.7974 166.444 33.9982C166.37 34.2198 166.457 34.3306 166.677 34.3306C166.73 34.3306 166.824 34.3514 166.83 34.3721C166.897 34.6976 167.184 34.8984 167.264 35.203C167.291 35.3138 167.277 35.4731 167.364 35.5216C167.677 35.6878 167.691 36.1032 167.998 36.2625C168.091 36.3109 168.104 36.4079 168.118 36.4979C168.144 36.6295 168.218 36.7333 168.324 36.7472C168.725 36.7887 169.105 36.9618 169.512 36.9341C169.645 36.9272 169.772 36.8233 169.925 36.8233C170.406 36.8303 170.879 36.8095 171.359 36.8303C171.966 36.851 172.573 36.7749 173.18 36.9272C173.561 37.0241 173.934 36.7956 174.328 36.8164C174.714 36.8303 174.734 36.7541 174.608 36.3663C174.314 35.3 173.547 34.4968 173.007 33.5551ZM169.305 28.1125C169.258 28.1125 169.218 28.0918 169.192 28.0641C169.218 28.0918 169.258 28.1125 169.305 28.1125ZM163.262 16.9643C163.262 16.9782 163.262 16.992 163.262 16.999C163.262 16.992 163.262 16.9782 163.262 16.9643Z" fill="#043525"/>
<path d="M148.701 32.5371C148.267 32.274 147.814 32.0593 147.407 31.7269C147.16 31.5261 146.847 31.3253 146.493 31.2769C145.446 31.1315 144.425 30.9307 143.332 31.1661C142.398 31.3669 141.411 31.3253 140.443 31.2769C140.07 31.2561 139.643 31.2838 139.336 31.1038C139.129 30.986 138.943 30.8476 138.742 30.7229C138.696 30.6537 138.622 30.6191 138.536 30.6052C138.382 30.5221 138.229 30.4529 138.049 30.4044C137.869 30.3559 137.695 30.169 137.468 30.1482C137.288 30.1274 137.108 30.0928 137.175 29.8089C137.195 29.7189 137.142 29.6289 137.028 29.6358C136.982 29.5596 136.915 29.5389 136.835 29.5596C136.808 29.4973 136.761 29.4835 136.701 29.4904C136.601 29.2342 136.241 29.255 136.161 28.9711C136.061 28.611 135.928 28.2856 135.568 28.1194C135.487 28.0848 135.474 27.9947 135.481 27.9116C135.494 27.7801 135.421 27.697 135.341 27.6139C135.094 27.3785 135.014 27.0738 135.034 26.7414C135.041 26.6099 135.061 26.4783 134.994 26.3675C134.794 26.0005 134.807 25.5851 134.767 25.1904C134.74 24.9203 134.434 24.6641 134.707 24.3733C134.707 24.3664 134.7 24.3525 134.694 24.3456C134.4 24.0063 134.7 23.6463 134.747 23.3485C134.82 22.8984 134.987 22.4553 134.961 21.9844C135.001 21.8321 135.027 21.6659 135.087 21.5274C135.234 21.195 135.287 20.7796 135.741 20.7103C135.921 20.6826 135.921 20.5303 135.908 20.3918C135.888 20.2395 135.868 20.0525 136.014 19.9902C136.248 19.8863 136.421 19.7825 136.368 19.4778C136.361 19.4293 136.401 19.3947 136.455 19.3947C136.808 19.3601 137.002 19.0346 137.288 18.8754C137.689 18.6469 138.069 18.363 138.456 18.1345C138.936 17.8506 139.53 17.7536 140.11 17.8021C140.93 17.8298 141.751 17.6913 142.571 17.8229C142.658 17.8367 142.745 17.809 142.831 17.8021C143.031 17.8021 143.231 17.7952 143.432 17.809C144.239 17.8575 145.052 17.8229 145.859 17.7883C146.073 17.7813 146.293 17.7675 146.446 17.5944C146.667 17.3451 146.9 17.1512 147.26 17.172C147.394 17.1789 147.487 17.0474 147.587 16.9504C147.654 16.8812 147.714 16.7842 147.827 16.7773C148.467 16.7219 148.768 16.1887 149.135 15.7525C149.268 15.5933 149.301 15.3509 149.101 15.2332C148.768 15.0324 148.481 14.7485 148.101 14.6515C147.874 14.5961 147.72 14.5131 147.654 14.2638C147.614 14.1114 147.48 13.9868 147.314 13.973C146.927 13.9314 146.64 13.6337 146.273 13.5437C146.146 13.516 146.006 13.4259 145.946 13.2667C145.9 13.142 145.786 13.0797 145.666 13.0382C145.086 12.8581 144.492 12.7197 143.905 12.5673C143.231 12.3942 142.524 12.3734 141.824 12.325C141.004 12.2765 140.19 12.4496 139.376 12.4842C138.969 12.505 138.542 12.4635 138.156 12.6089C137.635 12.8027 137.115 12.9897 136.555 13.0382C136.468 13.0451 136.395 13.0797 136.368 13.1628C136.235 13.6129 135.794 13.5713 135.501 13.7652C135.201 13.9591 134.634 13.7514 134.614 14.3815C134.614 14.4092 134.574 14.4438 134.547 14.4507C134.2 14.5615 133.98 14.8316 133.713 15.0739C133.473 15.2886 133.053 15.2886 133.046 15.7594C133.046 15.7664 133.033 15.7802 133.02 15.7802C132.706 15.8772 132.613 16.1403 132.453 16.4034C132.333 16.6111 132.039 16.7565 131.872 17.0197C131.806 17.1305 131.652 17.1512 131.732 17.3451C131.786 17.4628 131.652 17.5113 131.585 17.5875C131.359 17.8714 130.925 18.0029 130.898 18.4115C130.858 18.9793 130.458 19.3462 130.258 19.8171C130.011 20.3918 129.838 20.9665 129.751 21.5759C129.725 21.7905 129.704 22.0121 129.671 22.2268C129.618 22.6145 129.498 22.9884 129.571 23.3901C129.584 23.4731 129.564 23.577 129.524 23.6532C129.444 23.8124 129.444 23.9786 129.438 24.1517C129.398 25.1488 129.664 26.1182 129.638 27.1153C129.638 27.1777 129.658 27.24 129.711 27.2538C129.925 27.33 129.878 27.4477 129.778 27.5931C129.738 27.6485 129.711 27.7385 129.771 27.7801C129.931 27.8978 129.831 28.0848 129.885 28.2025C130.018 28.521 130.158 28.8326 130.178 29.1788C130.178 29.1857 130.191 29.1996 130.198 29.2065C130.592 29.345 130.572 29.7881 130.698 30.072C130.838 30.3906 130.978 30.7506 131.119 31.0691C131.292 31.4638 131.679 31.7546 131.779 32.2255C131.792 32.2947 131.912 32.3363 131.979 32.3917C132.019 32.5025 132.086 32.5717 132.206 32.544C132.186 32.8418 132.179 33.1257 132.586 33.1464C132.633 33.1464 132.746 33.2295 132.699 33.3542C132.659 33.4788 132.739 33.5134 132.833 33.5411C133 33.5896 133.16 33.6658 133.34 33.6588C133.346 33.7835 133.3 33.9358 133.386 34.0189C133.833 34.4413 134.254 34.926 134.934 34.9121C134.954 35.0991 134.78 35.3691 135.114 35.4315C135.434 35.4938 135.728 35.6807 136.074 35.6046C136.221 35.7708 136.455 35.8331 136.501 36.1239C136.521 36.2416 136.781 36.2624 136.948 36.2832C137.055 36.297 137.162 36.297 137.268 36.3386C137.875 36.574 138.496 36.7748 139.156 36.7055C140.117 36.7055 141.077 36.7055 142.044 36.7125C142.104 36.7332 142.171 36.7748 142.231 36.7679C142.758 36.6848 143.298 36.7609 143.825 36.6986C144.099 36.664 144.359 36.5324 144.545 36.297C144.926 36.2901 145.339 36.4078 145.633 36.0131C145.679 35.9508 145.779 35.9162 145.859 35.8954C146.32 35.7431 146.827 35.563 147.153 35.2653C147.654 34.8152 148.274 34.6075 148.768 34.1712C149.375 33.6173 149.375 32.9387 148.701 32.5371Z" fill="#043525"/>
</g>
<defs>
<clipPath id="clip0">
<rect width="202.146" height="50" fill="white"/>
</clipPath>
</defs>
</svg>
