<svg width="16" height="14" viewBox="0 0 16 14" fill="none" xmlns="http://www.w3.org/2000/svg">
<path d="M7.26923 5.01918C7.26923 5.01918 7.5 1.11918 10.2692 1.00099C12.4615 1.00099 12.9231 1.94645 12.9231 1.94645C13.6154 1.71009 14.1923 1.35554 14.7692 0.882812C14.7692 1.5919 14.4231 2.18281 14.0769 2.65554C14.5385 2.65554 14.8846 2.53736 15.2308 2.18281C15.1154 2.77372 14.6538 3.36463 14.0769 3.60099C14.1923 6.08281 13.6154 8.56463 12.2308 10.5737C10.0385 13.7646 6.46154 14.001 4.5 14.001C2.88462 13.8828 1.38462 13.4101 0 12.701C0 12.701 3 12.701 4.26923 11.7555C3.23077 10.9283 2.30769 10.101 1.38462 9.27372C1.73077 9.27372 2.07692 9.27372 2.42308 9.15554C1.5 8.0919 0.692308 6.91008 0 5.72827C0.346154 5.72827 0.807692 5.72827 1.15385 5.72827C1.15385 5.72827 -0.576923 2.8919 0.230769 1.00099C0.230769 1.00099 3.11538 4.78281 7.26923 5.01918Z" fill="#1C1B1D"/>
</svg>
