<svg width="17" height="17" viewBox="0 0 17 17" fill="none" xmlns="http://www.w3.org/2000/svg">
<path fill-rule="evenodd" clip-rule="evenodd" d="M4.53812 0H12.4618C14.983 0 16.9999 2.01694 16.9999 4.53812V12.4618C16.9999 14.983 14.983 16.9999 12.4618 16.9999H4.53812C2.01694 16.9999 0 14.983 0 12.4618V4.53812C0 2.01694 2.01694 0 4.53812 0ZM3.96185 8.49996C3.96185 11.0211 5.97879 13.0381 8.49996 13.0381C11.0211 13.0381 13.0381 11.0211 13.0381 8.49996C13.0381 5.97879 11.0211 3.96185 8.49996 3.96185C6.05082 3.96185 3.96185 6.05082 3.96185 8.49996ZM12.6779 3.45761C12.6779 4.10592 13.2542 4.68218 13.9025 4.68218C14.5508 4.68218 15.1271 4.10592 15.1271 3.45761C15.1271 2.80931 14.5508 2.23304 13.9025 2.23304C13.2542 2.23304 12.6779 2.80931 12.6779 3.45761ZM5.69094 8.4999C5.69094 6.91516 6.98754 5.69058 8.50025 5.69058C10.085 5.69058 11.3096 6.98719 11.3096 8.4999C11.3096 10.0846 10.013 11.3092 8.50025 11.3092C6.91551 11.3092 5.69094 10.0126 5.69094 8.4999Z" fill="#1C1B1D"/>
</svg>
