<svg width="70" height="70" viewBox="0 0 70 70" fill="none" xmlns="http://www.w3.org/2000/svg">
<path fill-rule="evenodd" clip-rule="evenodd" d="M50.75 14.8121L25.2841 0L0 14.7646V43.8551L25.0683 58.9637L50.75 43.4875V14.8121Z" fill="#111111" fill-opacity="0.03"/>
<path d="M25.2846 0.578716L50.25 15.0997V43.205L25.0684 58.3799L0.5 43.5727V15.0517L25.2846 0.578716Z" stroke="black" stroke-opacity="0.05"/>
<g clip-path="url(#clip0)">
<path d="M68.9561 44.755H40.0808L42.3789 40.8105C42.6673 40.3156 42.4962 39.6828 41.9968 39.3972L34.8164 35.2889C34.5767 35.1518 34.2919 35.1147 34.0242 35.1856C33.7567 35.2566 33.5287 35.4299 33.3903 35.6676L27.9519 45.0023C27.6549 44.5838 27.2673 44.2306 26.8069 43.9672C25.087 42.9831 22.8796 43.5691 21.8867 45.2737C21.3874 46.1309 21.289 47.11 21.533 47.9969C21.5274 47.9984 21.5216 47.9995 21.516 48.0011C20.5867 48.2478 19.8099 48.8384 19.3289 49.6641C18.8478 50.4897 18.72 51.4517 18.969 52.3726C19.218 53.2935 19.814 54.0633 20.6473 54.54C21.1079 54.8036 21.6106 54.9584 22.125 55.0041L16.6858 64.3397C16.5474 64.5774 16.5098 64.8597 16.5815 65.1248C16.6532 65.3899 16.8281 65.6158 17.0679 65.753L24.2483 69.8613C24.4128 69.9553 24.5922 70 24.7694 70C25.1302 70 25.4811 69.8145 25.6745 69.4826L37.0089 50.028V68.9651C37.0089 69.5365 37.4763 69.9997 38.0529 69.9997H68.9561C69.5328 69.9997 70.0002 69.5365 70.0002 68.9651V45.7897C70.0002 45.2182 69.5328 44.755 68.9561 44.755ZM34.6765 37.5982L40.0487 40.6718L33.9933 51.0655L28.6211 47.9918L34.6765 37.5982ZM31.4876 55.3663L26.1155 52.2926L27.5771 49.7838L32.9493 52.8574L31.4876 55.3663ZM23.6949 46.3082C23.975 45.8274 24.4849 45.5584 25.0085 45.5584C25.2652 45.5584 25.5251 45.6231 25.7629 45.759C26.4858 46.1727 26.7343 47.0918 26.3171 47.8083L25.56 49.1077L24.2491 48.3576C23.5261 47.9439 23.2775 47.0246 23.6949 46.3082ZM23.759 52.1988C23.3417 52.9152 22.4141 53.1616 21.691 52.748C20.9681 52.3343 20.7195 51.4151 21.1369 50.6986C21.3391 50.3516 21.6655 50.1034 22.0562 49.9996C22.1866 49.9651 22.319 49.9479 22.4504 49.9479C22.7127 49.9479 22.9716 50.0161 23.2049 50.1495L24.5159 50.8996L23.759 52.1988ZM24.3882 67.552L19.0161 64.4784L25.0714 54.0847L30.4436 57.1583L24.3882 67.552ZM39.0969 46.8243H49.9548V67.9305H39.0969V46.8243ZM67.9121 67.9305H57.0542V62.3175C57.0542 61.746 56.5868 61.2828 56.0102 61.2828C55.4336 61.2828 54.9662 61.746 54.9662 62.3175V67.9305H52.0429V46.8243H54.9662V53.0059C54.9662 53.5773 55.4336 54.0405 56.0102 54.0405C56.5868 54.0405 57.0542 53.5773 57.0542 53.0059V46.8243H67.9121V67.9305Z" fill="#CC0A0A"/>
<path d="M53.5045 41.4383C54.0811 41.4383 54.5485 40.9751 54.5485 40.4037V29.2177C54.5485 28.6463 54.0811 28.1831 53.5045 28.1831C52.9279 28.1831 52.4604 28.6463 52.4604 29.2177V40.4037C52.4604 40.9751 52.9279 41.4383 53.5045 41.4383Z" fill="#CC0A0A"/>
<path d="M59.8409 41.4381C60.4175 41.4381 60.8849 40.9749 60.8849 40.4035C60.8849 36.4544 62.4368 32.7416 65.2547 29.9493C65.6623 29.5452 65.6623 28.8901 65.2547 28.486C64.847 28.082 64.1859 28.082 63.7782 28.486C60.566 31.6693 58.7969 35.9017 58.7969 40.4035C58.7969 40.9749 59.2643 41.4381 59.8409 41.4381Z" fill="#CC0A0A"/>
<path d="M46.1237 40.4036C46.1237 40.975 46.5911 41.4383 47.1677 41.4383C47.7444 41.4383 48.2118 40.975 48.2118 40.4036C48.2118 35.9018 46.4428 31.6693 43.2305 28.4861C42.8228 28.0821 42.1617 28.0821 41.754 28.4862C41.3463 28.8902 41.3463 29.5454 41.7541 29.9494C44.5719 32.7417 46.1237 36.4545 46.1237 40.4036Z" fill="#CC0A0A"/>
<path d="M58.3766 20.4759C58.9532 20.4759 59.4206 20.0127 59.4206 19.4413V18.0618C59.4206 17.4904 58.9532 17.0272 58.3766 17.0272C57.7999 17.0272 57.3325 17.4904 57.3325 18.0618V19.4413C57.3325 20.0128 57.7999 20.4759 58.3766 20.4759Z" fill="#CC0A0A"/>
<path d="M58.3766 27.3734C58.9532 27.3734 59.4206 26.9102 59.4206 26.3388V24.9592C59.4206 24.3878 58.9532 23.9246 58.3766 23.9246C57.7999 23.9246 57.3325 24.3878 57.3325 24.9592V26.3388C57.3325 26.9102 57.7999 27.3734 58.3766 27.3734Z" fill="#CC0A0A"/>
<path d="M61.1607 23.2348H62.5527C63.1294 23.2348 63.5968 22.7716 63.5968 22.2002C63.5968 21.6287 63.1294 21.1655 62.5527 21.1655H61.1607C60.5841 21.1655 60.1167 21.6287 60.1167 22.2002C60.1167 22.7716 60.5841 23.2348 61.1607 23.2348Z" fill="#CC0A0A"/>
<path d="M54.2003 23.2348H55.5924C56.169 23.2348 56.6364 22.7716 56.6364 22.2002C56.6364 21.6287 56.169 21.1655 55.5924 21.1655H54.2003C53.6237 21.1655 53.1562 21.6287 53.1562 22.2002C53.1562 22.7716 53.6237 23.2348 54.2003 23.2348Z" fill="#CC0A0A"/>
<path d="M36.982 27.0679C38.8242 27.0679 40.3229 25.5827 40.3229 23.7571C40.3229 21.9315 38.8242 20.4463 36.982 20.4463C35.1398 20.4463 33.6411 21.9315 33.6411 23.7571C33.6411 25.5827 35.1398 27.0679 36.982 27.0679ZM36.982 22.5155C37.6729 22.5155 38.2349 23.0725 38.2349 23.7571C38.2349 24.4417 37.6729 24.9986 36.982 24.9986C36.2912 24.9986 35.7292 24.4417 35.7292 23.7571C35.7292 23.0725 36.2913 22.5155 36.982 22.5155Z" fill="#CC0A0A"/>
<path d="M47.1681 23.683C47.4426 23.683 47.712 23.5733 47.9062 23.3799C48.1004 23.1874 48.2121 22.9215 48.2121 22.6484C48.2121 22.3763 48.1004 22.1094 47.9062 21.9169C47.712 21.7245 47.4426 21.6138 47.1681 21.6138C46.8935 21.6138 46.624 21.7245 46.4289 21.9169C46.2347 22.1094 46.124 22.3763 46.124 22.6484C46.124 22.9205 46.2347 23.1874 46.4289 23.3799C46.624 23.5733 46.8924 23.683 47.1681 23.683Z" fill="#CC0A0A"/>
<path d="M65.6746 37.6864C65.8687 37.8788 66.1381 37.9895 66.4127 37.9895C66.6873 37.9895 66.9566 37.8788 67.1508 37.6864C67.3461 37.494 67.4567 37.227 67.4567 36.9549C67.4567 36.6828 67.3461 36.4159 67.1508 36.2234C66.9566 36.031 66.6873 35.9203 66.4127 35.9203C66.1381 35.9203 65.8687 36.031 65.6746 36.2234C65.4804 36.4159 65.3687 36.6828 65.3687 36.9549C65.3685 37.227 65.4804 37.494 65.6746 37.6864Z" fill="#CC0A0A"/>
<path d="M68.9561 25.9944C69.2307 25.9944 69.5001 25.8837 69.6943 25.6913C69.8885 25.4988 70.0002 25.2319 70.0002 24.9598C70.0002 24.6867 69.8885 24.4208 69.6943 24.2273C69.5001 24.0348 69.2307 23.9252 68.9561 23.9252C68.6816 23.9252 68.4122 24.0348 68.218 24.2273C68.0238 24.4208 67.9121 24.6867 67.9121 24.9598C67.9121 25.2319 68.0238 25.4988 68.218 25.6913C68.4122 25.8837 68.6815 25.9944 68.9561 25.9944Z" fill="#CC0A0A"/>
<path d="M56.0099 56.6271C55.7353 56.6271 55.4659 56.7367 55.2717 56.9302C55.0775 57.1227 54.9658 57.3886 54.9658 57.6617C54.9658 57.9338 55.0775 58.2007 55.2717 58.3932C55.4659 58.5856 55.7353 58.6963 56.0099 58.6963C56.2844 58.6963 56.5538 58.5856 56.748 58.3932C56.9422 58.2007 57.0539 57.9338 57.0539 57.6617C57.0539 57.3886 56.9422 57.1227 56.748 56.9302C56.5538 56.7367 56.2844 56.6271 56.0099 56.6271Z" fill="#CC0A0A"/>
</g>
<defs>
<clipPath id="clip0">
<rect width="53.4546" height="52.9727" fill="white" transform="translate(16.5454 17.0272)"/>
</clipPath>
</defs>
</svg>
