<svg width="70" height="70" viewBox="0 0 70 70" fill="none" xmlns="http://www.w3.org/2000/svg">
<path fill-rule="evenodd" clip-rule="evenodd" d="M50.75 14.8094L25.2841 0L0 14.762V43.8473L25.0683 58.9532L50.75 43.4797V14.8094Z" fill="#111111" fill-opacity="0.03"/>
<path d="M25.2846 0.57869L50.25 15.0971V43.1972L25.0684 58.3694L0.5 43.5648V15.0491L25.2846 0.57869Z" stroke="black" stroke-opacity="0.05"/>
<path d="M16.5454 52.3408C16.5449 53.1382 16.7625 53.9208 17.1752 54.6054C17.5879 55.29 18.1801 55.851 18.889 56.2286C19.5978 56.6062 20.3967 56.7863 21.2007 56.7498C22.0047 56.7133 22.7836 56.4615 23.4546 56.0213L30.6487 63.1493C30.287 63.6921 30.0509 64.3075 29.9573 64.9513C29.8636 65.5952 29.9148 66.2516 30.1072 66.8735C30.2995 67.4954 30.6283 68.0676 31.0699 68.5489C31.5115 69.0302 32.0551 69.4089 32.6616 69.6577C33.2682 69.9066 33.9228 70.0195 34.5786 69.9884C35.2344 69.9573 35.8751 69.7829 36.4549 69.4777C37.0347 69.1726 37.5392 68.7442 37.9324 68.2232C38.3255 67.7023 38.5976 67.1016 38.7291 66.4643H47.8175C47.9482 67.1024 48.2198 67.704 48.6128 68.2258C49.0058 68.7477 49.5104 69.1769 50.0906 69.4828C50.6707 69.7886 51.312 69.9635 51.9684 69.9948C52.6248 70.0262 53.28 69.9133 53.8872 69.6642C54.4944 69.4151 55.0384 69.036 55.4802 68.554C55.9221 68.0721 56.2509 67.4992 56.443 66.8765C56.6351 66.2539 56.6857 65.5968 56.5913 64.9524C56.4969 64.3081 56.2598 63.6924 55.897 63.1495L59.7725 59.3097L58.5125 58.0613L54.637 61.9011C54.0294 61.5023 53.3322 61.2575 52.6067 61.1881C51.8811 61.1187 51.1496 61.2269 50.4761 61.5032C49.8027 61.7794 49.208 62.2153 48.7444 62.7725C48.2807 63.3297 47.9622 63.9912 47.8169 64.6989H38.7291C38.4902 63.5497 37.8004 62.5416 36.8115 61.8962L37.3296 60.613L35.6751 59.9574L35.1576 61.2394C34.0292 61.0353 32.8649 61.2726 31.9095 61.9014L24.7154 54.7735C25.3501 53.8268 25.5896 52.6732 25.3836 51.5552L32.023 48.9239L31.3612 47.2847L24.7195 49.9161C24.0682 48.9362 23.0507 48.2527 21.8909 48.016V39.0117C23.0507 38.775 24.0682 38.0915 24.7195 37.1116L31.3601 39.7436L32.0218 38.1044L25.3823 35.4725C25.5884 34.3545 25.3488 33.2009 24.7142 32.2543L30.2601 26.7593L29.0007 25.5108L23.4547 31.0058C22.9069 30.6473 22.2858 30.4133 21.6359 30.3205C20.9861 30.2277 20.3236 30.2784 19.6958 30.469C19.0681 30.6595 18.4906 30.9853 18.0048 31.4228C17.519 31.8604 17.1368 32.399 16.8856 33C16.6344 33.601 16.5205 34.2497 16.5519 34.8994C16.5833 35.5492 16.7594 36.1841 17.0674 36.7585C17.3754 37.333 17.8078 37.8329 18.3337 38.2224C18.8595 38.612 19.4658 38.8815 20.109 39.0117V48.0166C19.1037 48.2213 18.2004 48.7632 17.5512 49.5509C16.9021 50.3386 16.5469 51.3239 16.5454 52.3408ZM52.1818 62.9334C52.7104 62.9334 53.2272 63.0888 53.6667 63.3797C54.1062 63.6707 54.4488 64.0843 54.6511 64.5682C54.8534 65.0521 54.9063 65.5845 54.8032 66.0982C54.7 66.6119 54.4455 67.0838 54.0717 67.4541C53.6979 67.8245 53.2217 68.0767 52.7032 68.1789C52.1848 68.2811 51.6474 68.2286 51.159 68.0282C50.6706 67.8278 50.2532 67.4883 49.9595 67.0528C49.6658 66.6174 49.5091 66.1054 49.5091 65.5816C49.5099 64.8795 49.7917 64.2064 50.2928 63.71C50.7939 63.2135 51.4732 62.9343 52.1818 62.9334ZM34.3636 62.9334C34.8922 62.9334 35.409 63.0888 35.8485 63.3797C36.288 63.6707 36.6306 64.0843 36.8329 64.5682C37.0352 65.0521 37.0881 65.5845 36.985 66.0982C36.8818 66.6119 36.6273 67.0838 36.2535 67.4541C35.8797 67.8245 35.4035 68.0767 34.885 68.1789C34.3666 68.2811 33.8292 68.2286 33.3408 68.0282C32.8524 67.8278 32.435 67.4883 32.1413 67.0528C31.8476 66.6174 31.6909 66.1054 31.6909 65.5816C31.6917 64.8795 31.9736 64.2064 32.4746 63.71C32.9757 63.2135 33.655 62.9343 34.3636 62.9334ZM18.3272 34.6864C18.3272 34.1626 18.484 33.6506 18.7777 33.2151C19.0713 32.7796 19.4888 32.4402 19.9772 32.2398C20.4655 32.0394 21.0029 31.9869 21.5214 32.0891C22.0398 32.1913 22.5161 32.4435 22.8899 32.8138C23.2637 33.1842 23.5182 33.656 23.6213 34.1697C23.7245 34.6834 23.6715 35.2159 23.4692 35.6998C23.2669 36.1837 22.9244 36.5973 22.4848 36.8882C22.0453 37.1792 21.5286 37.3345 21 37.3345C20.2914 37.3337 19.612 37.0545 19.111 36.558C18.6099 36.0616 18.3281 35.3885 18.3272 34.6864ZM21 49.6926C21.5286 49.6926 22.0453 49.8479 22.4848 50.1389C22.9244 50.4299 23.2669 50.8435 23.4692 51.3274C23.6715 51.8113 23.7245 52.3437 23.6213 52.8574C23.5182 53.3711 23.2637 53.843 22.8899 54.2133C22.5161 54.5837 22.0398 54.8359 21.5214 54.9381C21.0029 55.0403 20.4655 54.9878 19.9772 54.7874C19.4888 54.5869 19.0713 54.2475 18.7777 53.812C18.484 53.3765 18.3272 52.8646 18.3272 52.3408C18.3281 51.6387 18.6099 50.9656 19.111 50.4692C19.612 49.9727 20.2914 49.6935 21 49.6926ZM70 34.6864C70.0005 33.889 69.7829 33.1063 69.3702 32.4217C68.9575 31.7371 68.3653 31.1762 67.6564 30.7986C66.9476 30.421 66.1486 30.2409 65.3447 30.2774C64.5407 30.3139 63.7618 30.5656 63.0908 31.0059L55.8967 23.8779C56.2586 23.3351 56.495 22.7197 56.5888 22.0757C56.6826 21.4318 56.6315 20.7753 56.4392 20.1532C56.247 19.5311 55.9182 18.9589 55.4766 18.4774C55.035 17.9959 54.4913 17.6172 53.8847 17.3683C53.278 17.1193 52.6233 17.0064 51.9674 17.0376C51.3115 17.0687 50.6707 17.2432 50.0908 17.5485C49.511 17.8538 49.0064 18.2823 48.6133 18.8035C48.2202 19.3246 47.9482 19.9254 47.8169 20.5628H38.7291C38.5546 19.7101 38.1298 18.9273 37.5081 18.3128C36.8864 17.6983 36.0953 17.2793 35.2342 17.1085C34.3731 16.9376 33.4803 17.0225 32.6677 17.3524C31.8551 17.6824 31.1589 18.2427 30.6664 18.9632C30.174 19.6836 29.9072 20.5321 29.8995 21.4022C29.8918 22.2723 30.1436 23.1252 30.6233 23.8541C31.1029 24.583 31.7891 25.1553 32.5958 25.4993C33.4024 25.8432 34.2936 25.9436 35.1576 25.7877L35.6751 27.0697L37.3296 26.4141L36.8109 25.1309C37.8001 24.4857 38.4901 23.4775 38.7291 22.3283H47.8175C48.0563 23.4774 48.7461 24.4856 49.735 25.1309L48.8606 27.2969L50.5149 27.9525L51.3889 25.7878C52.5173 25.9919 53.6816 25.7546 54.637 25.1257L61.8311 32.2537C61.1964 33.2004 60.9569 34.354 61.1629 35.472L54.5236 38.1033L55.1853 39.7425L61.8259 37.1105C62.1483 37.5959 62.564 38.0137 63.0494 38.3399C63.5347 38.6661 64.0801 38.8944 64.6545 39.0117V48.0166C63.4947 48.2533 62.4772 48.9367 61.8259 49.9166L59.1944 48.8736L58.5326 50.5128L61.1629 51.5552C60.9569 52.6732 61.1964 53.8268 61.8311 54.7735L60.0716 56.5168L61.3316 57.7652L63.0911 56.0219C63.639 56.3804 64.2601 56.6145 64.91 56.7074C65.5599 56.8002 66.2225 56.7496 66.8503 56.559C67.4781 56.3684 68.0556 56.0427 68.5415 55.6051C69.0274 55.1675 69.4096 54.6288 69.6608 54.0277C69.9119 53.4266 70.0259 52.7779 69.9944 52.1281C69.9629 51.4783 69.7868 50.8434 69.4786 50.2689C69.1705 49.6944 68.738 49.1945 68.212 48.805C67.6861 48.4155 67.0797 48.1461 66.4363 48.016V39.0117C67.4419 38.8069 68.3453 38.2649 68.9945 37.477C69.6437 36.6891 69.9988 35.7035 70 34.6864ZM34.3636 24.0937C33.835 24.0937 33.3182 23.9384 32.8787 23.6474C32.4392 23.3564 32.0966 22.9429 31.8943 22.459C31.692 21.9751 31.6391 21.4426 31.7422 20.9289C31.8454 20.4152 32.0999 19.9434 32.4737 19.573C32.8475 19.2027 33.3237 18.9505 33.8422 18.8483C34.3606 18.7461 34.898 18.7985 35.3864 18.999C35.8748 19.1994 36.2922 19.5388 36.5859 19.9743C36.8796 20.4098 37.0363 20.9218 37.0363 21.4456C37.0355 22.1476 36.7537 22.8207 36.2526 23.3172C35.7515 23.8136 35.0722 24.0929 34.3636 24.0937ZM52.1818 24.0937C51.6532 24.0937 51.1364 23.9384 50.6969 23.6474C50.2574 23.3564 49.9148 22.9429 49.7125 22.459C49.5102 21.9751 49.4573 21.4426 49.5604 20.9289C49.6635 20.4152 49.9181 19.9434 50.2919 19.573C50.6657 19.2027 51.1419 18.9505 51.6604 18.8483C52.1788 18.7461 52.7162 18.7985 53.2046 18.999C53.693 19.1994 54.1104 19.5388 54.4041 19.9743C54.6978 20.4098 54.8545 20.9218 54.8545 21.4456C54.8537 22.1476 54.5718 22.8207 54.0708 23.3172C53.5697 23.8136 52.8904 24.0929 52.1818 24.0937ZM68.2182 52.3408C68.2182 52.8646 68.0614 53.3765 67.7677 53.812C67.474 54.2475 67.0566 54.5869 66.5682 54.7874C66.0799 54.9878 65.5425 55.0403 65.024 54.9381C64.5056 54.8359 64.0293 54.5837 63.6555 54.2133C63.2817 53.843 63.0272 53.3711 62.9241 52.8574C62.8209 52.3437 62.8739 51.8113 63.0762 51.3274C63.2785 50.8435 63.621 50.4299 64.0606 50.1389C64.5001 49.8479 65.0168 49.6926 65.5454 49.6926C66.254 49.6935 66.9334 49.9727 67.4344 50.4692C67.9355 50.9656 68.2173 51.6387 68.2182 52.3408ZM65.5454 37.3345C65.0168 37.3345 64.5001 37.1792 64.0606 36.8882C63.621 36.5973 63.2785 36.1837 63.0762 35.6998C62.8739 35.2159 62.8209 34.6834 62.9241 34.1697C63.0272 33.656 63.2817 33.1842 63.6555 32.8138C64.0293 32.4435 64.5056 32.1913 65.024 32.0891C65.5425 31.9869 66.0799 32.0394 66.5682 32.2398C67.0566 32.4402 67.474 32.7796 67.7677 33.2151C68.0614 33.6506 68.2182 34.1626 68.2182 34.6864C68.2173 35.3885 67.9355 36.0616 67.4344 36.558C66.9334 37.0545 66.254 37.3337 65.5454 37.3345ZM35.2545 35.5691V55.8717C35.2551 56.3397 35.443 56.7885 35.777 57.1194C36.111 57.4504 36.5639 57.6366 37.0363 57.6371H46.8363V59.4026H37.0363C36.0915 59.4015 35.1857 59.0292 34.5176 58.3672C33.8496 57.7053 33.4738 56.8078 33.4727 55.8717V35.5691H35.2545ZM55.7454 56.7544V47.1071C55.7467 46.6433 55.6551 46.1838 55.476 45.7552C55.2968 45.3267 55.0337 44.9376 54.7017 44.6105L53.0727 42.9965V49.327L54.5936 50.8339L53.3336 52.0823L51.5518 50.3168L48.5416 47.3343C48.4489 47.2424 48.3387 47.1695 48.2175 47.1198C48.0963 47.0701 47.9664 47.0445 47.8352 47.0445C47.7041 47.0445 47.5742 47.0701 47.453 47.1199C47.3318 47.1696 47.2216 47.2425 47.1289 47.3344C47.0361 47.4264 46.9626 47.5355 46.9124 47.6556C46.8622 47.7757 46.8363 47.9044 46.8364 48.0344C46.8364 48.1643 46.8622 48.293 46.9124 48.4131C46.9626 48.5332 47.0362 48.6423 47.129 48.7342L50.1391 51.7166C50.2847 51.8609 50.3754 52.0507 50.3957 52.2538C50.416 52.4569 50.3647 52.6607 50.2504 52.8305C49.7973 53.5059 49.5319 54.2878 49.4811 55.0972C49.4303 55.9067 49.5958 56.7151 49.9609 57.4409L50.3061 58.125C50.3679 58.2476 50.4001 58.3828 50.4 58.5198V59.4026H48.6182V58.7283L48.3669 58.2304C47.9177 57.3372 47.686 56.352 47.6907 55.354C47.6953 54.356 47.936 53.373 48.3935 52.4839L45.8689 49.9825C45.3511 49.465 45.0613 48.7653 45.0629 48.0367C45.0645 47.308 45.3574 46.6096 45.8775 46.0943C46.3975 45.5791 47.1024 45.2889 47.8379 45.2874C48.5733 45.2858 49.2795 45.573 49.8017 46.0861L51.2909 47.5615V32.0382C51.2903 31.5702 51.1024 31.1214 50.7684 30.7905C50.4343 30.4595 49.9815 30.2733 49.5091 30.2728H47.3869L46.7422 31.5503C46.6682 31.6969 46.5545 31.8202 46.4138 31.9064C46.273 31.9926 46.1109 32.0382 45.9454 32.0382H40.6C40.4345 32.0382 40.2724 31.9926 40.1316 31.9064C39.9909 31.8202 39.8772 31.6969 39.8032 31.5503L39.1585 30.2728H37.0363C36.5639 30.2733 36.111 30.4595 35.777 30.7905C35.443 31.1214 35.2551 31.5702 35.2545 32.0382V33.8037H33.4727V32.0382C33.4738 31.1021 33.8496 30.2046 34.5176 29.5427C35.1857 28.8807 36.0915 28.5084 37.0363 28.5073H49.5091C50.4539 28.5084 51.3597 28.8807 52.0278 29.5427C52.6958 30.2046 53.0716 31.1021 53.0727 32.0382V40.4998L55.9616 43.3621C56.4595 43.8527 56.8543 44.4364 57.123 45.0792C57.3918 45.7221 57.5292 46.4113 57.5273 47.1071V56.7544H55.7454ZM41.4909 54.1062H45.0545V55.8717H41.4909V54.1062ZM45.3154 43.2551C44.7733 42.719 44.0386 42.418 43.2727 42.418C42.5068 42.418 41.7721 42.719 41.23 43.2551L39.97 42.0067C40.8466 41.1401 42.0344 40.6534 43.2727 40.6534C44.511 40.6534 45.6988 41.1401 46.5754 42.0067L45.3154 43.2551ZM47.9882 41.0352C47.3689 40.4217 46.6338 39.935 45.8247 39.6029C45.0156 39.2709 44.1484 39.1 43.2727 39.1C42.397 39.1 41.5298 39.2709 40.7207 39.6029C39.9116 39.935 39.1765 40.4217 38.5572 41.0352L37.2973 39.787C38.8833 38.219 41.0322 37.3385 43.2727 37.3385C45.5132 37.3385 47.6621 38.219 49.2481 39.787L47.9882 41.0352ZM44.1636 46.1617V47.9272H42.3818V46.1617H44.1636ZM38.8182 46.1617H40.6V47.9272H38.8182V46.1617Z" fill="#CC0A0A"/>
</svg>
