<svg width="70" height="71" viewBox="0 0 70 71" fill="none" xmlns="http://www.w3.org/2000/svg">
<path fill-rule="evenodd" clip-rule="evenodd" d="M50.75 14.812L25.2841 0L0 14.7645V43.8548L25.0683 58.9633L50.75 43.4872V14.812Z" fill="#111111" fill-opacity="0.03"/>
<path d="M25.2846 0.578715L50.25 15.0996V43.2047L25.0683 58.3795L0.5 43.5724V15.0516L25.2846 0.578715Z" stroke="black" stroke-opacity="0.05"/>
<path d="M48.2842 27.7931H45.7785V25.31C45.7785 25.0905 45.6905 24.8799 45.5339 24.7247C45.3773 24.5695 45.1648 24.4823 44.9433 24.4823H41.6024C41.3809 24.4823 41.1684 24.5695 41.0118 24.7247C40.8552 24.8799 40.7672 25.0905 40.7672 25.31V27.7931H38.2615C38.04 27.7931 37.8275 27.8803 37.6709 28.0355C37.5143 28.1907 37.4263 28.4012 37.4263 28.6208V31.9315C37.4263 32.1511 37.5143 32.3616 37.6709 32.5168C37.8275 32.672 38.04 32.7592 38.2615 32.7592H40.7672V35.2423C40.7672 35.4618 40.8552 35.6724 41.0118 35.8276C41.1684 35.9828 41.3809 36.07 41.6024 36.07H44.9433C45.1648 36.07 45.3773 35.9828 45.5339 35.8276C45.6905 35.6724 45.7785 35.4618 45.7785 35.2423V32.7592H48.2842C48.5057 32.7592 48.7182 32.672 48.8748 32.5168C49.0315 32.3616 49.1195 32.1511 49.1195 31.9315V28.6208C49.1195 28.4012 49.0315 28.1907 48.8748 28.0355C48.7182 27.8803 48.5057 27.7931 48.2842 27.7931ZM47.449 31.1038H44.9433C44.7218 31.1038 44.5094 31.191 44.3527 31.3463C44.1961 31.5015 44.1081 31.712 44.1081 31.9315V34.4146H42.4376V31.9315C42.4376 31.712 42.3496 31.5015 42.193 31.3463C42.0364 31.191 41.8239 31.1038 41.6024 31.1038H39.0967V29.4485H41.6024C41.8239 29.4485 42.0364 29.3613 42.193 29.206C42.3496 29.0508 42.4376 28.8403 42.4376 28.6208V26.1377H44.1081V28.6208C44.1081 28.8403 44.1961 29.0508 44.3527 29.206C44.5094 29.3613 44.7218 29.4485 44.9433 29.4485H47.449V31.1038Z" fill="#CC0A0A"/>
<path d="M66.4335 32.2212C66.4504 32.0756 66.4588 31.9291 66.4586 31.7825C66.4545 31.0239 66.189 30.2893 65.7059 29.7007C65.2228 29.1121 64.5513 28.7048 63.8026 28.5463C62.9557 28.3865 62.0792 28.5515 61.3504 29.0079C60.6216 29.4643 60.095 30.1779 59.877 31.0045L56.202 41.4831C56.1475 41.5045 56.0945 41.5294 56.0433 41.5576L48.6599 45.8451C47.5301 46.5027 46.593 47.4411 45.9411 48.5676C45.2893 49.694 44.9453 50.9695 44.9431 52.268V60.0648C44.7216 60.0648 44.5092 60.152 44.3525 60.3072C44.1959 60.4625 44.1079 60.673 44.1079 60.8925V67.5141C44.1079 67.7336 44.1959 67.9441 44.3525 68.0993C44.5092 68.2546 44.7216 68.3418 44.9431 68.3418H56.6363C56.8578 68.3418 57.0703 68.2546 57.2269 68.0993C57.3836 67.9441 57.4715 67.7336 57.4715 67.5141V60.8925C57.4715 60.673 57.3836 60.4625 57.2269 60.3072C57.0703 60.152 56.8578 60.0648 56.6363 60.0648V58.2439C56.6379 57.8943 56.713 57.5489 56.8568 57.2297C57.0006 56.9104 57.21 56.6244 57.4715 56.3899L63.1177 51.4154C63.7353 50.8799 64.1774 50.1738 64.3872 49.3876L68.0121 35.9541C68.0895 35.6736 68.1288 35.3841 68.1291 35.0933C68.1258 34.5092 67.9674 33.9363 67.6697 33.4321C67.3721 32.9279 66.9457 32.5103 66.4335 32.2212ZM61.4723 31.4928C61.5748 31.0648 61.8364 30.6908 62.2048 30.4453C62.5732 30.1999 63.0214 30.1011 63.4601 30.1685C63.8345 30.2462 64.1706 30.4489 64.4123 30.7427C64.654 31.0364 64.7867 31.4035 64.7881 31.7825V31.7991C64.0421 31.8128 63.321 32.0677 62.7345 32.5248C62.148 32.982 61.7283 33.6165 61.5391 34.3318L59.2088 41.4583C58.856 41.2924 58.4778 41.1861 58.0896 41.1438L61.4723 31.4928ZM55.8011 66.6864H45.7784V61.7202H55.8011V66.6864ZM66.4001 35.5237L62.7669 48.9655C62.6412 49.4325 62.3798 49.8527 62.0152 50.1739L56.3607 55.1483C55.9232 55.5393 55.573 56.0167 55.3328 56.5499C55.0926 57.083 54.9676 57.66 54.9659 58.2439V60.0648H46.6136V52.268C46.6177 51.2581 46.8862 50.2666 47.3927 49.3903C47.8993 48.5141 48.6265 47.7831 49.5035 47.2687L56.8785 42.9895C57.0687 42.8797 57.2789 42.8082 57.497 42.7792C57.7151 42.7501 57.9369 42.7641 58.1495 42.8202C58.3622 42.8764 58.5616 42.9736 58.7362 43.1064C58.9108 43.2391 59.0572 43.4047 59.1671 43.5937C59.384 43.9762 59.4438 44.4268 59.3341 44.8518C59.2761 45.0617 59.1769 45.2582 59.0422 45.43C58.9075 45.6019 58.7399 45.7457 58.549 45.8533L53.7631 48.593C53.5813 48.7075 53.4512 48.8872 53.4 49.0946C53.3487 49.3019 53.3803 49.5209 53.4881 49.7057C53.5959 49.8905 53.7716 50.0269 53.9785 50.0864C54.1854 50.1459 54.4075 50.1239 54.5984 50.0249L59.3842 47.2852C59.7668 47.0702 60.102 46.7814 60.3702 46.436C60.6385 46.0906 60.8343 45.6955 60.9461 45.2739C61.1735 44.4271 61.0533 43.5254 60.612 42.766L60.5619 42.6915L63.1427 34.8036C63.2453 34.3756 63.5068 34.0016 63.8752 33.7561C64.2437 33.5107 64.6919 33.4118 65.1306 33.4793C65.505 33.557 65.8411 33.7597 66.0828 34.0534C66.3245 34.3472 66.4572 34.7143 66.4586 35.0933C66.4614 35.2389 66.4417 35.3841 66.4001 35.5237Z" fill="#CC0A0A"/>
<path d="M41.6024 60.0621V52.2652C41.6002 50.9667 41.2563 49.6913 40.6044 48.5648C39.9526 47.4384 39.0155 46.5 37.8856 45.8423L30.5022 41.5466C30.4521 41.5218 30.3937 41.5052 30.3435 41.4804L26.6936 31.0597C26.4815 30.2211 25.9548 29.4941 25.2209 29.0266C24.487 28.5592 23.6009 28.3864 22.743 28.5435C21.9943 28.7021 21.3227 29.1094 20.8397 29.698C20.3566 30.2866 20.091 31.0211 20.087 31.7798C20.0867 31.9264 20.0951 32.0729 20.112 32.2185C19.5998 32.5076 19.1735 32.9252 18.8758 33.4294C18.5782 33.9335 18.4198 34.5065 18.4165 35.0906C18.4181 35.3808 18.4546 35.6697 18.5251 35.9514L22.1583 49.3766C22.3659 50.1661 22.8083 50.8755 23.4279 51.4127L29.0657 56.3871C29.3299 56.6201 29.5415 56.9056 29.6869 57.225C29.8323 57.5445 29.908 57.8907 29.9092 58.2412V60.0621C29.6877 60.0621 29.4753 60.1493 29.3186 60.3045C29.162 60.4598 29.074 60.6703 29.074 60.8898V67.5113C29.074 67.7309 29.162 67.9414 29.3186 68.0966C29.4753 68.2518 29.6877 68.339 29.9092 68.339H41.6024C41.8239 68.339 42.0364 68.2518 42.193 68.0966C42.3496 67.9414 42.4376 67.7309 42.4376 67.5113V60.8898C42.4376 60.6703 42.3496 60.4598 42.193 60.3045C42.0364 60.1493 41.8239 60.0621 41.6024 60.0621ZM21.7574 31.7798C21.7584 31.4019 21.8899 31.0358 22.13 30.7422C22.37 30.4485 22.7042 30.2452 23.0771 30.1658C23.5278 30.101 23.9866 30.2074 24.3615 30.4638C24.7364 30.7201 24.9996 31.1074 25.0983 31.5481L28.4559 41.141C28.0678 41.1834 27.6895 41.2897 27.3367 41.4556L25.0232 34.3705C24.8349 33.6481 24.4143 33.0062 23.8251 32.5417C23.2359 32.0773 22.51 31.8156 21.7574 31.7964V31.7798ZM30.1765 55.1456L24.5304 50.1712C24.1637 49.8483 23.9021 49.4249 23.7787 48.9545L20.1371 35.521C20.1025 35.3801 20.0857 35.2356 20.087 35.0906C20.088 34.7127 20.2195 34.3465 20.4595 34.0529C20.6996 33.7593 21.0338 33.5559 21.4066 33.4766C21.8542 33.41 22.3106 33.5139 22.684 33.7672C23.0575 34.0206 23.3202 34.4047 23.4195 34.8423L25.9837 42.6888L25.9335 42.7633C25.4922 43.5227 25.3721 44.4243 25.5995 45.2712C25.7113 45.6928 25.9071 46.0879 26.1753 46.4333C26.4435 46.7787 26.7788 47.0674 27.1613 47.2825L31.9472 50.0222C32.1381 50.1211 32.3602 50.1432 32.567 50.0837C32.7739 50.0242 32.9496 49.8878 33.0574 49.703C33.1653 49.5182 33.1968 49.2992 33.1456 49.0919C33.0943 48.8845 32.9642 48.7048 32.7824 48.5903L27.9966 45.8506C27.8057 45.743 27.6381 45.5992 27.5034 45.4273C27.3687 45.2555 27.2695 45.059 27.2114 44.8491C27.1017 44.4241 27.1615 43.9735 27.3785 43.591C27.4876 43.4024 27.6332 43.237 27.8068 43.1041C27.9805 42.9713 28.1788 42.8736 28.3906 42.8168C28.6023 42.7599 28.8233 42.7449 29.0408 42.7727C29.2584 42.8004 29.4684 42.8704 29.6587 42.9785L37.0421 47.266C37.919 47.7803 38.6463 48.5114 39.1528 49.3876C39.6594 50.2639 39.9278 51.2554 39.932 52.2652V60.0621H31.5797V58.2412C31.5783 57.6565 31.4526 57.0786 31.2108 56.5453C30.969 56.0119 30.6166 55.535 30.1765 55.1456ZM40.7672 66.6837H30.7445V61.7175H40.7672V66.6837Z" fill="#CC0A0A"/>
<path d="M55.0889 21.2758C54.3135 20.5061 53.3926 19.8955 52.3788 19.4788C51.365 19.0622 50.2782 18.8478 49.1807 18.8479C48.0832 18.848 46.9965 19.0625 45.9828 19.4793C44.969 19.896 44.0482 20.5068 43.2729 21.2766C42.4977 20.5068 41.5769 19.896 40.5632 19.4793C39.5495 19.0625 38.4628 18.848 37.3654 18.848C36.2679 18.848 35.1812 19.0625 34.1675 19.4793C33.1538 19.896 32.233 20.5068 31.4578 21.2766C29.8945 22.8291 29.0166 24.9328 29.0166 27.126C29.0166 29.3192 29.8945 31.4228 31.4578 32.9753L42.6833 44.0995C42.8399 44.2546 43.0523 44.3418 43.2738 44.3418C43.4952 44.3418 43.7076 44.2546 43.8643 44.0995L55.0897 32.9753C56.6529 31.4225 57.5307 29.3187 57.5306 27.1254C57.5304 24.932 56.6523 22.8283 55.0889 21.2758ZM43.2729 42.3439L32.638 31.8049C31.7043 30.8784 31.0688 29.6984 30.8118 28.414C30.5547 27.1296 30.6878 25.7985 31.194 24.589C31.7002 23.3796 32.557 22.346 33.6559 21.6189C34.7548 20.8919 36.0466 20.504 37.3679 20.5044C38.2456 20.5014 39.1151 20.6717 39.9258 21.0052C40.7364 21.3387 41.4719 21.8288 42.0894 22.447L42.6824 23.0347C42.8391 23.1898 43.0515 23.277 43.2729 23.277C43.4944 23.277 43.7068 23.1898 43.8634 23.0347L44.4581 22.4454C45.0782 21.8298 45.8147 21.3414 46.6254 21.0082C47.4362 20.6749 48.3053 20.5034 49.183 20.5034C50.0607 20.5034 50.9298 20.6749 51.7406 21.0082C52.5513 21.3414 53.2878 21.8298 53.9079 22.4454C55.159 23.6869 55.8617 25.3697 55.8617 27.1243C55.8617 28.8789 55.159 30.5617 53.9079 31.8033L43.2729 42.3439Z" fill="#CC0A0A"/>
</svg>
