<svg width="70" height="70" viewBox="0 0 70 70" fill="none" xmlns="http://www.w3.org/2000/svg">
<path fill-rule="evenodd" clip-rule="evenodd" d="M50.7497 14.8121L25.284 0L0 14.7647V43.8552L25.0682 58.9638L50.7497 43.4876V14.8121Z" fill="#111111" fill-opacity="0.03"/>
<path d="M25.2845 0.578717L50.2497 15.0997V43.2051L25.0682 58.38L0.5 43.5728V15.0517L25.2845 0.578717Z" stroke="black" stroke-opacity="0.05"/>
<g clip-path="url(#clip0)">
<path d="M57.5043 25.8095C57.5276 25.8112 57.5509 25.8129 57.5745 25.8129C57.6147 25.8129 57.6549 25.8095 57.6942 25.8041C58.7467 25.8254 59.5891 26.6761 59.5904 27.7192C59.5904 28.1931 59.9781 28.5774 60.4564 28.5774C60.9347 28.5774 61.3224 28.1931 61.3224 27.7192C61.3203 26.0132 60.1219 24.5372 58.4406 24.1701V23.3454C58.4406 22.8715 58.0528 22.4872 57.5745 22.4872C57.0963 22.4872 56.7085 22.8715 56.7085 23.3454V24.2091C54.9307 24.6801 53.7805 26.3845 54.0203 28.1927C54.2601 30.001 55.8154 31.3529 57.6557 31.3529C58.7243 31.3529 59.5904 32.2115 59.5904 33.2705C59.5904 34.3291 58.7243 35.1877 57.6557 35.1877C56.5871 35.1877 55.7211 34.3291 55.7211 33.2705C55.7211 32.7966 55.3333 32.4123 54.855 32.4123C54.3768 32.4123 53.989 32.7966 53.989 33.2705C53.9911 34.9149 55.1058 36.3536 56.7085 36.7806V37.721C56.7085 38.1949 57.0963 38.5792 57.5745 38.5792C58.0528 38.5792 58.4406 38.1949 58.4406 37.721V36.82C60.2695 36.4231 61.503 34.7242 61.3013 32.8795C61.1 31.0348 59.5282 29.6368 57.6557 29.6372C56.6167 29.6377 55.763 28.8247 55.7219 27.7959C55.6813 26.7671 56.4683 25.89 57.5043 25.8099V25.8095Z" fill="#CC0A0A"/>
<path d="M57.7053 18.291C52.3775 18.291 47.8308 21.7361 46.1275 26.3492H24.6325C24.1563 26.3492 23.7698 26.7745 23.7664 27.246L23.5618 57.3531H17.4348C16.9565 57.3531 16.5459 57.6964 16.5459 58.1712V61.9918C16.5569 65.5886 19.4155 68.5434 23.0412 68.706V68.7248H49.7802V68.6997C49.9968 68.7077 50.086 68.7248 50.223 68.7248H50.2416C53.9942 68.719 57.0333 65.7026 57.0333 61.9838V42.6667C57.2499 42.6784 57.479 42.6847 57.7032 42.6847C64.4831 42.6847 70.0003 37.2067 70.0003 30.4874C70.0003 23.7686 64.4856 18.291 57.7053 18.291ZM23.3706 67.0084H23.3651C20.5636 67.0046 18.2907 64.7597 18.278 61.983V59.0696H43.3932V61.9708C43.3945 63.7619 44.1163 65.4788 45.3984 66.7414C45.4894 66.8315 45.6023 66.9011 45.6974 67.0084H23.3706ZM55.3013 61.983C55.3017 64.7546 53.0372 67.0029 50.2408 67.0084H50.2243C47.4164 67.0033 45.1392 64.7538 45.1253 61.9716V58.1712C45.1325 57.9516 45.0479 57.7391 44.891 57.584C44.7341 57.429 44.5197 57.3456 44.2986 57.3531H25.2938L25.4926 28.0657H45.6467C45.4932 28.8514 45.4137 29.6493 45.4094 30.4493C45.4077 32.1411 45.7638 33.814 46.4548 35.3607H38.2747C37.7961 35.3607 37.4087 35.745 37.4087 36.219C37.4087 36.6929 37.7961 37.0772 38.2747 37.0772H47.3944C49.181 39.8615 52.0371 41.8026 55.3013 42.4521V61.983ZM57.7053 40.9686C51.8713 40.9686 47.1415 36.2818 47.1419 30.5C47.1419 24.7182 51.8713 20.0314 57.7057 20.0314C63.5396 20.0314 68.2691 24.7186 68.2691 30.5C68.2627 36.2789 63.5371 40.9623 57.7053 40.9686Z" fill="#CC0A0A"/>
<path d="M32.7158 41.0726C31.1871 41.0726 29.9438 42.2657 29.9438 43.7324C29.9438 45.1992 31.1871 46.3922 32.7158 46.3922C34.2445 46.3922 35.4881 45.1992 35.4881 43.7324C35.4881 42.2657 34.2445 41.0726 32.7158 41.0726ZM32.7158 44.6757C32.1419 44.6757 31.6759 44.2525 31.6759 43.7324C31.6759 43.212 32.1424 42.7891 32.7158 42.7891C33.2892 42.7891 33.756 43.2124 33.756 43.7324C33.756 44.2525 33.2892 44.6757 32.7158 44.6757Z" fill="#CC0A0A"/>
<path d="M37.4087 43.7287C37.4087 44.2027 37.796 44.587 38.2747 44.587H49.8208C50.2991 44.587 50.6869 44.2027 50.6869 43.7287C50.6869 43.2548 50.2991 42.8705 49.8208 42.8705H38.2747C37.796 42.8705 37.4087 43.2548 37.4087 43.7287Z" fill="#CC0A0A"/>
<path d="M32.7158 33.6119C31.1871 33.6119 29.9438 34.8054 29.9438 36.2722C29.9438 37.7389 31.1871 38.9319 32.7158 38.9319C34.2445 38.9319 35.4881 37.7389 35.4881 36.2722C35.4881 34.8054 34.2445 33.6119 32.7158 33.6119ZM32.7158 37.2155C32.1419 37.2155 31.6759 36.7922 31.6759 36.2722C31.6759 35.7521 32.1424 35.3284 32.7158 35.3284C33.2892 35.3284 33.756 35.7517 33.756 36.2722C33.756 36.7922 33.2892 37.2159 32.7158 37.2159V37.2155Z" fill="#CC0A0A"/>
<path d="M32.7158 48.5323C31.1871 48.5323 29.9438 49.7254 29.9438 51.1921C29.9438 52.6589 31.1871 53.8519 32.7158 53.8519C34.2445 53.8519 35.4881 52.6589 35.4881 51.1921C35.4881 49.7254 34.2445 48.5323 32.7158 48.5323ZM32.7158 52.1355C32.1419 52.1355 31.6759 51.7126 31.6759 51.1921C31.6759 50.6721 32.1424 50.2488 32.7158 50.2488C33.2892 50.2488 33.756 50.6721 33.756 51.1921C33.756 51.7122 33.2892 52.1355 32.7158 52.1355Z" fill="#CC0A0A"/>
<path d="M49.8208 50.3802H38.2747C37.796 50.3802 37.4087 50.7645 37.4087 51.2385C37.4087 51.7124 37.796 52.0967 38.2747 52.0967H49.8208C50.2991 52.0967 50.6869 51.7124 50.6869 51.2385C50.6869 50.7645 50.2991 50.3802 49.8208 50.3802Z" fill="#CC0A0A"/>
</g>
<defs>
<clipPath id="clip0">
<rect width="53.4542" height="52.9728" fill="white" transform="translate(16.5459 17.0273)"/>
</clipPath>
</defs>
</svg>
