<svg width="71" height="71" viewBox="0 0 71 71" fill="none" xmlns="http://www.w3.org/2000/svg">
<path fill-rule="evenodd" clip-rule="evenodd" d="M51.0113 15.0237L25.4143 0L0 14.9756V44.4818L25.1974 59.8063L51.0113 44.109V15.0237Z" fill="#111111" fill-opacity="0.03"/>
<path d="M25.4148 0.580055L50.5113 15.31V43.8278L25.1974 59.2211L0.5 44.2007V15.2614L25.4148 0.580055Z" stroke="black" stroke-opacity="0.05"/>
<g clip-path="url(#clip0)">
<path d="M68.2878 47.2223C68.5597 46.7105 68.3652 46.0752 67.8535 45.8032C61.9733 42.6785 54.8003 43.4279 49.7048 47.6151L48.0093 45.9196L50.7784 43.1505C51.1882 42.7407 51.1882 42.0763 50.7784 41.6664C50.3685 41.2566 49.7042 41.2566 49.2942 41.6664L46.5251 44.4354L39.769 37.6792C41.3057 35.6183 42.2725 33.1976 42.5774 30.6199C42.9286 27.6484 42.3696 24.6761 40.9605 22.0245C40.6886 21.5128 40.053 21.3184 39.5414 21.5903C39.0296 21.8623 38.8352 22.4976 39.1071 23.0094C41.3673 27.2626 41.0136 32.313 38.2669 36.1771L33.8145 31.7248C33.1898 31.1001 32.3018 30.8409 31.439 31.031C30.5762 31.2212 29.8796 31.83 29.5755 32.6595L16.7916 67.5346C16.4425 68.4871 16.6712 69.5246 17.3886 70.242C17.8841 70.7374 18.5319 70.9997 19.1992 70.9997C19.4983 70.9997 19.8012 70.9469 20.096 70.839L54.9709 58.055C55.8004 57.751 56.4092 57.0543 56.5995 56.1916C56.7897 55.3288 56.5304 54.4408 55.9057 53.8161L51.198 49.1083C55.6321 45.5704 61.8006 44.9635 66.8687 47.6567C67.3804 47.9287 68.0157 47.7341 68.2878 47.2223ZM33.3454 63.7468L23.8838 54.2852L26.5054 47.1334L40.4972 61.1252L33.3454 63.7468ZM28.2172 65.6266L22.004 59.4134L23.0876 56.4573L31.1733 64.543L28.2172 65.6266ZM19.3736 68.8683C19.1249 68.9595 18.9531 68.8382 18.8726 68.7579C18.7922 68.6775 18.671 68.5056 18.7622 68.257L21.2077 61.5854L26.0451 66.4228L19.3736 68.8683ZM54.5499 55.7396C54.5289 55.8348 54.4619 56.0062 54.2487 56.0843L47.7972 58.4492L41.8285 52.4804C41.4187 52.0705 40.7543 52.0706 40.3445 52.4803C39.9347 52.8901 39.9346 53.5545 40.3444 53.9643L45.6252 59.2452L42.6691 60.3289L27.3016 44.9614L28.3852 42.0053L33.6662 47.2861C33.871 47.4911 34.1397 47.5935 34.4082 47.5935C34.6767 47.5935 34.9454 47.491 35.1502 47.2861C35.56 46.8763 35.56 46.2119 35.1501 45.8021L29.1814 39.8334L31.5463 33.3819C31.6244 33.1687 31.7958 33.1016 31.8911 33.0805C31.9201 33.0741 31.9573 33.0687 31.9996 33.0687C32.096 33.0687 32.2189 33.0972 32.3306 33.209L54.4216 55.3C54.5822 55.4607 54.5709 55.6444 54.5499 55.7396Z" fill="#CC0A0A"/>
<path d="M48.2809 25.6451C48.8604 25.6451 49.3303 25.1753 49.3303 24.5957C49.3303 23.7168 50.0453 23.0018 50.9242 23.0018C52.9603 23.0018 54.6169 21.3453 54.6169 19.3092C54.6169 18.7296 54.1469 18.2598 53.5675 18.2598C52.988 18.2598 52.5181 18.7296 52.5181 19.3092C52.5181 20.1881 51.803 20.903 50.9242 20.903C48.888 20.903 47.2314 22.5595 47.2314 24.5957C47.2314 25.1753 47.7014 25.6451 48.2809 25.6451Z" fill="#CC0A0A"/>
<path d="M57.5914 35.5503C59.6943 35.5503 61.4052 33.8394 61.4052 31.7366C61.4052 30.7911 62.1744 30.0218 63.12 30.0218C63.6995 30.0218 64.1694 29.552 64.1694 28.9724C64.1694 28.3928 63.6995 27.923 63.12 27.923C61.0172 27.923 59.3063 29.6338 59.3063 31.7366C59.3063 32.6821 58.537 33.4515 57.5914 33.4515C57.0119 33.4515 56.542 33.9213 56.542 34.5009C56.542 35.0805 57.0119 35.5503 57.5914 35.5503Z" fill="#CC0A0A"/>
<path d="M63.6445 37.5748C63.6445 39.4265 65.151 40.9329 67.0026 40.9329C68.8543 40.9329 70.3607 39.4265 70.3607 37.5748C70.3607 35.7231 68.8543 34.2167 67.0026 34.2167C65.151 34.2167 63.6445 35.7231 63.6445 37.5748ZM67.0026 36.3155C67.697 36.3155 68.2619 36.8804 68.2619 37.5748C68.2619 38.2692 67.697 38.8341 67.0026 38.8341C66.3082 38.8341 65.7433 38.2692 65.7433 37.5748C65.7433 36.8804 66.3082 36.3155 67.0026 36.3155Z" fill="#CC0A0A"/>
<path d="M49.6984 35.0946C51.5501 35.0946 53.0565 33.5882 53.0565 31.7365C53.0565 29.8848 51.5501 28.3784 49.6984 28.3784C47.8468 28.3784 46.3403 29.8848 46.3403 31.7365C46.3403 33.5882 47.8469 35.0946 49.6984 35.0946ZM49.6984 30.4772C50.3928 30.4772 50.9577 31.0421 50.9577 31.7365C50.9577 32.4309 50.3928 32.9958 49.6984 32.9958C49.004 32.9958 48.4391 32.4309 48.4391 31.7365C48.4391 31.0421 49.004 30.4772 49.6984 30.4772Z" fill="#CC0A0A"/>
<path d="M30.0637 23.9865C31.9154 23.9865 33.4218 22.4801 33.4218 20.6284C33.4218 18.7767 31.9154 17.2703 30.0637 17.2703C28.212 17.2703 26.7056 18.7767 26.7056 20.6284C26.7056 22.4801 28.212 23.9865 30.0637 23.9865ZM30.0637 19.3691C30.7581 19.3691 31.323 19.934 31.323 20.6284C31.323 21.3228 30.7581 21.8877 30.0637 21.8877C29.3693 21.8877 28.8044 21.3228 28.8044 20.6284C28.8044 19.934 29.3693 19.3691 30.0637 19.3691Z" fill="#CC0A0A"/>
<path d="M64.1167 54.1105C63.707 53.7007 63.0428 53.7007 62.6325 54.1104C62.2227 54.5201 62.2227 55.1846 62.6325 55.5944L63.6219 56.5838C63.8269 56.7888 64.0954 56.8912 64.364 56.8912C64.6325 56.8912 64.901 56.7886 65.106 56.5838C65.5158 56.174 65.5158 55.5095 65.106 55.0997L64.1167 54.1105Z" fill="#CC0A0A"/>
<path d="M69.064 59.0573C68.6541 58.6476 67.9898 58.6476 67.5798 59.0573C67.17 59.4671 67.17 60.1316 67.5798 60.5415L68.5692 61.5309C68.7741 61.7359 69.0427 61.8383 69.3112 61.8383C69.5798 61.8383 69.8483 61.7359 70.0533 61.5309C70.463 61.1211 70.463 60.4566 70.0533 60.0467L69.064 59.0573Z" fill="#CC0A0A"/>
<path d="M68.5692 54.1102L67.5798 55.0996C67.17 55.5094 67.17 56.1739 67.5798 56.5837C67.7848 56.7886 68.0533 56.8911 68.3218 56.8911C68.5904 56.8911 68.859 56.7885 69.0639 56.5837L70.0533 55.5943C70.463 55.1845 70.463 54.52 70.0533 54.1102C69.6435 53.7003 68.979 53.7004 68.5692 54.1102Z" fill="#CC0A0A"/>
<path d="M63.6219 59.0573L62.6325 60.0467C62.2227 60.4565 62.2227 61.121 62.6325 61.5309C62.8375 61.7359 63.106 61.8383 63.3746 61.8383C63.6432 61.8383 63.9117 61.7359 64.1166 61.5309L65.106 60.5415C65.5158 60.1317 65.5158 59.4672 65.106 59.0573C64.6961 58.6476 64.0318 58.6476 63.6219 59.0573Z" fill="#CC0A0A"/>
<path d="M68.3219 20.3583C68.5905 20.3583 68.8591 20.2559 69.064 20.0509L70.0534 19.0616C70.4632 18.6518 70.4632 17.9873 70.0534 17.5775C69.6435 17.1677 68.979 17.1677 68.5692 17.5775L67.5798 18.5669C67.17 18.9767 67.17 19.6411 67.5798 20.0509C67.7849 20.2559 68.0533 20.3583 68.3219 20.3583Z" fill="#CC0A0A"/>
<path d="M63.3747 25.3054C63.6433 25.3054 63.9118 25.203 64.1167 24.9981L65.1061 24.0087C65.5159 23.5989 65.5159 22.9344 65.1061 22.5245C64.6962 22.1147 64.0319 22.1147 63.6219 22.5245L62.6325 23.5139C62.2227 23.9237 62.2227 24.5882 62.6325 24.9981C62.8376 25.203 63.1061 25.3054 63.3747 25.3054Z" fill="#CC0A0A"/>
<path d="M69.064 22.5243C68.6541 22.1145 67.9898 22.1145 67.5798 22.5243C67.17 22.9341 67.17 23.5985 67.5798 24.0084L68.5692 24.9978C68.7741 25.2028 69.0427 25.3052 69.3112 25.3052C69.5798 25.3052 69.8483 25.2028 70.0533 24.9978C70.463 24.588 70.463 23.9235 70.0533 23.5136L69.064 22.5243Z" fill="#CC0A0A"/>
<path d="M63.622 20.0509C63.827 20.2559 64.0955 20.3583 64.3641 20.3583C64.6326 20.3583 64.9012 20.2559 65.1061 20.0509C65.5159 19.6411 65.5159 18.9767 65.1061 18.5669L64.1167 17.5775C63.707 17.1677 63.0428 17.1677 62.6325 17.5775C62.2227 17.9873 62.2227 18.6518 62.6325 19.0616L63.622 20.0509Z" fill="#CC0A0A"/>
<path d="M37.7472 48.8341C37.4712 48.8341 37.2004 48.9464 37.0052 49.1416C36.81 49.3368 36.6978 49.6075 36.6978 49.8835C36.6978 50.1595 36.81 50.4303 37.0052 50.6254C37.2004 50.8206 37.4712 50.9329 37.7472 50.9329C38.0232 50.9329 38.2939 50.8206 38.4891 50.6254C38.6843 50.4303 38.7966 50.1595 38.7966 49.8835C38.7966 49.6075 38.6843 49.3368 38.4891 49.1416C38.2939 48.9464 38.0232 48.8341 37.7472 48.8341Z" fill="#CC0A0A"/>
<path d="M53.0574 37.9033L52.2966 38.6641C51.8868 39.0739 51.8868 39.7384 52.2966 40.1483C52.5016 40.3532 52.7701 40.4557 53.0386 40.4557C53.3072 40.4557 53.5757 40.3532 53.7807 40.1483L54.5415 39.3875C54.9513 38.9777 54.9513 38.3132 54.5415 37.9033C54.1316 37.4935 53.4673 37.4935 53.0574 37.9033Z" fill="#CC0A0A"/>
</g>
<defs>
<clipPath id="clip0">
<rect width="53.7297" height="53.7297" fill="white" transform="translate(16.6309 17.2703)"/>
</clipPath>
</defs>
</svg>
