<svg width="17" height="17" viewBox="0 0 17 17" fill="none" xmlns="http://www.w3.org/2000/svg">
<path fill-rule="evenodd" clip-rule="evenodd" d="M12.4619 0H4.53814C2.01695 0 0 2.01695 0 4.53814V12.4619C0 14.9831 2.01695 17 4.53814 17H12.4619C14.9831 17 17 14.9831 17 12.4619V4.53814C17 2.08898 14.9831 0 12.4619 0ZM12.0297 9.58051C12.1737 9.72458 13.2542 10.9492 13.3263 11.0212C13.3983 11.1653 13.4703 11.2373 13.5424 11.3814C13.4703 11.5975 13.2542 11.8136 13.0381 11.8136C12.6059 11.8136 11.5975 11.8136 11.4534 11.8136C11.2373 11.7415 11.0212 11.5975 10.8051 11.4534C10.661 11.3093 10.0847 10.661 10.0127 10.589C9.94068 10.5169 9.86864 10.5169 9.79661 10.5169C9.72458 10.5169 9.50848 10.5169 9.50848 10.8771C9.50848 11.1653 9.50847 11.3814 9.36441 11.6695C9.22034 11.8136 9.07627 11.8856 8.86017 11.8856C8.21186 11.9576 7.49153 11.7415 6.91525 11.3814C5.83475 10.7331 4.6822 9.00424 4.10593 7.8517C3.74576 7.27542 3.6017 6.69915 3.52966 6.05085C3.52966 5.90678 3.52966 5.83475 3.67373 5.83475C3.8178 5.83475 5.25847 5.83475 5.40254 5.83475C5.47458 5.90678 5.54661 5.97881 5.61864 6.05085C5.69068 6.12288 6.05085 7.27542 6.19492 7.49153C6.33898 7.70763 6.91525 8.78814 7.20339 8.78814C7.41949 8.7161 7.56356 8.57203 7.49153 8.35593C7.49153 8.0678 7.49153 7.05932 7.49153 6.91525C7.34746 6.62712 7.13136 6.41102 6.84322 6.26695C6.98729 6.05085 7.20339 5.97881 7.49153 5.90678C7.92373 5.90678 8.9322 5.90678 9.14831 5.90678C9.29237 5.83475 9.43644 6.05085 9.43644 6.33898V8.5C9.43644 8.64407 9.50848 8.7161 9.65254 8.7161H9.72458C9.94068 8.7161 10.3729 6.84322 10.589 6.41102C10.661 6.19492 10.8771 5.97881 11.0932 5.83475C11.1653 5.76271 11.2373 5.76271 11.3093 5.76271H13.2542C13.3983 5.76271 13.5424 5.97881 13.5424 6.12288C13.5424 6.19492 13.5424 6.19492 13.4703 6.26695C13.3263 6.62712 12.0297 8.7161 11.9576 8.78814C11.8856 8.9322 11.8136 9.00424 11.8136 9.1483C11.8136 9.29237 11.8856 9.43644 12.0297 9.58051Z" fill="#1C1B1D"/>
</svg>
