<svg width="175" height="80" viewBox="0 0 175 80" fill="none" xmlns="http://www.w3.org/2000/svg">
<g clip-path="url(#clip0)">
<path d="M76.0782 51.922C75.588 52.1003 75.1869 51.8329 74.7412 51.7437C69.2147 50.3621 64.5796 47.5098 60.925 43.1866C57.8052 39.4875 55.8442 35.2535 55.042 30.4847C54.4181 26.6072 54.5963 22.7298 55.7105 18.9415C57.3596 13.2368 60.613 8.64624 65.2927 5.12535C67.5211 3.43176 70.017 2.18384 72.691 1.29248C74.964 0.534819 77.2816 0.0891365 79.6883 0C80.1339 0 80.2231 0.133705 80.2231 0.534819C80.1785 1.961 80.2231 3.34262 80.2231 4.7688C80.2231 5.16992 80.3568 5.25905 80.7133 5.21449C81.1144 5.16992 81.5156 5.25905 81.8721 5.21449C82.3178 5.16992 82.4515 5.34819 82.4069 5.79387C82.3624 6.19499 82.4069 6.5961 82.4069 6.95265C82.4069 7.26463 82.4961 7.39833 82.808 7.39833C84.0559 7.39833 85.2593 7.39833 86.5072 7.39833C86.8192 7.39833 86.9529 7.30919 86.9529 6.99722C86.9083 6.68524 86.9529 6.37326 86.9529 6.10585C86.9529 5.16992 86.8192 5.25905 87.7997 5.25905C88.1117 5.25905 88.4236 5.25905 88.691 5.25905C89.003 5.25905 89.0922 5.16992 89.0922 4.85794C89.0922 3.7883 89.0922 2.76323 89.0922 1.69359C89.0922 1.29248 89.2259 1.29248 89.5378 1.38162C95.3317 3.47632 99.8777 7.08635 103.176 12.2563C105.27 15.5989 106.563 19.2089 107.009 23.1309C107.677 29.1476 106.474 34.7187 103.354 39.9332C102.151 41.9833 100.591 43.766 98.8972 45.415C98.7635 45.5488 98.6743 45.7716 98.4069 45.6379C98.4515 45.0585 98.7635 44.5237 98.9417 43.9889C100.011 40.2451 99.5211 36.6797 97.9612 33.2033C96.7133 30.351 94.9752 27.766 93.2816 25.1811C91.0532 21.7047 88.7356 18.3176 86.8637 14.6184C86.0169 12.9248 85.2147 11.2312 84.8136 9.35933C84.8136 9.2702 84.769 9.09192 84.6353 9.13649C84.5016 9.18106 84.4571 9.35933 84.4571 9.49304C84.2342 10.5181 83.8331 11.4986 83.432 12.4791C82.3178 15.1086 80.8916 17.5599 79.3763 19.9666C77.4153 23.1309 75.3651 26.2061 73.4041 29.3705C71.7997 31.9554 70.4626 34.6741 69.9724 37.7493C69.5267 40.6462 69.9724 43.4095 71.1757 46.0836C72.2899 48.4457 73.939 50.3621 76.0782 51.922Z" fill="#F07E03"/>
<path d="M76.0782 51.922C73.9835 50.3621 72.2899 48.4456 71.2203 46.039C70.0169 43.4094 69.5713 40.6016 70.0169 37.7047C70.4626 34.6295 71.8442 31.9108 73.4487 29.3259C75.4097 26.1615 77.4598 23.0417 79.4208 19.922C80.9362 17.5153 82.3623 15.064 83.4765 12.4345C83.8777 11.454 84.2788 10.4735 84.5016 9.44842C84.5462 9.31472 84.5462 9.13644 84.6799 9.09187C84.8136 9.04731 84.8136 9.22558 84.8582 9.31472C85.2593 11.1866 86.0615 12.8802 86.9083 14.5738C88.7802 18.2284 91.0977 21.6601 93.3261 25.1364C95.0197 27.7214 96.7133 30.3064 98.0058 33.1587C99.5657 36.6351 100.056 40.2451 98.9863 43.9442C98.808 44.4791 98.496 45.0139 98.4515 45.5933C98.3178 45.6378 98.3623 45.727 98.3178 45.8161C98.0058 46.3509 97.7384 46.9303 97.4264 47.5097C97.0699 48.1337 96.6242 48.6685 96.1785 49.2033C92.1228 53.8384 87.042 55.4874 81.0253 54.1949C79.198 53.8384 77.5935 52.947 76.0782 51.922ZM78.2621 50.8078C78.574 49.6044 79.1089 48.6239 79.9111 47.7326C80.0894 47.5543 80.0448 47.4206 79.8665 47.2869C79.3317 46.8858 78.886 46.4401 78.4403 45.9498C75.3651 42.5181 74.1172 38.5515 74.9194 34.0055C75.3206 31.688 76.3456 29.6378 77.549 27.6323C77.6381 27.454 77.8164 27.2757 77.8164 27.0529C76.613 28.9247 75.4097 30.752 74.4738 32.7576C72.2454 37.7047 72.3791 42.4735 75.1869 47.1532C75.9891 48.4902 77.0142 49.7381 78.2621 50.8078Z" fill="#1158A6"/>
<path d="M10.7411 69.883C10.9639 70.0167 11.1868 70.1058 11.365 70.2395C13.9054 71.7103 14.574 74.9192 12.8804 77.3259C11.8107 78.8412 10.34 79.4651 8.55724 79.5097C5.83858 79.5543 3.11991 79.5097 0.356681 79.5543C0.0447029 79.5543 -0.0444336 79.4651 -0.0444336 79.1532C-0.0444336 73.5821 -0.0444336 68.0111 -0.0444336 62.4846C-0.0444336 62.1281 0.0892712 62.0389 0.401249 62.0389C2.7188 62.0835 5.03635 61.9944 7.3539 62.1281C8.37897 62.1726 9.3149 62.3955 10.2063 62.8412C12.7912 64.2228 13.2369 67.8774 10.9639 69.6601C10.9639 69.7047 10.8748 69.7493 10.7411 69.883ZM6.15055 76.3454C6.86365 76.3454 7.88872 76.3899 8.86922 76.2117C9.76058 76.0334 10.34 75.5431 10.4737 74.7409C10.7411 73.493 9.93886 72.3342 8.55724 72.0668C6.90822 71.7548 5.25919 71.9331 3.61016 71.8885C3.29819 71.8885 3.34275 72.0668 3.34275 72.2896C3.34275 73.5376 3.34275 74.7855 3.34275 76.0334C3.34275 76.3454 3.47646 76.3899 3.74387 76.3899C4.45696 76.3454 5.17005 76.3454 6.15055 76.3454ZM5.5266 68.9025C6.15055 68.9025 6.90822 68.947 7.62131 68.8133C8.55724 68.6796 9.1812 68.1002 9.22576 67.2534C9.35947 66.0055 8.64638 65.2479 7.26476 65.2033C6.06142 65.1587 4.85808 65.2033 3.61016 65.2033C3.34275 65.2033 3.25362 65.2924 3.29819 65.5598C3.29819 66.5849 3.29819 67.61 3.29819 68.5905C3.29819 68.8579 3.38732 68.947 3.65473 68.947C4.23412 68.9025 4.81351 68.9025 5.5266 68.9025Z" fill="#1158A6"/>
<path d="M151.086 73.2257C151.398 72.8246 151.666 72.3789 151.978 71.9778C152.914 70.6853 153.805 69.3928 154.696 68.1449C156.078 66.2285 157.46 64.312 158.797 62.351C158.975 62.0836 159.153 61.9945 159.465 61.9945C160.089 61.9945 160.758 62.0391 161.382 61.9945C161.783 61.9945 161.872 62.1282 161.872 62.4847C161.872 65.1588 161.872 67.7884 161.872 70.4625C161.872 73.3148 161.872 76.1672 161.872 79.0196C161.872 79.4653 161.738 79.599 161.292 79.5544C160.49 79.5098 159.688 79.5098 158.886 79.5544C158.485 79.5544 158.396 79.4207 158.396 79.0196C158.618 75.5878 158.44 72.2006 158.485 68.7689C158.485 68.7689 158.485 68.7243 158.44 68.6797C157.593 69.8385 156.702 71.0418 155.855 72.2006C154.162 74.5182 152.468 76.8357 150.774 79.1978C150.596 79.4207 150.418 79.5544 150.106 79.5544C149.393 79.5098 148.724 79.5098 148.011 79.5544C147.655 79.5544 147.565 79.4207 147.565 79.1087C147.565 76.1672 147.565 73.1811 147.565 70.2396C147.565 67.6992 147.565 65.1588 147.565 62.5739C147.565 62.1282 147.699 61.9945 148.145 61.9945C148.858 62.0391 149.616 62.0391 150.329 61.9945C150.774 61.9499 150.953 62.0836 150.908 62.5739C150.908 65.9611 150.908 69.3928 150.908 72.78C150.908 72.9137 150.908 73.0474 150.908 73.1366C151.042 73.1811 151.086 73.1811 151.086 73.2257Z" fill="#1158A6"/>
<path d="M136.602 79.9555C131.521 80.1338 127.376 75.5878 127.421 70.7744C127.465 65.6937 131.566 61.5488 136.646 61.5934C141.192 61.5934 145.783 64.9806 145.827 70.819C145.917 75.7661 141.905 80.0001 136.602 79.9555ZM136.646 76.7466C139.944 76.7466 142.619 74.0725 142.619 70.7744C142.619 67.4764 139.9 64.8023 136.646 64.8023C133.348 64.8023 130.63 67.5209 130.674 70.819C130.674 74.1171 133.348 76.7466 136.646 76.7466Z" fill="#1158A6"/>
<path d="M76.5681 67.5209C76.5235 67.5209 76.4789 67.5209 76.4789 67.5209C75.4539 67.6546 74.6962 67.3426 73.9831 66.5404C72.245 64.6239 69.348 64.2674 67.0751 65.4707C64.7575 66.7186 63.5096 69.259 63.9553 71.8886C64.401 74.3844 66.5402 76.4345 69.0806 76.7019C71.3536 76.9248 73.2255 76.1671 74.6071 74.3398C74.7408 74.1615 74.9191 74.0278 75.1865 74.0278C76.1224 74.0278 77.0583 74.0278 78.0388 74.0278C78.4399 74.0278 78.4399 74.1615 78.3062 74.4735C77.2366 76.7911 75.543 78.4401 73.1363 79.376C71.6656 79.9554 70.1057 80.0445 68.5458 79.8663C66.4511 79.5989 64.7129 78.6629 63.2868 77.1476C60.7909 74.5181 60.0333 71.3983 61.1475 67.922C62.2171 64.5348 64.6684 62.3955 68.1893 61.727C71.1308 61.1476 73.7157 61.9498 75.9887 63.8663C77.0138 64.7576 77.7714 65.8273 78.3062 67.0306C78.4845 67.4317 78.3954 67.5209 77.9943 67.4763C77.4594 67.4763 77.0138 67.5209 76.5681 67.5209Z" fill="#1158A6"/>
<path d="M95.5542 67.521C95.5096 67.521 95.465 67.521 95.465 67.521C94.5291 67.6101 93.816 67.3872 93.1029 66.585C91.4984 64.8469 89.3592 64.3566 87.0862 65.0697C84.8578 65.7828 83.4762 67.3872 82.9859 69.6602C82.7185 71.0864 82.8968 72.5126 83.699 73.7605C84.5012 75.053 85.5709 76.0335 87.0416 76.4346C88.2004 76.7911 89.3592 76.7911 90.5625 76.4346C91.8996 76.0335 92.8801 75.2758 93.7269 74.2508C93.8606 74.0725 93.9943 73.9833 94.2171 73.9833C95.1976 73.9833 96.1335 73.9833 97.114 73.9833C97.426 73.9833 97.4706 74.0725 97.3369 74.3399C95.9553 77.2814 93.6823 79.1087 90.5179 79.7772C89.27 80.0446 87.9776 79.9555 86.7296 79.7326C85.7491 79.5098 84.8132 79.0641 83.9218 78.4847C78.2617 74.8301 78.3508 66.8079 83.699 63.1087C88.2895 59.9444 95.0639 61.8162 97.2477 66.9861C97.426 67.4318 97.3815 67.5655 96.8912 67.521C96.4901 67.4764 95.9998 67.521 95.5542 67.521Z" fill="#1158A6"/>
<path d="M55.3536 68.4569C54.5959 69.5265 53.8828 70.507 53.2143 71.443C53.0806 71.6658 52.8578 71.6212 52.6349 71.6212C52.1001 71.6658 51.4316 71.3984 51.075 71.755C50.7631 72.0669 50.9859 72.7354 50.9859 73.2703C50.9859 74.1171 50.9859 74.9639 50.9859 75.7661C50.9859 76.1672 51.1196 76.2563 51.5207 76.2563C54.1948 76.2563 56.8689 76.2563 59.543 76.2563C59.9887 76.2563 60.1224 76.3455 60.1224 76.7912C60.0778 77.5488 60.0778 78.3065 60.1224 79.1087C60.1224 79.4207 60.0778 79.5544 59.7213 79.5544C55.8884 79.5544 52.011 79.5544 48.1781 79.5544C47.7324 79.5544 47.7324 79.3316 47.7324 79.0196C47.7324 75.0976 47.7324 71.2201 47.7324 67.2981C47.7324 65.6937 47.7324 64.0892 47.7324 62.4848C47.7324 62.1282 47.8216 61.9945 48.2227 61.9945C52.0555 61.9945 55.8884 61.9945 59.7213 61.9945C60.0778 61.9945 60.167 62.1282 60.167 62.4402C60.167 63.2424 60.1224 64.0001 60.167 64.8023C60.167 65.1588 60.0778 65.2926 59.6767 65.2926C57.0026 65.2926 54.3285 65.2926 51.6544 65.2926C51.1642 65.2926 51.0305 65.4263 51.075 65.9165C51.1196 66.6296 51.075 67.3427 51.075 68.0558C51.075 68.3678 51.1642 68.5015 51.5207 68.5015C52.6795 68.4569 53.9274 68.4569 55.3536 68.4569Z" fill="#1158A6"/>
<path d="M113.159 70.7743C113.159 68.0111 113.159 65.2924 113.159 62.5292C113.159 62.1281 113.203 61.9498 113.649 61.9498C116.189 61.9944 118.73 61.9053 121.27 62.039C122.785 62.1281 124.212 62.4401 125.281 63.7326C125.816 64.4011 126.128 65.1587 126.262 66.0055C126.574 68.1002 126.083 69.883 124.301 71.1309C123.677 71.5766 123.008 71.844 122.251 71.8885C120.512 72.0223 118.774 72.0668 117.036 72.0668C116.59 72.0668 116.501 72.2005 116.501 72.6462C116.501 74.7855 116.501 76.8802 116.501 79.0195C116.501 79.4206 116.368 79.5097 116.011 79.5097C115.209 79.4651 114.407 79.4651 113.604 79.5097C113.248 79.5097 113.159 79.376 113.159 79.064C113.159 76.3008 113.159 73.5376 113.159 70.7743ZM119.175 68.8579V68.8133C119.978 68.8133 120.735 68.8579 121.538 68.8133C122.518 68.7688 123.142 68.1448 123.187 67.2534C123.231 66.2284 122.741 65.6044 121.716 65.4262C120.067 65.1587 118.418 65.337 116.769 65.2924C116.501 65.2924 116.546 65.4707 116.546 65.6044C116.546 66.5849 116.546 67.5209 116.546 68.5014C116.546 68.8133 116.68 68.8579 116.947 68.8579C117.66 68.8579 118.418 68.8579 119.175 68.8579Z" fill="#1158A6"/>
<path d="M23.1756 68.5906C22.5071 69.5265 21.794 70.507 21.0809 71.4875C20.9472 71.6212 20.8135 71.6212 20.6352 71.6212C20.1895 71.6212 19.7438 71.6212 19.2982 71.6212C19.0308 71.6212 18.897 71.6658 18.897 71.9778C18.897 73.2703 18.897 74.5628 18.897 75.8998C18.897 76.3009 19.1199 76.2563 19.3873 76.2563C22.0614 76.2563 24.6909 76.2563 27.365 76.2563C27.8998 76.2563 28.0335 76.3901 27.989 76.9249C27.9444 77.638 27.989 78.3956 27.989 79.1087C27.989 79.4207 27.9444 79.5544 27.5879 79.5544C23.7104 79.5544 19.833 79.5544 16.0001 79.5544C15.599 79.5544 15.6436 79.3315 15.6436 79.0641C15.6436 76.2118 15.6436 73.3594 15.6436 70.507C15.6436 67.8329 15.6436 65.2034 15.6436 62.5293C15.6436 62.0836 15.7773 61.9945 16.1784 61.9945C19.9667 61.9945 23.755 61.9945 27.4987 61.9945C27.8998 61.9945 28.0335 62.1282 27.989 62.5293C27.9444 63.287 27.9444 64.0446 27.989 64.8469C27.989 65.248 27.8553 65.3371 27.4987 65.3371C24.8246 65.3371 22.1505 65.3371 19.4764 65.3371C18.9862 65.3371 18.8525 65.4708 18.897 65.9165C18.9416 66.6296 18.9416 67.3427 18.897 68.0558C18.897 68.4569 19.0308 68.546 19.3873 68.546C20.5461 68.546 21.7048 68.546 22.8636 68.546C22.9528 68.4569 23.0865 68.4569 23.1756 68.5906Z" fill="#1158A6"/>
<path d="M37.7491 66.6296C36.9469 68.7243 36.1893 70.6853 35.4316 72.6463C34.6294 74.7856 33.7826 76.9694 32.9803 79.1087C32.8912 79.4207 32.7129 79.5098 32.401 79.5098C31.3759 79.5098 30.3954 79.5098 29.3703 79.5098C29.2812 79.287 29.4149 79.1533 29.4595 79.0196C30.1725 77.1031 30.9302 75.2313 31.6433 73.3148C32.7575 70.4625 33.8717 67.5655 34.9859 64.7132C35.2979 63.9109 35.6099 63.1533 35.8773 62.351C35.9664 62.0836 36.1001 61.9945 36.3675 61.9945C37.2589 61.9945 38.1503 61.9945 39.0416 61.9945C39.309 61.9945 39.3982 62.0836 39.5319 62.3065C40.8689 65.7828 42.206 69.2591 43.543 72.78C44.3452 74.8302 45.1475 76.9249 45.9497 78.975C45.9943 79.1533 46.128 79.287 46.0834 79.5098C45.0138 79.5098 43.9441 79.5098 42.8745 79.5098C42.5179 79.5098 42.4288 79.287 42.3397 79.0196C41.6712 76.8803 40.8244 74.7856 40.0221 72.6909C39.309 70.7299 38.5514 68.7689 37.7491 66.6296Z" fill="#1158A6"/>
<path d="M102.908 72.4235C102.908 70.1951 102.908 68.0112 102.908 65.7828C102.908 65.3817 102.819 65.248 102.418 65.2926C101.081 65.3371 99.6992 65.2926 98.3622 65.2926C98.0056 65.2926 97.9165 65.2034 97.9165 64.8469C97.9611 64.0446 97.9165 63.1978 97.9165 62.3956C97.9165 62.0836 98.0056 61.9945 98.3176 61.9945C102.507 61.9945 106.741 61.9945 110.93 61.9945C111.242 61.9945 111.376 62.0836 111.376 62.4402C111.376 63.2424 111.332 64.0892 111.376 64.8914C111.376 65.248 111.287 65.2926 110.93 65.2926C109.549 65.2926 108.167 65.2926 106.741 65.2926C106.34 65.2926 106.251 65.4263 106.251 65.7828C106.251 70.1505 106.251 74.5628 106.251 78.9304C106.251 79.3761 106.162 79.5544 105.671 79.5098C104.869 79.4653 104.111 79.4653 103.309 79.5098C102.908 79.5098 102.864 79.3761 102.864 79.0196C102.908 76.8357 102.908 74.6073 102.908 72.4235Z" fill="#1158A6"/>
<path d="M153.493 64.624C153.493 63.8663 153.493 63.1087 153.493 62.351C153.493 61.2814 153.493 60.2563 153.493 59.1866C153.493 58.9638 153.448 58.741 153.76 58.6073C156.033 57.3593 158.262 56.1114 160.49 54.8635C160.49 54.8635 160.535 54.8635 160.668 54.9081C158.306 58.1616 155.989 61.4151 153.627 64.6685C153.582 64.624 153.537 64.624 153.493 64.624Z" fill="#1158A6"/>
<path d="M171.053 61.9944C169.315 61.9944 168.022 60.6128 168.022 58.8746C168.022 57.181 169.449 55.844 171.142 55.8885C172.791 55.8885 174.173 57.3147 174.173 59.0083C174.128 60.6573 172.747 61.9944 171.053 61.9944ZM168.513 58.9192C168.513 60.3899 169.671 61.5487 171.098 61.5487C172.524 61.5487 173.683 60.3899 173.683 58.9637C173.683 57.5376 172.524 56.3342 171.098 56.3342C169.716 56.3342 168.513 57.493 168.513 58.9192Z" fill="#1158A6"/>
<path d="M98.3174 45.8608C98.3619 45.7716 98.3174 45.6379 98.4511 45.6379C98.5848 45.7716 98.4065 45.8162 98.3174 45.8608Z" fill="#F07E03"/>
<path d="M78.2621 50.8077C77.0142 49.6935 75.9891 48.4902 75.1423 47.1086C72.3345 42.4289 72.2008 37.6155 74.4292 32.713C75.3651 30.7075 76.5685 28.8356 77.7718 27.0083C77.7718 27.2757 77.6381 27.4094 77.5044 27.5877C76.3011 29.5933 75.276 31.6434 74.8749 33.9609C74.0281 38.5069 75.3206 42.4735 78.3958 45.9052C78.8414 46.3955 79.3317 46.8412 79.8219 47.2423C80.0002 47.4206 80.0448 47.5097 79.8665 47.688C79.1534 48.6239 78.574 49.6044 78.2621 50.8077Z" fill="#FEFEFE"/>
<path d="M171.499 59.1421C171.9 59.5877 172.301 60.078 172.702 60.5237C172.346 60.6574 172.123 60.5682 171.945 60.3008C171.722 59.9889 171.454 59.7214 171.187 59.4095C171.009 59.1866 170.741 59.1866 170.518 59.2312C170.251 59.3203 170.385 59.5432 170.385 59.7214C170.385 59.9443 170.385 60.1671 170.385 60.3454C170.385 60.4791 170.296 60.5682 170.162 60.5682C169.984 60.5682 169.939 60.4791 169.939 60.3454C169.939 59.3649 169.939 58.3398 169.939 57.3593C169.939 57.181 170.028 57.0919 170.206 57.1365C170.518 57.1365 170.83 57.1365 171.187 57.1365C171.633 57.1365 172.078 57.2702 172.212 57.7604C172.346 58.2507 172.256 58.6964 171.766 58.9638C171.633 59.0083 171.588 59.0975 171.499 59.1421ZM170.83 57.5376C170.607 57.5376 170.251 57.4485 170.34 57.8496C170.429 58.2061 169.939 58.7855 170.697 58.8301C171.321 58.8746 171.677 58.6072 171.677 58.117C171.677 57.5822 171.276 57.5376 170.83 57.5376Z" fill="#1158A6"/>
</g>
<defs>
<clipPath id="clip0">
<rect width="174.173" height="80" fill="white"/>
</clipPath>
</defs>
</svg>
