<svg width="18" height="12" viewBox="0 0 18 12" fill="none" xmlns="http://www.w3.org/2000/svg">
<path fill-rule="evenodd" clip-rule="evenodd" d="M10.733 1.6624V5.45309C10.7213 5.67402 10.8841 5.86007 11.1051 5.8717C11.1516 5.8717 11.1865 5.8717 11.233 5.86007C11.5818 5.83681 12.3725 2.60426 12.7213 1.89495C12.9074 1.4996 13.2097 1.1624 13.5818 0.929837C13.6981 0.825186 13.8492 0.755419 14.012 0.743791H17.3609C17.6516 0.790303 17.8492 1.06937 17.8027 1.36007C17.7911 1.44147 17.7562 1.52286 17.7097 1.581C17.4539 2.1624 15.1981 5.77867 15.0818 5.92984C14.9423 6.11588 14.8492 6.33681 14.8027 6.56937C14.8492 6.84844 14.9771 7.09263 15.1632 7.30193C15.3957 7.56937 17.2795 9.63914 17.4539 9.80193C17.6167 9.98797 17.733 10.2205 17.7795 10.4763C17.6981 10.9182 17.2911 11.2205 16.8492 11.1856C16.1167 11.1856 14.326 11.1856 14.1283 11.1856C13.7213 11.0461 13.3376 10.8136 13.0237 10.5229C12.7678 10.2903 11.7911 9.18565 11.6516 9.03449C11.5469 8.91821 11.3958 8.84844 11.2446 8.87169C11.0702 8.87169 10.7446 8.89495 10.7562 9.54611C10.8027 9.9996 10.6981 10.4647 10.4771 10.8717C10.2446 11.0926 9.94227 11.2089 9.61668 11.1856C8.43064 11.2554 7.24459 10.9647 6.23296 10.3368C4.40738 9.19728 2.31436 6.16239 1.34925 4.23216C0.76785 3.26705 0.419013 2.19728 0.302734 1.081C0.360874 0.871699 0.360873 0.732163 0.570176 0.732163C0.779478 0.732163 3.34924 0.732163 3.59343 0.732163C3.76785 0.813558 3.90738 0.953093 4.00041 1.11588C4.09343 1.23216 4.75622 3.22053 4.9539 3.56937C5.15157 3.91821 6.1632 5.83681 6.70971 5.83681C7.0818 5.76705 7.33761 5.39495 7.25622 5.02286C7.25622 4.55774 7.25622 2.72053 7.25622 2.48798C7.03529 1.97635 6.62831 1.55774 6.11669 1.32519C6.3725 0.987977 6.76785 0.767047 7.19808 0.743791C7.89575 0.720535 9.63994 0.720536 10.0237 0.767047C10.419 0.871699 10.7213 1.23216 10.733 1.6624Z" fill="#1C1B1D"/>
</svg>
