<svg width="200" height="200" viewBox="0 0 200 200" fill="none" xmlns="http://www.w3.org/2000/svg">
<path d="M200 100C200 155.228 155.228 200 100 200C44.7715 200 0 155.228 0 100C0 44.7715 44.7715 0 100 0C155.228 0 200 44.7715 200 100Z" fill="#FFF6F8"/>
<path d="M100.795 120.743C100.795 125.175 94.8141 128.785 87.3976 128.785C79.9811 128.785 74 125.175 74 120.743C74 116.312 79.9811 112.702 87.3976 112.702C94.8141 112.702 100.795 116.312 100.795 120.743Z" fill="white"/>
<path d="M87.3976 128.785C80.5552 128.785 74.9091 125.7 74.0957 121.728C74.0478 122.056 74 122.385 74 122.713C74 127.144 79.9811 130.755 87.3976 130.755C94.8141 130.755 100.795 127.144 100.795 122.713C100.795 122.385 100.747 122.056 100.699 121.728C99.886 125.7 94.2399 128.785 87.3976 128.785Z" fill="#FFBFCD"/>
<path d="M98.1635 120.711C98.1635 120.973 98.1635 121.203 98.1157 121.433C98.0678 121.597 97.8286 121.728 97.5893 121.728C97.3501 121.695 97.1587 121.531 97.1587 121.367C97.2065 121.17 97.2065 120.973 97.2065 120.743C97.2065 120.547 97.3979 120.415 97.685 120.415C97.9721 120.415 98.1635 120.547 98.1635 120.711ZM97.6372 118.807C97.6372 118.938 97.5415 119.069 97.3501 119.102C97.1108 119.168 96.8237 119.069 96.728 118.905C96.6324 118.708 96.4888 118.511 96.3453 118.347C96.2017 118.183 96.2974 117.986 96.5367 117.921C96.7759 117.822 97.063 117.888 97.1587 118.052C97.3022 118.249 97.4458 118.479 97.5415 118.676C97.6372 118.741 97.6372 118.774 97.6372 118.807ZM97.3022 123.238C97.3022 123.304 97.3022 123.336 97.2544 123.402C97.1108 123.599 96.9194 123.796 96.7759 123.993C96.6324 124.157 96.3453 124.19 96.106 124.091C95.8668 123.993 95.8189 123.796 95.9625 123.632C96.106 123.468 96.2974 123.271 96.3931 123.107C96.5367 122.943 96.8237 122.877 97.0151 122.975C97.2065 123.008 97.3022 123.14 97.3022 123.238ZM95.5797 116.641C95.5797 116.739 95.5318 116.805 95.4361 116.87C95.2447 117.002 94.9577 117.002 94.7663 116.87C94.5749 116.739 94.3356 116.575 94.0964 116.444C93.905 116.345 93.8571 116.115 94.0485 115.984C94.2399 115.853 94.527 115.82 94.7184 115.951C94.9577 116.083 95.2447 116.247 95.4361 116.411C95.5318 116.476 95.5797 116.575 95.5797 116.641ZM94.9098 125.24C94.9098 125.339 94.862 125.437 94.7184 125.503C94.4792 125.634 94.1921 125.798 93.905 125.897C93.6658 125.995 93.3787 125.962 93.2351 125.798C93.0916 125.634 93.1394 125.437 93.3787 125.339C93.6179 125.207 93.8571 125.109 94.0964 124.978C94.2878 124.846 94.6227 124.879 94.7663 125.01C94.862 125.109 94.9098 125.175 94.9098 125.24ZM92.4695 115.196C92.4695 115.229 92.4695 115.295 92.4217 115.328C92.326 115.492 92.0389 115.557 91.7997 115.492C91.5126 115.393 91.2255 115.328 90.9384 115.262C90.6991 115.196 90.5556 115.032 90.6513 114.835C90.747 114.671 90.9862 114.573 91.2733 114.638C91.6083 114.704 91.8954 114.802 92.1824 114.868C92.3738 114.967 92.4695 115.065 92.4695 115.196ZM91.6083 126.52C91.6083 126.652 91.4647 126.783 91.2733 126.816C90.9862 126.881 90.6513 126.947 90.3164 127.013C90.0771 127.046 89.79 126.947 89.7422 126.783C89.6943 126.619 89.8379 126.422 90.0771 126.389C90.3642 126.323 90.6513 126.291 90.9384 126.225C91.1776 126.159 91.4647 126.258 91.5604 126.422C91.6083 126.422 91.6083 126.455 91.6083 126.52ZM88.7852 114.573C88.7852 114.605 88.7852 114.605 88.7852 114.573C88.7852 114.77 88.546 114.901 88.2589 114.901C87.9718 114.901 87.6847 114.868 87.3976 114.868C87.1105 114.868 86.9191 114.737 86.9191 114.54C86.9191 114.343 87.1105 114.212 87.3976 114.212C87.7325 114.212 88.0196 114.212 88.3546 114.244C88.5938 114.277 88.7852 114.409 88.7852 114.573ZM87.8761 126.914C87.8761 127.111 87.6847 127.242 87.3976 127.242C87.0627 127.242 86.7277 127.242 86.4406 127.21C86.2014 127.21 85.9622 127.046 86.01 126.849C86.01 126.652 86.2492 126.52 86.5363 126.553C86.8234 126.553 87.1584 126.586 87.4455 126.586C87.6847 126.586 87.8761 126.75 87.8761 126.914ZM85.0052 114.802C85.0052 114.934 84.8616 115.098 84.6224 115.131C84.3353 115.196 84.0482 115.229 83.7611 115.295C83.5219 115.36 83.2348 115.262 83.1391 115.098C83.0434 114.934 83.1869 114.737 83.4262 114.671C83.7133 114.605 84.0482 114.54 84.3832 114.474C84.6224 114.441 84.9095 114.54 84.9573 114.704C85.0052 114.737 85.0052 114.77 85.0052 114.802ZM84.1439 126.52C84.1439 126.553 84.1439 126.586 84.0961 126.619C84.0004 126.783 83.7611 126.881 83.474 126.816C83.1869 126.75 82.852 126.652 82.5649 126.586C82.3257 126.52 82.23 126.323 82.3257 126.159C82.4214 125.995 82.7085 125.93 82.9477 125.995C83.2348 126.094 83.5219 126.159 83.809 126.225C84.0482 126.258 84.1439 126.389 84.1439 126.52ZM81.5601 115.853C81.5601 115.951 81.4644 116.05 81.3687 116.115C81.1295 116.247 80.8902 116.345 80.651 116.476C80.4596 116.608 80.1246 116.575 79.9811 116.444C79.7897 116.312 79.8376 116.083 80.029 115.984C80.2682 115.853 80.5553 115.689 80.8424 115.59C81.0816 115.492 81.3687 115.525 81.5123 115.689C81.5601 115.721 81.5601 115.787 81.5601 115.853ZM80.8424 125.273C80.8424 125.339 80.7945 125.404 80.7467 125.47C80.6031 125.601 80.2682 125.634 80.0768 125.503C79.8376 125.372 79.5505 125.207 79.3591 125.043C79.1677 124.912 79.1677 124.715 79.3591 124.584C79.5505 124.452 79.8376 124.452 80.029 124.584C80.2203 124.715 80.4596 124.879 80.6988 125.01C80.7945 125.076 80.8424 125.175 80.8424 125.273ZM78.9284 117.691C78.9284 117.757 78.8806 117.822 78.8327 117.855C78.6892 118.019 78.4978 118.216 78.4021 118.38C78.3064 118.544 77.9715 118.61 77.7801 118.511C77.5408 118.446 77.4451 118.249 77.5887 118.085C77.7322 117.888 77.9236 117.691 78.0672 117.494C78.2107 117.33 78.4978 117.297 78.737 117.395C78.8327 117.461 78.9284 117.592 78.9284 117.691ZM78.45 123.271C78.45 123.402 78.3543 123.501 78.2107 123.566C77.9715 123.665 77.6844 123.599 77.5887 123.435C77.4451 123.238 77.3016 123.008 77.2059 122.811C77.1102 122.647 77.2537 122.45 77.493 122.385C77.7322 122.319 78.0193 122.417 78.115 122.582C78.2107 122.778 78.3543 122.975 78.4978 123.14C78.45 123.172 78.45 123.205 78.45 123.271ZM77.6365 120.12L77.6365 120.153C77.5887 120.35 77.5887 120.547 77.5887 120.743C77.5887 120.94 77.3973 121.072 77.1102 121.072C76.8231 121.072 76.6317 120.94 76.6317 120.743C76.6317 120.514 76.6317 120.284 76.6796 120.087C76.7274 119.923 76.9667 119.792 77.2059 119.792C77.4451 119.792 77.6365 119.956 77.6365 120.12Z" fill="#FFBFCD"/>
<path d="M87.8761 128.785L87.8761 130.755C88.211 130.755 88.4981 130.722 88.8331 130.722L88.8331 128.752C88.4981 128.752 88.211 128.785 87.8761 128.785Z" fill="#F48BA2"/>
<path d="M85.4836 128.719L85.4836 130.689C85.8186 130.722 86.1057 130.722 86.4406 130.755L86.4406 128.785C86.1057 128.752 85.8186 128.752 85.4836 128.719Z" fill="#F48BA2"/>
<path d="M90.2686 128.621L90.2686 130.59C90.6035 130.558 90.8906 130.492 91.2255 130.426L91.2255 128.457C90.8906 128.523 90.6035 128.555 90.2686 128.621Z" fill="#F48BA2"/>
<path d="M92.6609 128.161L92.6609 130.131C92.9958 130.032 93.2829 129.967 93.6179 129.868L93.6179 127.899C93.2829 127.965 92.9958 128.063 92.6609 128.161Z" fill="#F48BA2"/>
<path d="M83.0913 128.358L83.0913 130.328C83.4262 130.394 83.7133 130.459 84.0483 130.492L84.0483 128.523C83.7133 128.49 83.4262 128.424 83.0913 128.358Z" fill="#F48BA2"/>
<path d="M80.6989 127.702L80.6989 129.671C81.0338 129.77 81.3209 129.868 81.6558 129.967L81.6558 127.997C81.3209 127.932 81.0338 127.833 80.6989 127.702Z" fill="#F48BA2"/>
<path d="M77.8279 126.389L77.8279 128.358C78.115 128.555 78.4499 128.719 78.7848 128.884L78.7848 126.914C78.4499 126.75 78.115 126.553 77.8279 126.389Z" fill="#F48BA2"/>
<path d="M75.4355 124.354L75.4355 126.323C75.7226 126.652 76.0576 126.98 76.3925 127.275L76.3925 125.306C76.0576 125.01 75.7226 124.715 75.4355 124.354Z" fill="#F48BA2"/>
<path d="M95.5319 127.144L95.5319 129.113C95.8668 128.949 96.2017 128.785 96.4888 128.621L96.4888 126.652C96.2017 126.816 95.8668 126.98 95.5319 127.144Z" fill="#F48BA2"/>
<path d="M97.9243 127.702C98.2593 127.439 98.5942 127.177 98.8813 126.881L98.8813 124.912C98.5942 125.207 98.2593 125.47 97.9243 125.733L97.9243 127.702Z" fill="#F48BA2"/>
<path d="M89.8763 120.252L89.8763 121.542L91.2255 121.542L91.2255 122.552L89.8763 122.552L89.8763 123.373L88.6906 123.373L88.6906 122.552L88.0656 122.552L88.0656 123.373L86.8799 123.373L86.8799 122.552L82.7212 122.552L82.7212 120.32C82.7212 119.676 82.9665 119.162 83.4571 118.777C83.9439 118.393 84.5922 118.2 85.4022 118.2C86.2277 118.2 86.876 118.383 87.3472 118.749C87.8144 119.115 88.0539 119.624 88.0656 120.276L88.0656 121.542L88.6906 121.542L88.6906 120.252L89.8763 120.252ZM86.8799 121.542L86.8799 120.336C86.8799 119.973 86.7572 119.695 86.5119 119.503C86.2666 119.31 85.9006 119.214 85.4138 119.214C84.9777 119.214 84.6214 119.309 84.345 119.499C84.0685 119.686 83.9244 119.945 83.9127 120.276L83.9127 121.542L86.8799 121.542Z" fill="#F48BA2"/>
<path d="M100.795 118.622C100.795 123.053 94.8141 126.664 87.3976 126.664C79.9811 126.664 74 123.053 74 118.622C74 114.191 79.9811 110.58 87.3976 110.58C94.8141 110.58 100.795 114.191 100.795 118.622Z" fill="white"/>
<path d="M87.3976 126.664C80.5552 126.664 74.9091 123.578 74.0957 119.607C74.0478 119.935 74 120.263 74 120.591C74 125.022 79.9811 128.633 87.3976 128.633C94.8141 128.633 100.795 125.022 100.795 120.591C100.795 120.263 100.747 119.935 100.699 119.607C99.886 123.578 94.2399 126.664 87.3976 126.664Z" fill="#FFBFCD"/>
<path d="M98.1635 118.589C98.1635 118.852 98.1635 119.082 98.1157 119.311C98.0678 119.475 97.8286 119.607 97.5893 119.607C97.3501 119.574 97.1587 119.41 97.1587 119.246C97.2065 119.049 97.2065 118.852 97.2065 118.622C97.2065 118.425 97.3979 118.294 97.685 118.294C97.9721 118.294 98.1635 118.425 98.1635 118.589ZM97.6372 116.685C97.6372 116.817 97.5415 116.948 97.3501 116.981C97.1108 117.046 96.8237 116.948 96.728 116.784C96.6324 116.587 96.4888 116.39 96.3453 116.226C96.2017 116.062 96.2974 115.865 96.5367 115.799C96.7759 115.701 97.063 115.766 97.1587 115.93C97.3022 116.127 97.4458 116.357 97.5415 116.554C97.6372 116.62 97.6372 116.653 97.6372 116.685ZM97.3022 121.117C97.3022 121.182 97.3022 121.215 97.2544 121.281C97.1108 121.478 96.9194 121.675 96.7759 121.871C96.6324 122.036 96.3453 122.068 96.106 121.97C95.8668 121.871 95.8189 121.675 95.9625 121.51C96.106 121.346 96.2974 121.149 96.3931 120.985C96.5367 120.821 96.8237 120.755 97.0151 120.854C97.2065 120.887 97.3022 121.018 97.3022 121.117ZM95.5797 114.519C95.5797 114.618 95.5318 114.683 95.4361 114.749C95.2447 114.88 94.9577 114.88 94.7663 114.749C94.5749 114.618 94.3356 114.453 94.0964 114.322C93.905 114.224 93.8571 113.994 94.0485 113.863C94.2399 113.731 94.527 113.698 94.7184 113.83C94.9577 113.961 95.2447 114.125 95.4361 114.289C95.5318 114.355 95.5797 114.453 95.5797 114.519ZM94.9098 123.119C94.9098 123.217 94.862 123.316 94.7184 123.381C94.4792 123.513 94.1921 123.677 93.905 123.775C93.6658 123.874 93.3787 123.841 93.2351 123.677C93.0916 123.513 93.1394 123.316 93.3787 123.217C93.6179 123.086 93.8571 122.987 94.0964 122.856C94.2878 122.725 94.6227 122.758 94.7663 122.889C94.862 122.987 94.9098 123.053 94.9098 123.119ZM92.4695 113.075C92.4695 113.108 92.4695 113.173 92.4217 113.206C92.326 113.37 92.0389 113.436 91.7997 113.37C91.5126 113.272 91.2255 113.206 90.9384 113.14C90.6991 113.075 90.5556 112.911 90.6513 112.714C90.747 112.55 90.9862 112.451 91.2733 112.517C91.6083 112.582 91.8954 112.681 92.1824 112.747C92.3738 112.845 92.4695 112.944 92.4695 113.075ZM91.6083 124.399C91.6083 124.53 91.4647 124.661 91.2733 124.694C90.9862 124.76 90.6513 124.826 90.3164 124.891C90.0771 124.924 89.79 124.826 89.7422 124.661C89.6943 124.497 89.8379 124.3 90.0771 124.268C90.3642 124.202 90.6513 124.169 90.9384 124.103C91.1776 124.038 91.4647 124.136 91.5604 124.3C91.6083 124.3 91.6083 124.333 91.6083 124.399ZM88.7852 112.451C88.7852 112.484 88.7852 112.484 88.7852 112.451C88.7852 112.648 88.546 112.779 88.2589 112.779C87.9718 112.779 87.6847 112.747 87.3976 112.747C87.1105 112.747 86.9191 112.615 86.9191 112.418C86.9191 112.221 87.1105 112.09 87.3976 112.09C87.7325 112.09 88.0196 112.09 88.3546 112.123C88.5938 112.156 88.7852 112.287 88.7852 112.451ZM87.8761 124.793C87.8761 124.99 87.6847 125.121 87.3976 125.121C87.0627 125.121 86.7277 125.121 86.4406 125.088C86.2014 125.088 85.9622 124.924 86.01 124.727C86.01 124.53 86.2492 124.399 86.5363 124.432C86.8234 124.432 87.1584 124.465 87.4455 124.465C87.6847 124.465 87.8761 124.629 87.8761 124.793ZM85.0052 112.681C85.0052 112.812 84.8616 112.976 84.6224 113.009C84.3353 113.075 84.0482 113.108 83.7611 113.173C83.5219 113.239 83.2348 113.14 83.1391 112.976C83.0434 112.812 83.1869 112.615 83.4262 112.55C83.7133 112.484 84.0482 112.418 84.3832 112.353C84.6224 112.32 84.9095 112.418 84.9573 112.582C85.0052 112.615 85.0052 112.648 85.0052 112.681ZM84.1439 124.399C84.1439 124.432 84.1439 124.465 84.0961 124.497C84.0004 124.661 83.7611 124.76 83.474 124.694C83.1869 124.629 82.852 124.53 82.5649 124.465C82.3257 124.399 82.23 124.202 82.3257 124.038C82.4214 123.874 82.7085 123.808 82.9477 123.874C83.2348 123.972 83.5219 124.038 83.809 124.103C84.0482 124.136 84.1439 124.268 84.1439 124.399ZM81.5601 113.731C81.5601 113.83 81.4644 113.928 81.3687 113.994C81.1295 114.125 80.8902 114.224 80.651 114.355C80.4596 114.486 80.1246 114.453 79.9811 114.322C79.7897 114.191 79.8376 113.961 80.029 113.863C80.2682 113.731 80.5553 113.567 80.8424 113.469C81.0816 113.37 81.3687 113.403 81.5123 113.567C81.5601 113.6 81.5601 113.666 81.5601 113.731ZM80.8424 123.152C80.8424 123.217 80.7945 123.283 80.7467 123.349C80.6031 123.48 80.2682 123.513 80.0768 123.381C79.8376 123.25 79.5505 123.086 79.3591 122.922C79.1677 122.791 79.1677 122.594 79.3591 122.462C79.5505 122.331 79.8376 122.331 80.029 122.462C80.2203 122.594 80.4596 122.758 80.6988 122.889C80.7945 122.955 80.8424 123.053 80.8424 123.152ZM78.9284 115.569C78.9284 115.635 78.8806 115.701 78.8327 115.734C78.6892 115.898 78.4978 116.095 78.4021 116.259C78.3064 116.423 77.9715 116.488 77.7801 116.39C77.5408 116.324 77.4451 116.127 77.5887 115.963C77.7322 115.766 77.9236 115.569 78.0672 115.372C78.2107 115.208 78.4978 115.176 78.737 115.274C78.8327 115.34 78.9284 115.471 78.9284 115.569ZM78.45 121.149C78.45 121.281 78.3543 121.379 78.2107 121.445C77.9715 121.543 77.6844 121.478 77.5887 121.313C77.4451 121.117 77.3016 120.887 77.2059 120.69C77.1102 120.526 77.2537 120.329 77.493 120.263C77.7322 120.197 78.0193 120.296 78.115 120.46C78.2107 120.657 78.3543 120.854 78.4978 121.018C78.45 121.051 78.45 121.084 78.45 121.149ZM77.6365 117.998L77.6365 118.031C77.5887 118.228 77.5887 118.425 77.5887 118.622C77.5887 118.819 77.3973 118.95 77.1102 118.95C76.8231 118.95 76.6317 118.819 76.6317 118.622C76.6317 118.392 76.6317 118.162 76.6796 117.966C76.7274 117.801 76.9667 117.67 77.2059 117.67C77.4451 117.67 77.6365 117.834 77.6365 117.998Z" fill="#FFBFCD"/>
<path d="M87.8761 126.664L87.8761 128.633C88.211 128.633 88.4981 128.6 88.8331 128.6L88.8331 126.631C88.4981 126.631 88.211 126.664 87.8761 126.664Z" fill="#F48BA2"/>
<path d="M85.4836 126.598L85.4836 128.567C85.8186 128.6 86.1057 128.6 86.4406 128.633L86.4406 126.664C86.1057 126.631 85.8186 126.631 85.4836 126.598Z" fill="#F48BA2"/>
<path d="M90.2686 126.5L90.2686 128.469C90.6035 128.436 90.8906 128.371 91.2255 128.305L91.2255 126.335C90.8906 126.401 90.6035 126.434 90.2686 126.5Z" fill="#F48BA2"/>
<path d="M92.6609 126.04L92.6609 128.01C92.9958 127.911 93.2829 127.845 93.6179 127.747L93.6179 125.778C93.2829 125.843 92.9958 125.942 92.6609 126.04Z" fill="#F48BA2"/>
<path d="M83.0913 126.237L83.0913 128.207C83.4262 128.272 83.7133 128.338 84.0483 128.371L84.0483 126.401C83.7133 126.368 83.4262 126.303 83.0913 126.237Z" fill="#F48BA2"/>
<path d="M80.6989 125.581L80.6989 127.55C81.0338 127.648 81.3209 127.747 81.6558 127.845L81.6558 125.876C81.3209 125.81 81.0338 125.712 80.6989 125.581Z" fill="#F48BA2"/>
<path d="M77.8279 124.268L77.8279 126.237C78.115 126.434 78.4499 126.598 78.7848 126.762L78.7848 124.793C78.4499 124.629 78.115 124.432 77.8279 124.268Z" fill="#F48BA2"/>
<path d="M75.4355 122.233L75.4355 124.202C75.7226 124.53 76.0576 124.858 76.3925 125.154L76.3925 123.184C76.0576 122.889 75.7226 122.594 75.4355 122.233Z" fill="#F48BA2"/>
<path d="M95.5319 125.023L95.5319 126.992C95.8668 126.828 96.2017 126.664 96.4888 126.5L96.4888 124.53C96.2017 124.694 95.8668 124.859 95.5319 125.023Z" fill="#F48BA2"/>
<path d="M97.9243 125.58C98.2593 125.318 98.5942 125.055 98.8813 124.76L98.8813 122.791C98.5942 123.086 98.2593 123.349 97.9243 123.611L97.9243 125.58Z" fill="#F48BA2"/>
<path d="M89.8763 118.13L89.8763 119.421L91.2255 119.421L91.2255 120.43L89.8763 120.43L89.8763 121.252L88.6906 121.252L88.6906 120.43L88.0656 120.43L88.0656 121.252L86.8799 121.252L86.8799 120.43L82.7212 120.43L82.7212 118.199C82.7212 117.555 82.9665 117.041 83.4571 116.656C83.9439 116.271 84.5922 116.079 85.4022 116.079C86.2277 116.079 86.876 116.262 87.3472 116.628C87.8144 116.994 88.0539 117.503 88.0656 118.154L88.0656 119.421L88.6906 119.421L88.6906 118.13L89.8763 118.13ZM86.8799 119.421L86.8799 118.215C86.8799 117.851 86.7572 117.574 86.5119 117.381C86.2666 117.189 85.9006 117.093 85.4138 117.093C84.9777 117.093 84.6214 117.188 84.345 117.377C84.0685 117.564 83.9244 117.823 83.9127 118.154L83.9127 119.421L86.8799 119.421Z" fill="#F48BA2"/>
<path d="M100.795 116.492C100.795 120.923 94.8141 124.534 87.3976 124.534C79.9811 124.534 74 120.923 74 116.492C74 112.061 79.9811 108.45 87.3976 108.45C94.8141 108.45 100.795 112.061 100.795 116.492Z" fill="white"/>
<path d="M87.3976 124.533C80.5552 124.533 74.9091 121.448 74.0957 117.476C74.0478 117.805 74 118.133 74 118.461C74 122.892 79.9811 126.503 87.3976 126.503C94.8141 126.503 100.795 122.892 100.795 118.461C100.795 118.133 100.747 117.805 100.699 117.476C99.886 121.448 94.2399 124.533 87.3976 124.533Z" fill="#FFBFCD"/>
<path d="M98.1635 116.459C98.1635 116.722 98.1635 116.951 98.1157 117.181C98.0678 117.345 97.8286 117.477 97.5893 117.477C97.3501 117.444 97.1587 117.28 97.1587 117.115C97.2065 116.919 97.2065 116.722 97.2065 116.492C97.2065 116.295 97.3979 116.164 97.685 116.164C97.9721 116.164 98.1635 116.295 98.1635 116.459ZM97.6372 114.555C97.6372 114.687 97.5415 114.818 97.3501 114.851C97.1108 114.916 96.8237 114.818 96.728 114.654C96.6324 114.457 96.4888 114.26 96.3453 114.096C96.2017 113.932 96.2974 113.735 96.5367 113.669C96.7759 113.571 97.063 113.636 97.1587 113.8C97.3022 113.997 97.4458 114.227 97.5415 114.424C97.6372 114.49 97.6372 114.522 97.6372 114.555ZM97.3022 118.986C97.3022 119.052 97.3022 119.085 97.2544 119.151C97.1108 119.347 96.9194 119.544 96.7759 119.741C96.6324 119.905 96.3453 119.938 96.106 119.84C95.8668 119.741 95.8189 119.544 95.9625 119.38C96.106 119.216 96.2974 119.019 96.3931 118.855C96.5367 118.691 96.8237 118.625 97.0151 118.724C97.2065 118.757 97.3022 118.888 97.3022 118.986ZM95.5797 112.389C95.5797 112.487 95.5318 112.553 95.4361 112.619C95.2447 112.75 94.9577 112.75 94.7663 112.619C94.5749 112.487 94.3356 112.323 94.0964 112.192C93.905 112.094 93.8571 111.864 94.0485 111.732C94.2399 111.601 94.527 111.568 94.7184 111.7C94.9577 111.831 95.2447 111.995 95.4361 112.159C95.5318 112.225 95.5797 112.323 95.5797 112.389ZM94.9098 120.989C94.9098 121.087 94.862 121.186 94.7184 121.251C94.4792 121.383 94.1921 121.547 93.905 121.645C93.6658 121.744 93.3787 121.711 93.2351 121.547C93.0916 121.383 93.1394 121.186 93.3787 121.087C93.6179 120.956 93.8571 120.857 94.0964 120.726C94.2878 120.595 94.6227 120.628 94.7663 120.759C94.862 120.857 94.9098 120.923 94.9098 120.989ZM92.4695 110.945C92.4695 110.978 92.4695 111.043 92.4217 111.076C92.326 111.24 92.0389 111.306 91.7997 111.24C91.5126 111.142 91.2255 111.076 90.9384 111.01C90.6991 110.945 90.5556 110.781 90.6513 110.584C90.747 110.42 90.9862 110.321 91.2733 110.387C91.6083 110.452 91.8954 110.551 92.1824 110.616C92.3738 110.715 92.4695 110.813 92.4695 110.945ZM91.6083 122.269C91.6083 122.4 91.4647 122.531 91.2733 122.564C90.9862 122.63 90.6513 122.695 90.3164 122.761C90.0771 122.794 89.79 122.695 89.7422 122.531C89.6943 122.367 89.8379 122.17 90.0771 122.137C90.3642 122.072 90.6513 122.039 90.9384 121.973C91.1776 121.908 91.4647 122.006 91.5604 122.17C91.6083 122.17 91.6083 122.203 91.6083 122.269ZM88.7852 110.321C88.7852 110.354 88.7852 110.354 88.7852 110.321C88.7852 110.518 88.546 110.649 88.2589 110.649C87.9718 110.649 87.6847 110.616 87.3976 110.616C87.1105 110.616 86.9191 110.485 86.9191 110.288C86.9191 110.091 87.1105 109.96 87.3976 109.96C87.7325 109.96 88.0196 109.96 88.3546 109.993C88.5938 110.026 88.7852 110.157 88.7852 110.321ZM87.8761 122.663C87.8761 122.86 87.6847 122.991 87.3976 122.991C87.0627 122.991 86.7277 122.991 86.4406 122.958C86.2014 122.958 85.9622 122.794 86.01 122.597C86.01 122.4 86.2492 122.269 86.5363 122.302C86.8234 122.302 87.1584 122.334 87.4455 122.334C87.6847 122.334 87.8761 122.499 87.8761 122.663ZM85.0052 110.551C85.0052 110.682 84.8616 110.846 84.6224 110.879C84.3353 110.945 84.0482 110.978 83.7611 111.043C83.5219 111.109 83.2348 111.01 83.1391 110.846C83.0434 110.682 83.1869 110.485 83.4262 110.42C83.7133 110.354 84.0482 110.288 84.3832 110.223C84.6224 110.19 84.9095 110.288 84.9573 110.452C85.0052 110.485 85.0052 110.518 85.0052 110.551ZM84.1439 122.269C84.1439 122.302 84.1439 122.334 84.0961 122.367C84.0004 122.531 83.7611 122.63 83.474 122.564C83.1869 122.499 82.852 122.4 82.5649 122.334C82.3257 122.269 82.23 122.072 82.3257 121.908C82.4214 121.744 82.7085 121.678 82.9477 121.744C83.2348 121.842 83.5219 121.908 83.809 121.973C84.0482 122.006 84.1439 122.137 84.1439 122.269ZM81.5601 111.601C81.5601 111.7 81.4644 111.798 81.3687 111.864C81.1295 111.995 80.8902 112.094 80.651 112.225C80.4596 112.356 80.1246 112.323 79.9811 112.192C79.7897 112.061 79.8376 111.831 80.029 111.732C80.2682 111.601 80.5553 111.437 80.8424 111.339C81.0816 111.24 81.3687 111.273 81.5123 111.437C81.5601 111.47 81.5601 111.536 81.5601 111.601ZM80.8424 121.021C80.8424 121.087 80.7945 121.153 80.7467 121.218C80.6031 121.35 80.2682 121.383 80.0768 121.251C79.8376 121.12 79.5505 120.956 79.3591 120.792C79.1677 120.66 79.1677 120.463 79.3591 120.332C79.5505 120.201 79.8376 120.201 80.029 120.332C80.2203 120.463 80.4596 120.628 80.6988 120.759C80.7945 120.825 80.8424 120.923 80.8424 121.021ZM78.9284 113.439C78.9284 113.505 78.8806 113.571 78.8327 113.603C78.6892 113.768 78.4978 113.964 78.4021 114.129C78.3064 114.293 77.9715 114.358 77.7801 114.26C77.5408 114.194 77.4451 113.997 77.5887 113.833C77.7322 113.636 77.9236 113.439 78.0672 113.242C78.2107 113.078 78.4978 113.045 78.737 113.144C78.8327 113.21 78.9284 113.341 78.9284 113.439ZM78.45 119.019C78.45 119.151 78.3543 119.249 78.2107 119.315C77.9715 119.413 77.6844 119.347 77.5887 119.183C77.4451 118.986 77.3016 118.757 77.2059 118.56C77.1102 118.396 77.2537 118.199 77.493 118.133C77.7322 118.067 78.0193 118.166 78.115 118.33C78.2107 118.527 78.3543 118.724 78.4978 118.888C78.45 118.921 78.45 118.954 78.45 119.019ZM77.6365 115.868L77.6365 115.901C77.5887 116.098 77.5887 116.295 77.5887 116.492C77.5887 116.689 77.3973 116.82 77.1102 116.82C76.8231 116.82 76.6317 116.689 76.6317 116.492C76.6317 116.262 76.6317 116.032 76.6796 115.835C76.7274 115.671 76.9667 115.54 77.2059 115.54C77.4451 115.54 77.6365 115.704 77.6365 115.868Z" fill="#FFBFCD"/>
<path d="M87.8761 124.534L87.8761 126.503C88.211 126.503 88.4981 126.47 88.8331 126.47L88.8331 124.501C88.4981 124.501 88.211 124.534 87.8761 124.534Z" fill="#F48BA2"/>
<path d="M85.4836 124.468L85.4836 126.437C85.8186 126.47 86.1057 126.47 86.4406 126.503L86.4406 124.534C86.1057 124.501 85.8186 124.501 85.4836 124.468Z" fill="#F48BA2"/>
<path d="M90.2686 124.37L90.2686 126.339C90.6035 126.306 90.8906 126.241 91.2255 126.175L91.2255 124.205C90.8906 124.271 90.6035 124.304 90.2686 124.37Z" fill="#F48BA2"/>
<path d="M92.6609 123.91L92.6609 125.879C92.9958 125.781 93.2829 125.715 93.6179 125.617L93.6179 123.647C93.2829 123.713 92.9958 123.811 92.6609 123.91Z" fill="#F48BA2"/>
<path d="M83.0913 124.107L83.0913 126.076C83.4262 126.142 83.7133 126.208 84.0483 126.24L84.0483 124.271C83.7133 124.238 83.4262 124.172 83.0913 124.107Z" fill="#F48BA2"/>
<path d="M80.6989 123.45L80.6989 125.42C81.0338 125.518 81.3209 125.617 81.6558 125.715L81.6558 123.746C81.3209 123.68 81.0338 123.582 80.6989 123.45Z" fill="#F48BA2"/>
<path d="M77.8279 122.137L77.8279 124.107C78.115 124.304 78.4499 124.468 78.7848 124.632L78.7848 122.663C78.4499 122.499 78.115 122.302 77.8279 122.137Z" fill="#F48BA2"/>
<path d="M75.4355 120.102L75.4355 122.072C75.7226 122.4 76.0576 122.728 76.3925 123.024L76.3925 121.054C76.0576 120.759 75.7226 120.463 75.4355 120.102Z" fill="#F48BA2"/>
<path d="M95.5319 122.892L95.5319 124.862C95.8668 124.698 96.2017 124.534 96.4888 124.369L96.4888 122.4C96.2017 122.564 95.8668 122.728 95.5319 122.892Z" fill="#F48BA2"/>
<path d="M97.9243 123.45C98.2593 123.188 98.5942 122.925 98.8813 122.63L98.8813 120.66C98.5942 120.956 98.2593 121.218 97.9243 121.481L97.9243 123.45Z" fill="#F48BA2"/>
<path d="M89.8763 116L89.8763 117.291L91.2255 117.291L91.2255 118.3L89.8763 118.3L89.8763 119.122L88.6906 119.122L88.6906 118.3L88.0656 118.3L88.0656 119.122L86.8799 119.122L86.8799 118.3L82.7212 118.3L82.7212 116.068C82.7212 115.425 82.9665 114.91 83.4571 114.526C83.9439 114.141 84.5922 113.949 85.4022 113.949C86.2277 113.949 86.876 114.132 87.3472 114.498C87.8144 114.864 88.0539 115.373 88.0656 116.024L88.0656 117.291L88.6906 117.291L88.6906 116L89.8763 116ZM86.8799 117.291L86.8799 116.084C86.8799 115.721 86.7572 115.443 86.5119 115.251C86.2666 115.059 85.9006 114.963 85.4138 114.963C84.9777 114.963 84.6214 115.057 84.345 115.247C84.0685 115.434 83.9244 115.693 83.9127 116.024L83.9127 117.291L86.8799 117.291Z" fill="#F48BA2"/>
<path d="M100.795 114.37C100.795 118.801 94.8141 122.412 87.3976 122.412C79.9811 122.412 74 118.801 74 114.37C74 109.939 79.9811 106.329 87.3976 106.329C94.8141 106.329 100.795 109.939 100.795 114.37Z" fill="white"/>
<path d="M87.3976 122.412C80.5552 122.412 74.9091 119.327 74.0957 115.355C74.0478 115.683 74 116.011 74 116.34C74 120.771 79.9811 124.381 87.3976 124.381C94.8141 124.381 100.795 120.771 100.795 116.34C100.795 116.011 100.747 115.683 100.699 115.355C99.886 119.327 94.2399 122.412 87.3976 122.412Z" fill="#FFBFCD"/>
<path d="M98.1635 114.337C98.1635 114.6 98.1635 114.83 98.1157 115.06C98.0678 115.224 97.8286 115.355 97.5893 115.355C97.3501 115.322 97.1587 115.158 97.1587 114.994C97.2065 114.797 97.2065 114.6 97.2065 114.37C97.2065 114.173 97.3979 114.042 97.685 114.042C97.9721 114.042 98.1635 114.173 98.1635 114.337ZM97.6372 112.434C97.6372 112.565 97.5415 112.696 97.3501 112.729C97.1108 112.795 96.8237 112.696 96.728 112.532C96.6324 112.335 96.4888 112.138 96.3453 111.974C96.2017 111.81 96.2974 111.613 96.5367 111.547C96.7759 111.449 97.063 111.515 97.1587 111.679C97.3022 111.876 97.4458 112.105 97.5415 112.302C97.6372 112.368 97.6372 112.401 97.6372 112.434ZM97.3022 116.865C97.3022 116.931 97.3022 116.963 97.2544 117.029C97.1108 117.226 96.9194 117.423 96.7759 117.62C96.6324 117.784 96.3453 117.817 96.106 117.718C95.8668 117.62 95.8189 117.423 95.9625 117.259C96.106 117.095 96.2974 116.898 96.3931 116.734C96.5367 116.569 96.8237 116.504 97.0151 116.602C97.2065 116.635 97.3022 116.766 97.3022 116.865ZM95.5797 110.267C95.5797 110.366 95.5318 110.431 95.4361 110.497C95.2447 110.628 94.9577 110.628 94.7663 110.497C94.5749 110.366 94.3356 110.202 94.0964 110.07C93.905 109.972 93.8571 109.742 94.0485 109.611C94.2399 109.48 94.527 109.447 94.7184 109.578C94.9577 109.709 95.2447 109.873 95.4361 110.038C95.5318 110.103 95.5797 110.202 95.5797 110.267ZM94.9098 118.867C94.9098 118.966 94.862 119.064 94.7184 119.13C94.4792 119.261 94.1921 119.425 93.905 119.524C93.6658 119.622 93.3787 119.589 93.2351 119.425C93.0916 119.261 93.1394 119.064 93.3787 118.966C93.6179 118.834 93.8571 118.736 94.0964 118.604C94.2878 118.473 94.6227 118.506 94.7663 118.637C94.862 118.736 94.9098 118.801 94.9098 118.867ZM92.4695 108.823C92.4695 108.856 92.4695 108.922 92.4217 108.954C92.326 109.119 92.0389 109.184 91.7997 109.119C91.5126 109.02 91.2255 108.954 90.9384 108.889C90.6991 108.823 90.5556 108.659 90.6513 108.462C90.747 108.298 90.9862 108.199 91.2733 108.265C91.6083 108.331 91.8954 108.429 92.1824 108.495C92.3738 108.593 92.4695 108.692 92.4695 108.823ZM91.6083 120.147C91.6083 120.278 91.4647 120.41 91.2733 120.443C90.9862 120.508 90.6513 120.574 90.3164 120.64C90.0771 120.672 89.79 120.574 89.7422 120.41C89.6943 120.246 89.8379 120.049 90.0771 120.016C90.3642 119.95 90.6513 119.917 90.9384 119.852C91.1776 119.786 91.4647 119.885 91.5604 120.049C91.6083 120.049 91.6083 120.082 91.6083 120.147ZM88.7852 108.199C88.7852 108.232 88.7852 108.232 88.7852 108.199C88.7852 108.396 88.546 108.528 88.2589 108.528C87.9718 108.528 87.6847 108.495 87.3976 108.495C87.1105 108.495 86.9191 108.364 86.9191 108.167C86.9191 107.97 87.1105 107.838 87.3976 107.838C87.7325 107.838 88.0196 107.838 88.3546 107.871C88.5938 107.904 88.7852 108.035 88.7852 108.199ZM87.8761 120.541C87.8761 120.738 87.6847 120.869 87.3976 120.869C87.0627 120.869 86.7277 120.869 86.4406 120.836C86.2014 120.836 85.9622 120.672 86.01 120.475C86.01 120.278 86.2492 120.147 86.5363 120.18C86.8234 120.18 87.1584 120.213 87.4455 120.213C87.6847 120.213 87.8761 120.377 87.8761 120.541ZM85.0052 108.429C85.0052 108.561 84.8616 108.725 84.6224 108.757C84.3353 108.823 84.0482 108.856 83.7611 108.922C83.5219 108.987 83.2348 108.889 83.1391 108.725C83.0434 108.561 83.1869 108.364 83.4262 108.298C83.7133 108.232 84.0482 108.167 84.3832 108.101C84.6224 108.068 84.9095 108.167 84.9573 108.331C85.0052 108.364 85.0052 108.396 85.0052 108.429ZM84.1439 120.147C84.1439 120.18 84.1439 120.213 84.0961 120.246C84.0004 120.41 83.7611 120.508 83.474 120.443C83.1869 120.377 82.852 120.278 82.5649 120.213C82.3257 120.147 82.23 119.95 82.3257 119.786C82.4214 119.622 82.7085 119.556 82.9477 119.622C83.2348 119.72 83.5219 119.786 83.809 119.852C84.0482 119.885 84.1439 120.016 84.1439 120.147ZM81.5601 109.48C81.5601 109.578 81.4644 109.677 81.3687 109.742C81.1295 109.873 80.8902 109.972 80.651 110.103C80.4596 110.235 80.1246 110.202 79.9811 110.07C79.7897 109.939 79.8376 109.709 80.029 109.611C80.2682 109.48 80.5553 109.315 80.8424 109.217C81.0816 109.119 81.3687 109.151 81.5123 109.315C81.5601 109.348 81.5601 109.414 81.5601 109.48ZM80.8424 118.9C80.8424 118.966 80.7945 119.031 80.7467 119.097C80.6031 119.228 80.2682 119.261 80.0768 119.13C79.8376 118.998 79.5505 118.834 79.3591 118.67C79.1677 118.539 79.1677 118.342 79.3591 118.211C79.5505 118.079 79.8376 118.079 80.029 118.211C80.2203 118.342 80.4596 118.506 80.6988 118.637C80.7945 118.703 80.8424 118.801 80.8424 118.9ZM78.9284 111.318C78.9284 111.383 78.8806 111.449 78.8327 111.482C78.6892 111.646 78.4978 111.843 78.4021 112.007C78.3064 112.171 77.9715 112.237 77.7801 112.138C77.5408 112.073 77.4451 111.876 77.5887 111.712C77.7322 111.515 77.9236 111.318 78.0672 111.121C78.2107 110.957 78.4978 110.924 78.737 111.022C78.8327 111.088 78.9284 111.219 78.9284 111.318ZM78.45 116.898C78.45 117.029 78.3543 117.127 78.2107 117.193C77.9715 117.292 77.6844 117.226 77.5887 117.062C77.4451 116.865 77.3016 116.635 77.2059 116.438C77.1102 116.274 77.2537 116.077 77.493 116.011C77.7322 115.946 78.0193 116.044 78.115 116.208C78.2107 116.405 78.3543 116.602 78.4978 116.766C78.45 116.799 78.45 116.832 78.45 116.898ZM77.6365 113.747L77.6365 113.779C77.5887 113.976 77.5887 114.173 77.5887 114.37C77.5887 114.567 77.3973 114.699 77.1102 114.699C76.8231 114.699 76.6317 114.567 76.6317 114.37C76.6317 114.141 76.6317 113.911 76.6796 113.714C76.7274 113.55 76.9667 113.418 77.2059 113.418C77.4451 113.418 77.6365 113.583 77.6365 113.747Z" fill="#FFBFCD"/>
<path d="M87.8761 122.412L87.8761 124.381C88.211 124.381 88.4981 124.349 88.8331 124.349L88.8331 122.379C88.4981 122.379 88.211 122.412 87.8761 122.412Z" fill="#F48BA2"/>
<path d="M85.4836 122.346L85.4836 124.316C85.8186 124.349 86.1057 124.349 86.4406 124.381L86.4406 122.412C86.1057 122.379 85.8186 122.379 85.4836 122.346Z" fill="#F48BA2"/>
<path d="M90.2686 122.248L90.2686 124.217C90.6035 124.184 90.8906 124.119 91.2255 124.053L91.2255 122.084C90.8906 122.149 90.6035 122.182 90.2686 122.248Z" fill="#F48BA2"/>
<path d="M92.6609 121.788L92.6609 123.758C92.9958 123.659 93.2829 123.594 93.6179 123.495L93.6179 121.526C93.2829 121.591 92.9958 121.69 92.6609 121.788Z" fill="#F48BA2"/>
<path d="M83.0913 121.985L83.0913 123.955C83.4262 124.02 83.7133 124.086 84.0483 124.119L84.0483 122.149C83.7133 122.117 83.4262 122.051 83.0913 121.985Z" fill="#F48BA2"/>
<path d="M80.6989 121.329L80.6989 123.298C81.0338 123.397 81.3209 123.495 81.6558 123.594L81.6558 121.624C81.3209 121.559 81.0338 121.46 80.6989 121.329Z" fill="#F48BA2"/>
<path d="M77.8279 120.016L77.8279 121.985C78.115 122.182 78.4499 122.346 78.7848 122.51L78.7848 120.541C78.4499 120.377 78.115 120.18 77.8279 120.016Z" fill="#F48BA2"/>
<path d="M75.4355 117.981L75.4355 119.95C75.7226 120.279 76.0576 120.607 76.3925 120.902L76.3925 118.933C76.0576 118.637 75.7226 118.342 75.4355 117.981Z" fill="#F48BA2"/>
<path d="M95.5319 120.771L95.5319 122.74C95.8668 122.576 96.2017 122.412 96.4888 122.248L96.4888 120.278C96.2017 120.443 95.8668 120.607 95.5319 120.771Z" fill="#F48BA2"/>
<path d="M97.9243 121.329C98.2593 121.066 98.5942 120.804 98.8813 120.508L98.8813 118.539C98.5942 118.834 98.2593 119.097 97.9243 119.359L97.9243 121.329Z" fill="#F48BA2"/>
<path d="M89.8763 113.879L89.8763 115.169L91.2255 115.169L91.2255 116.179L89.8763 116.179L89.8763 117L88.6906 117L88.6906 116.179L88.0656 116.179L88.0656 117L86.8799 117L86.8799 116.179L82.7212 116.179L82.7212 113.947C82.7212 113.303 82.9665 112.789 83.4571 112.404C83.9439 112.02 84.5922 111.827 85.4022 111.827C86.2277 111.827 86.876 112.01 87.3472 112.376C87.8144 112.742 88.0539 113.251 88.0656 113.903L88.0656 115.169L88.6906 115.169L88.6906 113.879L89.8763 113.879ZM86.8799 115.169L86.8799 113.963C86.8799 113.6 86.7572 113.322 86.5119 113.13C86.2666 112.937 85.9006 112.841 85.4138 112.841C84.9777 112.841 84.6214 112.936 84.345 113.126C84.0685 113.312 83.9244 113.572 83.9127 113.903L83.9127 115.169L86.8799 115.169Z" fill="#F48BA2"/>
<path d="M100.795 112.163C100.795 116.594 94.8141 120.205 87.3976 120.205C79.9811 120.205 74 116.594 74 112.163C74 107.732 79.9811 104.121 87.3976 104.121C94.8141 104.121 100.795 107.732 100.795 112.163Z" fill="white"/>
<path d="M87.3976 120.205C80.5552 120.205 74.9091 117.12 74.0957 113.148C74.0478 113.476 74 113.804 74 114.133C74 118.564 79.9811 122.174 87.3976 122.174C94.8141 122.174 100.795 118.564 100.795 114.133C100.795 113.804 100.747 113.476 100.699 113.148C99.886 117.12 94.2399 120.205 87.3976 120.205Z" fill="#FFBFCD"/>
<path d="M98.1635 112.13C98.1635 112.393 98.1635 112.623 98.1157 112.853C98.0678 113.017 97.8286 113.148 97.5893 113.148C97.3501 113.115 97.1587 112.951 97.1587 112.787C97.2065 112.59 97.2065 112.393 97.2065 112.163C97.2065 111.966 97.3979 111.835 97.685 111.835C97.9721 111.835 98.1635 111.966 98.1635 112.13ZM97.6372 110.227C97.6372 110.358 97.5415 110.489 97.3501 110.522C97.1108 110.588 96.8237 110.489 96.728 110.325C96.6324 110.128 96.4888 109.931 96.3453 109.767C96.2017 109.603 96.2974 109.406 96.5367 109.34C96.7759 109.242 97.063 109.308 97.1587 109.472C97.3022 109.669 97.4458 109.898 97.5415 110.095C97.6372 110.161 97.6372 110.194 97.6372 110.227ZM97.3022 114.658C97.3022 114.723 97.3022 114.756 97.2544 114.822C97.1108 115.019 96.9194 115.216 96.7759 115.413C96.6324 115.577 96.3453 115.61 96.106 115.511C95.8668 115.413 95.8189 115.216 95.9625 115.052C96.106 114.888 96.2974 114.691 96.3931 114.527C96.5367 114.362 96.8237 114.297 97.0151 114.395C97.2065 114.428 97.3022 114.559 97.3022 114.658ZM95.5797 108.06C95.5797 108.159 95.5318 108.224 95.4361 108.29C95.2447 108.421 94.9577 108.421 94.7663 108.29C94.5749 108.159 94.3356 107.995 94.0964 107.863C93.905 107.765 93.8571 107.535 94.0485 107.404C94.2399 107.273 94.527 107.24 94.7184 107.371C94.9577 107.502 95.2447 107.666 95.4361 107.831C95.5318 107.896 95.5797 107.995 95.5797 108.06ZM94.9098 116.66C94.9098 116.759 94.862 116.857 94.7184 116.923C94.4792 117.054 94.1921 117.218 93.905 117.317C93.6658 117.415 93.3787 117.382 93.2351 117.218C93.0916 117.054 93.1394 116.857 93.3787 116.759C93.6179 116.627 93.8571 116.529 94.0964 116.397C94.2878 116.266 94.6227 116.299 94.7663 116.43C94.862 116.529 94.9098 116.594 94.9098 116.66ZM92.4695 106.616C92.4695 106.649 92.4695 106.715 92.4217 106.747C92.326 106.912 92.0389 106.977 91.7997 106.912C91.5126 106.813 91.2255 106.747 90.9384 106.682C90.6991 106.616 90.5556 106.452 90.6513 106.255C90.747 106.091 90.9862 105.992 91.2733 106.058C91.6083 106.124 91.8954 106.222 92.1824 106.288C92.3738 106.386 92.4695 106.485 92.4695 106.616ZM91.6083 117.94C91.6083 118.071 91.4647 118.203 91.2733 118.236C90.9862 118.301 90.6513 118.367 90.3164 118.433C90.0771 118.465 89.79 118.367 89.7422 118.203C89.6943 118.039 89.8379 117.842 90.0771 117.809C90.3642 117.743 90.6513 117.71 90.9384 117.645C91.1776 117.579 91.4647 117.678 91.5604 117.842C91.6083 117.842 91.6083 117.875 91.6083 117.94ZM88.7852 105.992C88.7852 106.025 88.7852 106.025 88.7852 105.992C88.7852 106.189 88.546 106.321 88.2589 106.321C87.9718 106.321 87.6847 106.288 87.3976 106.288C87.1105 106.288 86.9191 106.157 86.9191 105.96C86.9191 105.763 87.1105 105.631 87.3976 105.631C87.7325 105.631 88.0196 105.631 88.3546 105.664C88.5938 105.697 88.7852 105.828 88.7852 105.992ZM87.8761 118.334C87.8761 118.531 87.6847 118.662 87.3976 118.662C87.0627 118.662 86.7277 118.662 86.4406 118.629C86.2014 118.629 85.9622 118.465 86.01 118.268C86.01 118.071 86.2492 117.94 86.5363 117.973C86.8234 117.973 87.1584 118.006 87.4455 118.006C87.6847 118.006 87.8761 118.17 87.8761 118.334ZM85.0052 106.222C85.0052 106.354 84.8616 106.518 84.6224 106.55C84.3353 106.616 84.0482 106.649 83.7611 106.715C83.5219 106.78 83.2348 106.682 83.1391 106.518C83.0434 106.354 83.1869 106.157 83.4262 106.091C83.7133 106.025 84.0482 105.96 84.3832 105.894C84.6224 105.861 84.9095 105.96 84.9573 106.124C85.0052 106.157 85.0052 106.189 85.0052 106.222ZM84.1439 117.94C84.1439 117.973 84.1439 118.006 84.0961 118.039C84.0004 118.203 83.7611 118.301 83.474 118.236C83.1869 118.17 82.852 118.071 82.5649 118.006C82.3257 117.94 82.23 117.743 82.3257 117.579C82.4214 117.415 82.7085 117.349 82.9477 117.415C83.2348 117.513 83.5219 117.579 83.809 117.645C84.0482 117.678 84.1439 117.809 84.1439 117.94ZM81.5601 107.273C81.5601 107.371 81.4644 107.47 81.3687 107.535C81.1295 107.666 80.8902 107.765 80.651 107.896C80.4596 108.028 80.1246 107.995 79.9811 107.863C79.7897 107.732 79.8376 107.502 80.029 107.404C80.2682 107.273 80.5553 107.108 80.8424 107.01C81.0816 106.912 81.3687 106.944 81.5123 107.108C81.5601 107.141 81.5601 107.207 81.5601 107.273ZM80.8424 116.693C80.8424 116.759 80.7945 116.824 80.7467 116.89C80.6031 117.021 80.2682 117.054 80.0768 116.923C79.8376 116.791 79.5505 116.627 79.3591 116.463C79.1677 116.332 79.1677 116.135 79.3591 116.004C79.5505 115.872 79.8376 115.872 80.029 116.004C80.2203 116.135 80.4596 116.299 80.6988 116.43C80.7945 116.496 80.8424 116.594 80.8424 116.693ZM78.9284 109.111C78.9284 109.176 78.8806 109.242 78.8327 109.275C78.6892 109.439 78.4978 109.636 78.4021 109.8C78.3064 109.964 77.9715 110.03 77.7801 109.931C77.5408 109.866 77.4451 109.669 77.5887 109.505C77.7322 109.308 77.9236 109.111 78.0672 108.914C78.2107 108.75 78.4978 108.717 78.737 108.815C78.8327 108.881 78.9284 109.012 78.9284 109.111ZM78.45 114.691C78.45 114.822 78.3543 114.92 78.2107 114.986C77.9715 115.085 77.6844 115.019 77.5887 114.855C77.4451 114.658 77.3016 114.428 77.2059 114.231C77.1102 114.067 77.2537 113.87 77.493 113.804C77.7322 113.739 78.0193 113.837 78.115 114.001C78.2107 114.198 78.3543 114.395 78.4978 114.559C78.45 114.592 78.45 114.625 78.45 114.691ZM77.6365 111.54L77.6365 111.572C77.5887 111.769 77.5887 111.966 77.5887 112.163C77.5887 112.36 77.3973 112.491 77.1102 112.491C76.8231 112.491 76.6317 112.36 76.6317 112.163C76.6317 111.933 76.6317 111.704 76.6796 111.507C76.7274 111.343 76.9667 111.211 77.2059 111.211C77.4451 111.211 77.6365 111.375 77.6365 111.54Z" fill="#FFBFCD"/>
<path d="M87.8761 120.205L87.8761 122.174C88.211 122.174 88.4981 122.142 88.8331 122.142L88.8331 120.172C88.4981 120.172 88.211 120.205 87.8761 120.205Z" fill="#F48BA2"/>
<path d="M85.4836 120.139L85.4836 122.109C85.8186 122.142 86.1057 122.142 86.4406 122.174L86.4406 120.205C86.1057 120.172 85.8186 120.172 85.4836 120.139Z" fill="#F48BA2"/>
<path d="M90.2686 120.041L90.2686 122.01C90.6035 121.977 90.8906 121.912 91.2255 121.846L91.2255 119.877C90.8906 119.942 90.6035 119.975 90.2686 120.041Z" fill="#F48BA2"/>
<path d="M92.6609 119.581L92.6609 121.551C92.9958 121.452 93.2829 121.387 93.6179 121.288L93.6179 119.319C93.2829 119.384 92.9958 119.483 92.6609 119.581Z" fill="#F48BA2"/>
<path d="M83.0913 119.778L83.0913 121.748C83.4262 121.813 83.7133 121.879 84.0483 121.912L84.0483 119.942C83.7133 119.91 83.4262 119.844 83.0913 119.778Z" fill="#F48BA2"/>
<path d="M80.6989 119.122L80.6989 121.091C81.0338 121.19 81.3209 121.288 81.6558 121.387L81.6558 119.417C81.3209 119.352 81.0338 119.253 80.6989 119.122Z" fill="#F48BA2"/>
<path d="M77.8279 117.809L77.8279 119.778C78.115 119.975 78.4499 120.139 78.7848 120.303L78.7848 118.334C78.4499 118.17 78.115 117.973 77.8279 117.809Z" fill="#F48BA2"/>
<path d="M75.4355 115.774L75.4355 117.743C75.7226 118.071 76.0576 118.4 76.3925 118.695L76.3925 116.726C76.0576 116.43 75.7226 116.135 75.4355 115.774Z" fill="#F48BA2"/>
<path d="M95.5319 118.564L95.5319 120.533C95.8668 120.369 96.2017 120.205 96.4888 120.041L96.4888 118.071C96.2017 118.236 95.8668 118.4 95.5319 118.564Z" fill="#F48BA2"/>
<path d="M97.9243 119.122C98.2593 118.859 98.5942 118.597 98.8813 118.301L98.8813 116.332C98.5942 116.627 98.2593 116.89 97.9243 117.152L97.9243 119.122Z" fill="#F48BA2"/>
<path d="M89.8763 111.672L89.8763 112.962L91.2255 112.962L91.2255 113.972L89.8763 113.972L89.8763 114.793L88.6906 114.793L88.6906 113.972L88.0656 113.972L88.0656 114.793L86.8799 114.793L86.8799 113.972L82.7212 113.972L82.7212 111.74C82.7212 111.096 82.9665 110.582 83.4571 110.197C83.9439 109.812 84.5922 109.62 85.4022 109.62C86.2277 109.62 86.876 109.803 87.3472 110.169C87.8144 110.535 88.0539 111.044 88.0656 111.696L88.0656 112.962L88.6906 112.962L88.6906 111.672L89.8763 111.672ZM86.8799 112.962L86.8799 111.756C86.8799 111.392 86.7572 111.115 86.5119 110.922C86.2666 110.73 85.9006 110.634 85.4138 110.634C84.9777 110.634 84.6214 110.729 84.345 110.918C84.0685 111.105 83.9244 111.364 83.9127 111.696L83.9127 112.962L86.8799 112.962Z" fill="#F48BA2"/>
<path d="M100.795 110.042C100.795 114.473 94.8141 118.083 87.3976 118.083C79.9811 118.083 74 114.473 74 110.042C74 105.611 79.9811 102 87.3976 102C94.8141 102 100.795 105.611 100.795 110.042Z" fill="#FFDCE4"/>
<path d="M87.3976 118.083C80.5552 118.083 74.9091 114.998 74.0957 111.026C74.0478 111.355 74 111.683 74 112.011C74 116.442 79.9811 120.053 87.3976 120.053C94.8141 120.053 100.795 116.442 100.795 112.011C100.795 111.683 100.747 111.355 100.699 111.026C99.886 114.998 94.2399 118.083 87.3976 118.083Z" fill="#FFBFCD"/>
<path d="M98.1635 110.009C98.1635 110.271 98.1635 110.501 98.1157 110.731C98.0678 110.895 97.8286 111.026 97.5893 111.026C97.3501 110.994 97.1587 110.829 97.1587 110.665C97.2065 110.468 97.2065 110.271 97.2065 110.042C97.2065 109.845 97.3979 109.713 97.685 109.713C97.9721 109.713 98.1635 109.845 98.1635 110.009ZM97.6372 108.105C97.6372 108.236 97.5415 108.368 97.3501 108.401C97.1108 108.466 96.8237 108.368 96.728 108.204C96.6324 108.007 96.4888 107.81 96.3453 107.646C96.2017 107.481 96.2974 107.285 96.5367 107.219C96.7759 107.12 97.063 107.186 97.1587 107.35C97.3022 107.547 97.4458 107.777 97.5415 107.974C97.6372 108.039 97.6372 108.072 97.6372 108.105ZM97.3022 112.536C97.3022 112.602 97.3022 112.635 97.2544 112.7C97.1108 112.897 96.9194 113.094 96.7759 113.291C96.6324 113.455 96.3453 113.488 96.106 113.39C95.8668 113.291 95.8189 113.094 95.9625 112.93C96.106 112.766 96.2974 112.569 96.3931 112.405C96.5367 112.241 96.8237 112.175 97.0151 112.274C97.2065 112.307 97.3022 112.438 97.3022 112.536ZM95.5797 105.939C95.5797 106.037 95.5318 106.103 95.4361 106.169C95.2447 106.3 94.9577 106.3 94.7663 106.169C94.5749 106.037 94.3356 105.873 94.0964 105.742C93.905 105.643 93.8571 105.414 94.0485 105.282C94.2399 105.151 94.527 105.118 94.7184 105.25C94.9577 105.381 95.2447 105.545 95.4361 105.709C95.5318 105.775 95.5797 105.873 95.5797 105.939ZM94.9098 114.539C94.9098 114.637 94.862 114.735 94.7184 114.801C94.4792 114.932 94.1921 115.097 93.905 115.195C93.6658 115.293 93.3787 115.261 93.2351 115.097C93.0916 114.932 93.1394 114.735 93.3787 114.637C93.6179 114.506 93.8571 114.407 94.0964 114.276C94.2878 114.145 94.6227 114.177 94.7663 114.309C94.862 114.407 94.9098 114.473 94.9098 114.539ZM92.4695 104.495C92.4695 104.527 92.4695 104.593 92.4217 104.626C92.326 104.79 92.0389 104.856 91.7997 104.79C91.5126 104.692 91.2255 104.626 90.9384 104.56C90.6991 104.495 90.5556 104.33 90.6513 104.134C90.747 103.969 90.9862 103.871 91.2733 103.937C91.6083 104.002 91.8954 104.101 92.1824 104.166C92.3738 104.265 92.4695 104.363 92.4695 104.495ZM91.6083 115.819C91.6083 115.95 91.4647 116.081 91.2733 116.114C90.9862 116.18 90.6513 116.245 90.3164 116.311C90.0771 116.344 89.79 116.245 89.7422 116.081C89.6943 115.917 89.8379 115.72 90.0771 115.687C90.3642 115.622 90.6513 115.589 90.9384 115.523C91.1776 115.458 91.4647 115.556 91.5604 115.72C91.6083 115.72 91.6083 115.753 91.6083 115.819ZM88.7852 103.871C88.7852 103.904 88.7852 103.904 88.7852 103.871C88.7852 104.068 88.546 104.199 88.2589 104.199C87.9718 104.199 87.6847 104.166 87.3976 104.166C87.1105 104.166 86.9191 104.035 86.9191 103.838C86.9191 103.641 87.1105 103.51 87.3976 103.51C87.7325 103.51 88.0196 103.51 88.3546 103.543C88.5938 103.576 88.7852 103.707 88.7852 103.871ZM87.8761 116.213C87.8761 116.409 87.6847 116.541 87.3976 116.541C87.0627 116.541 86.7277 116.541 86.4406 116.508C86.2014 116.508 85.9622 116.344 86.01 116.147C86.01 115.95 86.2492 115.819 86.5363 115.851C86.8234 115.851 87.1584 115.884 87.4455 115.884C87.6847 115.884 87.8761 116.048 87.8761 116.213ZM85.0052 104.101C85.0052 104.232 84.8616 104.396 84.6224 104.429C84.3353 104.495 84.0482 104.527 83.7611 104.593C83.5219 104.659 83.2348 104.56 83.1391 104.396C83.0434 104.232 83.1869 104.035 83.4262 103.969C83.7133 103.904 84.0482 103.838 84.3832 103.772C84.6224 103.74 84.9095 103.838 84.9573 104.002C85.0052 104.035 85.0052 104.068 85.0052 104.101ZM84.1439 115.819C84.1439 115.851 84.1439 115.884 84.0961 115.917C84.0004 116.081 83.7611 116.18 83.474 116.114C83.1869 116.048 82.852 115.95 82.5649 115.884C82.3257 115.819 82.23 115.622 82.3257 115.458C82.4214 115.293 82.7085 115.228 82.9477 115.293C83.2348 115.392 83.5219 115.458 83.809 115.523C84.0482 115.556 84.1439 115.687 84.1439 115.819ZM81.5601 105.151C81.5601 105.25 81.4644 105.348 81.3687 105.414C81.1295 105.545 80.8902 105.643 80.651 105.775C80.4596 105.906 80.1246 105.873 79.9811 105.742C79.7897 105.611 79.8376 105.381 80.029 105.282C80.2682 105.151 80.5553 104.987 80.8424 104.888C81.0816 104.79 81.3687 104.823 81.5123 104.987C81.5601 105.02 81.5601 105.085 81.5601 105.151ZM80.8424 114.571C80.8424 114.637 80.7945 114.703 80.7467 114.768C80.6031 114.9 80.2682 114.932 80.0768 114.801C79.8376 114.67 79.5505 114.506 79.3591 114.342C79.1677 114.21 79.1677 114.013 79.3591 113.882C79.5505 113.751 79.8376 113.751 80.029 113.882C80.2203 114.013 80.4596 114.177 80.6988 114.309C80.7945 114.374 80.8424 114.473 80.8424 114.571ZM78.9284 106.989C78.9284 107.055 78.8806 107.12 78.8327 107.153C78.6892 107.317 78.4978 107.514 78.4021 107.678C78.3064 107.843 77.9715 107.908 77.7801 107.81C77.5408 107.744 77.4451 107.547 77.5887 107.383C77.7322 107.186 77.9236 106.989 78.0672 106.792C78.2107 106.628 78.4978 106.595 78.737 106.694C78.8327 106.759 78.9284 106.891 78.9284 106.989ZM78.45 112.569C78.45 112.7 78.3543 112.799 78.2107 112.865C77.9715 112.963 77.6844 112.897 77.5887 112.733C77.4451 112.536 77.3016 112.307 77.2059 112.11C77.1102 111.945 77.2537 111.749 77.493 111.683C77.7322 111.617 78.0193 111.716 78.115 111.88C78.2107 112.077 78.3543 112.274 78.4978 112.438C78.45 112.471 78.45 112.503 78.45 112.569ZM77.6365 109.418L77.6365 109.451C77.5887 109.648 77.5887 109.845 77.5887 110.042C77.5887 110.239 77.3973 110.37 77.1102 110.37C76.8231 110.37 76.6317 110.239 76.6317 110.042C76.6317 109.812 76.6317 109.582 76.6796 109.385C76.7274 109.221 76.9667 109.09 77.2059 109.09C77.4451 109.09 77.6365 109.254 77.6365 109.418Z" fill="#FFBFCD"/>
<path d="M87.8761 118.083L87.8761 120.053C88.211 120.053 88.4981 120.02 88.8331 120.02L88.8331 118.051C88.4981 118.051 88.211 118.083 87.8761 118.083Z" fill="#F48BA2"/>
<path d="M85.4836 118.018L85.4836 119.987C85.8186 120.02 86.1057 120.02 86.4406 120.053L86.4406 118.083C86.1057 118.051 85.8186 118.051 85.4836 118.018Z" fill="#F48BA2"/>
<path d="M90.2686 117.919L90.2686 119.889C90.6035 119.856 90.8906 119.79 91.2255 119.725L91.2255 117.755C90.8906 117.821 90.6035 117.854 90.2686 117.919Z" fill="#F48BA2"/>
<path d="M92.6609 117.46L92.6609 119.429C92.9958 119.331 93.2829 119.265 93.6179 119.167L93.6179 117.197C93.2829 117.263 92.9958 117.361 92.6609 117.46Z" fill="#F48BA2"/>
<path d="M83.0913 117.657L83.0913 119.626C83.4262 119.692 83.7133 119.757 84.0483 119.79L84.0483 117.821C83.7133 117.788 83.4262 117.722 83.0913 117.657Z" fill="#F48BA2"/>
<path d="M80.6989 117L80.6989 118.97C81.0338 119.068 81.3209 119.167 81.6558 119.265L81.6558 117.296C81.3209 117.23 81.0338 117.132 80.6989 117Z" fill="#F48BA2"/>
<path d="M77.8279 115.687L77.8279 117.657C78.115 117.854 78.4499 118.018 78.7848 118.182L78.7848 116.212C78.4499 116.048 78.115 115.851 77.8279 115.687Z" fill="#F48BA2"/>
<path d="M75.4355 113.652L75.4355 115.622C75.7226 115.95 76.0576 116.278 76.3925 116.574L76.3925 114.604C76.0576 114.309 75.7226 114.013 75.4355 113.652Z" fill="#F48BA2"/>
<path d="M95.5319 116.442L95.5319 118.412C95.8668 118.248 96.2017 118.084 96.4888 117.919L96.4888 115.95C96.2017 116.114 95.8668 116.278 95.5319 116.442Z" fill="#F48BA2"/>
<path d="M97.9243 117C98.2593 116.738 98.5942 116.475 98.8813 116.18L98.8813 114.21C98.5942 114.506 98.2593 114.768 97.9243 115.031L97.9243 117Z" fill="#F48BA2"/>
<path d="M89.8763 109.55L89.8763 110.84L91.2255 110.84L91.2255 111.85L89.8763 111.85L89.8763 112.671L88.6906 112.671L88.6906 111.85L88.0656 111.85L88.0656 112.671L86.8799 112.671L86.8799 111.85L82.7212 111.85L82.7212 109.618C82.7212 108.974 82.9665 108.46 83.4571 108.076C83.9439 107.691 84.5922 107.499 85.4022 107.499C86.2277 107.499 86.876 107.682 87.3472 108.048C87.8144 108.414 88.0539 108.922 88.0656 109.574L88.0656 110.84L88.6906 110.84L88.6906 109.55L89.8763 109.55ZM86.8799 110.84L86.8799 109.634C86.8799 109.271 86.7572 108.993 86.5119 108.801C86.2666 108.609 85.9006 108.512 85.4138 108.512C84.9777 108.512 84.6214 108.607 84.345 108.797C84.0685 108.984 83.9244 109.243 83.9127 109.574L83.9127 110.84L86.8799 110.84Z" fill="#F48BA2"/>
<path d="M129.02 114.23C129.02 118.661 123.039 122.271 115.622 122.271C108.206 122.271 102.225 118.661 102.225 114.23C102.225 109.798 108.206 106.188 115.622 106.188C123.039 106.188 129.02 109.798 129.02 114.23Z" fill="white"/>
<path d="M115.622 122.271C108.78 122.271 103.134 119.186 102.321 115.214C102.273 115.543 102.225 115.871 102.225 116.199C102.225 120.63 108.206 124.241 115.622 124.241C123.039 124.241 129.02 120.63 129.02 116.199C129.02 115.871 128.972 115.543 128.924 115.214C128.111 119.186 122.465 122.271 115.622 122.271Z" fill="#FFBFCD"/>
<path d="M126.388 114.197C126.388 114.459 126.388 114.689 126.341 114.919C126.293 115.083 126.053 115.214 125.814 115.214C125.575 115.181 125.384 115.017 125.384 114.853C125.431 114.656 125.431 114.459 125.431 114.23C125.431 114.033 125.623 113.901 125.91 113.901C126.197 113.901 126.388 114.033 126.388 114.197ZM125.862 112.293C125.862 112.424 125.766 112.556 125.575 112.588C125.336 112.654 125.049 112.556 124.953 112.392C124.857 112.195 124.714 111.998 124.57 111.834C124.427 111.669 124.522 111.472 124.762 111.407C125.001 111.308 125.288 111.374 125.384 111.538C125.527 111.735 125.671 111.965 125.766 112.162C125.862 112.227 125.862 112.26 125.862 112.293ZM125.527 116.724C125.527 116.79 125.527 116.823 125.479 116.888C125.336 117.085 125.144 117.282 125.001 117.479C124.857 117.643 124.57 117.676 124.331 117.578C124.092 117.479 124.044 117.282 124.187 117.118C124.331 116.954 124.522 116.757 124.618 116.593C124.762 116.429 125.049 116.363 125.24 116.462C125.431 116.494 125.527 116.626 125.527 116.724ZM123.805 110.127C123.805 110.225 123.757 110.291 123.661 110.356C123.47 110.488 123.183 110.488 122.991 110.356C122.8 110.225 122.56 110.061 122.321 109.93C122.13 109.831 122.082 109.602 122.273 109.47C122.465 109.339 122.752 109.306 122.943 109.437C123.183 109.569 123.47 109.733 123.661 109.897C123.757 109.963 123.805 110.061 123.805 110.127ZM123.135 118.726C123.135 118.825 123.087 118.923 122.943 118.989C122.704 119.12 122.417 119.284 122.13 119.383C121.891 119.481 121.604 119.449 121.46 119.284C121.316 119.12 121.364 118.923 121.604 118.825C121.843 118.694 122.082 118.595 122.321 118.464C122.513 118.333 122.848 118.365 122.991 118.497C123.087 118.595 123.135 118.661 123.135 118.726ZM120.694 108.682C120.694 108.715 120.694 108.781 120.647 108.814C120.551 108.978 120.264 109.044 120.025 108.978C119.737 108.879 119.45 108.814 119.163 108.748C118.924 108.682 118.78 108.518 118.876 108.321C118.972 108.157 119.211 108.059 119.498 108.124C119.833 108.19 120.12 108.289 120.407 108.354C120.599 108.453 120.694 108.551 120.694 108.682ZM119.833 120.007C119.833 120.138 119.69 120.269 119.498 120.302C119.211 120.368 118.876 120.433 118.541 120.499C118.302 120.532 118.015 120.433 117.967 120.269C117.919 120.105 118.063 119.908 118.302 119.875C118.589 119.81 118.876 119.777 119.163 119.711C119.402 119.645 119.69 119.744 119.785 119.908C119.833 119.908 119.833 119.941 119.833 120.007ZM117.01 108.059C117.01 108.092 117.01 108.092 117.01 108.059C117.01 108.256 116.771 108.387 116.484 108.387C116.197 108.387 115.91 108.354 115.622 108.354C115.335 108.354 115.144 108.223 115.144 108.026C115.144 107.829 115.335 107.698 115.622 107.698C115.957 107.698 116.244 107.698 116.579 107.731C116.819 107.763 117.01 107.895 117.01 108.059ZM116.101 120.4C116.101 120.597 115.91 120.729 115.622 120.729C115.288 120.729 114.953 120.729 114.665 120.696C114.426 120.696 114.187 120.532 114.235 120.335C114.235 120.138 114.474 120.007 114.761 120.039C115.048 120.039 115.383 120.072 115.67 120.072C115.91 120.072 116.101 120.236 116.101 120.4ZM113.23 108.289C113.23 108.42 113.086 108.584 112.847 108.617C112.56 108.682 112.273 108.715 111.986 108.781C111.747 108.847 111.46 108.748 111.364 108.584C111.268 108.42 111.412 108.223 111.651 108.157C111.938 108.092 112.273 108.026 112.608 107.96C112.847 107.928 113.134 108.026 113.182 108.19C113.23 108.223 113.23 108.256 113.23 108.289ZM112.369 120.007C112.369 120.039 112.369 120.072 112.321 120.105C112.225 120.269 111.986 120.368 111.699 120.302C111.412 120.236 111.077 120.138 110.79 120.072C110.551 120.007 110.455 119.81 110.551 119.645C110.646 119.481 110.933 119.416 111.173 119.481C111.46 119.58 111.747 119.645 112.034 119.711C112.273 119.744 112.369 119.875 112.369 120.007ZM109.785 109.339C109.785 109.437 109.689 109.536 109.594 109.602C109.354 109.733 109.115 109.831 108.876 109.963C108.684 110.094 108.35 110.061 108.206 109.93C108.015 109.798 108.062 109.569 108.254 109.47C108.493 109.339 108.78 109.175 109.067 109.076C109.306 108.978 109.594 109.011 109.737 109.175C109.785 109.208 109.785 109.273 109.785 109.339ZM109.067 118.759C109.067 118.825 109.019 118.891 108.972 118.956C108.828 119.087 108.493 119.12 108.302 118.989C108.062 118.858 107.775 118.694 107.584 118.529C107.393 118.398 107.393 118.201 107.584 118.07C107.775 117.939 108.062 117.939 108.254 118.07C108.445 118.201 108.684 118.365 108.924 118.497C109.019 118.562 109.067 118.661 109.067 118.759ZM107.153 111.177C107.153 111.243 107.105 111.308 107.058 111.341C106.914 111.505 106.723 111.702 106.627 111.866C106.531 112.03 106.196 112.096 106.005 111.998C105.766 111.932 105.67 111.735 105.814 111.571C105.957 111.374 106.148 111.177 106.292 110.98C106.436 110.816 106.723 110.783 106.962 110.882C107.058 110.947 107.153 111.079 107.153 111.177ZM106.675 116.757C106.675 116.888 106.579 116.987 106.436 117.052C106.196 117.151 105.909 117.085 105.814 116.921C105.67 116.724 105.526 116.494 105.431 116.297C105.335 116.133 105.479 115.936 105.718 115.871C105.957 115.805 106.244 115.904 106.34 116.068C106.436 116.265 106.579 116.462 106.723 116.626C106.675 116.659 106.675 116.691 106.675 116.757ZM105.861 113.606L105.861 113.639C105.814 113.836 105.814 114.033 105.814 114.23C105.814 114.427 105.622 114.558 105.335 114.558C105.048 114.558 104.857 114.427 104.857 114.23C104.857 114 104.857 113.77 104.904 113.573C104.952 113.409 105.192 113.278 105.431 113.278C105.67 113.278 105.861 113.442 105.861 113.606Z" fill="#FFBFCD"/>
<path d="M116.101 122.271L116.101 124.241C116.436 124.241 116.723 124.208 117.058 124.208L117.058 122.238C116.723 122.238 116.436 122.271 116.101 122.271Z" fill="#F48BA2"/>
<path d="M113.708 122.206L113.708 124.175C114.043 124.208 114.331 124.208 114.665 124.241L114.665 122.271C114.331 122.238 114.043 122.238 113.708 122.206Z" fill="#F48BA2"/>
<path d="M118.493 122.107L118.493 124.077C118.828 124.044 119.115 123.978 119.45 123.913L119.45 121.943C119.115 122.009 118.828 122.042 118.493 122.107Z" fill="#F48BA2"/>
<path d="M120.886 121.648L120.886 123.617C121.221 123.519 121.508 123.453 121.843 123.354L121.843 121.385C121.508 121.451 121.221 121.549 120.886 121.648Z" fill="#F48BA2"/>
<path d="M111.316 121.845L111.316 123.814C111.651 123.88 111.938 123.945 112.273 123.978L112.273 122.009C111.938 121.976 111.651 121.91 111.316 121.845Z" fill="#F48BA2"/>
<path d="M108.924 121.188L108.924 123.158C109.259 123.256 109.546 123.355 109.881 123.453L109.881 121.484C109.546 121.418 109.259 121.319 108.924 121.188Z" fill="#F48BA2"/>
<path d="M106.053 119.875L106.053 121.845C106.34 122.041 106.675 122.206 107.01 122.37L107.01 120.4C106.675 120.236 106.34 120.039 106.053 119.875Z" fill="#F48BA2"/>
<path d="M103.66 117.84L103.66 119.809C103.947 120.138 104.282 120.466 104.617 120.761L104.617 118.792C104.282 118.497 103.947 118.201 103.66 117.84Z" fill="#F48BA2"/>
<path d="M123.757 120.63L123.757 122.6C124.092 122.435 124.427 122.271 124.714 122.107L124.714 120.138C124.427 120.302 124.092 120.466 123.757 120.63Z" fill="#F48BA2"/>
<path d="M126.149 121.188C126.484 120.926 126.819 120.663 127.106 120.368L127.106 118.398C126.819 118.694 126.484 118.956 126.149 119.219L126.149 121.188Z" fill="#F48BA2"/>
<path d="M118.101 113.738L118.101 115.028L119.45 115.028L119.45 116.038L118.101 116.038L118.101 116.859L116.915 116.859L116.915 116.038L116.29 116.038L116.29 116.859L115.105 116.859L115.105 116.038L110.946 116.038L110.946 113.806C110.946 113.162 111.191 112.648 111.682 112.263C112.169 111.879 112.817 111.687 113.627 111.687C114.453 111.687 115.101 111.87 115.572 112.235C116.039 112.601 116.279 113.11 116.29 113.762L116.29 115.028L116.915 115.028L116.915 113.738L118.101 113.738ZM115.105 115.028L115.105 113.822C115.105 113.459 114.982 113.181 114.737 112.989C114.491 112.796 114.125 112.7 113.639 112.7C113.203 112.7 112.846 112.795 112.57 112.985C112.293 113.172 112.149 113.431 112.138 113.762L112.138 115.028L115.105 115.028Z" fill="#F48BA2"/>
<path d="M129.02 112.108C129.02 116.539 123.039 120.15 115.622 120.15C108.206 120.15 102.225 116.539 102.225 112.108C102.225 107.677 108.206 104.066 115.622 104.066C123.039 104.066 129.02 107.677 129.02 112.108Z" fill="#FFDCE4"/>
<path d="M115.622 120.15C108.78 120.15 103.134 117.064 102.321 113.093C102.273 113.421 102.225 113.749 102.225 114.077C102.225 118.509 108.206 122.119 115.622 122.119C123.039 122.119 129.02 118.509 129.02 114.077C129.02 113.749 128.972 113.421 128.924 113.093C128.111 117.064 122.465 120.15 115.622 120.15Z" fill="#FFBFCD"/>
<path d="M126.388 112.075C126.388 112.338 126.388 112.568 126.341 112.797C126.293 112.962 126.053 113.093 125.814 113.093C125.575 113.06 125.384 112.896 125.384 112.732C125.431 112.535 125.431 112.338 125.431 112.108C125.431 111.911 125.623 111.78 125.91 111.78C126.197 111.78 126.388 111.911 126.388 112.075ZM125.862 110.172C125.862 110.303 125.766 110.434 125.575 110.467C125.336 110.533 125.049 110.434 124.953 110.27C124.857 110.073 124.714 109.876 124.57 109.712C124.427 109.548 124.522 109.351 124.762 109.285C125.001 109.187 125.288 109.252 125.384 109.417C125.527 109.614 125.671 109.843 125.766 110.04C125.862 110.106 125.862 110.139 125.862 110.172ZM125.527 114.603C125.527 114.668 125.527 114.701 125.479 114.767C125.336 114.964 125.144 115.161 125.001 115.358C124.857 115.522 124.57 115.555 124.331 115.456C124.092 115.358 124.044 115.161 124.187 114.997C124.331 114.832 124.522 114.636 124.618 114.471C124.762 114.307 125.049 114.242 125.24 114.34C125.431 114.373 125.527 114.504 125.527 114.603ZM123.805 108.005C123.805 108.104 123.757 108.169 123.661 108.235C123.47 108.366 123.183 108.366 122.991 108.235C122.8 108.104 122.56 107.94 122.321 107.808C122.13 107.71 122.082 107.48 122.273 107.349C122.465 107.217 122.752 107.185 122.943 107.316C123.183 107.447 123.47 107.611 123.661 107.775C123.757 107.841 123.805 107.94 123.805 108.005ZM123.135 116.605C123.135 116.703 123.087 116.802 122.943 116.867C122.704 116.999 122.417 117.163 122.13 117.261C121.891 117.36 121.604 117.327 121.46 117.163C121.316 116.999 121.364 116.802 121.604 116.703C121.843 116.572 122.082 116.474 122.321 116.342C122.513 116.211 122.848 116.244 122.991 116.375C123.087 116.474 123.135 116.539 123.135 116.605ZM120.694 106.561C120.694 106.594 120.694 106.659 120.647 106.692C120.551 106.856 120.264 106.922 120.025 106.856C119.737 106.758 119.45 106.692 119.163 106.627C118.924 106.561 118.78 106.397 118.876 106.2C118.972 106.036 119.211 105.937 119.498 106.003C119.833 106.069 120.12 106.167 120.407 106.233C120.599 106.331 120.694 106.43 120.694 106.561ZM119.833 117.885C119.833 118.016 119.69 118.148 119.498 118.18C119.211 118.246 118.876 118.312 118.541 118.377C118.302 118.41 118.015 118.312 117.967 118.148C117.919 117.983 118.063 117.787 118.302 117.754C118.589 117.688 118.876 117.655 119.163 117.59C119.402 117.524 119.69 117.622 119.785 117.787C119.833 117.787 119.833 117.819 119.833 117.885ZM117.01 105.937C117.01 105.97 117.01 105.97 117.01 105.937C117.01 106.134 116.771 106.266 116.484 106.266C116.197 106.266 115.91 106.233 115.622 106.233C115.335 106.233 115.144 106.101 115.144 105.904C115.144 105.708 115.335 105.576 115.622 105.576C115.957 105.576 116.244 105.576 116.579 105.609C116.819 105.642 117.01 105.773 117.01 105.937ZM116.101 118.279C116.101 118.476 115.91 118.607 115.622 118.607C115.288 118.607 114.953 118.607 114.665 118.574C114.426 118.574 114.187 118.41 114.235 118.213C114.235 118.016 114.474 117.885 114.761 117.918C115.048 117.918 115.383 117.951 115.67 117.951C115.91 117.951 116.101 118.115 116.101 118.279ZM113.23 106.167C113.23 106.298 113.086 106.462 112.847 106.495C112.56 106.561 112.273 106.594 111.986 106.659C111.747 106.725 111.46 106.627 111.364 106.462C111.268 106.298 111.412 106.101 111.651 106.036C111.938 105.97 112.273 105.904 112.608 105.839C112.847 105.806 113.134 105.904 113.182 106.069C113.23 106.101 113.23 106.134 113.23 106.167ZM112.369 117.885C112.369 117.918 112.369 117.951 112.321 117.983C112.225 118.148 111.986 118.246 111.699 118.18C111.412 118.115 111.077 118.016 110.79 117.951C110.551 117.885 110.455 117.688 110.551 117.524C110.646 117.36 110.933 117.294 111.173 117.36C111.46 117.458 111.747 117.524 112.034 117.59C112.273 117.622 112.369 117.754 112.369 117.885ZM109.785 107.217C109.785 107.316 109.689 107.414 109.594 107.48C109.354 107.611 109.115 107.71 108.876 107.841C108.684 107.972 108.35 107.94 108.206 107.808C108.015 107.677 108.062 107.447 108.254 107.349C108.493 107.217 108.78 107.053 109.067 106.955C109.306 106.856 109.594 106.889 109.737 107.053C109.785 107.086 109.785 107.152 109.785 107.217ZM109.067 116.638C109.067 116.703 109.019 116.769 108.972 116.835C108.828 116.966 108.493 116.999 108.302 116.867C108.062 116.736 107.775 116.572 107.584 116.408C107.393 116.277 107.393 116.08 107.584 115.948C107.775 115.817 108.062 115.817 108.254 115.948C108.445 116.08 108.684 116.244 108.924 116.375C109.019 116.441 109.067 116.539 109.067 116.638ZM107.153 109.056C107.153 109.121 107.105 109.187 107.058 109.22C106.914 109.384 106.723 109.581 106.627 109.745C106.531 109.909 106.196 109.975 106.005 109.876C105.766 109.81 105.67 109.614 105.814 109.449C105.957 109.252 106.148 109.056 106.292 108.859C106.436 108.694 106.723 108.662 106.962 108.76C107.058 108.826 107.153 108.957 107.153 109.056ZM106.675 114.636C106.675 114.767 106.579 114.865 106.436 114.931C106.196 115.029 105.909 114.964 105.814 114.8C105.67 114.603 105.526 114.373 105.431 114.176C105.335 114.012 105.479 113.815 105.718 113.749C105.957 113.684 106.244 113.782 106.34 113.946C106.436 114.143 106.579 114.34 106.723 114.504C106.675 114.537 106.675 114.57 106.675 114.636ZM105.861 111.484L105.861 111.517C105.814 111.714 105.814 111.911 105.814 112.108C105.814 112.305 105.622 112.436 105.335 112.436C105.048 112.436 104.857 112.305 104.857 112.108C104.857 111.878 104.857 111.649 104.904 111.452C104.952 111.288 105.192 111.156 105.431 111.156C105.67 111.156 105.861 111.32 105.861 111.484Z" fill="#FFBFCD"/>
<path d="M116.101 120.15L116.101 122.119C116.436 122.119 116.723 122.086 117.058 122.086L117.058 120.117C116.723 120.117 116.436 120.15 116.101 120.15Z" fill="#F48BA2"/>
<path d="M113.708 120.084L113.708 122.054C114.043 122.086 114.331 122.086 114.665 122.119L114.665 120.15C114.331 120.117 114.043 120.117 113.708 120.084Z" fill="#F48BA2"/>
<path d="M118.493 119.986L118.493 121.955C118.828 121.922 119.115 121.857 119.45 121.791L119.45 119.822C119.115 119.887 118.828 119.92 118.493 119.986Z" fill="#F48BA2"/>
<path d="M120.886 119.526L120.886 121.496C121.221 121.397 121.508 121.332 121.843 121.233L121.843 119.264C121.508 119.329 121.221 119.428 120.886 119.526Z" fill="#F48BA2"/>
<path d="M111.316 119.723L111.316 121.693C111.651 121.758 111.938 121.824 112.273 121.857L112.273 119.887C111.938 119.855 111.651 119.789 111.316 119.723Z" fill="#F48BA2"/>
<path d="M108.924 119.067L108.924 121.036C109.259 121.135 109.546 121.233 109.881 121.331L109.881 119.362C109.546 119.296 109.259 119.198 108.924 119.067Z" fill="#F48BA2"/>
<path d="M106.053 117.754L106.053 119.723C106.34 119.92 106.675 120.084 107.01 120.248L107.01 118.279C106.675 118.115 106.34 117.918 106.053 117.754Z" fill="#F48BA2"/>
<path d="M103.66 115.719L103.66 117.688C103.947 118.016 104.282 118.345 104.617 118.64L104.617 116.671C104.282 116.375 103.947 116.08 103.66 115.719Z" fill="#F48BA2"/>
<path d="M123.757 118.509L123.757 120.478C124.092 120.314 124.427 120.15 124.714 119.986L124.714 118.016C124.427 118.181 124.092 118.345 123.757 118.509Z" fill="#F48BA2"/>
<path d="M126.149 119.067C126.484 118.804 126.819 118.541 127.106 118.246L127.106 116.277C126.819 116.572 126.484 116.835 126.149 117.097L126.149 119.067Z" fill="#F48BA2"/>
<path d="M118.101 111.617L118.101 112.907L119.45 112.907L119.45 113.916L118.101 113.916L118.101 114.738L116.915 114.738L116.915 113.916L116.29 113.916L116.29 114.738L115.105 114.738L115.105 113.916L110.946 113.916L110.946 111.685C110.946 111.041 111.191 110.527 111.682 110.142C112.169 109.757 112.817 109.565 113.627 109.565C114.453 109.565 115.101 109.748 115.572 110.114C116.039 110.48 116.279 110.989 116.29 111.641L116.29 112.907L116.915 112.907L116.915 111.617L118.101 111.617ZM115.105 112.907L115.105 111.701C115.105 111.337 114.982 111.06 114.737 110.867C114.491 110.675 114.125 110.579 113.639 110.579C113.203 110.579 112.846 110.674 112.57 110.863C112.293 111.05 112.149 111.309 112.138 111.641L112.138 112.907L115.105 112.907Z" fill="#F48BA2"/>
<path d="M58.1162 159.481C58.1162 160.813 57.7832 161.895 57.1172 162.726C56.4512 163.556 55.5918 163.972 54.5391 163.972C54.0091 163.972 53.515 163.871 53.0566 163.671C52.6055 163.463 52.0827 163.076 51.4883 162.511C50.8939 161.938 50.346 161.651 49.8447 161.651C49.4294 161.651 49.0928 161.83 48.835 162.188C48.5771 162.547 48.4482 163.005 48.4482 163.563L46.1387 163.542C46.1387 162.21 46.4609 161.139 47.1055 160.33C47.7572 159.521 48.6201 159.116 49.6943 159.116C50.2529 159.116 50.7614 159.224 51.2197 159.438C51.6781 159.653 52.1973 160.04 52.7773 160.599C53.3646 161.15 53.8981 161.426 54.3779 161.426C54.8005 161.426 55.1442 161.236 55.4092 160.856C55.6813 160.477 55.8174 160.015 55.8174 159.471L58.1162 159.481ZM73.3486 168H70.2441V156.033L66.5381 157.183V154.658L73.0156 152.338H73.3486V168ZM78.9023 160.309L79.8047 152.359H88.5703V154.948H82.3506L81.9639 158.311C82.7015 157.917 83.4857 157.72 84.3164 157.72C85.806 157.72 86.9733 158.182 87.8184 159.105C88.6634 160.029 89.0859 161.322 89.0859 162.983C89.0859 163.993 88.8711 164.899 88.4414 165.701C88.0189 166.496 87.4102 167.116 86.6152 167.56C85.8203 167.996 84.8822 168.215 83.8008 168.215C82.8555 168.215 81.9782 168.025 81.1689 167.646C80.3597 167.259 79.7188 166.718 79.2461 166.023C78.7806 165.329 78.5335 164.537 78.5049 163.649H81.5771C81.6416 164.301 81.8672 164.81 82.2539 165.175C82.6478 165.533 83.1598 165.712 83.79 165.712C84.4919 165.712 85.0326 165.461 85.4121 164.96C85.7917 164.451 85.9814 163.735 85.9814 162.812C85.9814 161.924 85.763 161.243 85.3262 160.771C84.8893 160.298 84.2699 160.062 83.4678 160.062C82.7301 160.062 82.1322 160.255 81.6738 160.642L81.373 160.921L78.9023 160.309ZM107.272 168H96.5518V165.873L101.611 160.48C102.306 159.721 102.818 159.059 103.147 158.493C103.484 157.927 103.652 157.39 103.652 156.882C103.652 156.187 103.477 155.643 103.126 155.249C102.775 154.848 102.274 154.647 101.622 154.647C100.92 154.647 100.365 154.891 99.957 155.378C99.556 155.858 99.3555 156.492 99.3555 157.279H96.2402C96.2402 156.327 96.4658 155.457 96.917 154.669C97.3753 153.881 98.0199 153.265 98.8506 152.821C99.6813 152.37 100.623 152.145 101.676 152.145C103.287 152.145 104.537 152.531 105.425 153.305C106.32 154.078 106.768 155.17 106.768 156.581C106.768 157.354 106.567 158.142 106.166 158.944C105.765 159.746 105.077 160.681 104.104 161.748L100.548 165.497H107.272V168ZM118.369 162.113H120.142V164.616H118.369V168H115.265V164.616H108.852L108.712 162.661L115.232 152.359H118.369V162.113ZM111.806 162.113H115.265V156.592L115.061 156.946L111.806 162.113ZM132.345 161.533C132.345 163.696 131.897 165.35 131.002 166.496C130.107 167.642 128.796 168.215 127.07 168.215C125.366 168.215 124.062 167.653 123.16 166.528C122.258 165.404 121.796 163.793 121.774 161.694V158.815C121.774 156.631 122.226 154.973 123.128 153.842C124.037 152.71 125.344 152.145 127.049 152.145C128.753 152.145 130.057 152.707 130.959 153.831C131.861 154.948 132.323 156.556 132.345 158.654V161.533ZM129.24 158.375C129.24 157.079 129.061 156.137 128.703 155.55C128.352 154.955 127.801 154.658 127.049 154.658C126.318 154.658 125.778 154.941 125.427 155.507C125.083 156.065 124.9 156.943 124.879 158.139V161.941C124.879 163.216 125.051 164.165 125.395 164.788C125.745 165.404 126.304 165.712 127.07 165.712C127.829 165.712 128.377 165.415 128.714 164.82C129.05 164.226 129.226 163.316 129.24 162.092V158.375ZM148.232 165.916H144.816V168H141.594V165.916H139.413V163.306H141.594V162.489H139.413V159.879H141.594V152.359H147.674C148.848 152.359 149.88 152.571 150.768 152.993C151.656 153.416 152.343 154.021 152.83 154.809C153.324 155.589 153.571 156.481 153.571 157.483C153.571 159.03 153.045 160.251 151.992 161.146C150.947 162.042 149.489 162.489 147.62 162.489H144.816V163.306H148.232V165.916ZM144.816 159.879H147.599C149.403 159.879 150.306 159.088 150.306 157.505C150.306 156.753 150.076 156.148 149.618 155.689C149.16 155.224 148.526 154.988 147.717 154.98H144.816V159.879Z" fill="#FE4D4A"/>
</svg>
