<svg width="200" height="200" viewBox="0 0 200 200" fill="none" xmlns="http://www.w3.org/2000/svg">
<path d="M200 100C200 155.228 155.228 200 100 200C44.7715 200 0 155.228 0 100C0 44.7715 44.7715 0 100 0C155.228 0 200 44.7715 200 100Z" fill="#FFF6F8"/>
<path d="M125 109.259L67 130V98.7414L125 78V109.259Z" fill="#FFBFCD"/>
<path d="M87 105L113.5 95.5" stroke="#F1AABA"/>
<path d="M50 84.5176L66.7206 101L125 80.4824L108.279 64L50 84.5176Z" fill="#FFDCE4"/>
<path d="M67 130V99.4654L58.5 91.2327L50 83V113.535L67 130Z" fill="#E492A4"/>
<path d="M60.5 102L66.5 106V104.5L60.5 102Z" fill="#DC8094"/>
<path d="M60.5 115L50 104.5V106.5L60.5 115Z" fill="#DC8094"/>
<ellipse cx="88" cy="80" rx="10" ry="6" fill="#FFBFCD"/>
<ellipse cx="106.5" cy="73.5" rx="2.5" ry="1.5" fill="#FFBFCD"/>
<ellipse cx="69.5" cy="86.5" rx="2.5" ry="1.5" fill="#FFBFCD"/>
<path d="M86 117L67 122.5V124L86 117Z" fill="#F1AABA"/>
<path d="M75.5 102L67 104.5V106L75.5 102Z" fill="#F1AABA"/>
<path d="M134.795 122.225C134.795 126.656 128.814 130.266 121.398 130.266C113.981 130.266 108 126.656 108 122.225C108 117.793 113.981 114.183 121.398 114.183C128.814 114.183 134.795 117.793 134.795 122.225Z" fill="white"/>
<path d="M121.398 130.266C114.555 130.266 108.909 127.181 108.096 123.209C108.048 123.538 108 123.866 108 124.194C108 128.625 113.981 132.236 121.398 132.236C128.814 132.236 134.795 128.625 134.795 124.194C134.795 123.866 134.747 123.538 134.699 123.209C133.886 127.181 128.24 130.266 121.398 130.266Z" fill="#FFBFCD"/>
<path d="M132.164 122.192C132.164 122.454 132.164 122.684 132.116 122.914C132.068 123.078 131.829 123.209 131.589 123.209C131.35 123.176 131.159 123.012 131.159 122.848C131.207 122.651 131.207 122.454 131.207 122.225C131.207 122.028 131.398 121.896 131.685 121.896C131.972 121.896 132.164 122.028 132.164 122.192ZM131.637 120.288C131.637 120.419 131.541 120.551 131.35 120.583C131.111 120.649 130.824 120.551 130.728 120.387C130.632 120.19 130.489 119.993 130.345 119.829C130.202 119.664 130.297 119.467 130.537 119.402C130.776 119.303 131.063 119.369 131.159 119.533C131.302 119.73 131.446 119.96 131.541 120.157C131.637 120.222 131.637 120.255 131.637 120.288ZM131.302 124.719C131.302 124.785 131.302 124.818 131.254 124.883C131.111 125.08 130.919 125.277 130.776 125.474C130.632 125.638 130.345 125.671 130.106 125.573C129.867 125.474 129.819 125.277 129.962 125.113C130.106 124.949 130.297 124.752 130.393 124.588C130.537 124.424 130.824 124.358 131.015 124.457C131.207 124.489 131.302 124.621 131.302 124.719ZM129.58 118.122C129.58 118.22 129.532 118.286 129.436 118.351C129.245 118.483 128.958 118.483 128.766 118.351C128.575 118.22 128.336 118.056 128.096 117.925C127.905 117.826 127.857 117.597 128.049 117.465C128.24 117.334 128.527 117.301 128.718 117.432C128.958 117.564 129.245 117.728 129.436 117.892C129.532 117.958 129.58 118.056 129.58 118.122ZM128.91 126.721C128.91 126.82 128.862 126.918 128.718 126.984C128.479 127.115 128.192 127.279 127.905 127.378C127.666 127.476 127.379 127.444 127.235 127.279C127.092 127.115 127.139 126.918 127.379 126.82C127.618 126.689 127.857 126.59 128.096 126.459C128.288 126.328 128.623 126.36 128.766 126.492C128.862 126.59 128.91 126.656 128.91 126.721ZM126.47 116.677C126.47 116.71 126.47 116.776 126.422 116.809C126.326 116.973 126.039 117.039 125.8 116.973C125.513 116.874 125.225 116.809 124.938 116.743C124.699 116.677 124.556 116.513 124.651 116.316C124.747 116.152 124.986 116.054 125.273 116.119C125.608 116.185 125.895 116.284 126.182 116.349C126.374 116.448 126.47 116.546 126.47 116.677ZM125.608 128.002C125.608 128.133 125.465 128.264 125.273 128.297C124.986 128.363 124.651 128.428 124.316 128.494C124.077 128.527 123.79 128.428 123.742 128.264C123.694 128.1 123.838 127.903 124.077 127.87C124.364 127.805 124.651 127.772 124.938 127.706C125.178 127.64 125.465 127.739 125.56 127.903C125.608 127.903 125.608 127.936 125.608 128.002ZM122.785 116.054C122.785 116.087 122.785 116.087 122.785 116.054C122.785 116.251 122.546 116.382 122.259 116.382C121.972 116.382 121.685 116.349 121.398 116.349C121.111 116.349 120.919 116.218 120.919 116.021C120.919 115.824 121.111 115.693 121.398 115.693C121.733 115.693 122.02 115.693 122.355 115.726C122.594 115.758 122.785 115.89 122.785 116.054ZM121.876 128.395C121.876 128.592 121.685 128.724 121.398 128.724C121.063 128.724 120.728 128.724 120.441 128.691C120.201 128.691 119.962 128.527 120.01 128.33C120.01 128.133 120.249 128.002 120.536 128.034C120.823 128.034 121.158 128.067 121.445 128.067C121.685 128.067 121.876 128.231 121.876 128.395ZM119.005 116.284C119.005 116.415 118.862 116.579 118.622 116.612C118.335 116.677 118.048 116.71 117.761 116.776C117.522 116.842 117.235 116.743 117.139 116.579C117.043 116.415 117.187 116.218 117.426 116.152C117.713 116.087 118.048 116.021 118.383 115.955C118.622 115.923 118.909 116.021 118.957 116.185C119.005 116.218 119.005 116.251 119.005 116.284ZM118.144 128.002C118.144 128.034 118.144 128.067 118.096 128.1C118 128.264 117.761 128.363 117.474 128.297C117.187 128.231 116.852 128.133 116.565 128.067C116.326 128.002 116.23 127.805 116.326 127.64C116.421 127.476 116.708 127.411 116.948 127.476C117.235 127.575 117.522 127.64 117.809 127.706C118.048 127.739 118.144 127.87 118.144 128.002ZM115.56 117.334C115.56 117.432 115.464 117.531 115.369 117.597C115.129 117.728 114.89 117.826 114.651 117.958C114.46 118.089 114.125 118.056 113.981 117.925C113.79 117.793 113.838 117.564 114.029 117.465C114.268 117.334 114.555 117.17 114.842 117.071C115.082 116.973 115.369 117.006 115.512 117.17C115.56 117.203 115.56 117.268 115.56 117.334ZM114.842 126.754C114.842 126.82 114.795 126.886 114.747 126.951C114.603 127.082 114.268 127.115 114.077 126.984C113.838 126.853 113.55 126.689 113.359 126.524C113.168 126.393 113.168 126.196 113.359 126.065C113.55 125.934 113.838 125.934 114.029 126.065C114.22 126.196 114.46 126.36 114.699 126.492C114.795 126.557 114.842 126.656 114.842 126.754ZM112.928 119.172C112.928 119.238 112.881 119.303 112.833 119.336C112.689 119.5 112.498 119.697 112.402 119.861C112.306 120.025 111.971 120.091 111.78 119.993C111.541 119.927 111.445 119.73 111.589 119.566C111.732 119.369 111.924 119.172 112.067 118.975C112.211 118.811 112.498 118.778 112.737 118.877C112.833 118.942 112.928 119.074 112.928 119.172ZM112.45 124.752C112.45 124.883 112.354 124.982 112.211 125.047C111.971 125.146 111.684 125.08 111.589 124.916C111.445 124.719 111.302 124.489 111.206 124.292C111.11 124.128 111.254 123.931 111.493 123.866C111.732 123.8 112.019 123.899 112.115 124.063C112.211 124.26 112.354 124.457 112.498 124.621C112.45 124.654 112.45 124.686 112.45 124.752ZM111.637 121.601L111.637 121.634C111.589 121.831 111.589 122.028 111.589 122.225C111.589 122.422 111.397 122.553 111.11 122.553C110.823 122.553 110.632 122.422 110.632 122.225C110.632 121.995 110.632 121.765 110.68 121.568C110.727 121.404 110.967 121.273 111.206 121.273C111.445 121.273 111.637 121.437 111.637 121.601Z" fill="#FFBFCD"/>
<path d="M121.876 130.266L121.876 132.236C122.211 132.236 122.498 132.203 122.833 132.203L122.833 130.233C122.498 130.233 122.211 130.266 121.876 130.266Z" fill="#F48BA2"/>
<path d="M119.484 130.201L119.484 132.17C119.819 132.203 120.106 132.203 120.441 132.236L120.441 130.266C120.106 130.233 119.819 130.233 119.484 130.201Z" fill="#F48BA2"/>
<path d="M124.269 130.102L124.269 132.072C124.603 132.039 124.891 131.973 125.226 131.908L125.226 129.938C124.891 130.004 124.603 130.037 124.269 130.102Z" fill="#F48BA2"/>
<path d="M126.661 129.643L126.661 131.612C126.996 131.514 127.283 131.448 127.618 131.349L127.618 129.38C127.283 129.446 126.996 129.544 126.661 129.643Z" fill="#F48BA2"/>
<path d="M117.091 129.84L117.091 131.809C117.426 131.875 117.713 131.94 118.048 131.973L118.048 130.004C117.713 129.971 117.426 129.905 117.091 129.84Z" fill="#F48BA2"/>
<path d="M114.699 129.183L114.699 131.153C115.034 131.251 115.321 131.35 115.656 131.448L115.656 129.479C115.321 129.413 115.034 129.314 114.699 129.183Z" fill="#F48BA2"/>
<path d="M111.828 127.87L111.828 129.84C112.115 130.036 112.45 130.201 112.785 130.365L112.785 128.395C112.45 128.231 112.115 128.034 111.828 127.87Z" fill="#F48BA2"/>
<path d="M109.436 125.835L109.436 127.804C109.723 128.133 110.058 128.461 110.393 128.756L110.393 126.787C110.058 126.492 109.723 126.196 109.436 125.835Z" fill="#F48BA2"/>
<path d="M129.532 128.625L129.532 130.595C129.867 130.43 130.202 130.266 130.489 130.102L130.489 128.133C130.202 128.297 129.867 128.461 129.532 128.625Z" fill="#F48BA2"/>
<path d="M131.924 129.183C132.259 128.921 132.594 128.658 132.881 128.363L132.881 126.393C132.594 126.689 132.259 126.951 131.924 127.214L131.924 129.183Z" fill="#F48BA2"/>
<path d="M123.876 121.733L123.876 123.023L125.226 123.023L125.226 124.033L123.876 124.033L123.876 124.854L122.691 124.854L122.691 124.033L122.066 124.033L122.066 124.854L120.88 124.854L120.88 124.033L116.721 124.033L116.721 121.801C116.721 121.157 116.967 120.643 117.457 120.259C117.944 119.874 118.592 119.682 119.402 119.682C120.228 119.682 120.876 119.865 121.347 120.23C121.814 120.596 122.054 121.105 122.066 121.757L122.066 123.023L122.691 123.023L122.691 121.733L123.876 121.733ZM120.88 123.023L120.88 121.817C120.88 121.454 120.757 121.176 120.512 120.984C120.267 120.791 119.901 120.695 119.414 120.695C118.978 120.695 118.621 120.79 118.345 120.98C118.068 121.167 117.924 121.426 117.913 121.757L117.913 123.023L120.88 123.023Z" fill="#F48BA2"/>
<path d="M134.795 120.103C134.795 124.534 128.814 128.145 121.398 128.145C113.981 128.145 108 124.534 108 120.103C108 115.672 113.981 112.061 121.398 112.061C128.814 112.061 134.795 115.672 134.795 120.103Z" fill="white"/>
<path d="M121.398 128.145C114.555 128.145 108.909 125.059 108.096 121.088C108.048 121.416 108 121.744 108 122.072C108 126.504 113.981 130.114 121.398 130.114C128.814 130.114 134.795 126.504 134.795 122.072C134.795 121.744 134.747 121.416 134.699 121.088C133.886 125.059 128.24 128.145 121.398 128.145Z" fill="#FFBFCD"/>
<path d="M132.164 120.07C132.164 120.333 132.164 120.563 132.116 120.792C132.068 120.957 131.829 121.088 131.589 121.088C131.35 121.055 131.159 120.891 131.159 120.727C131.207 120.53 131.207 120.333 131.207 120.103C131.207 119.906 131.398 119.775 131.685 119.775C131.972 119.775 132.164 119.906 132.164 120.07ZM131.637 118.167C131.637 118.298 131.541 118.429 131.35 118.462C131.111 118.528 130.824 118.429 130.728 118.265C130.632 118.068 130.489 117.871 130.345 117.707C130.202 117.543 130.297 117.346 130.537 117.28C130.776 117.182 131.063 117.248 131.159 117.412C131.302 117.609 131.446 117.838 131.541 118.035C131.637 118.101 131.637 118.134 131.637 118.167ZM131.302 122.598C131.302 122.663 131.302 122.696 131.254 122.762C131.111 122.959 130.919 123.156 130.776 123.353C130.632 123.517 130.345 123.55 130.106 123.451C129.867 123.353 129.819 123.156 129.962 122.992C130.106 122.827 130.297 122.631 130.393 122.466C130.537 122.302 130.824 122.237 131.015 122.335C131.207 122.368 131.302 122.499 131.302 122.598ZM129.58 116C129.58 116.099 129.532 116.164 129.436 116.23C129.245 116.361 128.958 116.361 128.766 116.23C128.575 116.099 128.336 115.935 128.096 115.803C127.905 115.705 127.857 115.475 128.049 115.344C128.24 115.212 128.527 115.18 128.718 115.311C128.958 115.442 129.245 115.606 129.436 115.77C129.532 115.836 129.58 115.935 129.58 116ZM128.91 124.6C128.91 124.698 128.862 124.797 128.718 124.863C128.479 124.994 128.192 125.158 127.905 125.256C127.666 125.355 127.379 125.322 127.235 125.158C127.092 124.994 127.139 124.797 127.379 124.698C127.618 124.567 127.857 124.469 128.096 124.337C128.288 124.206 128.623 124.239 128.766 124.37C128.862 124.469 128.91 124.534 128.91 124.6ZM126.47 114.556C126.47 114.589 126.47 114.654 126.422 114.687C126.326 114.851 126.039 114.917 125.8 114.851C125.513 114.753 125.225 114.687 124.938 114.622C124.699 114.556 124.556 114.392 124.651 114.195C124.747 114.031 124.986 113.932 125.273 113.998C125.608 114.064 125.895 114.162 126.182 114.228C126.374 114.326 126.47 114.425 126.47 114.556ZM125.608 125.88C125.608 126.011 125.465 126.143 125.273 126.175C124.986 126.241 124.651 126.307 124.316 126.372C124.077 126.405 123.79 126.307 123.742 126.143C123.694 125.979 123.838 125.782 124.077 125.749C124.364 125.683 124.651 125.65 124.938 125.585C125.178 125.519 125.465 125.617 125.56 125.782C125.608 125.782 125.608 125.814 125.608 125.88ZM122.785 113.932C122.785 113.965 122.785 113.965 122.785 113.932C122.785 114.129 122.546 114.261 122.259 114.261C121.972 114.261 121.685 114.228 121.398 114.228C121.111 114.228 120.919 114.096 120.919 113.9C120.919 113.703 121.111 113.571 121.398 113.571C121.733 113.571 122.02 113.571 122.355 113.604C122.594 113.637 122.785 113.768 122.785 113.932ZM121.876 126.274C121.876 126.471 121.685 126.602 121.398 126.602C121.063 126.602 120.728 126.602 120.441 126.569C120.201 126.569 119.962 126.405 120.01 126.208C120.01 126.011 120.249 125.88 120.536 125.913C120.823 125.913 121.158 125.946 121.445 125.946C121.685 125.946 121.876 126.11 121.876 126.274ZM119.005 114.162C119.005 114.293 118.862 114.458 118.622 114.49C118.335 114.556 118.048 114.589 117.761 114.654C117.522 114.72 117.235 114.622 117.139 114.458C117.043 114.293 117.187 114.096 117.426 114.031C117.713 113.965 118.048 113.9 118.383 113.834C118.622 113.801 118.909 113.9 118.957 114.064C119.005 114.096 119.005 114.129 119.005 114.162ZM118.144 125.88C118.144 125.913 118.144 125.946 118.096 125.979C118 126.143 117.761 126.241 117.474 126.175C117.187 126.11 116.852 126.011 116.565 125.946C116.326 125.88 116.23 125.683 116.326 125.519C116.421 125.355 116.708 125.289 116.948 125.355C117.235 125.453 117.522 125.519 117.809 125.585C118.048 125.617 118.144 125.749 118.144 125.88ZM115.56 115.212C115.56 115.311 115.464 115.409 115.369 115.475C115.129 115.606 114.89 115.705 114.651 115.836C114.46 115.967 114.125 115.935 113.981 115.803C113.79 115.672 113.838 115.442 114.029 115.344C114.268 115.212 114.555 115.048 114.842 114.95C115.082 114.851 115.369 114.884 115.512 115.048C115.56 115.081 115.56 115.147 115.56 115.212ZM114.842 124.633C114.842 124.698 114.795 124.764 114.747 124.83C114.603 124.961 114.268 124.994 114.077 124.863C113.838 124.731 113.55 124.567 113.359 124.403C113.168 124.272 113.168 124.075 113.359 123.943C113.55 123.812 113.838 123.812 114.029 123.943C114.22 124.075 114.46 124.239 114.699 124.37C114.795 124.436 114.842 124.534 114.842 124.633ZM112.928 117.051C112.928 117.116 112.881 117.182 112.833 117.215C112.689 117.379 112.498 117.576 112.402 117.74C112.306 117.904 111.971 117.97 111.78 117.871C111.541 117.806 111.445 117.609 111.589 117.444C111.732 117.248 111.924 117.051 112.067 116.854C112.211 116.69 112.498 116.657 112.737 116.755C112.833 116.821 112.928 116.952 112.928 117.051ZM112.45 122.631C112.45 122.762 112.354 122.86 112.211 122.926C111.971 123.024 111.684 122.959 111.589 122.795C111.445 122.598 111.302 122.368 111.206 122.171C111.11 122.007 111.254 121.81 111.493 121.744C111.732 121.679 112.019 121.777 112.115 121.941C112.211 122.138 112.354 122.335 112.498 122.499C112.45 122.532 112.45 122.565 112.45 122.631ZM111.637 119.48L111.637 119.512C111.589 119.709 111.589 119.906 111.589 120.103C111.589 120.3 111.397 120.431 111.11 120.431C110.823 120.431 110.632 120.3 110.632 120.103C110.632 119.873 110.632 119.644 110.68 119.447C110.727 119.283 110.967 119.151 111.206 119.151C111.445 119.151 111.637 119.315 111.637 119.48Z" fill="#FFBFCD"/>
<path d="M121.876 128.145L121.876 130.114C122.211 130.114 122.498 130.081 122.833 130.081L122.833 128.112C122.498 128.112 122.211 128.145 121.876 128.145Z" fill="#F48BA2"/>
<path d="M119.484 128.079L119.484 130.049C119.819 130.081 120.106 130.081 120.441 130.114L120.441 128.145C120.106 128.112 119.819 128.112 119.484 128.079Z" fill="#F48BA2"/>
<path d="M124.269 127.981L124.269 129.95C124.603 129.917 124.891 129.852 125.226 129.786L125.226 127.817C124.891 127.882 124.603 127.915 124.269 127.981Z" fill="#F48BA2"/>
<path d="M126.661 127.521L126.661 129.491C126.996 129.392 127.283 129.327 127.618 129.228L127.618 127.259C127.283 127.324 126.996 127.423 126.661 127.521Z" fill="#F48BA2"/>
<path d="M117.091 127.718L117.091 129.688C117.426 129.753 117.713 129.819 118.048 129.852L118.048 127.882C117.713 127.85 117.426 127.784 117.091 127.718Z" fill="#F48BA2"/>
<path d="M114.699 127.062L114.699 129.031C115.034 129.13 115.321 129.228 115.656 129.327L115.656 127.357C115.321 127.291 115.034 127.193 114.699 127.062Z" fill="#F48BA2"/>
<path d="M111.828 125.749L111.828 127.718C112.115 127.915 112.45 128.079 112.785 128.243L112.785 126.274C112.45 126.11 112.115 125.913 111.828 125.749Z" fill="#F48BA2"/>
<path d="M109.436 123.714L109.436 125.683C109.723 126.011 110.058 126.34 110.393 126.635L110.393 124.666C110.058 124.37 109.723 124.075 109.436 123.714Z" fill="#F48BA2"/>
<path d="M129.532 126.504L129.532 128.473C129.867 128.309 130.202 128.145 130.489 127.981L130.489 126.011C130.202 126.176 129.867 126.34 129.532 126.504Z" fill="#F48BA2"/>
<path d="M131.924 127.062C132.259 126.799 132.594 126.536 132.881 126.241L132.881 124.272C132.594 124.567 132.259 124.83 131.924 125.092L131.924 127.062Z" fill="#F48BA2"/>
<path d="M123.876 119.612L123.876 120.902L125.226 120.902L125.226 121.912L123.876 121.912L123.876 122.733L122.691 122.733L122.691 121.912L122.066 121.912L122.066 122.733L120.88 122.733L120.88 121.912L116.721 121.912L116.721 119.68C116.721 119.036 116.967 118.522 117.457 118.137C117.944 117.752 118.592 117.56 119.402 117.56C120.228 117.56 120.876 117.743 121.347 118.109C121.814 118.475 122.054 118.984 122.066 119.636L122.066 120.902L122.691 120.902L122.691 119.612L123.876 119.612ZM120.88 120.902L120.88 119.696C120.88 119.332 120.757 119.055 120.512 118.862C120.267 118.67 119.901 118.574 119.414 118.574C118.978 118.574 118.621 118.669 118.345 118.858C118.068 119.045 117.924 119.304 117.913 119.636L117.913 120.902L120.88 120.902Z" fill="#F48BA2"/>
<path d="M134.795 117.973C134.795 122.404 128.814 126.015 121.398 126.015C113.981 126.015 108 122.404 108 117.973C108 113.542 113.981 109.931 121.398 109.931C128.814 109.931 134.795 113.542 134.795 117.973Z" fill="white"/>
<path d="M121.398 126.015C114.555 126.015 108.909 122.929 108.096 118.958C108.048 119.286 108 119.614 108 119.942C108 124.373 113.981 127.984 121.398 127.984C128.814 127.984 134.795 124.373 134.795 119.942C134.795 119.614 134.747 119.286 134.699 118.958C133.886 122.929 128.24 126.015 121.398 126.015Z" fill="#FFBFCD"/>
<path d="M132.164 117.94C132.164 118.203 132.164 118.433 132.116 118.662C132.068 118.826 131.829 118.958 131.589 118.958C131.35 118.925 131.159 118.761 131.159 118.597C131.207 118.4 131.207 118.203 131.207 117.973C131.207 117.776 131.398 117.645 131.685 117.645C131.972 117.645 132.164 117.776 132.164 117.94ZM131.637 116.036C131.637 116.168 131.541 116.299 131.35 116.332C131.111 116.397 130.824 116.299 130.728 116.135C130.632 115.938 130.489 115.741 130.345 115.577C130.202 115.413 130.297 115.216 130.537 115.15C130.776 115.052 131.063 115.117 131.159 115.282C131.302 115.478 131.446 115.708 131.541 115.905C131.637 115.971 131.637 116.004 131.637 116.036ZM131.302 120.468C131.302 120.533 131.302 120.566 131.254 120.632C131.111 120.829 130.919 121.026 130.776 121.223C130.632 121.387 130.345 121.419 130.106 121.321C129.867 121.223 129.819 121.026 129.962 120.861C130.106 120.697 130.297 120.5 130.393 120.336C130.537 120.172 130.824 120.107 131.015 120.205C131.207 120.238 131.302 120.369 131.302 120.468ZM129.58 113.87C129.58 113.969 129.532 114.034 129.436 114.1C129.245 114.231 128.958 114.231 128.766 114.1C128.575 113.969 128.336 113.804 128.096 113.673C127.905 113.575 127.857 113.345 128.049 113.214C128.24 113.082 128.527 113.05 128.718 113.181C128.958 113.312 129.245 113.476 129.436 113.64C129.532 113.706 129.58 113.804 129.58 113.87ZM128.91 122.47C128.91 122.568 128.862 122.667 128.718 122.732C128.479 122.864 128.192 123.028 127.905 123.126C127.666 123.225 127.379 123.192 127.235 123.028C127.092 122.864 127.139 122.667 127.379 122.568C127.618 122.437 127.857 122.339 128.096 122.207C128.288 122.076 128.623 122.109 128.766 122.24C128.862 122.339 128.91 122.404 128.91 122.47ZM126.47 112.426C126.47 112.459 126.47 112.524 126.422 112.557C126.326 112.721 126.039 112.787 125.8 112.721C125.513 112.623 125.225 112.557 124.938 112.492C124.699 112.426 124.556 112.262 124.651 112.065C124.747 111.901 124.986 111.802 125.273 111.868C125.608 111.934 125.895 112.032 126.182 112.098C126.374 112.196 126.47 112.295 126.47 112.426ZM125.608 123.75C125.608 123.881 125.465 124.013 125.273 124.045C124.986 124.111 124.651 124.177 124.316 124.242C124.077 124.275 123.79 124.177 123.742 124.013C123.694 123.848 123.838 123.651 124.077 123.619C124.364 123.553 124.651 123.52 124.938 123.455C125.178 123.389 125.465 123.487 125.56 123.651C125.608 123.651 125.608 123.684 125.608 123.75ZM122.785 111.802C122.785 111.835 122.785 111.835 122.785 111.802C122.785 111.999 122.546 112.13 122.259 112.13C121.972 112.13 121.685 112.098 121.398 112.098C121.111 112.098 120.919 111.966 120.919 111.769C120.919 111.572 121.111 111.441 121.398 111.441C121.733 111.441 122.02 111.441 122.355 111.474C122.594 111.507 122.785 111.638 122.785 111.802ZM121.876 124.144C121.876 124.341 121.685 124.472 121.398 124.472C121.063 124.472 120.728 124.472 120.441 124.439C120.201 124.439 119.962 124.275 120.01 124.078C120.01 123.881 120.249 123.75 120.536 123.783C120.823 123.783 121.158 123.816 121.445 123.816C121.685 123.816 121.876 123.98 121.876 124.144ZM119.005 112.032C119.005 112.163 118.862 112.327 118.622 112.36C118.335 112.426 118.048 112.459 117.761 112.524C117.522 112.59 117.235 112.492 117.139 112.327C117.043 112.163 117.187 111.966 117.426 111.901C117.713 111.835 118.048 111.769 118.383 111.704C118.622 111.671 118.909 111.769 118.957 111.934C119.005 111.966 119.005 111.999 119.005 112.032ZM118.144 123.75C118.144 123.783 118.144 123.816 118.096 123.848C118 124.013 117.761 124.111 117.474 124.045C117.187 123.98 116.852 123.881 116.565 123.816C116.326 123.75 116.23 123.553 116.326 123.389C116.421 123.225 116.708 123.159 116.948 123.225C117.235 123.323 117.522 123.389 117.809 123.455C118.048 123.487 118.144 123.619 118.144 123.75ZM115.56 113.082C115.56 113.181 115.464 113.279 115.369 113.345C115.129 113.476 114.89 113.575 114.651 113.706C114.46 113.837 114.125 113.804 113.981 113.673C113.79 113.542 113.838 113.312 114.029 113.214C114.268 113.082 114.555 112.918 114.842 112.82C115.082 112.721 115.369 112.754 115.512 112.918C115.56 112.951 115.56 113.017 115.56 113.082ZM114.842 122.503C114.842 122.568 114.795 122.634 114.747 122.7C114.603 122.831 114.268 122.864 114.077 122.732C113.838 122.601 113.55 122.437 113.359 122.273C113.168 122.142 113.168 121.945 113.359 121.813C113.55 121.682 113.838 121.682 114.029 121.813C114.22 121.945 114.46 122.109 114.699 122.24C114.795 122.306 114.842 122.404 114.842 122.503ZM112.928 114.92C112.928 114.986 112.881 115.052 112.833 115.085C112.689 115.249 112.498 115.446 112.402 115.61C112.306 115.774 111.971 115.84 111.78 115.741C111.541 115.675 111.445 115.478 111.589 115.314C111.732 115.117 111.924 114.92 112.067 114.724C112.211 114.559 112.498 114.527 112.737 114.625C112.833 114.691 112.928 114.822 112.928 114.92ZM112.45 120.5C112.45 120.632 112.354 120.73 112.211 120.796C111.971 120.894 111.684 120.829 111.589 120.665C111.445 120.468 111.302 120.238 111.206 120.041C111.11 119.877 111.254 119.68 111.493 119.614C111.732 119.549 112.019 119.647 112.115 119.811C112.211 120.008 112.354 120.205 112.498 120.369C112.45 120.402 112.45 120.435 112.45 120.5ZM111.637 117.349L111.637 117.382C111.589 117.579 111.589 117.776 111.589 117.973C111.589 118.17 111.397 118.301 111.11 118.301C110.823 118.301 110.632 118.17 110.632 117.973C110.632 117.743 110.632 117.513 110.68 117.317C110.727 117.152 110.967 117.021 111.206 117.021C111.445 117.021 111.637 117.185 111.637 117.349Z" fill="#FFBFCD"/>
<path d="M121.876 126.015L121.876 127.984C122.211 127.984 122.498 127.951 122.833 127.951L122.833 125.982C122.498 125.982 122.211 126.015 121.876 126.015Z" fill="#F48BA2"/>
<path d="M119.484 125.949L119.484 127.918C119.819 127.951 120.106 127.951 120.441 127.984L120.441 126.015C120.106 125.982 119.819 125.982 119.484 125.949Z" fill="#F48BA2"/>
<path d="M124.269 125.851L124.269 127.82C124.603 127.787 124.891 127.722 125.226 127.656L125.226 125.687C124.891 125.752 124.603 125.785 124.269 125.851Z" fill="#F48BA2"/>
<path d="M126.661 125.391L126.661 127.36C126.996 127.262 127.283 127.196 127.618 127.098L127.618 125.128C127.283 125.194 126.996 125.293 126.661 125.391Z" fill="#F48BA2"/>
<path d="M117.091 125.588L117.091 127.557C117.426 127.623 117.713 127.689 118.048 127.722L118.048 125.752C117.713 125.719 117.426 125.654 117.091 125.588Z" fill="#F48BA2"/>
<path d="M114.699 124.932L114.699 126.901C115.034 126.999 115.321 127.098 115.656 127.196L115.656 125.227C115.321 125.161 115.034 125.063 114.699 124.932Z" fill="#F48BA2"/>
<path d="M111.828 123.619L111.828 125.588C112.115 125.785 112.45 125.949 112.785 126.113L112.785 124.144C112.45 123.98 112.115 123.783 111.828 123.619Z" fill="#F48BA2"/>
<path d="M109.436 121.584L109.436 123.553C109.723 123.881 110.058 124.209 110.393 124.505L110.393 122.535C110.058 122.24 109.723 121.945 109.436 121.584Z" fill="#F48BA2"/>
<path d="M129.532 124.374L129.532 126.343C129.867 126.179 130.202 126.015 130.489 125.851L130.489 123.881C130.202 124.045 129.867 124.209 129.532 124.374Z" fill="#F48BA2"/>
<path d="M131.924 124.932C132.259 124.669 132.594 124.406 132.881 124.111L132.881 122.142C132.594 122.437 132.259 122.7 131.924 122.962L131.924 124.932Z" fill="#F48BA2"/>
<path d="M123.876 117.482L123.876 118.772L125.226 118.772L125.226 119.781L123.876 119.781L123.876 120.603L122.691 120.603L122.691 119.781L122.066 119.781L122.066 120.603L120.88 120.603L120.88 119.781L116.721 119.781L116.721 117.55C116.721 116.906 116.967 116.392 117.457 116.007C117.944 115.622 118.592 115.43 119.402 115.43C120.228 115.43 120.876 115.613 121.347 115.979C121.814 116.345 122.054 116.854 122.066 117.506L122.066 118.772L122.691 118.772L122.691 117.482L123.876 117.482ZM120.88 118.772L120.88 117.566C120.88 117.202 120.757 116.925 120.512 116.732C120.267 116.54 119.901 116.444 119.414 116.444C118.978 116.444 118.621 116.539 118.345 116.728C118.068 116.915 117.924 117.174 117.913 117.506L117.913 118.772L120.88 118.772Z" fill="#F48BA2"/>
<path d="M134.795 115.851C134.795 120.283 128.814 123.893 121.398 123.893C113.981 123.893 108 120.283 108 115.851C108 111.42 113.981 107.81 121.398 107.81C128.814 107.81 134.795 111.42 134.795 115.851Z" fill="white"/>
<path d="M121.398 123.893C114.555 123.893 108.909 120.808 108.096 116.836C108.048 117.164 108 117.493 108 117.821C108 122.252 113.981 125.863 121.398 125.863C128.814 125.863 134.795 122.252 134.795 117.821C134.795 117.493 134.747 117.164 134.699 116.836C133.886 120.808 128.24 123.893 121.398 123.893Z" fill="#FFBFCD"/>
<path d="M132.164 115.819C132.164 116.081 132.164 116.311 132.116 116.541C132.068 116.705 131.829 116.836 131.589 116.836C131.35 116.803 131.159 116.639 131.159 116.475C131.207 116.278 131.207 116.081 131.207 115.851C131.207 115.655 131.398 115.523 131.685 115.523C131.972 115.523 132.164 115.655 132.164 115.819ZM131.637 113.915C131.637 114.046 131.541 114.177 131.35 114.21C131.111 114.276 130.824 114.177 130.728 114.013C130.632 113.816 130.489 113.619 130.345 113.455C130.202 113.291 130.297 113.094 130.537 113.029C130.776 112.93 131.063 112.996 131.159 113.16C131.302 113.357 131.446 113.587 131.541 113.784C131.637 113.849 131.637 113.882 131.637 113.915ZM131.302 118.346C131.302 118.412 131.302 118.444 131.254 118.51C131.111 118.707 130.919 118.904 130.776 119.101C130.632 119.265 130.345 119.298 130.106 119.199C129.867 119.101 129.819 118.904 129.962 118.74C130.106 118.576 130.297 118.379 130.393 118.215C130.537 118.051 130.824 117.985 131.015 118.083C131.207 118.116 131.302 118.248 131.302 118.346ZM129.58 111.749C129.58 111.847 129.532 111.913 129.436 111.978C129.245 112.11 128.958 112.11 128.766 111.978C128.575 111.847 128.336 111.683 128.096 111.552C127.905 111.453 127.857 111.223 128.049 111.092C128.24 110.961 128.527 110.928 128.718 111.059C128.958 111.191 129.245 111.355 129.436 111.519C129.532 111.584 129.58 111.683 129.58 111.749ZM128.91 120.348C128.91 120.447 128.862 120.545 128.718 120.611C128.479 120.742 128.192 120.906 127.905 121.005C127.666 121.103 127.379 121.07 127.235 120.906C127.092 120.742 127.139 120.545 127.379 120.447C127.618 120.315 127.857 120.217 128.096 120.086C128.288 119.954 128.623 119.987 128.766 120.118C128.862 120.217 128.91 120.283 128.91 120.348ZM126.47 110.304C126.47 110.337 126.47 110.403 126.422 110.436C126.326 110.6 126.039 110.665 125.8 110.6C125.513 110.501 125.225 110.436 124.938 110.37C124.699 110.304 124.556 110.14 124.651 109.943C124.747 109.779 124.986 109.681 125.273 109.746C125.608 109.812 125.895 109.91 126.182 109.976C126.374 110.075 126.47 110.173 126.47 110.304ZM125.608 121.628C125.608 121.76 125.465 121.891 125.273 121.924C124.986 121.989 124.651 122.055 124.316 122.121C124.077 122.154 123.79 122.055 123.742 121.891C123.694 121.727 123.838 121.53 124.077 121.497C124.364 121.431 124.651 121.399 124.938 121.333C125.178 121.267 125.465 121.366 125.56 121.53C125.608 121.53 125.608 121.563 125.608 121.628ZM122.785 109.681C122.785 109.713 122.785 109.713 122.785 109.681C122.785 109.878 122.546 110.009 122.259 110.009C121.972 110.009 121.685 109.976 121.398 109.976C121.111 109.976 120.919 109.845 120.919 109.648C120.919 109.451 121.111 109.32 121.398 109.32C121.733 109.32 122.02 109.32 122.355 109.352C122.594 109.385 122.785 109.517 122.785 109.681ZM121.876 122.022C121.876 122.219 121.685 122.35 121.398 122.35C121.063 122.35 120.728 122.35 120.441 122.318C120.201 122.318 119.962 122.154 120.01 121.957C120.01 121.76 120.249 121.628 120.536 121.661C120.823 121.661 121.158 121.694 121.445 121.694C121.685 121.694 121.876 121.858 121.876 122.022ZM119.005 109.91C119.005 110.042 118.862 110.206 118.622 110.239C118.335 110.304 118.048 110.337 117.761 110.403C117.522 110.468 117.235 110.37 117.139 110.206C117.043 110.042 117.187 109.845 117.426 109.779C117.713 109.713 118.048 109.648 118.383 109.582C118.622 109.549 118.909 109.648 118.957 109.812C119.005 109.845 119.005 109.878 119.005 109.91ZM118.144 121.628C118.144 121.661 118.144 121.694 118.096 121.727C118 121.891 117.761 121.989 117.474 121.924C117.187 121.858 116.852 121.76 116.565 121.694C116.326 121.628 116.23 121.431 116.326 121.267C116.421 121.103 116.708 121.038 116.948 121.103C117.235 121.202 117.522 121.267 117.809 121.333C118.048 121.366 118.144 121.497 118.144 121.628ZM115.56 110.961C115.56 111.059 115.464 111.158 115.369 111.223C115.129 111.355 114.89 111.453 114.651 111.584C114.46 111.716 114.125 111.683 113.981 111.552C113.79 111.42 113.838 111.191 114.029 111.092C114.268 110.961 114.555 110.797 114.842 110.698C115.082 110.6 115.369 110.633 115.512 110.797C115.56 110.829 115.56 110.895 115.56 110.961ZM114.842 120.381C114.842 120.447 114.795 120.512 114.747 120.578C114.603 120.709 114.268 120.742 114.077 120.611C113.838 120.48 113.55 120.315 113.359 120.151C113.168 120.02 113.168 119.823 113.359 119.692C113.55 119.56 113.838 119.56 114.029 119.692C114.22 119.823 114.46 119.987 114.699 120.118C114.795 120.184 114.842 120.283 114.842 120.381ZM112.928 112.799C112.928 112.865 112.881 112.93 112.833 112.963C112.689 113.127 112.498 113.324 112.402 113.488C112.306 113.652 111.971 113.718 111.78 113.619C111.541 113.554 111.445 113.357 111.589 113.193C111.732 112.996 111.924 112.799 112.067 112.602C112.211 112.438 112.498 112.405 112.737 112.503C112.833 112.569 112.928 112.7 112.928 112.799ZM112.45 118.379C112.45 118.51 112.354 118.609 112.211 118.674C111.971 118.773 111.684 118.707 111.589 118.543C111.445 118.346 111.302 118.116 111.206 117.919C111.11 117.755 111.254 117.558 111.493 117.493C111.732 117.427 112.019 117.525 112.115 117.69C112.211 117.887 112.354 118.083 112.498 118.248C112.45 118.28 112.45 118.313 112.45 118.379ZM111.637 115.228L111.637 115.261C111.589 115.458 111.589 115.655 111.589 115.851C111.589 116.048 111.397 116.18 111.11 116.18C110.823 116.18 110.632 116.048 110.632 115.851C110.632 115.622 110.632 115.392 110.68 115.195C110.727 115.031 110.967 114.9 111.206 114.9C111.445 114.9 111.637 115.064 111.637 115.228Z" fill="#FFBFCD"/>
<path d="M121.876 123.893L121.876 125.863C122.211 125.863 122.498 125.83 122.833 125.83L122.833 123.86C122.498 123.86 122.211 123.893 121.876 123.893Z" fill="#F48BA2"/>
<path d="M119.484 123.827L119.484 125.797C119.819 125.83 120.106 125.83 120.441 125.863L120.441 123.893C120.106 123.86 119.819 123.86 119.484 123.827Z" fill="#F48BA2"/>
<path d="M124.269 123.729L124.269 125.698C124.603 125.666 124.891 125.6 125.226 125.534L125.226 123.565C124.891 123.63 124.603 123.663 124.269 123.729Z" fill="#F48BA2"/>
<path d="M126.661 123.269L126.661 125.239C126.996 125.14 127.283 125.075 127.618 124.976L127.618 123.007C127.283 123.073 126.996 123.171 126.661 123.269Z" fill="#F48BA2"/>
<path d="M117.091 123.466L117.091 125.436C117.426 125.502 117.713 125.567 118.048 125.6L118.048 123.631C117.713 123.598 117.426 123.532 117.091 123.466Z" fill="#F48BA2"/>
<path d="M114.699 122.81L114.699 124.779C115.034 124.878 115.321 124.976 115.656 125.075L115.656 123.105C115.321 123.04 115.034 122.941 114.699 122.81Z" fill="#F48BA2"/>
<path d="M111.828 121.497L111.828 123.466C112.115 123.663 112.45 123.827 112.785 123.992L112.785 122.022C112.45 121.858 112.115 121.661 111.828 121.497Z" fill="#F48BA2"/>
<path d="M109.436 119.462L109.436 121.431C109.723 121.76 110.058 122.088 110.393 122.383L110.393 120.414C110.058 120.119 109.723 119.823 109.436 119.462Z" fill="#F48BA2"/>
<path d="M129.532 122.252L129.532 124.221C129.867 124.057 130.202 123.893 130.489 123.729L130.489 121.76C130.202 121.924 129.867 122.088 129.532 122.252Z" fill="#F48BA2"/>
<path d="M131.924 122.81C132.259 122.547 132.594 122.285 132.881 121.989L132.881 120.02C132.594 120.315 132.259 120.578 131.924 120.84L131.924 122.81Z" fill="#F48BA2"/>
<path d="M123.876 115.36L123.876 116.65L125.226 116.65L125.226 117.66L123.876 117.66L123.876 118.481L122.691 118.481L122.691 117.66L122.066 117.66L122.066 118.481L120.88 118.481L120.88 117.66L116.721 117.66L116.721 115.428C116.721 114.784 116.967 114.27 117.457 113.885C117.944 113.501 118.592 113.308 119.402 113.308C120.228 113.308 120.876 113.491 121.347 113.857C121.814 114.223 122.054 114.732 122.066 115.384L122.066 116.65L122.691 116.65L122.691 115.36L123.876 115.36ZM120.88 116.65L120.88 115.444C120.88 115.081 120.757 114.803 120.512 114.611C120.267 114.418 119.901 114.322 119.414 114.322C118.978 114.322 118.621 114.417 118.345 114.607C118.068 114.794 117.924 115.053 117.913 115.384L117.913 116.65L120.88 116.65Z" fill="#F48BA2"/>
<path d="M134.795 113.644C134.795 118.076 128.814 121.686 121.398 121.686C113.981 121.686 108 118.076 108 113.644C108 109.213 113.981 105.603 121.398 105.603C128.814 105.603 134.795 109.213 134.795 113.644Z" fill="white"/>
<path d="M121.398 121.686C114.555 121.686 108.909 118.601 108.096 114.629C108.048 114.957 108 115.286 108 115.614C108 120.045 113.981 123.656 121.398 123.656C128.814 123.656 134.795 120.045 134.795 115.614C134.795 115.286 134.747 114.957 134.699 114.629C133.886 118.601 128.24 121.686 121.398 121.686Z" fill="#FFBFCD"/>
<path d="M132.164 113.612C132.164 113.874 132.164 114.104 132.116 114.334C132.068 114.498 131.829 114.629 131.589 114.629C131.35 114.596 131.159 114.432 131.159 114.268C131.207 114.071 131.207 113.874 131.207 113.644C131.207 113.447 131.398 113.316 131.685 113.316C131.972 113.316 132.164 113.447 132.164 113.612ZM131.637 111.708C131.637 111.839 131.541 111.97 131.35 112.003C131.111 112.069 130.824 111.97 130.728 111.806C130.632 111.609 130.489 111.412 130.345 111.248C130.202 111.084 130.297 110.887 130.537 110.822C130.776 110.723 131.063 110.789 131.159 110.953C131.302 111.15 131.446 111.38 131.541 111.577C131.637 111.642 131.637 111.675 131.637 111.708ZM131.302 116.139C131.302 116.205 131.302 116.237 131.254 116.303C131.111 116.5 130.919 116.697 130.776 116.894C130.632 117.058 130.345 117.091 130.106 116.992C129.867 116.894 129.819 116.697 129.962 116.533C130.106 116.369 130.297 116.172 130.393 116.008C130.537 115.844 130.824 115.778 131.015 115.876C131.207 115.909 131.302 116.041 131.302 116.139ZM129.58 109.541C129.58 109.64 129.532 109.706 129.436 109.771C129.245 109.903 128.958 109.903 128.766 109.771C128.575 109.64 128.336 109.476 128.096 109.345C127.905 109.246 127.857 109.016 128.049 108.885C128.24 108.754 128.527 108.721 128.718 108.852C128.958 108.984 129.245 109.148 129.436 109.312C129.532 109.377 129.58 109.476 129.58 109.541ZM128.91 118.141C128.91 118.24 128.862 118.338 128.718 118.404C128.479 118.535 128.192 118.699 127.905 118.798C127.666 118.896 127.379 118.863 127.235 118.699C127.092 118.535 127.139 118.338 127.379 118.24C127.618 118.108 127.857 118.01 128.096 117.879C128.288 117.747 128.623 117.78 128.766 117.911C128.862 118.01 128.91 118.076 128.91 118.141ZM126.47 108.097C126.47 108.13 126.47 108.196 126.422 108.229C126.326 108.393 126.039 108.458 125.8 108.393C125.513 108.294 125.225 108.229 124.938 108.163C124.699 108.097 124.556 107.933 124.651 107.736C124.747 107.572 124.986 107.474 125.273 107.539C125.608 107.605 125.895 107.703 126.182 107.769C126.374 107.868 126.47 107.966 126.47 108.097ZM125.608 119.421C125.608 119.553 125.465 119.684 125.273 119.717C124.986 119.782 124.651 119.848 124.316 119.914C124.077 119.947 123.79 119.848 123.742 119.684C123.694 119.52 123.838 119.323 124.077 119.29C124.364 119.224 124.651 119.192 124.938 119.126C125.178 119.06 125.465 119.159 125.56 119.323C125.608 119.323 125.608 119.356 125.608 119.421ZM122.785 107.474C122.785 107.506 122.785 107.506 122.785 107.474C122.785 107.671 122.546 107.802 122.259 107.802C121.972 107.802 121.685 107.769 121.398 107.769C121.111 107.769 120.919 107.638 120.919 107.441C120.919 107.244 121.111 107.113 121.398 107.113C121.733 107.113 122.02 107.113 122.355 107.145C122.594 107.178 122.785 107.31 122.785 107.474ZM121.876 119.815C121.876 120.012 121.685 120.143 121.398 120.143C121.063 120.143 120.728 120.143 120.441 120.111C120.201 120.111 119.962 119.947 120.01 119.75C120.01 119.553 120.249 119.421 120.536 119.454C120.823 119.454 121.158 119.487 121.445 119.487C121.685 119.487 121.876 119.651 121.876 119.815ZM119.005 107.703C119.005 107.835 118.862 107.999 118.622 108.032C118.335 108.097 118.048 108.13 117.761 108.196C117.522 108.261 117.235 108.163 117.139 107.999C117.043 107.835 117.187 107.638 117.426 107.572C117.713 107.506 118.048 107.441 118.383 107.375C118.622 107.342 118.909 107.441 118.957 107.605C119.005 107.638 119.005 107.671 119.005 107.703ZM118.144 119.421C118.144 119.454 118.144 119.487 118.096 119.52C118 119.684 117.761 119.782 117.474 119.717C117.187 119.651 116.852 119.553 116.565 119.487C116.326 119.421 116.23 119.224 116.326 119.06C116.421 118.896 116.708 118.831 116.948 118.896C117.235 118.995 117.522 119.06 117.809 119.126C118.048 119.159 118.144 119.29 118.144 119.421ZM115.56 108.754C115.56 108.852 115.464 108.951 115.369 109.016C115.129 109.148 114.89 109.246 114.651 109.377C114.46 109.509 114.125 109.476 113.981 109.345C113.79 109.213 113.838 108.984 114.029 108.885C114.268 108.754 114.555 108.59 114.842 108.491C115.082 108.393 115.369 108.426 115.512 108.59C115.56 108.622 115.56 108.688 115.56 108.754ZM114.842 118.174C114.842 118.24 114.795 118.305 114.747 118.371C114.603 118.502 114.268 118.535 114.077 118.404C113.838 118.273 113.55 118.108 113.359 117.944C113.168 117.813 113.168 117.616 113.359 117.485C113.55 117.353 113.838 117.353 114.029 117.485C114.22 117.616 114.46 117.78 114.699 117.911C114.795 117.977 114.842 118.076 114.842 118.174ZM112.928 110.592C112.928 110.657 112.881 110.723 112.833 110.756C112.689 110.92 112.498 111.117 112.402 111.281C112.306 111.445 111.971 111.511 111.78 111.412C111.541 111.347 111.445 111.15 111.589 110.986C111.732 110.789 111.924 110.592 112.067 110.395C112.211 110.231 112.498 110.198 112.737 110.296C112.833 110.362 112.928 110.493 112.928 110.592ZM112.45 116.172C112.45 116.303 112.354 116.402 112.211 116.467C111.971 116.566 111.684 116.5 111.589 116.336C111.445 116.139 111.302 115.909 111.206 115.712C111.11 115.548 111.254 115.351 111.493 115.286C111.732 115.22 112.019 115.318 112.115 115.483C112.211 115.679 112.354 115.876 112.498 116.041C112.45 116.073 112.45 116.106 112.45 116.172ZM111.637 113.021L111.637 113.054C111.589 113.251 111.589 113.447 111.589 113.644C111.589 113.841 111.397 113.973 111.11 113.973C110.823 113.973 110.632 113.841 110.632 113.644C110.632 113.415 110.632 113.185 110.68 112.988C110.727 112.824 110.967 112.693 111.206 112.693C111.445 112.693 111.637 112.857 111.637 113.021Z" fill="#FFBFCD"/>
<path d="M121.876 121.686L121.876 123.656C122.211 123.656 122.498 123.623 122.833 123.623L122.833 121.653C122.498 121.653 122.211 121.686 121.876 121.686Z" fill="#F48BA2"/>
<path d="M119.484 121.62L119.484 123.59C119.819 123.623 120.106 123.623 120.441 123.656L120.441 121.686C120.106 121.653 119.819 121.653 119.484 121.62Z" fill="#F48BA2"/>
<path d="M124.269 121.522L124.269 123.491C124.603 123.459 124.891 123.393 125.226 123.327L125.226 121.358C124.891 121.423 124.603 121.456 124.269 121.522Z" fill="#F48BA2"/>
<path d="M126.661 121.062L126.661 123.032C126.996 122.933 127.283 122.868 127.618 122.769L127.618 120.8C127.283 120.866 126.996 120.964 126.661 121.062Z" fill="#F48BA2"/>
<path d="M117.091 121.259L117.091 123.229C117.426 123.294 117.713 123.36 118.048 123.393L118.048 121.424C117.713 121.391 117.426 121.325 117.091 121.259Z" fill="#F48BA2"/>
<path d="M114.699 120.603L114.699 122.572C115.034 122.671 115.321 122.769 115.656 122.868L115.656 120.898C115.321 120.833 115.034 120.734 114.699 120.603Z" fill="#F48BA2"/>
<path d="M111.828 119.29L111.828 121.259C112.115 121.456 112.45 121.621 112.785 121.785L112.785 119.815C112.45 119.651 112.115 119.454 111.828 119.29Z" fill="#F48BA2"/>
<path d="M109.436 117.255L109.436 119.224C109.723 119.553 110.058 119.881 110.393 120.176L110.393 118.207C110.058 117.911 109.723 117.616 109.436 117.255Z" fill="#F48BA2"/>
<path d="M129.532 120.045L129.532 122.014C129.867 121.85 130.202 121.686 130.489 121.522L130.489 119.553C130.202 119.717 129.867 119.881 129.532 120.045Z" fill="#F48BA2"/>
<path d="M131.924 120.603C132.259 120.34 132.594 120.078 132.881 119.782L132.881 117.813C132.594 118.108 132.259 118.371 131.924 118.634L131.924 120.603Z" fill="#F48BA2"/>
<path d="M123.876 113.153L123.876 114.443L125.226 114.443L125.226 115.453L123.876 115.453L123.876 116.274L122.691 116.274L122.691 115.453L122.066 115.453L122.066 116.274L120.88 116.274L120.88 115.453L116.721 115.453L116.721 113.221C116.721 112.577 116.967 112.063 117.457 111.678C117.944 111.294 118.592 111.101 119.402 111.101C120.228 111.101 120.876 111.284 121.347 111.65C121.814 112.016 122.054 112.525 122.066 113.177L122.066 114.443L122.691 114.443L122.691 113.153L123.876 113.153ZM120.88 114.443L120.88 113.237C120.88 112.874 120.757 112.596 120.512 112.404C120.267 112.211 119.901 112.115 119.414 112.115C118.978 112.115 118.621 112.21 118.345 112.4C118.068 112.587 117.924 112.846 117.913 113.177L117.913 114.443L120.88 114.443Z" fill="#F48BA2"/>
<path d="M134.795 111.523C134.795 115.954 128.814 119.565 121.398 119.565C113.981 119.565 108 115.954 108 111.523C108 107.092 113.981 103.481 121.398 103.481C128.814 103.481 134.795 107.092 134.795 111.523Z" fill="#FFDCE4"/>
<path d="M121.398 119.565C114.555 119.565 108.909 116.479 108.096 112.508C108.048 112.836 108 113.164 108 113.492C108 117.923 113.981 121.534 121.398 121.534C128.814 121.534 134.795 117.923 134.795 113.492C134.795 113.164 134.747 112.836 134.699 112.508C133.886 116.479 128.24 119.565 121.398 119.565Z" fill="#FFBFCD"/>
<path d="M132.164 111.49C132.164 111.753 132.164 111.982 132.116 112.212C132.068 112.376 131.829 112.508 131.589 112.508C131.35 112.475 131.159 112.311 131.159 112.147C131.207 111.95 131.207 111.753 131.207 111.523C131.207 111.326 131.398 111.195 131.685 111.195C131.972 111.195 132.164 111.326 132.164 111.49ZM131.637 109.586C131.637 109.718 131.541 109.849 131.35 109.882C131.111 109.947 130.824 109.849 130.728 109.685C130.632 109.488 130.489 109.291 130.345 109.127C130.202 108.963 130.297 108.766 130.537 108.7C130.776 108.602 131.063 108.667 131.159 108.831C131.302 109.028 131.446 109.258 131.541 109.455C131.637 109.521 131.637 109.553 131.637 109.586ZM131.302 114.017C131.302 114.083 131.302 114.116 131.254 114.182C131.111 114.379 130.919 114.575 130.776 114.772C130.632 114.937 130.345 114.969 130.106 114.871C129.867 114.772 129.819 114.575 129.962 114.411C130.106 114.247 130.297 114.05 130.393 113.886C130.537 113.722 130.824 113.656 131.015 113.755C131.207 113.788 131.302 113.919 131.302 114.017ZM129.58 107.42C129.58 107.518 129.532 107.584 129.436 107.65C129.245 107.781 128.958 107.781 128.766 107.65C128.575 107.518 128.336 107.354 128.096 107.223C127.905 107.125 127.857 106.895 128.049 106.763C128.24 106.632 128.527 106.599 128.718 106.731C128.958 106.862 129.245 107.026 129.436 107.19C129.532 107.256 129.58 107.354 129.58 107.42ZM128.91 116.02C128.91 116.118 128.862 116.217 128.718 116.282C128.479 116.414 128.192 116.578 127.905 116.676C127.666 116.775 127.379 116.742 127.235 116.578C127.092 116.414 127.139 116.217 127.379 116.118C127.618 115.987 127.857 115.888 128.096 115.757C128.288 115.626 128.623 115.659 128.766 115.79C128.862 115.888 128.91 115.954 128.91 116.02ZM126.47 105.976C126.47 106.009 126.47 106.074 126.422 106.107C126.326 106.271 126.039 106.337 125.8 106.271C125.513 106.173 125.225 106.107 124.938 106.041C124.699 105.976 124.556 105.812 124.651 105.615C124.747 105.451 124.986 105.352 125.273 105.418C125.608 105.483 125.895 105.582 126.182 105.648C126.374 105.746 126.47 105.844 126.47 105.976ZM125.608 117.3C125.608 117.431 125.465 117.562 125.273 117.595C124.986 117.661 124.651 117.727 124.316 117.792C124.077 117.825 123.79 117.727 123.742 117.562C123.694 117.398 123.838 117.201 124.077 117.169C124.364 117.103 124.651 117.07 124.938 117.004C125.178 116.939 125.465 117.037 125.56 117.201C125.608 117.201 125.608 117.234 125.608 117.3ZM122.785 105.352C122.785 105.385 122.785 105.385 122.785 105.352C122.785 105.549 122.546 105.68 122.259 105.68C121.972 105.68 121.685 105.648 121.398 105.648C121.111 105.648 120.919 105.516 120.919 105.319C120.919 105.122 121.111 104.991 121.398 104.991C121.733 104.991 122.02 104.991 122.355 105.024C122.594 105.057 122.785 105.188 122.785 105.352ZM121.876 117.694C121.876 117.891 121.685 118.022 121.398 118.022C121.063 118.022 120.728 118.022 120.441 117.989C120.201 117.989 119.962 117.825 120.01 117.628C120.01 117.431 120.249 117.3 120.536 117.333C120.823 117.333 121.158 117.365 121.445 117.365C121.685 117.365 121.876 117.53 121.876 117.694ZM119.005 105.582C119.005 105.713 118.862 105.877 118.622 105.91C118.335 105.976 118.048 106.009 117.761 106.074C117.522 106.14 117.235 106.041 117.139 105.877C117.043 105.713 117.187 105.516 117.426 105.451C117.713 105.385 118.048 105.319 118.383 105.254C118.622 105.221 118.909 105.319 118.957 105.483C119.005 105.516 119.005 105.549 119.005 105.582ZM118.144 117.3C118.144 117.333 118.144 117.365 118.096 117.398C118 117.562 117.761 117.661 117.474 117.595C117.187 117.53 116.852 117.431 116.565 117.365C116.326 117.3 116.23 117.103 116.326 116.939C116.421 116.775 116.708 116.709 116.948 116.775C117.235 116.873 117.522 116.939 117.809 117.004C118.048 117.037 118.144 117.169 118.144 117.3ZM115.56 106.632C115.56 106.731 115.464 106.829 115.369 106.895C115.129 107.026 114.89 107.125 114.651 107.256C114.46 107.387 114.125 107.354 113.981 107.223C113.79 107.092 113.838 106.862 114.029 106.763C114.268 106.632 114.555 106.468 114.842 106.37C115.082 106.271 115.369 106.304 115.512 106.468C115.56 106.501 115.56 106.567 115.56 106.632ZM114.842 116.053C114.842 116.118 114.795 116.184 114.747 116.249C114.603 116.381 114.268 116.414 114.077 116.282C113.838 116.151 113.55 115.987 113.359 115.823C113.168 115.691 113.168 115.495 113.359 115.363C113.55 115.232 113.838 115.232 114.029 115.363C114.22 115.495 114.46 115.659 114.699 115.79C114.795 115.856 114.842 115.954 114.842 116.053ZM112.928 108.47C112.928 108.536 112.881 108.602 112.833 108.634C112.689 108.799 112.498 108.995 112.402 109.16C112.306 109.324 111.971 109.389 111.78 109.291C111.541 109.225 111.445 109.028 111.589 108.864C111.732 108.667 111.924 108.47 112.067 108.273C112.211 108.109 112.498 108.076 112.737 108.175C112.833 108.241 112.928 108.372 112.928 108.47ZM112.45 114.05C112.45 114.182 112.354 114.28 112.211 114.346C111.971 114.444 111.684 114.379 111.589 114.214C111.445 114.017 111.302 113.788 111.206 113.591C111.11 113.427 111.254 113.23 111.493 113.164C111.732 113.098 112.019 113.197 112.115 113.361C112.211 113.558 112.354 113.755 112.498 113.919C112.45 113.952 112.45 113.985 112.45 114.05ZM111.637 110.899L111.637 110.932C111.589 111.129 111.589 111.326 111.589 111.523C111.589 111.72 111.397 111.851 111.11 111.851C110.823 111.851 110.632 111.72 110.632 111.523C110.632 111.293 110.632 111.063 110.68 110.866C110.727 110.702 110.967 110.571 111.206 110.571C111.445 110.571 111.637 110.735 111.637 110.899Z" fill="#FFBFCD"/>
<path d="M121.876 119.565L121.876 121.534C122.211 121.534 122.498 121.501 122.833 121.501L122.833 119.532C122.498 119.532 122.211 119.565 121.876 119.565Z" fill="#F48BA2"/>
<path d="M119.484 119.499L119.484 121.468C119.819 121.501 120.106 121.501 120.441 121.534L120.441 119.565C120.106 119.532 119.819 119.532 119.484 119.499Z" fill="#F48BA2"/>
<path d="M124.269 119.4L124.269 121.37C124.603 121.337 124.891 121.271 125.226 121.206L125.226 119.236C124.891 119.302 124.603 119.335 124.269 119.4Z" fill="#F48BA2"/>
<path d="M126.661 118.941L126.661 120.91C126.996 120.812 127.283 120.746 127.618 120.648L127.618 118.678C127.283 118.744 126.996 118.843 126.661 118.941Z" fill="#F48BA2"/>
<path d="M117.091 119.138L117.091 121.107C117.426 121.173 117.713 121.239 118.048 121.271L118.048 119.302C117.713 119.269 117.426 119.204 117.091 119.138Z" fill="#F48BA2"/>
<path d="M114.699 118.481L114.699 120.451C115.034 120.549 115.321 120.648 115.656 120.746L115.656 118.777C115.321 118.711 115.034 118.613 114.699 118.481Z" fill="#F48BA2"/>
<path d="M111.828 117.168L111.828 119.138C112.115 119.335 112.45 119.499 112.785 119.663L112.785 117.694C112.45 117.529 112.115 117.333 111.828 117.168Z" fill="#F48BA2"/>
<path d="M109.436 115.133L109.436 117.103C109.723 117.431 110.058 117.759 110.393 118.055L110.393 116.085C110.058 115.79 109.723 115.495 109.436 115.133Z" fill="#F48BA2"/>
<path d="M129.532 117.924L129.532 119.893C129.867 119.729 130.202 119.565 130.489 119.401L130.489 117.431C130.202 117.595 129.867 117.759 129.532 117.924Z" fill="#F48BA2"/>
<path d="M131.924 118.481C132.259 118.219 132.594 117.956 132.881 117.661L132.881 115.691C132.594 115.987 132.259 116.249 131.924 116.512L131.924 118.481Z" fill="#F48BA2"/>
<path d="M123.876 111.031L123.876 112.321L125.226 112.321L125.226 113.331L123.876 113.331L123.876 114.153L122.691 114.153L122.691 113.331L122.066 113.331L122.066 114.153L120.88 114.153L120.88 113.331L116.721 113.331L116.721 111.099C116.721 110.456 116.967 109.941 117.457 109.557C117.944 109.172 118.592 108.98 119.402 108.98C120.228 108.98 120.876 109.163 121.347 109.529C121.814 109.895 122.054 110.404 122.066 111.055L122.066 112.321L122.691 112.321L122.691 111.031L123.876 111.031ZM120.88 112.321L120.88 111.115C120.88 110.752 120.757 110.474 120.512 110.282C120.267 110.09 119.901 109.994 119.414 109.994C118.978 109.994 118.621 110.088 118.345 110.278C118.068 110.465 117.924 110.724 117.913 111.055L117.913 112.321L120.88 112.321Z" fill="#F48BA2"/>
<path d="M163.02 115.711C163.02 120.142 157.039 123.752 149.622 123.752C142.206 123.752 136.225 120.142 136.225 115.711C136.225 111.28 142.206 107.669 149.622 107.669C157.039 107.669 163.02 111.28 163.02 115.711Z" fill="white"/>
<path d="M149.622 123.753C142.78 123.753 137.134 120.667 136.321 116.695C136.273 117.024 136.225 117.352 136.225 117.68C136.225 122.111 142.206 125.722 149.622 125.722C157.039 125.722 163.02 122.111 163.02 117.68C163.02 117.352 162.972 117.024 162.924 116.695C162.111 120.667 156.465 123.753 149.622 123.753Z" fill="#FFBFCD"/>
<path d="M160.388 115.678C160.388 115.941 160.388 116.17 160.341 116.4C160.293 116.564 160.053 116.695 159.814 116.695C159.575 116.663 159.384 116.499 159.384 116.334C159.431 116.137 159.431 115.941 159.431 115.711C159.431 115.514 159.623 115.383 159.91 115.383C160.197 115.383 160.388 115.514 160.388 115.678ZM159.862 113.774C159.862 113.905 159.766 114.037 159.575 114.07C159.336 114.135 159.049 114.037 158.953 113.873C158.857 113.676 158.714 113.479 158.57 113.315C158.427 113.151 158.522 112.954 158.762 112.888C159.001 112.79 159.288 112.855 159.384 113.019C159.527 113.216 159.671 113.446 159.766 113.643C159.862 113.709 159.862 113.741 159.862 113.774ZM159.527 118.205C159.527 118.271 159.527 118.304 159.479 118.369C159.336 118.566 159.144 118.763 159.001 118.96C158.857 119.124 158.57 119.157 158.331 119.059C158.092 118.96 158.044 118.763 158.187 118.599C158.331 118.435 158.522 118.238 158.618 118.074C158.762 117.91 159.049 117.844 159.24 117.943C159.431 117.976 159.527 118.107 159.527 118.205ZM157.805 111.608C157.805 111.706 157.757 111.772 157.661 111.838C157.47 111.969 157.183 111.969 156.991 111.838C156.8 111.706 156.56 111.542 156.321 111.411C156.13 111.312 156.082 111.083 156.273 110.951C156.465 110.82 156.752 110.787 156.943 110.919C157.183 111.05 157.47 111.214 157.661 111.378C157.757 111.444 157.805 111.542 157.805 111.608ZM157.135 120.208C157.135 120.306 157.087 120.405 156.943 120.47C156.704 120.601 156.417 120.766 156.13 120.864C155.891 120.963 155.604 120.93 155.46 120.766C155.316 120.601 155.364 120.405 155.604 120.306C155.843 120.175 156.082 120.076 156.321 119.945C156.513 119.814 156.848 119.847 156.991 119.978C157.087 120.076 157.135 120.142 157.135 120.208ZM154.694 110.164C154.694 110.196 154.694 110.262 154.647 110.295C154.551 110.459 154.264 110.525 154.025 110.459C153.737 110.361 153.45 110.295 153.163 110.229C152.924 110.164 152.78 110 152.876 109.803C152.972 109.638 153.211 109.54 153.498 109.606C153.833 109.671 154.12 109.77 154.407 109.835C154.599 109.934 154.694 110.032 154.694 110.164ZM153.833 121.488C153.833 121.619 153.69 121.75 153.498 121.783C153.211 121.849 152.876 121.914 152.541 121.98C152.302 122.013 152.015 121.914 151.967 121.75C151.919 121.586 152.063 121.389 152.302 121.356C152.589 121.291 152.876 121.258 153.163 121.192C153.402 121.127 153.69 121.225 153.785 121.389C153.833 121.389 153.833 121.422 153.833 121.488ZM151.01 109.54C151.01 109.573 151.01 109.573 151.01 109.54C151.01 109.737 150.771 109.868 150.484 109.868C150.197 109.868 149.91 109.835 149.622 109.835C149.335 109.835 149.144 109.704 149.144 109.507C149.144 109.31 149.335 109.179 149.622 109.179C149.957 109.179 150.244 109.179 150.579 109.212C150.819 109.245 151.01 109.376 151.01 109.54ZM150.101 121.882C150.101 122.079 149.91 122.21 149.622 122.21C149.288 122.21 148.953 122.21 148.665 122.177C148.426 122.177 148.187 122.013 148.235 121.816C148.235 121.619 148.474 121.488 148.761 121.521C149.048 121.521 149.383 121.553 149.67 121.553C149.91 121.553 150.101 121.717 150.101 121.882ZM147.23 109.77C147.23 109.901 147.086 110.065 146.847 110.098C146.56 110.164 146.273 110.196 145.986 110.262C145.747 110.328 145.46 110.229 145.364 110.065C145.268 109.901 145.412 109.704 145.651 109.638C145.938 109.573 146.273 109.507 146.608 109.442C146.847 109.409 147.134 109.507 147.182 109.671C147.23 109.704 147.23 109.737 147.23 109.77ZM146.369 121.488C146.369 121.521 146.369 121.553 146.321 121.586C146.225 121.75 145.986 121.849 145.699 121.783C145.412 121.717 145.077 121.619 144.79 121.553C144.551 121.488 144.455 121.291 144.551 121.127C144.646 120.963 144.933 120.897 145.173 120.963C145.46 121.061 145.747 121.127 146.034 121.192C146.273 121.225 146.369 121.356 146.369 121.488ZM143.785 110.82C143.785 110.919 143.689 111.017 143.594 111.083C143.354 111.214 143.115 111.312 142.876 111.444C142.684 111.575 142.35 111.542 142.206 111.411C142.015 111.28 142.062 111.05 142.254 110.951C142.493 110.82 142.78 110.656 143.067 110.558C143.306 110.459 143.594 110.492 143.737 110.656C143.785 110.689 143.785 110.754 143.785 110.82ZM143.067 120.24C143.067 120.306 143.019 120.372 142.972 120.437C142.828 120.569 142.493 120.601 142.302 120.47C142.062 120.339 141.775 120.175 141.584 120.011C141.393 119.879 141.393 119.682 141.584 119.551C141.775 119.42 142.062 119.42 142.254 119.551C142.445 119.682 142.684 119.847 142.924 119.978C143.019 120.043 143.067 120.142 143.067 120.24ZM141.153 112.658C141.153 112.724 141.105 112.79 141.058 112.822C140.914 112.986 140.723 113.183 140.627 113.347C140.531 113.512 140.196 113.577 140.005 113.479C139.766 113.413 139.67 113.216 139.814 113.052C139.957 112.855 140.148 112.658 140.292 112.461C140.436 112.297 140.723 112.264 140.962 112.363C141.058 112.428 141.153 112.56 141.153 112.658ZM140.675 118.238C140.675 118.369 140.579 118.468 140.436 118.534C140.196 118.632 139.909 118.566 139.814 118.402C139.67 118.205 139.526 117.976 139.431 117.779C139.335 117.615 139.479 117.418 139.718 117.352C139.957 117.286 140.244 117.385 140.34 117.549C140.436 117.746 140.579 117.943 140.723 118.107C140.675 118.14 140.675 118.173 140.675 118.238ZM139.861 115.087L139.861 115.12C139.814 115.317 139.814 115.514 139.814 115.711C139.814 115.908 139.622 116.039 139.335 116.039C139.048 116.039 138.857 115.908 138.857 115.711C138.857 115.481 138.857 115.251 138.904 115.054C138.952 114.89 139.192 114.759 139.431 114.759C139.67 114.759 139.861 114.923 139.861 115.087Z" fill="#FFBFCD"/>
<path d="M150.101 123.752L150.101 125.722C150.436 125.722 150.723 125.689 151.058 125.689L151.058 123.72C150.723 123.72 150.436 123.752 150.101 123.752Z" fill="#F48BA2"/>
<path d="M147.708 123.687L147.708 125.656C148.043 125.689 148.331 125.689 148.665 125.722L148.665 123.752C148.331 123.72 148.043 123.72 147.708 123.687Z" fill="#F48BA2"/>
<path d="M152.493 123.588L152.493 125.558C152.828 125.525 153.115 125.459 153.45 125.394L153.45 123.424C153.115 123.49 152.828 123.523 152.493 123.588Z" fill="#F48BA2"/>
<path d="M154.886 123.129L154.886 125.098C155.221 125 155.508 124.934 155.843 124.836L155.843 122.866C155.508 122.932 155.221 123.03 154.886 123.129Z" fill="#F48BA2"/>
<path d="M145.316 123.326L145.316 125.295C145.651 125.361 145.938 125.426 146.273 125.459L146.273 123.49C145.938 123.457 145.651 123.391 145.316 123.326Z" fill="#F48BA2"/>
<path d="M142.924 122.669L142.924 124.639C143.259 124.737 143.546 124.836 143.881 124.934L143.881 122.965C143.546 122.899 143.259 122.801 142.924 122.669Z" fill="#F48BA2"/>
<path d="M140.053 121.356L140.053 123.326C140.34 123.523 140.675 123.687 141.01 123.851L141.01 121.881C140.675 121.717 140.34 121.52 140.053 121.356Z" fill="#F48BA2"/>
<path d="M137.66 119.321L137.66 121.291C137.947 121.619 138.282 121.947 138.617 122.243L138.617 120.273C138.282 119.978 137.947 119.682 137.66 119.321Z" fill="#F48BA2"/>
<path d="M157.757 122.111L157.757 124.081C158.092 123.917 158.427 123.752 158.714 123.588L158.714 121.619C158.427 121.783 158.092 121.947 157.757 122.111Z" fill="#F48BA2"/>
<path d="M160.149 122.669C160.484 122.407 160.819 122.144 161.106 121.849L161.106 119.879C160.819 120.175 160.484 120.437 160.149 120.7L160.149 122.669Z" fill="#F48BA2"/>
<path d="M152.101 115.219L152.101 116.509L153.45 116.509L153.45 117.519L152.101 117.519L152.101 118.34L150.915 118.34L150.915 117.519L150.29 117.519L150.29 118.34L149.105 118.34L149.105 117.519L144.946 117.519L144.946 115.287C144.946 114.644 145.191 114.129 145.682 113.745C146.169 113.36 146.817 113.168 147.627 113.168C148.453 113.168 149.101 113.351 149.572 113.717C150.039 114.083 150.279 114.591 150.29 115.243L150.29 116.509L150.915 116.509L150.915 115.219L152.101 115.219ZM149.105 116.509L149.105 115.303C149.105 114.94 148.982 114.662 148.737 114.47C148.491 114.278 148.125 114.181 147.639 114.181C147.203 114.181 146.846 114.276 146.57 114.466C146.293 114.653 146.149 114.912 146.138 115.243L146.138 116.509L149.105 116.509Z" fill="#F48BA2"/>
<path d="M163.02 113.589C163.02 118.02 157.039 121.631 149.622 121.631C142.206 121.631 136.225 118.02 136.225 113.589C136.225 109.158 142.206 105.547 149.622 105.547C157.039 105.547 163.02 109.158 163.02 113.589Z" fill="white"/>
<path d="M149.622 121.631C142.78 121.631 137.134 118.546 136.321 114.574C136.273 114.902 136.225 115.23 136.225 115.559C136.225 119.99 142.206 123.6 149.622 123.6C157.039 123.6 163.02 119.99 163.02 115.559C163.02 115.23 162.972 114.902 162.924 114.574C162.111 118.546 156.465 121.631 149.622 121.631Z" fill="#FFBFCD"/>
<path d="M160.388 113.556C160.388 113.819 160.388 114.049 160.341 114.279C160.293 114.443 160.053 114.574 159.814 114.574C159.575 114.541 159.384 114.377 159.384 114.213C159.431 114.016 159.431 113.819 159.431 113.589C159.431 113.392 159.623 113.261 159.91 113.261C160.197 113.261 160.388 113.392 160.388 113.556ZM159.862 111.653C159.862 111.784 159.766 111.915 159.575 111.948C159.336 112.014 159.049 111.915 158.953 111.751C158.857 111.554 158.714 111.357 158.57 111.193C158.427 111.029 158.522 110.832 158.762 110.766C159.001 110.668 159.288 110.734 159.384 110.898C159.527 111.095 159.671 111.324 159.766 111.521C159.862 111.587 159.862 111.62 159.862 111.653ZM159.527 116.084C159.527 116.149 159.527 116.182 159.479 116.248C159.336 116.445 159.144 116.642 159.001 116.839C158.857 117.003 158.57 117.036 158.331 116.937C158.092 116.839 158.044 116.642 158.187 116.478C158.331 116.314 158.522 116.117 158.618 115.953C158.762 115.788 159.049 115.723 159.24 115.821C159.431 115.854 159.527 115.985 159.527 116.084ZM157.805 109.486C157.805 109.585 157.757 109.65 157.661 109.716C157.47 109.847 157.183 109.847 156.991 109.716C156.8 109.585 156.56 109.421 156.321 109.289C156.13 109.191 156.082 108.961 156.273 108.83C156.465 108.699 156.752 108.666 156.943 108.797C157.183 108.928 157.47 109.092 157.661 109.257C157.757 109.322 157.805 109.421 157.805 109.486ZM157.135 118.086C157.135 118.185 157.087 118.283 156.943 118.349C156.704 118.48 156.417 118.644 156.13 118.743C155.891 118.841 155.604 118.808 155.46 118.644C155.316 118.48 155.364 118.283 155.604 118.185C155.843 118.053 156.082 117.955 156.321 117.823C156.513 117.692 156.848 117.725 156.991 117.856C157.087 117.955 157.135 118.02 157.135 118.086ZM154.694 108.042C154.694 108.075 154.694 108.141 154.647 108.173C154.551 108.338 154.264 108.403 154.025 108.338C153.737 108.239 153.45 108.173 153.163 108.108C152.924 108.042 152.78 107.878 152.876 107.681C152.972 107.517 153.211 107.418 153.498 107.484C153.833 107.55 154.12 107.648 154.407 107.714C154.599 107.812 154.694 107.911 154.694 108.042ZM153.833 119.366C153.833 119.497 153.69 119.629 153.498 119.662C153.211 119.727 152.876 119.793 152.541 119.859C152.302 119.891 152.015 119.793 151.967 119.629C151.919 119.465 152.063 119.268 152.302 119.235C152.589 119.169 152.876 119.136 153.163 119.071C153.402 119.005 153.69 119.104 153.785 119.268C153.833 119.268 153.833 119.301 153.833 119.366ZM151.01 107.418C151.01 107.451 151.01 107.451 151.01 107.418C151.01 107.615 150.771 107.747 150.484 107.747C150.197 107.747 149.91 107.714 149.622 107.714C149.335 107.714 149.144 107.583 149.144 107.386C149.144 107.189 149.335 107.057 149.622 107.057C149.957 107.057 150.244 107.057 150.579 107.09C150.819 107.123 151.01 107.254 151.01 107.418ZM150.101 119.76C150.101 119.957 149.91 120.088 149.622 120.088C149.288 120.088 148.953 120.088 148.665 120.055C148.426 120.055 148.187 119.891 148.235 119.694C148.235 119.497 148.474 119.366 148.761 119.399C149.048 119.399 149.383 119.432 149.67 119.432C149.91 119.432 150.101 119.596 150.101 119.76ZM147.23 107.648C147.23 107.78 147.086 107.944 146.847 107.976C146.56 108.042 146.273 108.075 145.986 108.141C145.747 108.206 145.46 108.108 145.364 107.944C145.268 107.78 145.412 107.583 145.651 107.517C145.938 107.451 146.273 107.386 146.608 107.32C146.847 107.287 147.134 107.386 147.182 107.55C147.23 107.583 147.23 107.615 147.23 107.648ZM146.369 119.366C146.369 119.399 146.369 119.432 146.321 119.465C146.225 119.629 145.986 119.727 145.699 119.662C145.412 119.596 145.077 119.497 144.79 119.432C144.551 119.366 144.455 119.169 144.551 119.005C144.646 118.841 144.933 118.775 145.173 118.841C145.46 118.939 145.747 119.005 146.034 119.071C146.273 119.104 146.369 119.235 146.369 119.366ZM143.785 108.699C143.785 108.797 143.689 108.896 143.594 108.961C143.354 109.092 143.115 109.191 142.876 109.322C142.684 109.454 142.35 109.421 142.206 109.289C142.015 109.158 142.062 108.928 142.254 108.83C142.493 108.699 142.78 108.534 143.067 108.436C143.306 108.338 143.594 108.37 143.737 108.534C143.785 108.567 143.785 108.633 143.785 108.699ZM143.067 118.119C143.067 118.185 143.019 118.25 142.972 118.316C142.828 118.447 142.493 118.48 142.302 118.349C142.062 118.217 141.775 118.053 141.584 117.889C141.393 117.758 141.393 117.561 141.584 117.43C141.775 117.298 142.062 117.298 142.254 117.43C142.445 117.561 142.684 117.725 142.924 117.856C143.019 117.922 143.067 118.02 143.067 118.119ZM141.153 110.537C141.153 110.602 141.105 110.668 141.058 110.701C140.914 110.865 140.723 111.062 140.627 111.226C140.531 111.39 140.196 111.456 140.005 111.357C139.766 111.292 139.67 111.095 139.814 110.931C139.957 110.734 140.148 110.537 140.292 110.34C140.436 110.176 140.723 110.143 140.962 110.241C141.058 110.307 141.153 110.438 141.153 110.537ZM140.675 116.117C140.675 116.248 140.579 116.346 140.436 116.412C140.196 116.511 139.909 116.445 139.814 116.281C139.67 116.084 139.526 115.854 139.431 115.657C139.335 115.493 139.479 115.296 139.718 115.23C139.957 115.165 140.244 115.263 140.34 115.427C140.436 115.624 140.579 115.821 140.723 115.985C140.675 116.018 140.675 116.051 140.675 116.117ZM139.861 112.966L139.861 112.998C139.814 113.195 139.814 113.392 139.814 113.589C139.814 113.786 139.622 113.918 139.335 113.918C139.048 113.918 138.857 113.786 138.857 113.589C138.857 113.36 138.857 113.13 138.904 112.933C138.952 112.769 139.192 112.637 139.431 112.637C139.67 112.637 139.861 112.802 139.861 112.966Z" fill="#FFBFCD"/>
<path d="M150.101 121.631L150.101 123.6C150.436 123.6 150.723 123.568 151.058 123.568L151.058 121.598C150.723 121.598 150.436 121.631 150.101 121.631Z" fill="#F48BA2"/>
<path d="M147.708 121.565L147.708 123.535C148.043 123.568 148.331 123.568 148.665 123.6L148.665 121.631C148.331 121.598 148.043 121.598 147.708 121.565Z" fill="#F48BA2"/>
<path d="M152.493 121.467L152.493 123.436C152.828 123.403 153.115 123.338 153.45 123.272L153.45 121.303C153.115 121.368 152.828 121.401 152.493 121.467Z" fill="#F48BA2"/>
<path d="M154.886 121.007L154.886 122.977C155.221 122.878 155.508 122.813 155.843 122.714L155.843 120.745C155.508 120.81 155.221 120.909 154.886 121.007Z" fill="#F48BA2"/>
<path d="M145.316 121.204L145.316 123.174C145.651 123.239 145.938 123.305 146.273 123.338L146.273 121.369C145.938 121.336 145.651 121.27 145.316 121.204Z" fill="#F48BA2"/>
<path d="M142.924 120.548L142.924 122.517C143.259 122.616 143.546 122.714 143.881 122.813L143.881 120.843C143.546 120.778 143.259 120.679 142.924 120.548Z" fill="#F48BA2"/>
<path d="M140.053 119.235L140.053 121.204C140.34 121.401 140.675 121.565 141.01 121.729L141.01 119.76C140.675 119.596 140.34 119.399 140.053 119.235Z" fill="#F48BA2"/>
<path d="M137.66 117.2L137.66 119.169C137.947 119.497 138.282 119.826 138.617 120.121L138.617 118.152C138.282 117.856 137.947 117.561 137.66 117.2Z" fill="#F48BA2"/>
<path d="M157.757 119.99L157.757 121.959C158.092 121.795 158.427 121.631 158.714 121.467L158.714 119.498C158.427 119.662 158.092 119.826 157.757 119.99Z" fill="#F48BA2"/>
<path d="M160.149 120.548C160.484 120.285 160.819 120.023 161.106 119.727L161.106 117.758C160.819 118.053 160.484 118.316 160.149 118.578L160.149 120.548Z" fill="#F48BA2"/>
<path d="M152.101 113.098L152.101 114.388L153.45 114.388L153.45 115.398L152.101 115.398L152.101 116.219L150.915 116.219L150.915 115.398L150.29 115.398L150.29 116.219L149.105 116.219L149.105 115.398L144.946 115.398L144.946 113.166C144.946 112.522 145.191 112.008 145.682 111.623C146.169 111.239 146.817 111.046 147.627 111.046C148.453 111.046 149.101 111.229 149.572 111.595C150.039 111.961 150.279 112.47 150.29 113.122L150.29 114.388L150.915 114.388L150.915 113.098L152.101 113.098ZM149.105 114.388L149.105 113.182C149.105 112.819 148.982 112.541 148.737 112.348C148.491 112.156 148.125 112.06 147.639 112.06C147.203 112.06 146.846 112.155 146.57 112.344C146.293 112.531 146.149 112.791 146.138 113.122L146.138 114.388L149.105 114.388Z" fill="#F48BA2"/>
<path d="M163.02 111.459C163.02 115.89 157.039 119.501 149.622 119.501C142.206 119.501 136.225 115.89 136.225 111.459C136.225 107.028 142.206 103.417 149.622 103.417C157.039 103.417 163.02 107.028 163.02 111.459Z" fill="white"/>
<path d="M149.622 119.501C142.78 119.501 137.134 116.416 136.321 112.444C136.273 112.772 136.225 113.1 136.225 113.429C136.225 117.86 142.206 121.47 149.622 121.47C157.039 121.47 163.02 117.86 163.02 113.429C163.02 113.1 162.972 112.772 162.924 112.444C162.111 116.416 156.465 119.501 149.622 119.501Z" fill="#FFBFCD"/>
<path d="M160.388 111.426C160.388 111.689 160.388 111.919 160.341 112.149C160.293 112.313 160.053 112.444 159.814 112.444C159.575 112.411 159.384 112.247 159.384 112.083C159.431 111.886 159.431 111.689 159.431 111.459C159.431 111.262 159.623 111.131 159.91 111.131C160.197 111.131 160.388 111.262 160.388 111.426ZM159.862 109.523C159.862 109.654 159.766 109.785 159.575 109.818C159.336 109.884 159.049 109.785 158.953 109.621C158.857 109.424 158.714 109.227 158.57 109.063C158.427 108.899 158.522 108.702 158.762 108.636C159.001 108.538 159.288 108.604 159.384 108.768C159.527 108.965 159.671 109.194 159.766 109.391C159.862 109.457 159.862 109.49 159.862 109.523ZM159.527 113.954C159.527 114.019 159.527 114.052 159.479 114.118C159.336 114.315 159.144 114.512 159.001 114.709C158.857 114.873 158.57 114.906 158.331 114.807C158.092 114.709 158.044 114.512 158.187 114.348C158.331 114.184 158.522 113.987 158.618 113.823C158.762 113.658 159.049 113.593 159.24 113.691C159.431 113.724 159.527 113.855 159.527 113.954ZM157.805 107.356C157.805 107.455 157.757 107.52 157.661 107.586C157.47 107.717 157.183 107.717 156.991 107.586C156.8 107.455 156.56 107.291 156.321 107.159C156.13 107.061 156.082 106.831 156.273 106.7C156.465 106.569 156.752 106.536 156.943 106.667C157.183 106.798 157.47 106.962 157.661 107.127C157.757 107.192 157.805 107.291 157.805 107.356ZM157.135 115.956C157.135 116.055 157.087 116.153 156.943 116.219C156.704 116.35 156.417 116.514 156.13 116.613C155.891 116.711 155.604 116.678 155.46 116.514C155.316 116.35 155.364 116.153 155.604 116.055C155.843 115.923 156.082 115.825 156.321 115.693C156.513 115.562 156.848 115.595 156.991 115.726C157.087 115.825 157.135 115.89 157.135 115.956ZM154.694 105.912C154.694 105.945 154.694 106.011 154.647 106.043C154.551 106.208 154.264 106.273 154.025 106.208C153.737 106.109 153.45 106.043 153.163 105.978C152.924 105.912 152.78 105.748 152.876 105.551C152.972 105.387 153.211 105.288 153.498 105.354C153.833 105.42 154.12 105.518 154.407 105.584C154.599 105.682 154.694 105.781 154.694 105.912ZM153.833 117.236C153.833 117.367 153.69 117.499 153.498 117.532C153.211 117.597 152.876 117.663 152.541 117.729C152.302 117.761 152.015 117.663 151.967 117.499C151.919 117.335 152.063 117.138 152.302 117.105C152.589 117.039 152.876 117.006 153.163 116.941C153.402 116.875 153.69 116.974 153.785 117.138C153.833 117.138 153.833 117.171 153.833 117.236ZM151.01 105.288C151.01 105.321 151.01 105.321 151.01 105.288C151.01 105.485 150.771 105.617 150.484 105.617C150.197 105.617 149.91 105.584 149.622 105.584C149.335 105.584 149.144 105.453 149.144 105.256C149.144 105.059 149.335 104.927 149.622 104.927C149.957 104.927 150.244 104.927 150.579 104.96C150.819 104.993 151.01 105.124 151.01 105.288ZM150.101 117.63C150.101 117.827 149.91 117.958 149.622 117.958C149.288 117.958 148.953 117.958 148.665 117.925C148.426 117.925 148.187 117.761 148.235 117.564C148.235 117.367 148.474 117.236 148.761 117.269C149.048 117.269 149.383 117.302 149.67 117.302C149.91 117.302 150.101 117.466 150.101 117.63ZM147.23 105.518C147.23 105.65 147.086 105.814 146.847 105.846C146.56 105.912 146.273 105.945 145.986 106.011C145.747 106.076 145.46 105.978 145.364 105.814C145.268 105.65 145.412 105.453 145.651 105.387C145.938 105.321 146.273 105.256 146.608 105.19C146.847 105.157 147.134 105.256 147.182 105.42C147.23 105.453 147.23 105.485 147.23 105.518ZM146.369 117.236C146.369 117.269 146.369 117.302 146.321 117.335C146.225 117.499 145.986 117.597 145.699 117.532C145.412 117.466 145.077 117.367 144.79 117.302C144.551 117.236 144.455 117.039 144.551 116.875C144.646 116.711 144.933 116.645 145.173 116.711C145.46 116.809 145.747 116.875 146.034 116.941C146.273 116.974 146.369 117.105 146.369 117.236ZM143.785 106.569C143.785 106.667 143.689 106.766 143.594 106.831C143.354 106.962 143.115 107.061 142.876 107.192C142.684 107.324 142.35 107.291 142.206 107.159C142.015 107.028 142.062 106.798 142.254 106.7C142.493 106.569 142.78 106.404 143.067 106.306C143.306 106.208 143.594 106.24 143.737 106.404C143.785 106.437 143.785 106.503 143.785 106.569ZM143.067 115.989C143.067 116.055 143.019 116.12 142.972 116.186C142.828 116.317 142.493 116.35 142.302 116.219C142.062 116.087 141.775 115.923 141.584 115.759C141.393 115.628 141.393 115.431 141.584 115.3C141.775 115.168 142.062 115.168 142.254 115.3C142.445 115.431 142.684 115.595 142.924 115.726C143.019 115.792 143.067 115.89 143.067 115.989ZM141.153 108.407C141.153 108.472 141.105 108.538 141.058 108.571C140.914 108.735 140.723 108.932 140.627 109.096C140.531 109.26 140.196 109.326 140.005 109.227C139.766 109.162 139.67 108.965 139.814 108.801C139.957 108.604 140.148 108.407 140.292 108.21C140.436 108.046 140.723 108.013 140.962 108.111C141.058 108.177 141.153 108.308 141.153 108.407ZM140.675 113.987C140.675 114.118 140.579 114.216 140.436 114.282C140.196 114.381 139.909 114.315 139.814 114.151C139.67 113.954 139.526 113.724 139.431 113.527C139.335 113.363 139.479 113.166 139.718 113.1C139.957 113.035 140.244 113.133 140.34 113.297C140.436 113.494 140.579 113.691 140.723 113.855C140.675 113.888 140.675 113.921 140.675 113.987ZM139.861 110.836L139.861 110.868C139.814 111.065 139.814 111.262 139.814 111.459C139.814 111.656 139.622 111.787 139.335 111.787C139.048 111.787 138.857 111.656 138.857 111.459C138.857 111.229 138.857 111 138.904 110.803C138.952 110.639 139.192 110.507 139.431 110.507C139.67 110.507 139.861 110.671 139.861 110.836Z" fill="#FFBFCD"/>
<path d="M150.101 119.501L150.101 121.47C150.436 121.47 150.723 121.438 151.058 121.438L151.058 119.468C150.723 119.468 150.436 119.501 150.101 119.501Z" fill="#F48BA2"/>
<path d="M147.708 119.435L147.708 121.405C148.043 121.438 148.331 121.438 148.665 121.47L148.665 119.501C148.331 119.468 148.043 119.468 147.708 119.435Z" fill="#F48BA2"/>
<path d="M152.493 119.337L152.493 121.306C152.828 121.274 153.115 121.208 153.45 121.142L153.45 119.173C153.115 119.239 152.828 119.271 152.493 119.337Z" fill="#F48BA2"/>
<path d="M154.886 118.877L154.886 120.847C155.221 120.748 155.508 120.683 155.843 120.584L155.843 118.615C155.508 118.68 155.221 118.779 154.886 118.877Z" fill="#F48BA2"/>
<path d="M145.316 119.074L145.316 121.044C145.651 121.109 145.938 121.175 146.273 121.208L146.273 119.238C145.938 119.206 145.651 119.14 145.316 119.074Z" fill="#F48BA2"/>
<path d="M142.924 118.418L142.924 120.387C143.259 120.486 143.546 120.584 143.881 120.683L143.881 118.713C143.546 118.648 143.259 118.549 142.924 118.418Z" fill="#F48BA2"/>
<path d="M140.053 117.105L140.053 119.074C140.34 119.271 140.675 119.435 141.01 119.599L141.01 117.63C140.675 117.466 140.34 117.269 140.053 117.105Z" fill="#F48BA2"/>
<path d="M137.66 115.07L137.66 117.039C137.947 117.367 138.282 117.696 138.617 117.991L138.617 116.022C138.282 115.726 137.947 115.431 137.66 115.07Z" fill="#F48BA2"/>
<path d="M157.757 117.86L157.757 119.829C158.092 119.665 158.427 119.501 158.714 119.337L158.714 117.367C158.427 117.532 158.092 117.696 157.757 117.86Z" fill="#F48BA2"/>
<path d="M160.149 118.418C160.484 118.155 160.819 117.893 161.106 117.597L161.106 115.628C160.819 115.923 160.484 116.186 160.149 116.448L160.149 118.418Z" fill="#F48BA2"/>
<path d="M152.101 110.968L152.101 112.258L153.45 112.258L153.45 113.268L152.101 113.268L152.101 114.089L150.915 114.089L150.915 113.268L150.29 113.268L150.29 114.089L149.105 114.089L149.105 113.268L144.946 113.268L144.946 111.036C144.946 110.392 145.191 109.878 145.682 109.493C146.169 109.109 146.817 108.916 147.627 108.916C148.453 108.916 149.101 109.099 149.572 109.465C150.039 109.831 150.279 110.34 150.29 110.992L150.29 112.258L150.915 112.258L150.915 110.968L152.101 110.968ZM149.105 112.258L149.105 111.052C149.105 110.689 148.982 110.411 148.737 110.218C148.491 110.026 148.125 109.93 147.639 109.93C147.203 109.93 146.846 110.025 146.57 110.214C146.293 110.401 146.149 110.661 146.138 110.992L146.138 112.258L149.105 112.258Z" fill="#F48BA2"/>
<path d="M163.02 109.338C163.02 113.769 157.039 117.379 149.622 117.379C142.206 117.379 136.225 113.769 136.225 109.338C136.225 104.906 142.206 101.296 149.622 101.296C157.039 101.296 163.02 104.906 163.02 109.338Z" fill="#FFDCE4"/>
<path d="M149.622 117.379C142.78 117.379 137.134 114.294 136.321 110.322C136.273 110.651 136.225 110.979 136.225 111.307C136.225 115.738 142.206 119.349 149.622 119.349C157.039 119.349 163.02 115.738 163.02 111.307C163.02 110.979 162.972 110.651 162.924 110.322C162.111 114.294 156.465 117.379 149.622 117.379Z" fill="#FFBFCD"/>
<path d="M160.388 109.305C160.388 109.567 160.388 109.797 160.341 110.027C160.293 110.191 160.053 110.322 159.814 110.322C159.575 110.29 159.384 110.125 159.384 109.961C159.431 109.764 159.431 109.567 159.431 109.338C159.431 109.141 159.623 109.009 159.91 109.009C160.197 109.009 160.388 109.141 160.388 109.305ZM159.862 107.401C159.862 107.532 159.766 107.664 159.575 107.697C159.336 107.762 159.049 107.664 158.953 107.5C158.857 107.303 158.714 107.106 158.57 106.942C158.427 106.777 158.522 106.581 158.762 106.515C159.001 106.416 159.288 106.482 159.384 106.646C159.527 106.843 159.671 107.073 159.766 107.27C159.862 107.335 159.862 107.368 159.862 107.401ZM159.527 111.832C159.527 111.898 159.527 111.931 159.479 111.996C159.336 112.193 159.144 112.39 159.001 112.587C158.857 112.751 158.57 112.784 158.331 112.686C158.092 112.587 158.044 112.39 158.187 112.226C158.331 112.062 158.522 111.865 158.618 111.701C158.762 111.537 159.049 111.471 159.24 111.57C159.431 111.602 159.527 111.734 159.527 111.832ZM157.805 105.235C157.805 105.333 157.757 105.399 157.661 105.465C157.47 105.596 157.183 105.596 156.991 105.465C156.8 105.333 156.56 105.169 156.321 105.038C156.13 104.939 156.082 104.71 156.273 104.578C156.465 104.447 156.752 104.414 156.943 104.545C157.183 104.677 157.47 104.841 157.661 105.005C157.757 105.071 157.805 105.169 157.805 105.235ZM157.135 113.834C157.135 113.933 157.087 114.031 156.943 114.097C156.704 114.228 156.417 114.392 156.13 114.491C155.891 114.589 155.604 114.557 155.46 114.392C155.316 114.228 155.364 114.031 155.604 113.933C155.843 113.802 156.082 113.703 156.321 113.572C156.513 113.441 156.848 113.473 156.991 113.605C157.087 113.703 157.135 113.769 157.135 113.834ZM154.694 103.791C154.694 103.823 154.694 103.889 154.647 103.922C154.551 104.086 154.264 104.152 154.025 104.086C153.737 103.987 153.45 103.922 153.163 103.856C152.924 103.791 152.78 103.626 152.876 103.429C152.972 103.265 153.211 103.167 153.498 103.233C153.833 103.298 154.12 103.397 154.407 103.462C154.599 103.561 154.694 103.659 154.694 103.791ZM153.833 115.115C153.833 115.246 153.69 115.377 153.498 115.41C153.211 115.476 152.876 115.541 152.541 115.607C152.302 115.64 152.015 115.541 151.967 115.377C151.919 115.213 152.063 115.016 152.302 114.983C152.589 114.918 152.876 114.885 153.163 114.819C153.402 114.754 153.69 114.852 153.785 115.016C153.833 115.016 153.833 115.049 153.833 115.115ZM151.01 103.167C151.01 103.2 151.01 103.2 151.01 103.167C151.01 103.364 150.771 103.495 150.484 103.495C150.197 103.495 149.91 103.462 149.622 103.462C149.335 103.462 149.144 103.331 149.144 103.134C149.144 102.937 149.335 102.806 149.622 102.806C149.957 102.806 150.244 102.806 150.579 102.839C150.819 102.871 151.01 103.003 151.01 103.167ZM150.101 115.508C150.101 115.705 149.91 115.837 149.622 115.837C149.288 115.837 148.953 115.837 148.665 115.804C148.426 115.804 148.187 115.64 148.235 115.443C148.235 115.246 148.474 115.115 148.761 115.147C149.048 115.147 149.383 115.18 149.67 115.18C149.91 115.18 150.101 115.344 150.101 115.508ZM147.23 103.397C147.23 103.528 147.086 103.692 146.847 103.725C146.56 103.791 146.273 103.823 145.986 103.889C145.747 103.955 145.46 103.856 145.364 103.692C145.268 103.528 145.412 103.331 145.651 103.265C145.938 103.2 146.273 103.134 146.608 103.068C146.847 103.036 147.134 103.134 147.182 103.298C147.23 103.331 147.23 103.364 147.23 103.397ZM146.369 115.115C146.369 115.147 146.369 115.18 146.321 115.213C146.225 115.377 145.986 115.476 145.699 115.41C145.412 115.344 145.077 115.246 144.79 115.18C144.551 115.115 144.455 114.918 144.551 114.754C144.646 114.589 144.933 114.524 145.173 114.589C145.46 114.688 145.747 114.754 146.034 114.819C146.273 114.852 146.369 114.983 146.369 115.115ZM143.785 104.447C143.785 104.545 143.689 104.644 143.594 104.71C143.354 104.841 143.115 104.939 142.876 105.071C142.684 105.202 142.35 105.169 142.206 105.038C142.015 104.907 142.062 104.677 142.254 104.578C142.493 104.447 142.78 104.283 143.067 104.184C143.306 104.086 143.594 104.119 143.737 104.283C143.785 104.316 143.785 104.381 143.785 104.447ZM143.067 113.867C143.067 113.933 143.019 113.999 142.972 114.064C142.828 114.196 142.493 114.228 142.302 114.097C142.062 113.966 141.775 113.802 141.584 113.638C141.393 113.506 141.393 113.309 141.584 113.178C141.775 113.047 142.062 113.047 142.254 113.178C142.445 113.309 142.684 113.473 142.924 113.605C143.019 113.67 143.067 113.769 143.067 113.867ZM141.153 106.285C141.153 106.351 141.105 106.416 141.058 106.449C140.914 106.613 140.723 106.81 140.627 106.974C140.531 107.139 140.196 107.204 140.005 107.106C139.766 107.04 139.67 106.843 139.814 106.679C139.957 106.482 140.148 106.285 140.292 106.088C140.436 105.924 140.723 105.891 140.962 105.99C141.058 106.055 141.153 106.187 141.153 106.285ZM140.675 111.865C140.675 111.996 140.579 112.095 140.436 112.16C140.196 112.259 139.909 112.193 139.814 112.029C139.67 111.832 139.526 111.602 139.431 111.406C139.335 111.241 139.479 111.044 139.718 110.979C139.957 110.913 140.244 111.012 140.34 111.176C140.436 111.373 140.579 111.57 140.723 111.734C140.675 111.767 140.675 111.799 140.675 111.865ZM139.861 108.714L139.861 108.747C139.814 108.944 139.814 109.141 139.814 109.338C139.814 109.535 139.622 109.666 139.335 109.666C139.048 109.666 138.857 109.535 138.857 109.338C138.857 109.108 138.857 108.878 138.904 108.681C138.952 108.517 139.192 108.386 139.431 108.386C139.67 108.386 139.861 108.55 139.861 108.714Z" fill="#FFBFCD"/>
<path d="M150.101 117.379L150.101 119.349C150.436 119.349 150.723 119.316 151.058 119.316L151.058 117.347C150.723 117.347 150.436 117.379 150.101 117.379Z" fill="#F48BA2"/>
<path d="M147.708 117.314L147.708 119.283C148.043 119.316 148.331 119.316 148.665 119.349L148.665 117.379C148.331 117.347 148.043 117.347 147.708 117.314Z" fill="#F48BA2"/>
<path d="M152.493 117.215L152.493 119.185C152.828 119.152 153.115 119.086 153.45 119.02L153.45 117.051C153.115 117.117 152.828 117.15 152.493 117.215Z" fill="#F48BA2"/>
<path d="M154.886 116.756L154.886 118.725C155.221 118.627 155.508 118.561 155.843 118.463L155.843 116.493C155.508 116.559 155.221 116.657 154.886 116.756Z" fill="#F48BA2"/>
<path d="M145.316 116.953L145.316 118.922C145.651 118.988 145.938 119.053 146.273 119.086L146.273 117.117C145.938 117.084 145.651 117.018 145.316 116.953Z" fill="#F48BA2"/>
<path d="M142.924 116.296L142.924 118.266C143.259 118.364 143.546 118.463 143.881 118.561L143.881 116.592C143.546 116.526 143.259 116.428 142.924 116.296Z" fill="#F48BA2"/>
<path d="M140.053 114.983L140.053 116.953C140.34 117.15 140.675 117.314 141.01 117.478L141.01 115.508C140.675 115.344 140.34 115.147 140.053 114.983Z" fill="#F48BA2"/>
<path d="M137.66 112.948L137.66 114.918C137.947 115.246 138.282 115.574 138.617 115.87L138.617 113.9C138.282 113.605 137.947 113.309 137.66 112.948Z" fill="#F48BA2"/>
<path d="M157.757 115.738L157.757 117.708C158.092 117.544 158.427 117.379 158.714 117.215L158.714 115.246C158.427 115.41 158.092 115.574 157.757 115.738Z" fill="#F48BA2"/>
<path d="M160.149 116.296C160.484 116.033 160.819 115.771 161.106 115.475L161.106 113.506C160.819 113.801 160.484 114.064 160.149 114.327L160.149 116.296Z" fill="#F48BA2"/>
<path d="M152.101 108.846L152.101 110.136L153.45 110.136L153.45 111.146L152.101 111.146L152.101 111.967L150.915 111.967L150.915 111.146L150.29 111.146L150.29 111.967L149.105 111.967L149.105 111.146L144.946 111.146L144.946 108.914C144.946 108.271 145.191 107.756 145.682 107.372C146.169 106.987 146.817 106.795 147.627 106.795C148.453 106.795 149.101 106.978 149.572 107.344C150.039 107.71 150.279 108.218 150.29 108.87L150.29 110.136L150.915 110.136L150.915 108.846L152.101 108.846ZM149.105 110.136L149.105 108.93C149.105 108.567 148.982 108.289 148.737 108.097C148.491 107.905 148.125 107.808 147.639 107.808C147.203 107.808 146.846 107.903 146.57 108.093C146.293 108.28 146.149 108.539 146.138 108.87L146.138 110.136L149.105 110.136Z" fill="#F48BA2"/>
<path d="M58.1162 158.481C58.1162 159.813 57.7832 160.895 57.1172 161.726C56.4512 162.556 55.5918 162.972 54.5391 162.972C54.0091 162.972 53.515 162.871 53.0566 162.671C52.6055 162.463 52.0827 162.076 51.4883 161.511C50.8939 160.938 50.346 160.651 49.8447 160.651C49.4294 160.651 49.0928 160.83 48.835 161.188C48.5771 161.547 48.4482 162.005 48.4482 162.563L46.1387 162.542C46.1387 161.21 46.4609 160.139 47.1055 159.33C47.7572 158.521 48.6201 158.116 49.6943 158.116C50.2529 158.116 50.7614 158.224 51.2197 158.438C51.6781 158.653 52.1973 159.04 52.7773 159.599C53.3646 160.15 53.8981 160.426 54.3779 160.426C54.8005 160.426 55.1442 160.236 55.4092 159.856C55.6813 159.477 55.8174 159.015 55.8174 158.471L58.1162 158.481ZM73.3486 167H70.2441V155.033L66.5381 156.183V153.658L73.0156 151.338H73.3486V167ZM78.9023 159.309L79.8047 151.359H88.5703V153.948H82.3506L81.9639 157.311C82.7015 156.917 83.4857 156.72 84.3164 156.72C85.806 156.72 86.9733 157.182 87.8184 158.105C88.6634 159.029 89.0859 160.322 89.0859 161.983C89.0859 162.993 88.8711 163.899 88.4414 164.701C88.0189 165.496 87.4102 166.116 86.6152 166.56C85.8203 166.996 84.8822 167.215 83.8008 167.215C82.8555 167.215 81.9782 167.025 81.1689 166.646C80.3597 166.259 79.7188 165.718 79.2461 165.023C78.7806 164.329 78.5335 163.537 78.5049 162.649H81.5771C81.6416 163.301 81.8672 163.81 82.2539 164.175C82.6478 164.533 83.1598 164.712 83.79 164.712C84.4919 164.712 85.0326 164.461 85.4121 163.96C85.7917 163.451 85.9814 162.735 85.9814 161.812C85.9814 160.924 85.763 160.243 85.3262 159.771C84.8893 159.298 84.2699 159.062 83.4678 159.062C82.7301 159.062 82.1322 159.255 81.6738 159.642L81.373 159.921L78.9023 159.309ZM107.272 167H96.5518V164.873L101.611 159.48C102.306 158.721 102.818 158.059 103.147 157.493C103.484 156.927 103.652 156.39 103.652 155.882C103.652 155.187 103.477 154.643 103.126 154.249C102.775 153.848 102.274 153.647 101.622 153.647C100.92 153.647 100.365 153.891 99.957 154.378C99.556 154.858 99.3555 155.492 99.3555 156.279H96.2402C96.2402 155.327 96.4658 154.457 96.917 153.669C97.3753 152.881 98.0199 152.265 98.8506 151.821C99.6813 151.37 100.623 151.145 101.676 151.145C103.287 151.145 104.537 151.531 105.425 152.305C106.32 153.078 106.768 154.17 106.768 155.581C106.768 156.354 106.567 157.142 106.166 157.944C105.765 158.746 105.077 159.681 104.104 160.748L100.548 164.497H107.272V167ZM118.369 161.113H120.142V163.616H118.369V167H115.265V163.616H108.852L108.712 161.661L115.232 151.359H118.369V161.113ZM111.806 161.113H115.265V155.592L115.061 155.946L111.806 161.113ZM132.345 160.533C132.345 162.696 131.897 164.35 131.002 165.496C130.107 166.642 128.796 167.215 127.07 167.215C125.366 167.215 124.062 166.653 123.16 165.528C122.258 164.404 121.796 162.793 121.774 160.694V157.815C121.774 155.631 122.226 153.973 123.128 152.842C124.037 151.71 125.344 151.145 127.049 151.145C128.753 151.145 130.057 151.707 130.959 152.831C131.861 153.948 132.323 155.556 132.345 157.654V160.533ZM129.24 157.375C129.24 156.079 129.061 155.137 128.703 154.55C128.352 153.955 127.801 153.658 127.049 153.658C126.318 153.658 125.778 153.941 125.427 154.507C125.083 155.065 124.9 155.943 124.879 157.139V160.941C124.879 162.216 125.051 163.165 125.395 163.788C125.745 164.404 126.304 164.712 127.07 164.712C127.829 164.712 128.377 164.415 128.714 163.82C129.05 163.226 129.226 162.316 129.24 161.092V157.375ZM148.232 164.916H144.816V167H141.594V164.916H139.413V162.306H141.594V161.489H139.413V158.879H141.594V151.359H147.674C148.848 151.359 149.88 151.571 150.768 151.993C151.656 152.416 152.343 153.021 152.83 153.809C153.324 154.589 153.571 155.481 153.571 156.483C153.571 158.03 153.045 159.251 151.992 160.146C150.947 161.042 149.489 161.489 147.62 161.489H144.816V162.306H148.232V164.916ZM144.816 158.879H147.599C149.403 158.879 150.306 158.088 150.306 156.505C150.306 155.753 150.076 155.148 149.618 154.689C149.16 154.224 148.526 153.988 147.717 153.98H144.816V158.879Z" fill="#FE4D4A"/>
</svg>
