<svg width="190" height="56" viewBox="0 0 190 56" fill="none" xmlns="http://www.w3.org/2000/svg">
<path d="M30.5 56C17 56 6 43.5 6 28C6 12.5 17 0 30.5 0C44 0 55 12.5 55 28C55 43.5 44 56 30.5 56Z" fill="#FEEBEF"/>
<path d="M6 28C6 13.7 15.4 1.9 27.5 0.2C26.5 0.1 25.5 0 24.5 0C11 0 0 12.5 0 28C0 43.5 11 56 24.5 56C25.5 56 26.5 55.9 27.5 55.8C15.4 54.1 6 42.3 6 28Z" fill="#FFBFCD"/>
<path d="M30.6 50.5C29.8 50.5 29.1 50.5 28.4 50.4C27.9 50.3 27.5 49.8 27.5 49.3C27.6 48.8 28.1 48.4 28.6 48.4C29.2 48.5 29.8 48.5 30.5 48.5C31.1 48.5 31.5 48.9 31.5 49.5C31.5 50.1 31.1 50.5 30.6 50.5ZM36.4 49.4C36 49.4 35.6 49.2 35.5 48.8C35.3 48.3 35.5999 47.7 36.0999 47.5C36.6999 47.3 37.2999 47 37.7999 46.7C38.2999 46.4 38.8999 46.6 39.0999 47.1C39.3999 47.6 39.2 48.2 38.7 48.4C38.1 48.7 37.3999 49 36.7999 49.2C36.5999 49.4 36.5 49.4 36.4 49.4ZM22.9 48.7C22.7 48.7 22.6 48.7 22.4 48.6C21.8 48.3 21.2 47.9 20.6 47.6C20.1 47.3 20 46.7 20.3 46.2C20.6 45.7 21.2 45.6 21.7 45.9C22.2 46.2 22.8 46.6 23.3 46.8C23.8 47.1 24 47.7 23.7 48.1C23.6 48.5 23.2 48.7 22.9 48.7ZM43 45.1C42.7 45.1 42.4999 45 42.2999 44.8C41.8999 44.4 41.8999 43.8 42.2999 43.4C42.6999 43 43.1999 42.5 43.5999 42C43.8999 41.6 44.6 41.5 45 41.9C45.4 42.3 45.4999 42.9 45.0999 43.3C44.6999 43.8 44.2 44.4 43.7 44.8C43.5 45 43.2 45.1 43 45.1ZM16.8 43.7C16.5 43.7 16.2 43.6 16 43.3C15.6 42.8 15.1 42.2 14.8 41.6C14.5 41.1 14.6 40.5 15.1 40.2C15.6 39.9 16.2 40 16.5 40.5C16.9 41 17.2 41.5 17.6 42C18 42.4 17.9 43.1 17.5 43.4C17.2 43.6 17 43.7 16.8 43.7ZM47.4 38.6C47.3 38.6 47.1 38.6 47 38.5C46.5 38.3 46.3 37.7 46.5 37.2C46.8 36.6 47 36 47.2 35.4C47.4 34.9 47.9 34.6 48.5 34.8C49 35 49.2999 35.5 49.0999 36.1C48.8999 36.8 48.6 37.4 48.4 38C48.1 38.4 47.8 38.6 47.4 38.6ZM12.9 36.8C12.5 36.8 12.1 36.5 12 36.1C11.8 35.5 11.6 34.8 11.4 34.1C11.3 33.6 11.6 33 12.1 32.9C12.6 32.8 13.2 33.1 13.3 33.6C13.5 34.2 13.6 34.8 13.8 35.4C14 35.9 13.7 36.5 13.2 36.7C13.2 36.8 13.1 36.8 12.9 36.8ZM49.2999 30.9C49.1999 30.9 49.1999 30.9 49.2999 30.9C48.6999 30.9 48.2999 30.4 48.2999 29.8C48.2999 29.2 48.4 28.6 48.4 28C48.4 27.4 48.8 27 49.4 27C50 27 50.4 27.4 50.4 28V28C50.4 28.7 50.3999 29.3 50.2999 30C50.1999 30.5 49.7999 30.9 49.2999 30.9ZM11.7 29C11.1 29 10.7 28.6 10.7 28C10.7 27.3 10.7 26.6 10.8 26C10.8 25.5 11.3 25 11.9 25.1C12.5 25.1 12.9 25.6 12.8 26.2C12.8 26.8 12.7 27.5 12.7 28.1C12.7 28.6 12.2 29 11.7 29ZM48.5999 23C48.1999 23 47.6999 22.7 47.5999 22.2C47.3999 21.6 47.2999 21 47.0999 20.4C46.8999 19.9 47.2 19.3 47.7 19.1C48.2 18.9 48.8 19.2 49 19.7C49.2 20.3 49.3999 21 49.5999 21.7C49.6999 22.2 49.4 22.8 48.9 22.9C48.8 23 48.6999 23 48.5999 23ZM12.9 21.2C12.8 21.2 12.7 21.2 12.6 21.1C12.1 20.9 11.8 20.4 12 19.8C12.2 19.2 12.5 18.5 12.7 17.9C12.9 17.4 13.5 17.2 14 17.4C14.5 17.6 14.7 18.2 14.5 18.7C14.2 19.3 14 19.9 13.8 20.5C13.7 21 13.3 21.2 12.9 21.2ZM45.4 15.8C45.1 15.8 44.7999 15.6 44.5999 15.4C44.1999 14.9 43.9 14.4 43.5 13.9C43.1 13.5 43.1999 12.8 43.5999 12.5C43.9999 12.1 44.7 12.2 45 12.6C45.4 13.1 45.9 13.7 46.2 14.3C46.5 14.8 46.4 15.4 45.9 15.7C45.8 15.8 45.6 15.8 45.4 15.8ZM16.7 14.3C16.5 14.3 16.3 14.2 16.1 14.1C15.7 13.8 15.6 13.1 16 12.7C16.4 12.2 16.9 11.6 17.4 11.2C17.8 10.8 18.4 10.8 18.8 11.2C19.2 11.6 19.2 12.2 18.8 12.6C18.4 13 17.9 13.5 17.5 14C17.3 14.2 17 14.3 16.7 14.3ZM39.7999 10.3C39.5999 10.3 39.3999 10.2 39.2999 10.1C38.7999 9.8 38.2 9.4 37.7 9.2C37.2 9 36.9999 8.3 37.2999 7.9C37.4999 7.4 38.0999 7.2 38.5999 7.5C39.1999 7.8 39.8 8.2 40.4 8.5C40.9 8.8 41 9.4 40.7 9.9C40.5 10.1 40.0999 10.3 39.7999 10.3ZM22.8 9.3C22.4 9.3 22.1 9.1 21.9 8.8C21.6 8.3 21.8 7.7 22.3 7.5C22.9 7.2 23.6 6.9 24.2 6.7C24.7 6.5 25.3 6.8 25.5 7.3C25.7 7.8 25.4 8.4 24.9 8.6C24.3 8.8 23.7 9.1 23.2 9.4C23.1 9.3 23 9.3 22.8 9.3ZM32.4 7.6H32.2999C31.6999 7.5 31.1 7.5 30.5 7.5C29.9 7.5 29.5 7.1 29.5 6.5C29.5 5.9 29.9 5.5 30.5 5.5C31.2 5.5 31.9 5.5 32.5 5.6C33 5.7 33.4 6.2 33.4 6.7C33.4 7.2 32.9 7.6 32.4 7.6Z" fill="#FFBFCD"/>
<path d="M6 29H0C0 29.7 0.1 30.3 0.1 31H6.1C6.1 30.3 6 29.7 6 29Z" fill="#F48BA2"/>
<path d="M6.2 24H0.2C0.1 24.7 0.1 25.3 0 26H6C6.1 25.3 6.1 24.7 6.2 24Z" fill="#F48BA2"/>
<path d="M6.5 34H0.5C0.6 34.7 0.8 35.3 1 36H7C6.8 35.3 6.7 34.7 6.5 34Z" fill="#F48BA2"/>
<path d="M7.90002 39H1.90002C2.20002 39.7 2.40002 40.3 2.70002 41H8.70002C8.50002 40.3 8.20002 39.7 7.90002 39Z" fill="#F48BA2"/>
<path d="M7.30005 19H1.30005C1.10005 19.7 0.900049 20.3 0.800049 21H6.80005C6.90005 20.3 7.10005 19.7 7.30005 19Z" fill="#F48BA2"/>
<path d="M9.30002 14H3.30002C3.00002 14.7 2.70002 15.3 2.40002 16H8.40002C8.60002 15.3 8.90002 14.7 9.30002 14Z" fill="#F48BA2"/>
<path d="M13.3 8H7.29995C6.69995 8.6 6.19995 9.3 5.69995 10H11.7C12.2 9.3 12.8 8.6 13.3 8Z" fill="#F48BA2"/>
<path d="M19.5 3H13.5C12.5 3.6 11.5 4.3 10.6 5H16.6C17.5 4.3 18.4 3.6 19.5 3Z" fill="#F48BA2"/>
<path d="M11 45H5C5.5 45.7 6 46.4 6.5 47H12.5C12 46.4 11.5 45.7 11 45Z" fill="#F48BA2"/>
<path d="M9.30005 50C10.1 50.7 10.9 51.4 11.8 52H17.8C16.9 51.4 16.1 50.7 15.3 50H9.30005Z" fill="#F48BA2"/>
<path d="M31.9976 33.1802H28.0669V36H24.9907V33.1802H22.4883V30.7021H24.9907V29.396H22.4883V26.918H24.9907V18.2266H31.79C33.7513 18.2266 35.3179 18.7393 36.4897 19.7646C37.6616 20.7819 38.2476 22.1369 38.2476 23.8296C38.2476 25.5549 37.6901 26.9098 36.5752 27.8945C35.4603 28.8711 33.91 29.3716 31.9243 29.396H28.0669V30.7021H31.9976V33.1802ZM28.0669 26.918H31.7412C32.848 26.918 33.6943 26.6616 34.2803 26.1489C34.8662 25.6362 35.1592 24.8713 35.1592 23.854C35.1592 22.9425 34.8703 22.1979 34.2925 21.6201C33.7228 21.0423 32.9334 20.7412 31.9243 20.7168H28.0669V26.918Z" fill="#F48BA2"/>
<path d="M45.5 56C32 56 21 43.5 21 28C21 12.5 32 0 45.5 0C59 0 70 12.5 70 28C70 43.5 59 56 45.5 56Z" fill="#FEEBEF"/>
<path d="M21 28C21 13.7 30.4 1.9 42.5 0.2C41.5 0.1 40.5 0 39.5 0C26 0 15 12.5 15 28C15 43.5 26 56 39.5 56C40.5 56 41.5 55.9 42.5 55.8C30.4 54.1 21 42.3 21 28Z" fill="#FFBFCD"/>
<path d="M45.6 50.5C44.8 50.5 44.1 50.5 43.4 50.4C42.9 50.3 42.5 49.8 42.5 49.3C42.6 48.8 43.1 48.4 43.6 48.4C44.2 48.5 44.8 48.5 45.5 48.5C46.1 48.5 46.5 48.9 46.5 49.5C46.5 50.1 46.1 50.5 45.6 50.5ZM51.4 49.4C51 49.4 50.6 49.2 50.5 48.8C50.3 48.3 50.5999 47.7 51.0999 47.5C51.6999 47.3 52.2999 47 52.7999 46.7C53.2999 46.4 53.8999 46.6 54.0999 47.1C54.3999 47.6 54.2 48.2 53.7 48.4C53.1 48.7 52.3999 49 51.7999 49.2C51.5999 49.4 51.5 49.4 51.4 49.4ZM37.9 48.7C37.7 48.7 37.6 48.7 37.4 48.6C36.8 48.3 36.2 47.9 35.6 47.6C35.1 47.3 35 46.7 35.3 46.2C35.6 45.7 36.2 45.6 36.7 45.9C37.2 46.2 37.8 46.6 38.3 46.8C38.8 47.1 39 47.7 38.7 48.1C38.6 48.5 38.2 48.7 37.9 48.7ZM58 45.1C57.7 45.1 57.4999 45 57.2999 44.8C56.8999 44.4 56.8999 43.8 57.2999 43.4C57.6999 43 58.1999 42.5 58.5999 42C58.8999 41.6 59.6 41.5 60 41.9C60.4 42.3 60.4999 42.9 60.0999 43.3C59.6999 43.8 59.2 44.4 58.7 44.8C58.5 45 58.2 45.1 58 45.1ZM31.8 43.7C31.5 43.7 31.2 43.6 31 43.3C30.6 42.8 30.1 42.2 29.8 41.6C29.5 41.1 29.6 40.5 30.1 40.2C30.6 39.9 31.2 40 31.5 40.5C31.9 41 32.2 41.5 32.6 42C33 42.4 32.9 43.1 32.5 43.4C32.2 43.6 32 43.7 31.8 43.7ZM62.4 38.6C62.3 38.6 62.1 38.6 62 38.5C61.5 38.3 61.3 37.7 61.5 37.2C61.8 36.6 62 36 62.2 35.4C62.4 34.9 62.9 34.6 63.5 34.8C64 35 64.2999 35.5 64.0999 36.1C63.8999 36.8 63.6 37.4 63.4 38C63.1 38.4 62.8 38.6 62.4 38.6ZM27.9 36.8C27.5 36.8 27.1 36.5 27 36.1C26.8 35.5 26.6 34.8 26.4 34.1C26.3 33.6 26.6 33 27.1 32.9C27.6 32.8 28.2 33.1 28.3 33.6C28.5 34.2 28.6 34.8 28.8 35.4C29 35.9 28.7 36.5 28.2 36.7C28.2 36.8 28.1 36.8 27.9 36.8ZM64.2999 30.9C64.1999 30.9 64.1999 30.9 64.2999 30.9C63.6999 30.9 63.2999 30.4 63.2999 29.8C63.2999 29.2 63.4 28.6 63.4 28C63.4 27.4 63.8 27 64.4 27C65 27 65.4 27.4 65.4 28V28C65.4 28.7 65.3999 29.3 65.2999 30C65.1999 30.5 64.7999 30.9 64.2999 30.9ZM26.7 29C26.1 29 25.7 28.6 25.7 28C25.7 27.3 25.7 26.6 25.8 26C25.8 25.5 26.3 25 26.9 25.1C27.5 25.1 27.9 25.6 27.8 26.2C27.8 26.8 27.7 27.5 27.7 28.1C27.7 28.6 27.2 29 26.7 29ZM63.5999 23C63.1999 23 62.6999 22.7 62.5999 22.2C62.3999 21.6 62.2999 21 62.0999 20.4C61.8999 19.9 62.2 19.3 62.7 19.1C63.2 18.9 63.8 19.2 64 19.7C64.2 20.3 64.3999 21 64.5999 21.7C64.6999 22.2 64.4 22.8 63.9 22.9C63.8 23 63.6999 23 63.5999 23ZM27.9 21.2C27.8 21.2 27.7 21.2 27.6 21.1C27.1 20.9 26.8 20.4 27 19.8C27.2 19.2 27.5 18.5 27.7 17.9C27.9 17.4 28.5 17.2 29 17.4C29.5 17.6 29.7 18.2 29.5 18.7C29.2 19.3 29 19.9 28.8 20.5C28.7 21 28.3 21.2 27.9 21.2ZM60.4 15.8C60.1 15.8 59.7999 15.6 59.5999 15.4C59.1999 14.9 58.9 14.4 58.5 13.9C58.1 13.5 58.1999 12.8 58.5999 12.5C58.9999 12.1 59.7 12.2 60 12.6C60.4 13.1 60.9 13.7 61.2 14.3C61.5 14.8 61.4 15.4 60.9 15.7C60.8 15.8 60.6 15.8 60.4 15.8ZM31.7 14.3C31.5 14.3 31.3 14.2 31.1 14.1C30.7 13.8 30.6 13.1 31 12.7C31.4 12.2 31.9 11.6 32.4 11.2C32.8 10.8 33.4 10.8 33.8 11.2C34.2 11.6 34.2 12.2 33.8 12.6C33.4 13 32.9 13.5 32.5 14C32.3 14.2 32 14.3 31.7 14.3ZM54.7999 10.3C54.5999 10.3 54.3999 10.2 54.2999 10.1C53.7999 9.8 53.2 9.4 52.7 9.2C52.2 9 51.9999 8.3 52.2999 7.9C52.4999 7.4 53.0999 7.2 53.5999 7.5C54.1999 7.8 54.8 8.2 55.4 8.5C55.9 8.8 56 9.4 55.7 9.9C55.5 10.1 55.0999 10.3 54.7999 10.3ZM37.8 9.3C37.4 9.3 37.1 9.1 36.9 8.8C36.6 8.3 36.8 7.7 37.3 7.5C37.9 7.2 38.6 6.9 39.2 6.7C39.7 6.5 40.3 6.8 40.5 7.3C40.7 7.8 40.4 8.4 39.9 8.6C39.3 8.8 38.7 9.1 38.2 9.4C38.1 9.3 38 9.3 37.8 9.3ZM47.4 7.6H47.2999C46.6999 7.5 46.1 7.5 45.5 7.5C44.9 7.5 44.5 7.1 44.5 6.5C44.5 5.9 44.9 5.5 45.5 5.5C46.2 5.5 46.9 5.5 47.5 5.6C48 5.7 48.4 6.2 48.4 6.7C48.4 7.2 47.9 7.6 47.4 7.6Z" fill="#FFBFCD"/>
<path d="M21 29H15C15 29.7 15.1 30.3 15.1 31H21.1C21.1 30.3 21 29.7 21 29Z" fill="#F48BA2"/>
<path d="M21.2 24H15.2C15.1 24.7 15.1 25.3 15 26H21C21.1 25.3 21.1 24.7 21.2 24Z" fill="#F48BA2"/>
<path d="M21.5 34H15.5C15.6 34.7 15.8 35.3 16 36H22C21.8 35.3 21.7 34.7 21.5 34Z" fill="#F48BA2"/>
<path d="M22.9 39H16.9C17.2 39.7 17.4 40.3 17.7 41H23.7C23.5 40.3 23.2 39.7 22.9 39Z" fill="#F48BA2"/>
<path d="M22.3 19H16.3C16.1 19.7 15.9 20.3 15.8 21H21.8C21.9 20.3 22.1 19.7 22.3 19Z" fill="#F48BA2"/>
<path d="M24.3 14H18.3C18 14.7 17.7 15.3 17.4 16H23.4C23.6 15.3 23.9 14.7 24.3 14Z" fill="#F48BA2"/>
<path d="M28.3 8H22.3C21.7 8.6 21.2 9.3 20.7 10H26.7C27.2 9.3 27.8 8.6 28.3 8Z" fill="#F48BA2"/>
<path d="M34.5 3H28.5C27.5 3.6 26.5 4.3 25.6 5H31.6C32.5 4.3 33.4 3.6 34.5 3Z" fill="#F48BA2"/>
<path d="M26 45H20C20.5 45.7 21 46.4 21.5 47H27.5C27 46.4 26.5 45.7 26 45Z" fill="#F48BA2"/>
<path d="M24.3 50C25.1 50.7 25.9 51.4 26.8 52H32.8C31.9 51.4 31.1 50.7 30.3 50H24.3Z" fill="#F48BA2"/>
<path d="M46.9976 33.1802H43.0669V36H39.9907V33.1802H37.4883V30.7021H39.9907V29.396H37.4883V26.918H39.9907V18.2266H46.79C48.7513 18.2266 50.3179 18.7393 51.4897 19.7646C52.6616 20.7819 53.2476 22.1369 53.2476 23.8296C53.2476 25.5549 52.6901 26.9098 51.5752 27.8945C50.4603 28.8711 48.91 29.3716 46.9243 29.396H43.0669V30.7021H46.9976V33.1802ZM43.0669 26.918H46.7412C47.848 26.918 48.6943 26.6616 49.2803 26.1489C49.8662 25.6362 50.1592 24.8713 50.1592 23.854C50.1592 22.9425 49.8703 22.1979 49.2925 21.6201C48.7228 21.0423 47.9334 20.7412 46.9243 20.7168H43.0669V26.918Z" fill="#F48BA2"/>
<path d="M60.5 56C47 56 36 43.5 36 28C36 12.5 47 0 60.5 0C74 0 85 12.5 85 28C85 43.5 74 56 60.5 56Z" fill="#FEEBEF"/>
<path d="M36 28C36 13.7 45.4 1.9 57.5 0.2C56.5 0.1 55.5 0 54.5 0C41 0 30 12.5 30 28C30 43.5 41 56 54.5 56C55.5 56 56.5 55.9 57.5 55.8C45.4 54.1 36 42.3 36 28Z" fill="#FFBFCD"/>
<path d="M60.6 50.5C59.8 50.5 59.1 50.5 58.4 50.4C57.9 50.3 57.5 49.8 57.5 49.3C57.6 48.8 58.1 48.4 58.6 48.4C59.2 48.5 59.8 48.5 60.5 48.5C61.1 48.5 61.5 48.9 61.5 49.5C61.5 50.1 61.1 50.5 60.6 50.5ZM66.4 49.4C66 49.4 65.6 49.2 65.5 48.8C65.3 48.3 65.5999 47.7 66.0999 47.5C66.6999 47.3 67.2999 47 67.7999 46.7C68.2999 46.4 68.8999 46.6 69.0999 47.1C69.3999 47.6 69.2 48.2 68.7 48.4C68.1 48.7 67.3999 49 66.7999 49.2C66.5999 49.4 66.5 49.4 66.4 49.4ZM52.9 48.7C52.7 48.7 52.6 48.7 52.4 48.6C51.8 48.3 51.2 47.9 50.6 47.6C50.1 47.3 50 46.7 50.3 46.2C50.6 45.7 51.2 45.6 51.7 45.9C52.2 46.2 52.8 46.6 53.3 46.8C53.8 47.1 54 47.7 53.7 48.1C53.6 48.5 53.2 48.7 52.9 48.7ZM73 45.1C72.7 45.1 72.4999 45 72.2999 44.8C71.8999 44.4 71.8999 43.8 72.2999 43.4C72.6999 43 73.1999 42.5 73.5999 42C73.8999 41.6 74.6 41.5 75 41.9C75.4 42.3 75.4999 42.9 75.0999 43.3C74.6999 43.8 74.2 44.4 73.7 44.8C73.5 45 73.2 45.1 73 45.1ZM46.8 43.7C46.5 43.7 46.2 43.6 46 43.3C45.6 42.8 45.1 42.2 44.8 41.6C44.5 41.1 44.6 40.5 45.1 40.2C45.6 39.9 46.2 40 46.5 40.5C46.9 41 47.2 41.5 47.6 42C48 42.4 47.9 43.1 47.5 43.4C47.2 43.6 47 43.7 46.8 43.7ZM77.4 38.6C77.3 38.6 77.1 38.6 77 38.5C76.5 38.3 76.3 37.7 76.5 37.2C76.8 36.6 77 36 77.2 35.4C77.4 34.9 77.9 34.6 78.5 34.8C79 35 79.2999 35.5 79.0999 36.1C78.8999 36.8 78.6 37.4 78.4 38C78.1 38.4 77.8 38.6 77.4 38.6ZM42.9 36.8C42.5 36.8 42.1 36.5 42 36.1C41.8 35.5 41.6 34.8 41.4 34.1C41.3 33.6 41.6 33 42.1 32.9C42.6 32.8 43.2 33.1 43.3 33.6C43.5 34.2 43.6 34.8 43.8 35.4C44 35.9 43.7 36.5 43.2 36.7C43.2 36.8 43.1 36.8 42.9 36.8ZM79.2999 30.9C79.1999 30.9 79.1999 30.9 79.2999 30.9C78.6999 30.9 78.2999 30.4 78.2999 29.8C78.2999 29.2 78.4 28.6 78.4 28C78.4 27.4 78.8 27 79.4 27C80 27 80.4 27.4 80.4 28V28C80.4 28.7 80.3999 29.3 80.2999 30C80.1999 30.5 79.7999 30.9 79.2999 30.9ZM41.7 29C41.1 29 40.7 28.6 40.7 28C40.7 27.3 40.7 26.6 40.8 26C40.8 25.5 41.3 25 41.9 25.1C42.5 25.1 42.9 25.6 42.8 26.2C42.8 26.8 42.7 27.5 42.7 28.1C42.7 28.6 42.2 29 41.7 29ZM78.5999 23C78.1999 23 77.6999 22.7 77.5999 22.2C77.3999 21.6 77.2999 21 77.0999 20.4C76.8999 19.9 77.2 19.3 77.7 19.1C78.2 18.9 78.8 19.2 79 19.7C79.2 20.3 79.3999 21 79.5999 21.7C79.6999 22.2 79.4 22.8 78.9 22.9C78.8 23 78.6999 23 78.5999 23ZM42.9 21.2C42.8 21.2 42.7 21.2 42.6 21.1C42.1 20.9 41.8 20.4 42 19.8C42.2 19.2 42.5 18.5 42.7 17.9C42.9 17.4 43.5 17.2 44 17.4C44.5 17.6 44.7 18.2 44.5 18.7C44.2 19.3 44 19.9 43.8 20.5C43.7 21 43.3 21.2 42.9 21.2ZM75.4 15.8C75.1 15.8 74.7999 15.6 74.5999 15.4C74.1999 14.9 73.9 14.4 73.5 13.9C73.1 13.5 73.1999 12.8 73.5999 12.5C73.9999 12.1 74.7 12.2 75 12.6C75.4 13.1 75.9 13.7 76.2 14.3C76.5 14.8 76.4 15.4 75.9 15.7C75.8 15.8 75.6 15.8 75.4 15.8ZM46.7 14.3C46.5 14.3 46.3 14.2 46.1 14.1C45.7 13.8 45.6 13.1 46 12.7C46.4 12.2 46.9 11.6 47.4 11.2C47.8 10.8 48.4 10.8 48.8 11.2C49.2 11.6 49.2 12.2 48.8 12.6C48.4 13 47.9 13.5 47.5 14C47.3 14.2 47 14.3 46.7 14.3ZM69.7999 10.3C69.5999 10.3 69.3999 10.2 69.2999 10.1C68.7999 9.8 68.2 9.4 67.7 9.2C67.2 9 66.9999 8.3 67.2999 7.9C67.4999 7.4 68.0999 7.2 68.5999 7.5C69.1999 7.8 69.8 8.2 70.4 8.5C70.9 8.8 71 9.4 70.7 9.9C70.5 10.1 70.0999 10.3 69.7999 10.3ZM52.8 9.3C52.4 9.3 52.1 9.1 51.9 8.8C51.6 8.3 51.8 7.7 52.3 7.5C52.9 7.2 53.6 6.9 54.2 6.7C54.7 6.5 55.3 6.8 55.5 7.3C55.7 7.8 55.4 8.4 54.9 8.6C54.3 8.8 53.7 9.1 53.2 9.4C53.1 9.3 53 9.3 52.8 9.3ZM62.4 7.6H62.2999C61.6999 7.5 61.1 7.5 60.5 7.5C59.9 7.5 59.5 7.1 59.5 6.5C59.5 5.9 59.9 5.5 60.5 5.5C61.2 5.5 61.9 5.5 62.5 5.6C63 5.7 63.4 6.2 63.4 6.7C63.4 7.2 62.9 7.6 62.4 7.6Z" fill="#FFBFCD"/>
<path d="M36 29H30C30 29.7 30.1 30.3 30.1 31H36.1C36.1 30.3 36 29.7 36 29Z" fill="#F48BA2"/>
<path d="M36.2 24H30.2C30.1 24.7 30.1 25.3 30 26H36C36.1 25.3 36.1 24.7 36.2 24Z" fill="#F48BA2"/>
<path d="M36.5 34H30.5C30.6 34.7 30.8 35.3 31 36H37C36.8 35.3 36.7 34.7 36.5 34Z" fill="#F48BA2"/>
<path d="M37.9 39H31.9C32.2 39.7 32.4 40.3 32.7 41H38.7C38.5 40.3 38.2 39.7 37.9 39Z" fill="#F48BA2"/>
<path d="M37.3 19H31.3C31.1 19.7 30.9 20.3 30.8 21H36.8C36.9 20.3 37.1 19.7 37.3 19Z" fill="#F48BA2"/>
<path d="M39.3 14H33.3C33 14.7 32.7 15.3 32.4 16H38.4C38.6 15.3 38.9 14.7 39.3 14Z" fill="#F48BA2"/>
<path d="M43.3 8H37.3C36.7 8.6 36.2 9.3 35.7 10H41.7C42.2 9.3 42.8 8.6 43.3 8Z" fill="#F48BA2"/>
<path d="M49.5 3H43.5C42.5 3.6 41.5 4.3 40.6 5H46.6C47.5 4.3 48.4 3.6 49.5 3Z" fill="#F48BA2"/>
<path d="M41 45H35C35.5 45.7 36 46.4 36.5 47H42.5C42 46.4 41.5 45.7 41 45Z" fill="#F48BA2"/>
<path d="M39.3 50C40.1 50.7 40.9 51.4 41.8 52H47.8C46.9 51.4 46.1 50.7 45.3 50H39.3Z" fill="#F48BA2"/>
<path d="M61.9976 33.1802H58.0669V36H54.9907V33.1802H52.4883V30.7021H54.9907V29.396H52.4883V26.918H54.9907V18.2266H61.79C63.7513 18.2266 65.3179 18.7393 66.4897 19.7646C67.6616 20.7819 68.2476 22.1369 68.2476 23.8296C68.2476 25.5549 67.6901 26.9098 66.5752 27.8945C65.4603 28.8711 63.91 29.3716 61.9243 29.396H58.0669V30.7021H61.9976V33.1802ZM58.0669 26.918H61.7412C62.848 26.918 63.6943 26.6616 64.2803 26.1489C64.8662 25.6362 65.1592 24.8713 65.1592 23.854C65.1592 22.9425 64.8703 22.1979 64.2925 21.6201C63.7228 21.0423 62.9334 20.7412 61.9243 20.7168H58.0669V26.918Z" fill="#F48BA2"/>
<path d="M75.5 56C62 56 51 43.5 51 28C51 12.5 62 0 75.5 0C89 0 100 12.5 100 28C100 43.5 89 56 75.5 56Z" fill="#FEEBEF"/>
<path d="M51 28C51 13.7 60.4 1.9 72.5 0.2C71.5 0.1 70.5 0 69.5 0C56 0 45 12.5 45 28C45 43.5 56 56 69.5 56C70.5 56 71.5 55.9 72.5 55.8C60.4 54.1 51 42.3 51 28Z" fill="#FFBFCD"/>
<path d="M75.6 50.5C74.8 50.5 74.1 50.5 73.4 50.4C72.9 50.3 72.5 49.8 72.5 49.3C72.6 48.8 73.1 48.4 73.6 48.4C74.2 48.5 74.8 48.5 75.5 48.5C76.1 48.5 76.5 48.9 76.5 49.5C76.5 50.1 76.1 50.5 75.6 50.5ZM81.4 49.4C81 49.4 80.6 49.2 80.5 48.8C80.3 48.3 80.5999 47.7 81.0999 47.5C81.6999 47.3 82.2999 47 82.7999 46.7C83.2999 46.4 83.8999 46.6 84.0999 47.1C84.3999 47.6 84.2 48.2 83.7 48.4C83.1 48.7 82.3999 49 81.7999 49.2C81.5999 49.4 81.5 49.4 81.4 49.4ZM67.9 48.7C67.7 48.7 67.6 48.7 67.4 48.6C66.8 48.3 66.2 47.9 65.6 47.6C65.1 47.3 65 46.7 65.3 46.2C65.6 45.7 66.2 45.6 66.7 45.9C67.2 46.2 67.8 46.6 68.3 46.8C68.8 47.1 69 47.7 68.7 48.1C68.6 48.5 68.2 48.7 67.9 48.7ZM88 45.1C87.7 45.1 87.4999 45 87.2999 44.8C86.8999 44.4 86.8999 43.8 87.2999 43.4C87.6999 43 88.1999 42.5 88.5999 42C88.8999 41.6 89.6 41.5 90 41.9C90.4 42.3 90.4999 42.9 90.0999 43.3C89.6999 43.8 89.2 44.4 88.7 44.8C88.5 45 88.2 45.1 88 45.1ZM61.8 43.7C61.5 43.7 61.2 43.6 61 43.3C60.6 42.8 60.1 42.2 59.8 41.6C59.5 41.1 59.6 40.5 60.1 40.2C60.6 39.9 61.2 40 61.5 40.5C61.9 41 62.2 41.5 62.6 42C63 42.4 62.9 43.1 62.5 43.4C62.2 43.6 62 43.7 61.8 43.7ZM92.4 38.6C92.3 38.6 92.1 38.6 92 38.5C91.5 38.3 91.3 37.7 91.5 37.2C91.8 36.6 92 36 92.2 35.4C92.4 34.9 92.9 34.6 93.5 34.8C94 35 94.2999 35.5 94.0999 36.1C93.8999 36.8 93.6 37.4 93.4 38C93.1 38.4 92.8 38.6 92.4 38.6ZM57.9 36.8C57.5 36.8 57.1 36.5 57 36.1C56.8 35.5 56.6 34.8 56.4 34.1C56.3 33.6 56.6 33 57.1 32.9C57.6 32.8 58.2 33.1 58.3 33.6C58.5 34.2 58.6 34.8 58.8 35.4C59 35.9 58.7 36.5 58.2 36.7C58.2 36.8 58.1 36.8 57.9 36.8ZM94.2999 30.9C94.1999 30.9 94.1999 30.9 94.2999 30.9C93.6999 30.9 93.2999 30.4 93.2999 29.8C93.2999 29.2 93.4 28.6 93.4 28C93.4 27.4 93.8 27 94.4 27C95 27 95.4 27.4 95.4 28V28C95.4 28.7 95.3999 29.3 95.2999 30C95.1999 30.5 94.7999 30.9 94.2999 30.9ZM56.7 29C56.1 29 55.7 28.6 55.7 28C55.7 27.3 55.7 26.6 55.8 26C55.8 25.5 56.3 25 56.9 25.1C57.5 25.1 57.9 25.6 57.8 26.2C57.8 26.8 57.7 27.5 57.7 28.1C57.7 28.6 57.2 29 56.7 29ZM93.5999 23C93.1999 23 92.6999 22.7 92.5999 22.2C92.3999 21.6 92.2999 21 92.0999 20.4C91.8999 19.9 92.2 19.3 92.7 19.1C93.2 18.9 93.8 19.2 94 19.7C94.2 20.3 94.3999 21 94.5999 21.7C94.6999 22.2 94.4 22.8 93.9 22.9C93.8 23 93.6999 23 93.5999 23ZM57.9 21.2C57.8 21.2 57.7 21.2 57.6 21.1C57.1 20.9 56.8 20.4 57 19.8C57.2 19.2 57.5 18.5 57.7 17.9C57.9 17.4 58.5 17.2 59 17.4C59.5 17.6 59.7 18.2 59.5 18.7C59.2 19.3 59 19.9 58.8 20.5C58.7 21 58.3 21.2 57.9 21.2ZM90.4 15.8C90.1 15.8 89.7999 15.6 89.5999 15.4C89.1999 14.9 88.9 14.4 88.5 13.9C88.1 13.5 88.1999 12.8 88.5999 12.5C88.9999 12.1 89.7 12.2 90 12.6C90.4 13.1 90.9 13.7 91.2 14.3C91.5 14.8 91.4 15.4 90.9 15.7C90.8 15.8 90.6 15.8 90.4 15.8ZM61.7 14.3C61.5 14.3 61.3 14.2 61.1 14.1C60.7 13.8 60.6 13.1 61 12.7C61.4 12.2 61.9 11.6 62.4 11.2C62.8 10.8 63.4 10.8 63.8 11.2C64.2 11.6 64.2 12.2 63.8 12.6C63.4 13 62.9 13.5 62.5 14C62.3 14.2 62 14.3 61.7 14.3ZM84.7999 10.3C84.5999 10.3 84.3999 10.2 84.2999 10.1C83.7999 9.8 83.2 9.4 82.7 9.2C82.2 9 81.9999 8.3 82.2999 7.9C82.4999 7.4 83.0999 7.2 83.5999 7.5C84.1999 7.8 84.8 8.2 85.4 8.5C85.9 8.8 86 9.4 85.7 9.9C85.5 10.1 85.0999 10.3 84.7999 10.3ZM67.8 9.3C67.4 9.3 67.1 9.1 66.9 8.8C66.6 8.3 66.8 7.7 67.3 7.5C67.9 7.2 68.6 6.9 69.2 6.7C69.7 6.5 70.3 6.8 70.5 7.3C70.7 7.8 70.4 8.4 69.9 8.6C69.3 8.8 68.7 9.1 68.2 9.4C68.1 9.3 68 9.3 67.8 9.3ZM77.4 7.6H77.2999C76.6999 7.5 76.1 7.5 75.5 7.5C74.9 7.5 74.5 7.1 74.5 6.5C74.5 5.9 74.9 5.5 75.5 5.5C76.2 5.5 76.9 5.5 77.5 5.6C78 5.7 78.4 6.2 78.4 6.7C78.4 7.2 77.9 7.6 77.4 7.6Z" fill="#FFBFCD"/>
<path d="M51 29H45C45 29.7 45.1 30.3 45.1 31H51.1C51.1 30.3 51 29.7 51 29Z" fill="#F48BA2"/>
<path d="M51.2 24H45.2C45.1 24.7 45.1 25.3 45 26H51C51.1 25.3 51.1 24.7 51.2 24Z" fill="#F48BA2"/>
<path d="M51.5 34H45.5C45.6 34.7 45.8 35.3 46 36H52C51.8 35.3 51.7 34.7 51.5 34Z" fill="#F48BA2"/>
<path d="M52.9 39H46.9C47.2 39.7 47.4 40.3 47.7 41H53.7C53.5 40.3 53.2 39.7 52.9 39Z" fill="#F48BA2"/>
<path d="M52.3 19H46.3C46.1 19.7 45.9 20.3 45.8 21H51.8C51.9 20.3 52.1 19.7 52.3 19Z" fill="#F48BA2"/>
<path d="M54.3 14H48.3C48 14.7 47.7 15.3 47.4 16H53.4C53.6 15.3 53.9 14.7 54.3 14Z" fill="#F48BA2"/>
<path d="M58.3 8H52.3C51.7 8.6 51.2 9.3 50.7 10H56.7C57.2 9.3 57.8 8.6 58.3 8Z" fill="#F48BA2"/>
<path d="M64.5 3H58.5C57.5 3.6 56.5 4.3 55.6 5H61.6C62.5 4.3 63.4 3.6 64.5 3Z" fill="#F48BA2"/>
<path d="M56 45H50C50.5 45.7 51 46.4 51.5 47H57.5C57 46.4 56.5 45.7 56 45Z" fill="#F48BA2"/>
<path d="M54.3 50C55.1 50.7 55.9 51.4 56.8 52H62.8C61.9 51.4 61.1 50.7 60.3 50H54.3Z" fill="#F48BA2"/>
<path d="M76.9976 33.1802H73.0669V36H69.9907V33.1802H67.4883V30.7021H69.9907V29.396H67.4883V26.918H69.9907V18.2266H76.79C78.7513 18.2266 80.3179 18.7393 81.4897 19.7646C82.6616 20.7819 83.2476 22.1369 83.2476 23.8296C83.2476 25.5549 82.6901 26.9098 81.5752 27.8945C80.4603 28.8711 78.91 29.3716 76.9243 29.396H73.0669V30.7021H76.9976V33.1802ZM73.0669 26.918H76.7412C77.848 26.918 78.6943 26.6616 79.2803 26.1489C79.8662 25.6362 80.1592 24.8713 80.1592 23.854C80.1592 22.9425 79.8703 22.1979 79.2925 21.6201C78.7228 21.0423 77.9334 20.7412 76.9243 20.7168H73.0669V26.918Z" fill="#F48BA2"/>
<path d="M90.5 56C77 56 66 43.5 66 28C66 12.5 77 0 90.5 0C104 0 115 12.5 115 28C115 43.5 104 56 90.5 56Z" fill="#FEEBEF"/>
<path d="M66 28C66 13.7 75.4 1.9 87.5 0.2C86.5 0.1 85.5 0 84.5 0C71 0 60 12.5 60 28C60 43.5 71 56 84.5 56C85.5 56 86.5 55.9 87.5 55.8C75.4 54.1 66 42.3 66 28Z" fill="#FFBFCD"/>
<path d="M90.6 50.5C89.8 50.5 89.1 50.5 88.4 50.4C87.9 50.3 87.5 49.8 87.5 49.3C87.6 48.8 88.1 48.4 88.6 48.4C89.2 48.5 89.8 48.5 90.5 48.5C91.1 48.5 91.5 48.9 91.5 49.5C91.5 50.1 91.1 50.5 90.6 50.5ZM96.4 49.4C96 49.4 95.6 49.2 95.5 48.8C95.3 48.3 95.5999 47.7 96.0999 47.5C96.6999 47.3 97.2999 47 97.7999 46.7C98.2999 46.4 98.8999 46.6 99.0999 47.1C99.3999 47.6 99.2 48.2 98.7 48.4C98.1 48.7 97.3999 49 96.7999 49.2C96.5999 49.4 96.5 49.4 96.4 49.4ZM82.9 48.7C82.7 48.7 82.6 48.7 82.4 48.6C81.8 48.3 81.2 47.9 80.6 47.6C80.1 47.3 80 46.7 80.3 46.2C80.6 45.7 81.2 45.6 81.7 45.9C82.2 46.2 82.8 46.6 83.3 46.8C83.8 47.1 84 47.7 83.7 48.1C83.6 48.5 83.2 48.7 82.9 48.7ZM103 45.1C102.7 45.1 102.5 45 102.3 44.8C101.9 44.4 101.9 43.8 102.3 43.4C102.7 43 103.2 42.5 103.6 42C103.9 41.6 104.6 41.5 105 41.9C105.4 42.3 105.5 42.9 105.1 43.3C104.7 43.8 104.2 44.4 103.7 44.8C103.5 45 103.2 45.1 103 45.1ZM76.8 43.7C76.5 43.7 76.2 43.6 76 43.3C75.6 42.8 75.1 42.2 74.8 41.6C74.5 41.1 74.6 40.5 75.1 40.2C75.6 39.9 76.2 40 76.5 40.5C76.9 41 77.2 41.5 77.6 42C78 42.4 77.9 43.1 77.5 43.4C77.2 43.6 77 43.7 76.8 43.7ZM107.4 38.6C107.3 38.6 107.1 38.6 107 38.5C106.5 38.3 106.3 37.7 106.5 37.2C106.8 36.6 107 36 107.2 35.4C107.4 34.9 107.9 34.6 108.5 34.8C109 35 109.3 35.5 109.1 36.1C108.9 36.8 108.6 37.4 108.4 38C108.1 38.4 107.8 38.6 107.4 38.6ZM72.9 36.8C72.5 36.8 72.1 36.5 72 36.1C71.8 35.5 71.6 34.8 71.4 34.1C71.3 33.6 71.6 33 72.1 32.9C72.6 32.8 73.2 33.1 73.3 33.6C73.5 34.2 73.6 34.8 73.8 35.4C74 35.9 73.7 36.5 73.2 36.7C73.2 36.8 73.1 36.8 72.9 36.8ZM109.3 30.9C109.2 30.9 109.2 30.9 109.3 30.9C108.7 30.9 108.3 30.4 108.3 29.8C108.3 29.2 108.4 28.6 108.4 28C108.4 27.4 108.8 27 109.4 27C110 27 110.4 27.4 110.4 28V28C110.4 28.7 110.4 29.3 110.3 30C110.2 30.5 109.8 30.9 109.3 30.9ZM71.7 29C71.1 29 70.7 28.6 70.7 28C70.7 27.3 70.7 26.6 70.8 26C70.8 25.5 71.3 25 71.9 25.1C72.5 25.1 72.9 25.6 72.8 26.2C72.8 26.8 72.7 27.5 72.7 28.1C72.7 28.6 72.2 29 71.7 29ZM108.6 23C108.2 23 107.7 22.7 107.6 22.2C107.4 21.6 107.3 21 107.1 20.4C106.9 19.9 107.2 19.3 107.7 19.1C108.2 18.9 108.8 19.2 109 19.7C109.2 20.3 109.4 21 109.6 21.7C109.7 22.2 109.4 22.8 108.9 22.9C108.8 23 108.7 23 108.6 23ZM72.9 21.2C72.8 21.2 72.7 21.2 72.6 21.1C72.1 20.9 71.8 20.4 72 19.8C72.2 19.2 72.5 18.5 72.7 17.9C72.9 17.4 73.5 17.2 74 17.4C74.5 17.6 74.7 18.2 74.5 18.7C74.2 19.3 74 19.9 73.8 20.5C73.7 21 73.3 21.2 72.9 21.2ZM105.4 15.8C105.1 15.8 104.8 15.6 104.6 15.4C104.2 14.9 103.9 14.4 103.5 13.9C103.1 13.5 103.2 12.8 103.6 12.5C104 12.1 104.7 12.2 105 12.6C105.4 13.1 105.9 13.7 106.2 14.3C106.5 14.8 106.4 15.4 105.9 15.7C105.8 15.8 105.6 15.8 105.4 15.8ZM76.7 14.3C76.5 14.3 76.3 14.2 76.1 14.1C75.7 13.8 75.6 13.1 76 12.7C76.4 12.2 76.9 11.6 77.4 11.2C77.8 10.8 78.4 10.8 78.8 11.2C79.2 11.6 79.2 12.2 78.8 12.6C78.4 13 77.9 13.5 77.5 14C77.3 14.2 77 14.3 76.7 14.3ZM99.7999 10.3C99.5999 10.3 99.3999 10.2 99.2999 10.1C98.7999 9.8 98.2 9.4 97.7 9.2C97.2 9 96.9999 8.3 97.2999 7.9C97.4999 7.4 98.0999 7.2 98.5999 7.5C99.1999 7.8 99.8 8.2 100.4 8.5C100.9 8.8 101 9.4 100.7 9.9C100.5 10.1 100.1 10.3 99.7999 10.3ZM82.8 9.3C82.4 9.3 82.1 9.1 81.9 8.8C81.6 8.3 81.8 7.7 82.3 7.5C82.9 7.2 83.6 6.9 84.2 6.7C84.7 6.5 85.3 6.8 85.5 7.3C85.7 7.8 85.4 8.4 84.9 8.6C84.3 8.8 83.7 9.1 83.2 9.4C83.1 9.3 83 9.3 82.8 9.3ZM92.4 7.6H92.2999C91.6999 7.5 91.1 7.5 90.5 7.5C89.9 7.5 89.5 7.1 89.5 6.5C89.5 5.9 89.9 5.5 90.5 5.5C91.2 5.5 91.9 5.5 92.5 5.6C93 5.7 93.4 6.2 93.4 6.7C93.4 7.2 92.9 7.6 92.4 7.6Z" fill="#FFBFCD"/>
<path d="M66 29H60C60 29.7 60.1 30.3 60.1 31H66.1C66.1 30.3 66 29.7 66 29Z" fill="#F48BA2"/>
<path d="M66.2 24H60.2C60.1 24.7 60.1 25.3 60 26H66C66.1 25.3 66.1 24.7 66.2 24Z" fill="#F48BA2"/>
<path d="M66.5 34H60.5C60.6 34.7 60.8 35.3 61 36H67C66.8 35.3 66.7 34.7 66.5 34Z" fill="#F48BA2"/>
<path d="M67.9 39H61.9C62.2 39.7 62.4 40.3 62.7 41H68.7C68.5 40.3 68.2 39.7 67.9 39Z" fill="#F48BA2"/>
<path d="M67.3 19H61.3C61.1 19.7 60.9 20.3 60.8 21H66.8C66.9 20.3 67.1 19.7 67.3 19Z" fill="#F48BA2"/>
<path d="M69.3 14H63.3C63 14.7 62.7 15.3 62.4 16H68.4C68.6 15.3 68.9 14.7 69.3 14Z" fill="#F48BA2"/>
<path d="M73.3 8H67.3C66.7 8.6 66.2 9.3 65.7 10H71.7C72.2 9.3 72.8 8.6 73.3 8Z" fill="#F48BA2"/>
<path d="M79.5 3H73.5C72.5 3.6 71.5 4.3 70.6 5H76.6C77.5 4.3 78.4 3.6 79.5 3Z" fill="#F48BA2"/>
<path d="M71 45H65C65.5 45.7 66 46.4 66.5 47H72.5C72 46.4 71.5 45.7 71 45Z" fill="#F48BA2"/>
<path d="M69.3 50C70.1 50.7 70.9 51.4 71.8 52H77.8C76.9 51.4 76.1 50.7 75.3 50H69.3Z" fill="#F48BA2"/>
<path d="M91.9976 33.1802H88.0669V36H84.9907V33.1802H82.4883V30.7021H84.9907V29.396H82.4883V26.918H84.9907V18.2266H91.79C93.7513 18.2266 95.3179 18.7393 96.4897 19.7646C97.6616 20.7819 98.2476 22.1369 98.2476 23.8296C98.2476 25.5549 97.6901 26.9098 96.5752 27.8945C95.4603 28.8711 93.91 29.3716 91.9243 29.396H88.0669V30.7021H91.9976V33.1802ZM88.0669 26.918H91.7412C92.848 26.918 93.6943 26.6616 94.2803 26.1489C94.8662 25.6362 95.1592 24.8713 95.1592 23.854C95.1592 22.9425 94.8703 22.1979 94.2925 21.6201C93.7228 21.0423 92.9334 20.7412 91.9243 20.7168H88.0669V26.918Z" fill="#F48BA2"/>
<path d="M105.5 56C92 56 81 43.5 81 28C81 12.5 92 0 105.5 0C119 0 130 12.5 130 28C130 43.5 119 56 105.5 56Z" fill="#FEEBEF"/>
<path d="M81 28C81 13.7 90.4 1.9 102.5 0.2C101.5 0.1 100.5 0 99.5 0C86 0 75 12.5 75 28C75 43.5 86 56 99.5 56C100.5 56 101.5 55.9 102.5 55.8C90.4 54.1 81 42.3 81 28Z" fill="#FFBFCD"/>
<path d="M105.6 50.5C104.8 50.5 104.1 50.5 103.4 50.4C102.9 50.3 102.5 49.8 102.5 49.3C102.6 48.8 103.1 48.4 103.6 48.4C104.2 48.5 104.8 48.5 105.5 48.5C106.1 48.5 106.5 48.9 106.5 49.5C106.5 50.1 106.1 50.5 105.6 50.5ZM111.4 49.4C111 49.4 110.6 49.2 110.5 48.8C110.3 48.3 110.6 47.7 111.1 47.5C111.7 47.3 112.3 47 112.8 46.7C113.3 46.4 113.9 46.6 114.1 47.1C114.4 47.6 114.2 48.2 113.7 48.4C113.1 48.7 112.4 49 111.8 49.2C111.6 49.4 111.5 49.4 111.4 49.4ZM97.9 48.7C97.7 48.7 97.6 48.7 97.4 48.6C96.8 48.3 96.2 47.9 95.6 47.6C95.1 47.3 95 46.7 95.3 46.2C95.6 45.7 96.2 45.6 96.7 45.9C97.2 46.2 97.8 46.6 98.3 46.8C98.8 47.1 99 47.7 98.7 48.1C98.6 48.5 98.2 48.7 97.9 48.7ZM118 45.1C117.7 45.1 117.5 45 117.3 44.8C116.9 44.4 116.9 43.8 117.3 43.4C117.7 43 118.2 42.5 118.6 42C118.9 41.6 119.6 41.5 120 41.9C120.4 42.3 120.5 42.9 120.1 43.3C119.7 43.8 119.2 44.4 118.7 44.8C118.5 45 118.2 45.1 118 45.1ZM91.8 43.7C91.5 43.7 91.2 43.6 91 43.3C90.6 42.8 90.1 42.2 89.8 41.6C89.5 41.1 89.6 40.5 90.1 40.2C90.6 39.9 91.2 40 91.5 40.5C91.9 41 92.2 41.5 92.6 42C93 42.4 92.9 43.1 92.5 43.4C92.2 43.6 92 43.7 91.8 43.7ZM122.4 38.6C122.3 38.6 122.1 38.6 122 38.5C121.5 38.3 121.3 37.7 121.5 37.2C121.8 36.6 122 36 122.2 35.4C122.4 34.9 122.9 34.6 123.5 34.8C124 35 124.3 35.5 124.1 36.1C123.9 36.8 123.6 37.4 123.4 38C123.1 38.4 122.8 38.6 122.4 38.6ZM87.9 36.8C87.5 36.8 87.1 36.5 87 36.1C86.8 35.5 86.6 34.8 86.4 34.1C86.3 33.6 86.6 33 87.1 32.9C87.6 32.8 88.2 33.1 88.3 33.6C88.5 34.2 88.6 34.8 88.8 35.4C89 35.9 88.7 36.5 88.2 36.7C88.2 36.8 88.1 36.8 87.9 36.8ZM124.3 30.9C124.2 30.9 124.2 30.9 124.3 30.9C123.7 30.9 123.3 30.4 123.3 29.8C123.3 29.2 123.4 28.6 123.4 28C123.4 27.4 123.8 27 124.4 27C125 27 125.4 27.4 125.4 28V28C125.4 28.7 125.4 29.3 125.3 30C125.2 30.5 124.8 30.9 124.3 30.9ZM86.7 29C86.1 29 85.7 28.6 85.7 28C85.7 27.3 85.7 26.6 85.8 26C85.8 25.5 86.3 25 86.9 25.1C87.5 25.1 87.9 25.6 87.8 26.2C87.8 26.8 87.7 27.5 87.7 28.1C87.7 28.6 87.2 29 86.7 29ZM123.6 23C123.2 23 122.7 22.7 122.6 22.2C122.4 21.6 122.3 21 122.1 20.4C121.9 19.9 122.2 19.3 122.7 19.1C123.2 18.9 123.8 19.2 124 19.7C124.2 20.3 124.4 21 124.6 21.7C124.7 22.2 124.4 22.8 123.9 22.9C123.8 23 123.7 23 123.6 23ZM87.9 21.2C87.8 21.2 87.7 21.2 87.6 21.1C87.1 20.9 86.8 20.4 87 19.8C87.2 19.2 87.5 18.5 87.7 17.9C87.9 17.4 88.5 17.2 89 17.4C89.5 17.6 89.7 18.2 89.5 18.7C89.2 19.3 89 19.9 88.8 20.5C88.7 21 88.3 21.2 87.9 21.2ZM120.4 15.8C120.1 15.8 119.8 15.6 119.6 15.4C119.2 14.9 118.9 14.4 118.5 13.9C118.1 13.5 118.2 12.8 118.6 12.5C119 12.1 119.7 12.2 120 12.6C120.4 13.1 120.9 13.7 121.2 14.3C121.5 14.8 121.4 15.4 120.9 15.7C120.8 15.8 120.6 15.8 120.4 15.8ZM91.7 14.3C91.5 14.3 91.3 14.2 91.1 14.1C90.7 13.8 90.6 13.1 91 12.7C91.4 12.2 91.9 11.6 92.4 11.2C92.8 10.8 93.4 10.8 93.8 11.2C94.2 11.6 94.2 12.2 93.8 12.6C93.4 13 92.9 13.5 92.5 14C92.3 14.2 92 14.3 91.7 14.3ZM114.8 10.3C114.6 10.3 114.4 10.2 114.3 10.1C113.8 9.8 113.2 9.4 112.7 9.2C112.2 9 112 8.3 112.3 7.9C112.5 7.4 113.1 7.2 113.6 7.5C114.2 7.8 114.8 8.2 115.4 8.5C115.9 8.8 116 9.4 115.7 9.9C115.5 10.1 115.1 10.3 114.8 10.3ZM97.8 9.3C97.4 9.3 97.1 9.1 96.9 8.8C96.6 8.3 96.8 7.7 97.3 7.5C97.9 7.2 98.6 6.9 99.2 6.7C99.7 6.5 100.3 6.8 100.5 7.3C100.7 7.8 100.4 8.4 99.9 8.6C99.3 8.8 98.7 9.1 98.2 9.4C98.1 9.3 98 9.3 97.8 9.3ZM107.4 7.6H107.3C106.7 7.5 106.1 7.5 105.5 7.5C104.9 7.5 104.5 7.1 104.5 6.5C104.5 5.9 104.9 5.5 105.5 5.5C106.2 5.5 106.9 5.5 107.5 5.6C108 5.7 108.4 6.2 108.4 6.7C108.4 7.2 107.9 7.6 107.4 7.6Z" fill="#FFBFCD"/>
<path d="M81 29H75C75 29.7 75.1 30.3 75.1 31H81.1C81.1 30.3 81 29.7 81 29Z" fill="#F48BA2"/>
<path d="M81.2 24H75.2C75.1 24.7 75.1 25.3 75 26H81C81.1 25.3 81.1 24.7 81.2 24Z" fill="#F48BA2"/>
<path d="M81.5 34H75.5C75.6 34.7 75.8 35.3 76 36H82C81.8 35.3 81.7 34.7 81.5 34Z" fill="#F48BA2"/>
<path d="M82.9 39H76.9C77.2 39.7 77.4 40.3 77.7 41H83.7C83.5 40.3 83.2 39.7 82.9 39Z" fill="#F48BA2"/>
<path d="M82.3 19H76.3C76.1 19.7 75.9 20.3 75.8 21H81.8C81.9 20.3 82.1 19.7 82.3 19Z" fill="#F48BA2"/>
<path d="M84.3 14H78.3C78 14.7 77.7 15.3 77.4 16H83.4C83.6 15.3 83.9 14.7 84.3 14Z" fill="#F48BA2"/>
<path d="M88.3 8H82.3C81.7 8.6 81.2 9.3 80.7 10H86.7C87.2 9.3 87.8 8.6 88.3 8Z" fill="#F48BA2"/>
<path d="M94.5 3H88.5C87.5 3.6 86.5 4.3 85.6 5H91.6C92.5 4.3 93.4 3.6 94.5 3Z" fill="#F48BA2"/>
<path d="M86 45H80C80.5 45.7 81 46.4 81.5 47H87.5C87 46.4 86.5 45.7 86 45Z" fill="#F48BA2"/>
<path d="M84.3 50C85.1 50.7 85.9 51.4 86.8 52H92.8C91.9 51.4 91.1 50.7 90.3 50H84.3Z" fill="#F48BA2"/>
<path d="M106.998 33.1802H103.067V36H99.9907V33.1802H97.4883V30.7021H99.9907V29.396H97.4883V26.918H99.9907V18.2266H106.79C108.751 18.2266 110.318 18.7393 111.49 19.7646C112.662 20.7819 113.248 22.1369 113.248 23.8296C113.248 25.5549 112.69 26.9098 111.575 27.8945C110.46 28.8711 108.91 29.3716 106.924 29.396H103.067V30.7021H106.998V33.1802ZM103.067 26.918H106.741C107.848 26.918 108.694 26.6616 109.28 26.1489C109.866 25.6362 110.159 24.8713 110.159 23.854C110.159 22.9425 109.87 22.1979 109.292 21.6201C108.723 21.0423 107.933 20.7412 106.924 20.7168H103.067V26.918Z" fill="#F48BA2"/>
<path d="M120.5 56C107 56 96 43.5 96 28C96 12.5 107 0 120.5 0C134 0 145 12.5 145 28C145 43.5 134 56 120.5 56Z" fill="#FEEBEF"/>
<path d="M96 28C96 13.7 105.4 1.9 117.5 0.2C116.5 0.1 115.5 0 114.5 0C101 0 90 12.5 90 28C90 43.5 101 56 114.5 56C115.5 56 116.5 55.9 117.5 55.8C105.4 54.1 96 42.3 96 28Z" fill="#FFBFCD"/>
<path d="M120.6 50.5C119.8 50.5 119.1 50.5 118.4 50.4C117.9 50.3 117.5 49.8 117.5 49.3C117.6 48.8 118.1 48.4 118.6 48.4C119.2 48.5 119.8 48.5 120.5 48.5C121.1 48.5 121.5 48.9 121.5 49.5C121.5 50.1 121.1 50.5 120.6 50.5ZM126.4 49.4C126 49.4 125.6 49.2 125.5 48.8C125.3 48.3 125.6 47.7 126.1 47.5C126.7 47.3 127.3 47 127.8 46.7C128.3 46.4 128.9 46.6 129.1 47.1C129.4 47.6 129.2 48.2 128.7 48.4C128.1 48.7 127.4 49 126.8 49.2C126.6 49.4 126.5 49.4 126.4 49.4ZM112.9 48.7C112.7 48.7 112.6 48.7 112.4 48.6C111.8 48.3 111.2 47.9 110.6 47.6C110.1 47.3 110 46.7 110.3 46.2C110.6 45.7 111.2 45.6 111.7 45.9C112.2 46.2 112.8 46.6 113.3 46.8C113.8 47.1 114 47.7 113.7 48.1C113.6 48.5 113.2 48.7 112.9 48.7ZM133 45.1C132.7 45.1 132.5 45 132.3 44.8C131.9 44.4 131.9 43.8 132.3 43.4C132.7 43 133.2 42.5 133.6 42C133.9 41.6 134.6 41.5 135 41.9C135.4 42.3 135.5 42.9 135.1 43.3C134.7 43.8 134.2 44.4 133.7 44.8C133.5 45 133.2 45.1 133 45.1ZM106.8 43.7C106.5 43.7 106.2 43.6 106 43.3C105.6 42.8 105.1 42.2 104.8 41.6C104.5 41.1 104.6 40.5 105.1 40.2C105.6 39.9 106.2 40 106.5 40.5C106.9 41 107.2 41.5 107.6 42C108 42.4 107.9 43.1 107.5 43.4C107.2 43.6 107 43.7 106.8 43.7ZM137.4 38.6C137.3 38.6 137.1 38.6 137 38.5C136.5 38.3 136.3 37.7 136.5 37.2C136.8 36.6 137 36 137.2 35.4C137.4 34.9 137.9 34.6 138.5 34.8C139 35 139.3 35.5 139.1 36.1C138.9 36.8 138.6 37.4 138.4 38C138.1 38.4 137.8 38.6 137.4 38.6ZM102.9 36.8C102.5 36.8 102.1 36.5 102 36.1C101.8 35.5 101.6 34.8 101.4 34.1C101.3 33.6 101.6 33 102.1 32.9C102.6 32.8 103.2 33.1 103.3 33.6C103.5 34.2 103.6 34.8 103.8 35.4C104 35.9 103.7 36.5 103.2 36.7C103.2 36.8 103.1 36.8 102.9 36.8ZM139.3 30.9C139.2 30.9 139.2 30.9 139.3 30.9C138.7 30.9 138.3 30.4 138.3 29.8C138.3 29.2 138.4 28.6 138.4 28C138.4 27.4 138.8 27 139.4 27C140 27 140.4 27.4 140.4 28V28C140.4 28.7 140.4 29.3 140.3 30C140.2 30.5 139.8 30.9 139.3 30.9ZM101.7 29C101.1 29 100.7 28.6 100.7 28C100.7 27.3 100.7 26.6 100.8 26C100.8 25.5 101.3 25 101.9 25.1C102.5 25.1 102.9 25.6 102.8 26.2C102.8 26.8 102.7 27.5 102.7 28.1C102.7 28.6 102.2 29 101.7 29ZM138.6 23C138.2 23 137.7 22.7 137.6 22.2C137.4 21.6 137.3 21 137.1 20.4C136.9 19.9 137.2 19.3 137.7 19.1C138.2 18.9 138.8 19.2 139 19.7C139.2 20.3 139.4 21 139.6 21.7C139.7 22.2 139.4 22.8 138.9 22.9C138.8 23 138.7 23 138.6 23ZM102.9 21.2C102.8 21.2 102.7 21.2 102.6 21.1C102.1 20.9 101.8 20.4 102 19.8C102.2 19.2 102.5 18.5 102.7 17.9C102.9 17.4 103.5 17.2 104 17.4C104.5 17.6 104.7 18.2 104.5 18.7C104.2 19.3 104 19.9 103.8 20.5C103.7 21 103.3 21.2 102.9 21.2ZM135.4 15.8C135.1 15.8 134.8 15.6 134.6 15.4C134.2 14.9 133.9 14.4 133.5 13.9C133.1 13.5 133.2 12.8 133.6 12.5C134 12.1 134.7 12.2 135 12.6C135.4 13.1 135.9 13.7 136.2 14.3C136.5 14.8 136.4 15.4 135.9 15.7C135.8 15.8 135.6 15.8 135.4 15.8ZM106.7 14.3C106.5 14.3 106.3 14.2 106.1 14.1C105.7 13.8 105.6 13.1 106 12.7C106.4 12.2 106.9 11.6 107.4 11.2C107.8 10.8 108.4 10.8 108.8 11.2C109.2 11.6 109.2 12.2 108.8 12.6C108.4 13 107.9 13.5 107.5 14C107.3 14.2 107 14.3 106.7 14.3ZM129.8 10.3C129.6 10.3 129.4 10.2 129.3 10.1C128.8 9.8 128.2 9.4 127.7 9.2C127.2 9 127 8.3 127.3 7.9C127.5 7.4 128.1 7.2 128.6 7.5C129.2 7.8 129.8 8.2 130.4 8.5C130.9 8.8 131 9.4 130.7 9.9C130.5 10.1 130.1 10.3 129.8 10.3ZM112.8 9.3C112.4 9.3 112.1 9.1 111.9 8.8C111.6 8.3 111.8 7.7 112.3 7.5C112.9 7.2 113.6 6.9 114.2 6.7C114.7 6.5 115.3 6.8 115.5 7.3C115.7 7.8 115.4 8.4 114.9 8.6C114.3 8.8 113.7 9.1 113.2 9.4C113.1 9.3 113 9.3 112.8 9.3ZM122.4 7.6H122.3C121.7 7.5 121.1 7.5 120.5 7.5C119.9 7.5 119.5 7.1 119.5 6.5C119.5 5.9 119.9 5.5 120.5 5.5C121.2 5.5 121.9 5.5 122.5 5.6C123 5.7 123.4 6.2 123.4 6.7C123.4 7.2 122.9 7.6 122.4 7.6Z" fill="#FFBFCD"/>
<path d="M96 29H90C90 29.7 90.1 30.3 90.1 31H96.1C96.1 30.3 96 29.7 96 29Z" fill="#F48BA2"/>
<path d="M96.2 24H90.2C90.1 24.7 90.1 25.3 90 26H96C96.1 25.3 96.1 24.7 96.2 24Z" fill="#F48BA2"/>
<path d="M96.5 34H90.5C90.6 34.7 90.8 35.3 91 36H97C96.8 35.3 96.7 34.7 96.5 34Z" fill="#F48BA2"/>
<path d="M97.9 39H91.9C92.2 39.7 92.4 40.3 92.7 41H98.7C98.5 40.3 98.2 39.7 97.9 39Z" fill="#F48BA2"/>
<path d="M97.3 19H91.3C91.1 19.7 90.9 20.3 90.8 21H96.8C96.9 20.3 97.1 19.7 97.3 19Z" fill="#F48BA2"/>
<path d="M99.3 14H93.3C93 14.7 92.7 15.3 92.4 16H98.4C98.6 15.3 98.9 14.7 99.3 14Z" fill="#F48BA2"/>
<path d="M103.3 8H97.3C96.7 8.6 96.2 9.3 95.7 10H101.7C102.2 9.3 102.8 8.6 103.3 8Z" fill="#F48BA2"/>
<path d="M109.5 3H103.5C102.5 3.6 101.5 4.3 100.6 5H106.6C107.5 4.3 108.4 3.6 109.5 3Z" fill="#F48BA2"/>
<path d="M101 45H95C95.5 45.7 96 46.4 96.5 47H102.5C102 46.4 101.5 45.7 101 45Z" fill="#F48BA2"/>
<path d="M99.3 50C100.1 50.7 100.9 51.4 101.8 52H107.8C106.9 51.4 106.1 50.7 105.3 50H99.3Z" fill="#F48BA2"/>
<path d="M121.998 33.1802H118.067V36H114.991V33.1802H112.488V30.7021H114.991V29.396H112.488V26.918H114.991V18.2266H121.79C123.751 18.2266 125.318 18.7393 126.49 19.7646C127.662 20.7819 128.248 22.1369 128.248 23.8296C128.248 25.5549 127.69 26.9098 126.575 27.8945C125.46 28.8711 123.91 29.3716 121.924 29.396H118.067V30.7021H121.998V33.1802ZM118.067 26.918H121.741C122.848 26.918 123.694 26.6616 124.28 26.1489C124.866 25.6362 125.159 24.8713 125.159 23.854C125.159 22.9425 124.87 22.1979 124.292 21.6201C123.723 21.0423 122.933 20.7412 121.924 20.7168H118.067V26.918Z" fill="#F48BA2"/>
<path d="M135.5 56C122 56 111 43.5 111 28C111 12.5 122 0 135.5 0C149 0 160 12.5 160 28C160 43.5 149 56 135.5 56Z" fill="#FEEBEF"/>
<path d="M111 28C111 13.7 120.4 1.9 132.5 0.2C131.5 0.1 130.5 0 129.5 0C116 0 105 12.5 105 28C105 43.5 116 56 129.5 56C130.5 56 131.5 55.9 132.5 55.8C120.4 54.1 111 42.3 111 28Z" fill="#FFBFCD"/>
<path d="M135.6 50.5C134.8 50.5 134.1 50.5 133.4 50.4C132.9 50.3 132.5 49.8 132.5 49.3C132.6 48.8 133.1 48.4 133.6 48.4C134.2 48.5 134.8 48.5 135.5 48.5C136.1 48.5 136.5 48.9 136.5 49.5C136.5 50.1 136.1 50.5 135.6 50.5ZM141.4 49.4C141 49.4 140.6 49.2 140.5 48.8C140.3 48.3 140.6 47.7 141.1 47.5C141.7 47.3 142.3 47 142.8 46.7C143.3 46.4 143.9 46.6 144.1 47.1C144.4 47.6 144.2 48.2 143.7 48.4C143.1 48.7 142.4 49 141.8 49.2C141.6 49.4 141.5 49.4 141.4 49.4ZM127.9 48.7C127.7 48.7 127.6 48.7 127.4 48.6C126.8 48.3 126.2 47.9 125.6 47.6C125.1 47.3 125 46.7 125.3 46.2C125.6 45.7 126.2 45.6 126.7 45.9C127.2 46.2 127.8 46.6 128.3 46.8C128.8 47.1 129 47.7 128.7 48.1C128.6 48.5 128.2 48.7 127.9 48.7ZM148 45.1C147.7 45.1 147.5 45 147.3 44.8C146.9 44.4 146.9 43.8 147.3 43.4C147.7 43 148.2 42.5 148.6 42C148.9 41.6 149.6 41.5 150 41.9C150.4 42.3 150.5 42.9 150.1 43.3C149.7 43.8 149.2 44.4 148.7 44.8C148.5 45 148.2 45.1 148 45.1ZM121.8 43.7C121.5 43.7 121.2 43.6 121 43.3C120.6 42.8 120.1 42.2 119.8 41.6C119.5 41.1 119.6 40.5 120.1 40.2C120.6 39.9 121.2 40 121.5 40.5C121.9 41 122.2 41.5 122.6 42C123 42.4 122.9 43.1 122.5 43.4C122.2 43.6 122 43.7 121.8 43.7ZM152.4 38.6C152.3 38.6 152.1 38.6 152 38.5C151.5 38.3 151.3 37.7 151.5 37.2C151.8 36.6 152 36 152.2 35.4C152.4 34.9 152.9 34.6 153.5 34.8C154 35 154.3 35.5 154.1 36.1C153.9 36.8 153.6 37.4 153.4 38C153.1 38.4 152.8 38.6 152.4 38.6ZM117.9 36.8C117.5 36.8 117.1 36.5 117 36.1C116.8 35.5 116.6 34.8 116.4 34.1C116.3 33.6 116.6 33 117.1 32.9C117.6 32.8 118.2 33.1 118.3 33.6C118.5 34.2 118.6 34.8 118.8 35.4C119 35.9 118.7 36.5 118.2 36.7C118.2 36.8 118.1 36.8 117.9 36.8ZM154.3 30.9C154.2 30.9 154.2 30.9 154.3 30.9C153.7 30.9 153.3 30.4 153.3 29.8C153.3 29.2 153.4 28.6 153.4 28C153.4 27.4 153.8 27 154.4 27C155 27 155.4 27.4 155.4 28V28C155.4 28.7 155.4 29.3 155.3 30C155.2 30.5 154.8 30.9 154.3 30.9ZM116.7 29C116.1 29 115.7 28.6 115.7 28C115.7 27.3 115.7 26.6 115.8 26C115.8 25.5 116.3 25 116.9 25.1C117.5 25.1 117.9 25.6 117.8 26.2C117.8 26.8 117.7 27.5 117.7 28.1C117.7 28.6 117.2 29 116.7 29ZM153.6 23C153.2 23 152.7 22.7 152.6 22.2C152.4 21.6 152.3 21 152.1 20.4C151.9 19.9 152.2 19.3 152.7 19.1C153.2 18.9 153.8 19.2 154 19.7C154.2 20.3 154.4 21 154.6 21.7C154.7 22.2 154.4 22.8 153.9 22.9C153.8 23 153.7 23 153.6 23ZM117.9 21.2C117.8 21.2 117.7 21.2 117.6 21.1C117.1 20.9 116.8 20.4 117 19.8C117.2 19.2 117.5 18.5 117.7 17.9C117.9 17.4 118.5 17.2 119 17.4C119.5 17.6 119.7 18.2 119.5 18.7C119.2 19.3 119 19.9 118.8 20.5C118.7 21 118.3 21.2 117.9 21.2ZM150.4 15.8C150.1 15.8 149.8 15.6 149.6 15.4C149.2 14.9 148.9 14.4 148.5 13.9C148.1 13.5 148.2 12.8 148.6 12.5C149 12.1 149.7 12.2 150 12.6C150.4 13.1 150.9 13.7 151.2 14.3C151.5 14.8 151.4 15.4 150.9 15.7C150.8 15.8 150.6 15.8 150.4 15.8ZM121.7 14.3C121.5 14.3 121.3 14.2 121.1 14.1C120.7 13.8 120.6 13.1 121 12.7C121.4 12.2 121.9 11.6 122.4 11.2C122.8 10.8 123.4 10.8 123.8 11.2C124.2 11.6 124.2 12.2 123.8 12.6C123.4 13 122.9 13.5 122.5 14C122.3 14.2 122 14.3 121.7 14.3ZM144.8 10.3C144.6 10.3 144.4 10.2 144.3 10.1C143.8 9.8 143.2 9.4 142.7 9.2C142.2 9 142 8.3 142.3 7.9C142.5 7.4 143.1 7.2 143.6 7.5C144.2 7.8 144.8 8.2 145.4 8.5C145.9 8.8 146 9.4 145.7 9.9C145.5 10.1 145.1 10.3 144.8 10.3ZM127.8 9.3C127.4 9.3 127.1 9.1 126.9 8.8C126.6 8.3 126.8 7.7 127.3 7.5C127.9 7.2 128.6 6.9 129.2 6.7C129.7 6.5 130.3 6.8 130.5 7.3C130.7 7.8 130.4 8.4 129.9 8.6C129.3 8.8 128.7 9.1 128.2 9.4C128.1 9.3 128 9.3 127.8 9.3ZM137.4 7.6H137.3C136.7 7.5 136.1 7.5 135.5 7.5C134.9 7.5 134.5 7.1 134.5 6.5C134.5 5.9 134.9 5.5 135.5 5.5C136.2 5.5 136.9 5.5 137.5 5.6C138 5.7 138.4 6.2 138.4 6.7C138.4 7.2 137.9 7.6 137.4 7.6Z" fill="#FFBFCD"/>
<path d="M111 29H105C105 29.7 105.1 30.3 105.1 31H111.1C111.1 30.3 111 29.7 111 29Z" fill="#F48BA2"/>
<path d="M111.2 24H105.2C105.1 24.7 105.1 25.3 105 26H111C111.1 25.3 111.1 24.7 111.2 24Z" fill="#F48BA2"/>
<path d="M111.5 34H105.5C105.6 34.7 105.8 35.3 106 36H112C111.8 35.3 111.7 34.7 111.5 34Z" fill="#F48BA2"/>
<path d="M112.9 39H106.9C107.2 39.7 107.4 40.3 107.7 41H113.7C113.5 40.3 113.2 39.7 112.9 39Z" fill="#F48BA2"/>
<path d="M112.3 19H106.3C106.1 19.7 105.9 20.3 105.8 21H111.8C111.9 20.3 112.1 19.7 112.3 19Z" fill="#F48BA2"/>
<path d="M114.3 14H108.3C108 14.7 107.7 15.3 107.4 16H113.4C113.6 15.3 113.9 14.7 114.3 14Z" fill="#F48BA2"/>
<path d="M118.3 8H112.3C111.7 8.6 111.2 9.3 110.7 10H116.7C117.2 9.3 117.8 8.6 118.3 8Z" fill="#F48BA2"/>
<path d="M124.5 3H118.5C117.5 3.6 116.5 4.3 115.6 5H121.6C122.5 4.3 123.4 3.6 124.5 3Z" fill="#F48BA2"/>
<path d="M116 45H110C110.5 45.7 111 46.4 111.5 47H117.5C117 46.4 116.5 45.7 116 45Z" fill="#F48BA2"/>
<path d="M114.3 50C115.1 50.7 115.9 51.4 116.8 52H122.8C121.9 51.4 121.1 50.7 120.3 50H114.3Z" fill="#F48BA2"/>
<path d="M136.998 33.1802H133.067V36H129.991V33.1802H127.488V30.7021H129.991V29.396H127.488V26.918H129.991V18.2266H136.79C138.751 18.2266 140.318 18.7393 141.49 19.7646C142.662 20.7819 143.248 22.1369 143.248 23.8296C143.248 25.5549 142.69 26.9098 141.575 27.8945C140.46 28.8711 138.91 29.3716 136.924 29.396H133.067V30.7021H136.998V33.1802ZM133.067 26.918H136.741C137.848 26.918 138.694 26.6616 139.28 26.1489C139.866 25.6362 140.159 24.8713 140.159 23.854C140.159 22.9425 139.87 22.1979 139.292 21.6201C138.723 21.0423 137.933 20.7412 136.924 20.7168H133.067V26.918Z" fill="#F48BA2"/>
<path d="M150.5 56C137 56 126 43.5 126 28C126 12.5 137 0 150.5 0C164 0 175 12.5 175 28C175 43.5 164 56 150.5 56Z" fill="#FEEBEF"/>
<path d="M126 28C126 13.7 135.4 1.9 147.5 0.2C146.5 0.1 145.5 0 144.5 0C131 0 120 12.5 120 28C120 43.5 131 56 144.5 56C145.5 56 146.5 55.9 147.5 55.8C135.4 54.1 126 42.3 126 28Z" fill="#FFBFCD"/>
<path d="M150.6 50.5C149.8 50.5 149.1 50.5 148.4 50.4C147.9 50.3 147.5 49.8 147.5 49.3C147.6 48.8 148.1 48.4 148.6 48.4C149.2 48.5 149.8 48.5 150.5 48.5C151.1 48.5 151.5 48.9 151.5 49.5C151.5 50.1 151.1 50.5 150.6 50.5ZM156.4 49.4C156 49.4 155.6 49.2 155.5 48.8C155.3 48.3 155.6 47.7 156.1 47.5C156.7 47.3 157.3 47 157.8 46.7C158.3 46.4 158.9 46.6 159.1 47.1C159.4 47.6 159.2 48.2 158.7 48.4C158.1 48.7 157.4 49 156.8 49.2C156.6 49.4 156.5 49.4 156.4 49.4ZM142.9 48.7C142.7 48.7 142.6 48.7 142.4 48.6C141.8 48.3 141.2 47.9 140.6 47.6C140.1 47.3 140 46.7 140.3 46.2C140.6 45.7 141.2 45.6 141.7 45.9C142.2 46.2 142.8 46.6 143.3 46.8C143.8 47.1 144 47.7 143.7 48.1C143.6 48.5 143.2 48.7 142.9 48.7ZM163 45.1C162.7 45.1 162.5 45 162.3 44.8C161.9 44.4 161.9 43.8 162.3 43.4C162.7 43 163.2 42.5 163.6 42C163.9 41.6 164.6 41.5 165 41.9C165.4 42.3 165.5 42.9 165.1 43.3C164.7 43.8 164.2 44.4 163.7 44.8C163.5 45 163.2 45.1 163 45.1ZM136.8 43.7C136.5 43.7 136.2 43.6 136 43.3C135.6 42.8 135.1 42.2 134.8 41.6C134.5 41.1 134.6 40.5 135.1 40.2C135.6 39.9 136.2 40 136.5 40.5C136.9 41 137.2 41.5 137.6 42C138 42.4 137.9 43.1 137.5 43.4C137.2 43.6 137 43.7 136.8 43.7ZM167.4 38.6C167.3 38.6 167.1 38.6 167 38.5C166.5 38.3 166.3 37.7 166.5 37.2C166.8 36.6 167 36 167.2 35.4C167.4 34.9 167.9 34.6 168.5 34.8C169 35 169.3 35.5 169.1 36.1C168.9 36.8 168.6 37.4 168.4 38C168.1 38.4 167.8 38.6 167.4 38.6ZM132.9 36.8C132.5 36.8 132.1 36.5 132 36.1C131.8 35.5 131.6 34.8 131.4 34.1C131.3 33.6 131.6 33 132.1 32.9C132.6 32.8 133.2 33.1 133.3 33.6C133.5 34.2 133.6 34.8 133.8 35.4C134 35.9 133.7 36.5 133.2 36.7C133.2 36.8 133.1 36.8 132.9 36.8ZM169.3 30.9C169.2 30.9 169.2 30.9 169.3 30.9C168.7 30.9 168.3 30.4 168.3 29.8C168.3 29.2 168.4 28.6 168.4 28C168.4 27.4 168.8 27 169.4 27C170 27 170.4 27.4 170.4 28V28C170.4 28.7 170.4 29.3 170.3 30C170.2 30.5 169.8 30.9 169.3 30.9ZM131.7 29C131.1 29 130.7 28.6 130.7 28C130.7 27.3 130.7 26.6 130.8 26C130.8 25.5 131.3 25 131.9 25.1C132.5 25.1 132.9 25.6 132.8 26.2C132.8 26.8 132.7 27.5 132.7 28.1C132.7 28.6 132.2 29 131.7 29ZM168.6 23C168.2 23 167.7 22.7 167.6 22.2C167.4 21.6 167.3 21 167.1 20.4C166.9 19.9 167.2 19.3 167.7 19.1C168.2 18.9 168.8 19.2 169 19.7C169.2 20.3 169.4 21 169.6 21.7C169.7 22.2 169.4 22.8 168.9 22.9C168.8 23 168.7 23 168.6 23ZM132.9 21.2C132.8 21.2 132.7 21.2 132.6 21.1C132.1 20.9 131.8 20.4 132 19.8C132.2 19.2 132.5 18.5 132.7 17.9C132.9 17.4 133.5 17.2 134 17.4C134.5 17.6 134.7 18.2 134.5 18.7C134.2 19.3 134 19.9 133.8 20.5C133.7 21 133.3 21.2 132.9 21.2ZM165.4 15.8C165.1 15.8 164.8 15.6 164.6 15.4C164.2 14.9 163.9 14.4 163.5 13.9C163.1 13.5 163.2 12.8 163.6 12.5C164 12.1 164.7 12.2 165 12.6C165.4 13.1 165.9 13.7 166.2 14.3C166.5 14.8 166.4 15.4 165.9 15.7C165.8 15.8 165.6 15.8 165.4 15.8ZM136.7 14.3C136.5 14.3 136.3 14.2 136.1 14.1C135.7 13.8 135.6 13.1 136 12.7C136.4 12.2 136.9 11.6 137.4 11.2C137.8 10.8 138.4 10.8 138.8 11.2C139.2 11.6 139.2 12.2 138.8 12.6C138.4 13 137.9 13.5 137.5 14C137.3 14.2 137 14.3 136.7 14.3ZM159.8 10.3C159.6 10.3 159.4 10.2 159.3 10.1C158.8 9.8 158.2 9.4 157.7 9.2C157.2 9 157 8.3 157.3 7.9C157.5 7.4 158.1 7.2 158.6 7.5C159.2 7.8 159.8 8.2 160.4 8.5C160.9 8.8 161 9.4 160.7 9.9C160.5 10.1 160.1 10.3 159.8 10.3ZM142.8 9.3C142.4 9.3 142.1 9.1 141.9 8.8C141.6 8.3 141.8 7.7 142.3 7.5C142.9 7.2 143.6 6.9 144.2 6.7C144.7 6.5 145.3 6.8 145.5 7.3C145.7 7.8 145.4 8.4 144.9 8.6C144.3 8.8 143.7 9.1 143.2 9.4C143.1 9.3 143 9.3 142.8 9.3ZM152.4 7.6H152.3C151.7 7.5 151.1 7.5 150.5 7.5C149.9 7.5 149.5 7.1 149.5 6.5C149.5 5.9 149.9 5.5 150.5 5.5C151.2 5.5 151.9 5.5 152.5 5.6C153 5.7 153.4 6.2 153.4 6.7C153.4 7.2 152.9 7.6 152.4 7.6Z" fill="#FFBFCD"/>
<path d="M126 29H120C120 29.7 120.1 30.3 120.1 31H126.1C126.1 30.3 126 29.7 126 29Z" fill="#F48BA2"/>
<path d="M126.2 24H120.2C120.1 24.7 120.1 25.3 120 26H126C126.1 25.3 126.1 24.7 126.2 24Z" fill="#F48BA2"/>
<path d="M126.5 34H120.5C120.6 34.7 120.8 35.3 121 36H127C126.8 35.3 126.7 34.7 126.5 34Z" fill="#F48BA2"/>
<path d="M127.9 39H121.9C122.2 39.7 122.4 40.3 122.7 41H128.7C128.5 40.3 128.2 39.7 127.9 39Z" fill="#F48BA2"/>
<path d="M127.3 19H121.3C121.1 19.7 120.9 20.3 120.8 21H126.8C126.9 20.3 127.1 19.7 127.3 19Z" fill="#F48BA2"/>
<path d="M129.3 14H123.3C123 14.7 122.7 15.3 122.4 16H128.4C128.6 15.3 128.9 14.7 129.3 14Z" fill="#F48BA2"/>
<path d="M133.3 8H127.3C126.7 8.6 126.2 9.3 125.7 10H131.7C132.2 9.3 132.8 8.6 133.3 8Z" fill="#F48BA2"/>
<path d="M139.5 3H133.5C132.5 3.6 131.5 4.3 130.6 5H136.6C137.5 4.3 138.4 3.6 139.5 3Z" fill="#F48BA2"/>
<path d="M131 45H125C125.5 45.7 126 46.4 126.5 47H132.5C132 46.4 131.5 45.7 131 45Z" fill="#F48BA2"/>
<path d="M129.3 50C130.1 50.7 130.9 51.4 131.8 52H137.8C136.9 51.4 136.1 50.7 135.3 50H129.3Z" fill="#F48BA2"/>
<path d="M151.998 33.1802H148.067V36H144.991V33.1802H142.488V30.7021H144.991V29.396H142.488V26.918H144.991V18.2266H151.79C153.751 18.2266 155.318 18.7393 156.49 19.7646C157.662 20.7819 158.248 22.1369 158.248 23.8296C158.248 25.5549 157.69 26.9098 156.575 27.8945C155.46 28.8711 153.91 29.3716 151.924 29.396H148.067V30.7021H151.998V33.1802ZM148.067 26.918H151.741C152.848 26.918 153.694 26.6616 154.28 26.1489C154.866 25.6362 155.159 24.8713 155.159 23.854C155.159 22.9425 154.87 22.1979 154.292 21.6201C153.723 21.0423 152.933 20.7412 151.924 20.7168H148.067V26.918Z" fill="#F48BA2"/>
<path d="M165.5 56C152 56 141 43.5 141 28C141 12.5 152 0 165.5 0C179 0 190 12.5 190 28C190 43.5 179 56 165.5 56Z" fill="#FEEBEF"/>
<path d="M141 28C141 13.7 150.4 1.9 162.5 0.2C161.5 0.1 160.5 0 159.5 0C146 0 135 12.5 135 28C135 43.5 146 56 159.5 56C160.5 56 161.5 55.9 162.5 55.8C150.4 54.1 141 42.3 141 28Z" fill="#FFBFCD"/>
<path d="M165.6 50.5C164.8 50.5 164.1 50.5 163.4 50.4C162.9 50.3 162.5 49.8 162.5 49.3C162.6 48.8 163.1 48.4 163.6 48.4C164.2 48.5 164.8 48.5 165.5 48.5C166.1 48.5 166.5 48.9 166.5 49.5C166.5 50.1 166.1 50.5 165.6 50.5ZM171.4 49.4C171 49.4 170.6 49.2 170.5 48.8C170.3 48.3 170.6 47.7 171.1 47.5C171.7 47.3 172.3 47 172.8 46.7C173.3 46.4 173.9 46.6 174.1 47.1C174.4 47.6 174.2 48.2 173.7 48.4C173.1 48.7 172.4 49 171.8 49.2C171.6 49.4 171.5 49.4 171.4 49.4ZM157.9 48.7C157.7 48.7 157.6 48.7 157.4 48.6C156.8 48.3 156.2 47.9 155.6 47.6C155.1 47.3 155 46.7 155.3 46.2C155.6 45.7 156.2 45.6 156.7 45.9C157.2 46.2 157.8 46.6 158.3 46.8C158.8 47.1 159 47.7 158.7 48.1C158.6 48.5 158.2 48.7 157.9 48.7ZM178 45.1C177.7 45.1 177.5 45 177.3 44.8C176.9 44.4 176.9 43.8 177.3 43.4C177.7 43 178.2 42.5 178.6 42C178.9 41.6 179.6 41.5 180 41.9C180.4 42.3 180.5 42.9 180.1 43.3C179.7 43.8 179.2 44.4 178.7 44.8C178.5 45 178.2 45.1 178 45.1ZM151.8 43.7C151.5 43.7 151.2 43.6 151 43.3C150.6 42.8 150.1 42.2 149.8 41.6C149.5 41.1 149.6 40.5 150.1 40.2C150.6 39.9 151.2 40 151.5 40.5C151.9 41 152.2 41.5 152.6 42C153 42.4 152.9 43.1 152.5 43.4C152.2 43.6 152 43.7 151.8 43.7ZM182.4 38.6C182.3 38.6 182.1 38.6 182 38.5C181.5 38.3 181.3 37.7 181.5 37.2C181.8 36.6 182 36 182.2 35.4C182.4 34.9 182.9 34.6 183.5 34.8C184 35 184.3 35.5 184.1 36.1C183.9 36.8 183.6 37.4 183.4 38C183.1 38.4 182.8 38.6 182.4 38.6ZM147.9 36.8C147.5 36.8 147.1 36.5 147 36.1C146.8 35.5 146.6 34.8 146.4 34.1C146.3 33.6 146.6 33 147.1 32.9C147.6 32.8 148.2 33.1 148.3 33.6C148.5 34.2 148.6 34.8 148.8 35.4C149 35.9 148.7 36.5 148.2 36.7C148.2 36.8 148.1 36.8 147.9 36.8ZM184.3 30.9C184.2 30.9 184.2 30.9 184.3 30.9C183.7 30.9 183.3 30.4 183.3 29.8C183.3 29.2 183.4 28.6 183.4 28C183.4 27.4 183.8 27 184.4 27C185 27 185.4 27.4 185.4 28V28C185.4 28.7 185.4 29.3 185.3 30C185.2 30.5 184.8 30.9 184.3 30.9ZM146.7 29C146.1 29 145.7 28.6 145.7 28C145.7 27.3 145.7 26.6 145.8 26C145.8 25.5 146.3 25 146.9 25.1C147.5 25.1 147.9 25.6 147.8 26.2C147.8 26.8 147.7 27.5 147.7 28.1C147.7 28.6 147.2 29 146.7 29ZM183.6 23C183.2 23 182.7 22.7 182.6 22.2C182.4 21.6 182.3 21 182.1 20.4C181.9 19.9 182.2 19.3 182.7 19.1C183.2 18.9 183.8 19.2 184 19.7C184.2 20.3 184.4 21 184.6 21.7C184.7 22.2 184.4 22.8 183.9 22.9C183.8 23 183.7 23 183.6 23ZM147.9 21.2C147.8 21.2 147.7 21.2 147.6 21.1C147.1 20.9 146.8 20.4 147 19.8C147.2 19.2 147.5 18.5 147.7 17.9C147.9 17.4 148.5 17.2 149 17.4C149.5 17.6 149.7 18.2 149.5 18.7C149.2 19.3 149 19.9 148.8 20.5C148.7 21 148.3 21.2 147.9 21.2ZM180.4 15.8C180.1 15.8 179.8 15.6 179.6 15.4C179.2 14.9 178.9 14.4 178.5 13.9C178.1 13.5 178.2 12.8 178.6 12.5C179 12.1 179.7 12.2 180 12.6C180.4 13.1 180.9 13.7 181.2 14.3C181.5 14.8 181.4 15.4 180.9 15.7C180.8 15.8 180.6 15.8 180.4 15.8ZM151.7 14.3C151.5 14.3 151.3 14.2 151.1 14.1C150.7 13.8 150.6 13.1 151 12.7C151.4 12.2 151.9 11.6 152.4 11.2C152.8 10.8 153.4 10.8 153.8 11.2C154.2 11.6 154.2 12.2 153.8 12.6C153.4 13 152.9 13.5 152.5 14C152.3 14.2 152 14.3 151.7 14.3ZM174.8 10.3C174.6 10.3 174.4 10.2 174.3 10.1C173.8 9.8 173.2 9.4 172.7 9.2C172.2 9 172 8.3 172.3 7.9C172.5 7.4 173.1 7.2 173.6 7.5C174.2 7.8 174.8 8.2 175.4 8.5C175.9 8.8 176 9.4 175.7 9.9C175.5 10.1 175.1 10.3 174.8 10.3ZM157.8 9.3C157.4 9.3 157.1 9.1 156.9 8.8C156.6 8.3 156.8 7.7 157.3 7.5C157.9 7.2 158.6 6.9 159.2 6.7C159.7 6.5 160.3 6.8 160.5 7.3C160.7 7.8 160.4 8.4 159.9 8.6C159.3 8.8 158.7 9.1 158.2 9.4C158.1 9.3 158 9.3 157.8 9.3ZM167.4 7.6H167.3C166.7 7.5 166.1 7.5 165.5 7.5C164.9 7.5 164.5 7.1 164.5 6.5C164.5 5.9 164.9 5.5 165.5 5.5C166.2 5.5 166.9 5.5 167.5 5.6C168 5.7 168.4 6.2 168.4 6.7C168.4 7.2 167.9 7.6 167.4 7.6Z" fill="#FFBFCD"/>
<path d="M141 29H135C135 29.7 135.1 30.3 135.1 31H141.1C141.1 30.3 141 29.7 141 29Z" fill="#F48BA2"/>
<path d="M141.2 24H135.2C135.1 24.7 135.1 25.3 135 26H141C141.1 25.3 141.1 24.7 141.2 24Z" fill="#F48BA2"/>
<path d="M141.5 34H135.5C135.6 34.7 135.8 35.3 136 36H142C141.8 35.3 141.7 34.7 141.5 34Z" fill="#F48BA2"/>
<path d="M142.9 39H136.9C137.2 39.7 137.4 40.3 137.7 41H143.7C143.5 40.3 143.2 39.7 142.9 39Z" fill="#F48BA2"/>
<path d="M142.3 19H136.3C136.1 19.7 135.9 20.3 135.8 21H141.8C141.9 20.3 142.1 19.7 142.3 19Z" fill="#F48BA2"/>
<path d="M144.3 14H138.3C138 14.7 137.7 15.3 137.4 16H143.4C143.6 15.3 143.9 14.7 144.3 14Z" fill="#F48BA2"/>
<path d="M148.3 8H142.3C141.7 8.6 141.2 9.3 140.7 10H146.7C147.2 9.3 147.8 8.6 148.3 8Z" fill="#F48BA2"/>
<path d="M154.5 3H148.5C147.5 3.6 146.5 4.3 145.6 5H151.6C152.5 4.3 153.4 3.6 154.5 3Z" fill="#F48BA2"/>
<path d="M146 45H140C140.5 45.7 141 46.4 141.5 47H147.5C147 46.4 146.5 45.7 146 45Z" fill="#F48BA2"/>
<path d="M144.3 50C145.1 50.7 145.9 51.4 146.8 52H152.8C151.9 51.4 151.1 50.7 150.3 50H144.3Z" fill="#F48BA2"/>
<path d="M166.998 33.1802H163.067V36H159.991V33.1802H157.488V30.7021H159.991V29.396H157.488V26.918H159.991V18.2266H166.79C168.751 18.2266 170.318 18.7393 171.49 19.7646C172.662 20.7819 173.248 22.1369 173.248 23.8296C173.248 25.5549 172.69 26.9098 171.575 27.8945C170.46 28.8711 168.91 29.3716 166.924 29.396H163.067V30.7021H166.998V33.1802ZM163.067 26.918H166.741C167.848 26.918 168.694 26.6616 169.28 26.1489C169.866 25.6362 170.159 24.8713 170.159 23.854C170.159 22.9425 169.87 22.1979 169.292 21.6201C168.723 21.0423 167.933 20.7412 166.924 20.7168H163.067V26.918Z" fill="#F48BA2"/>
</svg>
