<svg width="163" height="56" viewBox="0 0 163 56" fill="none" xmlns="http://www.w3.org/2000/svg">
<path d="M30.5 56C17 56 6 43.5 6 28C6 12.5 17 0 30.5 0C44 0 55 12.5 55 28C55 43.5 44 56 30.5 56Z" fill="#FEEBEF"/>
<path d="M6 28C6 13.7 15.4 1.9 27.5 0.2C26.5 0.1 25.5 0 24.5 0C11 0 0 12.5 0 28C0 43.5 11 56 24.5 56C25.5 56 26.5 55.9 27.5 55.8C15.4 54.1 6 42.3 6 28Z" fill="#FFBFCD"/>
<path d="M30.6 50.5C29.8 50.5 29.1 50.5 28.4 50.4C27.9 50.3 27.5 49.8 27.5 49.3C27.6 48.8 28.1 48.4 28.6 48.4C29.2 48.5 29.8 48.5 30.5 48.5C31.1 48.5 31.5 48.9 31.5 49.5C31.5 50.1 31.1 50.5 30.6 50.5ZM36.4 49.4C36 49.4 35.6 49.2 35.5 48.8C35.3 48.3 35.5999 47.7 36.0999 47.5C36.6999 47.3 37.2999 47 37.7999 46.7C38.2999 46.4 38.8999 46.6 39.0999 47.1C39.3999 47.6 39.2 48.2 38.7 48.4C38.1 48.7 37.3999 49 36.7999 49.2C36.5999 49.4 36.5 49.4 36.4 49.4ZM22.9 48.7C22.7 48.7 22.6 48.7 22.4 48.6C21.8 48.3 21.2 47.9 20.6 47.6C20.1 47.3 20 46.7 20.3 46.2C20.6 45.7 21.2 45.6 21.7 45.9C22.2 46.2 22.8 46.6 23.3 46.8C23.8 47.1 24 47.7 23.7 48.1C23.6 48.5 23.2 48.7 22.9 48.7ZM43 45.1C42.7 45.1 42.4999 45 42.2999 44.8C41.8999 44.4 41.8999 43.8 42.2999 43.4C42.6999 43 43.1999 42.5 43.5999 42C43.8999 41.6 44.6 41.5 45 41.9C45.4 42.3 45.4999 42.9 45.0999 43.3C44.6999 43.8 44.2 44.4 43.7 44.8C43.5 45 43.2 45.1 43 45.1ZM16.8 43.7C16.5 43.7 16.2 43.6 16 43.3C15.6 42.8 15.1 42.2 14.8 41.6C14.5 41.1 14.6 40.5 15.1 40.2C15.6 39.9 16.2 40 16.5 40.5C16.9 41 17.2 41.5 17.6 42C18 42.4 17.9 43.1 17.5 43.4C17.2 43.6 17 43.7 16.8 43.7ZM47.4 38.6C47.3 38.6 47.1 38.6 47 38.5C46.5 38.3 46.3 37.7 46.5 37.2C46.8 36.6 47 36 47.2 35.4C47.4 34.9 47.9 34.6 48.5 34.8C49 35 49.2999 35.5 49.0999 36.1C48.8999 36.8 48.6 37.4 48.4 38C48.1 38.4 47.8 38.6 47.4 38.6ZM12.9 36.8C12.5 36.8 12.1 36.5 12 36.1C11.8 35.5 11.6 34.8 11.4 34.1C11.3 33.6 11.6 33 12.1 32.9C12.6 32.8 13.2 33.1 13.3 33.6C13.5 34.2 13.6 34.8 13.8 35.4C14 35.9 13.7 36.5 13.2 36.7C13.2 36.8 13.1 36.8 12.9 36.8ZM49.2999 30.9C49.1999 30.9 49.1999 30.9 49.2999 30.9C48.6999 30.9 48.2999 30.4 48.2999 29.8C48.2999 29.2 48.4 28.6 48.4 28C48.4 27.4 48.8 27 49.4 27C50 27 50.4 27.4 50.4 28V28C50.4 28.7 50.3999 29.3 50.2999 30C50.1999 30.5 49.7999 30.9 49.2999 30.9ZM11.7 29C11.1 29 10.7 28.6 10.7 28C10.7 27.3 10.7 26.6 10.8 26C10.8 25.5 11.3 25 11.9 25.1C12.5 25.1 12.9 25.6 12.8 26.2C12.8 26.8 12.7 27.5 12.7 28.1C12.7 28.6 12.2 29 11.7 29ZM48.5999 23C48.1999 23 47.6999 22.7 47.5999 22.2C47.3999 21.6 47.2999 21 47.0999 20.4C46.8999 19.9 47.2 19.3 47.7 19.1C48.2 18.9 48.8 19.2 49 19.7C49.2 20.3 49.3999 21 49.5999 21.7C49.6999 22.2 49.4 22.8 48.9 22.9C48.8 23 48.6999 23 48.5999 23ZM12.9 21.2C12.8 21.2 12.7 21.2 12.6 21.1C12.1 20.9 11.8 20.4 12 19.8C12.2 19.2 12.5 18.5 12.7 17.9C12.9 17.4 13.5 17.2 14 17.4C14.5 17.6 14.7 18.2 14.5 18.7C14.2 19.3 14 19.9 13.8 20.5C13.7 21 13.3 21.2 12.9 21.2ZM45.4 15.8C45.1 15.8 44.7999 15.6 44.5999 15.4C44.1999 14.9 43.9 14.4 43.5 13.9C43.1 13.5 43.1999 12.8 43.5999 12.5C43.9999 12.1 44.7 12.2 45 12.6C45.4 13.1 45.9 13.7 46.2 14.3C46.5 14.8 46.4 15.4 45.9 15.7C45.8 15.8 45.6 15.8 45.4 15.8ZM16.7 14.3C16.5 14.3 16.3 14.2 16.1 14.1C15.7 13.8 15.6 13.1 16 12.7C16.4 12.2 16.9 11.6 17.4 11.2C17.8 10.8 18.4 10.8 18.8 11.2C19.2 11.6 19.2 12.2 18.8 12.6C18.4 13 17.9 13.5 17.5 14C17.3 14.2 17 14.3 16.7 14.3ZM39.7999 10.3C39.5999 10.3 39.3999 10.2 39.2999 10.1C38.7999 9.8 38.2 9.4 37.7 9.2C37.2 9 36.9999 8.3 37.2999 7.9C37.4999 7.4 38.0999 7.2 38.5999 7.5C39.1999 7.8 39.8 8.2 40.4 8.5C40.9 8.8 41 9.4 40.7 9.9C40.5 10.1 40.0999 10.3 39.7999 10.3ZM22.8 9.3C22.4 9.3 22.1 9.1 21.9 8.8C21.6 8.3 21.8 7.7 22.3 7.5C22.9 7.2 23.6 6.9 24.2 6.7C24.7 6.5 25.3 6.8 25.5 7.3C25.7 7.8 25.4 8.4 24.9 8.6C24.3 8.8 23.7 9.1 23.2 9.4C23.1 9.3 23 9.3 22.8 9.3ZM32.4 7.6H32.2999C31.6999 7.5 31.1 7.5 30.5 7.5C29.9 7.5 29.5 7.1 29.5 6.5C29.5 5.9 29.9 5.5 30.5 5.5C31.2 5.5 31.9 5.5 32.5 5.6C33 5.7 33.4 6.2 33.4 6.7C33.4 7.2 32.9 7.6 32.4 7.6Z" fill="#FFBFCD"/>
<path d="M6 29H0C0 29.7 0.1 30.3 0.1 31H6.1C6.1 30.3 6 29.7 6 29Z" fill="#F48BA2"/>
<path d="M6.2 24H0.2C0.1 24.7 0.1 25.3 0 26H6C6.1 25.3 6.1 24.7 6.2 24Z" fill="#F48BA2"/>
<path d="M6.5 34H0.5C0.6 34.7 0.8 35.3 1 36H7C6.8 35.3 6.7 34.7 6.5 34Z" fill="#F48BA2"/>
<path d="M7.90002 39H1.90002C2.20002 39.7 2.40002 40.3 2.70002 41H8.70002C8.50002 40.3 8.20002 39.7 7.90002 39Z" fill="#F48BA2"/>
<path d="M7.30005 19H1.30005C1.10005 19.7 0.900049 20.3 0.800049 21H6.80005C6.90005 20.3 7.10005 19.7 7.30005 19Z" fill="#F48BA2"/>
<path d="M9.30002 14H3.30002C3.00002 14.7 2.70002 15.3 2.40002 16H8.40002C8.60002 15.3 8.90002 14.7 9.30002 14Z" fill="#F48BA2"/>
<path d="M13.3 8H7.29995C6.69995 8.6 6.19995 9.3 5.69995 10H11.7C12.2 9.3 12.8 8.6 13.3 8Z" fill="#F48BA2"/>
<path d="M19.5 3H13.5C12.5 3.6 11.5 4.3 10.6 5H16.6C17.5 4.3 18.4 3.6 19.5 3Z" fill="#F48BA2"/>
<path d="M11 45H5C5.5 45.7 6 46.4 6.5 47H12.5C12 46.4 11.5 45.7 11 45Z" fill="#F48BA2"/>
<path d="M9.30005 50C10.1 50.7 10.9 51.4 11.8 52H17.8C16.9 51.4 16.1 50.7 15.3 50H9.30005Z" fill="#F48BA2"/>
<path d="M31.9976 33.1802H28.0669V36H24.9907V33.1802H22.4883V30.7021H24.9907V29.396H22.4883V26.918H24.9907V18.2266H31.79C33.7513 18.2266 35.3179 18.7393 36.4897 19.7646C37.6616 20.7819 38.2476 22.1369 38.2476 23.8296C38.2476 25.5549 37.6901 26.9098 36.5752 27.8945C35.4603 28.8711 33.91 29.3716 31.9243 29.396H28.0669V30.7021H31.9976V33.1802ZM28.0669 26.918H31.7412C32.848 26.918 33.6943 26.6616 34.2803 26.1489C34.8662 25.6362 35.1592 24.8713 35.1592 23.854C35.1592 22.9425 34.8703 22.1979 34.2925 21.6201C33.7228 21.0423 32.9334 20.7412 31.9243 20.7168H28.0669V26.918Z" fill="#F48BA2"/>
<path d="M45.5 56C32 56 21 43.5 21 28C21 12.5 32 0 45.5 0C59 0 70 12.5 70 28C70 43.5 59 56 45.5 56Z" fill="#FEEBEF"/>
<path d="M21 28C21 13.7 30.4 1.9 42.5 0.2C41.5 0.1 40.5 0 39.5 0C26 0 15 12.5 15 28C15 43.5 26 56 39.5 56C40.5 56 41.5 55.9 42.5 55.8C30.4 54.1 21 42.3 21 28Z" fill="#FFBFCD"/>
<path d="M45.6 50.5C44.8 50.5 44.1 50.5 43.4 50.4C42.9 50.3 42.5 49.8 42.5 49.3C42.6 48.8 43.1 48.4 43.6 48.4C44.2 48.5 44.8 48.5 45.5 48.5C46.1 48.5 46.5 48.9 46.5 49.5C46.5 50.1 46.1 50.5 45.6 50.5ZM51.4 49.4C51 49.4 50.6 49.2 50.5 48.8C50.3 48.3 50.5999 47.7 51.0999 47.5C51.6999 47.3 52.2999 47 52.7999 46.7C53.2999 46.4 53.8999 46.6 54.0999 47.1C54.3999 47.6 54.2 48.2 53.7 48.4C53.1 48.7 52.3999 49 51.7999 49.2C51.5999 49.4 51.5 49.4 51.4 49.4ZM37.9 48.7C37.7 48.7 37.6 48.7 37.4 48.6C36.8 48.3 36.2 47.9 35.6 47.6C35.1 47.3 35 46.7 35.3 46.2C35.6 45.7 36.2 45.6 36.7 45.9C37.2 46.2 37.8 46.6 38.3 46.8C38.8 47.1 39 47.7 38.7 48.1C38.6 48.5 38.2 48.7 37.9 48.7ZM58 45.1C57.7 45.1 57.4999 45 57.2999 44.8C56.8999 44.4 56.8999 43.8 57.2999 43.4C57.6999 43 58.1999 42.5 58.5999 42C58.8999 41.6 59.6 41.5 60 41.9C60.4 42.3 60.4999 42.9 60.0999 43.3C59.6999 43.8 59.2 44.4 58.7 44.8C58.5 45 58.2 45.1 58 45.1ZM31.8 43.7C31.5 43.7 31.2 43.6 31 43.3C30.6 42.8 30.1 42.2 29.8 41.6C29.5 41.1 29.6 40.5 30.1 40.2C30.6 39.9 31.2 40 31.5 40.5C31.9 41 32.2 41.5 32.6 42C33 42.4 32.9 43.1 32.5 43.4C32.2 43.6 32 43.7 31.8 43.7ZM62.4 38.6C62.3 38.6 62.1 38.6 62 38.5C61.5 38.3 61.3 37.7 61.5 37.2C61.8 36.6 62 36 62.2 35.4C62.4 34.9 62.9 34.6 63.5 34.8C64 35 64.2999 35.5 64.0999 36.1C63.8999 36.8 63.6 37.4 63.4 38C63.1 38.4 62.8 38.6 62.4 38.6ZM27.9 36.8C27.5 36.8 27.1 36.5 27 36.1C26.8 35.5 26.6 34.8 26.4 34.1C26.3 33.6 26.6 33 27.1 32.9C27.6 32.8 28.2 33.1 28.3 33.6C28.5 34.2 28.6 34.8 28.8 35.4C29 35.9 28.7 36.5 28.2 36.7C28.2 36.8 28.1 36.8 27.9 36.8ZM64.2999 30.9C64.1999 30.9 64.1999 30.9 64.2999 30.9C63.6999 30.9 63.2999 30.4 63.2999 29.8C63.2999 29.2 63.4 28.6 63.4 28C63.4 27.4 63.8 27 64.4 27C65 27 65.4 27.4 65.4 28V28C65.4 28.7 65.3999 29.3 65.2999 30C65.1999 30.5 64.7999 30.9 64.2999 30.9ZM26.7 29C26.1 29 25.7 28.6 25.7 28C25.7 27.3 25.7 26.6 25.8 26C25.8 25.5 26.3 25 26.9 25.1C27.5 25.1 27.9 25.6 27.8 26.2C27.8 26.8 27.7 27.5 27.7 28.1C27.7 28.6 27.2 29 26.7 29ZM63.5999 23C63.1999 23 62.6999 22.7 62.5999 22.2C62.3999 21.6 62.2999 21 62.0999 20.4C61.8999 19.9 62.2 19.3 62.7 19.1C63.2 18.9 63.8 19.2 64 19.7C64.2 20.3 64.3999 21 64.5999 21.7C64.6999 22.2 64.4 22.8 63.9 22.9C63.8 23 63.6999 23 63.5999 23ZM27.9 21.2C27.8 21.2 27.7 21.2 27.6 21.1C27.1 20.9 26.8 20.4 27 19.8C27.2 19.2 27.5 18.5 27.7 17.9C27.9 17.4 28.5 17.2 29 17.4C29.5 17.6 29.7 18.2 29.5 18.7C29.2 19.3 29 19.9 28.8 20.5C28.7 21 28.3 21.2 27.9 21.2ZM60.4 15.8C60.1 15.8 59.7999 15.6 59.5999 15.4C59.1999 14.9 58.9 14.4 58.5 13.9C58.1 13.5 58.1999 12.8 58.5999 12.5C58.9999 12.1 59.7 12.2 60 12.6C60.4 13.1 60.9 13.7 61.2 14.3C61.5 14.8 61.4 15.4 60.9 15.7C60.8 15.8 60.6 15.8 60.4 15.8ZM31.7 14.3C31.5 14.3 31.3 14.2 31.1 14.1C30.7 13.8 30.6 13.1 31 12.7C31.4 12.2 31.9 11.6 32.4 11.2C32.8 10.8 33.4 10.8 33.8 11.2C34.2 11.6 34.2 12.2 33.8 12.6C33.4 13 32.9 13.5 32.5 14C32.3 14.2 32 14.3 31.7 14.3ZM54.7999 10.3C54.5999 10.3 54.3999 10.2 54.2999 10.1C53.7999 9.8 53.2 9.4 52.7 9.2C52.2 9 51.9999 8.3 52.2999 7.9C52.4999 7.4 53.0999 7.2 53.5999 7.5C54.1999 7.8 54.8 8.2 55.4 8.5C55.9 8.8 56 9.4 55.7 9.9C55.5 10.1 55.0999 10.3 54.7999 10.3ZM37.8 9.3C37.4 9.3 37.1 9.1 36.9 8.8C36.6 8.3 36.8 7.7 37.3 7.5C37.9 7.2 38.6 6.9 39.2 6.7C39.7 6.5 40.3 6.8 40.5 7.3C40.7 7.8 40.4 8.4 39.9 8.6C39.3 8.8 38.7 9.1 38.2 9.4C38.1 9.3 38 9.3 37.8 9.3ZM47.4 7.6H47.2999C46.6999 7.5 46.1 7.5 45.5 7.5C44.9 7.5 44.5 7.1 44.5 6.5C44.5 5.9 44.9 5.5 45.5 5.5C46.2 5.5 46.9 5.5 47.5 5.6C48 5.7 48.4 6.2 48.4 6.7C48.4 7.2 47.9 7.6 47.4 7.6Z" fill="#FFBFCD"/>
<path d="M21 29H15C15 29.7 15.1 30.3 15.1 31H21.1C21.1 30.3 21 29.7 21 29Z" fill="#F48BA2"/>
<path d="M21.2 24H15.2C15.1 24.7 15.1 25.3 15 26H21C21.1 25.3 21.1 24.7 21.2 24Z" fill="#F48BA2"/>
<path d="M21.5 34H15.5C15.6 34.7 15.8 35.3 16 36H22C21.8 35.3 21.7 34.7 21.5 34Z" fill="#F48BA2"/>
<path d="M22.9 39H16.9C17.2 39.7 17.4 40.3 17.7 41H23.7C23.5 40.3 23.2 39.7 22.9 39Z" fill="#F48BA2"/>
<path d="M22.3 19H16.3C16.1 19.7 15.9 20.3 15.8 21H21.8C21.9 20.3 22.1 19.7 22.3 19Z" fill="#F48BA2"/>
<path d="M24.3 14H18.3C18 14.7 17.7 15.3 17.4 16H23.4C23.6 15.3 23.9 14.7 24.3 14Z" fill="#F48BA2"/>
<path d="M28.3 8H22.3C21.7 8.6 21.2 9.3 20.7 10H26.7C27.2 9.3 27.8 8.6 28.3 8Z" fill="#F48BA2"/>
<path d="M34.5 3H28.5C27.5 3.6 26.5 4.3 25.6 5H31.6C32.5 4.3 33.4 3.6 34.5 3Z" fill="#F48BA2"/>
<path d="M26 45H20C20.5 45.7 21 46.4 21.5 47H27.5C27 46.4 26.5 45.7 26 45Z" fill="#F48BA2"/>
<path d="M24.3 50C25.1 50.7 25.9 51.4 26.8 52H32.8C31.9 51.4 31.1 50.7 30.3 50H24.3Z" fill="#F48BA2"/>
<path d="M46.9976 33.1802H43.0669V36H39.9907V33.1802H37.4883V30.7021H39.9907V29.396H37.4883V26.918H39.9907V18.2266H46.79C48.7513 18.2266 50.3179 18.7393 51.4897 19.7646C52.6616 20.7819 53.2476 22.1369 53.2476 23.8296C53.2476 25.5549 52.6901 26.9098 51.5752 27.8945C50.4603 28.8711 48.91 29.3716 46.9243 29.396H43.0669V30.7021H46.9976V33.1802ZM43.0669 26.918H46.7412C47.848 26.918 48.6943 26.6616 49.2803 26.1489C49.8662 25.6362 50.1592 24.8713 50.1592 23.854C50.1592 22.9425 49.8703 22.1979 49.2925 21.6201C48.7228 21.0423 47.9334 20.7412 46.9243 20.7168H43.0669V26.918Z" fill="#F48BA2"/>
<path d="M61.5 56C48 56 37 43.5 37 28C37 12.5 48 0 61.5 0C75 0 86 12.5 86 28C86 43.5 75 56 61.5 56Z" fill="#FEEBEF"/>
<path d="M37 28C37 13.7 46.4 1.9 58.5 0.2C57.5 0.1 56.5 0 55.5 0C42 0 31 12.5 31 28C31 43.5 42 56 55.5 56C56.5 56 57.5 55.9 58.5 55.8C46.4 54.1 37 42.3 37 28Z" fill="#FFBFCD"/>
<path d="M61.6 50.5C60.8 50.5 60.1 50.5 59.4 50.4C58.9 50.3 58.5 49.8 58.5 49.3C58.6 48.8 59.1 48.4 59.6 48.4C60.2 48.5 60.8 48.5 61.5 48.5C62.1 48.5 62.5 48.9 62.5 49.5C62.5 50.1 62.1 50.5 61.6 50.5ZM67.4 49.4C67 49.4 66.6 49.2 66.5 48.8C66.3 48.3 66.5999 47.7 67.0999 47.5C67.6999 47.3 68.2999 47 68.7999 46.7C69.2999 46.4 69.8999 46.6 70.0999 47.1C70.3999 47.6 70.2 48.2 69.7 48.4C69.1 48.7 68.3999 49 67.7999 49.2C67.5999 49.4 67.5 49.4 67.4 49.4ZM53.9 48.7C53.7 48.7 53.6 48.7 53.4 48.6C52.8 48.3 52.2 47.9 51.6 47.6C51.1 47.3 51 46.7 51.3 46.2C51.6 45.7 52.2 45.6 52.7 45.9C53.2 46.2 53.8 46.6 54.3 46.8C54.8 47.1 55 47.7 54.7 48.1C54.6 48.5 54.2 48.7 53.9 48.7ZM74 45.1C73.7 45.1 73.4999 45 73.2999 44.8C72.8999 44.4 72.8999 43.8 73.2999 43.4C73.6999 43 74.1999 42.5 74.5999 42C74.8999 41.6 75.6 41.5 76 41.9C76.4 42.3 76.4999 42.9 76.0999 43.3C75.6999 43.8 75.2 44.4 74.7 44.8C74.5 45 74.2 45.1 74 45.1ZM47.8 43.7C47.5 43.7 47.2 43.6 47 43.3C46.6 42.8 46.1 42.2 45.8 41.6C45.5 41.1 45.6 40.5 46.1 40.2C46.6 39.9 47.2 40 47.5 40.5C47.9 41 48.2 41.5 48.6 42C49 42.4 48.9 43.1 48.5 43.4C48.2 43.6 48 43.7 47.8 43.7ZM78.4 38.6C78.3 38.6 78.1 38.6 78 38.5C77.5 38.3 77.3 37.7 77.5 37.2C77.8 36.6 78 36 78.2 35.4C78.4 34.9 78.9 34.6 79.5 34.8C80 35 80.2999 35.5 80.0999 36.1C79.8999 36.8 79.6 37.4 79.4 38C79.1 38.4 78.8 38.6 78.4 38.6ZM43.9 36.8C43.5 36.8 43.1 36.5 43 36.1C42.8 35.5 42.6 34.8 42.4 34.1C42.3 33.6 42.6 33 43.1 32.9C43.6 32.8 44.2 33.1 44.3 33.6C44.5 34.2 44.6 34.8 44.8 35.4C45 35.9 44.7 36.5 44.2 36.7C44.2 36.8 44.1 36.8 43.9 36.8ZM80.2999 30.9C80.1999 30.9 80.1999 30.9 80.2999 30.9C79.6999 30.9 79.2999 30.4 79.2999 29.8C79.2999 29.2 79.4 28.6 79.4 28C79.4 27.4 79.8 27 80.4 27C81 27 81.4 27.4 81.4 28V28C81.4 28.7 81.3999 29.3 81.2999 30C81.1999 30.5 80.7999 30.9 80.2999 30.9ZM42.7 29C42.1 29 41.7 28.6 41.7 28C41.7 27.3 41.7 26.6 41.8 26C41.8 25.5 42.3 25 42.9 25.1C43.5 25.1 43.9 25.6 43.8 26.2C43.8 26.8 43.7 27.5 43.7 28.1C43.7 28.6 43.2 29 42.7 29ZM79.5999 23C79.1999 23 78.6999 22.7 78.5999 22.2C78.3999 21.6 78.2999 21 78.0999 20.4C77.8999 19.9 78.2 19.3 78.7 19.1C79.2 18.9 79.8 19.2 80 19.7C80.2 20.3 80.3999 21 80.5999 21.7C80.6999 22.2 80.4 22.8 79.9 22.9C79.8 23 79.6999 23 79.5999 23ZM43.9 21.2C43.8 21.2 43.7 21.2 43.6 21.1C43.1 20.9 42.8 20.4 43 19.8C43.2 19.2 43.5 18.5 43.7 17.9C43.9 17.4 44.5 17.2 45 17.4C45.5 17.6 45.7 18.2 45.5 18.7C45.2 19.3 45 19.9 44.8 20.5C44.7 21 44.3 21.2 43.9 21.2ZM76.4 15.8C76.1 15.8 75.7999 15.6 75.5999 15.4C75.1999 14.9 74.9 14.4 74.5 13.9C74.1 13.5 74.1999 12.8 74.5999 12.5C74.9999 12.1 75.7 12.2 76 12.6C76.4 13.1 76.9 13.7 77.2 14.3C77.5 14.8 77.4 15.4 76.9 15.7C76.8 15.8 76.6 15.8 76.4 15.8ZM47.7 14.3C47.5 14.3 47.3 14.2 47.1 14.1C46.7 13.8 46.6 13.1 47 12.7C47.4 12.2 47.9 11.6 48.4 11.2C48.8 10.8 49.4 10.8 49.8 11.2C50.2 11.6 50.2 12.2 49.8 12.6C49.4 13 48.9 13.5 48.5 14C48.3 14.2 48 14.3 47.7 14.3ZM70.7999 10.3C70.5999 10.3 70.3999 10.2 70.2999 10.1C69.7999 9.8 69.2 9.4 68.7 9.2C68.2 9 67.9999 8.3 68.2999 7.9C68.4999 7.4 69.0999 7.2 69.5999 7.5C70.1999 7.8 70.8 8.2 71.4 8.5C71.9 8.8 72 9.4 71.7 9.9C71.5 10.1 71.0999 10.3 70.7999 10.3ZM53.8 9.3C53.4 9.3 53.1 9.1 52.9 8.8C52.6 8.3 52.8 7.7 53.3 7.5C53.9 7.2 54.6 6.9 55.2 6.7C55.7 6.5 56.3 6.8 56.5 7.3C56.7 7.8 56.4 8.4 55.9 8.6C55.3 8.8 54.7 9.1 54.2 9.4C54.1 9.3 54 9.3 53.8 9.3ZM63.4 7.6H63.2999C62.6999 7.5 62.1 7.5 61.5 7.5C60.9 7.5 60.5 7.1 60.5 6.5C60.5 5.9 60.9 5.5 61.5 5.5C62.2 5.5 62.9 5.5 63.5 5.6C64 5.7 64.4 6.2 64.4 6.7C64.4 7.2 63.9 7.6 63.4 7.6Z" fill="#FFBFCD"/>
<path d="M37 29H31C31 29.7 31.1 30.3 31.1 31H37.1C37.1 30.3 37 29.7 37 29Z" fill="#F48BA2"/>
<path d="M37.2 24H31.2C31.1 24.7 31.1 25.3 31 26H37C37.1 25.3 37.1 24.7 37.2 24Z" fill="#F48BA2"/>
<path d="M37.5 34H31.5C31.6 34.7 31.8 35.3 32 36H38C37.8 35.3 37.7 34.7 37.5 34Z" fill="#F48BA2"/>
<path d="M38.9 39H32.9C33.2 39.7 33.4 40.3 33.7 41H39.7C39.5 40.3 39.2 39.7 38.9 39Z" fill="#F48BA2"/>
<path d="M38.3 19H32.3C32.1 19.7 31.9 20.3 31.8 21H37.8C37.9 20.3 38.1 19.7 38.3 19Z" fill="#F48BA2"/>
<path d="M40.3 14H34.3C34 14.7 33.7 15.3 33.4 16H39.4C39.6 15.3 39.9 14.7 40.3 14Z" fill="#F48BA2"/>
<path d="M44.3 8H38.3C37.7 8.6 37.2 9.3 36.7 10H42.7C43.2 9.3 43.8 8.6 44.3 8Z" fill="#F48BA2"/>
<path d="M50.5 3H44.5C43.5 3.6 42.5 4.3 41.6 5H47.6C48.5 4.3 49.4 3.6 50.5 3Z" fill="#F48BA2"/>
<path d="M42 45H36C36.5 45.7 37 46.4 37.5 47H43.5C43 46.4 42.5 45.7 42 45Z" fill="#F48BA2"/>
<path d="M40.3 50C41.1 50.7 41.9 51.4 42.8 52H48.8C47.9 51.4 47.1 50.7 46.3 50H40.3Z" fill="#F48BA2"/>
<path d="M62.9976 33.1802H59.0669V36H55.9907V33.1802H53.4883V30.7021H55.9907V29.396H53.4883V26.918H55.9907V18.2266H62.79C64.7513 18.2266 66.3179 18.7393 67.4897 19.7646C68.6616 20.7819 69.2476 22.1369 69.2476 23.8296C69.2476 25.5549 68.6901 26.9098 67.5752 27.8945C66.4603 28.8711 64.91 29.3716 62.9243 29.396H59.0669V30.7021H62.9976V33.1802ZM59.0669 26.918H62.7412C63.848 26.918 64.6943 26.6616 65.2803 26.1489C65.8662 25.6362 66.1592 24.8713 66.1592 23.854C66.1592 22.9425 65.8703 22.1979 65.2925 21.6201C64.7228 21.0423 63.9334 20.7412 62.9243 20.7168H59.0669V26.918Z" fill="#F48BA2"/>
<path d="M76.5 56C63 56 52 43.5 52 28C52 12.5 63 0 76.5 0C90 0 101 12.5 101 28C101 43.5 90 56 76.5 56Z" fill="#FEEBEF"/>
<path d="M52 28C52 13.7 61.4 1.9 73.5 0.2C72.5 0.1 71.5 0 70.5 0C57 0 46 12.5 46 28C46 43.5 57 56 70.5 56C71.5 56 72.5 55.9 73.5 55.8C61.4 54.1 52 42.3 52 28Z" fill="#FFBFCD"/>
<path d="M76.6 50.5C75.8 50.5 75.1 50.5 74.4 50.4C73.9 50.3 73.5 49.8 73.5 49.3C73.6 48.8 74.1 48.4 74.6 48.4C75.2 48.5 75.8 48.5 76.5 48.5C77.1 48.5 77.5 48.9 77.5 49.5C77.5 50.1 77.1 50.5 76.6 50.5ZM82.4 49.4C82 49.4 81.6 49.2 81.5 48.8C81.3 48.3 81.5999 47.7 82.0999 47.5C82.6999 47.3 83.2999 47 83.7999 46.7C84.2999 46.4 84.8999 46.6 85.0999 47.1C85.3999 47.6 85.2 48.2 84.7 48.4C84.1 48.7 83.3999 49 82.7999 49.2C82.5999 49.4 82.5 49.4 82.4 49.4ZM68.9 48.7C68.7 48.7 68.6 48.7 68.4 48.6C67.8 48.3 67.2 47.9 66.6 47.6C66.1 47.3 66 46.7 66.3 46.2C66.6 45.7 67.2 45.6 67.7 45.9C68.2 46.2 68.8 46.6 69.3 46.8C69.8 47.1 70 47.7 69.7 48.1C69.6 48.5 69.2 48.7 68.9 48.7ZM89 45.1C88.7 45.1 88.4999 45 88.2999 44.8C87.8999 44.4 87.8999 43.8 88.2999 43.4C88.6999 43 89.1999 42.5 89.5999 42C89.8999 41.6 90.6 41.5 91 41.9C91.4 42.3 91.4999 42.9 91.0999 43.3C90.6999 43.8 90.2 44.4 89.7 44.8C89.5 45 89.2 45.1 89 45.1ZM62.8 43.7C62.5 43.7 62.2 43.6 62 43.3C61.6 42.8 61.1 42.2 60.8 41.6C60.5 41.1 60.6 40.5 61.1 40.2C61.6 39.9 62.2 40 62.5 40.5C62.9 41 63.2 41.5 63.6 42C64 42.4 63.9 43.1 63.5 43.4C63.2 43.6 63 43.7 62.8 43.7ZM93.4 38.6C93.3 38.6 93.1 38.6 93 38.5C92.5 38.3 92.3 37.7 92.5 37.2C92.8 36.6 93 36 93.2 35.4C93.4 34.9 93.9 34.6 94.5 34.8C95 35 95.2999 35.5 95.0999 36.1C94.8999 36.8 94.6 37.4 94.4 38C94.1 38.4 93.8 38.6 93.4 38.6ZM58.9 36.8C58.5 36.8 58.1 36.5 58 36.1C57.8 35.5 57.6 34.8 57.4 34.1C57.3 33.6 57.6 33 58.1 32.9C58.6 32.8 59.2 33.1 59.3 33.6C59.5 34.2 59.6 34.8 59.8 35.4C60 35.9 59.7 36.5 59.2 36.7C59.2 36.8 59.1 36.8 58.9 36.8ZM95.2999 30.9C95.1999 30.9 95.1999 30.9 95.2999 30.9C94.6999 30.9 94.2999 30.4 94.2999 29.8C94.2999 29.2 94.4 28.6 94.4 28C94.4 27.4 94.8 27 95.4 27C96 27 96.4 27.4 96.4 28V28C96.4 28.7 96.3999 29.3 96.2999 30C96.1999 30.5 95.7999 30.9 95.2999 30.9ZM57.7 29C57.1 29 56.7 28.6 56.7 28C56.7 27.3 56.7 26.6 56.8 26C56.8 25.5 57.3 25 57.9 25.1C58.5 25.1 58.9 25.6 58.8 26.2C58.8 26.8 58.7 27.5 58.7 28.1C58.7 28.6 58.2 29 57.7 29ZM94.5999 23C94.1999 23 93.6999 22.7 93.5999 22.2C93.3999 21.6 93.2999 21 93.0999 20.4C92.8999 19.9 93.2 19.3 93.7 19.1C94.2 18.9 94.8 19.2 95 19.7C95.2 20.3 95.3999 21 95.5999 21.7C95.6999 22.2 95.4 22.8 94.9 22.9C94.8 23 94.6999 23 94.5999 23ZM58.9 21.2C58.8 21.2 58.7 21.2 58.6 21.1C58.1 20.9 57.8 20.4 58 19.8C58.2 19.2 58.5 18.5 58.7 17.9C58.9 17.4 59.5 17.2 60 17.4C60.5 17.6 60.7 18.2 60.5 18.7C60.2 19.3 60 19.9 59.8 20.5C59.7 21 59.3 21.2 58.9 21.2ZM91.4 15.8C91.1 15.8 90.7999 15.6 90.5999 15.4C90.1999 14.9 89.9 14.4 89.5 13.9C89.1 13.5 89.1999 12.8 89.5999 12.5C89.9999 12.1 90.7 12.2 91 12.6C91.4 13.1 91.9 13.7 92.2 14.3C92.5 14.8 92.4 15.4 91.9 15.7C91.8 15.8 91.6 15.8 91.4 15.8ZM62.7 14.3C62.5 14.3 62.3 14.2 62.1 14.1C61.7 13.8 61.6 13.1 62 12.7C62.4 12.2 62.9 11.6 63.4 11.2C63.8 10.8 64.4 10.8 64.8 11.2C65.2 11.6 65.2 12.2 64.8 12.6C64.4 13 63.9 13.5 63.5 14C63.3 14.2 63 14.3 62.7 14.3ZM85.7999 10.3C85.5999 10.3 85.3999 10.2 85.2999 10.1C84.7999 9.8 84.2 9.4 83.7 9.2C83.2 9 82.9999 8.3 83.2999 7.9C83.4999 7.4 84.0999 7.2 84.5999 7.5C85.1999 7.8 85.8 8.2 86.4 8.5C86.9 8.8 87 9.4 86.7 9.9C86.5 10.1 86.0999 10.3 85.7999 10.3ZM68.8 9.3C68.4 9.3 68.1 9.1 67.9 8.8C67.6 8.3 67.8 7.7 68.3 7.5C68.9 7.2 69.6 6.9 70.2 6.7C70.7 6.5 71.3 6.8 71.5 7.3C71.7 7.8 71.4 8.4 70.9 8.6C70.3 8.8 69.7 9.1 69.2 9.4C69.1 9.3 69 9.3 68.8 9.3ZM78.4 7.6H78.2999C77.6999 7.5 77.1 7.5 76.5 7.5C75.9 7.5 75.5 7.1 75.5 6.5C75.5 5.9 75.9 5.5 76.5 5.5C77.2 5.5 77.9 5.5 78.5 5.6C79 5.7 79.4 6.2 79.4 6.7C79.4 7.2 78.9 7.6 78.4 7.6Z" fill="#FFBFCD"/>
<path d="M52 29H46C46 29.7 46.1 30.3 46.1 31H52.1C52.1 30.3 52 29.7 52 29Z" fill="#F48BA2"/>
<path d="M52.2 24H46.2C46.1 24.7 46.1 25.3 46 26H52C52.1 25.3 52.1 24.7 52.2 24Z" fill="#F48BA2"/>
<path d="M52.5 34H46.5C46.6 34.7 46.8 35.3 47 36H53C52.8 35.3 52.7 34.7 52.5 34Z" fill="#F48BA2"/>
<path d="M53.9 39H47.9C48.2 39.7 48.4 40.3 48.7 41H54.7C54.5 40.3 54.2 39.7 53.9 39Z" fill="#F48BA2"/>
<path d="M53.3 19H47.3C47.1 19.7 46.9 20.3 46.8 21H52.8C52.9 20.3 53.1 19.7 53.3 19Z" fill="#F48BA2"/>
<path d="M55.3 14H49.3C49 14.7 48.7 15.3 48.4 16H54.4C54.6 15.3 54.9 14.7 55.3 14Z" fill="#F48BA2"/>
<path d="M59.3 8H53.3C52.7 8.6 52.2 9.3 51.7 10H57.7C58.2 9.3 58.8 8.6 59.3 8Z" fill="#F48BA2"/>
<path d="M65.5 3H59.5C58.5 3.6 57.5 4.3 56.6 5H62.6C63.5 4.3 64.4 3.6 65.5 3Z" fill="#F48BA2"/>
<path d="M57 45H51C51.5 45.7 52 46.4 52.5 47H58.5C58 46.4 57.5 45.7 57 45Z" fill="#F48BA2"/>
<path d="M55.3 50C56.1 50.7 56.9 51.4 57.8 52H63.8C62.9 51.4 62.1 50.7 61.3 50H55.3Z" fill="#F48BA2"/>
<path d="M77.9976 33.1802H74.0669V36H70.9907V33.1802H68.4883V30.7021H70.9907V29.396H68.4883V26.918H70.9907V18.2266H77.79C79.7513 18.2266 81.3179 18.7393 82.4897 19.7646C83.6616 20.7819 84.2476 22.1369 84.2476 23.8296C84.2476 25.5549 83.6901 26.9098 82.5752 27.8945C81.4603 28.8711 79.91 29.3716 77.9243 29.396H74.0669V30.7021H77.9976V33.1802ZM74.0669 26.918H77.7412C78.848 26.918 79.6943 26.6616 80.2803 26.1489C80.8662 25.6362 81.1592 24.8713 81.1592 23.854C81.1592 22.9425 80.8703 22.1979 80.2925 21.6201C79.7228 21.0423 78.9334 20.7412 77.9243 20.7168H74.0669V26.918Z" fill="#F48BA2"/>
<path d="M92.5 56C79 56 68 43.5 68 28C68 12.5 79 0 92.5 0C106 0 117 12.5 117 28C117 43.5 106 56 92.5 56Z" fill="#FEEBEF"/>
<path d="M68 28C68 13.7 77.4 1.9 89.5 0.2C88.5 0.1 87.5 0 86.5 0C73 0 62 12.5 62 28C62 43.5 73 56 86.5 56C87.5 56 88.5 55.9 89.5 55.8C77.4 54.1 68 42.3 68 28Z" fill="#FFBFCD"/>
<path d="M92.6 50.5C91.8 50.5 91.1 50.5 90.4 50.4C89.9 50.3 89.5 49.8 89.5 49.3C89.6 48.8 90.1 48.4 90.6 48.4C91.2 48.5 91.8 48.5 92.5 48.5C93.1 48.5 93.5 48.9 93.5 49.5C93.5 50.1 93.1 50.5 92.6 50.5ZM98.4 49.4C98 49.4 97.6 49.2 97.5 48.8C97.3 48.3 97.5999 47.7 98.0999 47.5C98.6999 47.3 99.2999 47 99.7999 46.7C100.3 46.4 100.9 46.6 101.1 47.1C101.4 47.6 101.2 48.2 100.7 48.4C100.1 48.7 99.3999 49 98.7999 49.2C98.5999 49.4 98.5 49.4 98.4 49.4ZM84.9 48.7C84.7 48.7 84.6 48.7 84.4 48.6C83.8 48.3 83.2 47.9 82.6 47.6C82.1 47.3 82 46.7 82.3 46.2C82.6 45.7 83.2 45.6 83.7 45.9C84.2 46.2 84.8 46.6 85.3 46.8C85.8 47.1 86 47.7 85.7 48.1C85.6 48.5 85.2 48.7 84.9 48.7ZM105 45.1C104.7 45.1 104.5 45 104.3 44.8C103.9 44.4 103.9 43.8 104.3 43.4C104.7 43 105.2 42.5 105.6 42C105.9 41.6 106.6 41.5 107 41.9C107.4 42.3 107.5 42.9 107.1 43.3C106.7 43.8 106.2 44.4 105.7 44.8C105.5 45 105.2 45.1 105 45.1ZM78.8 43.7C78.5 43.7 78.2 43.6 78 43.3C77.6 42.8 77.1 42.2 76.8 41.6C76.5 41.1 76.6 40.5 77.1 40.2C77.6 39.9 78.2 40 78.5 40.5C78.9 41 79.2 41.5 79.6 42C80 42.4 79.9 43.1 79.5 43.4C79.2 43.6 79 43.7 78.8 43.7ZM109.4 38.6C109.3 38.6 109.1 38.6 109 38.5C108.5 38.3 108.3 37.7 108.5 37.2C108.8 36.6 109 36 109.2 35.4C109.4 34.9 109.9 34.6 110.5 34.8C111 35 111.3 35.5 111.1 36.1C110.9 36.8 110.6 37.4 110.4 38C110.1 38.4 109.8 38.6 109.4 38.6ZM74.9 36.8C74.5 36.8 74.1 36.5 74 36.1C73.8 35.5 73.6 34.8 73.4 34.1C73.3 33.6 73.6 33 74.1 32.9C74.6 32.8 75.2 33.1 75.3 33.6C75.5 34.2 75.6 34.8 75.8 35.4C76 35.9 75.7 36.5 75.2 36.7C75.2 36.8 75.1 36.8 74.9 36.8ZM111.3 30.9C111.2 30.9 111.2 30.9 111.3 30.9C110.7 30.9 110.3 30.4 110.3 29.8C110.3 29.2 110.4 28.6 110.4 28C110.4 27.4 110.8 27 111.4 27C112 27 112.4 27.4 112.4 28V28C112.4 28.7 112.4 29.3 112.3 30C112.2 30.5 111.8 30.9 111.3 30.9ZM73.7 29C73.1 29 72.7 28.6 72.7 28C72.7 27.3 72.7 26.6 72.8 26C72.8 25.5 73.3 25 73.9 25.1C74.5 25.1 74.9 25.6 74.8 26.2C74.8 26.8 74.7 27.5 74.7 28.1C74.7 28.6 74.2 29 73.7 29ZM110.6 23C110.2 23 109.7 22.7 109.6 22.2C109.4 21.6 109.3 21 109.1 20.4C108.9 19.9 109.2 19.3 109.7 19.1C110.2 18.9 110.8 19.2 111 19.7C111.2 20.3 111.4 21 111.6 21.7C111.7 22.2 111.4 22.8 110.9 22.9C110.8 23 110.7 23 110.6 23ZM74.9 21.2C74.8 21.2 74.7 21.2 74.6 21.1C74.1 20.9 73.8 20.4 74 19.8C74.2 19.2 74.5 18.5 74.7 17.9C74.9 17.4 75.5 17.2 76 17.4C76.5 17.6 76.7 18.2 76.5 18.7C76.2 19.3 76 19.9 75.8 20.5C75.7 21 75.3 21.2 74.9 21.2ZM107.4 15.8C107.1 15.8 106.8 15.6 106.6 15.4C106.2 14.9 105.9 14.4 105.5 13.9C105.1 13.5 105.2 12.8 105.6 12.5C106 12.1 106.7 12.2 107 12.6C107.4 13.1 107.9 13.7 108.2 14.3C108.5 14.8 108.4 15.4 107.9 15.7C107.8 15.8 107.6 15.8 107.4 15.8ZM78.7 14.3C78.5 14.3 78.3 14.2 78.1 14.1C77.7 13.8 77.6 13.1 78 12.7C78.4 12.2 78.9 11.6 79.4 11.2C79.8 10.8 80.4 10.8 80.8 11.2C81.2 11.6 81.2 12.2 80.8 12.6C80.4 13 79.9 13.5 79.5 14C79.3 14.2 79 14.3 78.7 14.3ZM101.8 10.3C101.6 10.3 101.4 10.2 101.3 10.1C100.8 9.8 100.2 9.4 99.7 9.2C99.2 9 98.9999 8.3 99.2999 7.9C99.4999 7.4 100.1 7.2 100.6 7.5C101.2 7.8 101.8 8.2 102.4 8.5C102.9 8.8 103 9.4 102.7 9.9C102.5 10.1 102.1 10.3 101.8 10.3ZM84.8 9.3C84.4 9.3 84.1 9.1 83.9 8.8C83.6 8.3 83.8 7.7 84.3 7.5C84.9 7.2 85.6 6.9 86.2 6.7C86.7 6.5 87.3 6.8 87.5 7.3C87.7 7.8 87.4 8.4 86.9 8.6C86.3 8.8 85.7 9.1 85.2 9.4C85.1 9.3 85 9.3 84.8 9.3ZM94.4 7.6H94.2999C93.6999 7.5 93.1 7.5 92.5 7.5C91.9 7.5 91.5 7.1 91.5 6.5C91.5 5.9 91.9 5.5 92.5 5.5C93.2 5.5 93.9 5.5 94.5 5.6C95 5.7 95.4 6.2 95.4 6.7C95.4 7.2 94.9 7.6 94.4 7.6Z" fill="#FFBFCD"/>
<path d="M68 29H62C62 29.7 62.1 30.3 62.1 31H68.1C68.1 30.3 68 29.7 68 29Z" fill="#F48BA2"/>
<path d="M68.2 24H62.2C62.1 24.7 62.1 25.3 62 26H68C68.1 25.3 68.1 24.7 68.2 24Z" fill="#F48BA2"/>
<path d="M68.5 34H62.5C62.6 34.7 62.8 35.3 63 36H69C68.8 35.3 68.7 34.7 68.5 34Z" fill="#F48BA2"/>
<path d="M69.9 39H63.9C64.2 39.7 64.4 40.3 64.7 41H70.7C70.5 40.3 70.2 39.7 69.9 39Z" fill="#F48BA2"/>
<path d="M69.3 19H63.3C63.1 19.7 62.9 20.3 62.8 21H68.8C68.9 20.3 69.1 19.7 69.3 19Z" fill="#F48BA2"/>
<path d="M71.3 14H65.3C65 14.7 64.7 15.3 64.4 16H70.4C70.6 15.3 70.9 14.7 71.3 14Z" fill="#F48BA2"/>
<path d="M75.3 8H69.3C68.7 8.6 68.2 9.3 67.7 10H73.7C74.2 9.3 74.8 8.6 75.3 8Z" fill="#F48BA2"/>
<path d="M81.5 3H75.5C74.5 3.6 73.5 4.3 72.6 5H78.6C79.5 4.3 80.4 3.6 81.5 3Z" fill="#F48BA2"/>
<path d="M73 45H67C67.5 45.7 68 46.4 68.5 47H74.5C74 46.4 73.5 45.7 73 45Z" fill="#F48BA2"/>
<path d="M71.3 50C72.1 50.7 72.9 51.4 73.8 52H79.8C78.9 51.4 78.1 50.7 77.3 50H71.3Z" fill="#F48BA2"/>
<path d="M93.9976 33.1802H90.0669V36H86.9907V33.1802H84.4883V30.7021H86.9907V29.396H84.4883V26.918H86.9907V18.2266H93.79C95.7513 18.2266 97.3179 18.7393 98.4897 19.7646C99.6616 20.7819 100.248 22.1369 100.248 23.8296C100.248 25.5549 99.6901 26.9098 98.5752 27.8945C97.4603 28.8711 95.91 29.3716 93.9243 29.396H90.0669V30.7021H93.9976V33.1802ZM90.0669 26.918H93.7412C94.848 26.918 95.6943 26.6616 96.2803 26.1489C96.8662 25.6362 97.1592 24.8713 97.1592 23.854C97.1592 22.9425 96.8703 22.1979 96.2925 21.6201C95.7228 21.0423 94.9334 20.7412 93.9243 20.7168H90.0669V26.918Z" fill="#F48BA2"/>
<path d="M107.5 56C94 56 83 43.5 83 28C83 12.5 94 0 107.5 0C121 0 132 12.5 132 28C132 43.5 121 56 107.5 56Z" fill="#FEEBEF"/>
<path d="M83 28C83 13.7 92.4 1.9 104.5 0.2C103.5 0.1 102.5 0 101.5 0C88 0 77 12.5 77 28C77 43.5 88 56 101.5 56C102.5 56 103.5 55.9 104.5 55.8C92.4 54.1 83 42.3 83 28Z" fill="#FFBFCD"/>
<path d="M107.6 50.5C106.8 50.5 106.1 50.5 105.4 50.4C104.9 50.3 104.5 49.8 104.5 49.3C104.6 48.8 105.1 48.4 105.6 48.4C106.2 48.5 106.8 48.5 107.5 48.5C108.1 48.5 108.5 48.9 108.5 49.5C108.5 50.1 108.1 50.5 107.6 50.5ZM113.4 49.4C113 49.4 112.6 49.2 112.5 48.8C112.3 48.3 112.6 47.7 113.1 47.5C113.7 47.3 114.3 47 114.8 46.7C115.3 46.4 115.9 46.6 116.1 47.1C116.4 47.6 116.2 48.2 115.7 48.4C115.1 48.7 114.4 49 113.8 49.2C113.6 49.4 113.5 49.4 113.4 49.4ZM99.9 48.7C99.7 48.7 99.6 48.7 99.4 48.6C98.8 48.3 98.2 47.9 97.6 47.6C97.1 47.3 97 46.7 97.3 46.2C97.6 45.7 98.2 45.6 98.7 45.9C99.2 46.2 99.8 46.6 100.3 46.8C100.8 47.1 101 47.7 100.7 48.1C100.6 48.5 100.2 48.7 99.9 48.7ZM120 45.1C119.7 45.1 119.5 45 119.3 44.8C118.9 44.4 118.9 43.8 119.3 43.4C119.7 43 120.2 42.5 120.6 42C120.9 41.6 121.6 41.5 122 41.9C122.4 42.3 122.5 42.9 122.1 43.3C121.7 43.8 121.2 44.4 120.7 44.8C120.5 45 120.2 45.1 120 45.1ZM93.8 43.7C93.5 43.7 93.2 43.6 93 43.3C92.6 42.8 92.1 42.2 91.8 41.6C91.5 41.1 91.6 40.5 92.1 40.2C92.6 39.9 93.2 40 93.5 40.5C93.9 41 94.2 41.5 94.6 42C95 42.4 94.9 43.1 94.5 43.4C94.2 43.6 94 43.7 93.8 43.7ZM124.4 38.6C124.3 38.6 124.1 38.6 124 38.5C123.5 38.3 123.3 37.7 123.5 37.2C123.8 36.6 124 36 124.2 35.4C124.4 34.9 124.9 34.6 125.5 34.8C126 35 126.3 35.5 126.1 36.1C125.9 36.8 125.6 37.4 125.4 38C125.1 38.4 124.8 38.6 124.4 38.6ZM89.9 36.8C89.5 36.8 89.1 36.5 89 36.1C88.8 35.5 88.6 34.8 88.4 34.1C88.3 33.6 88.6 33 89.1 32.9C89.6 32.8 90.2 33.1 90.3 33.6C90.5 34.2 90.6 34.8 90.8 35.4C91 35.9 90.7 36.5 90.2 36.7C90.2 36.8 90.1 36.8 89.9 36.8ZM126.3 30.9C126.2 30.9 126.2 30.9 126.3 30.9C125.7 30.9 125.3 30.4 125.3 29.8C125.3 29.2 125.4 28.6 125.4 28C125.4 27.4 125.8 27 126.4 27C127 27 127.4 27.4 127.4 28V28C127.4 28.7 127.4 29.3 127.3 30C127.2 30.5 126.8 30.9 126.3 30.9ZM88.7 29C88.1 29 87.7 28.6 87.7 28C87.7 27.3 87.7 26.6 87.8 26C87.8 25.5 88.3 25 88.9 25.1C89.5 25.1 89.9 25.6 89.8 26.2C89.8 26.8 89.7 27.5 89.7 28.1C89.7 28.6 89.2 29 88.7 29ZM125.6 23C125.2 23 124.7 22.7 124.6 22.2C124.4 21.6 124.3 21 124.1 20.4C123.9 19.9 124.2 19.3 124.7 19.1C125.2 18.9 125.8 19.2 126 19.7C126.2 20.3 126.4 21 126.6 21.7C126.7 22.2 126.4 22.8 125.9 22.9C125.8 23 125.7 23 125.6 23ZM89.9 21.2C89.8 21.2 89.7 21.2 89.6 21.1C89.1 20.9 88.8 20.4 89 19.8C89.2 19.2 89.5 18.5 89.7 17.9C89.9 17.4 90.5 17.2 91 17.4C91.5 17.6 91.7 18.2 91.5 18.7C91.2 19.3 91 19.9 90.8 20.5C90.7 21 90.3 21.2 89.9 21.2ZM122.4 15.8C122.1 15.8 121.8 15.6 121.6 15.4C121.2 14.9 120.9 14.4 120.5 13.9C120.1 13.5 120.2 12.8 120.6 12.5C121 12.1 121.7 12.2 122 12.6C122.4 13.1 122.9 13.7 123.2 14.3C123.5 14.8 123.4 15.4 122.9 15.7C122.8 15.8 122.6 15.8 122.4 15.8ZM93.7 14.3C93.5 14.3 93.3 14.2 93.1 14.1C92.7 13.8 92.6 13.1 93 12.7C93.4 12.2 93.9 11.6 94.4 11.2C94.8 10.8 95.4 10.8 95.8 11.2C96.2 11.6 96.2 12.2 95.8 12.6C95.4 13 94.9 13.5 94.5 14C94.3 14.2 94 14.3 93.7 14.3ZM116.8 10.3C116.6 10.3 116.4 10.2 116.3 10.1C115.8 9.8 115.2 9.4 114.7 9.2C114.2 9 114 8.3 114.3 7.9C114.5 7.4 115.1 7.2 115.6 7.5C116.2 7.8 116.8 8.2 117.4 8.5C117.9 8.8 118 9.4 117.7 9.9C117.5 10.1 117.1 10.3 116.8 10.3ZM99.8 9.3C99.4 9.3 99.1 9.1 98.9 8.8C98.6 8.3 98.8 7.7 99.3 7.5C99.9 7.2 100.6 6.9 101.2 6.7C101.7 6.5 102.3 6.8 102.5 7.3C102.7 7.8 102.4 8.4 101.9 8.6C101.3 8.8 100.7 9.1 100.2 9.4C100.1 9.3 100 9.3 99.8 9.3ZM109.4 7.6H109.3C108.7 7.5 108.1 7.5 107.5 7.5C106.9 7.5 106.5 7.1 106.5 6.5C106.5 5.9 106.9 5.5 107.5 5.5C108.2 5.5 108.9 5.5 109.5 5.6C110 5.7 110.4 6.2 110.4 6.7C110.4 7.2 109.9 7.6 109.4 7.6Z" fill="#FFBFCD"/>
<path d="M83 29H77C77 29.7 77.1 30.3 77.1 31H83.1C83.1 30.3 83 29.7 83 29Z" fill="#F48BA2"/>
<path d="M83.2 24H77.2C77.1 24.7 77.1 25.3 77 26H83C83.1 25.3 83.1 24.7 83.2 24Z" fill="#F48BA2"/>
<path d="M83.5 34H77.5C77.6 34.7 77.8 35.3 78 36H84C83.8 35.3 83.7 34.7 83.5 34Z" fill="#F48BA2"/>
<path d="M84.9 39H78.9C79.2 39.7 79.4 40.3 79.7 41H85.7C85.5 40.3 85.2 39.7 84.9 39Z" fill="#F48BA2"/>
<path d="M84.3 19H78.3C78.1 19.7 77.9 20.3 77.8 21H83.8C83.9 20.3 84.1 19.7 84.3 19Z" fill="#F48BA2"/>
<path d="M86.3 14H80.3C80 14.7 79.7 15.3 79.4 16H85.4C85.6 15.3 85.9 14.7 86.3 14Z" fill="#F48BA2"/>
<path d="M90.3 8H84.3C83.7 8.6 83.2 9.3 82.7 10H88.7C89.2 9.3 89.8 8.6 90.3 8Z" fill="#F48BA2"/>
<path d="M96.5 3H90.5C89.5 3.6 88.5 4.3 87.6 5H93.6C94.5 4.3 95.4 3.6 96.5 3Z" fill="#F48BA2"/>
<path d="M88 45H82C82.5 45.7 83 46.4 83.5 47H89.5C89 46.4 88.5 45.7 88 45Z" fill="#F48BA2"/>
<path d="M86.3 50C87.1 50.7 87.9 51.4 88.8 52H94.8C93.9 51.4 93.1 50.7 92.3 50H86.3Z" fill="#F48BA2"/>
<path d="M108.998 33.1802H105.067V36H101.991V33.1802H99.4883V30.7021H101.991V29.396H99.4883V26.918H101.991V18.2266H108.79C110.751 18.2266 112.318 18.7393 113.49 19.7646C114.662 20.7819 115.248 22.1369 115.248 23.8296C115.248 25.5549 114.69 26.9098 113.575 27.8945C112.46 28.8711 110.91 29.3716 108.924 29.396H105.067V30.7021H108.998V33.1802ZM105.067 26.918H108.741C109.848 26.918 110.694 26.6616 111.28 26.1489C111.866 25.6362 112.159 24.8713 112.159 23.854C112.159 22.9425 111.87 22.1979 111.292 21.6201C110.723 21.0423 109.933 20.7412 108.924 20.7168H105.067V26.918Z" fill="#F48BA2"/>
<path d="M123.5 56C110 56 99 43.5 99 28C99 12.5 110 0 123.5 0C137 0 148 12.5 148 28C148 43.5 137 56 123.5 56Z" fill="#FEEBEF"/>
<path d="M99 28C99 13.7 108.4 1.9 120.5 0.2C119.5 0.1 118.5 0 117.5 0C104 0 93 12.5 93 28C93 43.5 104 56 117.5 56C118.5 56 119.5 55.9 120.5 55.8C108.4 54.1 99 42.3 99 28Z" fill="#FFBFCD"/>
<path d="M123.6 50.5C122.8 50.5 122.1 50.5 121.4 50.4C120.9 50.3 120.5 49.8 120.5 49.3C120.6 48.8 121.1 48.4 121.6 48.4C122.2 48.5 122.8 48.5 123.5 48.5C124.1 48.5 124.5 48.9 124.5 49.5C124.5 50.1 124.1 50.5 123.6 50.5ZM129.4 49.4C129 49.4 128.6 49.2 128.5 48.8C128.3 48.3 128.6 47.7 129.1 47.5C129.7 47.3 130.3 47 130.8 46.7C131.3 46.4 131.9 46.6 132.1 47.1C132.4 47.6 132.2 48.2 131.7 48.4C131.1 48.7 130.4 49 129.8 49.2C129.6 49.4 129.5 49.4 129.4 49.4ZM115.9 48.7C115.7 48.7 115.6 48.7 115.4 48.6C114.8 48.3 114.2 47.9 113.6 47.6C113.1 47.3 113 46.7 113.3 46.2C113.6 45.7 114.2 45.6 114.7 45.9C115.2 46.2 115.8 46.6 116.3 46.8C116.8 47.1 117 47.7 116.7 48.1C116.6 48.5 116.2 48.7 115.9 48.7ZM136 45.1C135.7 45.1 135.5 45 135.3 44.8C134.9 44.4 134.9 43.8 135.3 43.4C135.7 43 136.2 42.5 136.6 42C136.9 41.6 137.6 41.5 138 41.9C138.4 42.3 138.5 42.9 138.1 43.3C137.7 43.8 137.2 44.4 136.7 44.8C136.5 45 136.2 45.1 136 45.1ZM109.8 43.7C109.5 43.7 109.2 43.6 109 43.3C108.6 42.8 108.1 42.2 107.8 41.6C107.5 41.1 107.6 40.5 108.1 40.2C108.6 39.9 109.2 40 109.5 40.5C109.9 41 110.2 41.5 110.6 42C111 42.4 110.9 43.1 110.5 43.4C110.2 43.6 110 43.7 109.8 43.7ZM140.4 38.6C140.3 38.6 140.1 38.6 140 38.5C139.5 38.3 139.3 37.7 139.5 37.2C139.8 36.6 140 36 140.2 35.4C140.4 34.9 140.9 34.6 141.5 34.8C142 35 142.3 35.5 142.1 36.1C141.9 36.8 141.6 37.4 141.4 38C141.1 38.4 140.8 38.6 140.4 38.6ZM105.9 36.8C105.5 36.8 105.1 36.5 105 36.1C104.8 35.5 104.6 34.8 104.4 34.1C104.3 33.6 104.6 33 105.1 32.9C105.6 32.8 106.2 33.1 106.3 33.6C106.5 34.2 106.6 34.8 106.8 35.4C107 35.9 106.7 36.5 106.2 36.7C106.2 36.8 106.1 36.8 105.9 36.8ZM142.3 30.9C142.2 30.9 142.2 30.9 142.3 30.9C141.7 30.9 141.3 30.4 141.3 29.8C141.3 29.2 141.4 28.6 141.4 28C141.4 27.4 141.8 27 142.4 27C143 27 143.4 27.4 143.4 28V28C143.4 28.7 143.4 29.3 143.3 30C143.2 30.5 142.8 30.9 142.3 30.9ZM104.7 29C104.1 29 103.7 28.6 103.7 28C103.7 27.3 103.7 26.6 103.8 26C103.8 25.5 104.3 25 104.9 25.1C105.5 25.1 105.9 25.6 105.8 26.2C105.8 26.8 105.7 27.5 105.7 28.1C105.7 28.6 105.2 29 104.7 29ZM141.6 23C141.2 23 140.7 22.7 140.6 22.2C140.4 21.6 140.3 21 140.1 20.4C139.9 19.9 140.2 19.3 140.7 19.1C141.2 18.9 141.8 19.2 142 19.7C142.2 20.3 142.4 21 142.6 21.7C142.7 22.2 142.4 22.8 141.9 22.9C141.8 23 141.7 23 141.6 23ZM105.9 21.2C105.8 21.2 105.7 21.2 105.6 21.1C105.1 20.9 104.8 20.4 105 19.8C105.2 19.2 105.5 18.5 105.7 17.9C105.9 17.4 106.5 17.2 107 17.4C107.5 17.6 107.7 18.2 107.5 18.7C107.2 19.3 107 19.9 106.8 20.5C106.7 21 106.3 21.2 105.9 21.2ZM138.4 15.8C138.1 15.8 137.8 15.6 137.6 15.4C137.2 14.9 136.9 14.4 136.5 13.9C136.1 13.5 136.2 12.8 136.6 12.5C137 12.1 137.7 12.2 138 12.6C138.4 13.1 138.9 13.7 139.2 14.3C139.5 14.8 139.4 15.4 138.9 15.7C138.8 15.8 138.6 15.8 138.4 15.8ZM109.7 14.3C109.5 14.3 109.3 14.2 109.1 14.1C108.7 13.8 108.6 13.1 109 12.7C109.4 12.2 109.9 11.6 110.4 11.2C110.8 10.8 111.4 10.8 111.8 11.2C112.2 11.6 112.2 12.2 111.8 12.6C111.4 13 110.9 13.5 110.5 14C110.3 14.2 110 14.3 109.7 14.3ZM132.8 10.3C132.6 10.3 132.4 10.2 132.3 10.1C131.8 9.8 131.2 9.4 130.7 9.2C130.2 9 130 8.3 130.3 7.9C130.5 7.4 131.1 7.2 131.6 7.5C132.2 7.8 132.8 8.2 133.4 8.5C133.9 8.8 134 9.4 133.7 9.9C133.5 10.1 133.1 10.3 132.8 10.3ZM115.8 9.3C115.4 9.3 115.1 9.1 114.9 8.8C114.6 8.3 114.8 7.7 115.3 7.5C115.9 7.2 116.6 6.9 117.2 6.7C117.7 6.5 118.3 6.8 118.5 7.3C118.7 7.8 118.4 8.4 117.9 8.6C117.3 8.8 116.7 9.1 116.2 9.4C116.1 9.3 116 9.3 115.8 9.3ZM125.4 7.6H125.3C124.7 7.5 124.1 7.5 123.5 7.5C122.9 7.5 122.5 7.1 122.5 6.5C122.5 5.9 122.9 5.5 123.5 5.5C124.2 5.5 124.9 5.5 125.5 5.6C126 5.7 126.4 6.2 126.4 6.7C126.4 7.2 125.9 7.6 125.4 7.6Z" fill="#FFBFCD"/>
<path d="M99 29H93C93 29.7 93.1 30.3 93.1 31H99.1C99.1 30.3 99 29.7 99 29Z" fill="#F48BA2"/>
<path d="M99.2 24H93.2C93.1 24.7 93.1 25.3 93 26H99C99.1 25.3 99.1 24.7 99.2 24Z" fill="#F48BA2"/>
<path d="M99.5 34H93.5C93.6 34.7 93.8 35.3 94 36H100C99.8 35.3 99.7 34.7 99.5 34Z" fill="#F48BA2"/>
<path d="M100.9 39H94.9C95.2 39.7 95.4 40.3 95.7 41H101.7C101.5 40.3 101.2 39.7 100.9 39Z" fill="#F48BA2"/>
<path d="M100.3 19H94.3C94.1 19.7 93.9 20.3 93.8 21H99.8C99.9 20.3 100.1 19.7 100.3 19Z" fill="#F48BA2"/>
<path d="M102.3 14H96.3C96 14.7 95.7 15.3 95.4 16H101.4C101.6 15.3 101.9 14.7 102.3 14Z" fill="#F48BA2"/>
<path d="M106.3 8H100.3C99.7 8.6 99.2 9.3 98.7 10H104.7C105.2 9.3 105.8 8.6 106.3 8Z" fill="#F48BA2"/>
<path d="M112.5 3H106.5C105.5 3.6 104.5 4.3 103.6 5H109.6C110.5 4.3 111.4 3.6 112.5 3Z" fill="#F48BA2"/>
<path d="M104 45H98C98.5 45.7 99 46.4 99.5 47H105.5C105 46.4 104.5 45.7 104 45Z" fill="#F48BA2"/>
<path d="M102.3 50C103.1 50.7 103.9 51.4 104.8 52H110.8C109.9 51.4 109.1 50.7 108.3 50H102.3Z" fill="#F48BA2"/>
<path d="M124.998 33.1802H121.067V36H117.991V33.1802H115.488V30.7021H117.991V29.396H115.488V26.918H117.991V18.2266H124.79C126.751 18.2266 128.318 18.7393 129.49 19.7646C130.662 20.7819 131.248 22.1369 131.248 23.8296C131.248 25.5549 130.69 26.9098 129.575 27.8945C128.46 28.8711 126.91 29.3716 124.924 29.396H121.067V30.7021H124.998V33.1802ZM121.067 26.918H124.741C125.848 26.918 126.694 26.6616 127.28 26.1489C127.866 25.6362 128.159 24.8713 128.159 23.854C128.159 22.9425 127.87 22.1979 127.292 21.6201C126.723 21.0423 125.933 20.7412 124.924 20.7168H121.067V26.918Z" fill="#F48BA2"/>
<path d="M138.5 56C125 56 114 43.5 114 28C114 12.5 125 0 138.5 0C152 0 163 12.5 163 28C163 43.5 152 56 138.5 56Z" fill="#FEEBEF"/>
<path d="M114 28C114 13.7 123.4 1.9 135.5 0.2C134.5 0.1 133.5 0 132.5 0C119 0 108 12.5 108 28C108 43.5 119 56 132.5 56C133.5 56 134.5 55.9 135.5 55.8C123.4 54.1 114 42.3 114 28Z" fill="#FFBFCD"/>
<path d="M138.6 50.5C137.8 50.5 137.1 50.5 136.4 50.4C135.9 50.3 135.5 49.8 135.5 49.3C135.6 48.8 136.1 48.4 136.6 48.4C137.2 48.5 137.8 48.5 138.5 48.5C139.1 48.5 139.5 48.9 139.5 49.5C139.5 50.1 139.1 50.5 138.6 50.5ZM144.4 49.4C144 49.4 143.6 49.2 143.5 48.8C143.3 48.3 143.6 47.7 144.1 47.5C144.7 47.3 145.3 47 145.8 46.7C146.3 46.4 146.9 46.6 147.1 47.1C147.4 47.6 147.2 48.2 146.7 48.4C146.1 48.7 145.4 49 144.8 49.2C144.6 49.4 144.5 49.4 144.4 49.4ZM130.9 48.7C130.7 48.7 130.6 48.7 130.4 48.6C129.8 48.3 129.2 47.9 128.6 47.6C128.1 47.3 128 46.7 128.3 46.2C128.6 45.7 129.2 45.6 129.7 45.9C130.2 46.2 130.8 46.6 131.3 46.8C131.8 47.1 132 47.7 131.7 48.1C131.6 48.5 131.2 48.7 130.9 48.7ZM151 45.1C150.7 45.1 150.5 45 150.3 44.8C149.9 44.4 149.9 43.8 150.3 43.4C150.7 43 151.2 42.5 151.6 42C151.9 41.6 152.6 41.5 153 41.9C153.4 42.3 153.5 42.9 153.1 43.3C152.7 43.8 152.2 44.4 151.7 44.8C151.5 45 151.2 45.1 151 45.1ZM124.8 43.7C124.5 43.7 124.2 43.6 124 43.3C123.6 42.8 123.1 42.2 122.8 41.6C122.5 41.1 122.6 40.5 123.1 40.2C123.6 39.9 124.2 40 124.5 40.5C124.9 41 125.2 41.5 125.6 42C126 42.4 125.9 43.1 125.5 43.4C125.2 43.6 125 43.7 124.8 43.7ZM155.4 38.6C155.3 38.6 155.1 38.6 155 38.5C154.5 38.3 154.3 37.7 154.5 37.2C154.8 36.6 155 36 155.2 35.4C155.4 34.9 155.9 34.6 156.5 34.8C157 35 157.3 35.5 157.1 36.1C156.9 36.8 156.6 37.4 156.4 38C156.1 38.4 155.8 38.6 155.4 38.6ZM120.9 36.8C120.5 36.8 120.1 36.5 120 36.1C119.8 35.5 119.6 34.8 119.4 34.1C119.3 33.6 119.6 33 120.1 32.9C120.6 32.8 121.2 33.1 121.3 33.6C121.5 34.2 121.6 34.8 121.8 35.4C122 35.9 121.7 36.5 121.2 36.7C121.2 36.8 121.1 36.8 120.9 36.8ZM157.3 30.9C157.2 30.9 157.2 30.9 157.3 30.9C156.7 30.9 156.3 30.4 156.3 29.8C156.3 29.2 156.4 28.6 156.4 28C156.4 27.4 156.8 27 157.4 27C158 27 158.4 27.4 158.4 28V28C158.4 28.7 158.4 29.3 158.3 30C158.2 30.5 157.8 30.9 157.3 30.9ZM119.7 29C119.1 29 118.7 28.6 118.7 28C118.7 27.3 118.7 26.6 118.8 26C118.8 25.5 119.3 25 119.9 25.1C120.5 25.1 120.9 25.6 120.8 26.2C120.8 26.8 120.7 27.5 120.7 28.1C120.7 28.6 120.2 29 119.7 29ZM156.6 23C156.2 23 155.7 22.7 155.6 22.2C155.4 21.6 155.3 21 155.1 20.4C154.9 19.9 155.2 19.3 155.7 19.1C156.2 18.9 156.8 19.2 157 19.7C157.2 20.3 157.4 21 157.6 21.7C157.7 22.2 157.4 22.8 156.9 22.9C156.8 23 156.7 23 156.6 23ZM120.9 21.2C120.8 21.2 120.7 21.2 120.6 21.1C120.1 20.9 119.8 20.4 120 19.8C120.2 19.2 120.5 18.5 120.7 17.9C120.9 17.4 121.5 17.2 122 17.4C122.5 17.6 122.7 18.2 122.5 18.7C122.2 19.3 122 19.9 121.8 20.5C121.7 21 121.3 21.2 120.9 21.2ZM153.4 15.8C153.1 15.8 152.8 15.6 152.6 15.4C152.2 14.9 151.9 14.4 151.5 13.9C151.1 13.5 151.2 12.8 151.6 12.5C152 12.1 152.7 12.2 153 12.6C153.4 13.1 153.9 13.7 154.2 14.3C154.5 14.8 154.4 15.4 153.9 15.7C153.8 15.8 153.6 15.8 153.4 15.8ZM124.7 14.3C124.5 14.3 124.3 14.2 124.1 14.1C123.7 13.8 123.6 13.1 124 12.7C124.4 12.2 124.9 11.6 125.4 11.2C125.8 10.8 126.4 10.8 126.8 11.2C127.2 11.6 127.2 12.2 126.8 12.6C126.4 13 125.9 13.5 125.5 14C125.3 14.2 125 14.3 124.7 14.3ZM147.8 10.3C147.6 10.3 147.4 10.2 147.3 10.1C146.8 9.8 146.2 9.4 145.7 9.2C145.2 9 145 8.3 145.3 7.9C145.5 7.4 146.1 7.2 146.6 7.5C147.2 7.8 147.8 8.2 148.4 8.5C148.9 8.8 149 9.4 148.7 9.9C148.5 10.1 148.1 10.3 147.8 10.3ZM130.8 9.3C130.4 9.3 130.1 9.1 129.9 8.8C129.6 8.3 129.8 7.7 130.3 7.5C130.9 7.2 131.6 6.9 132.2 6.7C132.7 6.5 133.3 6.8 133.5 7.3C133.7 7.8 133.4 8.4 132.9 8.6C132.3 8.8 131.7 9.1 131.2 9.4C131.1 9.3 131 9.3 130.8 9.3ZM140.4 7.6H140.3C139.7 7.5 139.1 7.5 138.5 7.5C137.9 7.5 137.5 7.1 137.5 6.5C137.5 5.9 137.9 5.5 138.5 5.5C139.2 5.5 139.9 5.5 140.5 5.6C141 5.7 141.4 6.2 141.4 6.7C141.4 7.2 140.9 7.6 140.4 7.6Z" fill="#FFBFCD"/>
<path d="M114 29H108C108 29.7 108.1 30.3 108.1 31H114.1C114.1 30.3 114 29.7 114 29Z" fill="#F48BA2"/>
<path d="M114.2 24H108.2C108.1 24.7 108.1 25.3 108 26H114C114.1 25.3 114.1 24.7 114.2 24Z" fill="#F48BA2"/>
<path d="M114.5 34H108.5C108.6 34.7 108.8 35.3 109 36H115C114.8 35.3 114.7 34.7 114.5 34Z" fill="#F48BA2"/>
<path d="M115.9 39H109.9C110.2 39.7 110.4 40.3 110.7 41H116.7C116.5 40.3 116.2 39.7 115.9 39Z" fill="#F48BA2"/>
<path d="M115.3 19H109.3C109.1 19.7 108.9 20.3 108.8 21H114.8C114.9 20.3 115.1 19.7 115.3 19Z" fill="#F48BA2"/>
<path d="M117.3 14H111.3C111 14.7 110.7 15.3 110.4 16H116.4C116.6 15.3 116.9 14.7 117.3 14Z" fill="#F48BA2"/>
<path d="M121.3 8H115.3C114.7 8.6 114.2 9.3 113.7 10H119.7C120.2 9.3 120.8 8.6 121.3 8Z" fill="#F48BA2"/>
<path d="M127.5 3H121.5C120.5 3.6 119.5 4.3 118.6 5H124.6C125.5 4.3 126.4 3.6 127.5 3Z" fill="#F48BA2"/>
<path d="M119 45H113C113.5 45.7 114 46.4 114.5 47H120.5C120 46.4 119.5 45.7 119 45Z" fill="#F48BA2"/>
<path d="M117.3 50C118.1 50.7 118.9 51.4 119.8 52H125.8C124.9 51.4 124.1 50.7 123.3 50H117.3Z" fill="#F48BA2"/>
<path d="M139.998 33.1802H136.067V36H132.991V33.1802H130.488V30.7021H132.991V29.396H130.488V26.918H132.991V18.2266H139.79C141.751 18.2266 143.318 18.7393 144.49 19.7646C145.662 20.7819 146.248 22.1369 146.248 23.8296C146.248 25.5549 145.69 26.9098 144.575 27.8945C143.46 28.8711 141.91 29.3716 139.924 29.396H136.067V30.7021H139.998V33.1802ZM136.067 26.918H139.741C140.848 26.918 141.694 26.6616 142.28 26.1489C142.866 25.6362 143.159 24.8713 143.159 23.854C143.159 22.9425 142.87 22.1979 142.292 21.6201C141.723 21.0423 140.933 20.7412 139.924 20.7168H136.067V26.918Z" fill="#F48BA2"/>
</svg>
