<svg width="116" height="56" viewBox="0 0 116 56" fill="none" xmlns="http://www.w3.org/2000/svg">
<path d="M30.5 56C17 56 6 43.5 6 28C6 12.5 17 0 30.5 0C44 0 55 12.5 55 28C55 43.5 44 56 30.5 56Z" fill="#FEEBEF"/>
<path d="M6 28C6 13.7 15.4 1.9 27.5 0.2C26.5 0.1 25.5 0 24.5 0C11 0 0 12.5 0 28C0 43.5 11 56 24.5 56C25.5 56 26.5 55.9 27.5 55.8C15.4 54.1 6 42.3 6 28Z" fill="#FFBFCD"/>
<path d="M30.6 50.5C29.8 50.5 29.1 50.5 28.4 50.4C27.9 50.3 27.5 49.8 27.5 49.3C27.6 48.8 28.1 48.4 28.6 48.4C29.2 48.5 29.8 48.5 30.5 48.5C31.1 48.5 31.5 48.9 31.5 49.5C31.5 50.1 31.1 50.5 30.6 50.5ZM36.4 49.4C36 49.4 35.6 49.2 35.5 48.8C35.3 48.3 35.5999 47.7 36.0999 47.5C36.6999 47.3 37.2999 47 37.7999 46.7C38.2999 46.4 38.8999 46.6 39.0999 47.1C39.3999 47.6 39.2 48.2 38.7 48.4C38.1 48.7 37.3999 49 36.7999 49.2C36.5999 49.4 36.5 49.4 36.4 49.4ZM22.9 48.7C22.7 48.7 22.6 48.7 22.4 48.6C21.8 48.3 21.2 47.9 20.6 47.6C20.1 47.3 20 46.7 20.3 46.2C20.6 45.7 21.2 45.6 21.7 45.9C22.2 46.2 22.8 46.6 23.3 46.8C23.8 47.1 24 47.7 23.7 48.1C23.6 48.5 23.2 48.7 22.9 48.7ZM43 45.1C42.7 45.1 42.4999 45 42.2999 44.8C41.8999 44.4 41.8999 43.8 42.2999 43.4C42.6999 43 43.1999 42.5 43.5999 42C43.8999 41.6 44.6 41.5 45 41.9C45.4 42.3 45.4999 42.9 45.0999 43.3C44.6999 43.8 44.2 44.4 43.7 44.8C43.5 45 43.2 45.1 43 45.1ZM16.8 43.7C16.5 43.7 16.2 43.6 16 43.3C15.6 42.8 15.1 42.2 14.8 41.6C14.5 41.1 14.6 40.5 15.1 40.2C15.6 39.9 16.2 40 16.5 40.5C16.9 41 17.2 41.5 17.6 42C18 42.4 17.9 43.1 17.5 43.4C17.2 43.6 17 43.7 16.8 43.7ZM47.4 38.6C47.3 38.6 47.1 38.6 47 38.5C46.5 38.3 46.3 37.7 46.5 37.2C46.8 36.6 47 36 47.2 35.4C47.4 34.9 47.9 34.6 48.5 34.8C49 35 49.2999 35.5 49.0999 36.1C48.8999 36.8 48.6 37.4 48.4 38C48.1 38.4 47.8 38.6 47.4 38.6ZM12.9 36.8C12.5 36.8 12.1 36.5 12 36.1C11.8 35.5 11.6 34.8 11.4 34.1C11.3 33.6 11.6 33 12.1 32.9C12.6 32.8 13.2 33.1 13.3 33.6C13.5 34.2 13.6 34.8 13.8 35.4C14 35.9 13.7 36.5 13.2 36.7C13.2 36.8 13.1 36.8 12.9 36.8ZM49.2999 30.9C49.1999 30.9 49.1999 30.9 49.2999 30.9C48.6999 30.9 48.2999 30.4 48.2999 29.8C48.2999 29.2 48.4 28.6 48.4 28C48.4 27.4 48.8 27 49.4 27C50 27 50.4 27.4 50.4 28V28C50.4 28.7 50.3999 29.3 50.2999 30C50.1999 30.5 49.7999 30.9 49.2999 30.9ZM11.7 29C11.1 29 10.7 28.6 10.7 28C10.7 27.3 10.7 26.6 10.8 26C10.8 25.5 11.3 25 11.9 25.1C12.5 25.1 12.9 25.6 12.8 26.2C12.8 26.8 12.7 27.5 12.7 28.1C12.7 28.6 12.2 29 11.7 29ZM48.5999 23C48.1999 23 47.6999 22.7 47.5999 22.2C47.3999 21.6 47.2999 21 47.0999 20.4C46.8999 19.9 47.2 19.3 47.7 19.1C48.2 18.9 48.8 19.2 49 19.7C49.2 20.3 49.3999 21 49.5999 21.7C49.6999 22.2 49.4 22.8 48.9 22.9C48.8 23 48.6999 23 48.5999 23ZM12.9 21.2C12.8 21.2 12.7 21.2 12.6 21.1C12.1 20.9 11.8 20.4 12 19.8C12.2 19.2 12.5 18.5 12.7 17.9C12.9 17.4 13.5 17.2 14 17.4C14.5 17.6 14.7 18.2 14.5 18.7C14.2 19.3 14 19.9 13.8 20.5C13.7 21 13.3 21.2 12.9 21.2ZM45.4 15.8C45.1 15.8 44.7999 15.6 44.5999 15.4C44.1999 14.9 43.9 14.4 43.5 13.9C43.1 13.5 43.1999 12.8 43.5999 12.5C43.9999 12.1 44.7 12.2 45 12.6C45.4 13.1 45.9 13.7 46.2 14.3C46.5 14.8 46.4 15.4 45.9 15.7C45.8 15.8 45.6 15.8 45.4 15.8ZM16.7 14.3C16.5 14.3 16.3 14.2 16.1 14.1C15.7 13.8 15.6 13.1 16 12.7C16.4 12.2 16.9 11.6 17.4 11.2C17.8 10.8 18.4 10.8 18.8 11.2C19.2 11.6 19.2 12.2 18.8 12.6C18.4 13 17.9 13.5 17.5 14C17.3 14.2 17 14.3 16.7 14.3ZM39.7999 10.3C39.5999 10.3 39.3999 10.2 39.2999 10.1C38.7999 9.8 38.2 9.4 37.7 9.2C37.2 9 36.9999 8.3 37.2999 7.9C37.4999 7.4 38.0999 7.2 38.5999 7.5C39.1999 7.8 39.8 8.2 40.4 8.5C40.9 8.8 41 9.4 40.7 9.9C40.5 10.1 40.0999 10.3 39.7999 10.3ZM22.8 9.3C22.4 9.3 22.1 9.1 21.9 8.8C21.6 8.3 21.8 7.7 22.3 7.5C22.9 7.2 23.6 6.9 24.2 6.7C24.7 6.5 25.3 6.8 25.5 7.3C25.7 7.8 25.4 8.4 24.9 8.6C24.3 8.8 23.7 9.1 23.2 9.4C23.1 9.3 23 9.3 22.8 9.3ZM32.4 7.6H32.2999C31.6999 7.5 31.1 7.5 30.5 7.5C29.9 7.5 29.5 7.1 29.5 6.5C29.5 5.9 29.9 5.5 30.5 5.5C31.2 5.5 31.9 5.5 32.5 5.6C33 5.7 33.4 6.2 33.4 6.7C33.4 7.2 32.9 7.6 32.4 7.6Z" fill="#FFBFCD"/>
<path d="M6 29H0C0 29.7 0.1 30.3 0.1 31H6.1C6.1 30.3 6 29.7 6 29Z" fill="#F48BA2"/>
<path d="M6.2 24H0.2C0.1 24.7 0.1 25.3 0 26H6C6.1 25.3 6.1 24.7 6.2 24Z" fill="#F48BA2"/>
<path d="M6.5 34H0.5C0.6 34.7 0.8 35.3 1 36H7C6.8 35.3 6.7 34.7 6.5 34Z" fill="#F48BA2"/>
<path d="M7.90002 39H1.90002C2.20002 39.7 2.40002 40.3 2.70002 41H8.70002C8.50002 40.3 8.20002 39.7 7.90002 39Z" fill="#F48BA2"/>
<path d="M7.30005 19H1.30005C1.10005 19.7 0.900049 20.3 0.800049 21H6.80005C6.90005 20.3 7.10005 19.7 7.30005 19Z" fill="#F48BA2"/>
<path d="M9.30002 14H3.30002C3.00002 14.7 2.70002 15.3 2.40002 16H8.40002C8.60002 15.3 8.90002 14.7 9.30002 14Z" fill="#F48BA2"/>
<path d="M13.3 8H7.29995C6.69995 8.6 6.19995 9.3 5.69995 10H11.7C12.2 9.3 12.8 8.6 13.3 8Z" fill="#F48BA2"/>
<path d="M19.5 3H13.5C12.5 3.6 11.5 4.3 10.6 5H16.6C17.5 4.3 18.4 3.6 19.5 3Z" fill="#F48BA2"/>
<path d="M11 45H5C5.5 45.7 6 46.4 6.5 47H12.5C12 46.4 11.5 45.7 11 45Z" fill="#F48BA2"/>
<path d="M9.30005 50C10.1 50.7 10.9 51.4 11.8 52H17.8C16.9 51.4 16.1 50.7 15.3 50H9.30005Z" fill="#F48BA2"/>
<path d="M31.9976 33.1802H28.0669V36H24.9907V33.1802H22.4883V30.7021H24.9907V29.396H22.4883V26.918H24.9907V18.2266H31.79C33.7513 18.2266 35.3179 18.7393 36.4897 19.7646C37.6616 20.7819 38.2476 22.1369 38.2476 23.8296C38.2476 25.5549 37.6901 26.9098 36.5752 27.8945C35.4603 28.8711 33.91 29.3716 31.9243 29.396H28.0669V30.7021H31.9976V33.1802ZM28.0669 26.918H31.7412C32.848 26.918 33.6943 26.6616 34.2803 26.1489C34.8662 25.6362 35.1592 24.8713 35.1592 23.854C35.1592 22.9425 34.8703 22.1979 34.2925 21.6201C33.7228 21.0423 32.9334 20.7412 31.9243 20.7168H28.0669V26.918Z" fill="#F48BA2"/>
<path d="M45.5 56C32 56 21 43.5 21 28C21 12.5 32 0 45.5 0C59 0 70 12.5 70 28C70 43.5 59 56 45.5 56Z" fill="#FEEBEF"/>
<path d="M21 28C21 13.7 30.4 1.9 42.5 0.2C41.5 0.1 40.5 0 39.5 0C26 0 15 12.5 15 28C15 43.5 26 56 39.5 56C40.5 56 41.5 55.9 42.5 55.8C30.4 54.1 21 42.3 21 28Z" fill="#FFBFCD"/>
<path d="M45.6 50.5C44.8 50.5 44.1 50.5 43.4 50.4C42.9 50.3 42.5 49.8 42.5 49.3C42.6 48.8 43.1 48.4 43.6 48.4C44.2 48.5 44.8 48.5 45.5 48.5C46.1 48.5 46.5 48.9 46.5 49.5C46.5 50.1 46.1 50.5 45.6 50.5ZM51.4 49.4C51 49.4 50.6 49.2 50.5 48.8C50.3 48.3 50.5999 47.7 51.0999 47.5C51.6999 47.3 52.2999 47 52.7999 46.7C53.2999 46.4 53.8999 46.6 54.0999 47.1C54.3999 47.6 54.2 48.2 53.7 48.4C53.1 48.7 52.3999 49 51.7999 49.2C51.5999 49.4 51.5 49.4 51.4 49.4ZM37.9 48.7C37.7 48.7 37.6 48.7 37.4 48.6C36.8 48.3 36.2 47.9 35.6 47.6C35.1 47.3 35 46.7 35.3 46.2C35.6 45.7 36.2 45.6 36.7 45.9C37.2 46.2 37.8 46.6 38.3 46.8C38.8 47.1 39 47.7 38.7 48.1C38.6 48.5 38.2 48.7 37.9 48.7ZM58 45.1C57.7 45.1 57.4999 45 57.2999 44.8C56.8999 44.4 56.8999 43.8 57.2999 43.4C57.6999 43 58.1999 42.5 58.5999 42C58.8999 41.6 59.6 41.5 60 41.9C60.4 42.3 60.4999 42.9 60.0999 43.3C59.6999 43.8 59.2 44.4 58.7 44.8C58.5 45 58.2 45.1 58 45.1ZM31.8 43.7C31.5 43.7 31.2 43.6 31 43.3C30.6 42.8 30.1 42.2 29.8 41.6C29.5 41.1 29.6 40.5 30.1 40.2C30.6 39.9 31.2 40 31.5 40.5C31.9 41 32.2 41.5 32.6 42C33 42.4 32.9 43.1 32.5 43.4C32.2 43.6 32 43.7 31.8 43.7ZM62.4 38.6C62.3 38.6 62.1 38.6 62 38.5C61.5 38.3 61.3 37.7 61.5 37.2C61.8 36.6 62 36 62.2 35.4C62.4 34.9 62.9 34.6 63.5 34.8C64 35 64.2999 35.5 64.0999 36.1C63.8999 36.8 63.6 37.4 63.4 38C63.1 38.4 62.8 38.6 62.4 38.6ZM27.9 36.8C27.5 36.8 27.1 36.5 27 36.1C26.8 35.5 26.6 34.8 26.4 34.1C26.3 33.6 26.6 33 27.1 32.9C27.6 32.8 28.2 33.1 28.3 33.6C28.5 34.2 28.6 34.8 28.8 35.4C29 35.9 28.7 36.5 28.2 36.7C28.2 36.8 28.1 36.8 27.9 36.8ZM64.2999 30.9C64.1999 30.9 64.1999 30.9 64.2999 30.9C63.6999 30.9 63.2999 30.4 63.2999 29.8C63.2999 29.2 63.4 28.6 63.4 28C63.4 27.4 63.8 27 64.4 27C65 27 65.4 27.4 65.4 28V28C65.4 28.7 65.3999 29.3 65.2999 30C65.1999 30.5 64.7999 30.9 64.2999 30.9ZM26.7 29C26.1 29 25.7 28.6 25.7 28C25.7 27.3 25.7 26.6 25.8 26C25.8 25.5 26.3 25 26.9 25.1C27.5 25.1 27.9 25.6 27.8 26.2C27.8 26.8 27.7 27.5 27.7 28.1C27.7 28.6 27.2 29 26.7 29ZM63.5999 23C63.1999 23 62.6999 22.7 62.5999 22.2C62.3999 21.6 62.2999 21 62.0999 20.4C61.8999 19.9 62.2 19.3 62.7 19.1C63.2 18.9 63.8 19.2 64 19.7C64.2 20.3 64.3999 21 64.5999 21.7C64.6999 22.2 64.4 22.8 63.9 22.9C63.8 23 63.6999 23 63.5999 23ZM27.9 21.2C27.8 21.2 27.7 21.2 27.6 21.1C27.1 20.9 26.8 20.4 27 19.8C27.2 19.2 27.5 18.5 27.7 17.9C27.9 17.4 28.5 17.2 29 17.4C29.5 17.6 29.7 18.2 29.5 18.7C29.2 19.3 29 19.9 28.8 20.5C28.7 21 28.3 21.2 27.9 21.2ZM60.4 15.8C60.1 15.8 59.7999 15.6 59.5999 15.4C59.1999 14.9 58.9 14.4 58.5 13.9C58.1 13.5 58.1999 12.8 58.5999 12.5C58.9999 12.1 59.7 12.2 60 12.6C60.4 13.1 60.9 13.7 61.2 14.3C61.5 14.8 61.4 15.4 60.9 15.7C60.8 15.8 60.6 15.8 60.4 15.8ZM31.7 14.3C31.5 14.3 31.3 14.2 31.1 14.1C30.7 13.8 30.6 13.1 31 12.7C31.4 12.2 31.9 11.6 32.4 11.2C32.8 10.8 33.4 10.8 33.8 11.2C34.2 11.6 34.2 12.2 33.8 12.6C33.4 13 32.9 13.5 32.5 14C32.3 14.2 32 14.3 31.7 14.3ZM54.7999 10.3C54.5999 10.3 54.3999 10.2 54.2999 10.1C53.7999 9.8 53.2 9.4 52.7 9.2C52.2 9 51.9999 8.3 52.2999 7.9C52.4999 7.4 53.0999 7.2 53.5999 7.5C54.1999 7.8 54.8 8.2 55.4 8.5C55.9 8.8 56 9.4 55.7 9.9C55.5 10.1 55.0999 10.3 54.7999 10.3ZM37.8 9.3C37.4 9.3 37.1 9.1 36.9 8.8C36.6 8.3 36.8 7.7 37.3 7.5C37.9 7.2 38.6 6.9 39.2 6.7C39.7 6.5 40.3 6.8 40.5 7.3C40.7 7.8 40.4 8.4 39.9 8.6C39.3 8.8 38.7 9.1 38.2 9.4C38.1 9.3 38 9.3 37.8 9.3ZM47.4 7.6H47.2999C46.6999 7.5 46.1 7.5 45.5 7.5C44.9 7.5 44.5 7.1 44.5 6.5C44.5 5.9 44.9 5.5 45.5 5.5C46.2 5.5 46.9 5.5 47.5 5.6C48 5.7 48.4 6.2 48.4 6.7C48.4 7.2 47.9 7.6 47.4 7.6Z" fill="#FFBFCD"/>
<path d="M21 29H15C15 29.7 15.1 30.3 15.1 31H21.1C21.1 30.3 21 29.7 21 29Z" fill="#F48BA2"/>
<path d="M21.2 24H15.2C15.1 24.7 15.1 25.3 15 26H21C21.1 25.3 21.1 24.7 21.2 24Z" fill="#F48BA2"/>
<path d="M21.5 34H15.5C15.6 34.7 15.8 35.3 16 36H22C21.8 35.3 21.7 34.7 21.5 34Z" fill="#F48BA2"/>
<path d="M22.9 39H16.9C17.2 39.7 17.4 40.3 17.7 41H23.7C23.5 40.3 23.2 39.7 22.9 39Z" fill="#F48BA2"/>
<path d="M22.3 19H16.3C16.1 19.7 15.9 20.3 15.8 21H21.8C21.9 20.3 22.1 19.7 22.3 19Z" fill="#F48BA2"/>
<path d="M24.3 14H18.3C18 14.7 17.7 15.3 17.4 16H23.4C23.6 15.3 23.9 14.7 24.3 14Z" fill="#F48BA2"/>
<path d="M28.3 8H22.3C21.7 8.6 21.2 9.3 20.7 10H26.7C27.2 9.3 27.8 8.6 28.3 8Z" fill="#F48BA2"/>
<path d="M34.5 3H28.5C27.5 3.6 26.5 4.3 25.6 5H31.6C32.5 4.3 33.4 3.6 34.5 3Z" fill="#F48BA2"/>
<path d="M26 45H20C20.5 45.7 21 46.4 21.5 47H27.5C27 46.4 26.5 45.7 26 45Z" fill="#F48BA2"/>
<path d="M24.3 50C25.1 50.7 25.9 51.4 26.8 52H32.8C31.9 51.4 31.1 50.7 30.3 50H24.3Z" fill="#F48BA2"/>
<path d="M46.9976 33.1802H43.0669V36H39.9907V33.1802H37.4883V30.7021H39.9907V29.396H37.4883V26.918H39.9907V18.2266H46.79C48.7513 18.2266 50.3179 18.7393 51.4897 19.7646C52.6616 20.7819 53.2476 22.1369 53.2476 23.8296C53.2476 25.5549 52.6901 26.9098 51.5752 27.8945C50.4603 28.8711 48.91 29.3716 46.9243 29.396H43.0669V30.7021H46.9976V33.1802ZM43.0669 26.918H46.7412C47.848 26.918 48.6943 26.6616 49.2803 26.1489C49.8662 25.6362 50.1592 24.8713 50.1592 23.854C50.1592 22.9425 49.8703 22.1979 49.2925 21.6201C48.7228 21.0423 47.9334 20.7412 46.9243 20.7168H43.0669V26.918Z" fill="#F48BA2"/>
<path d="M61.5 56C48 56 37 43.5 37 28C37 12.5 48 0 61.5 0C75 0 86 12.5 86 28C86 43.5 75 56 61.5 56Z" fill="#FEEBEF"/>
<path d="M37 28C37 13.7 46.4 1.9 58.5 0.2C57.5 0.1 56.5 0 55.5 0C42 0 31 12.5 31 28C31 43.5 42 56 55.5 56C56.5 56 57.5 55.9 58.5 55.8C46.4 54.1 37 42.3 37 28Z" fill="#FFBFCD"/>
<path d="M61.6 50.5C60.8 50.5 60.1 50.5 59.4 50.4C58.9 50.3 58.5 49.8 58.5 49.3C58.6 48.8 59.1 48.4 59.6 48.4C60.2 48.5 60.8 48.5 61.5 48.5C62.1 48.5 62.5 48.9 62.5 49.5C62.5 50.1 62.1 50.5 61.6 50.5ZM67.4 49.4C67 49.4 66.6 49.2 66.5 48.8C66.3 48.3 66.5999 47.7 67.0999 47.5C67.6999 47.3 68.2999 47 68.7999 46.7C69.2999 46.4 69.8999 46.6 70.0999 47.1C70.3999 47.6 70.2 48.2 69.7 48.4C69.1 48.7 68.3999 49 67.7999 49.2C67.5999 49.4 67.5 49.4 67.4 49.4ZM53.9 48.7C53.7 48.7 53.6 48.7 53.4 48.6C52.8 48.3 52.2 47.9 51.6 47.6C51.1 47.3 51 46.7 51.3 46.2C51.6 45.7 52.2 45.6 52.7 45.9C53.2 46.2 53.8 46.6 54.3 46.8C54.8 47.1 55 47.7 54.7 48.1C54.6 48.5 54.2 48.7 53.9 48.7ZM74 45.1C73.7 45.1 73.4999 45 73.2999 44.8C72.8999 44.4 72.8999 43.8 73.2999 43.4C73.6999 43 74.1999 42.5 74.5999 42C74.8999 41.6 75.6 41.5 76 41.9C76.4 42.3 76.4999 42.9 76.0999 43.3C75.6999 43.8 75.2 44.4 74.7 44.8C74.5 45 74.2 45.1 74 45.1ZM47.8 43.7C47.5 43.7 47.2 43.6 47 43.3C46.6 42.8 46.1 42.2 45.8 41.6C45.5 41.1 45.6 40.5 46.1 40.2C46.6 39.9 47.2 40 47.5 40.5C47.9 41 48.2 41.5 48.6 42C49 42.4 48.9 43.1 48.5 43.4C48.2 43.6 48 43.7 47.8 43.7ZM78.4 38.6C78.3 38.6 78.1 38.6 78 38.5C77.5 38.3 77.3 37.7 77.5 37.2C77.8 36.6 78 36 78.2 35.4C78.4 34.9 78.9 34.6 79.5 34.8C80 35 80.2999 35.5 80.0999 36.1C79.8999 36.8 79.6 37.4 79.4 38C79.1 38.4 78.8 38.6 78.4 38.6ZM43.9 36.8C43.5 36.8 43.1 36.5 43 36.1C42.8 35.5 42.6 34.8 42.4 34.1C42.3 33.6 42.6 33 43.1 32.9C43.6 32.8 44.2 33.1 44.3 33.6C44.5 34.2 44.6 34.8 44.8 35.4C45 35.9 44.7 36.5 44.2 36.7C44.2 36.8 44.1 36.8 43.9 36.8ZM80.2999 30.9C80.1999 30.9 80.1999 30.9 80.2999 30.9C79.6999 30.9 79.2999 30.4 79.2999 29.8C79.2999 29.2 79.4 28.6 79.4 28C79.4 27.4 79.8 27 80.4 27C81 27 81.4 27.4 81.4 28V28C81.4 28.7 81.3999 29.3 81.2999 30C81.1999 30.5 80.7999 30.9 80.2999 30.9ZM42.7 29C42.1 29 41.7 28.6 41.7 28C41.7 27.3 41.7 26.6 41.8 26C41.8 25.5 42.3 25 42.9 25.1C43.5 25.1 43.9 25.6 43.8 26.2C43.8 26.8 43.7 27.5 43.7 28.1C43.7 28.6 43.2 29 42.7 29ZM79.5999 23C79.1999 23 78.6999 22.7 78.5999 22.2C78.3999 21.6 78.2999 21 78.0999 20.4C77.8999 19.9 78.2 19.3 78.7 19.1C79.2 18.9 79.8 19.2 80 19.7C80.2 20.3 80.3999 21 80.5999 21.7C80.6999 22.2 80.4 22.8 79.9 22.9C79.8 23 79.6999 23 79.5999 23ZM43.9 21.2C43.8 21.2 43.7 21.2 43.6 21.1C43.1 20.9 42.8 20.4 43 19.8C43.2 19.2 43.5 18.5 43.7 17.9C43.9 17.4 44.5 17.2 45 17.4C45.5 17.6 45.7 18.2 45.5 18.7C45.2 19.3 45 19.9 44.8 20.5C44.7 21 44.3 21.2 43.9 21.2ZM76.4 15.8C76.1 15.8 75.7999 15.6 75.5999 15.4C75.1999 14.9 74.9 14.4 74.5 13.9C74.1 13.5 74.1999 12.8 74.5999 12.5C74.9999 12.1 75.7 12.2 76 12.6C76.4 13.1 76.9 13.7 77.2 14.3C77.5 14.8 77.4 15.4 76.9 15.7C76.8 15.8 76.6 15.8 76.4 15.8ZM47.7 14.3C47.5 14.3 47.3 14.2 47.1 14.1C46.7 13.8 46.6 13.1 47 12.7C47.4 12.2 47.9 11.6 48.4 11.2C48.8 10.8 49.4 10.8 49.8 11.2C50.2 11.6 50.2 12.2 49.8 12.6C49.4 13 48.9 13.5 48.5 14C48.3 14.2 48 14.3 47.7 14.3ZM70.7999 10.3C70.5999 10.3 70.3999 10.2 70.2999 10.1C69.7999 9.8 69.2 9.4 68.7 9.2C68.2 9 67.9999 8.3 68.2999 7.9C68.4999 7.4 69.0999 7.2 69.5999 7.5C70.1999 7.8 70.8 8.2 71.4 8.5C71.9 8.8 72 9.4 71.7 9.9C71.5 10.1 71.0999 10.3 70.7999 10.3ZM53.8 9.3C53.4 9.3 53.1 9.1 52.9 8.8C52.6 8.3 52.8 7.7 53.3 7.5C53.9 7.2 54.6 6.9 55.2 6.7C55.7 6.5 56.3 6.8 56.5 7.3C56.7 7.8 56.4 8.4 55.9 8.6C55.3 8.8 54.7 9.1 54.2 9.4C54.1 9.3 54 9.3 53.8 9.3ZM63.4 7.6H63.2999C62.6999 7.5 62.1 7.5 61.5 7.5C60.9 7.5 60.5 7.1 60.5 6.5C60.5 5.9 60.9 5.5 61.5 5.5C62.2 5.5 62.9 5.5 63.5 5.6C64 5.7 64.4 6.2 64.4 6.7C64.4 7.2 63.9 7.6 63.4 7.6Z" fill="#FFBFCD"/>
<path d="M37 29H31C31 29.7 31.1 30.3 31.1 31H37.1C37.1 30.3 37 29.7 37 29Z" fill="#F48BA2"/>
<path d="M37.2 24H31.2C31.1 24.7 31.1 25.3 31 26H37C37.1 25.3 37.1 24.7 37.2 24Z" fill="#F48BA2"/>
<path d="M37.5 34H31.5C31.6 34.7 31.8 35.3 32 36H38C37.8 35.3 37.7 34.7 37.5 34Z" fill="#F48BA2"/>
<path d="M38.9 39H32.9C33.2 39.7 33.4 40.3 33.7 41H39.7C39.5 40.3 39.2 39.7 38.9 39Z" fill="#F48BA2"/>
<path d="M38.3 19H32.3C32.1 19.7 31.9 20.3 31.8 21H37.8C37.9 20.3 38.1 19.7 38.3 19Z" fill="#F48BA2"/>
<path d="M40.3 14H34.3C34 14.7 33.7 15.3 33.4 16H39.4C39.6 15.3 39.9 14.7 40.3 14Z" fill="#F48BA2"/>
<path d="M44.3 8H38.3C37.7 8.6 37.2 9.3 36.7 10H42.7C43.2 9.3 43.8 8.6 44.3 8Z" fill="#F48BA2"/>
<path d="M50.5 3H44.5C43.5 3.6 42.5 4.3 41.6 5H47.6C48.5 4.3 49.4 3.6 50.5 3Z" fill="#F48BA2"/>
<path d="M42 45H36C36.5 45.7 37 46.4 37.5 47H43.5C43 46.4 42.5 45.7 42 45Z" fill="#F48BA2"/>
<path d="M40.3 50C41.1 50.7 41.9 51.4 42.8 52H48.8C47.9 51.4 47.1 50.7 46.3 50H40.3Z" fill="#F48BA2"/>
<path d="M62.9976 33.1802H59.0669V36H55.9907V33.1802H53.4883V30.7021H55.9907V29.396H53.4883V26.918H55.9907V18.2266H62.79C64.7513 18.2266 66.3179 18.7393 67.4897 19.7646C68.6616 20.7819 69.2476 22.1369 69.2476 23.8296C69.2476 25.5549 68.6901 26.9098 67.5752 27.8945C66.4603 28.8711 64.91 29.3716 62.9243 29.396H59.0669V30.7021H62.9976V33.1802ZM59.0669 26.918H62.7412C63.848 26.918 64.6943 26.6616 65.2803 26.1489C65.8662 25.6362 66.1592 24.8713 66.1592 23.854C66.1592 22.9425 65.8703 22.1979 65.2925 21.6201C64.7228 21.0423 63.9334 20.7412 62.9243 20.7168H59.0669V26.918Z" fill="#F48BA2"/>
<path d="M76.5 56C63 56 52 43.5 52 28C52 12.5 63 0 76.5 0C90 0 101 12.5 101 28C101 43.5 90 56 76.5 56Z" fill="#FEEBEF"/>
<path d="M52 28C52 13.7 61.4 1.9 73.5 0.2C72.5 0.1 71.5 0 70.5 0C57 0 46 12.5 46 28C46 43.5 57 56 70.5 56C71.5 56 72.5 55.9 73.5 55.8C61.4 54.1 52 42.3 52 28Z" fill="#FFBFCD"/>
<path d="M76.6 50.5C75.8 50.5 75.1 50.5 74.4 50.4C73.9 50.3 73.5 49.8 73.5 49.3C73.6 48.8 74.1 48.4 74.6 48.4C75.2 48.5 75.8 48.5 76.5 48.5C77.1 48.5 77.5 48.9 77.5 49.5C77.5 50.1 77.1 50.5 76.6 50.5ZM82.4 49.4C82 49.4 81.6 49.2 81.5 48.8C81.3 48.3 81.5999 47.7 82.0999 47.5C82.6999 47.3 83.2999 47 83.7999 46.7C84.2999 46.4 84.8999 46.6 85.0999 47.1C85.3999 47.6 85.2 48.2 84.7 48.4C84.1 48.7 83.3999 49 82.7999 49.2C82.5999 49.4 82.5 49.4 82.4 49.4ZM68.9 48.7C68.7 48.7 68.6 48.7 68.4 48.6C67.8 48.3 67.2 47.9 66.6 47.6C66.1 47.3 66 46.7 66.3 46.2C66.6 45.7 67.2 45.6 67.7 45.9C68.2 46.2 68.8 46.6 69.3 46.8C69.8 47.1 70 47.7 69.7 48.1C69.6 48.5 69.2 48.7 68.9 48.7ZM89 45.1C88.7 45.1 88.4999 45 88.2999 44.8C87.8999 44.4 87.8999 43.8 88.2999 43.4C88.6999 43 89.1999 42.5 89.5999 42C89.8999 41.6 90.6 41.5 91 41.9C91.4 42.3 91.4999 42.9 91.0999 43.3C90.6999 43.8 90.2 44.4 89.7 44.8C89.5 45 89.2 45.1 89 45.1ZM62.8 43.7C62.5 43.7 62.2 43.6 62 43.3C61.6 42.8 61.1 42.2 60.8 41.6C60.5 41.1 60.6 40.5 61.1 40.2C61.6 39.9 62.2 40 62.5 40.5C62.9 41 63.2 41.5 63.6 42C64 42.4 63.9 43.1 63.5 43.4C63.2 43.6 63 43.7 62.8 43.7ZM93.4 38.6C93.3 38.6 93.1 38.6 93 38.5C92.5 38.3 92.3 37.7 92.5 37.2C92.8 36.6 93 36 93.2 35.4C93.4 34.9 93.9 34.6 94.5 34.8C95 35 95.2999 35.5 95.0999 36.1C94.8999 36.8 94.6 37.4 94.4 38C94.1 38.4 93.8 38.6 93.4 38.6ZM58.9 36.8C58.5 36.8 58.1 36.5 58 36.1C57.8 35.5 57.6 34.8 57.4 34.1C57.3 33.6 57.6 33 58.1 32.9C58.6 32.8 59.2 33.1 59.3 33.6C59.5 34.2 59.6 34.8 59.8 35.4C60 35.9 59.7 36.5 59.2 36.7C59.2 36.8 59.1 36.8 58.9 36.8ZM95.2999 30.9C95.1999 30.9 95.1999 30.9 95.2999 30.9C94.6999 30.9 94.2999 30.4 94.2999 29.8C94.2999 29.2 94.4 28.6 94.4 28C94.4 27.4 94.8 27 95.4 27C96 27 96.4 27.4 96.4 28V28C96.4 28.7 96.3999 29.3 96.2999 30C96.1999 30.5 95.7999 30.9 95.2999 30.9ZM57.7 29C57.1 29 56.7 28.6 56.7 28C56.7 27.3 56.7 26.6 56.8 26C56.8 25.5 57.3 25 57.9 25.1C58.5 25.1 58.9 25.6 58.8 26.2C58.8 26.8 58.7 27.5 58.7 28.1C58.7 28.6 58.2 29 57.7 29ZM94.5999 23C94.1999 23 93.6999 22.7 93.5999 22.2C93.3999 21.6 93.2999 21 93.0999 20.4C92.8999 19.9 93.2 19.3 93.7 19.1C94.2 18.9 94.8 19.2 95 19.7C95.2 20.3 95.3999 21 95.5999 21.7C95.6999 22.2 95.4 22.8 94.9 22.9C94.8 23 94.6999 23 94.5999 23ZM58.9 21.2C58.8 21.2 58.7 21.2 58.6 21.1C58.1 20.9 57.8 20.4 58 19.8C58.2 19.2 58.5 18.5 58.7 17.9C58.9 17.4 59.5 17.2 60 17.4C60.5 17.6 60.7 18.2 60.5 18.7C60.2 19.3 60 19.9 59.8 20.5C59.7 21 59.3 21.2 58.9 21.2ZM91.4 15.8C91.1 15.8 90.7999 15.6 90.5999 15.4C90.1999 14.9 89.9 14.4 89.5 13.9C89.1 13.5 89.1999 12.8 89.5999 12.5C89.9999 12.1 90.7 12.2 91 12.6C91.4 13.1 91.9 13.7 92.2 14.3C92.5 14.8 92.4 15.4 91.9 15.7C91.8 15.8 91.6 15.8 91.4 15.8ZM62.7 14.3C62.5 14.3 62.3 14.2 62.1 14.1C61.7 13.8 61.6 13.1 62 12.7C62.4 12.2 62.9 11.6 63.4 11.2C63.8 10.8 64.4 10.8 64.8 11.2C65.2 11.6 65.2 12.2 64.8 12.6C64.4 13 63.9 13.5 63.5 14C63.3 14.2 63 14.3 62.7 14.3ZM85.7999 10.3C85.5999 10.3 85.3999 10.2 85.2999 10.1C84.7999 9.8 84.2 9.4 83.7 9.2C83.2 9 82.9999 8.3 83.2999 7.9C83.4999 7.4 84.0999 7.2 84.5999 7.5C85.1999 7.8 85.8 8.2 86.4 8.5C86.9 8.8 87 9.4 86.7 9.9C86.5 10.1 86.0999 10.3 85.7999 10.3ZM68.8 9.3C68.4 9.3 68.1 9.1 67.9 8.8C67.6 8.3 67.8 7.7 68.3 7.5C68.9 7.2 69.6 6.9 70.2 6.7C70.7 6.5 71.3 6.8 71.5 7.3C71.7 7.8 71.4 8.4 70.9 8.6C70.3 8.8 69.7 9.1 69.2 9.4C69.1 9.3 69 9.3 68.8 9.3ZM78.4 7.6H78.2999C77.6999 7.5 77.1 7.5 76.5 7.5C75.9 7.5 75.5 7.1 75.5 6.5C75.5 5.9 75.9 5.5 76.5 5.5C77.2 5.5 77.9 5.5 78.5 5.6C79 5.7 79.4 6.2 79.4 6.7C79.4 7.2 78.9 7.6 78.4 7.6Z" fill="#FFBFCD"/>
<path d="M52 29H46C46 29.7 46.1 30.3 46.1 31H52.1C52.1 30.3 52 29.7 52 29Z" fill="#F48BA2"/>
<path d="M52.2 24H46.2C46.1 24.7 46.1 25.3 46 26H52C52.1 25.3 52.1 24.7 52.2 24Z" fill="#F48BA2"/>
<path d="M52.5 34H46.5C46.6 34.7 46.8 35.3 47 36H53C52.8 35.3 52.7 34.7 52.5 34Z" fill="#F48BA2"/>
<path d="M53.9 39H47.9C48.2 39.7 48.4 40.3 48.7 41H54.7C54.5 40.3 54.2 39.7 53.9 39Z" fill="#F48BA2"/>
<path d="M53.3 19H47.3C47.1 19.7 46.9 20.3 46.8 21H52.8C52.9 20.3 53.1 19.7 53.3 19Z" fill="#F48BA2"/>
<path d="M55.3 14H49.3C49 14.7 48.7 15.3 48.4 16H54.4C54.6 15.3 54.9 14.7 55.3 14Z" fill="#F48BA2"/>
<path d="M59.3 8H53.3C52.7 8.6 52.2 9.3 51.7 10H57.7C58.2 9.3 58.8 8.6 59.3 8Z" fill="#F48BA2"/>
<path d="M65.5 3H59.5C58.5 3.6 57.5 4.3 56.6 5H62.6C63.5 4.3 64.4 3.6 65.5 3Z" fill="#F48BA2"/>
<path d="M57 45H51C51.5 45.7 52 46.4 52.5 47H58.5C58 46.4 57.5 45.7 57 45Z" fill="#F48BA2"/>
<path d="M55.3 50C56.1 50.7 56.9 51.4 57.8 52H63.8C62.9 51.4 62.1 50.7 61.3 50H55.3Z" fill="#F48BA2"/>
<path d="M77.9976 33.1802H74.0669V36H70.9907V33.1802H68.4883V30.7021H70.9907V29.396H68.4883V26.918H70.9907V18.2266H77.79C79.7513 18.2266 81.3179 18.7393 82.4897 19.7646C83.6616 20.7819 84.2476 22.1369 84.2476 23.8296C84.2476 25.5549 83.6901 26.9098 82.5752 27.8945C81.4603 28.8711 79.91 29.3716 77.9243 29.396H74.0669V30.7021H77.9976V33.1802ZM74.0669 26.918H77.7412C78.848 26.918 79.6943 26.6616 80.2803 26.1489C80.8662 25.6362 81.1592 24.8713 81.1592 23.854C81.1592 22.9425 80.8703 22.1979 80.2925 21.6201C79.7228 21.0423 78.9334 20.7412 77.9243 20.7168H74.0669V26.918Z" fill="#F48BA2"/>
<path d="M91.5 56C78 56 67 43.5 67 28C67 12.5 78 0 91.5 0C105 0 116 12.5 116 28C116 43.5 105 56 91.5 56Z" fill="#FEEBEF"/>
<path d="M67 28C67 13.7 76.4 1.9 88.5 0.2C87.5 0.1 86.5 0 85.5 0C72 0 61 12.5 61 28C61 43.5 72 56 85.5 56C86.5 56 87.5 55.9 88.5 55.8C76.4 54.1 67 42.3 67 28Z" fill="#FFBFCD"/>
<path d="M91.6 50.5C90.8 50.5 90.1 50.5 89.4 50.4C88.9 50.3 88.5 49.8 88.5 49.3C88.6 48.8 89.1 48.4 89.6 48.4C90.2 48.5 90.8 48.5 91.5 48.5C92.1 48.5 92.5 48.9 92.5 49.5C92.5 50.1 92.1 50.5 91.6 50.5ZM97.4 49.4C97 49.4 96.6 49.2 96.5 48.8C96.3 48.3 96.5999 47.7 97.0999 47.5C97.6999 47.3 98.2999 47 98.7999 46.7C99.2999 46.4 99.8999 46.6 100.1 47.1C100.4 47.6 100.2 48.2 99.7 48.4C99.1 48.7 98.3999 49 97.7999 49.2C97.5999 49.4 97.5 49.4 97.4 49.4ZM83.9 48.7C83.7 48.7 83.6 48.7 83.4 48.6C82.8 48.3 82.2 47.9 81.6 47.6C81.1 47.3 81 46.7 81.3 46.2C81.6 45.7 82.2 45.6 82.7 45.9C83.2 46.2 83.8 46.6 84.3 46.8C84.8 47.1 85 47.7 84.7 48.1C84.6 48.5 84.2 48.7 83.9 48.7ZM104 45.1C103.7 45.1 103.5 45 103.3 44.8C102.9 44.4 102.9 43.8 103.3 43.4C103.7 43 104.2 42.5 104.6 42C104.9 41.6 105.6 41.5 106 41.9C106.4 42.3 106.5 42.9 106.1 43.3C105.7 43.8 105.2 44.4 104.7 44.8C104.5 45 104.2 45.1 104 45.1ZM77.8 43.7C77.5 43.7 77.2 43.6 77 43.3C76.6 42.8 76.1 42.2 75.8 41.6C75.5 41.1 75.6 40.5 76.1 40.2C76.6 39.9 77.2 40 77.5 40.5C77.9 41 78.2 41.5 78.6 42C79 42.4 78.9 43.1 78.5 43.4C78.2 43.6 78 43.7 77.8 43.7ZM108.4 38.6C108.3 38.6 108.1 38.6 108 38.5C107.5 38.3 107.3 37.7 107.5 37.2C107.8 36.6 108 36 108.2 35.4C108.4 34.9 108.9 34.6 109.5 34.8C110 35 110.3 35.5 110.1 36.1C109.9 36.8 109.6 37.4 109.4 38C109.1 38.4 108.8 38.6 108.4 38.6ZM73.9 36.8C73.5 36.8 73.1 36.5 73 36.1C72.8 35.5 72.6 34.8 72.4 34.1C72.3 33.6 72.6 33 73.1 32.9C73.6 32.8 74.2 33.1 74.3 33.6C74.5 34.2 74.6 34.8 74.8 35.4C75 35.9 74.7 36.5 74.2 36.7C74.2 36.8 74.1 36.8 73.9 36.8ZM110.3 30.9C110.2 30.9 110.2 30.9 110.3 30.9C109.7 30.9 109.3 30.4 109.3 29.8C109.3 29.2 109.4 28.6 109.4 28C109.4 27.4 109.8 27 110.4 27C111 27 111.4 27.4 111.4 28V28C111.4 28.7 111.4 29.3 111.3 30C111.2 30.5 110.8 30.9 110.3 30.9ZM72.7 29C72.1 29 71.7 28.6 71.7 28C71.7 27.3 71.7 26.6 71.8 26C71.8 25.5 72.3 25 72.9 25.1C73.5 25.1 73.9 25.6 73.8 26.2C73.8 26.8 73.7 27.5 73.7 28.1C73.7 28.6 73.2 29 72.7 29ZM109.6 23C109.2 23 108.7 22.7 108.6 22.2C108.4 21.6 108.3 21 108.1 20.4C107.9 19.9 108.2 19.3 108.7 19.1C109.2 18.9 109.8 19.2 110 19.7C110.2 20.3 110.4 21 110.6 21.7C110.7 22.2 110.4 22.8 109.9 22.9C109.8 23 109.7 23 109.6 23ZM73.9 21.2C73.8 21.2 73.7 21.2 73.6 21.1C73.1 20.9 72.8 20.4 73 19.8C73.2 19.2 73.5 18.5 73.7 17.9C73.9 17.4 74.5 17.2 75 17.4C75.5 17.6 75.7 18.2 75.5 18.7C75.2 19.3 75 19.9 74.8 20.5C74.7 21 74.3 21.2 73.9 21.2ZM106.4 15.8C106.1 15.8 105.8 15.6 105.6 15.4C105.2 14.9 104.9 14.4 104.5 13.9C104.1 13.5 104.2 12.8 104.6 12.5C105 12.1 105.7 12.2 106 12.6C106.4 13.1 106.9 13.7 107.2 14.3C107.5 14.8 107.4 15.4 106.9 15.7C106.8 15.8 106.6 15.8 106.4 15.8ZM77.7 14.3C77.5 14.3 77.3 14.2 77.1 14.1C76.7 13.8 76.6 13.1 77 12.7C77.4 12.2 77.9 11.6 78.4 11.2C78.8 10.8 79.4 10.8 79.8 11.2C80.2 11.6 80.2 12.2 79.8 12.6C79.4 13 78.9 13.5 78.5 14C78.3 14.2 78 14.3 77.7 14.3ZM100.8 10.3C100.6 10.3 100.4 10.2 100.3 10.1C99.7999 9.8 99.2 9.4 98.7 9.2C98.2 9 97.9999 8.3 98.2999 7.9C98.4999 7.4 99.0999 7.2 99.5999 7.5C100.2 7.8 100.8 8.2 101.4 8.5C101.9 8.8 102 9.4 101.7 9.9C101.5 10.1 101.1 10.3 100.8 10.3ZM83.8 9.3C83.4 9.3 83.1 9.1 82.9 8.8C82.6 8.3 82.8 7.7 83.3 7.5C83.9 7.2 84.6 6.9 85.2 6.7C85.7 6.5 86.3 6.8 86.5 7.3C86.7 7.8 86.4 8.4 85.9 8.6C85.3 8.8 84.7 9.1 84.2 9.4C84.1 9.3 84 9.3 83.8 9.3ZM93.4 7.6H93.2999C92.6999 7.5 92.1 7.5 91.5 7.5C90.9 7.5 90.5 7.1 90.5 6.5C90.5 5.9 90.9 5.5 91.5 5.5C92.2 5.5 92.9 5.5 93.5 5.6C94 5.7 94.4 6.2 94.4 6.7C94.4 7.2 93.9 7.6 93.4 7.6Z" fill="#FFBFCD"/>
<path d="M67 29H61C61 29.7 61.1 30.3 61.1 31H67.1C67.1 30.3 67 29.7 67 29Z" fill="#F48BA2"/>
<path d="M67.2 24H61.2C61.1 24.7 61.1 25.3 61 26H67C67.1 25.3 67.1 24.7 67.2 24Z" fill="#F48BA2"/>
<path d="M67.5 34H61.5C61.6 34.7 61.8 35.3 62 36H68C67.8 35.3 67.7 34.7 67.5 34Z" fill="#F48BA2"/>
<path d="M68.9 39H62.9C63.2 39.7 63.4 40.3 63.7 41H69.7C69.5 40.3 69.2 39.7 68.9 39Z" fill="#F48BA2"/>
<path d="M68.3 19H62.3C62.1 19.7 61.9 20.3 61.8 21H67.8C67.9 20.3 68.1 19.7 68.3 19Z" fill="#F48BA2"/>
<path d="M70.3 14H64.3C64 14.7 63.7 15.3 63.4 16H69.4C69.6 15.3 69.9 14.7 70.3 14Z" fill="#F48BA2"/>
<path d="M74.3 8H68.3C67.7 8.6 67.2 9.3 66.7 10H72.7C73.2 9.3 73.8 8.6 74.3 8Z" fill="#F48BA2"/>
<path d="M80.5 3H74.5C73.5 3.6 72.5 4.3 71.6 5H77.6C78.5 4.3 79.4 3.6 80.5 3Z" fill="#F48BA2"/>
<path d="M72 45H66C66.5 45.7 67 46.4 67.5 47H73.5C73 46.4 72.5 45.7 72 45Z" fill="#F48BA2"/>
<path d="M70.3 50C71.1 50.7 71.9 51.4 72.8 52H78.8C77.9 51.4 77.1 50.7 76.3 50H70.3Z" fill="#F48BA2"/>
<path d="M92.9976 33.1802H89.0669V36H85.9907V33.1802H83.4883V30.7021H85.9907V29.396H83.4883V26.918H85.9907V18.2266H92.79C94.7513 18.2266 96.3179 18.7393 97.4897 19.7646C98.6616 20.7819 99.2476 22.1369 99.2476 23.8296C99.2476 25.5549 98.6901 26.9098 97.5752 27.8945C96.4603 28.8711 94.91 29.3716 92.9243 29.396H89.0669V30.7021H92.9976V33.1802ZM89.0669 26.918H92.7412C93.848 26.918 94.6943 26.6616 95.2803 26.1489C95.8662 25.6362 96.1592 24.8713 96.1592 23.854C96.1592 22.9425 95.8703 22.1979 95.2925 21.6201C94.7228 21.0423 93.9334 20.7412 92.9243 20.7168H89.0669V26.918Z" fill="#F48BA2"/>
</svg>
