<svg width="20" height="20" viewBox="0 0 20 20" fill="none" xmlns="http://www.w3.org/2000/svg">
<circle cx="10" cy="10" r="10" fill="#FEEBEF"/>
<path d="M9.24365 12.3975C9.24788 12.0928 9.26058 11.8431 9.28174 11.6484C9.3029 11.4495 9.34733 11.2739 9.41504 11.1216C9.48275 10.965 9.58008 10.8169 9.70703 10.6772C9.83398 10.5334 10.0033 10.3641 10.2148 10.1694C10.3587 10.0213 10.5047 9.86898 10.6528 9.7124C10.8052 9.55583 10.9427 9.3929 11.0654 9.22363C11.1924 9.05013 11.2961 8.86816 11.3765 8.67773C11.4569 8.4873 11.4971 8.2863 11.4971 8.07471C11.4971 7.61344 11.3638 7.26221 11.0972 7.021C10.8306 6.77555 10.4497 6.65283 9.95459 6.65283C9.7557 6.65283 9.56104 6.67822 9.37061 6.729C9.18441 6.77555 9.01725 6.85173 8.86914 6.95752C8.72526 7.05908 8.60889 7.19027 8.52002 7.35107C8.43115 7.50765 8.38672 7.69596 8.38672 7.91602H7.2124C7.21663 7.56055 7.29069 7.24105 7.43457 6.95752C7.57845 6.67399 7.771 6.4349 8.01221 6.24023C8.25765 6.04134 8.54541 5.89111 8.87549 5.78955C9.2098 5.68376 9.5695 5.63086 9.95459 5.63086C10.382 5.63086 10.7629 5.68587 11.0972 5.7959C11.4357 5.90169 11.7214 6.05827 11.9541 6.26562C12.1868 6.47298 12.3646 6.72477 12.4873 7.021C12.61 7.31722 12.6714 7.65576 12.6714 8.03662C12.6714 8.34131 12.6185 8.62907 12.5127 8.8999C12.4069 9.1665 12.2715 9.42041 12.1064 9.66162C11.9414 9.8986 11.7552 10.1208 11.5479 10.3281C11.3447 10.5355 11.1437 10.728 10.9448 10.9058C10.8179 11.0285 10.7184 11.1449 10.6465 11.2549C10.5788 11.3649 10.528 11.4771 10.4941 11.5913C10.4603 11.7056 10.4391 11.8283 10.4307 11.9595C10.4222 12.0864 10.418 12.2324 10.418 12.3975H9.24365ZM9.11035 14.3843C9.11035 14.1812 9.1696 14.0119 9.28809 13.8765C9.41081 13.741 9.59277 13.6733 9.83398 13.6733C10.0752 13.6733 10.2572 13.741 10.3799 13.8765C10.5068 14.0119 10.5703 14.1812 10.5703 14.3843C10.5703 14.5789 10.5068 14.7419 10.3799 14.873C10.2572 15.0042 10.0752 15.0698 9.83398 15.0698C9.59277 15.0698 9.41081 15.0042 9.28809 14.873C9.1696 14.7419 9.11035 14.5789 9.11035 14.3843Z" fill="#FE4D4A"/>
</svg>
