<svg xmlns="http://www.w3.org/2000/svg" width="12" height="12" viewBox="0 0 12 12">
  <defs>
    <style>
      .cls-1 {
        fill: #fff;
        fill-rule: evenodd;
      }
    </style>
  </defs>
  <path id="close" class="cls-1" d="M1367.32,146l4.49-4.487a0.662,0.662,0,0,0,0-.928l-0.39-.393a0.668,0.668,0,0,0-.47-0.192,0.645,0.645,0,0,0-.46.192l-4.49,4.486-4.49-4.486a0.647,0.647,0,0,0-.92,0l-0.4.393a0.668,0.668,0,0,0,0,.928l4.49,4.487-4.49,4.487a0.662,0.662,0,0,0,0,.928l0.4,0.393a0.647,0.647,0,0,0,.92,0l4.49-4.487,4.49,4.487a0.645,0.645,0,0,0,.46.192h0a0.668,0.668,0,0,0,.47-0.192l0.39-.393a0.662,0.662,0,0,0,0-.928Z" transform="translate(-1360 -140)"/>
</svg>
