<svg xmlns="http://www.w3.org/2000/svg" width="30" height="30" viewBox="0 0 30 30">
  <defs>
    <style>
      .cls-1 {
        fill: #fff;
        fill-rule: evenodd;
      }
    </style>
  </defs>
  <path id="ico-3" class="cls-1" d="M1027,481h0Zm16-19v8h8Zm-12.03,28.758-1.53-6.146A4.988,4.988,0,0,0,1026,476a4.988,4.988,0,0,0-3.44,8.612l-1.53,6.146a1,1,0,0,0,1.42,1.138l3.55-1.778,3.55,1.778a1.085,1.085,0,0,0,.45.1,1.021,1.021,0,0,0,.63-0.218A1,1,0,0,0,1030.97,490.758ZM1026,484a3,3,0,1,1,3-3A3.006,3.006,0,0,1,1026,484Zm17-12a2,2,0,0,1-2-2v-8h-12a2,2,0,0,0-2,2v10.1a6.982,6.982,0,0,1,6,6.9,6.892,6.892,0,0,1-1.37,4.142l1.21,4.858H1049a2,2,0,0,0,2-2V472h-8Zm-11-2a1,1,0,0,1,0-2h6a1,1,0,0,1,0,2h-6Zm14,12h-10a1,1,0,0,1,0-2h10A1,1,0,0,1,1046,482Zm0-6h-12a1,1,0,0,1,0-2h12A1,1,0,0,1,1046,476Z" transform="translate(-1021 -462)"/>
</svg>
