<svg xmlns="http://www.w3.org/2000/svg" width="23" height="30" viewBox="0 0 23 30">
  <defs>
    <style>
      .cls-1 {
        fill: #fff;
        fill-rule: evenodd;
      }
    </style>
  </defs>
  <path id="ico-2" class="cls-1" d="M782.016,485.138h3.735l-4.038,4.268v-3.967A0.3,0.3,0,0,1,782.016,485.138ZM780.229,492H765.742a0.738,0.738,0,0,1-.742-0.735v-28.53a0.738,0.738,0,0,1,.742-0.735h21.516a0.738,0.738,0,0,1,.742.735v20.933h-5.984a1.781,1.781,0,0,0-1.787,1.771V492h0Zm-11.7-25.735a0.738,0.738,0,0,0,.742.735h12.981a0.736,0.736,0,1,0,0-1.471H769.268A0.739,0.739,0,0,0,768.526,466.265Zm0,4.485a0.738,0.738,0,0,0,.742.735h12.981a0.735,0.735,0,1,0,0-1.47H769.268A0.738,0.738,0,0,0,768.526,470.75Zm0,4.485a0.739,0.739,0,0,0,.742.736h10.667a0.736,0.736,0,1,0,0-1.471H769.268A0.738,0.738,0,0,0,768.526,475.235Zm0.742,5.221h14.779a0.736,0.736,0,1,0,0-1.471H769.268A0.736,0.736,0,1,0,769.268,480.456Z" transform="translate(-765 -462)"/>
</svg>
