<svg xmlns="http://www.w3.org/2000/svg" width="30" height="30" viewBox="0 0 30 30">
  <defs>
    <style>
      .cls-1 {
        fill: #fff;
        fill-rule: evenodd;
      }
    </style>
  </defs>
  <path id="ico-1" class="cls-1" d="M510.626,485.558a3.712,3.712,0,1,1-3.636,3.711A3.674,3.674,0,0,1,510.626,485.558Zm11.649-.036h0a3.691,3.691,0,0,0-4.013,3.362A3.665,3.665,0,1,0,522.275,485.522Zm7.484-14.125a0.946,0.946,0,0,0-.812-0.433h-4.024v-0.072a7.733,7.733,0,1,0-15.462,0h0v0.072h-3l-1.024-4.756a1.063,1.063,0,0,0-1.023-.829H500v2.162h3.565l3.283,15.386a1.03,1.03,0,0,0,1.024.865h18.463a1.065,1.065,0,0,0,1.024-.829l2.612-10.666A1.026,1.026,0,0,0,529.759,471.4Zm-12.567,5.224a5.73,5.73,0,1,1,5.613-5.729A5.672,5.672,0,0,1,517.192,476.621ZM516.344,471l-1.941-2.018-1.518,1.514,2.683,2.774a1.051,1.051,0,0,0,.741.325,0.977,0.977,0,0,0,.741-0.289l4.448-4.288-1.447-1.585Z" transform="translate(-500 -463)"/>
</svg>
