<svg xmlns="http://www.w3.org/2000/svg" width="16" height="16" viewBox="0 0 16 16">
  <defs>
    <style>
      .cls-1 {
        fill: #fff;
        fill-rule: evenodd;
      }
    </style>
  </defs>
  <path id="ig" class="cls-1" d="M842.352,2629h-6.7a4.657,4.657,0,0,0-4.648,4.65v6.7a4.657,4.657,0,0,0,4.648,4.65h6.7a4.657,4.657,0,0,0,4.648-4.65v-6.7A4.657,4.657,0,0,0,842.352,2629Zm3.4,11.35a3.4,3.4,0,0,1-3.4,3.4h-6.7a3.4,3.4,0,0,1-3.4-3.4v-6.7a3.4,3.4,0,0,1,3.4-3.4h6.7a3.4,3.4,0,0,1,3.4,3.4v6.7Zm-6.75-7.66a4.31,4.31,0,1,0,4.312,4.31A4.314,4.314,0,0,0,839,2632.69Zm0,7.37a3.06,3.06,0,1,1,3.062-3.06A3.063,3.063,0,0,1,839,2640.06Zm4.375-8.06a0.625,0.625,0,1,1-.625.63A0.626,0.626,0,0,1,843.375,2632Z" transform="translate(-831 -2629)"/>
</svg>
