<svg xmlns="http://www.w3.org/2000/svg" width="14" height="14" viewBox="0 0 14 14">
  <defs>
    <style>
      .cls-1 {
        fill: #fff;
        fill-rule: evenodd;
      }
    </style>
  </defs>
  <path id="tel" class="cls-1" d="M1454.64,37.261a0.978,0.978,0,0,0-1.48,0c-0.35.343-.7,0.688-1.04,1.037a0.208,0.208,0,0,1-.29.052c-0.22-.122-0.46-0.221-0.68-0.355a10.74,10.74,0,0,1-2.59-2.36,6.143,6.143,0,0,1-.93-1.489,0.209,0.209,0,0,1,.05-0.274c0.35-.335.69-0.679,1.03-1.022a0.986,0.986,0,0,0-.01-1.517c-0.27-.274-0.54-0.543-0.81-0.817s-0.56-.562-0.84-0.839a0.984,0.984,0,0,0-1.48,0c-0.35.345-.69,0.7-1.05,1.034a1.709,1.709,0,0,0-.53,1.139,4.923,4.923,0,0,0,.38,2.077,12.5,12.5,0,0,0,2.24,3.732,13.862,13.862,0,0,0,4.6,3.592,6.655,6.655,0,0,0,2.54.74,1.857,1.857,0,0,0,1.6-.609c0.3-.332.64-0.635,0.95-0.953a0.99,0.99,0,0,0,.01-1.509C1455.75,38.368,1455.2,37.815,1454.64,37.261Zm-0.56-2.321,1.08-.184a4.844,4.844,0,0,0-4.09-3.959l-0.15,1.081A3.736,3.736,0,0,1,1454.08,34.94Zm1.69-4.673A7.978,7.978,0,0,0,1451.22,28l-0.16,1.081a6.9,6.9,0,0,1,5.86,5.672l1.08-.184A8.011,8.011,0,0,0,1455.77,30.267Z" transform="translate(-1444 -28)"/>
</svg>
